<svg width="164" height="164" viewBox="0 0 164 164" fill="none" xmlns="http://www.w3.org/2000/svg">
<path d="M55.0744 40.508C54.8899 40.6925 55.8944 41.5617 56.0363 41.6617C56.3723 41.9012 56.7678 42.0434 57.1794 42.0728C57.5909 42.1022 58.0026 42.0176 58.3693 41.8283C58.7359 41.639 59.0433 41.3523 59.2576 40.9998C59.472 40.6472 59.5851 40.2424 59.5844 39.8298C59.5641 39.297 59.367 38.7862 59.0242 38.3779C58.6813 37.9695 58.2123 37.687 57.6911 37.5748C57.8815 36.7967 57.7824 35.9759 57.4123 35.2655C57.0421 34.5551 56.4262 34.0036 55.6793 33.7139C54.9325 33.4242 54.1058 33.4161 53.3534 33.691C52.601 33.966 51.9743 34.5053 51.5903 35.2083C50.5832 34.3582 49.3114 33.8854 47.9936 33.8714C46.6758 33.8573 45.3942 34.3028 44.3692 35.1312C43.3443 35.9597 42.6399 37.1193 42.3773 38.4108C42.1147 39.7023 42.3102 41.0449 42.9302 42.2078C42.049 41.8532 41.0752 41.7996 40.1604 42.0555C39.2455 42.3114 38.4408 42.8623 37.8714 43.6227C37.302 44.3831 36.9997 45.3103 37.0116 46.2602C37.0236 47.21 37.3489 48.1294 37.9373 48.8752C37.2067 48.7882 36.4659 48.8618 35.7668 49.091C35.0676 49.3201 34.427 49.6993 33.8897 50.202C33.1769 50.8065 32.6107 51.565 32.2339 52.4203C31.857 53.2756 31.6794 54.2053 31.7143 55.1392C31.8036 57.3803 33.8422 60.0477 36.0668 59.9157C38.5681 59.4267 41.0354 58.7776 43.4534 57.9723C44.1728 57.7864 44.826 57.4032 45.3394 56.8661C47.0335 54.7751 47.4763 50.3668 47.4714 47.9281C47.4714 46.8334 47.2639 45.7502 47.2434 44.6695C47.7669 44.6649 48.2824 44.5415 48.7512 44.3085C49.22 44.0756 49.6297 43.7391 49.9494 43.3247C50.502 42.5769 50.7685 41.6559 50.7006 40.7285C51.3292 41.2359 52.1228 41.4939 52.9296 41.4532C53.7364 41.4125 54.5 41.076 55.0744 40.508Z" fill="#71B6F6"/>
<path d="M59.3949 54.1257C58.4495 52.7343 57.2675 51.5195 55.9025 50.5366C56.0066 50.612 54.6725 51.7666 54.5372 51.8543C54.1206 52.1356 53.372 52.2709 53.0694 52.6669C52.8491 53.1571 52.7507 53.6933 52.7824 54.2298C52.6933 55.0351 52.6288 55.8444 52.5889 56.6579C54.7259 56.5565 56.8509 56.2787 58.9422 55.8272C59.7155 55.7321 60.0763 55.104 59.3949 54.1257Z" fill="#71B6F6"/>
<path d="M122.447 35.014C123.689 35.6812 124.745 36.647 125.52 37.8245C126.296 39.002 126.766 40.354 126.888 41.7585C126.892 41.8578 126.935 41.9514 127.007 42.02C127.079 42.0887 127.174 42.1269 127.274 42.1269C127.373 42.1269 127.469 42.0887 127.54 42.02C127.612 41.9514 127.655 41.8578 127.659 41.7585C127.645 40.2023 127.167 38.6858 126.286 37.4031C125.404 36.1205 124.16 35.1301 122.712 34.5589C122.411 34.44 122.138 34.859 122.447 35.014Z" fill="#71B6F6"/>
<path d="M129.826 40.8704C129.886 40.2374 129.892 39.6004 129.844 38.9664C129.806 38.4539 129.01 38.4473 129.041 38.9664C129.077 39.631 129.172 40.2911 129.323 40.9393C129.396 41.2378 129.799 41.1418 129.826 40.8704Z" fill="#71B6F6"/>
<path d="M100.105 67.814C99.3771 66.994 96.4604 65.3024 94.9467 63.122C90.3022 56.43 88.8647 48.4661 88.8442 40.317C88.8688 40.3055 91.2222 38.6343 92.8852 38.5581C94.0297 38.5274 95.1633 38.7875 96.1799 39.3141C96.144 40.3356 96.2527 41.3571 96.503 42.3481C97.815 49.6732 101.494 57.8814 108.757 59.4664C108.793 59.4764 108.831 59.4791 108.868 59.4746C108.905 59.47 108.941 59.4581 108.973 59.4397C109.006 59.4213 109.034 59.3966 109.057 59.3672C109.08 59.3377 109.097 59.304 109.107 59.268C109.117 59.232 109.12 59.1943 109.115 59.1572C109.111 59.1201 109.099 59.0843 109.081 59.0518C109.062 59.0193 109.037 58.9907 109.008 58.9677C108.979 58.9448 108.945 58.9278 108.909 58.9178C105.208 57.3732 102.212 54.5096 100.501 50.8818C97.6125 45.0697 97.7683 41.1599 96.9991 39.0517C96.6588 38.1185 93.9528 37.3248 92.6917 37.3953C91.3608 37.4699 88.4162 38.8877 88.2727 39.3797C86.6491 44.9623 88.2858 51.3886 90.303 56.7711C91.2981 59.3945 92.6224 61.881 94.2439 64.1708C96.061 66.7595 98.7056 68.5086 99.7871 68.5602C99.874 68.5613 99.9593 68.5365 100.032 68.489C100.105 68.4416 100.162 68.3736 100.196 68.2936C100.23 68.2137 100.24 68.1254 100.223 68.04C100.207 67.9547 100.166 67.876 100.105 67.814Z" fill="#71B6F6"/>
<path d="M108.97 59.555C107.681 61.5467 109.292 64.5094 111.474 64.9907C113.602 65.4606 116.4 64.4815 117.062 62.2601C117.179 61.869 116.609 61.4926 116.336 61.8395C115.865 62.5286 115.22 63.0815 114.467 63.4429C113.714 63.8043 112.88 63.9614 112.047 63.8985C109.892 63.6476 109.45 61.5262 109.587 59.7165C109.613 59.3754 109.134 59.3016 108.97 59.555Z" fill="#71B6F6"/>
<path d="M142.123 89.8113C141.822 84.6256 141.324 80.6667 138.955 75.6253C136.323 70.0214 132.188 64.4733 126.791 61.2655C124.016 59.6156 120.719 58.712 117.548 59.6517C117.232 59.7452 117.275 60.2757 117.63 60.2478C125.542 59.6337 131.734 65.8525 135.661 72.0665C139.489 78.1304 140.514 82.6445 140.876 89.0331C140.886 90.9797 141.046 92.9227 141.356 94.8445C141.469 95.3652 142.193 95.1995 142.235 94.7239C142.317 93.0858 142.28 91.444 142.123 89.8113Z" fill="#71B6F6"/>
<path d="M140.61 94.6469C139.624 94.8965 138.615 95.0443 137.599 95.088C137.096 95.0725 136.473 94.8609 135.924 94.8609C135.731 91.257 133.267 85.4637 131.086 81.9631C128.701 78.1313 125.497 74.2641 121.475 72.0838C121.19 71.9288 120.87 72.3109 121.12 72.5389L121.165 72.584C121.118 72.6134 121.079 72.6544 121.052 72.703C121.025 72.7517 121.011 72.8063 121.011 72.8619C120.852 81.7934 123.893 90.6961 128.353 98.2582C128.804 99.0232 129.324 100.332 130.151 100.73C130.219 100.762 130.293 100.778 130.367 100.776C130.442 100.773 130.515 100.752 130.58 100.715C130.645 100.678 130.699 100.625 130.739 100.562C130.779 100.498 130.802 100.426 130.807 100.352C130.775 99.4824 129.982 98.6673 129.546 97.9375C125.389 90.9675 121.838 81.2325 121.698 73.0866C126.711 77.8492 130.39 81.5613 133.069 88.6215C133.875 90.7461 134.223 92.9446 134.873 95.0995C134.874 95.2089 134.905 95.3159 134.963 95.4087C135.02 95.5015 135.103 95.5764 135.201 95.6251C137.024 96.3533 139.711 96.7034 141.038 95.3685C141.363 95.0438 141.01 94.5813 140.61 94.6469Z" fill="#71B6F6"/>
<path d="M129.532 100.593C126.611 102.085 124.901 104.693 118.441 105.096C114.013 105.371 109.392 105.023 105.296 103.228C105.296 103.2 103.421 100.165 102.262 93.9253C99.4369 78.7725 100.896 73.9993 102.849 64.5857C102.91 64.2921 102.461 64.0502 102.328 64.3585C101.099 67.4607 100.299 70.7161 99.9502 74.0345C99.0768 80.7195 99.4575 87.5086 101.073 94.054C101.872 97.3319 102.988 100.524 104.406 103.586C108.337 106.53 114.158 106.586 118.867 106.261C121.025 106.125 123.14 105.594 125.108 104.696C126.738 103.942 129.208 102.792 130.028 101.081C130.067 101.012 130.082 100.932 130.071 100.853C130.061 100.774 130.024 100.702 129.967 100.646C129.911 100.59 129.837 100.555 129.759 100.545C129.68 100.536 129.6 100.552 129.532 100.593Z" fill="#71B6F6"/>
<path d="M81.42 4.40174C81.3076 3.90974 80.6303 4.06718 80.5918 4.51572C80.381 6.9462 80.9001 9.562 81.2478 11.9679C81.6138 14.5374 82.1158 17.0857 82.7516 19.6021C82.8681 20.0572 83.5298 19.8612 83.4528 19.4086C81.5143 8.00974 82.185 7.74078 81.42 4.40174Z" fill="#71B6F6"/>
<path d="M90.205 18.3459C94.6207 13.4718 97.521 10.9708 98.9658 9.16187C99.2217 8.84207 98.8912 8.25577 98.4853 8.54031C95.5645 10.5903 91.8163 15.1003 89.6498 17.9154C89.4046 18.2368 89.9368 18.6419 90.205 18.3459Z" fill="#71B6F6"/>
<path d="M96.1712 18.8444C98.8862 17.6693 101.911 16.6722 104.352 14.9756C104.705 14.7296 104.502 14.0917 104.04 14.2376C101.204 15.1536 98.5566 16.9305 95.9777 18.3901C95.7424 18.5271 95.9014 18.9608 96.1712 18.8444Z" fill="#71B6F6"/>
<path d="M73.2256 15.7793C71.9105 13.9529 70.4594 12.2285 68.8845 10.6206C68.8109 10.5547 68.7164 10.5167 68.6175 10.5133C68.5187 10.5099 68.4218 10.5413 68.3438 10.602C68.2657 10.6627 68.2114 10.7488 68.1903 10.8455C68.1693 10.9421 68.1828 11.043 68.2286 11.1307C69.4217 12.9108 70.7491 14.5973 72.199 16.1753C73.6291 17.9104 75.1026 19.5898 76.5745 21.2995C76.8476 21.616 77.4216 21.1831 77.1616 20.8444C75.8603 19.1495 74.5704 17.4463 73.2256 15.7793Z" fill="#71B6F6"/>
<path d="M70.881 24.0596C68.494 22.5738 65.8368 21.5748 63.0623 21.1199C62.6965 21.0715 62.6736 21.6209 62.9803 21.7316C65.5495 22.5542 68.0534 23.5684 70.471 24.7656C70.5637 24.8084 70.669 24.8151 70.7664 24.7844C70.8638 24.7536 70.9462 24.6876 70.9975 24.5993C71.0488 24.511 71.0653 24.4067 71.0437 24.3069C71.0221 24.2071 70.9641 24.1189 70.881 24.0596Z" fill="#71B6F6"/>
<path d="M26.3058 155.921C25.1226 155.675 24.3083 156.091 23.1997 155.218C21.5711 153.935 19.7819 149.637 18.6987 148.084C18.5183 147.825 18.0599 147.973 18.1616 148.312C18.5658 149.662 20.875 155.692 23.7048 156.904C24.4052 157.077 25.1299 157.131 25.8483 157.063C26.2853 157.425 21.6974 158.799 20.8463 158.759C19.7263 158.633 18.6146 158.441 17.5171 158.185C15.2293 156.331 13.1932 152.937 11.7943 150.352C12.1723 147.451 12.7217 146.869 12.2043 146.755C12.1499 146.743 12.0933 146.748 12.0418 146.769C11.9903 146.79 11.9464 146.826 11.9156 146.873C11.5368 147.435 10.757 149.754 11.0464 150.189C11.4994 152.026 12.3173 153.753 13.4515 155.267C14.3535 156.476 16.0288 159.405 20.4371 159.877C22.583 160.107 26.8593 158.672 27.2906 158.203C28.1074 157.311 27.3415 156.134 26.3058 155.921Z" fill="#71B6F6"/>
<path d="M33.9986 40.2226C34.3934 38.5756 35.0584 37.0054 35.9666 35.5757C36.9455 34.2048 38.0544 32.9314 39.2777 31.7734C39.3364 31.7125 39.3713 31.6326 39.3759 31.5482C39.3806 31.4638 39.3548 31.3805 39.3033 31.3135C39.2517 31.2465 39.1778 31.2003 39.095 31.1833C39.0121 31.1662 38.926 31.1795 38.8521 31.2207C35.8313 32.9361 34.0141 36.7672 33.318 40.0267C33.222 40.4768 33.892 40.6663 33.9986 40.2226Z" fill="#71B6F6"/>
<path d="M33.0459 33.0731C31.7526 34.4463 30.9791 36.2278 30.859 38.1103C30.8098 38.5449 31.4847 38.5343 31.5421 38.1103C31.8661 36.4321 32.5504 34.8441 33.5478 33.456C33.585 33.389 33.5968 33.3109 33.5811 33.2359C33.5654 33.1609 33.5233 33.0941 33.4624 33.0476C33.4015 33.0012 33.3259 32.9782 33.2494 32.9828C33.173 32.9875 33.1007 33.0195 33.0459 33.0731Z" fill="#71B6F6"/>
<path d="M112.771 52.0823C113.688 51.9273 114.24 50.8638 113.646 50.7162C113.356 50.644 113.309 50.9343 112.52 51.1737C112.2 51.231 111.873 51.2395 111.551 51.1992C111.468 51.2002 111.388 51.2341 111.33 51.2934C111.272 51.3526 111.239 51.4325 111.239 51.5157C111.242 51.8289 111.899 52.2824 112.771 52.0823Z" fill="#191919"/>
<path d="M110.891 55.2975C110.703 55.6796 109.977 57.9945 109.743 58.7472C109.648 59.049 110.119 59.2573 110.262 58.9744C110.616 58.2765 111.674 56.1208 111.805 55.7272C114.158 56.4955 116.572 54.9293 116.821 53.131C116.863 52.817 116.471 52.4496 116.208 52.7735C115.378 53.7952 114.588 54.8063 113.13 54.7874C112.465 54.7712 111.82 54.5547 111.279 54.1661C110.739 53.7776 110.328 53.2351 110.101 52.6095C109.144 50.2168 109.707 47.373 110.656 45.0762C110.738 44.8687 110.429 44.7761 110.317 44.9327C108.175 47.9298 107.765 53.4156 110.891 55.2975Z" fill="#191919"/>
<path d="M111.848 47.15C112.012 46.9606 111.799 46.6301 111.566 46.7834C110.846 47.2549 109.844 48.0372 109.844 49.0089C109.844 49.7527 110.888 50.5456 111.496 49.8666C111.543 49.8142 111.569 49.7462 111.569 49.6756C111.569 49.605 111.543 49.5369 111.496 49.4845C111.146 49.0917 110.571 49.1705 110.934 48.5005C111.189 48.0187 111.495 47.5659 111.848 47.15Z" fill="#191919"/>
<path d="M113.601 46.166C113.53 46.135 113.45 46.1314 113.376 46.1557C113.302 46.1801 113.24 46.2307 113.201 46.298C113.048 46.4795 112.922 46.6826 112.828 46.9007C112.794 46.995 112.799 47.0989 112.841 47.1898C112.884 47.2806 112.96 47.3509 113.055 47.3853C113.89 47.5329 113.909 46.3013 113.601 46.166Z" fill="#191919"/>
<path d="M114.373 46.9097C114.392 46.9719 114.429 47.0273 114.479 47.0692C114.529 47.1112 114.59 47.138 114.655 47.1466C114.72 47.1552 114.785 47.1452 114.845 47.1178C114.904 47.0904 114.954 47.0466 114.989 46.9917C115.105 46.7517 115.157 46.4859 115.139 46.22C115.122 45.9541 115.037 45.6972 114.892 45.4739C114.793 45.2369 114.627 45.0341 114.414 44.8905C114.201 44.7469 113.951 44.6689 113.694 44.6662C113.631 44.6678 113.57 44.6918 113.523 44.7341C113.476 44.7764 113.445 44.8341 113.437 44.8969C113.428 44.9597 113.443 45.0235 113.477 45.0767C113.511 45.13 113.563 45.1694 113.624 45.1877C113.922 45.2746 114.125 45.747 114.205 46.0159C114.284 46.2849 114.259 46.6227 114.373 46.9097Z" fill="#191919"/>
<path d="M116.207 43.9134C115.859 45.8076 117.292 49.0114 119.61 48.8646C118.558 50.3154 117.817 51.9677 117.433 53.7182C116.848 55.533 116.702 57.4611 117.008 59.3434C117.082 59.7075 117.569 59.5705 117.606 59.2614C117.75 57.4234 118.071 55.6037 118.564 53.8272C118.92 52.653 121.262 49.2967 122.145 46.5661C122.421 45.5635 122.393 44.5013 122.063 43.5149C121.851 42.8596 121.411 42.3025 120.821 41.946C120.232 41.5894 119.534 41.4574 118.855 41.574C118.543 40.2907 116.584 39.2271 114.702 39.9832C114.067 38.8704 112.499 38.6228 111.252 38.6712C109.674 38.7343 108.792 40.0931 108.75 41.5904C108.65 45.0237 113.588 44.69 116.207 43.9134Z" fill="#191919"/>
<path d="M89.1564 37.2985C87.2032 37.0886 87.2007 34.2899 87.1696 32.8311C87.1368 31.2567 87.5845 29.7373 87.5747 28.1784C87.5724 28.0943 87.5431 28.0132 87.4911 27.9471C87.4391 27.8809 87.3672 27.8333 87.286 27.8113C87.2048 27.7893 87.1186 27.7941 87.0403 27.8249C86.9621 27.8558 86.8958 27.911 86.8514 27.9825C85.7657 29.9915 85.0474 38.8425 89.245 37.9487C89.6435 37.8643 89.5066 37.3362 89.1564 37.2985Z" fill="#191919"/>
<path d="M88.8174 32.572C89.1454 30.6377 89.8391 28.7951 90.1827 26.8837C90.2025 26.7998 90.192 26.7117 90.153 26.6348C90.1141 26.558 90.0492 26.4974 89.9698 26.4638C89.8905 26.4302 89.8018 26.4258 89.7195 26.4513C89.6372 26.4768 89.5666 26.5307 89.5202 26.6033C88.5491 28.4087 88.0889 30.4449 88.1893 32.4925C88.186 32.8451 88.7559 32.9386 88.8174 32.572Z" fill="#191919"/>
<path d="M91.9707 26.1482C90.558 27.906 89.8246 30.1133 89.9043 32.3671C89.9051 32.4474 89.9348 32.5247 89.9879 32.585C90.0411 32.6453 90.1141 32.6844 90.1937 32.6952C90.2733 32.7061 90.3541 32.6879 90.4214 32.6441C90.4888 32.6002 90.5381 32.5336 90.5603 32.4564C90.8809 31.4519 91.113 30.422 91.4549 29.4224C91.7969 28.4229 92.2421 27.4807 92.5086 26.4639C92.5235 26.3963 92.5165 26.3257 92.4888 26.2623C92.461 26.1989 92.414 26.1458 92.3543 26.1108C92.2946 26.0758 92.2253 26.0605 92.1564 26.0672C92.0875 26.0739 92.0225 26.1023 91.9707 26.1482Z" fill="#191919"/>
<path d="M96.0098 26.8763C96.2246 26.5655 95.8138 26.2367 95.5227 26.3892C93.4227 27.4905 92.2074 30.1899 91.7507 32.3925C91.735 32.4649 91.7477 32.5405 91.7861 32.6038C91.8245 32.6672 91.8858 32.7134 91.9572 32.7329C92.0287 32.7525 92.1049 32.7439 92.1702 32.7089C92.2355 32.6739 92.2849 32.6153 92.3083 32.545C93.6195 29.169 95.0004 28.3376 96.0098 26.8763Z" fill="#191919"/>
<path d="M96.3497 31.1223C94.3907 31.7668 92.9631 34.2071 92.5203 36.1243C92.5 36.2138 92.516 36.3077 92.5649 36.3853C92.6138 36.463 92.6916 36.518 92.7811 36.5384C93.2862 36.6532 93.2149 35.9037 94.9131 33.7504C95.5635 33.0729 96.163 32.3482 96.7064 31.5823C96.7354 31.528 96.748 31.4665 96.7428 31.4052C96.7375 31.3439 96.7147 31.2854 96.677 31.2368C96.6393 31.1882 96.5884 31.1515 96.5303 31.1312C96.4722 31.1109 96.4095 31.1078 96.3497 31.1223Z" fill="#191919"/>
<path d="M134.48 101.874C134.351 102.324 134.376 102.805 134.55 103.241C134.724 103.676 135.038 104.042 135.442 104.279C137.112 105.242 139.645 105.003 141.448 104.639C143.177 104.288 144.633 103.714 144.633 101.719C144.472 99.5667 143.536 97.5454 141.998 96.0302C141.907 95.9441 141.787 95.8933 141.662 95.8872C141.536 95.881 141.413 95.9198 141.313 95.9965C141.214 96.0733 141.145 96.183 141.119 96.3059C141.093 96.4289 141.112 96.557 141.172 96.6673C141.834 97.9555 142.834 98.9846 143.249 100.416C143.42 101 143.668 102.06 143.288 102.643C142.907 103.225 141.772 103.381 141.138 103.51C139.706 103.816 138.226 103.821 136.792 103.526C134.644 103.067 135.838 101.23 135.782 99.7645C135.78 99.6939 135.753 99.6262 135.706 99.5736C135.659 99.5209 135.595 99.4866 135.525 99.4767C135.455 99.4669 135.384 99.4822 135.324 99.5198C135.264 99.5575 135.22 99.6151 135.199 99.6825C135.081 99.9645 134.953 100.279 134.828 100.607C133.516 100.786 134.09 99.2946 134.3 98.7288C134.542 98.0684 134.855 97.436 135.233 96.8428C135.41 96.5673 135.03 96.327 134.807 96.5148C133.737 97.4094 132.593 98.9273 132.798 100.422C132.906 101.212 133.755 102.019 134.48 101.874Z" fill="#191919"/>
<path d="M152.766 144.855C152.725 144.794 144.702 134.534 141.696 129.155C134.965 117.091 131.93 106.769 129.934 102.413C129.818 102.16 129.458 102.349 129.507 102.593C130.404 107.146 133.905 115.764 135.803 120.016C139.234 127.703 145.542 139.435 151.617 144.616C150.699 145.708 149.478 146.504 148.108 146.903C145.714 144.571 135.898 138.185 124.1 119.522C121.891 116.027 120 112.414 117.888 108.903C117.751 108.675 117.335 108.825 117.433 109.089C119.667 115.179 123.561 121.089 127.343 126.482C127.222 126.817 126.66 129.295 126.66 129.295C123.305 129.231 119.962 128.897 116.661 128.296C113.353 127.66 110.126 126.655 107.041 125.3C103.4 123.787 103.15 122.802 103.32 116.234C103.479 112.466 103.998 108.722 104.87 105.053C104.881 105.011 104.885 104.967 104.879 104.924C104.874 104.882 104.86 104.84 104.839 104.803C104.818 104.765 104.789 104.732 104.755 104.705C104.721 104.679 104.682 104.659 104.64 104.648C104.599 104.636 104.555 104.633 104.512 104.638C104.469 104.643 104.428 104.657 104.39 104.678C104.352 104.7 104.319 104.728 104.293 104.762C104.266 104.796 104.247 104.835 104.235 104.877C102.893 108.808 102.184 112.927 102.135 117.08C102.068 121.812 102.062 124.296 105.391 125.868C111.454 128.729 120.397 130.939 126.89 130.082C127.524 133.419 127.757 136.819 127.584 140.211C127.588 140.32 127.624 140.426 127.687 140.516C127.75 140.606 127.837 140.675 127.938 140.717C128.039 140.759 128.15 140.771 128.258 140.752C128.366 140.733 128.466 140.683 128.546 140.609C130.586 138.359 131.752 135.453 131.832 132.418C138.171 140.271 145.384 146.5 147.517 147.777C147.517 147.79 147.017 153.389 143.674 154.458C143.37 154.518 143.082 154.639 142.827 154.814C142.572 154.988 142.355 155.213 142.19 155.474C141.434 156.96 150.088 156.663 150.116 156.649C150.992 156.21 153.867 146.49 152.766 144.855Z" fill="#191919"/>
<path d="M115.097 107.647C114.59 111.307 113.728 114.909 112.526 118.403C112.488 118.553 112.51 118.711 112.586 118.845C112.663 118.979 112.788 119.078 112.936 119.122C116.47 120.203 119.761 121.977 123.268 123.075C123.611 123.182 123.753 122.72 123.495 122.531C121.248 120.883 116.255 118.923 113.813 118.166C114.823 114.767 115.44 111.264 115.652 107.724C115.671 107.408 115.14 107.327 115.097 107.647Z" fill="#191919"/>
<path d="M81.4875 27.5864C81.43 27.5323 81.3566 27.4982 81.2782 27.4892C81.1998 27.4801 81.1205 27.4966 81.0523 27.5363C80.984 27.5759 80.9303 27.6365 80.8993 27.709C80.8682 27.7816 80.8614 27.8623 80.8799 27.939C81.2489 29.4068 82.2935 30.6647 82.1525 33.4478C82.0607 35.3275 81.4287 37.1409 80.3321 38.6703C80.0927 38.9983 80.6339 39.4206 80.8987 39.1074C82.2722 37.5905 83.1174 35.6697 83.3079 33.6323C83.4629 31.6659 83.034 28.9738 81.4875 27.5864Z" fill="#191919"/>
<path d="M80.1958 32.367C80.2096 32.4476 80.2513 32.5207 80.3138 32.5733C80.3762 32.626 80.4553 32.6549 80.537 32.6549C80.6187 32.6549 80.6977 32.626 80.7601 32.5733C80.8226 32.5207 80.8644 32.4476 80.8781 32.367C80.9789 30.185 80.5796 27.2748 78.8281 25.7136C78.7747 25.6637 78.7067 25.6324 78.6341 25.6242C78.5615 25.6161 78.4882 25.6316 78.4251 25.6685C78.3621 25.7053 78.3125 25.7615 78.2839 25.8287C78.2553 25.8959 78.2492 25.9706 78.2664 26.0416C78.7387 27.6184 79.8949 28.9066 80.1958 32.367Z" fill="#191919"/>
<path d="M78.2891 31.7693C78.3383 32.2244 79.0377 32.2555 79.0328 31.7693C79.0098 29.5774 78.4162 26.2556 76.3498 25.0453C76.2893 25.0116 76.2204 24.9964 76.1515 25.0015C76.0825 25.0066 76.0166 25.0317 75.9617 25.0738C75.9069 25.1159 75.8656 25.1732 75.8429 25.2385C75.8202 25.3038 75.8171 25.3743 75.834 25.4413C76.3924 26.9313 77.8938 28.1309 78.2891 31.7693Z" fill="#191919"/>
<path d="M75.5608 29.1018C76.7227 32.4982 75.9773 33.497 76.621 33.4953C76.7 33.4953 76.7757 33.464 76.8315 33.4082C76.8873 33.3523 76.9187 33.2766 76.9187 33.1977C77.0863 31.7281 76.9555 30.2399 76.5341 28.8222C76.2246 27.448 75.5382 26.1873 74.5522 25.1814C74.2709 24.9509 73.6707 25.1584 73.8445 25.5914C74.3349 26.814 75.1286 27.8414 75.5608 29.1018Z" fill="#191919"/>
<path d="M75.2894 37.1689C75.3427 37.4453 75.7863 37.3805 75.7814 37.1025C75.7256 34.9475 75.0746 32.2735 73.0852 31.0927C73.0115 31.0517 72.9265 31.0358 72.8429 31.0475C72.7594 31.0593 72.682 31.098 72.6225 31.1578C72.563 31.2175 72.5246 31.2951 72.5133 31.3787C72.5019 31.4623 72.5182 31.5473 72.5596 31.6208C73.2386 32.8164 74.7211 34.2022 75.2894 37.1689Z" fill="#191919"/>
<path d="M79.9681 39.7856C79.5801 40.7382 79.3414 41.745 79.2605 42.7704C78.5388 46.0945 77.2971 49.2839 75.5811 52.2209C73.3409 56.2389 66.2512 62.4881 66.2512 62.4881C66.2512 62.4881 64.7752 59.6682 64.5538 54.2275C69.3003 51.5874 73.0196 47.4258 75.1121 42.4137C75.7551 41.1005 76.1709 39.6879 76.3421 38.2358C76.3651 37.7487 75.5811 37.4937 75.377 37.9742C74.675 39.6274 73.491 46.444 66.4939 51.5977C62.5536 54.4393 57.8688 56.0675 53.0156 56.2824C53.0771 55.7527 53.0156 55.2164 53.0639 54.6899C53.1123 54.1635 53.2279 53.5772 53.314 53.0196C57.6092 52.1422 58.143 44.5736 55.0295 41.3961C54.7228 41.082 54.2808 41.4781 54.4555 41.8405C55.487 44.0234 56.3005 46.0742 55.8601 48.5457C55.742 49.789 55.1443 50.9375 54.1939 51.7478C53.6138 52.1078 52.9281 52.2589 52.2504 52.1761C51.5726 52.0934 50.9435 51.7817 50.467 51.2927C50.2612 51.1 49.8864 51.3542 50.057 51.6067C50.3344 52.0596 50.723 52.4341 51.1858 52.6946C51.6487 52.955 52.1704 53.0929 52.7015 53.095C52.2966 54.1201 52.217 55.245 52.4735 56.3168C51.5586 56.3456 50.6427 56.316 49.7315 56.2283C49.2772 56.1807 44.3547 56.5694 42.1342 57.9708C40.996 57.8322 37.7012 59.154 36.782 59.6108C33.9843 60.9969 31.4257 62.8205 29.2028 65.0129C28.7452 65.4664 27.9892 66.042 28.031 66.7677C28.1772 67.4075 28.5601 67.9682 29.1027 68.3372C26.7674 70.4011 25.0085 73.6213 25.5275 76.725C26.1491 80.4404 29.452 83.6638 32.6886 85.3538C32.7695 85.3982 32.8636 85.4121 32.954 85.3932C33.0443 85.3742 33.1249 85.3236 33.1812 85.2505C33.2375 85.1774 33.2658 85.0865 33.261 84.9944C33.2563 84.9022 33.2187 84.8148 33.1552 84.7479C30.7821 82.2428 27.6497 80.5716 26.7838 76.9521C25.9859 73.6205 28.0736 71.3958 29.785 68.9161C30.6422 69.8132 31.5918 70.6172 32.6181 71.3146C32.6898 71.3536 32.7723 71.3682 32.8531 71.3564C32.9339 71.3446 33.0087 71.3069 33.0663 71.249C33.1239 71.1911 33.1612 71.1162 33.1726 71.0353C33.1841 70.9544 33.169 70.8721 33.1297 70.8005C32.6812 70.0067 29.2815 66.7997 29.3618 66.4651C29.493 65.9166 32.6025 63.4098 33.3602 62.8571C35.6204 61.2129 38.106 59.9033 40.7402 58.9687C38.6867 60.5913 37.0552 62.6856 35.9842 65.0736C34.659 68.06 34.3917 71.3597 34.29 74.5913C33.7111 92.9593 31.8833 91.5604 30.4582 96.0991C30.4328 96.1598 28.8657 102.712 28.6378 103.664C25.2922 114.975 23.1438 122.296 17.7523 134.197C14.9561 140.368 13.5391 142.689 12.2771 145.602C12.0795 146.057 12.9077 147.262 15.2693 147.939C15.9524 148.135 18.0885 147.939 18.701 147.17C19.3136 146.4 22.2483 142.517 23.9228 140.225C25.9728 137.424 37.4085 119.919 40.3064 113.561C41.7824 110.324 43.7799 103.409 44.1743 103.173C44.3244 103.084 44.5163 103.255 44.5687 103.419C44.6212 103.583 43.7865 107.151 43.4125 108.762C43.1838 109.746 42.8599 111.948 43.1846 112.376C43.9186 113.242 44.7109 114.057 45.556 114.815C43.7934 115.457 42.0919 116.256 40.472 117.202C38.5303 118.613 36.9706 121.384 35.7595 123.417C35.3306 124.136 33.3044 128.091 32.9657 128.878C32.915 128.966 32.8856 129.065 32.8799 129.167C32.8741 129.269 32.8922 129.371 32.9326 129.464C32.973 129.558 33.0347 129.641 33.1128 129.706C33.1909 129.772 33.2831 129.818 33.3823 129.842C36.5081 129.672 39.7193 128.626 42.6934 127.71C45.9577 126.716 49.1443 125.482 52.2275 124.02C54.8958 122.745 57.8593 121.228 59.6617 118.802C62.0052 115.646 54.8294 96.0212 52.1775 95.5514C51.9496 95.5112 48.7425 99.2127 35.9489 97.2627C34.4729 97.0372 33.2978 96.077 31.8776 95.6588C33.9276 92.7617 34.3688 88.9733 34.7788 85.567C36.0088 75.3613 34.2048 67.819 39.3232 61.9404C41.9132 58.9955 45.5326 57.1542 49.4379 56.7949C49.524 56.7949 53.4953 58.9654 63.8806 54.6006C63.7838 56.322 63.9075 58.0487 64.2487 59.7387C64.4398 60.6751 65.4689 64.1126 66.0035 64.6948C62.4119 67.6894 60.1192 68.3848 57.9364 69.6074C57.8494 69.7018 57.7869 69.8161 57.7543 69.9403C57.2566 72.9661 52.854 91.2037 52.476 93.0881C52.4508 93.2213 52.4766 93.3591 52.5484 93.4741C52.6202 93.5892 52.7327 93.6729 52.8634 93.7088C52.9942 93.7447 53.1336 93.73 53.254 93.6677C53.3745 93.6054 53.467 93.5001 53.5133 93.3726C54.2259 91.4694 58.4169 72.0018 58.2914 70.206C61.6051 69.632 64.6669 67.313 66.8703 64.9063C67.0343 64.7251 66.6973 63.6115 66.5013 63.1433C66.5833 63.2065 74.0338 57.0122 76.4774 52.9753C77.683 50.9818 78.6694 48.8637 79.4196 46.658C79.7959 45.5543 81.0005 40.959 80.6979 39.9135C80.6773 39.8387 80.6359 39.7713 80.5784 39.7191C80.521 39.667 80.4499 39.6322 80.3735 39.6188C80.2971 39.6054 80.2184 39.6139 80.1467 39.6435C80.0749 39.673 80.013 39.7223 79.9681 39.7856Z" fill="#191919"/>
<path d="M53.8134 47.7019C54.2972 48.0512 55.6059 48.6113 55.7683 47.6199C55.8396 47.1845 54.8704 45.2812 54.558 44.8114C54.4137 44.5957 53.9979 44.7294 54.1029 45.0008C54.3251 45.5748 54.8515 47.2279 54.8409 47.2443C54.8302 47.2607 54.3661 47.0434 54.1201 46.9672C53.6593 46.822 53.4641 47.4501 53.8134 47.7019Z" fill="#191919"/>
<path d="M52.07 45.815C52.1884 45.4452 52.1884 45.0476 52.07 44.6777C52.0451 44.5978 51.9954 44.528 51.9281 44.4783C51.8607 44.4287 51.7793 44.402 51.6956 44.402C51.612 44.402 51.5305 44.4287 51.4632 44.4783C51.3958 44.528 51.3461 44.5978 51.3213 44.6777C51.2028 45.0476 51.2028 45.4452 51.3213 45.815C51.3597 45.8802 51.4144 45.9341 51.4801 45.9716C51.5457 46.0091 51.62 46.0288 51.6956 46.0288C51.7712 46.0288 51.8455 46.0091 51.9112 45.9716C51.9768 45.9341 52.0315 45.8802 52.07 45.815Z" fill="#191919"/>
<path d="M50.7395 44.2226C51.2889 43.2476 52.0121 43.2558 52.4008 42.8663C52.4383 42.8277 52.4652 42.7801 52.4788 42.728C52.4925 42.6759 52.4924 42.6212 52.4786 42.5692C52.4648 42.5172 52.4378 42.4696 52.4001 42.4312C52.3625 42.3927 52.3155 42.3646 52.2638 42.3497C51.302 42.1521 50.5271 43.2566 50.2302 44.011C50.1204 44.2898 50.5943 44.4817 50.7395 44.2226Z" fill="#191919"/>
<path d="M50.4368 48.0905C50.9747 50.0741 52.9632 50.9958 53.9161 50.3324C53.977 50.2935 54.0255 50.2381 54.0561 50.1726C54.0867 50.1072 54.098 50.0344 54.0887 49.9627C54.0794 49.8911 54.0499 49.8236 54.0037 49.7681C53.9574 49.7126 53.8963 49.6714 53.8275 49.6493C53.2268 49.6142 52.6408 49.4497 52.1096 49.1672C51.6428 48.7711 51.2145 48.3318 50.8304 47.8552C50.7992 47.803 50.7485 47.7653 50.6895 47.7505C50.6306 47.7356 50.5681 47.7448 50.5159 47.776C50.4637 47.8072 50.4261 47.8579 50.4112 47.9169C50.3964 47.9758 50.4056 48.0383 50.4368 48.0905Z" fill="#191919"/>
</svg>
