<svg width="18" height="18" viewBox="0 0 18 18" fill="none" xmlns="http://www.w3.org/2000/svg">
<path fill-rule="evenodd" clip-rule="evenodd" d="M1.33333 0C0.59696 0 0 0.59696 0 1.33333V16C0 16.7364 0.59696 17.3333 1.33333 17.3333H16C16.7364 17.3333 17.3333 16.7364 17.3333 16V1.33333C17.3333 0.59696 16.7364 0 16 0H1.33333ZM2.73333 6.66667H5.26667V14.6667H2.73333V6.66667ZM5.43333 4.00667C5.43333 4.79828 4.79161 5.44 4 5.44C3.2084 5.44 2.56667 4.79828 2.56667 4.00667C2.56667 3.21505 3.2084 2.57333 4 2.57333C4.79161 2.57333 5.43333 3.21505 5.43333 4.00667ZM14.6667 9.80951C14.6667 7.40277 13.1112 6.46711 11.566 6.46711C11.06 6.44217 10.5563 6.54825 10.105 6.77476C9.76229 6.94676 9.40353 7.34031 9.12688 8.02471H9.05572V6.66725H6.66667V14.6729H9.20821V10.4149C9.17147 9.97884 9.31103 9.41523 9.59655 9.07983C9.88208 8.74443 10.2905 8.66433 10.6002 8.62365H10.6968C11.505 8.62365 12.1048 9.12401 12.1048 10.3849V14.6729H14.6463L14.6667 9.80951Z" fill="#65636D"/>
</svg>
