<svg width="164" height="164" viewBox="0 0 164 164" fill="none" xmlns="http://www.w3.org/2000/svg">
<path d="M154.779 130.665C104.816 130.92 52.7707 131.215 4.58339 131.157C3.99381 131.157 3.91099 132.082 4.51369 132.085C54.4328 132.37 104.746 131.921 154.681 131.675C155.349 131.673 155.428 130.661 154.779 130.665Z" fill="#191919"/>
<path d="M127.347 87.8664C127.319 88.4669 127.142 89.051 126.832 89.5655C126.504 90.0288 126.924 90.4675 127.384 90.0665C127.66 89.7694 127.855 89.406 127.949 89.0117C128.043 88.6174 128.034 88.2054 127.922 87.8156C127.894 87.7603 127.85 87.7147 127.795 87.6846C127.741 87.6545 127.679 87.6414 127.617 87.6468C127.555 87.6523 127.497 87.6761 127.448 87.7153C127.4 87.7544 127.365 87.807 127.347 87.8664Z" fill="#191919"/>
<path d="M127.474 85.1841C128.226 84.6032 128.761 83.7861 128.992 82.8643C129.178 82.1353 128.732 81.6581 128.31 82.5716C128.031 83.3236 127.618 84.0184 127.089 84.6216C126.676 85.0857 126.908 85.467 127.474 85.1841Z" fill="#191919"/>
<path d="M120.213 78.1214C120.364 80.8701 119.577 83.9344 120.361 86.3026C120.473 86.6412 121.043 86.5814 121.001 86.2009C120.778 84.3251 120.778 82.4294 121.001 80.5536C121.416 74.1928 119.607 74.9243 119.716 75.4769C119.995 76.3333 120.162 77.2222 120.213 78.1214Z" fill="#191919"/>
<path d="M126.501 83.8992C127.21 82.899 127.613 81.7141 127.66 80.4889C127.598 79.5606 126.902 79.4909 126.862 80.3445C126.756 81.4416 126.41 82.5017 125.846 83.4491C125.562 84.0796 125.944 84.6413 126.501 83.8992Z" fill="#191919"/>
<path d="M127.699 86.3813C127.388 86.7766 127.675 87.0914 128.125 86.8872C128.777 86.4528 129.293 85.8435 129.615 85.1292C129.943 84.1034 129.107 83.9812 128.983 84.665C128.874 85.2686 127.968 86.0386 127.699 86.3813Z" fill="#191919"/>
<path d="M123.546 81.208C123.786 80.6971 125.278 78.748 125.337 79.0038C125.255 80.4654 124.737 81.8688 123.847 83.0317C123.634 83.3105 123.944 83.8336 124.497 83.3843C125.387 82.6594 126.195 80.0485 126.098 78.9104C126.09 78.8094 126.062 78.7112 126.014 78.6221C125.966 78.533 125.9 78.4549 125.82 78.3931C125.739 78.3312 125.647 78.2868 125.549 78.2629C125.451 78.239 125.348 78.2361 125.249 78.2543C124.397 78.3978 123.324 80.0149 123.017 80.9604C122.919 81.2687 123.401 81.5138 123.546 81.208Z" fill="#191919"/>
<path d="M101.182 78.1215C101.102 78.059 101.011 78.0134 100.913 77.9874C100.815 77.9615 100.712 77.9557 100.612 77.9705C100.512 77.9853 100.416 78.0204 100.329 78.0736C100.243 78.1267 100.169 78.1969 100.11 78.2798C99.8872 78.6373 100.043 78.8636 100.375 78.6972C100.603 78.5818 100.861 78.5397 101.113 78.5766C101.368 78.5856 101.386 78.247 101.182 78.1215Z" fill="#191919"/>
<path d="M95.9217 82.6234C95.7823 82.3077 95.2255 82.5414 95.2813 82.8924C95.5191 84.3815 97.5125 85.0654 98.3489 84.8834C98.631 84.8219 98.8343 84.6242 98.6219 84.3815C98.2907 84.0035 96.7614 84.5308 95.9217 82.6234Z" fill="#191919"/>
<path d="M96.2456 76.4373C95.9409 76.5009 95.6603 76.6492 95.4362 76.8652C95.2121 77.0812 95.0535 77.3561 94.9787 77.6582C94.9049 78.1215 95.2526 78.3962 95.647 77.7927C95.7316 77.6461 95.8444 77.5176 95.979 77.4149C96.1136 77.3121 96.2672 77.2371 96.4309 77.1941C97.0754 77.0268 96.8631 76.3676 96.2456 76.4373Z" fill="#191919"/>
<path d="M97.6327 78.8645C97.4255 78.7817 97.1947 78.7795 96.986 78.8585C96.7773 78.9374 96.6057 79.0917 96.5052 79.2909C96.3412 79.6115 96.4822 79.8764 96.8529 79.6582C97.0804 79.5091 97.3467 79.4299 97.6187 79.4303C97.9082 79.4278 97.9435 79.0219 97.6327 78.8645Z" fill="#191919"/>
<path d="M101.465 75.9034C101.249 75.7148 100.987 75.5874 100.706 75.5344C100.424 75.4815 100.134 75.505 99.8643 75.6025C99.4281 75.7878 99.5027 76.2938 100.028 76.2938C100.406 76.2376 100.792 76.2759 101.151 76.4053C101.572 76.5611 101.697 76.1125 101.465 75.9034Z" fill="#191919"/>
<path d="M98.8087 81.5081C98.3987 81.8746 98.9293 82.1715 99.8198 81.7541C99.9821 81.7059 100.123 81.6037 100.219 81.4644C100.315 81.3251 100.361 81.1571 100.349 80.9882C100.185 80.3224 99.8983 79.6929 99.5041 79.1317C99.1761 78.798 99.0121 79.2392 99.1564 79.5959C99.3515 80.0807 99.5067 80.5807 99.6205 81.0907C99.6402 81.1383 98.9079 81.4179 98.8087 81.5081Z" fill="#191919"/>
<path d="M49.8688 49.9963C49.6572 53.0303 50.2927 61.2508 47.4006 64.0798C44.998 66.4291 40.8595 64.3865 39.1817 62.1036C38.8423 61.6403 38.4544 62.2143 38.7873 62.6694C40.7807 65.3869 45.2932 67.3516 48.0361 64.6645C50.779 61.9773 50.4239 54.0569 50.4813 50.1168C50.4863 49.7831 49.8959 49.6101 49.8688 49.9963Z" fill="#191919"/>
<path d="M34.9401 56.8261C35.345 57.5623 35.9564 58.164 36.699 58.5571C36.4422 60.8183 36.3646 63.0963 36.4669 65.3697C36.5145 66.553 37.2361 66.5177 37.2049 65.3697C37.1337 63.1263 37.2219 60.8807 37.4689 58.6498C37.6329 57.2066 37.1844 58.4702 35.8076 56.4735C34.7301 54.9106 35.3156 53.2271 36.2717 53.1115C37.432 52.9746 38.0684 54.4539 38.5923 53.8216C39.5765 52.3493 40.2112 50.6715 40.448 48.9164C43.2647 49.5724 53.1096 50.7737 53.6828 45.3084C54.3782 38.6738 42.1093 38.5475 38.4579 43.1649C36.5177 40.905 32.0356 43.383 35.4509 52.4457C34.1791 53.2181 33.9397 55.3083 34.9401 56.8261Z" fill="#191919"/>
<path d="M49.2711 51.7552C48.8658 51.388 48.3419 51.1787 47.7951 51.1656C47.2334 51.2034 47.0891 51.8438 47.7574 51.9856C48.127 51.9977 48.4852 52.1171 48.7881 52.3292C49.308 52.7901 49.7459 52.1816 49.2711 51.7552Z" fill="#191919"/>
<path d="M45.3455 58.1177C44.715 58.0758 44.3246 58.7851 45.471 58.8647C46.2041 58.9155 46.5796 58.7154 46.7609 58.3727C47.0339 57.8569 46.9372 55.8225 46.7609 54.9197C46.7609 54.8403 46.7293 54.7642 46.6732 54.708C46.6171 54.6519 46.5409 54.6204 46.4616 54.6204C46.3822 54.6204 46.3061 54.6519 46.2499 54.708C46.1938 54.7642 46.1623 54.8403 46.1623 54.9197C46.2393 57.6158 46.537 58.1964 45.3455 58.1177Z" fill="#191919"/>
<path d="M41.9469 58.7671C41.7058 61.2033 44.8169 62.2332 45.7008 61.4165C45.7418 61.3686 45.7695 61.3107 45.7813 61.2488C45.793 61.1868 45.7883 61.1228 45.7676 61.0632C45.747 61.0036 45.7111 60.9505 45.6636 60.909C45.6161 60.8676 45.5585 60.8393 45.4967 60.8269C45.1698 60.9114 44.8286 60.9249 44.4961 60.8665C44.1636 60.8081 43.8474 60.6792 43.5689 60.4884C43.2904 60.2976 43.0559 60.0493 42.8814 59.7603C42.7068 59.4714 42.5962 59.1483 42.557 58.813C42.5573 58.7355 42.5282 58.6607 42.4755 58.6037C42.4229 58.5467 42.3506 58.5118 42.2733 58.506C42.1959 58.5002 42.1193 58.5239 42.0587 58.5723C41.9981 58.6208 41.9582 58.6904 41.9469 58.7671Z" fill="#191919"/>
<path d="M48.2781 55.8807C48.9185 55.8315 48.8676 54.4941 48.2781 54.5301C47.8377 54.5572 47.6516 55.9291 48.2781 55.8807Z" fill="#191919"/>
<path d="M43.8464 54.4564C43.2503 54.5671 43.3823 55.7741 43.8464 55.7503C44.3105 55.7265 44.4442 54.3448 43.8464 54.4564Z" fill="#191919"/>
<path d="M44.2503 51.4445C43.8829 51.0345 42.3405 51.3198 42.1183 52.335C42.0625 52.5908 42.3454 53.1009 42.8325 52.4883C43.3196 51.8758 43.892 52.1866 44.0855 52.1218C44.1508 52.0988 44.2094 52.0599 44.2559 52.0086C44.3023 51.9573 44.3353 51.8951 44.3516 51.8279C44.368 51.7606 44.3673 51.6903 44.3496 51.6233C44.3319 51.5564 44.2978 51.4949 44.2503 51.4445Z" fill="#191919"/>
<path d="M38.1468 86.2379C38.3415 81.7709 38.8838 77.3259 39.7688 72.9432C39.882 72.3815 39.1702 72.2241 39.0538 72.7792C38.4584 75.6246 37.0587 83.4056 37.513 86.2362C37.5255 86.3112 37.5641 86.3792 37.622 86.4284C37.6798 86.4776 37.7533 86.5046 37.8292 86.5048C37.9052 86.505 37.9787 86.4783 38.0369 86.4295C38.095 86.3806 38.134 86.3127 38.1468 86.2379Z" fill="#191919"/>
<path d="M64.1898 118.549C64.4276 117.799 64.5744 107.055 64.3981 105.806C64.3774 105.736 64.3346 105.675 64.276 105.631C64.2175 105.588 64.1464 105.564 64.0734 105.564C64.0004 105.564 63.9293 105.588 63.8708 105.631C63.8122 105.675 63.7694 105.736 63.7487 105.806C63.5306 106.985 63.7438 112.595 63.401 118.549C63.3772 118.958 64.0603 118.956 64.1898 118.549Z" fill="#191919"/>
<path d="M24.3333 106.112C24.2849 108.49 25.674 117.251 26.1889 120.428C26.3398 121.357 26.3103 121.494 27.2336 121.764C37.3426 124.738 52.005 122.862 62.8716 121.913C62.9325 121.907 62.9916 121.889 63.0455 121.86C63.0994 121.831 63.1471 121.791 63.1858 121.744C63.2245 121.697 63.2536 121.642 63.2712 121.583C63.2888 121.525 63.2947 121.463 63.2886 121.402C63.2825 121.341 63.2644 121.282 63.2354 121.228C63.2064 121.175 63.1671 121.127 63.1197 121.088C63.0723 121.049 63.0178 121.02 62.9592 121.003C62.9005 120.985 62.839 120.979 62.7781 120.985C51.3605 121.987 38.3282 123.667 27.2057 120.916C26.5276 116.488 25.5903 111.764 25.0106 106.066C25.0016 105.677 24.3415 105.704 24.3333 106.112Z" fill="#191919"/>
<path d="M25.1357 86.6044C24.4117 87.3711 23.5835 90.5592 23.4555 91.4998C23.4514 91.5751 23.4746 91.6494 23.5209 91.709C23.5672 91.7686 23.6334 91.8095 23.7074 91.8242C23.7815 91.8388 23.8583 91.8263 23.9238 91.7888C23.9893 91.7514 24.0391 91.6915 24.064 91.6203C24.8151 88.4838 25.6031 87.6073 25.6597 86.8693C25.6794 86.6134 25.3292 86.3994 25.1357 86.6044Z" fill="#191919"/>
<path d="M72.3321 105.885C72.8848 105.85 72.9176 105.18 72.3321 105.138C67.842 104.833 63.3811 104.192 58.9866 103.222C58.2821 99.6623 58.1256 96.016 58.5225 92.4092C58.593 91.8484 57.8878 91.8713 57.8173 92.4092C57.3597 95.9 57.2326 99.658 58.2814 103.041C56.9169 102.66 52.8751 101.647 51.7845 100.777C51.2937 97.3834 51.129 93.9511 51.2925 90.5265C57.5169 90.4094 63.7194 91.2979 69.6605 93.1579C69.9951 93.2629 70.0221 92.7914 69.7253 92.6101C67.6753 91.3588 63.5171 90.6052 61.0809 90.2895C60.9324 89.2965 60.1895 86.2248 59.7164 85.7148C59.6836 85.6856 59.6454 85.6632 59.604 85.6488C59.5625 85.6344 59.5186 85.6284 59.4748 85.631C59.431 85.6335 59.3882 85.6447 59.3487 85.6639C59.3093 85.6831 59.274 85.7098 59.2449 85.7426C58.9169 86.1084 59.7033 86.9726 60.2592 90.1879C57.456 89.8193 54.6315 89.6363 51.8042 89.6401C50.7325 89.6401 50.4865 89.6401 50.3799 90.6241C50.1704 93.8179 50.2949 97.0248 50.7513 100.193C50.9096 101.38 51.1121 101.587 52.2823 102.179C55.6246 103.872 68.1566 106.156 72.3321 105.885Z" fill="#191919"/>
<path d="M37.2512 96.9847C36.7502 102.981 37.6243 114.304 38.6018 120.47C38.6838 121.007 39.5251 120.934 39.4513 120.388C38.4458 112.635 37.9342 104.827 37.9195 97.0093C37.9097 96.9294 37.8717 96.8556 37.8124 96.8012C37.7531 96.7468 37.6763 96.7152 37.5959 96.7123C37.5154 96.7093 37.4365 96.7351 37.3734 96.785C37.3102 96.835 37.2669 96.9058 37.2512 96.9847Z" fill="#191919"/>
<path d="M18.356 108.479C20.9826 107.639 23.3567 106.153 25.2612 104.159C25.8123 103.585 26.0074 103.291 25.4466 102.558C24.3736 101.305 23.6056 99.8203 23.203 98.2204C22.8003 96.6206 22.774 94.9491 23.126 93.3374C23.2801 92.4928 23.126 92.0114 22.2494 92.2468C19.6697 92.9405 15.2441 94.5641 13.4327 96.2238C13.1441 96.4878 13.4836 96.9757 13.8132 96.7806C16.4222 95.143 19.2723 93.9255 22.2592 93.1726C21.5212 97.4874 22.6586 99.9285 24.9464 103.302C23.964 104.357 22.8449 105.276 21.6188 106.035C17.7582 102.88 16.757 98.8371 16.9784 96.9495C17.0235 96.569 16.2355 95.9655 16.2453 97.0651C16.2615 98.8808 16.6921 100.669 17.5042 102.293C18.3164 103.917 19.4886 105.334 20.9316 106.436C20.1751 106.856 19.3849 107.213 18.5692 107.502C13.6935 109.224 11.1548 108.119 10.1519 103.094C8.55701 95.1028 15.0998 82.9857 20.2125 77.0612C24.3215 72.2986 25.7254 72.1625 32.1197 69.9567C32.6961 71.5621 33.5883 73.0357 34.7437 74.2904C35.8368 75.4811 36.2853 73.9304 39.4809 71.4508C40.5696 72.4776 41.5608 73.603 42.4419 74.8128C42.8199 75.2826 43.2619 75.2432 43.8359 75.012C47.1957 73.4594 50.2218 71.2688 52.746 68.5619C53.3725 69.1605 61.192 71.7828 65.9619 76.4921C70.3744 80.8496 76.3677 91.5358 77.182 97.8802C77.2525 98.4271 77.9069 98.2787 77.838 97.7268C77.018 91.3358 71.3403 80.6192 66.522 75.9148C62.8935 72.3683 57.8915 69.8296 53.1913 68.024C53.2378 67.9657 53.2722 67.8986 53.2923 67.8268C53.3123 67.7549 53.3178 67.6797 53.3082 67.6058C53.2986 67.5318 53.2743 67.4605 53.2366 67.3961C53.1989 67.3317 53.1486 67.2756 53.0888 67.231C52.2897 66.5007 51.4315 65.8377 50.523 65.2491C49.689 64.7218 49.6587 64.6997 48.8895 65.3705C45.7047 68.147 44.0171 69.1146 39.553 70.3306C38.1017 69.362 36.8154 68.1665 35.7433 66.7899C35.2816 66.1986 35.2423 66.1166 34.542 66.4791C33.567 66.9842 31.6039 68.4233 31.8549 69.1474C25.0726 71.5057 23.8451 71.4729 19.5442 76.5348C14.4135 82.5741 7.78949 94.5994 9.27451 102.929C10.2216 108.24 12.9375 110.208 18.356 108.479ZM49.7899 65.7575C50.7023 66.3346 51.5652 66.9866 52.3696 67.7066C49.8413 70.5886 46.6941 72.8617 43.1635 74.356C42.2682 73.115 41.2344 71.9802 40.0819 70.9735C43.7576 70.2208 47.1324 68.4084 49.7899 65.76V65.7575ZM35.1119 67.122C36.0914 68.6023 37.3643 69.8657 38.8519 70.8341C37.6483 71.6907 36.5653 72.7051 35.6318 73.8501C34.307 72.4861 33.2746 70.8661 32.5978 69.0891C33.2906 68.2687 34.145 67.5999 35.1078 67.1244L35.1119 67.122Z" fill="#191919"/>
<path d="M44.3983 97.6343C44.3983 97.4957 44.3474 97.3104 44.1941 97.2677C43.4372 97.0603 43.73 97.9237 41.2659 97.8573C41.1831 97.8429 41.0979 97.8598 41.0268 97.9047C40.9558 97.9496 40.904 98.0193 40.8815 98.1003C40.859 98.1813 40.8674 98.2678 40.9051 98.3429C40.9428 98.418 41.0071 98.4764 41.0855 98.5068C42.2802 98.9865 44.3868 98.3124 44.3983 97.6343Z" fill="#191919"/>
<path d="M42.9174 88.2747C42.5181 88.2099 42.4902 88.8093 42.8354 88.943C45.3258 89.913 46.3303 89.2808 48.664 91.2308C48.9469 91.4677 49.4906 91.2636 49.3643 90.8208C48.974 89.4391 45.5529 88.7027 42.9174 88.2747Z" fill="#191919"/>
<path d="M44.807 100.238C45.299 99.881 44.9882 99.2406 44.3847 99.5095C43.7301 99.8498 42.9718 99.9325 42.2593 99.7416C41.8788 99.6719 41.791 100.104 42.1158 100.382C42.7291 100.907 44.1854 100.689 44.807 100.238Z" fill="#191919"/>
<path d="M40.1988 95.8664C39.8708 95.9443 39.9298 96.5667 40.2808 96.5446C44.1872 96.2986 45.3467 92.1256 44.5357 91.4073C44.4814 91.359 44.4112 91.3323 44.3385 91.3323C44.2658 91.3323 44.1957 91.359 44.1413 91.4073C43.4099 92.0534 44.2414 94.9144 40.1988 95.8664Z" fill="#191919"/>
<path d="M43.7572 102.254C46.5452 102.969 49.6465 100.936 49.5792 99.8089C49.5792 99.5301 49.2315 99.2521 48.9626 99.4514C48.6936 99.6506 47.7793 101.818 43.8581 101.605C43.7803 101.607 43.7059 101.637 43.6477 101.689C43.5894 101.74 43.5511 101.811 43.5391 101.888C43.5272 101.965 43.5424 102.043 43.5822 102.11C43.622 102.177 43.6839 102.228 43.7572 102.254Z" fill="#191919"/>
<path d="M24.8068 92.7717C25.9778 91.2572 28.7805 88.3437 30.9224 89.5516C31.4095 89.8263 31.7522 89.0891 31.2619 88.8136C28.751 87.4056 25.2209 90.1461 24.3009 92.1821C23.9442 92.9693 24.5879 93.0546 24.8068 92.7717Z" fill="#191919"/>
<path d="M32.5326 98.3911C31.62 98.2924 30.7297 98.0448 29.8971 97.658C29.5691 97.6014 28.7491 98.4706 30.9271 98.97C33.3953 99.5383 32.9639 98.419 32.5326 98.3911Z" fill="#191919"/>
<path d="M29.3996 99.681C28.5132 99.2496 28.5246 100.462 30.0449 100.85C30.5099 100.969 31.9071 100.951 31.7759 100.386C31.6562 99.8761 31.1864 100.549 29.3996 99.681Z" fill="#191919"/>
<path d="M30.3325 102.254C30.7138 102.057 30.5219 101.472 30.1185 101.598C28.7245 102.025 27.7561 101.983 25.7987 101.255C25.7297 101.234 25.6559 101.237 25.5886 101.262C25.5212 101.288 25.4642 101.335 25.4262 101.396C25.3883 101.457 25.3715 101.529 25.3785 101.601C25.3855 101.672 25.4159 101.74 25.465 101.792C26.1755 102.265 26.9916 102.554 27.8408 102.634C28.69 102.715 29.546 102.584 30.3325 102.254Z" fill="#191919"/>
<path d="M33.8924 96.5396C31.3405 95.2169 30.7469 94.4281 30.0597 93.0316C29.9162 92.7389 29.2397 92.8487 29.475 93.6392C29.9482 95.2194 32.1712 96.5346 33.5586 97.2472C33.6059 97.2757 33.6587 97.294 33.7135 97.3008C33.7683 97.3077 33.8239 97.3029 33.8768 97.2869C33.9296 97.2709 33.9785 97.2439 34.0203 97.2078C34.0621 97.1717 34.0958 97.1272 34.1193 97.0772C34.1428 97.0272 34.1555 96.9729 34.1567 96.9177C34.1578 96.8625 34.1473 96.8076 34.126 96.7567C34.1046 96.7058 34.0727 96.6599 34.0325 96.6221C33.9923 96.5843 33.9445 96.5553 33.8924 96.5371V96.5396Z" fill="#191919"/>
<path d="M124.543 111.152C123.154 112.885 122.371 116.278 124.395 117.649C126.631 119.163 129.425 117.598 130.791 115.625C132.349 113.384 132.564 110.147 130.791 109.013C128.84 107.762 126.129 109.173 124.543 111.152ZM130.835 113.621C129.933 115.941 127.006 118.263 124.975 116.925C123.391 115.882 124.155 112.898 125.239 111.625C126.2 110.494 127.916 109.192 129.526 109.482C131.457 109.828 131.369 112.252 130.835 113.621Z" fill="#191919"/>
<path d="M104.496 126.131C104.449 126.131 90.3376 126.351 87.8596 126.451C85.9736 126.528 85.5398 126.67 85.5398 128.382C85.4818 128.774 85.5627 129.174 85.7686 129.513C85.9745 129.852 86.2924 130.109 86.6673 130.238C86.9871 130.31 87.1314 129.904 86.9182 129.672C86.7471 129.526 86.615 129.339 86.534 129.129C86.4529 128.919 86.4255 128.693 86.4541 128.469C86.5099 127.485 86.482 127.381 87.7948 127.338C93.1174 127.162 98.1621 127.348 103.693 127.096C104.871 127.043 105.201 127.148 105.368 125.982C106.419 118.642 107.441 109.194 108.695 101.129C109.284 97.3423 112.597 96.478 116.022 96.3681C123.479 96.1271 133.837 95.9442 141.382 95.8294C147.823 95.731 147.006 98.3443 146.654 102.326C145.834 111.607 144.92 119.732 143.734 127.718C143.657 128.232 143.439 128.715 143.104 129.112C143.055 129.14 143.013 129.177 142.979 129.222C142.946 129.268 142.923 129.319 142.911 129.374C142.899 129.428 142.899 129.485 142.91 129.54C142.922 129.595 142.944 129.646 142.977 129.692C143.01 129.737 143.052 129.775 143.101 129.803C143.149 129.831 143.203 129.848 143.259 129.854C143.314 129.86 143.37 129.854 143.424 129.836C143.477 129.819 143.526 129.79 143.567 129.753C144.17 129.155 144.552 128.369 144.649 127.526C145.651 119.425 146.725 111.559 147.47 103.373C148.062 96.8765 148.078 94.8856 142.045 94.8577C134.951 94.8249 122.092 95.4465 116.551 95.4563C111.869 95.4637 108.597 96.5494 107.878 101.368C106.652 109.604 105.484 118.071 104.496 126.131Z" fill="#191919"/>
<path d="M63.9063 122.874C52.8363 124.326 32.9636 125.686 26.4585 122.521C26.356 124.079 26.3699 127.797 26.3281 129.862C29.7155 129.82 61.7111 129.686 63.9153 129.598C63.9432 128.544 64.0416 124.525 63.9063 122.874Z" fill="#191919"/>
<path d="M102.807 79.4401C102.758 77.982 102.633 76.5275 102.431 75.0826C102.371 74.7948 101.84 74.7489 101.874 75.0826C102.165 77.9526 102.808 85.4966 101.178 87.5188C100.294 88.6159 98.2452 88.962 94.7462 87.8623C94.2829 87.7164 94.1632 88.1903 94.5888 88.4003C95.8721 89.0238 97.2825 89.3416 98.7093 89.3285C98.8407 90.6533 99.132 91.9573 99.5769 93.212C99.7015 93.5605 100.255 93.4129 100.151 93.048C99.9146 92.2279 99.7365 91.3922 99.6179 90.547C104.857 90.0829 110.128 86.0788 108.843 85.5909C107.558 85.103 104.788 83.3056 102.807 79.4401Z" fill="#191919"/>
<path d="M90.4291 91.8344V93.4162C90.4217 93.5032 90.4492 93.5895 90.5055 93.6563C90.5618 93.723 90.6423 93.7647 90.7293 93.772C90.8163 93.7794 90.9026 93.752 90.9694 93.6957C91.0361 93.6394 91.0777 93.5589 91.0851 93.4719C91.2853 90.8968 91.2449 88.3086 90.9646 85.741C90.8621 84.8119 91.0154 84.5774 90.2266 84.4421C89.1032 84.2486 88.6924 83.0481 88.5144 81.8853C88.3504 80.8046 88.7235 79.6713 89.6469 79.6205C90.4956 79.5762 90.7612 80.6324 91.1589 79.4024C91.3845 78.2762 91.3641 77.1145 91.0991 75.9969C93.3869 75.9969 101.894 75.7288 106.821 71.1286C107.507 70.4881 104.25 70.6136 102.677 68.2586C99.6058 63.6592 90.7276 60.89 87.637 68.876C83.701 67.3074 81.5403 70.9605 82.7744 81.1129C83.3197 85.5999 79.6978 89.4654 79.6584 89.9295C79.6191 90.3936 84.5087 92.2567 90.4291 91.8344Z" fill="#191919"/>
<path d="M47.4776 81.1891C46.6962 81.004 45.929 80.7637 45.1816 80.4699C45.9335 79.4539 46.7224 78.4609 47.4095 77.4023C47.4661 77.3302 47.4917 77.2386 47.4807 77.1476C47.4697 77.0567 47.423 76.9738 47.3509 76.9173C47.2788 76.8607 47.1872 76.8351 47.0963 76.8461C47.0053 76.8571 46.9224 76.9038 46.8659 76.9759C45.8852 78.0662 44.9669 79.2111 44.1156 80.4051C44.044 80.505 44.0149 80.6292 44.0347 80.7505C44.0546 80.8718 44.1217 80.9803 44.2214 81.0521C44.8413 81.3485 45.4879 81.5855 46.1525 81.7598C45.0529 82.5535 43.4145 83.4728 42.3756 84.0804C41.7196 84.4641 41.9106 85.057 42.6166 84.8036C44.3279 83.9823 45.985 83.0524 47.5776 82.0197C48.0221 81.7967 48.0516 81.3244 47.4776 81.1891Z" fill="#71B6F6"/>
<path d="M33.6793 84.6929C33.1364 83.2063 32.4837 81.75 31.8228 80.3117C31.6498 79.9345 31.2488 79.7082 30.9741 80.2846C30.7576 80.7544 30.4932 81.2007 30.1852 81.6163C29.4858 80.4302 28.888 79.187 28.3985 77.9001C28.3823 77.8577 28.358 77.8189 28.3268 77.7859C28.2957 77.753 28.2584 77.7265 28.217 77.7079C28.1756 77.6894 28.131 77.6792 28.0856 77.6779C28.0403 77.6766 27.9952 77.6842 27.9528 77.7004C27.9104 77.7165 27.8716 77.7409 27.8387 77.772C27.8057 77.8032 27.7792 77.8405 27.7607 77.8819C27.7421 77.9233 27.7319 77.9679 27.7306 78.0132C27.7293 78.0585 27.737 78.1037 27.7531 78.1461C28.2828 79.7224 28.9376 81.2538 29.7113 82.7258C29.7401 82.8014 29.7881 82.8681 29.8506 82.9195C29.9131 82.9708 29.9879 83.005 30.0677 83.0186C30.1474 83.0321 30.2294 83.0247 30.3053 82.9969C30.3813 82.9691 30.4487 82.922 30.5009 82.8602C30.8284 82.4242 31.1126 81.9573 31.3496 81.4662C31.9543 82.6032 32.4995 83.7708 32.9831 84.9644C32.9949 85.0176 33.0181 85.0676 33.0511 85.111C33.0841 85.1544 33.126 85.1902 33.1741 85.2158C33.2222 85.2415 33.2753 85.2564 33.3297 85.2596C33.3841 85.2629 33.4386 85.2543 33.4894 85.2345C33.5402 85.2147 33.5861 85.1841 33.624 85.1449C33.6618 85.1057 33.6908 85.0588 33.7088 85.0074C33.7268 84.9559 33.7335 84.9012 33.7284 84.8469C33.7233 84.7926 33.7066 84.7401 33.6793 84.6929Z" fill="#71B6F6"/>
<path d="M19.6783 108.493C15.6291 114.026 15.9661 121.531 8.54105 127.296C7.71039 127.941 7.61609 129.257 9.30201 127.936C15.903 122.763 16.609 115.794 20.3228 108.912C20.5491 108.49 19.9243 108.158 19.6783 108.493Z" fill="#71B6F6"/>
<path d="M68.2645 122.047C55.9891 116.766 55.2126 106.1 49.2405 101.82C48.883 101.564 48.523 102.101 48.7764 102.405C55.6382 110.665 56.4188 118.271 67.9644 123.026C68.5835 123.281 68.8549 122.301 68.2645 122.047Z" fill="#71B6F6"/>
<path d="M140.148 76.096C139.771 81.4998 139.787 88.091 135.387 92.5838C134.928 93.052 135.606 93.822 136.06 93.3488C140.622 88.6018 141.095 82.6298 141.021 76.1518C141.025 76.0945 141.017 76.037 140.998 75.9827C140.98 75.9284 140.951 75.8782 140.913 75.8351C140.875 75.792 140.829 75.7568 140.777 75.7315C140.726 75.7062 140.67 75.6913 140.612 75.6877C140.555 75.684 140.498 75.6917 140.443 75.7102C140.389 75.7287 140.339 75.7578 140.296 75.7957C140.253 75.8336 140.218 75.8797 140.192 75.9312C140.167 75.9827 140.152 76.0387 140.148 76.096Z" fill="#71B6F6"/>
<path d="M139.21 37.101C139.095 35.7553 139.092 33.1305 138.834 32.017C138.752 31.6693 138.197 31.5807 138.101 31.971C137.932 33.7441 137.976 35.531 138.231 37.2937C138.309 37.9037 139.268 37.7922 139.21 37.101Z" fill="#71B6F6"/>
<path d="M118.735 54.549C119.422 54.5998 122.299 54.0422 123.348 53.9405C123.881 53.8897 123.813 52.9729 123.255 53.0131C122.425 53.0713 119.339 53.3838 118.573 53.8438C118.509 53.8884 118.46 53.951 118.432 54.0235C118.404 54.0961 118.399 54.1753 118.416 54.2511C118.434 54.3269 118.473 54.3957 118.53 54.4488C118.587 54.5018 118.658 54.5367 118.735 54.549Z" fill="#71B6F6"/>
<path d="M123.971 40.1171C125.037 41.0428 125.588 41.4651 126.291 42.108C126.793 42.5664 127.528 42.0818 127.099 41.5562C126.217 40.6164 125.24 39.7703 124.185 39.0314C123.328 38.2663 122.841 39.1396 123.971 40.1171Z" fill="#71B6F6"/>
<path d="M151.864 35.7087C151.011 36.3171 149.65 38.6106 149.15 39.4864C149.112 39.5432 149.086 39.6072 149.074 39.6744C149.062 39.7416 149.064 39.8106 149.08 39.877C149.096 39.9434 149.125 40.0059 149.166 40.0606C149.207 40.1153 149.258 40.1609 149.318 40.1947C149.377 40.2286 149.442 40.2498 149.51 40.2572C149.578 40.2646 149.647 40.2579 149.712 40.2376C149.777 40.2173 149.838 40.1839 149.889 40.1393C149.941 40.0947 149.983 40.0399 150.013 39.9784C150.781 38.6795 151.628 37.4241 152.416 36.1367C152.565 35.8915 152.12 35.5233 151.864 35.7087Z" fill="#71B6F6"/>
<path d="M128.529 52.6228C128.857 57.1057 132.096 60.9384 135.596 63.5091C136.06 63.8494 136.416 63.277 136.019 62.9064C133.373 60.4152 130.62 57.8011 129.778 54.0897C126.804 41.0001 149.992 39.1428 150.126 51.1681C150.174 55.5625 147.338 59.1885 144.738 62.4677C144.334 62.9777 144.92 63.4017 145.351 62.9318C148.036 59.9978 150.74 56.4358 151.091 52.2587C152.281 38.317 127.53 39.0731 128.529 52.6228Z" fill="#71B6F6"/>
<path d="M159.401 48.6737C157.786 48.8615 156.153 49.0763 154.563 49.3658C154.099 49.4478 154.289 50.1686 154.711 50.1358C156.335 50.0106 157.956 49.828 159.574 49.588C160.124 49.5068 159.916 48.6147 159.401 48.6737Z" fill="#71B6F6"/>
<path d="M143.678 53.774C147.472 50.4391 142.995 47.2214 141.386 51.0729C140.991 52.0215 140.681 53.003 140.458 54.0061C139.581 54.1619 138.687 54.2071 137.799 54.1406C137.456 52.8646 136.987 50.7786 135.667 50.2046C132.967 49.0303 131.551 54.1676 136.999 55.0581C137.612 57.641 138.091 60.254 138.433 62.8867C138.443 62.9684 138.483 63.0434 138.545 63.0978C138.607 63.1521 138.687 63.1821 138.769 63.1821C138.852 63.1821 138.931 63.1521 138.993 63.0978C139.055 63.0434 139.095 62.9684 139.106 62.8867C139.062 60.2852 138.711 57.6981 138.061 55.1787C138.795 55.2081 139.529 55.1738 140.256 55.0762C139.907 57.6319 140.048 60.2308 140.674 62.7333C140.812 63.3688 141.514 63.1966 141.398 62.5841C140.913 60.0387 140.901 57.4255 141.365 54.8761C142.22 54.7208 143.019 54.3404 143.678 53.774ZM143.706 50.4604C145 51.3116 142.978 53.4124 141.609 53.7404C142.365 50.7015 143.228 50.1455 143.706 50.4604ZM134.425 52.4932C133.892 51.4534 134.815 50.5301 135.664 51.4075C136.194 52.175 136.549 53.0491 136.704 53.9684C136.243 53.8895 135.803 53.718 135.409 53.4643C135.016 53.2107 134.678 52.88 134.416 52.4924L134.425 52.4932Z" fill="#71B6F6"/>
<path d="M158.375 61.7781C156.986 60.9783 155.522 60.3164 154.005 59.8019C153.614 59.6953 153.369 60.2939 153.693 60.5161C155 61.3993 156.568 61.8478 157.93 62.6481C158.792 63.159 159.438 62.5022 158.375 61.7781Z" fill="#71B6F6"/>
<path d="M128.216 63.4304C127.613 63.5444 125.565 65.9823 125.264 66.5464C124.658 67.6944 125.516 67.8142 125.705 67.4747C126.565 65.9323 128.089 64.8794 128.536 64.2258C128.746 63.9216 128.698 63.3394 128.216 63.4304Z" fill="#71B6F6"/>
<path d="M135.846 64.4464C135.614 70.6923 136.954 74.5258 140.361 74.5324C144.699 74.5389 145.168 69.3311 144.876 64.129C141.882 64.5089 138.859 64.6151 135.846 64.4464ZM142.783 70.1355C141.606 70.9239 140.255 71.4159 138.847 71.5697C138.327 71.5787 138.227 71.0023 138.722 70.8784C139.996 70.5736 141.205 70.0405 142.29 69.3049C142.399 69.2583 142.521 69.2529 142.633 69.2895C142.745 69.3262 142.841 69.4024 142.901 69.5041C142.961 69.6057 142.982 69.7258 142.961 69.842C142.939 69.9582 142.876 70.0625 142.783 70.1355ZM142.922 67.0409C141.908 67.8494 138.472 68.7112 137.975 68.6809C137.609 68.6809 137.385 68.2848 137.748 68.0453C138.392 67.6206 140.454 67.2639 142.389 66.2413C143.042 65.8969 143.547 66.5423 142.926 67.0409H142.922Z" fill="#71B6F6"/>
<path d="M35.9986 87.5605C32.5546 87.7245 31.2 89.1801 31.4 91.8246C31.6001 94.4691 33.1352 95.0734 36.0076 95.1431C35.356 93.9861 35.0129 92.6809 35.0113 91.353C35.0098 90.0251 35.3497 88.7191 35.9986 87.5605Z" fill="#71B6F6"/>
<path d="M42.0929 91.5277C42.1438 88.5446 39.3049 87.686 37.1418 87.5605C36.4216 88.6921 36.0391 90.0056 36.0391 91.3469C36.0391 92.6882 36.4216 94.0017 37.1418 95.1332C39.4615 95.0357 41.4008 94.5396 41.9256 92.6232C42.4455 92.8455 42.68 93.3612 43.081 93.0078C43.696 92.4625 42.5193 91.7508 42.0929 91.5277Z" fill="#71B6F6"/>
<path d="M97.8088 101.068C96.6674 99.4399 92.2681 96.3214 88.6166 93.7556C85.54 94.6831 79.8278 97.3751 76.7463 100.517C73.6647 103.658 68.5955 118.316 69.8968 125.574C70.7988 130.604 74.6815 129.946 84.7462 129.853C84.5232 129.152 84.3059 126.646 85.5769 125.899C86.8479 125.152 99.2938 125.243 103.674 125.282C103.855 124.293 104.208 121.57 104.603 118.279C96.9831 117.815 87.3218 119.037 79.7565 119.649C79.2924 119.686 79.2604 119.254 79.6958 119.185C80.7248 118.968 81.7621 118.793 82.8053 118.66C82.9307 116.804 83.5785 110.706 84.2714 108.915C84.4174 108.54 84.8241 108.678 84.7585 109.045C84.2199 112.196 83.8667 115.375 83.7007 118.567C90.6734 117.745 97.6918 117.373 104.712 117.454C107.053 98.6806 106.723 96.9364 111 95.3792C109.77 94.7577 103.877 92.9668 101.019 92.9668C100.798 94.0336 99.1265 99.3095 97.8088 101.068Z" fill="#71B6F6"/>
<path d="M118.059 94.5461C120.546 94.4583 125.088 94.3419 126.694 94.2542C126.806 93.6088 126.996 92.6142 127.367 91.1029C126.439 90.4469 121.455 87.8918 119.987 87.2489C119.873 87.7458 118.528 92.7019 118.059 94.5461Z" fill="#71B6F6"/>
</svg>
