<svg width="164" height="164" viewBox="0 0 164 164" fill="none" xmlns="http://www.w3.org/2000/svg">
<path d="M79.8136 63.2475C79.7653 63.4615 79.3389 64.6136 79.2921 64.7153C79.0518 65.2528 78.6952 65.7302 78.2479 66.1131C77.8007 66.496 77.274 66.7748 76.7058 66.9293C76.4212 67.0449 76.1264 67.1336 75.8252 67.1942C75.7295 67.1942 75.6377 67.2322 75.57 67.2998C75.5024 67.3675 75.4644 67.4593 75.4644 67.555C75.4644 67.6507 75.5024 67.7424 75.57 67.8101C75.6377 67.8778 75.7295 67.9158 75.8252 67.9158C76.1987 67.9832 76.5804 67.9926 76.9568 67.9436C79.1617 67.6156 80.9748 65.0564 80.4598 63.2434C80.4595 63.201 80.4509 63.159 80.4344 63.1199C80.4179 63.0808 80.3939 63.0454 80.3637 63.0155C80.3335 62.9857 80.2978 62.9622 80.2585 62.9462C80.2192 62.9302 80.1771 62.9221 80.1347 62.9224C80.0922 62.9226 80.0503 62.9313 80.0112 62.9478C79.9721 62.9642 79.9366 62.9883 79.9068 63.0185C79.877 63.0486 79.8534 63.0844 79.8374 63.1237C79.8215 63.163 79.8134 63.2051 79.8136 63.2475Z" fill="#38A1FF"/>
<path d="M41.7134 141.243C41.2214 139.895 38.171 141.032 36.1727 141.243C36.3621 140.856 36.1227 140.925 34.8517 137.23C32.625 129.959 30.0045 122.815 27.0018 115.828C25.1552 111.591 23.062 107.465 20.7329 103.472C20.6894 103.386 20.6135 103.321 20.522 103.29C20.4304 103.26 20.3306 103.268 20.2446 103.311C20.1586 103.355 20.0934 103.431 20.0633 103.522C20.0332 103.614 20.0408 103.714 20.0843 103.8L15.662 105.78C15.6309 105.716 15.5795 105.663 15.5159 105.631C15.4522 105.598 15.3797 105.588 15.3094 105.6C15.239 105.613 15.1747 105.648 15.1261 105.7C15.0776 105.753 15.0475 105.82 15.0405 105.891C14.847 108.023 14.8363 110.44 16.3525 111.926C16.3525 114.831 10.9151 128.632 9.16681 132.12C8.08163 134.289 6.78083 136.344 5.28411 138.252C5.19383 138.374 5.15525 138.527 5.17669 138.678C5.22179 139.065 5.44237 138.997 7.27835 140.35C7.67359 140.646 8.08687 140.952 8.46407 141.27C8.52373 141.32 8.59343 141.357 8.66841 141.377C8.74339 141.397 8.82189 141.401 8.89855 141.389C8.97522 141.376 9.04824 141.347 9.11265 141.304C9.17706 141.26 9.23133 141.203 9.27177 141.137C11.0899 138.184 12.6985 135.108 14.086 131.93C15.7391 128.169 19.5193 118.02 20.1761 114.367C21.5587 117.332 23.1035 120.215 24.5221 123.165C28.6664 131.799 28.855 135.749 31.6717 143.143C31.6983 143.215 31.7398 143.28 31.7933 143.335C31.8468 143.39 31.9112 143.433 31.9823 143.461C32.0534 143.489 32.1297 143.502 32.2061 143.499C32.2826 143.496 32.3575 143.477 32.4261 143.443C33.455 142.942 34.4596 142.392 35.4363 141.796C35.465 141.834 35.5013 141.865 35.5428 141.888C35.5843 141.911 35.6301 141.925 35.6774 141.93C37.6954 142.309 39.793 141.544 40.6171 141.714C40.5041 141.925 40.3664 142.121 40.2071 142.299C39.9995 142.515 39.764 142.702 39.5068 142.855C38.1997 143.648 34.9591 145.042 33.83 144.003C33.7994 143.967 33.762 143.938 33.72 143.917C33.6781 143.896 33.6323 143.884 33.5855 143.881C33.5387 143.878 33.4917 143.884 33.4474 143.899C33.4031 143.915 33.3622 143.939 33.3273 143.97C33.2582 144.035 33.2161 144.123 33.2094 144.217C33.2027 144.312 33.2319 144.405 33.2912 144.479C33.6528 144.86 34.109 145.139 34.6132 145.287C35.1175 145.435 35.6518 145.446 36.162 145.32C37.7428 145.02 39.2425 144.389 40.563 143.47C41.048 143.09 41.4359 142.6 41.6946 142.04C41.7512 141.916 41.782 141.781 41.7853 141.643C41.7885 141.506 41.7641 141.37 41.7134 141.243Z" fill="#191919"/>
<path d="M11.5359 145.135C10.9299 143.974 8.86187 143.89 7.92789 142.455C7.87738 142.377 7.85679 142.282 7.86988 142.19C7.88297 142.097 7.92887 142.012 7.99923 141.95C8.07887 141.894 8.17726 141.869 8.27413 141.883C8.371 141.897 8.45897 141.947 8.51993 142.023C9.07835 142.717 10.3379 142.895 11.3079 143.438C12.0804 143.871 12.8996 144.781 12.6732 145.617C12.3641 146.691 10.6454 146.664 9.54739 146.643C8.56367 146.597 7.6049 146.318 6.74969 145.83C5.89448 145.342 5.16717 144.658 4.62739 143.834C4.25331 143.25 4.08868 142.557 4.1605 141.867C4.23231 141.178 4.53631 140.533 5.02263 140.039C5.04912 140.005 5.08209 139.976 5.11964 139.955C5.1572 139.933 5.19862 139.919 5.24152 139.914C5.28443 139.908 5.32799 139.911 5.36971 139.923C5.41144 139.934 5.45051 139.954 5.4847 139.98C5.51889 140.007 5.54753 140.04 5.56898 140.077C5.59043 140.115 5.60427 140.156 5.60971 140.199C5.61516 140.242 5.6121 140.286 5.60071 140.327C5.58932 140.369 5.56982 140.408 5.54333 140.442C3.95745 142.856 7.05049 145.488 9.56707 145.526C10.2124 145.58 10.8622 145.524 11.4892 145.362C11.6564 145.293 11.6491 145.357 11.5359 145.135ZM11.6072 145.316C11.5892 145.316 11.6072 145.289 11.6072 145.289C11.6253 145.298 11.6253 145.304 11.6072 145.316Z" fill="#191919"/>
<path d="M145.325 86.3994C145.034 83.269 143.807 80.2987 141.804 77.8755C141.295 77.3516 140.736 76.8792 140.134 76.4651C139.56 80.7709 138.51 84.9988 137.96 89.3038C137.833 90.3009 138.769 91.1168 138.948 92.1058C140.518 91.5578 142.119 91.1076 143.744 90.7577C143.697 89.9549 143.809 89.1507 144.074 88.3914C144.339 87.6322 144.752 86.9331 145.289 86.3346L145.325 86.3994Z" fill="#38A1FF"/>
<path d="M122.655 87.7155C123.5 83.4425 124.344 79.1588 125.115 74.8751C120.547 76.8065 116.688 80.1046 114.068 84.3166C113.496 85.3205 112.986 86.3587 112.542 87.4252C113.666 87.97 114.753 88.5908 115.793 89.2833C116.928 89.9467 118.145 90.4781 119.296 91.1562C119.906 90.588 120.416 89.9082 121.002 89.2948C121.494 88.7807 122.08 88.3371 122.565 87.8188L122.655 87.7155Z" fill="#38A1FF"/>
<path d="M107.42 45.3264C107.971 46.8721 110.423 47.647 112.036 47.2083C112.329 47.1159 112.613 46.9931 112.88 46.8417C112.972 46.8131 113.048 46.7494 113.092 46.6646C113.137 46.5798 113.146 46.4809 113.117 46.3895C113.088 46.2982 113.025 46.2219 112.94 46.1776C112.855 46.1332 112.756 46.1243 112.665 46.1529C112.395 46.1841 112.126 46.1628 111.874 46.1792C111.301 46.2719 110.715 46.2452 110.152 46.1007C109.589 45.9562 109.063 45.6971 108.605 45.3395C108.605 45.3395 108.172 45.082 107.923 44.9139C107.661 44.5638 107.143 45.009 107.42 45.3264Z" fill="#38A1FF"/>
<path d="M107.854 42.6402C108.065 42.8237 108.301 42.9774 108.555 43.0969C109.162 43.3026 109.801 43.3965 110.441 43.3741C110.902 43.41 111.367 43.3518 111.805 43.203C112.244 43.0541 112.647 42.8177 112.992 42.5081C113.07 42.4585 113.126 42.3805 113.148 42.2905C113.17 42.2005 113.156 42.1055 113.11 42.0254C113.063 41.9453 112.987 41.8863 112.898 41.8609C112.809 41.8355 112.714 41.8456 112.632 41.889C112.417 41.962 112.183 41.971 111.968 42.026C111.804 42.0596 111.662 42.1039 111.5 42.1359C110.621 42.3062 109.716 42.2931 108.842 42.0973C108.688 42.0752 108.246 42.0563 108.123 42.0391C108.084 42.0211 108.042 42.0111 107.999 42.0096C107.956 42.0081 107.914 42.0152 107.873 42.0305C107.833 42.0458 107.796 42.0689 107.765 42.0985C107.734 42.1282 107.709 42.1637 107.692 42.2031C107.658 42.2828 107.655 42.3726 107.686 42.4539C107.716 42.5353 107.776 42.602 107.854 42.6402Z" fill="#38A1FF"/>
<path d="M76.6699 59.6961C76.688 59.8084 76.688 59.8986 76.706 60.0109C76.724 60.1233 76.7413 60.2118 76.7593 60.3135C76.9507 60.7429 77.1856 61.1515 77.4604 61.5328C77.7882 62.1353 78.2971 62.6195 78.9151 62.917C78.9853 62.9814 79.0783 63.0152 79.1735 63.0111C79.2686 63.0069 79.3583 62.9651 79.4227 62.8949C79.487 62.8246 79.5209 62.7317 79.5167 62.6365C79.5126 62.5413 79.4708 62.4517 79.4005 62.3873C79.2923 62.2126 79.2365 62.0363 79.1127 61.8625C78.8929 61.5533 78.6281 61.268 78.4124 60.9539C78.1664 60.5939 77.8663 60.0888 77.6219 59.7502C77.5145 59.6239 77.3882 59.5435 77.2808 59.4222C77.2628 59.3821 77.2371 59.3459 77.2052 59.3157C77.1732 59.2855 77.1356 59.2619 77.0945 59.2463C77.0534 59.2306 77.0097 59.2232 76.9657 59.2245C76.9218 59.2258 76.8785 59.2357 76.8384 59.2537C76.7983 59.2716 76.7621 59.2973 76.732 59.3293C76.7018 59.3613 76.6782 59.3989 76.6625 59.44C76.6469 59.481 76.6395 59.5248 76.6408 59.5687C76.642 59.6127 76.6519 59.6559 76.6699 59.6961Z" fill="#38A1FF"/>
<path d="M78.9872 57.8003C79.0601 58.2923 78.9232 58.4407 79.849 59.7921C80.2012 60.4353 80.7168 60.9741 81.3438 61.3542C81.3748 61.3894 81.4125 61.4181 81.4547 61.4385C81.4969 61.459 81.5428 61.4707 81.5896 61.4732C81.6365 61.4756 81.6833 61.4687 81.7274 61.4528C81.7715 61.4368 81.812 61.4122 81.8465 61.3804C81.9162 61.3159 81.9586 61.2273 81.9653 61.1326C81.972 61.0378 81.9425 60.9441 81.8826 60.8704C81.7743 60.6662 81.703 60.4653 81.5767 60.271C81.3438 59.9053 81.056 59.583 80.8223 59.2312C80.4582 58.6843 80.1794 58.1652 79.9425 57.8922C79.8342 57.7552 79.7088 57.6593 79.6013 57.5264C79.565 57.445 79.4978 57.3813 79.4146 57.3494C79.3313 57.3175 79.2388 57.32 79.1573 57.3563C79.0759 57.3926 79.0122 57.4598 78.9803 57.5431C78.9484 57.6263 78.9508 57.7189 78.9872 57.8003Z" fill="#38A1FF"/>
<path d="M81.3222 55.6912C81.2693 55.9714 81.2754 56.2596 81.3403 56.5374C81.7136 57.6904 82.3465 58.7423 83.1902 59.6124C83.3337 59.7543 83.4952 59.8682 83.6568 60.0035C83.7186 60.0795 83.8072 60.1287 83.9044 60.1409C84.0015 60.1531 84.0996 60.1274 84.1783 60.0691C84.2506 60.0079 84.2964 59.9211 84.3064 59.8269C84.3163 59.7326 84.2895 59.6382 84.2316 59.5632C84.1422 59.3672 84.0676 59.1844 83.9807 58.9966C83.9446 58.9195 83.8905 58.8457 83.8544 58.7744C83.1233 57.7684 82.4916 56.6938 81.9684 55.5657C81.9601 55.5233 81.9436 55.4829 81.9198 55.4468C81.8959 55.4108 81.8652 55.3798 81.8294 55.3556C81.7936 55.3314 81.7533 55.3146 81.711 55.3059C81.6686 55.2973 81.625 55.2971 81.5826 55.3054C81.5401 55.3136 81.4997 55.3301 81.4637 55.354C81.4277 55.3778 81.3967 55.4085 81.3725 55.4443C81.3483 55.4802 81.3314 55.5204 81.3228 55.5627C81.3142 55.6051 81.314 55.6487 81.3222 55.6912Z" fill="#38A1FF"/>
<path d="M84.0885 53.3985C84.0421 53.6682 84.0421 53.9438 84.0885 54.2136C84.2373 54.8181 84.4671 55.3999 84.7716 55.9429C85.1164 56.7648 85.6978 57.4655 86.4419 57.956C86.4728 57.9913 86.5104 58.02 86.5525 58.0406C86.5946 58.0612 86.6403 58.0732 86.6871 58.076C86.7339 58.0787 86.7807 58.0722 86.8249 58.0566C86.8691 58.0411 86.9098 58.0169 86.9446 57.9855C87.0144 57.9213 87.057 57.8327 87.0637 57.7381C87.0704 57.6435 87.0407 57.5498 86.9807 57.4763C86.8552 57.2574 86.7675 57.0327 86.6396 56.8203C85.9978 55.9255 85.4782 54.949 85.0947 53.9167C85.0578 53.8396 84.7749 53.3583 84.7355 53.2747C84.7274 53.2322 84.711 53.1917 84.6872 53.1556C84.6634 53.1194 84.6328 53.0883 84.597 53.064C84.5612 53.0398 84.521 53.0228 84.4786 53.014C84.4363 53.0053 84.3926 53.0049 84.3501 53.0131C84.3076 53.0212 84.2672 53.0376 84.231 53.0614C84.1949 53.0852 84.1638 53.1158 84.1395 53.1516C84.1152 53.1874 84.0982 53.2276 84.0895 53.27C84.0807 53.3123 84.0804 53.356 84.0885 53.3985Z" fill="#38A1FF"/>
<path d="M89.8006 55.7428C90.2377 55.6748 96.6681 55.1631 98.5131 55.1418C98.951 55.1369 101.682 55.191 102.267 55.2435C102.363 55.2602 102.462 55.2389 102.542 55.1841C102.623 55.1293 102.679 55.0453 102.698 54.9499C102.709 54.8547 102.684 54.759 102.627 54.6816C102.571 54.6043 102.487 54.5511 102.393 54.5325C101.384 54.234 100.338 54.0735 99.2856 54.0553C97.7251 54.0191 96.164 54.0824 94.6116 54.2447C92.6067 54.4284 91.4775 54.3603 89.6358 55.1057C89.5513 55.1276 89.479 55.1821 89.4347 55.2573C89.3904 55.3325 89.3778 55.4222 89.3996 55.5067C89.4215 55.5912 89.476 55.6635 89.5512 55.7078C89.6264 55.7521 89.7161 55.7647 89.8006 55.7428Z" fill="#38A1FF"/>
<path d="M89.8007 58.7523C90.3456 58.6486 90.8992 58.597 91.4538 58.5982C92.779 58.5408 93.8081 58.3022 96.3214 58.1775C97.9843 58.0955 99.4374 58.1316 100.328 58.1029C100.849 58.0849 101.369 58.0504 101.89 58.0357C101.984 58.0394 102.075 58.0067 102.145 57.9443C102.215 57.882 102.258 57.7949 102.265 57.7014C102.272 57.6079 102.243 57.5154 102.183 57.4433C102.123 57.3711 102.037 57.3251 101.944 57.3149C101.315 57.2206 100.687 57.1156 100.058 57.0689C97.5315 56.9475 94.9991 57.0675 92.4952 57.4272C91.4845 57.4869 90.4928 57.7286 89.5678 58.1406C89.5274 58.1559 89.4905 58.179 89.459 58.2086C89.4276 58.2382 89.4022 58.2736 89.3845 58.313C89.3668 58.3524 89.357 58.3949 89.3556 58.438C89.3543 58.4812 89.3615 58.5242 89.3768 58.5646C89.3921 58.6049 89.4152 58.6419 89.4447 58.6734C89.4743 58.7048 89.5098 58.7301 89.5492 58.7479C89.5885 58.7656 89.631 58.7754 89.6742 58.7768C89.7173 58.7781 89.7603 58.7709 89.8007 58.7556V58.7523Z" fill="#38A1FF"/>
<path d="M104.441 47.242C104.151 47.5819 103.915 47.9637 103.74 48.3744C103.412 49.3616 103.313 50.4109 103.453 51.4421C103.506 52.1945 103.737 52.9236 104.127 53.569C104.518 54.2145 105.056 54.7578 105.698 55.1542C105.773 55.2138 105.868 55.2412 105.963 55.2303C106.058 55.2195 106.145 55.1713 106.205 55.0964C106.264 55.0215 106.292 54.9259 106.281 54.8308C106.27 54.7357 106.222 54.6488 106.147 54.5892C105.743 54.1044 105.394 53.5764 105.106 53.0148C104.564 51.9133 104.381 50.6693 104.584 49.4585C104.689 48.8192 104.833 48.1869 105.015 47.5651C105.037 47.5273 105.05 47.4858 105.055 47.4428C105.061 47.3998 105.057 47.3562 105.046 47.3145C105.034 47.2729 105.014 47.2339 104.987 47.1998C104.961 47.1658 104.927 47.1374 104.89 47.1161C104.852 47.0949 104.81 47.0814 104.767 47.0762C104.724 47.071 104.681 47.0744 104.639 47.0861C104.597 47.0978 104.558 47.1176 104.524 47.1443C104.49 47.1711 104.462 47.2043 104.441 47.242Z" fill="#38A1FF"/>
<path d="M106.272 46.6024C105.952 47.3043 105.913 48.1023 106.164 48.832C106.541 50.3584 107.46 51.6956 108.751 52.5941C109.107 52.7905 109.496 52.9197 109.899 52.9754C109.945 52.9912 109.994 52.9975 110.042 52.9938C110.091 52.9902 110.138 52.9767 110.181 52.9541C110.224 52.9316 110.263 52.9005 110.293 52.8628C110.324 52.8251 110.347 52.7814 110.36 52.7346C110.374 52.6878 110.378 52.6387 110.371 52.5904C110.365 52.5421 110.349 52.4955 110.325 52.4535C110.3 52.4115 110.267 52.375 110.228 52.3462C110.188 52.3173 110.144 52.2968 110.096 52.2858C109.818 52.1335 109.559 51.9485 109.324 51.7348C108.307 50.9205 107.572 49.8077 107.221 48.5532C107.051 47.9775 106.949 47.3839 106.916 46.7844C106.935 46.7007 106.921 46.6131 106.877 46.5394C106.833 46.4658 106.763 46.4118 106.68 46.3885C106.598 46.3652 106.509 46.3744 106.433 46.4141C106.357 46.4539 106.3 46.5213 106.272 46.6024Z" fill="#38A1FF"/>
<path d="M96.9862 65.5182C97.354 65.6566 97.7324 65.7646 98.1178 65.8413C99.552 66.0547 101.009 66.0716 102.447 65.8913C102.806 65.8104 103.155 65.6923 103.489 65.5387C103.579 65.5118 103.657 65.4526 103.706 65.3723C103.756 65.292 103.775 65.1963 103.759 65.1033C103.733 65.0095 103.671 64.9293 103.588 64.8796C103.504 64.83 103.404 64.8146 103.309 64.8368C102.955 64.8622 103.024 64.8155 101.833 64.877C100.671 64.9186 99.5069 64.8882 98.3482 64.7859C97.9157 64.7636 97.4821 64.7889 97.0551 64.8614C96.968 64.8523 96.8808 64.8781 96.8128 64.9332C96.7447 64.9884 96.7014 65.0683 96.6922 65.1554C96.6831 65.2425 96.7089 65.3296 96.7641 65.3977C96.8192 65.4657 96.8991 65.5091 96.9862 65.5182Z" fill="#38A1FF"/>
<path d="M95.7644 63.5837C96.1834 63.6898 96.61 63.7632 97.0403 63.8034C98.6466 63.9283 100.262 63.7465 101.8 63.268C102.17 63.1004 102.514 62.8827 102.824 62.621C102.907 62.574 102.969 62.4962 102.996 62.4043C103.023 62.3124 103.013 62.2136 102.968 62.129C102.918 62.0459 102.837 61.9857 102.743 61.9612C102.649 61.9367 102.549 61.9498 102.465 61.9978C102.18 62.1085 101.669 62.2143 101.459 62.2717C98.6221 63.0097 98.4343 62.4201 95.7825 62.9277C95.7394 62.9265 95.6965 62.9338 95.6562 62.9492C95.616 62.9646 95.5792 62.9877 95.5479 63.0174C95.5166 63.047 95.4914 63.0825 95.4739 63.1218C95.4563 63.1612 95.4466 63.2036 95.4454 63.2467C95.4443 63.2897 95.4516 63.3326 95.467 63.3729C95.4823 63.4131 95.5055 63.4499 95.5351 63.4812C95.5647 63.5125 95.6002 63.5377 95.6396 63.5553C95.6789 63.5728 95.7213 63.5825 95.7644 63.5837Z" fill="#38A1FF"/>
<path d="M86.8381 66.2455C87.1646 66.3627 87.5015 66.4484 87.8442 66.5014C88.9168 66.6275 89.9792 66.8291 91.0234 67.1049C91.3112 67.1574 91.5802 67.1607 91.8499 67.2017C91.9394 67.2319 92.0371 67.2261 92.1223 67.1854C92.2075 67.1448 92.2735 67.0724 92.3062 66.9839C92.3389 66.8953 92.3357 66.7974 92.2974 66.7112C92.259 66.6249 92.1885 66.557 92.1009 66.5219C91.8687 66.3741 91.6289 66.2386 91.3825 66.116C90.0631 65.6255 88.6571 65.4104 87.2514 65.4838C87.1071 65.5125 86.9816 65.5469 86.8414 65.5846C86.7537 65.5842 86.6695 65.6186 86.6072 65.6802C86.545 65.7419 86.5097 65.8258 86.5093 65.9134C86.5088 66.0011 86.5432 66.0853 86.6049 66.1476C86.6666 66.2099 86.7505 66.2451 86.8381 66.2455Z" fill="#38A1FF"/>
<path d="M94.992 68.7358C95.1756 68.7957 95.9456 69.081 96.0883 69.1286C99.6676 70.2577 99.4503 70.7095 101.91 71.4065C101.997 71.4471 102.097 71.4514 102.187 71.4186C102.277 71.3858 102.351 71.3185 102.391 71.2315C102.432 71.1445 102.436 71.0449 102.403 70.9547C102.37 70.8646 102.303 70.7911 102.216 70.7505C101.848 70.481 101.465 70.2326 101.068 70.0068C99.5811 69.1734 97.9932 68.5346 96.3433 68.106C95.9211 68.0434 95.4928 68.0335 95.0682 68.0765C95.0251 68.0718 94.9816 68.0756 94.9399 68.0877C94.8983 68.0998 94.8595 68.12 94.8257 68.1471C94.7919 68.1742 94.7638 68.2077 94.7429 68.2457C94.722 68.2837 94.7089 68.3254 94.7041 68.3684C94.6994 68.4115 94.7032 68.4551 94.7153 68.4967C94.7274 68.5383 94.7476 68.5771 94.7747 68.6109C94.8018 68.6448 94.8353 68.6729 94.8733 68.6937C94.9113 68.7146 94.953 68.7278 94.996 68.7325L94.992 68.7358Z" fill="#38A1FF"/>
<path d="M83.011 68.1216C86.3429 68.5361 89.5735 69.5449 92.5493 71.0999C93.8736 71.7755 97.2774 73.9034 97.8662 74.3093C97.941 74.3679 98.0361 74.3944 98.1304 74.383C98.2248 74.3717 98.3108 74.3233 98.3696 74.2487C98.4269 74.1732 98.4533 74.0787 98.4432 73.9845C98.4331 73.8903 98.3875 73.8035 98.3155 73.7419C97.011 72.5234 95.5563 71.4762 93.9867 70.6259C91.3539 69.1148 88.4888 68.0505 85.5079 67.4763C84.6736 67.3648 83.8286 67.3598 82.993 67.4615C82.9057 67.4653 82.8233 67.5028 82.763 67.5661C82.7028 67.6294 82.6694 67.7136 82.6699 67.801C82.6709 67.8446 82.6805 67.8875 82.6982 67.9273C82.716 67.9672 82.7415 68.003 82.7732 68.0329C82.805 68.0627 82.8424 68.086 82.8832 68.1012C82.924 68.1164 82.9675 68.1234 83.011 68.1216Z" fill="#38A1FF"/>
<path d="M81.3758 70.2011C82.0686 70.3967 82.747 70.6403 83.4061 70.93C87.4889 72.5905 86.7624 71.8739 94.3457 76.3601C94.4233 76.4157 94.5198 76.4383 94.614 76.4229C94.7082 76.4075 94.7925 76.3555 94.8484 76.2781C94.9012 76.1988 94.9214 76.1022 94.9047 76.0084C94.8881 75.9146 94.8359 75.8309 94.759 75.7746C93.3473 74.5191 91.7756 73.4559 90.085 72.6127C87.9473 71.454 83.8612 69.5934 81.4447 69.5434C81.3574 69.5343 81.2702 69.5602 81.2021 69.6154C81.1339 69.6706 81.0905 69.7506 81.0814 69.8378C81.0723 69.925 81.0981 70.0123 81.1533 70.0804C81.2086 70.1485 81.2886 70.1919 81.3758 70.2011Z" fill="#38A1FF"/>
<path d="M91.4718 42.9164C91.0708 42.9779 90.6846 43.0337 90.2861 43.1354C90.1979 43.1557 90.1062 43.1549 90.0185 43.1331C89.9307 43.1113 89.8493 43.0691 89.781 43.0098C89.7126 42.9506 89.6593 42.8761 89.6252 42.7923C89.5911 42.7085 89.5773 42.6179 89.585 42.5277C89.7178 41.3453 90.4189 40.1096 90.3041 39.1165L90.1786 37.3002C90.1711 37.1988 90.1924 37.0973 90.24 37.0074C90.2876 36.9174 90.3595 36.8427 90.4476 36.7918C90.8461 36.5532 91.0405 36.8648 91.507 37.0173C92.1261 37.1936 92.6026 36.9165 93.2495 36.9845C93.5475 37.0077 93.8318 37.1196 94.0656 37.3058C94.2995 37.492 94.4722 37.744 94.5615 38.0292C94.8822 39.0567 94.0654 40.0144 96.0703 40.0218C96.1906 40.0215 96.3075 40.0618 96.402 40.1362C96.4965 40.2106 96.5631 40.3148 96.591 40.4318C96.9229 41.8976 97.1511 43.3849 97.2741 44.8828C98.4407 45.0265 99.5722 45.3781 100.615 45.9209C100.693 45.9587 100.754 46.0253 100.785 46.1069C100.815 46.1885 100.813 46.2787 100.779 46.3588C100.743 46.4374 100.678 46.4987 100.597 46.5295C100.516 46.5602 100.426 46.5578 100.347 46.5228C99.2312 46.0594 98.0357 45.8168 96.8272 45.8086C96.712 45.806 96.6015 45.7622 96.5157 45.6852C96.43 45.6082 96.3747 45.503 96.3598 45.3887C96.2155 44.4433 95.8481 42.007 95.6415 41.0919C95.2098 41.1175 94.7813 41.0038 94.4191 40.7676C94.0568 40.5314 93.78 40.1852 93.6292 39.7799C93.457 39.1625 93.7153 38.3917 93.3602 38.1522C93.0322 37.9062 92.2401 38.3359 91.348 38.1211L91.4201 39.0009C91.4144 39.9895 91.2256 40.9684 90.8633 41.8881C91.1331 41.8447 91.4021 41.8061 91.6718 41.7619C91.7873 41.7437 91.9055 41.7632 92.0089 41.8176C92.1123 41.872 92.1954 41.9583 92.2459 42.0636C92.5878 42.7721 93.4152 43.5396 94.186 43.3658C94.2585 43.3481 94.3339 43.3455 94.4075 43.3583C94.4811 43.371 94.5512 43.3988 94.6135 43.4399C94.6759 43.481 94.7291 43.5345 94.7698 43.5971C94.8105 43.6597 94.8379 43.73 94.8502 43.8037L95.1733 45.6897C95.1929 45.797 95.1795 45.9077 95.1346 46.0072C95.0898 46.1066 95.0158 46.1901 94.9223 46.2464C93.1129 47.3356 91.3895 48.5615 89.767 49.9135C89.696 49.9764 89.603 50.0088 89.5083 50.0036C89.4136 49.9985 89.3247 49.9563 89.2609 49.8861C89.197 49.8159 89.1634 49.7234 89.1673 49.6286C89.1712 49.5339 89.2122 49.4444 89.2815 49.3797C90.7376 47.9383 92.3388 46.6514 94.0597 45.5396L93.8621 44.4785C93.3686 44.4254 92.8947 44.2562 92.4792 43.9847C92.0638 43.7131 91.7185 43.3471 91.4718 42.9164Z" fill="#191919"/>
<path d="M94.5253 32.9821C94.7706 32.845 95.0294 32.7337 95.2977 32.65C97.1452 32.1219 98.4703 33.798 99.2132 35.5643C99.3507 36.0258 99.5632 36.4616 99.8421 36.8542C100.29 37.3462 101.175 37.5397 101.836 37.9981C102.45 38.4282 102.87 39.0828 103.004 39.8201C103.019 40.5115 103.074 41.2014 103.168 41.8865C103.197 41.9464 103.267 42.0964 103.332 42.121C103.332 42.121 103.314 42.1391 103.332 42.1382C103.374 42.1266 103.417 42.1237 103.46 42.1295C103.503 42.1353 103.544 42.1497 103.581 42.172C103.618 42.1943 103.65 42.2238 103.675 42.2589C103.7 42.294 103.718 42.3339 103.727 42.376C103.839 42.7409 103.293 43.032 102.775 42.5573C101.775 41.6143 102.792 39.7783 101.266 38.8599C100.47 38.5553 99.7244 38.1303 99.0566 37.5995C98.6686 37.1247 98.3812 36.576 98.212 35.9866C97.7511 34.8632 96.786 33.3864 95.6077 33.7201C95.3439 33.8021 95.0949 33.9252 94.8696 34.085C94.2956 34.4335 94.0685 33.5717 92.6958 33.9743C91.3868 34.4501 90.2952 35.3852 89.6241 36.6057C89.0505 37.639 88.5984 38.7353 88.2768 39.8726C87.9488 40.9148 87.4363 42.1128 87.8996 43.0886C88.5187 44.3916 90.3342 45.9586 87.5224 47.2706C87.4363 47.3123 87.3372 47.3185 87.2466 47.2878C87.1559 47.2571 87.081 47.192 87.0378 47.1066C86.9989 47.0202 86.9942 46.9222 87.0246 46.8324C87.0551 46.7427 87.1184 46.6678 87.2018 46.6228C89.6208 45.3928 86.7484 44.5171 86.6631 42.3769C86.6827 41.4065 86.8771 40.4476 87.2371 39.5462C87.8931 37.3896 88.6442 35.4823 90.3629 34.0301C91.5331 33.0387 93.1247 32.3802 94.5253 32.9821Z" fill="#191919"/>
<path d="M99.3018 40.4359C99.5478 40.9279 99.4387 41.1739 99.4273 41.8504C99.3849 42.3597 99.4587 42.8719 99.6429 43.3486C99.7266 43.5368 99.8558 43.7012 100.019 43.827C100.182 43.9528 100.374 44.0361 100.577 44.0694C101.098 44.1579 102.076 43.8808 101.889 43.392C101.74 43.0034 101.57 43.3027 100.866 43.0599C100.14 42.8426 100.885 41.0624 100.309 40.0604C100.046 39.6135 99.2313 38.9665 98.9254 39.3084C98.7319 39.5618 98.9336 39.6184 99.3018 40.4359Z" fill="#191919"/>
<path d="M97.597 40.6156C97.5412 41.5864 97.5711 42.5603 97.6864 43.5258C98.0693 44.6918 99.023 44.9583 99.2673 44.5664C99.4699 44.1769 98.9648 44.1564 98.7466 43.1953C98.6646 42.7575 98.7204 41.7562 98.6384 41.2388C98.6034 40.8949 98.4511 40.5735 98.2071 40.3286C98.169 40.2477 98.1004 40.1852 98.0163 40.155C97.9322 40.1247 97.8395 40.129 97.7586 40.1671C97.6776 40.2051 97.6152 40.2738 97.5849 40.3579C97.5546 40.442 97.559 40.5347 97.597 40.6156Z" fill="#191919"/>
<path d="M90.0887 47.5355C91.2638 47.155 92.1182 45.5675 91.2925 44.4425C91.0039 44.0489 90.5028 44.2965 90.6455 44.7656C90.9342 45.7143 90.4954 46.2924 89.7837 46.9574C89.4007 47.3141 89.7083 47.6585 90.0887 47.5355Z" fill="#191919"/>
<path d="M106.453 34.1408C106.757 34.6219 106.998 35.1396 107.172 35.6816C107.554 36.8739 107.509 38.5516 108.106 38.5417C108.985 38.5204 108.535 34.9091 107.315 33.5627C107.075 33.2937 106.356 32.7033 106.076 32.9994C105.878 33.2101 106.296 33.903 106.453 34.1408Z" fill="#191919"/>
<path d="M108.213 33.4864C108.377 33.7259 108.794 34.5606 109.255 34.4007C109.73 34.2195 109.449 33.3347 109.13 32.8304C109.021 32.6724 108.901 32.5227 108.771 32.3827C108.42 32.1023 107.905 31.9563 107.728 32.1474C107.45 32.4991 108.158 33.4011 108.213 33.4864Z" fill="#191919"/>
<path d="M109.668 33.1281C109.782 33.3888 110.093 34.2113 110.53 34.117C111.016 34.012 110.872 33.1486 110.674 32.6582C110.388 31.8579 109.779 31.6513 109.596 31.7488C109.142 31.9924 109.599 32.9641 109.668 33.1281Z" fill="#191919"/>
<path d="M111.591 35.0641C111.726 36.4786 111.556 37.9612 112.129 38.0022C113.136 38.0744 112.671 33.7177 112.363 32.91C112.31 32.7091 111.958 31.803 111.591 31.8989C111.072 32.0351 111.445 33.5463 111.591 35.0641Z" fill="#191919"/>
<path d="M70.0771 68.7358C69.3534 69.4315 68.4301 69.8833 67.4367 70.0281C67.2746 70.0479 67.1101 70.0264 66.9585 69.9658C66.8068 69.9051 66.6729 69.8072 66.5691 69.6811C66.4653 69.555 66.395 69.4047 66.3646 69.2442C66.3342 69.0837 66.3448 68.9182 66.3953 68.7629C66.6068 68.2169 66.9439 67.7284 67.3793 67.3369C68.1116 66.5169 68.8439 66.0823 73.3252 62.8761C73.3915 62.8188 73.4776 62.7898 73.5651 62.7955C73.6525 62.8012 73.7342 62.841 73.7926 62.9064C73.8481 62.9737 73.8754 63.06 73.8687 63.147C73.862 63.234 73.8218 63.3151 73.7565 63.373C72.6887 64.4736 71.5289 65.481 70.2895 66.3841C69.5418 66.8961 68.8387 67.4705 68.1879 68.1011C67.8131 68.5325 67.6959 68.5841 67.5589 68.8982C67.9014 68.8351 68.2262 68.6986 68.511 68.498C68.957 68.2168 69.3736 67.8748 69.7688 67.5673C69.826 67.5231 69.8914 67.4905 69.9612 67.4715C70.031 67.4526 70.1039 67.4475 70.1756 67.4568C70.2474 67.466 70.3166 67.4892 70.3793 67.5252C70.4421 67.5612 70.4971 67.6092 70.5413 67.6665C70.9996 68.2758 72.3051 68.5349 72.4994 67.6403C72.8127 66.1946 74.5781 66.0077 75.481 65.4591C75.5595 65.4046 75.6563 65.3831 75.7505 65.3994C75.8447 65.4157 75.9287 65.4683 75.9844 65.546C76.4912 66.3127 73.713 66.8129 73.5408 67.8379C73.2661 69.4746 71.3555 69.7083 70.0771 68.7358Z" fill="#191919"/>
<path d="M113.242 39.0846C113.227 38.9736 113.177 38.8702 113.099 38.7894C113.022 38.7085 112.921 38.6542 112.81 38.6344C110.955 38.223 109.013 38.4846 107.332 39.3724C107.237 39.4211 107.159 39.4972 107.107 39.591C107.056 39.6847 107.034 39.7917 107.044 39.8981C107.198 41.8357 107.329 44.6992 105.697 45.7504C104.742 46.3441 103.375 46.2834 102.248 46.2613C102.168 46.2597 102.088 46.2751 102.013 46.3065C101.939 46.3378 101.873 46.3845 101.818 46.4433C100.849 47.5588 100.181 48.9027 99.8758 50.3481C98.0636 50.6261 96.1858 50.9664 94.3047 51.1788C94.5507 50.6155 94.7729 50.0825 94.8459 49.8881C95.0214 49.4232 94.627 49.1419 94.253 49.4724C93.7592 49.9542 93.446 50.5911 93.3658 51.2764C92.5302 51.3502 91.6971 51.3904 90.8738 51.3805C91.1198 51.1476 91.3314 50.9213 91.4683 50.7631C91.7725 50.4121 91.5298 49.9865 91.0452 50.18C90.2252 50.508 89.8726 51.0697 89.1157 52.066L88.2359 50.1464C88.2008 50.073 88.1503 50.0081 88.0877 49.9562C88.0251 49.9043 87.9519 49.8666 87.8733 49.8457C87.7947 49.8248 87.7125 49.8212 87.6324 49.8352C87.5523 49.8492 87.4762 49.8804 87.4093 49.9267C86.1014 50.8779 85.347 51.6831 84.2113 52.5802C80.8523 55.243 77.6606 58.1102 74.6542 61.1656C74.5785 61.2428 74.5265 61.34 74.5043 61.4457C74.4821 61.5515 74.4906 61.6614 74.5288 61.7625C74.9942 62.9748 75.7532 64.0525 76.7378 64.899C76.8332 64.9782 76.9525 65.023 77.0764 65.0261C77.2003 65.0292 77.3217 64.9905 77.4209 64.9163C80.5738 62.5588 84.7189 60.0446 88.1809 57.7913C88.4956 59.1836 89.3229 60.4064 90.4983 61.2164C90.4983 61.3263 90.481 62.0577 90.5343 63.2664C85.629 65.3278 81.2141 68.4014 77.5783 72.2864C77.5069 72.362 77.4583 72.4563 77.4383 72.5584C77.4183 72.6605 77.4276 72.7662 77.4652 72.8632C77.5028 72.9602 77.5672 73.0445 77.6507 73.1064C77.7343 73.1684 77.8338 73.2053 77.9375 73.213C80.7541 73.4126 83.4513 74.43 85.698 76.1404C86.8837 76.9171 87.9234 77.8963 88.7697 79.0334C88.8401 79.1435 88.9493 79.2231 89.0757 79.2565C89.202 79.2899 89.3363 79.2747 89.4519 79.2138C92.7213 77.4918 96.9787 76.1798 100.068 73.8018C104.81 70.1306 105.275 64.817 102.44 59.4813C102.933 58.4383 103.289 57.3358 103.499 56.2013C105.27 56.1371 107.005 55.6877 108.583 54.8844C114.313 51.8192 114.144 45.5429 113.242 39.0846ZM103.344 65.1606C103.448 66.6966 103.147 68.2329 102.473 69.6168C101.799 71.0007 100.774 72.184 99.5002 73.049C96.554 75.263 92.5663 76.4996 89.3872 78.0625C87.4887 75.8795 85.1002 74.1771 82.4172 73.0949C81.3758 72.6866 80.2909 72.3997 79.1839 72.2397C82.623 68.7451 86.7442 65.9952 91.2912 64.161C91.3976 64.1197 91.4889 64.0469 91.5531 63.9525C91.6172 63.858 91.6511 63.7463 91.6504 63.6321C91.6397 63.0319 91.6274 63.1114 91.6077 61.487C91.7783 61.5321 92.0481 61.5961 92.258 61.6379C91.7996 63.4595 91.5473 65.3269 91.506 67.2049C91.506 67.8666 91.5421 68.5169 91.5782 69.1729C91.5749 69.2681 91.6096 69.3608 91.6747 69.4304C91.7397 69.5001 91.8298 69.5411 91.9251 69.5443C92.0203 69.5476 92.113 69.5129 92.1826 69.4478C92.2523 69.3828 92.2933 69.2927 92.2965 69.1975C92.7188 66.0233 92.5925 65.7822 93.0148 63.3214C93.2666 63.9708 93.4822 64.6243 93.7159 65.2746C93.8799 65.7666 94.381 67.004 94.4539 67.2229C94.4647 67.2654 94.4837 67.3053 94.5099 67.3405C94.5361 67.3756 94.569 67.4052 94.6067 67.4276C94.6443 67.4501 94.686 67.4649 94.7294 67.4712C94.7728 67.4775 94.8169 67.4752 94.8594 67.4644C94.9019 67.4536 94.9419 67.4346 94.977 67.4084C95.0121 67.3822 95.0417 67.3493 95.0642 67.3117C95.0866 67.274 95.1014 67.2323 95.1077 67.189C95.114 67.1456 95.1117 67.1014 95.1009 67.0589C94.8744 65.2398 94.3769 63.4648 93.6249 61.7929C95.884 61.9002 98.1467 61.6793 100.342 61.1369C100.958 60.9654 101.535 60.6788 102.043 60.2923C102.822 61.8009 103.267 63.4602 103.345 65.1565L103.344 65.1606ZM112.381 48.4343C111.515 52.2743 108.801 54.5318 105.123 55.2403C101.968 55.8364 103.389 54.7056 102.321 57.9659C101.763 59.7642 101.859 59.7232 100.076 60.1078C97.754 60.6217 95.3731 60.8178 92.9984 60.6908C92.2604 60.6736 91.1075 60.9581 89.7832 58.8868C88.8648 57.4657 89.5503 56.6802 88.9386 56.335C88.8503 56.2853 88.7499 56.261 88.6486 56.2648C88.5473 56.2685 88.449 56.3002 88.3646 56.3563C84.6328 58.8163 80.7936 61.0811 77.12 63.7601C76.535 63.1556 76.0607 62.4531 75.7186 61.6846C78.6153 58.7563 81.6863 56.0056 84.9149 53.4477C85.7505 52.7819 86.6738 51.8684 87.5192 51.2337L88.5253 53.4207C88.5683 53.5121 88.6352 53.5902 88.7189 53.6467C88.8027 53.7032 88.9001 53.7359 89.001 53.7416C89.1018 53.7472 89.2023 53.7255 89.2918 53.6786C89.3813 53.6318 89.4565 53.5617 89.5093 53.4756C89.7154 53.1207 89.9496 52.7829 90.2096 52.4654C93.5929 52.6146 97.0837 51.8758 100.395 51.3797C101.034 51.2879 100.734 50.6507 101.508 48.9197C101.757 48.3572 102.083 47.8327 102.478 47.3617C103.193 47.3925 103.908 47.3593 104.616 47.2625C107.988 46.7229 108.395 43.561 108.137 40.176C109.412 39.5726 110.841 39.3723 112.232 39.602C112.614 42.4204 113.009 45.6102 112.381 48.4343Z" fill="#191919"/>
<path d="M69.5923 96.2501C71.3948 91.5714 73.538 87.0311 76.0047 82.666C77.37 79.8745 79.0186 77.2309 80.9247 74.7767C80.9517 74.7423 80.9853 74.7137 81.0235 74.6924C81.0617 74.6712 81.1038 74.6578 81.1473 74.6531C81.1907 74.6483 81.2347 74.6523 81.2766 74.6648C81.3185 74.6773 81.3575 74.6981 81.3913 74.7259C81.4256 74.7531 81.4539 74.7871 81.4744 74.8257C81.495 74.8644 81.5073 74.9069 81.5107 74.9505C81.5141 74.9941 81.5084 75.038 81.4941 75.0794C81.4797 75.1207 81.457 75.1587 81.4274 75.1908C79.6324 77.5344 78.2695 80.502 76.9009 83.1448C74.4264 87.6657 72.2669 92.3519 70.4377 97.1701C70.4139 97.2423 70.3752 97.3088 70.3242 97.3652C70.2731 97.4216 70.2108 97.4667 70.1413 97.4975C70.0718 97.5284 69.9966 97.5444 69.9206 97.5445C69.8445 97.5446 69.7693 97.5288 69.6997 97.4981C69.023 97.2066 68.3268 96.9627 67.6161 96.7683C67.0641 96.5714 66.4917 96.4375 65.9097 96.369C65.8383 96.369 65.7842 96.36 65.7457 96.3854C65.6735 96.4272 65.7096 96.4944 65.7276 96.5592C65.9122 96.9542 66.175 97.3076 66.5001 97.5982C67.5169 98.5002 69.8621 100.207 71.206 100.485C71.6808 100.576 71.9793 100.594 72.518 99.699C73.5414 98.0246 77.6414 87.317 87.1583 78.461C87.2304 78.3959 87.3248 78.3612 87.4218 78.3641C87.5188 78.3671 87.611 78.4073 87.679 78.4766C88.2153 79.094 86.7983 79.0243 81.8414 85.8566C79.6213 88.9125 77.628 92.1271 75.8776 95.4744C73.6521 99.7925 73.9096 99.5571 73.4709 100.275C72.7632 101.442 72.072 101.689 71.3331 101.624C69.6603 101.482 67.0224 99.5129 65.7826 98.4469C64.7986 97.6031 64.0434 96.1853 65.1176 95.4621C65.8301 94.9832 67.1134 95.4711 67.9203 95.7007C68.4697 95.845 69.2077 96.0976 69.5923 96.2501Z" fill="#191919"/>
<path d="M65.354 97.348C65.4827 97.4448 65.9698 97.8449 66.306 98.0557C70.2043 100.498 69.8205 100.524 71.5335 101.314C71.6123 101.363 71.7074 101.38 71.7985 101.361C71.8897 101.342 71.9696 101.287 72.0212 101.21C72.0729 101.132 72.0921 101.038 72.0748 100.946C72.0575 100.854 72.0051 100.773 71.9288 100.72C71.6292 100.39 71.2998 100.088 70.9448 99.8179C69.6385 98.8196 68.257 97.9237 66.8128 97.1381C66.4358 96.9755 66.045 96.8471 65.6451 96.7543C65.6061 96.7352 65.5638 96.724 65.5204 96.7212C65.4771 96.7185 65.4337 96.7243 65.3926 96.7384C65.3515 96.7524 65.3136 96.7744 65.281 96.8031C65.2484 96.8318 65.2218 96.8667 65.2027 96.9056C65.1836 96.9446 65.1723 96.987 65.1696 97.0303C65.1669 97.0736 65.1727 97.1171 65.1867 97.1582C65.2008 97.1992 65.2228 97.2372 65.2515 97.2697C65.2802 97.3023 65.315 97.3289 65.354 97.348Z" fill="#191919"/>
<path d="M67.814 98.323C68.0863 98.0491 68.0691 98.2681 68.3175 96.8167C68.3175 96.4731 68.2855 96.6182 68.2454 96.387C68.2686 96.2957 68.2558 96.1989 68.2096 96.1169C68.1634 96.0348 68.0874 95.9736 67.9973 95.9461C67.9072 95.9185 67.8099 95.9267 67.7257 95.969C67.6416 96.0112 67.5769 96.0843 67.5451 96.1729C67.4564 96.2527 67.3779 96.343 67.3114 96.4419C67.2082 96.6715 67.1415 96.9158 67.1138 97.166C66.9498 97.931 67.0818 98.0434 67.1671 98.2074C67.1591 98.2503 67.1597 98.2945 67.169 98.3372C67.1783 98.3799 67.1961 98.4203 67.2212 98.456C67.2463 98.4918 67.2783 98.5221 67.3154 98.5453C67.3524 98.5685 67.3937 98.5841 67.4368 98.5911C67.4793 98.5996 67.5231 98.5993 67.5655 98.5902C67.6079 98.5811 67.6479 98.5635 67.6833 98.5384C67.7186 98.5133 67.7484 98.4812 67.7709 98.4442C67.7934 98.4072 67.8081 98.3659 67.814 98.323Z" fill="#191919"/>
<path d="M77.7112 73.8567C77.4233 74.0587 77.1638 74.2983 76.9395 74.5693C76.4588 75.2405 76.1111 75.9976 75.9154 76.7996C75.5658 77.9201 75.5972 79.1249 76.0047 80.2256C76.0092 80.2724 76.0232 80.3177 76.0458 80.3589C76.0683 80.4001 76.099 80.4363 76.1359 80.4653C76.1729 80.4943 76.2154 80.5154 76.2608 80.5275C76.3061 80.5396 76.3535 80.5423 76.4 80.5356C76.4471 80.53 76.4925 80.5149 76.5336 80.4913C76.5748 80.4677 76.6107 80.4361 76.6392 80.3982C76.6678 80.3604 76.6884 80.3172 76.6999 80.2712C76.7113 80.2251 76.7134 80.1773 76.7058 80.1305C76.8985 76.5225 76.8879 77.0637 78.2146 74.2773C78.4779 73.9329 77.9703 73.5188 77.7112 73.8567Z" fill="#191919"/>
<path d="M81.1802 95.5457V95.5555C81.5041 95.5244 80.8391 94.6363 80.785 94.4526C80.3537 93.0644 80.1388 92.4707 79.6714 90.5888C79.646 90.5054 79.6547 90.4153 79.6957 90.3383C79.7367 90.2614 79.8065 90.2038 79.8899 90.1784C79.9733 90.153 80.0634 90.1617 80.1404 90.2027C80.2174 90.2436 80.2749 90.3135 80.3004 90.3969C82.3504 95.6302 82.1388 94.9487 82.2044 95.2275C82.6841 96.7626 79.1589 98.0516 79.6534 99.0602C79.7969 99.3931 82.2323 98.8536 83.6238 98.0762C84.6898 97.4768 85.0178 97.0004 84.9711 95.8622C84.9309 94.7962 83.2491 86.7184 83.2286 86.6323C83.2162 86.5863 83.2131 86.5384 83.2193 86.4912C83.2255 86.444 83.2409 86.3985 83.2647 86.3572C83.2885 86.316 83.3202 86.2798 83.358 86.2509C83.3957 86.2219 83.4388 86.2006 83.4848 86.1883C83.5308 86.1759 83.5788 86.1728 83.626 86.179C83.6732 86.1852 83.7187 86.2006 83.7599 86.2244C83.8011 86.2482 83.8373 86.2799 83.8663 86.3177C83.8953 86.3554 83.9165 86.3985 83.9289 86.4445C84.7035 88.8364 85.3155 91.2779 85.7607 93.7524C85.9698 94.8733 86.2872 96.2804 85.869 97.3604C85.2687 98.9061 82.7112 99.831 81.0908 100.143C80.1536 100.32 79.1228 100.427 78.6841 99.5826C77.7124 97.7294 80.7735 96.4518 81.1802 95.5539C81.1802 95.5383 81.1983 95.5096 81.1983 95.4973C81.1966 95.508 81.1802 95.5301 81.1802 95.5457Z" fill="#191919"/>
<path d="M79.868 99.6786C80.9226 99.6289 81.9556 99.3617 82.902 98.8938C83.9347 98.5969 84.8875 98.0717 85.69 97.3572C85.7689 97.3078 85.8255 97.2297 85.8479 97.1394C85.8704 97.0491 85.8569 96.9536 85.8103 96.8731C85.7638 96.7925 85.6878 96.7332 85.5984 96.7075C85.5089 96.6819 85.413 96.6919 85.3308 96.7356C85.157 96.7963 84.665 96.9422 84.3969 97.0538C83.804 97.2998 83.2275 97.5736 82.6183 97.809C82.0238 98.0386 81.394 98.2362 80.7856 98.4773C80.3961 98.6308 80.023 98.8231 79.672 99.0513C79.6308 99.0641 79.5926 99.085 79.5594 99.1127C79.5263 99.1403 79.499 99.1742 79.4789 99.2124C79.4589 99.2507 79.4466 99.2925 79.4427 99.3354C79.4389 99.3784 79.4435 99.4217 79.4564 99.4629C79.4692 99.5041 79.4901 99.5424 79.5177 99.5755C79.5454 99.6086 79.5793 99.636 79.6175 99.656C79.6557 99.676 79.6975 99.6883 79.7405 99.6922C79.7835 99.6961 79.8268 99.6914 79.868 99.6786Z" fill="#191919"/>
<path d="M80.226 97.275C80.2174 97.3442 80.2174 97.4141 80.226 97.4833C80.2229 97.5472 80.229 97.6113 80.244 97.6735C80.4497 98.1132 80.6838 98.5388 80.9451 98.9478C81.0431 99.0838 81.1648 99.201 81.3043 99.2939C81.3458 99.381 81.4195 99.4487 81.5099 99.4826C81.6003 99.5165 81.7003 99.5141 81.7889 99.4759C81.8325 99.457 81.8719 99.4296 81.9046 99.3952C81.9374 99.3608 81.9629 99.3202 81.9797 99.2757C81.9964 99.2313 82.0041 99.1839 82.0022 99.1365C82.0002 99.089 81.9888 99.0424 81.9685 98.9995C81.9685 98.4542 82.0456 98.651 81.5913 97.8293C81.1583 97.0446 81.0608 97.0717 80.7828 96.9314C80.5647 96.5526 79.9767 96.9142 80.226 97.275Z" fill="#191919"/>
<path d="M92.9626 42.2022C93.1016 42.4158 93.3106 42.5743 93.5537 42.6505C93.7969 42.7267 94.059 42.7159 94.295 42.6198C94.531 42.5237 94.7261 42.3485 94.8469 42.1241C94.9677 41.8998 95.0066 41.6403 94.9569 41.3904C94.9069 40.9214 94.4436 40.805 94.2377 41.2896C94.1762 41.4491 94.0578 41.5803 93.9053 41.6578C93.7529 41.7353 93.5772 41.7537 93.412 41.7094C92.9618 41.5184 92.7519 41.8062 92.9626 42.2022Z" fill="#191919"/>
<path d="M14.7866 68.5226C14.2774 67.992 13.9002 67.7567 13.2778 67.1351C12.9572 66.8367 13.2352 66.5702 13.0081 65.2942C12.8793 64.8736 13.5501 64.6965 13.637 65.1188C13.815 65.5649 13.9522 66.0263 14.047 66.4972C14.7599 66.9835 15.4061 67.561 15.9691 68.2151C16.0469 68.3179 16.0861 68.4449 16.0796 68.5737C16.0732 68.7025 16.0216 68.8249 15.9338 68.9195L15.2147 69.6804C15.401 70.494 15.33 71.3453 15.0115 72.1168C14.6931 72.8883 14.1428 73.5418 13.4369 73.9871L13.9396 76.5332C13.9563 76.578 13.9634 76.6258 13.9605 76.6736C13.9576 76.7214 13.9447 76.768 13.9227 76.8105C13.9007 76.8529 13.87 76.8904 13.8327 76.9203C13.7953 76.9502 13.7521 76.972 13.7059 76.9842C13.6149 77.0118 13.5166 77.0024 13.4326 76.9578C13.3485 76.9132 13.2855 76.8372 13.2573 76.7464C12.8131 75.813 12.4938 74.8251 12.3078 73.8083C12.2853 73.6971 12.2994 73.5817 12.3478 73.4791C12.3963 73.3766 12.4766 73.2925 12.5767 73.2392C13.9994 72.4561 14.3906 71.231 14.0675 69.6132C13.9921 69.2343 14.3151 69.0113 14.7866 68.5226Z" fill="#191919"/>
<path d="M9.34795 72.5865C9.02073 72.6242 8.68923 72.5913 8.37577 72.4901C8.06232 72.3889 7.77418 72.2218 7.53076 71.9999C7.28734 71.778 7.09428 71.5065 6.96459 71.2037C6.83489 70.9009 6.77157 70.5739 6.77889 70.2446C6.82407 69.7426 7.01976 69.266 7.34032 68.8771C7.66089 68.4882 8.0914 68.2052 8.57551 68.065C9.23151 67.8485 9.33401 66.721 9.07899 66.0667C8.95435 65.7461 8.44431 65.2721 8.39593 64.7309C8.32541 63.9421 9.04209 63.4238 9.85143 63.3631C11.0175 63.2705 12.2967 64.0511 13.9104 63.3295C14.3403 63.1355 14.7095 62.8283 14.9784 62.4408C15.2473 62.0534 15.4059 61.6001 15.4373 61.1295C15.4795 60.9172 15.4671 60.6977 15.4012 60.4915C15.2544 60.0175 16.1917 59.5813 16.1917 61.1598C16.2038 61.7977 16.0391 62.4265 15.7158 62.9765C15.3924 63.5265 14.9231 63.9762 14.3598 64.2758C12.6739 65.1327 10.9051 64.4759 10.1204 64.4595C9.94819 64.4595 9.50949 64.5021 9.50949 64.6235C9.50949 64.7735 9.99739 65.341 10.1204 65.6657C10.5968 66.9211 10.2483 68.6899 8.91663 69.122C8.64433 69.1871 8.39841 69.3338 8.21173 69.5425C8.02505 69.7512 7.90651 70.0118 7.87195 70.2897C7.87251 70.4852 7.92009 70.6777 8.01067 70.851C8.10125 71.0243 8.23218 71.1733 8.39241 71.2854C8.55264 71.3974 8.73748 71.4693 8.93132 71.495C9.12517 71.5206 9.32234 71.4993 9.50621 71.4328C9.57823 71.4035 9.65565 71.3897 9.73335 71.3925C9.81106 71.3953 9.88729 71.4146 9.95702 71.449C10.0268 71.4834 10.0884 71.5321 10.1379 71.5921C10.1874 71.6521 10.2236 71.7219 10.2442 71.7968L11.6989 77.1268C11.7245 77.2177 11.7146 77.315 11.6712 77.3989C11.6278 77.4828 11.5542 77.547 11.4652 77.5787C11.4201 77.5934 11.3725 77.5989 11.3252 77.5949C11.278 77.5908 11.232 77.5773 11.19 77.5551C11.1481 77.5329 11.1111 77.5025 11.0811 77.4657C11.0512 77.4289 11.029 77.3864 11.0158 77.3409C10.4574 75.8017 9.78747 74.2732 9.34795 72.5865Z" fill="#191919"/>
<path d="M9.54134 62.539C10.3187 62.0372 12.3761 62.0142 13.4216 61.5854C14.7278 61.0483 15.7709 59.9323 15.397 58.5645C15.3925 58.5174 15.3786 58.4718 15.3563 58.4301C15.334 58.3884 15.3035 58.3516 15.2668 58.3219C15.2301 58.2921 15.1878 58.27 15.1424 58.2567C15.0971 58.2435 15.0495 58.2394 15.0025 58.2447C14.9073 58.2559 14.8201 58.3037 14.7596 58.3782C14.6991 58.4526 14.6701 58.5477 14.6786 58.6432C14.6611 58.9032 14.5745 59.1537 14.4277 59.3689C14.1096 59.9193 13.6067 60.3391 13.0083 60.5538C11.6815 61.0868 10.1219 60.6563 9.09198 62.0569C9.05892 62.0857 9.03212 62.1209 9.01323 62.1605C8.99434 62.2 8.98376 62.243 8.98215 62.2869C8.98054 62.3307 8.98792 62.3743 9.00385 62.4152C9.01978 62.456 9.04391 62.4931 9.07476 62.5243C9.10428 62.5561 9.13983 62.5818 9.17934 62.5998C9.21886 62.6178 9.26156 62.6278 9.30496 62.6292C9.34837 62.6305 9.39161 62.6233 9.43219 62.6078C9.47277 62.5923 9.50987 62.569 9.54134 62.539Z" fill="#191919"/>
<path d="M5.23081 64.0642C5.08553 63.821 4.99288 63.5501 4.95884 63.2689C4.9248 62.9876 4.95013 62.7024 5.03319 62.4316C5.21993 61.8965 5.51147 61.404 5.89078 60.9829C6.27008 60.5617 6.72953 60.2205 7.24227 59.979C8.64447 59.2459 10.9995 58.7892 11.931 57.5895C12.0188 57.4983 12.0852 57.3888 12.1255 57.2688C12.1658 57.1489 12.1789 57.0214 12.1639 56.8958C12.1429 56.8041 12.1581 56.7079 12.2066 56.6273C12.255 56.5467 12.3328 56.4881 12.4236 56.4636C12.5144 56.4392 12.6111 56.451 12.6934 56.4964C12.7757 56.5418 12.8372 56.6173 12.865 56.7072C12.9257 56.9389 12.9346 57.1811 12.8911 57.4167C12.8476 57.6522 12.7527 57.8753 12.6133 58.07C11.5259 59.7609 9.00527 60.2775 7.76297 60.9441C6.77241 61.4755 5.65803 62.58 6.21809 63.5443C6.27655 63.6488 6.34261 63.7488 6.41571 63.8436C6.49493 63.964 6.52601 64.1097 6.50277 64.2519C6.47953 64.3941 6.40367 64.5223 6.29025 64.6112C5.29887 65.3639 5.05287 67.1425 5.28411 68.3569C5.69469 70.0244 6.56622 71.5427 7.79905 72.7382C8.46366 73.4786 9.18439 74.1667 9.95483 74.7964C10.0256 74.8488 10.0727 74.9272 10.0857 75.0143C10.0987 75.1014 10.0765 75.1901 10.0241 75.2609C9.9717 75.3317 9.89332 75.3788 9.8062 75.3918C9.71909 75.4048 9.63038 75.3826 9.55959 75.3302C8.70979 74.785 7.90498 74.1727 7.15289 73.4991C3.54325 70.1683 3.43583 66.047 5.23081 64.0642Z" fill="#191919"/>
<path d="M12.5587 70.4136C12.8285 70.0151 13.3189 70.2233 13.2057 70.708C12.7842 72.512 10.5727 72.102 10.9245 70.3521C10.9315 70.2662 10.9672 70.1851 11.0257 70.1219C11.0843 70.0588 11.1624 70.0171 11.2476 70.0036C11.4271 69.9929 11.5173 70.1463 11.5887 70.3144C11.8191 70.8564 12.0749 71.127 12.5587 70.4136Z" fill="#191919"/>
<path d="M34.9598 92.2148C32.8039 91.2999 30.7096 90.2462 28.69 89.0603C26.7491 87.932 24.2309 87.2743 23.014 85.3219C22.1678 83.9648 22.2416 82.0173 21.433 80.5249C17.8373 73.8895 9.14861 76.101 6.91903 81.9853C5.90469 84.6602 6.14413 87.212 6.29009 89.8532C6.69207 95.9589 8.29108 101.926 10.9961 107.414C11.0541 107.529 11.1508 107.62 11.2692 107.67C11.3876 107.721 11.52 107.728 11.6431 107.69C17.2133 105.953 22.9591 103.394 27.8791 101.955C27.948 101.932 28.0087 101.89 28.0535 101.833C28.0983 101.776 28.1252 101.707 28.1308 101.635C28.1488 101.485 27.6101 101.489 28.1128 101.562C29.2881 101.719 30.4799 101.707 31.6519 101.527C31.719 101.514 31.7819 101.485 31.8351 101.442C31.8883 101.399 31.9301 101.344 31.9569 101.281C33.3165 98.1205 33.9528 95.9393 35.2443 92.8856C35.27 92.8229 35.2831 92.7557 35.2827 92.688C35.2823 92.6202 35.2684 92.5532 35.242 92.4908C35.2155 92.4284 35.177 92.3719 35.1285 92.3246C35.0801 92.2772 35.0227 92.2399 34.9598 92.2148ZM15.9612 80.0247C16.1842 79.841 16.3326 79.9427 17.4626 80.9267C17.9603 81.3597 18.4212 81.8287 18.9312 82.2584C19.8332 83.0169 20.809 83.6967 21.7291 84.4166C22.3154 84.8758 22.481 85.121 22.873 85.4334C22.9119 85.4607 22.9451 85.4953 22.9706 85.5354C22.9961 85.5754 23.0135 85.6201 23.0218 85.6669C23.0301 85.7137 23.029 85.7617 23.0188 85.8081C23.0085 85.8545 22.9892 85.8984 22.9619 85.9373C22.9347 85.9762 22.9 86.0094 22.86 86.0349C22.8199 86.0605 22.7752 86.0779 22.7284 86.0861C22.6816 86.0944 22.6337 86.0934 22.5873 86.0831C22.5409 86.0728 22.497 86.0535 22.458 86.0263C22.048 85.7762 21.6807 85.6655 21.0993 85.2883C19.7594 84.4174 17.169 82.4412 16.2843 81.0956C15.9661 80.611 15.6996 80.2404 15.9612 80.0247ZM27.6667 101.442C26.7721 101.258 25.8332 101.103 24.918 100.858C21.4373 99.8879 18.1749 98.2589 15.3076 96.0598C13.3068 94.7585 10.7033 92.0303 10.1162 89.8106C10.0901 89.7272 10.0982 89.6368 10.1387 89.5594C10.1793 89.482 10.2489 89.4238 10.3323 89.3977C10.4157 89.3716 10.506 89.3797 10.5835 89.4202C10.6609 89.4608 10.7191 89.5304 10.7452 89.6138C11.1351 90.4406 11.6706 91.1906 12.3261 91.8278C13.359 93.0944 14.5689 94.2057 15.9185 95.1275C16.9255 95.7777 18.2326 96.7494 19.3675 97.4054C22.0774 98.7776 24.9101 99.8928 27.8282 100.736C27.9218 100.758 28.0031 100.815 28.0542 100.897C28.1052 100.978 28.1219 101.076 28.1005 101.17C28.079 101.264 28.0213 101.345 27.9399 101.396C27.8586 101.447 27.7603 101.464 27.6667 101.442Z" fill="#38A1FF"/>
<path d="M35.0674 95.7039C35.3355 95.9171 35.4864 96.0918 35.9472 96.4198C36.9493 97.1446 38.1063 97.9335 38.5524 99.1093C38.6157 99.257 38.6704 99.4081 38.7164 99.562C38.7164 99.6719 38.7525 99.7752 38.7525 99.89C38.7354 99.9811 38.7542 100.075 38.8048 100.153C38.8554 100.23 38.934 100.286 39.0242 100.307C39.1144 100.328 39.2093 100.313 39.2892 100.266C39.369 100.219 39.4276 100.143 39.4527 100.054C40.2227 98.3271 38.103 96.3886 36.5065 95.5079C36.1491 95.3241 35.7684 95.1895 35.3749 95.1078C35.2958 95.067 35.2038 95.0593 35.1191 95.0863C35.0343 95.1134 34.9638 95.173 34.9231 95.2521C34.8823 95.3311 34.8746 95.4231 34.9016 95.5079C34.9287 95.5926 34.9883 95.6631 35.0674 95.7039Z" fill="#191919"/>
<path d="M35.7311 99.1168C35.987 99.3212 36.1974 99.5767 36.3491 99.867C36.5007 100.157 36.5902 100.476 36.6118 100.803C36.6154 100.897 36.6513 100.987 36.7134 101.058C36.7755 101.128 36.8601 101.176 36.9529 101.191C37.6606 101.247 37.5491 99.1561 36.1444 98.5961C35.5876 98.3738 35.4835 98.9741 35.7311 99.1168Z" fill="#191919"/>
<path d="M34.0609 100.27C34.2257 100.664 34.4368 101.037 34.6898 101.381C34.8046 101.541 34.9424 101.678 35.1392 101.614C35.5361 101.485 35.4729 100.344 34.5824 99.8531C34.4184 99.762 34.2585 99.6891 34.115 99.8055C33.9715 99.9219 34.0043 100.102 34.0609 100.27Z" fill="#191919"/>
<path d="M31.8341 100.65C32.1498 101.118 33.1945 102.176 33.5766 101.762C34.0342 101.27 32.1917 99.6793 31.78 100.186C31.6595 100.334 31.7341 100.498 31.8341 100.65Z" fill="#191919"/>
<path d="M132.697 68.4702C132.718 68.585 132.761 68.6947 132.823 68.7933C132.843 68.8398 132.874 68.8808 132.913 68.913C133.516 69.4755 135.008 68.8933 134.888 68.011C135.134 67.601 134.478 67.2435 134.26 67.6715C134.133 67.7535 134.104 67.6715 133.883 67.8642C133.789 67.9462 133.622 68.0586 133.505 68.0225C133.488 68.0176 133.47 68.0225 133.452 68.0225C133.362 68.0028 133.308 68.075 133.2 68.0422C133.143 67.9755 133.062 67.9341 132.975 67.9271C132.888 67.9201 132.801 67.9481 132.735 68.0049C132.668 68.0616 132.627 68.1425 132.62 68.2298C132.613 68.3171 132.641 68.4035 132.697 68.4702Z" fill="#191919"/>
<path d="M109.919 102.842C110.056 103.236 110.551 104.916 111.159 104.675C111.75 104.462 111.097 102.826 110.764 101.823C110.633 101.515 110.248 100.519 109.776 100.681C109.266 100.876 109.749 102.35 109.919 102.842Z" fill="#191919"/>
<path d="M112.398 101.946C112.549 102.473 112.917 103.922 113.513 103.75C114.14 103.564 113.523 101.731 113.297 101.006C113.147 100.558 112.785 99.7621 112.395 99.8704C111.848 100.022 112.248 101.396 112.398 101.946Z" fill="#191919"/>
<path d="M114.644 101.258C114.726 101.558 115.064 103.336 115.686 103.182C116.324 103.023 115.763 100.968 115.578 100.326C115.477 99.9769 115.168 99.002 114.715 99.1086C114.178 99.2357 114.505 100.721 114.644 101.258Z" fill="#191919"/>
<path d="M112.453 89.9229C112.121 90.3293 111.832 90.7689 111.591 91.2349C111.073 92.3376 110.64 93.4786 110.298 94.6477C109.767 96.2928 109.471 98.0042 109.417 99.7317C109.405 99.8258 109.431 99.9208 109.488 99.9963C109.545 100.072 109.63 100.122 109.724 100.136C109.817 100.15 109.913 100.127 109.99 100.071C110.067 100.016 110.119 99.9326 110.135 99.8392C110.261 99.3545 110.425 98.8765 110.545 98.3714C110.819 97.2562 111.042 96.0893 111.372 94.9561C111.699 93.8394 112.082 92.74 112.52 91.6621C113.086 90.0705 112.939 90.4641 113.022 90.2435C113.057 90.1687 113.062 90.0835 113.037 90.0051C113.011 89.9266 112.957 89.8606 112.885 89.8202C112.814 89.7798 112.729 89.7679 112.649 89.7869C112.569 89.806 112.499 89.8545 112.453 89.9229Z" fill="#191919"/>
<path d="M117.033 93.2867C116.845 93.4823 116.677 93.6954 116.53 93.923C116.061 94.8945 115.659 95.8966 115.326 96.9225C115.259 97.2122 115.217 97.5071 115.201 97.804C115.185 97.8477 115.177 97.8941 115.179 97.9406C115.181 97.9872 115.192 98.0329 115.211 98.0752C115.231 98.1175 115.258 98.1555 115.292 98.1872C115.327 98.2188 115.367 98.2434 115.41 98.2595C115.454 98.2757 115.5 98.2831 115.547 98.2813C115.593 98.2795 115.639 98.2686 115.681 98.2491C115.724 98.2297 115.762 98.2021 115.793 98.1679C115.825 98.1338 115.85 98.0937 115.866 98.05C116.009 97.8204 116.171 97.6195 116.296 97.3793C116.53 96.9193 116.681 96.4289 116.87 95.9484C117.74 93.7532 117.493 94.319 117.625 93.5704C117.659 93.4901 117.661 93.3996 117.631 93.3177C117.6 93.2359 117.539 93.1689 117.461 93.1309C117.422 93.1129 117.381 93.1027 117.339 93.1008C117.296 93.0989 117.254 93.1054 117.214 93.1199C117.175 93.1343 117.138 93.1565 117.107 93.1851C117.076 93.2138 117.05 93.2483 117.033 93.2867Z" fill="#191919"/>
<path d="M134.493 99.3603C134.481 100.069 134.633 100.77 134.936 101.411C135.24 102.051 135.688 102.612 136.244 103.051C136.8 103.49 137.45 103.795 138.144 103.941C138.837 104.087 139.555 104.071 140.241 103.895C141.386 103.545 142.411 102.883 143.201 101.984C143.991 101.084 144.515 99.9818 144.714 98.801C144.74 98.7106 144.728 98.6137 144.682 98.5316C144.636 98.4496 144.56 98.3891 144.469 98.3636C144.379 98.338 144.282 98.3494 144.2 98.3953C144.118 98.4413 144.057 98.5179 144.032 98.6083C143.64 99.5639 143.093 100.449 142.415 101.227C141.732 101.974 140.865 102.529 139.9 102.835C139.379 102.975 138.832 102.985 138.306 102.866C137.781 102.747 137.292 102.501 136.882 102.151C135.987 101.458 135.375 100.463 135.16 99.3521C135.16 99.3083 135.151 99.265 135.133 99.2247C135.116 99.1844 135.091 99.1479 135.06 99.1173C135.028 99.0867 134.991 99.0626 134.951 99.0463C134.91 99.03 134.866 99.0219 134.822 99.0224C134.779 99.023 134.735 99.0321 134.695 99.0494C134.655 99.0667 134.618 99.0917 134.588 99.1231C134.557 99.1545 134.533 99.1916 134.517 99.2323C134.5 99.2729 134.492 99.3164 134.493 99.3603Z" fill="#191919"/>
<path d="M136.865 99.8564C137.594 100.958 138.301 100.961 138.481 100.736C138.71 100.45 137.783 99.2118 137.835 99.2963C137.683 99.0503 137.166 97.9302 136.703 98.0737C136.214 98.2254 136.481 99.2766 136.865 99.8564Z" fill="#191919"/>
<path d="M140.241 99.6424C140.467 99.4374 140.331 99.1725 140.152 98.7084C139.882 98.3181 139.126 97.216 138.661 97.4735C137.933 97.9261 139.619 100.211 140.241 99.6424Z" fill="#191919"/>
<path d="M140.888 98.5707C141.06 98.7347 142.02 99.8901 142.469 99.4727C142.918 99.0553 141.833 97.9237 141.499 97.6014C141.068 97.1677 140.334 96.6658 140.062 97.0135C139.728 97.3792 140.58 98.2361 140.888 98.5707Z" fill="#191919"/>
<path d="M122.098 88.8061C121.395 89.5441 120.13 91.1275 119.638 91.7212C119.557 91.8188 119.443 91.884 119.318 91.9048C119.192 91.9256 119.064 91.9005 118.955 91.8343C117.019 90.6863 114.191 88.9389 112.273 87.9196C112.154 87.8581 112.061 87.7554 112.011 87.6306C111.962 87.5058 111.959 87.3672 112.004 87.2407C114.662 79.8828 122.539 73.4647 130.631 72.9481C130.766 72.9399 130.899 72.9794 131.007 73.0596C131.116 73.1398 131.193 73.2557 131.224 73.3868C131.858 76.5069 135.362 76.7127 136.488 74.0428C136.516 73.9748 136.559 73.9135 136.612 73.8628C136.666 73.8122 136.729 73.7732 136.799 73.7485C136.868 73.7238 136.942 73.7139 137.016 73.7194C137.089 73.7249 137.161 73.7457 137.226 73.7804C138.662 74.5202 139.987 75.4588 141.162 76.5684C143.83 79.2445 145.476 82.7709 145.813 86.5347C145.822 86.5769 145.821 86.6204 145.812 86.6625C145.803 86.7046 145.785 86.7443 145.76 86.7793C145.735 86.8142 145.703 86.8435 145.665 86.8655C145.628 86.8875 145.587 86.9016 145.545 86.9069C145.501 86.9133 145.457 86.911 145.414 86.9002C145.372 86.8894 145.332 86.8703 145.297 86.844C145.262 86.8177 145.232 86.7848 145.21 86.747C145.188 86.7092 145.173 86.6675 145.167 86.624C144.864 84.1922 143.983 81.8682 142.6 79.8454C141.216 77.8226 139.37 76.1596 137.213 74.9948C136.857 75.6704 136.303 76.2207 135.625 76.5718C134.947 76.9229 134.177 77.0579 133.42 76.9587C132.663 76.8595 131.955 76.5308 131.39 76.0168C130.825 75.5028 130.431 74.8282 130.261 74.0838C122.987 74.7668 115.97 80.3978 113.232 87.1767C115.059 88.1804 117.755 89.8352 119.125 90.6617C120.165 89.3287 121.294 88.0664 122.502 86.8832C122.579 86.8087 122.677 86.7602 122.783 86.7446C122.889 86.7289 122.997 86.7469 123.092 86.796C123.187 86.8451 123.265 86.9228 123.313 87.0181C123.362 87.1135 123.38 87.2217 123.364 87.3276C122.816 91.0906 121.816 94.0163 121.191 97.7309C121.175 97.825 121.124 97.9093 121.047 97.9658C120.971 98.0223 120.875 98.0464 120.781 98.033C120.686 98.0196 120.601 97.9696 120.543 97.894C120.485 97.8183 120.46 97.7229 120.471 97.6284C120.831 94.8175 121.532 92.0524 122.016 89.2644C122.045 89.1177 122.063 88.9635 122.098 88.8061Z" fill="#191919"/>
<path d="M137.673 92.8406C137.661 92.9288 137.615 93.0086 137.544 93.0624C137.473 93.1162 137.383 93.1397 137.295 93.1276C137.207 93.1155 137.127 93.0689 137.073 92.998C137.02 92.9271 136.996 92.8378 137.008 92.7496C137.008 92.1018 136.772 91.9468 137.494 88.8956C137.52 88.7785 137.583 88.6731 137.674 88.5953C137.766 88.5174 137.88 88.4715 137.999 88.4644C138.119 88.4572 138.238 88.4893 138.338 88.5557C138.438 88.6221 138.513 88.7193 138.553 88.8324C138.994 89.8012 139.227 90.852 139.236 91.9165C139.247 91.9634 139.249 92.0121 139.241 92.0597C139.233 92.1073 139.216 92.1528 139.189 92.1935C139.163 92.2341 139.129 92.269 139.089 92.2961C139.049 92.3232 139.004 92.342 138.957 92.3513C138.91 92.3605 138.861 92.3601 138.814 92.35C138.767 92.3399 138.722 92.3203 138.682 92.2925C138.643 92.2646 138.61 92.2291 138.584 92.188C138.559 92.1469 138.542 92.1011 138.535 92.0534C138.428 91.7853 138.301 91.5343 138.212 91.2654C138.07 90.953 138.306 91.1883 137.673 92.8406Z" fill="#191919"/>
<path d="M144.535 91.4875C145.273 88.7258 146.443 86.1961 148.881 84.7332C149.885 84.1372 151.004 83.7578 152.164 83.6191C153.324 83.4804 154.5 83.5856 155.617 83.9279C156.397 84.1889 157.093 84.6557 157.631 85.279C158.168 85.9023 158.527 86.6591 158.671 87.4695C158.697 87.5976 158.677 87.7308 158.614 87.8457C158.552 87.9605 158.451 88.0497 158.329 88.0976C155.031 89.4162 150.656 89.9246 149.923 91.3678C149.878 91.4328 149.849 91.5067 149.836 91.5844C149.824 91.6621 149.829 91.7416 149.851 91.8172C150.003 92.2624 151.154 92.5043 151.773 92.4617C154.315 92.2821 156.842 91.1431 159.102 90.2928C159.179 90.2611 159.262 90.2478 159.345 90.2539C159.428 90.2599 159.509 90.2852 159.58 90.3277C159.652 90.3701 159.712 90.4286 159.757 90.4986C159.803 90.5685 159.831 90.648 159.84 90.7307C160.606 97.1062 152.875 101.563 147.048 96.6847C145.767 97.2816 144.6 97.6482 143.095 98.1943C143.051 98.2135 143.002 98.2233 142.953 98.2233C142.905 98.2232 142.856 98.2133 142.811 98.194C142.766 98.1747 142.726 98.1465 142.692 98.1111C142.659 98.0757 142.633 98.0339 142.616 97.9881C142.599 97.9423 142.591 97.8936 142.593 97.8448C142.596 97.796 142.608 97.7482 142.629 97.7043C142.651 97.6604 142.681 97.6213 142.718 97.5894C142.755 97.5575 142.798 97.5334 142.845 97.5186C144.24 97.023 145.607 96.4517 146.94 95.8073C147.015 95.7699 147.1 95.7559 147.183 95.767C147.266 95.7781 147.344 95.8138 147.407 95.8696C148.206 96.5561 149.134 97.0746 150.138 97.394C154.711 98.9225 158.862 95.4973 158.813 91.572C156.247 92.5724 151.463 94.5871 149.329 92.8881C149.024 92.6595 148.814 92.3255 148.741 91.9511C148.668 91.5767 148.737 91.1885 148.934 90.8619C149.906 88.9258 154.156 88.465 157.466 87.2366C156.482 84.1772 152.155 84.0575 149.455 85.6827C147.171 87.0571 146.206 89.5015 145.519 92.0517C145.498 92.1393 145.457 92.2205 145.397 92.2877C145.337 92.3549 145.261 92.406 145.177 92.4363C140.572 94.0763 117.499 100.718 116.867 100.897C116.825 100.909 116.782 100.912 116.739 100.907C116.696 100.902 116.654 100.889 116.617 100.868C116.579 100.847 116.546 100.818 116.519 100.784C116.492 100.75 116.472 100.711 116.46 100.67C116.448 100.628 116.445 100.585 116.45 100.542C116.455 100.499 116.468 100.457 116.49 100.419C116.511 100.382 116.539 100.348 116.573 100.322C116.607 100.295 116.646 100.275 116.687 100.263C119.611 99.3915 143.026 92.0041 144.535 91.4875Z" fill="#191919"/>
<path d="M133.505 100.504C133.482 100.421 133.429 100.349 133.356 100.304C133.283 100.258 133.195 100.242 133.111 100.258C118.66 103.807 114.899 105.845 104.854 108.504C104.772 108.526 104.695 108.565 104.63 108.62C104.565 108.674 104.513 108.743 104.477 108.82C104.054 109.896 103.561 110.943 103.001 111.954C100.658 115.752 95.4792 116.71 92.528 113.584C94.4575 113.118 96.6338 112.859 98.4025 111.936C101.191 110.492 100.65 107.011 97.594 106.533C95.2873 106.175 92.9552 107.214 90.7675 108.022C91.0173 107.443 91.3118 106.885 91.6482 106.352C94.6051 101.719 100.298 101.857 103.145 105.151C103.203 105.218 103.282 105.265 103.368 105.286C103.455 105.307 103.546 105.301 103.629 105.268C104.922 104.721 105.978 104.42 107.989 103.762C108.161 104.248 108.575 105.43 109.072 105.292C109.771 105.08 108.916 102.943 108.641 102.258C108.518 101.863 108.067 101.16 107.743 101.258C107.333 101.392 107.526 102.358 107.653 102.765L107.753 103.071C106.271 103.515 104.542 104.021 103.593 104.379C102.273 102.927 100.463 102.014 98.5108 101.814C96.5585 101.615 94.6015 102.144 93.0151 103.299C91.2734 104.711 89.9863 106.606 89.3144 108.745C89.2818 108.841 89.2763 108.944 89.2986 109.043C89.3209 109.142 89.37 109.232 89.4406 109.305C89.5112 109.378 89.6005 109.429 89.6986 109.455C89.7968 109.48 89.8999 109.477 89.9967 109.447C92.4124 108.687 95.0315 107.252 97.4341 107.626C99.4185 107.941 99.7301 109.992 97.9007 110.953C95.9843 111.937 93.4587 112.121 91.38 112.739C91.2964 112.767 91.2204 112.814 91.158 112.877C91.0957 112.939 91.0487 113.015 91.0209 113.099C90.993 113.182 90.9851 113.271 90.9976 113.358C91.0101 113.446 91.0428 113.529 91.093 113.601C93.8031 117.317 98.8929 117.472 102.338 114.477C103.933 113.083 104.571 111.421 105.391 109.505C115.339 106.82 124.324 103.24 133.253 100.904C133.338 100.883 133.413 100.83 133.46 100.755C133.507 100.681 133.523 100.591 133.505 100.504Z" fill="#191919"/>
<path d="M124.2 77.5065C124.05 78.0174 123.035 82.7094 122.871 84.0665C122.711 85.3876 122.707 85.8632 123.069 85.9255C123.62 86.0198 123.772 85.1202 125.134 78.1945C125.224 77.7402 125.535 75.9887 125.08 75.8936C124.77 75.8255 124.629 76.051 124.2 77.5065Z" fill="#191919"/>
<path d="M139.703 77.7967C139.097 79.3769 139.139 79.4908 138.122 85.3153C138.001 85.9865 137.929 86.6656 137.906 87.3473C137.892 87.4409 137.914 87.5365 137.969 87.614C138.023 87.6914 138.106 87.7448 138.199 87.7628C138.292 87.7808 138.388 87.7622 138.468 87.7107C138.547 87.6592 138.604 87.5789 138.625 87.4867C138.752 87.0422 138.948 86.551 139.074 85.9861C139.326 84.8635 140.014 81.0661 140.222 79.677C140.315 79.0595 140.342 78.0517 140.348 77.9271C140.365 77.8415 140.348 77.7526 140.3 77.6798C140.251 77.6071 140.176 77.5565 140.091 77.5392C140.005 77.5219 139.916 77.5394 139.843 77.5877C139.771 77.6359 139.72 77.7111 139.703 77.7967Z" fill="#191919"/>
<path d="M135.517 104.639C135.383 104.277 135.28 103.904 135.211 103.524C135.199 103.434 135.153 103.351 135.084 103.292C135.015 103.233 134.926 103.2 134.835 103.201C134.324 103.203 133.814 103.17 133.308 103.101C130.563 102.744 130.771 102.105 130.128 102.332C128.734 102.824 127.416 103.47 126.015 103.956C123.931 104.694 121.794 105.334 119.692 106.044C119.63 106.068 119.574 106.106 119.528 106.153C119.481 106.201 119.445 106.258 119.422 106.32C118.11 110.562 117.637 115.102 116.728 119.325C115.901 123.24 112.65 138.923 111.896 142.854C111.87 142.974 111.886 143.098 111.942 143.207C111.998 143.316 112.089 143.403 112.201 143.452C113.215 143.988 114.177 144.618 115.076 145.331C115.148 145.383 115.231 145.417 115.319 145.43C115.407 145.443 115.497 145.435 115.582 145.407C115.666 145.378 115.742 145.33 115.804 145.266C115.866 145.202 115.912 145.124 115.937 145.039C119.41 133.067 123.277 114.772 125.242 109.007C126.771 109.228 128.313 109.347 129.858 109.36C131.04 113.035 136.2 136.217 136.992 142.694C137.005 142.782 137.038 142.866 137.09 142.938C137.142 143.01 137.211 143.069 137.291 143.108C137.37 143.148 137.458 143.167 137.547 143.165C137.636 143.163 137.723 143.14 137.801 143.097C138.678 142.611 139.749 142.013 140.639 141.58C140.734 141.537 140.815 141.468 140.872 141.381C140.93 141.294 140.961 141.192 140.962 141.088C140.842 134.57 137.822 110.894 135.517 104.639Z" fill="#191919"/>
<path d="M105.752 146.032C105.901 146.061 105.804 146.291 108.087 146.384C108.18 146.384 111.474 146.477 112.74 146.399C113.478 146.353 114.107 146.355 114.501 145.628C114.518 145.585 114.545 145.545 114.578 145.512C114.611 145.479 114.65 145.453 114.694 145.435C114.737 145.417 114.784 145.409 114.831 145.409C114.878 145.41 114.924 145.42 114.967 145.439C115.509 145.676 114.92 146.537 114.446 146.891C113.584 147.342 112.617 147.557 111.644 147.515C109.768 147.577 107.889 147.509 106.022 147.311C104.252 146.911 104.148 145.529 105.483 144.924C106.631 144.402 109.48 144.583 111.626 143.491C111.663 143.466 111.705 143.448 111.749 143.44C111.793 143.431 111.838 143.431 111.882 143.44C111.926 143.449 111.968 143.467 112.005 143.492C112.042 143.517 112.073 143.55 112.097 143.588C112.121 143.626 112.138 143.668 112.145 143.712C112.152 143.756 112.151 143.802 112.14 143.845C112.13 143.889 112.111 143.93 112.084 143.966C112.058 144.002 112.024 144.032 111.986 144.055C110.633 144.982 109.056 145.528 107.42 145.636C106.844 145.659 106.277 145.793 105.752 146.032Z" fill="#191919"/>
<path d="M146.582 145.34C145.598 144.232 141.721 144.509 140.454 142.157C140.428 142.118 140.41 142.073 140.402 142.027C140.393 141.981 140.394 141.933 140.403 141.887C140.423 141.794 140.479 141.713 140.559 141.661C140.638 141.609 140.735 141.591 140.828 141.611C140.921 141.63 141.003 141.686 141.055 141.766C142.449 143.713 147.429 142.985 147.818 145.456C147.832 145.64 147.785 145.823 147.684 145.977C147.583 146.131 147.434 146.247 147.26 146.307C146.654 146.493 146.033 146.627 145.405 146.708C144.962 146.763 144.503 146.79 144.067 146.8C142.68 146.925 141.284 146.91 139.899 146.756C137.884 146.383 137.397 145.41 136.933 143.66C136.919 143.619 136.913 143.575 136.915 143.532C136.918 143.488 136.929 143.446 136.948 143.407C136.967 143.367 136.994 143.332 137.027 143.304C137.06 143.275 137.098 143.253 137.139 143.239C137.179 143.224 137.222 143.218 137.265 143.22C137.308 143.222 137.35 143.233 137.388 143.252C137.427 143.271 137.461 143.298 137.489 143.331C137.516 143.364 137.537 143.402 137.549 143.443C138.026 144.547 138.398 145.209 139.39 145.526C140.759 145.968 142.694 145.727 144.049 145.69C144.905 145.681 145.756 145.564 146.582 145.34Z" fill="#191919"/>
<path d="M11.1708 66.9556C11.1919 67.0617 11.227 67.1643 11.274 67.2572C11.3211 67.3502 11.3792 67.4316 11.4449 67.4967C11.5106 67.5618 11.5825 67.6093 11.6564 67.6363C11.7303 67.6632 11.8046 67.6692 11.8751 67.6538C11.9455 67.6383 12.0106 67.6018 12.0664 67.5465C12.1223 67.4911 12.1678 67.4179 12.2002 67.3313C12.2326 67.2447 12.2513 67.1464 12.2552 67.0423C12.2591 66.9382 12.2481 66.8303 12.2229 66.7251C12.2018 66.619 12.1667 66.5164 12.1197 66.4235C12.0726 66.3305 12.0145 66.2491 11.9488 66.1839C11.8832 66.1188 11.8112 66.0714 11.7373 66.0444C11.6635 66.0174 11.5891 66.0115 11.5186 66.0269C11.4482 66.0423 11.3831 66.0788 11.3273 66.1342C11.2714 66.1896 11.226 66.2628 11.1935 66.3494C11.1611 66.436 11.1424 66.5342 11.1385 66.6384C11.1346 66.7425 11.1456 66.8504 11.1708 66.9556Z" fill="#191919"/>
<path d="M92.1719 39.5364C92.1719 39.6793 92.2097 39.8163 92.2771 39.9174C92.3444 40.0184 92.4358 40.0752 92.531 40.0752C92.6263 40.0752 92.7176 40.0184 92.785 39.9174C92.8524 39.8163 92.8902 39.6793 92.8902 39.5364C92.8902 39.3935 92.8524 39.2565 92.785 39.1555C92.7176 39.0544 92.6263 38.9977 92.531 38.9977C92.4358 38.9977 92.3444 39.0544 92.2771 39.1555C92.2097 39.2565 92.1719 39.3935 92.1719 39.5364Z" fill="#191919"/>
<path d="M133.91 65.3967C134.051 65.4199 134.199 65.3674 134.32 65.2508C134.442 65.1342 134.527 64.9631 134.558 64.775C134.589 64.587 134.562 64.3975 134.484 64.2482C134.406 64.0989 134.283 64.0021 134.142 63.979C134.073 63.9675 134 63.9745 133.93 63.9996C133.86 64.0247 133.792 64.0673 133.732 64.1251C133.672 64.1829 133.62 64.2546 133.579 64.3363C133.539 64.418 133.51 64.508 133.494 64.6011C133.479 64.6943 133.478 64.7888 133.491 64.8792C133.503 64.9696 133.53 65.0542 133.568 65.1282C133.607 65.2022 133.657 65.264 133.716 65.3102C133.774 65.3564 133.841 65.3861 133.91 65.3976V65.3967Z" fill="#191919"/>
<path d="M35.9764 82.8201C35.9764 82.7987 35.9591 82.7774 35.9591 82.7545C35.9512 82.7074 35.953 82.6592 35.9642 82.6128C35.9753 82.5664 35.9958 82.5228 36.0243 82.4845C36.0528 82.4462 36.0887 82.414 36.1299 82.39C36.1712 82.3659 36.2168 82.3504 36.2642 82.3445C37.1327 82.1008 38.0624 82.2104 38.8505 82.6495C39.4464 83.0351 39.9201 83.5825 40.216 84.2276C40.512 84.8727 40.618 85.5888 40.5216 86.2919C40.4604 86.8189 40.2823 87.3255 40.0003 87.7747C39.7182 88.224 39.3394 88.6046 38.8915 88.8888C38.4436 89.1729 37.9378 89.3535 37.4112 89.4172C36.8846 89.4809 36.3504 89.4262 35.8476 89.2571C32.5922 88.2657 32.8768 83.4351 35.8115 82.8233C35.8652 82.8074 35.9221 82.8062 35.9764 82.8201ZM36.2101 83.0505C36.2241 83.0915 36.2296 83.1349 36.2262 83.1781C36.2229 83.2212 36.2108 83.2633 36.1907 83.3017C36.1706 83.34 36.1429 83.3739 36.1093 83.4012C36.0757 83.4285 36.0369 83.4487 35.9952 83.4605C34.479 84.0279 34.2183 86.2887 35.0604 87.4506C35.3629 87.8055 35.7593 88.0679 36.2042 88.2076C36.6491 88.3473 37.1243 88.3586 37.5754 88.2403C40.4691 87.5351 39.9624 82.7873 36.3716 83.0611C36.3175 83.0673 36.2626 83.0631 36.2101 83.0488V83.0505Z" fill="#191919"/>
<path d="M32.8572 72.5503L32.84 71.422C32.8384 71.3217 32.8644 71.2228 32.915 71.1361C32.9655 71.0494 33.0388 70.9781 33.127 70.93C35.3623 69.7525 38.375 70.1322 40.7251 71.0621C40.8313 71.1031 40.9216 71.1769 40.9831 71.2727C41.0446 71.3685 41.074 71.4814 41.067 71.595L41.049 72.2921C42.1892 72.8124 43.2677 73.4588 44.2642 74.2191L44.7136 73.7131C44.7898 73.6317 44.8886 73.5751 44.9974 73.5504C45.1061 73.5257 45.2197 73.5341 45.3236 73.5745C47.2233 74.3252 48.7997 75.7179 49.7787 77.5105C49.8384 77.6147 49.8635 77.735 49.8505 77.8544C49.8376 77.9737 49.7872 78.0858 49.7065 78.1747L49.258 78.629C49.8028 79.8421 50.1077 81.1492 50.1559 82.4781C50.4257 82.5101 50.6946 82.5519 50.9464 82.5781C51.0619 82.5906 51.1706 82.6386 51.2576 82.7156C51.3446 82.7926 51.4054 82.8947 51.4318 83.0078C51.9319 85.3304 51.7901 87.7453 51.0218 89.9934C50.9751 90.1241 50.8803 90.232 50.7567 90.2951C50.6331 90.3582 50.49 90.3717 50.3568 90.3329L49.5663 90.123C49.3368 91.1486 48.9554 92.1342 48.4347 93.0471C48.8611 93.6506 49.1006 93.8613 48.9735 94.2057C48.1128 96.1948 46.632 97.8522 44.7521 98.9306C44.7008 98.9617 44.6435 98.9818 44.5839 98.9894C44.5244 98.997 44.4639 98.992 44.4064 98.9748C44.3489 98.9576 44.2956 98.9284 44.2501 98.8893C44.2046 98.8502 44.1677 98.802 44.142 98.7477L43.7648 97.9335C43.0443 98.3831 42.2556 98.7129 41.4295 98.9101C41.3833 98.9231 41.335 98.9268 41.2873 98.9209C41.2397 98.9151 41.1938 98.8997 41.1522 98.8758C41.1106 98.8519 41.0742 98.8199 41.0451 98.7817C41.016 98.7436 40.9949 98.7 40.9829 98.6535C40.9709 98.607 40.9684 98.5586 40.9754 98.5112C40.9824 98.4637 40.9988 98.4181 41.0237 98.3771C41.0485 98.336 41.0814 98.3004 41.1202 98.2722C41.1591 98.2441 41.2031 98.224 41.2499 98.2131C41.6944 98.0868 42.127 97.9222 42.543 97.7211C43.632 97.1922 43.6533 96.8281 44.0338 96.9085C44.0919 96.9236 44.1461 96.951 44.1926 96.9889C44.2392 97.0269 44.277 97.0744 44.3036 97.1282L44.6988 97.9228C46.0943 96.9667 47.2005 95.6457 47.8968 94.1041C47.7029 93.8558 47.523 93.5968 47.3581 93.3283C47.3093 93.2465 47.2836 93.153 47.2836 93.0577C47.2836 92.9625 47.3093 92.869 47.3581 92.7871C47.6144 92.3743 47.8307 91.938 48.0042 91.4842C48.7234 89.713 48.5134 89.2316 48.921 88.9938C49.1858 88.8397 49.3769 88.9528 50.16 89.1578C50.6718 87.3622 50.7641 85.4729 50.4298 83.6359C49.4778 83.5293 49.3638 83.5539 49.208 83.3645C48.8865 83.0423 49.267 82.6159 48.8308 80.8225C48.3585 78.8758 47.7648 78.6315 48.1838 78.1444L48.6151 77.7114C47.8107 76.426 46.6501 75.4021 45.2744 74.7644L44.7357 75.372C44.6874 75.4281 44.6281 75.4737 44.5616 75.5062C44.495 75.5386 44.4225 75.5572 44.3486 75.5607C44.2746 75.5643 44.2007 75.5527 44.1313 75.5267C44.062 75.5008 43.9987 75.4609 43.9452 75.4097C42.8179 74.4787 41.5663 73.7095 40.2265 73.1244C40.1285 73.0745 40.0474 72.9969 39.9932 72.9012C39.9389 72.8056 39.914 72.6961 39.9215 72.5864L39.9567 71.9583C38.1052 71.2941 35.7551 70.9825 33.9396 71.7615L33.9757 72.8841C33.9775 72.9959 33.946 73.1058 33.8851 73.1995C33.8242 73.2933 33.7366 73.3668 33.6337 73.4105C32.3095 73.8551 31.1004 74.588 30.0938 75.5565C30.0429 75.6167 29.9793 75.665 29.9077 75.698C29.836 75.731 29.758 75.7478 29.6792 75.7472C29.6003 75.7467 29.5225 75.7288 29.4513 75.6948C29.3801 75.6609 29.3173 75.6117 29.2672 75.5507L28.3849 74.4724C26.774 75.4821 25.4252 76.8591 24.4489 78.4904C24.8516 78.9006 25.2776 79.2872 25.7248 79.6483C25.8083 79.7041 25.8665 79.7906 25.8866 79.889C25.9067 79.9874 25.8872 80.0898 25.8322 80.1739C25.2967 80.9947 24.8964 81.8961 24.6465 82.8438C24.6259 82.9295 24.572 83.0035 24.4968 83.0494C24.4216 83.0954 24.3312 83.1097 24.2455 83.089C24.1599 83.0683 24.0859 83.0145 24.0399 82.9393C23.9939 82.8641 23.9797 82.7737 24.0004 82.688C24.2034 81.7764 24.5347 80.8982 24.9844 80.0796C24.5653 79.7672 24.3964 79.5876 23.6199 78.9119C23.5517 78.851 23.5044 78.77 23.485 78.6806C23.4656 78.5912 23.4749 78.498 23.5116 78.4142C24.3767 76.306 26.2906 74.6282 28.1856 73.3228C28.2968 73.2455 28.4335 73.2141 28.5673 73.235C28.7011 73.256 28.8216 73.3276 28.904 73.4351L29.7125 74.4003C30.6545 73.6187 31.7163 72.994 32.8572 72.5503Z" fill="#191919"/>
<path d="M40.931 52.0553C40.937 51.9769 40.9683 51.9027 41.02 51.8436C41.0717 51.7845 41.1412 51.7437 41.218 51.7273C44.744 50.7892 46.5185 56.2865 42.9064 57.5017C42.3317 57.7111 41.711 57.7611 41.1102 57.6465C40.5094 57.5319 39.9508 57.2569 39.4935 56.8506C39.1497 56.4925 38.8975 56.0566 38.7584 55.5801C38.6192 55.1036 38.5972 54.6005 38.6942 54.1136C38.7912 53.6267 39.0044 53.1705 39.3156 52.7837C39.6268 52.397 40.0268 52.0911 40.4816 51.8921C40.5218 51.8731 40.5654 51.8624 40.6098 51.8603C40.6541 51.8583 40.6985 51.865 40.7402 51.8802C40.782 51.8954 40.8204 51.9186 40.8531 51.9487C40.8858 51.9787 40.9123 52.0149 40.931 52.0553ZM40.949 52.2275C40.949 52.5333 40.6317 52.412 40.1585 53.0729C39.8526 53.5185 39.6994 54.0514 39.7221 54.5915C39.7447 55.1316 39.9419 55.6498 40.284 56.0683C40.5941 56.326 40.9669 56.4967 41.3645 56.5631C41.7621 56.6295 42.1703 56.5892 42.5472 56.4464C44.8711 55.66 43.5878 52.1717 41.3623 52.4382C41.2798 52.4543 41.1942 52.4423 41.1193 52.4041C41.0444 52.3659 40.9845 52.3037 40.949 52.2275Z" fill="#191919"/>
<path d="M40.0793 44.9107C40.0653 44.8508 39.9759 44.2219 39.953 43.907C39.9437 43.7932 39.9703 43.6794 40.0292 43.5815C40.088 43.4837 40.1761 43.4068 40.281 43.3617C41.2225 42.9964 42.2322 42.84 43.2402 42.9034C44.2481 42.9668 45.2303 43.2486 46.1186 43.7291C46.2073 43.7778 46.28 43.8513 46.3279 43.9405C46.3757 44.0297 46.3967 44.1308 46.3883 44.2317C46.3415 44.7588 46.2635 45.2826 46.1546 45.8004C46.9058 46.1538 46.8377 46.1366 47.0173 46.2301C47.0886 46.1308 47.1427 46.0333 47.2149 45.9365C47.4658 45.5995 47.7176 45.2756 47.9693 44.9459C48.0316 44.8617 48.1215 44.8021 48.2233 44.7775C48.3251 44.753 48.4323 44.765 48.5261 44.8115C50.0642 45.5905 51.2824 46.8815 51.9709 48.4621C52.0042 48.5492 52.0061 48.6452 51.9761 48.7336C51.9462 48.8219 51.8863 48.897 51.8069 48.9459C51.4177 49.2353 51.0628 49.5682 50.7491 49.9381C51.0156 50.426 51.1634 50.9699 51.1804 51.5256C51.433 51.4797 51.6224 51.4223 52.0422 51.3124C52.1321 51.2913 52.2266 51.3026 52.3088 51.3445C52.3911 51.3864 52.4559 51.4561 52.4916 51.5412C52.9063 52.523 53.12 53.5779 53.12 54.6437C53.12 55.7094 52.9063 56.7644 52.4916 57.7461C52.4456 57.8533 52.3613 57.9396 52.2552 57.9881C52.1491 58.0366 52.0288 58.0439 51.9176 58.0085C51.7649 57.9646 51.6149 57.9121 51.4682 57.8511C51.2809 58.2779 51.0713 58.6944 50.8401 59.0991L51.738 59.8257C51.833 59.9101 51.8944 60.026 51.911 60.152C51.9276 60.2781 51.8982 60.4059 51.8282 60.512C50.8429 62.1931 49.2679 63.448 47.4092 64.0331C47.2999 64.0629 47.184 64.0579 47.0777 64.0186C46.9714 63.9794 46.8801 63.9079 46.8164 63.8141L46.5286 63.3951C46.1487 63.596 45.752 63.7631 45.3428 63.8945C45.3768 64.025 45.4189 64.1532 45.4691 64.2783C45.493 64.3495 45.5021 64.4248 45.4959 64.4997C45.4897 64.5745 45.4683 64.6474 45.4329 64.7137C45.3976 64.78 45.3492 64.8384 45.2906 64.8853C45.2319 64.9323 45.1643 64.9668 45.0919 64.9867C43.234 65.6211 41.2337 65.7124 39.3257 65.25C39.2066 65.2164 39.1019 65.1446 39.0278 65.0456C38.9537 64.9466 38.9143 64.8259 38.9157 64.7022L38.9518 64.1766C38.5075 64.1112 38.0689 64.012 37.6398 63.8797C37.4413 64.3537 37.4348 64.4841 37.1904 64.6054C37.1195 64.6363 37.043 64.6522 36.9657 64.6522C36.8884 64.6522 36.8119 64.6363 36.741 64.6054C34.9612 63.8144 33.4372 62.5428 32.3401 60.9335C32.2641 60.8256 32.2295 60.6938 32.2428 60.5625C32.256 60.4312 32.3162 60.309 32.4123 60.2184C32.6451 59.988 32.8608 59.7412 33.0945 59.5091C32.6768 58.9252 32.3331 58.2917 32.0711 57.6231L31.0109 57.5805C30.8721 57.5808 30.7382 57.5294 30.6353 57.4363C30.5323 57.3432 30.4678 57.2151 30.4541 57.077C30.3253 55.2767 30.4769 53.4672 30.9035 51.7134C30.9384 51.574 31.0207 51.4511 31.1363 51.3657C31.3545 51.2296 31.4406 51.2567 32.3581 51.4682C32.5324 51.0377 32.7428 50.6226 32.9871 50.2276C33.8637 48.8254 33.8694 49.3067 33.6513 48.9713C33.5078 48.7835 33.3643 48.5908 33.2413 48.3973C33.1813 48.315 33.146 48.2173 33.1396 48.1156C33.1332 48.0139 33.156 47.9125 33.2052 47.8233C34.0883 46.1612 35.9284 45.4027 37.6594 44.7787C37.7806 44.7355 37.913 44.7356 38.0342 44.7787C38.1553 44.8219 38.2579 44.9056 38.3245 45.0156L38.6115 45.5281C39.072 45.2598 39.5654 45.0522 40.0793 44.9107ZM45.3273 44.4925C43.9864 43.8978 42.4778 43.7987 41.0706 44.2129C41.0879 44.317 41.1961 44.9968 41.2346 45.228C41.2515 45.3003 41.2522 45.3755 41.2366 45.4481C41.221 45.5207 41.1896 45.5889 41.1444 45.6479C40.9517 45.9759 40.7197 45.7586 39.7258 46.1874C38.791 46.5876 38.682 46.9156 38.2884 46.827C38.0079 46.7639 37.9694 46.6196 37.6061 45.9726C36.3355 46.3312 35.2024 47.0644 34.3548 48.0767C34.5302 48.3236 34.7219 48.5584 34.9288 48.7794C35.017 48.8822 35.0655 49.0131 35.0655 49.1484C35.0655 49.2838 35.017 49.4147 34.9288 49.5174C34.1686 50.2922 33.5967 51.2316 33.2577 52.2628C33.2165 52.3878 33.1329 52.4944 33.0212 52.564C32.9096 52.6337 32.7771 52.662 32.6468 52.6441C32.3879 52.6066 32.1305 52.5593 31.8752 52.5022C31.5811 53.806 31.4661 55.1437 31.5332 56.4784C31.8678 56.4883 32.1827 56.503 32.5213 56.5301C33.2282 56.5867 32.8182 57.3394 34.2819 59.2361C34.369 59.3515 34.4084 59.4961 34.3917 59.6398C34.3751 59.7835 34.3037 59.9153 34.1925 60.0077C33.957 60.2142 33.7349 60.4355 33.5275 60.6703C34.3641 61.7838 35.438 62.6972 36.6713 63.3443C36.7397 63.1949 36.8161 63.0493 36.9001 62.9081C36.9685 62.7904 37.0777 62.7021 37.207 62.6599C37.3363 62.6177 37.4767 62.6246 37.6012 62.6793C38.2552 62.9243 38.9368 63.0881 39.6307 63.1672C39.7712 63.1908 39.8976 63.2668 39.9843 63.3798C40.071 63.4929 40.1117 63.6346 40.0981 63.7764L40.062 64.293C41.4545 64.5464 42.8869 64.4691 44.244 64.0675C44.2047 63.9231 44.1749 63.7763 44.1547 63.628C44.1284 63.4956 44.1526 63.3581 44.2223 63.2426C44.2921 63.127 44.4025 63.0416 44.5319 63.0032C45.1836 62.8311 45.8067 62.5651 46.3818 62.2135C46.4431 62.1729 46.5118 62.1449 46.584 62.1312C46.6563 62.1175 46.7305 62.1183 46.8024 62.1335C46.8743 62.1488 46.9424 62.1782 47.0029 62.2201C47.0633 62.262 47.1147 62.3155 47.1542 62.3775L47.4953 62.8695C48.7873 62.3551 49.8953 61.4651 50.6761 60.3144L49.8315 59.6149C49.7423 59.5367 49.6828 59.4301 49.6633 59.3131C49.6437 59.196 49.6652 59.0758 49.7241 58.9729C50.8647 57.0532 50.6605 56.854 51.0361 56.7244C51.3092 56.617 51.4568 56.7843 51.7905 56.9294C52.3602 55.3902 52.3917 53.7034 51.8799 52.1439C51.5435 52.2269 51.2015 52.285 50.8565 52.3177C50.8043 52.3229 50.7517 52.3166 50.7022 52.2993C50.6527 52.282 50.6075 52.2541 50.5699 52.2175C50.5323 52.181 50.5031 52.1367 50.4843 52.0877C50.4656 52.0388 50.4577 51.9863 50.4613 51.934C50.5135 51.304 50.3954 50.6716 50.1193 50.1029C50.0809 50.0701 50.0497 50.0296 50.0278 49.984C50.0059 49.9385 49.9937 49.8889 49.992 49.8384C49.9903 49.7878 49.9991 49.7375 50.018 49.6906C50.0368 49.6437 50.0652 49.6012 50.1013 49.5658C50.326 49.3436 50.8942 48.6638 51.1255 48.4998C50.5149 47.3649 49.5925 46.4283 48.467 45.8004C48.303 46.0234 48.144 46.2456 47.9824 46.4736C47.5486 47.1148 47.556 47.2936 47.2633 47.3608C46.9927 47.424 46.9353 47.2854 46.3293 46.9672C46.0243 46.8172 45.7004 46.6934 45.3773 46.5654C45.2687 46.5209 45.1789 46.4401 45.1233 46.3368C45.0677 46.2334 45.0496 46.114 45.0722 45.9988C45.1747 45.5 45.2587 44.9975 45.324 44.4925H45.3273Z" fill="#191919"/>
<path d="M98.5312 82.3487C95.1692 82.643 95.1356 87.9689 98.6214 88.2814C102.287 88.6094 102.595 83.4844 99.4832 82.6676C99.4379 82.6503 99.3897 82.6423 99.3413 82.6441C99.2928 82.6459 99.2453 82.6573 99.2014 82.6779C99.1575 82.6984 99.1182 82.7276 99.0859 82.7636C99.0535 82.7997 99.0288 82.8419 99.0131 82.8877C98.9974 82.9336 98.991 82.9821 98.9945 83.0304C98.998 83.0787 99.0111 83.1259 99.0332 83.169C99.0552 83.2121 99.0858 83.2504 99.1229 83.2814C99.1601 83.3125 99.2031 83.3358 99.2495 83.3499C100.605 83.9567 100.948 86.0706 99.9678 86.8603C99.689 87.0572 99.3603 87.1715 99.0195 87.1899C98.6787 87.2083 98.3396 87.1302 98.0412 86.9644C97.7428 86.7986 97.4973 86.552 97.3329 86.2529C97.1685 85.9538 97.0918 85.6143 97.1118 85.2736C97.0915 84.7788 97.2307 84.2906 97.5088 83.881C97.7869 83.4713 98.1893 83.1618 98.6566 82.9981C98.7428 82.9815 98.8187 82.9313 98.8679 82.8586C98.917 82.786 98.9353 82.6968 98.9186 82.6106C98.902 82.5245 98.8518 82.4485 98.7792 82.3994C98.7065 82.3503 98.6173 82.332 98.5312 82.3487Z" fill="#191919"/>
<path d="M107.154 75.9698C105.862 75.0897 104.428 74.4405 102.914 74.051C102.823 74.0232 102.747 73.9616 102.7 73.8789C102.653 73.7962 102.64 73.6988 102.662 73.6065C102.689 73.5137 102.751 73.435 102.835 73.3879C102.919 73.3407 103.019 73.3288 103.112 73.3548C104.894 73.7392 106.58 74.4794 108.07 75.5311C108.118 75.5667 108.159 75.612 108.189 75.6641C108.219 75.7162 108.238 75.774 108.245 75.8339C108.252 75.8937 108.246 75.9543 108.228 76.0119C108.211 76.0694 108.181 76.1227 108.142 76.1682L107.423 77.1522C107.974 77.6419 108.447 78.2133 108.824 78.8463L110.046 78.4937C110.158 78.4663 110.276 78.4753 110.382 78.5196C110.489 78.5638 110.579 78.6409 110.639 78.7398C111.842 80.7078 111.914 82.7922 112.309 84.9455C112.332 85.0856 112.299 85.229 112.219 85.346C112.139 85.4629 112.016 85.5445 111.878 85.5736C111.459 85.6678 111.031 85.7132 110.602 85.7089C110.411 87.0988 109.894 88.4238 109.094 89.576C109.519 90.001 109.975 90.3932 110.459 90.7495C110.559 90.8219 110.633 90.9254 110.669 91.044C110.705 91.1626 110.7 91.2896 110.657 91.4055C109.767 93.3879 108.342 95.0834 106.543 96.3017C106.442 96.3592 106.325 96.3839 106.209 96.3723C106.093 96.3607 105.984 96.3134 105.897 96.2369C105.682 96.0571 105.478 95.8655 105.286 95.6629C103.826 96.7208 102.033 97.2138 100.238 97.0503C100.238 97.4849 100.366 97.6596 100.148 97.9474C100.096 98.0057 100.034 98.053 99.9631 98.0866C99.8927 98.1201 99.8162 98.1391 99.7383 98.1426C97.3318 98.1851 94.9656 97.5215 92.9323 96.2336C92.8164 96.1579 92.7335 96.0412 92.7002 95.9069C92.6669 95.7726 92.6857 95.6306 92.7527 95.5096L93.2382 94.5092C92.4369 93.9088 91.7287 93.1935 91.1365 92.3862L90.4534 92.8552C90.35 92.9258 90.2251 92.9579 90.1005 92.9459C89.9758 92.9339 89.8593 92.8786 89.7712 92.7896C88.2476 91.2447 86.9906 89.7556 86.5912 87.6367C86.5657 87.5307 86.5767 87.4191 86.6224 87.32C86.668 87.2209 86.7458 87.1401 86.843 87.0906L87.777 86.6462C87.5136 85.5015 87.465 84.3179 87.6335 83.1554L86.8791 83.0013C86.7842 82.9873 86.698 82.9379 86.638 82.8631C86.5779 82.7883 86.5483 82.6935 86.5552 82.5978C86.6535 81.9144 86.816 81.2418 87.0406 80.5888C87.0533 80.5476 87.074 80.5092 87.1016 80.4759C87.1291 80.4426 87.1629 80.415 87.2011 80.3948C87.2393 80.3746 87.2811 80.3621 87.3241 80.358C87.3671 80.354 87.4105 80.3584 87.4518 80.3711C87.4931 80.3838 87.5315 80.4046 87.5648 80.4321C87.5981 80.4597 87.6256 80.4935 87.6459 80.5317C87.6661 80.5699 87.6786 80.6116 87.6826 80.6547C87.6867 80.6977 87.6823 80.7411 87.6695 80.7824C87.5173 81.2842 87.4089 81.7984 87.3456 82.319L88.1542 82.4511C88.2539 82.4706 88.3425 82.5271 88.4024 82.6092C88.4623 82.6913 88.4891 82.7929 88.4772 82.8939C88.0959 86.3297 89.2849 86.9488 88.5494 87.3325L87.6515 87.7958C88.1582 89.2984 89.0425 90.6456 90.2197 91.708L90.9922 91.1742C91.0523 91.1338 91.1199 91.1061 91.1911 91.0928C91.2622 91.0795 91.3353 91.0808 91.4059 91.0967C91.4765 91.1126 91.5432 91.1427 91.6017 91.1852C91.6603 91.2277 91.7096 91.2817 91.7466 91.344C92.4086 92.3538 93.2632 93.2232 94.2615 93.9024C94.3651 93.9767 94.4397 94.0848 94.4724 94.208C94.5052 94.3313 94.4941 94.4621 94.4411 94.578L93.9565 95.562C95.5378 96.4615 97.312 96.9677 99.1299 97.038V96.3984C99.1344 96.3202 99.1551 96.2438 99.1908 96.1741C99.2265 96.1044 99.2763 96.0428 99.3371 95.9934C99.3979 95.9441 99.4684 95.9079 99.5439 95.8873C99.6195 95.8666 99.6986 95.862 99.776 95.8736C100.693 96.0384 101.635 95.9995 102.535 95.7596C103.436 95.5197 104.272 95.0847 104.985 94.4854C105.098 94.3945 105.24 94.3502 105.384 94.3616C105.528 94.3731 105.662 94.4394 105.758 94.5469C105.935 94.754 106.127 94.9481 106.332 95.1275C107.628 94.119 108.694 92.8453 109.458 91.3915C108.974 90.9996 108.578 90.6232 107.967 90.0385C107.863 89.9407 107.801 89.8063 107.794 89.6637C107.788 89.5211 107.837 89.3815 107.931 89.2743C108.889 88.0756 109.464 86.617 109.583 85.0874C109.589 85.0142 109.61 84.9429 109.644 84.878C109.678 84.8131 109.725 84.7558 109.783 84.7097C109.84 84.6637 109.906 84.6298 109.977 84.6101C110.047 84.5904 110.121 84.5854 110.194 84.5954C110.51 84.631 110.83 84.631 111.146 84.5954C110.847 82.7914 110.782 81.3367 109.924 79.6344L108.685 79.9665C108.573 79.9906 108.455 79.9765 108.351 79.9265C108.247 79.8765 108.163 79.7933 108.111 79.6901C107.718 78.8823 107.154 78.1692 106.459 77.6C106.365 77.5157 106.307 77.3985 106.297 77.2725C106.287 77.1466 106.325 77.0216 106.405 76.9234L107.154 75.9698Z" fill="#191919"/>
<path d="M105.59 31.5209C104.964 30.9935 104.502 30.2969 104.261 29.5143C104.125 28.9575 104.202 28.3699 104.477 27.8669C105.487 25.4545 109.785 26.4828 109.38 29.3577C109.313 29.8605 109.101 30.3329 108.77 30.7173C108.709 30.7883 108.676 30.879 108.676 30.9727C108.676 31.0664 108.709 31.157 108.77 31.2281C108.84 31.296 108.933 31.334 109.031 31.334C109.128 31.334 109.221 31.296 109.291 31.2281C109.805 30.796 110.169 30.213 110.333 29.5619C111.344 25.6685 105.158 23.648 103.471 27.425C103.102 28.1686 103.019 29.0218 103.237 29.8226C103.597 30.8034 104.316 31.6107 105.249 32.0809C105.286 32.1047 105.327 32.1209 105.37 32.1285C105.414 32.1361 105.458 32.1349 105.501 32.1252C105.543 32.1154 105.584 32.0972 105.619 32.0715C105.655 32.0459 105.685 32.0135 105.707 31.9761C105.73 31.9386 105.745 31.897 105.752 31.8537C105.758 31.8104 105.756 31.7662 105.745 31.7238C105.734 31.6813 105.715 31.6415 105.688 31.6067C105.662 31.5718 105.628 31.5426 105.59 31.5209Z" fill="#191919"/>
<path d="M106.524 17.9786C106.562 17.8966 106.51 18.0311 106.866 16.87C106.9 16.7616 106.966 16.6663 107.056 16.597C107.146 16.5276 107.255 16.4875 107.369 16.4821C109.589 16.4651 111.747 17.2169 113.476 18.61C113.59 18.6963 113.665 18.8241 113.685 18.9655C113.706 19.1069 113.669 19.2506 113.584 19.3652C113.42 19.5981 113.349 19.7523 113.135 20.1172C113.872 20.6692 114.525 21.3239 115.075 22.0614L116.278 21.5292C116.396 21.4748 116.528 21.4634 116.653 21.497C116.778 21.5306 116.887 21.607 116.961 21.7129C118.24 23.6302 118.938 25.8753 118.973 28.1794C118.973 28.3064 118.928 28.4293 118.846 28.5261C118.764 28.6229 118.65 28.6872 118.524 28.7075L117.77 28.8715C117.903 29.7351 117.867 30.6165 117.662 31.466L118.4 31.8522C118.506 31.9093 118.587 32.0026 118.63 32.115C118.673 32.2274 118.674 32.3516 118.633 32.4647C118.008 34.4868 116.81 36.2844 115.184 37.6397C115.109 37.6985 115.014 37.7277 114.918 37.7219C114.822 37.716 114.732 37.6754 114.664 37.6078C114.575 37.5258 114.098 37.0625 114.017 36.9772C113.928 37.0708 113.832 37.1575 113.73 37.2363C113.694 37.2668 113.653 37.29 113.608 37.3044C113.563 37.3188 113.516 37.3241 113.469 37.3202C113.422 37.3162 113.377 37.303 113.335 37.2813C113.293 37.2595 113.256 37.2298 113.226 37.1937C113.166 37.1203 113.137 37.0268 113.143 36.9323C113.15 36.8378 113.193 36.7494 113.262 36.6853C113.722 36.2523 113.632 36.1113 113.891 36.0588C113.945 36.0498 114 36.0525 114.053 36.0666C114.105 36.0808 114.154 36.1061 114.196 36.1408C114.472 36.3573 114.869 36.7066 114.951 36.7853C116.146 35.6092 117.034 34.1581 117.538 32.559L116.837 32.2138C116.728 32.1646 116.639 32.0788 116.587 31.9712C116.534 31.8637 116.521 31.7412 116.55 31.625C116.672 31.1198 116.745 30.6037 116.765 30.0843C116.812 28.7723 116.47 28.5476 116.693 28.172C116.886 27.9121 116.995 27.9408 117.879 27.7448C117.765 25.9717 117.229 24.2515 116.316 22.7272L115.077 23.2701C114.955 23.3197 114.82 23.3246 114.695 23.2837C114.57 23.2429 114.463 23.159 114.394 23.047C113.808 22.1311 113.029 21.3535 112.113 20.7682C112.004 20.6924 111.925 20.5814 111.889 20.4541C111.853 20.3268 111.862 20.191 111.915 20.0696C112.038 19.799 112.217 19.489 112.382 19.1955C111.049 18.2307 109.463 17.6741 107.819 17.5932C107.688 18.0196 107.55 18.4952 107.425 18.7789C107.38 18.8879 107.302 18.9799 107.202 19.0414C107.102 19.1029 106.984 19.1308 106.867 19.1209C105.8 18.9903 104.717 19.0841 103.688 19.3964C103.559 19.4437 103.416 19.44 103.289 19.3861C103.163 19.3322 103.061 19.2321 103.006 19.1061L102.574 18.1705C100.856 18.6297 99.2926 19.5418 98.0472 20.8117C98.2804 21.1677 98.5325 21.511 98.8025 21.84C98.8839 21.9372 98.9285 22.06 98.9285 22.1868C98.9285 22.3137 98.8839 22.4364 98.8025 22.5337C98.1018 23.3258 97.57 24.2524 97.2395 25.2569C97.2071 25.3769 97.1334 25.4816 97.0314 25.5527C96.9295 25.6238 96.8057 25.6567 96.6819 25.6456C96.4491 25.6185 96.0899 25.5841 95.8923 25.5636C95.3843 27.0593 95.1409 28.6321 95.1731 30.2114L96.2695 30.3188C96.3582 30.3243 96.4414 30.3638 96.5016 30.4293C96.5618 30.4947 96.5944 30.5808 96.5926 30.6697C96.6109 31.0136 96.6712 31.354 96.7721 31.6833C96.7959 31.769 96.7847 31.8608 96.7409 31.9383C96.6971 32.0158 96.6242 32.0727 96.5384 32.0965C96.4526 32.1203 96.3609 32.1091 96.2834 32.0653C96.2059 32.0215 96.149 31.9486 96.1252 31.8628C95.9849 31.4274 95.9382 31.1043 95.9103 31.0182L94.7426 30.96C94.6478 30.9474 94.5603 30.9026 94.4947 30.833C94.4291 30.7634 94.3896 30.6733 94.3827 30.5779C94.2219 28.6451 94.4605 26.6999 95.0838 24.8633C95.2404 24.4599 95.7316 24.5099 96.3408 24.5665C96.6705 23.7114 97.1311 22.9127 97.7061 22.1991C97.6454 22.1114 96.9624 21.1512 96.8976 21.0651C96.8214 20.958 96.785 20.8276 96.7949 20.6965C96.8048 20.5655 96.8603 20.442 96.9517 20.3476C98.508 18.6399 100.564 17.4668 102.825 16.9954C102.945 16.978 103.067 16.9993 103.174 17.0563C103.28 17.1132 103.366 17.2028 103.418 17.3119L103.813 18.2C104.7 17.9857 105.615 17.911 106.524 17.9786Z" fill="#191919"/>
<path d="M104.566 39.7398C104.243 39.7021 103.53 39.4184 103.561 39.1059C103.617 38.5377 105.058 38.6754 105.141 38.6787C105.283 38.6869 105.415 38.7489 105.512 38.852C105.609 38.9551 105.663 39.0915 105.663 39.233V39.7357C105.979 39.8259 106.494 40.0293 106.435 40.354C106.394 40.7968 105.509 40.764 105.088 40.764C104.945 40.7509 104.812 40.6846 104.716 40.5784C104.619 40.4721 104.566 40.3335 104.566 40.19V39.7398Z" fill="#191919"/>
<path d="M71.8376 63.2475C71.8859 63.0335 72.3115 61.8822 72.3583 61.7805C72.5988 61.2431 72.9557 60.7657 73.403 60.3828C73.8504 60 74.3772 59.7212 74.9454 59.5665C75.2297 59.4509 75.5243 59.3622 75.8252 59.3017C75.9209 59.3017 76.0127 59.2636 76.0803 59.196C76.148 59.1283 76.186 59.0365 76.186 58.9409C76.186 58.8452 76.148 58.7534 76.0803 58.6857C76.0127 58.6181 75.9209 58.5801 75.8252 58.5801C75.4517 58.5124 75.07 58.5027 74.6936 58.5514C72.5026 58.8794 70.6707 61.4115 71.1914 63.2516C71.1917 63.294 71.2003 63.336 71.2168 63.3751C71.2333 63.4142 71.2573 63.4496 71.2875 63.4794C71.3177 63.5093 71.3534 63.5328 71.3927 63.5488C71.432 63.5648 71.4741 63.5729 71.5165 63.5726C71.559 63.5724 71.6009 63.5637 71.64 63.5473C71.6791 63.5308 71.7146 63.5067 71.7444 63.4766C71.7742 63.4464 71.7978 63.4106 71.8137 63.3713C71.8297 63.332 71.8378 63.2899 71.8376 63.2475Z" fill="#38A1FF"/>
<path d="M65.9902 66.7302C65.4564 64.8149 65.4102 62.7966 65.8557 60.859C66.5122 58.2531 68.1493 56.0012 70.4256 54.5728C72.7018 53.1444 75.4416 52.6497 78.0737 53.192C78.8299 53.3186 79.5685 53.5347 80.2737 53.8357C80.3621 53.8751 80.4621 53.8794 80.5535 53.8477C80.6449 53.816 80.7208 53.7507 80.7657 53.6651C80.8053 53.5773 80.8085 53.4774 80.7747 53.3873C80.7409 53.2971 80.6728 53.224 80.5853 53.1838C72.6904 49.1789 64.3625 55.5445 64.5535 63.2476C64.5799 64.5228 64.8545 65.7806 65.362 66.9507C65.4654 67.3476 66.105 67.1664 65.9902 66.7302Z" fill="#38A1FF"/>
<path d="M85.885 60.462C86.295 63.2426 86.1835 62.8089 86.2442 63.25C86.2442 63.3453 86.282 63.4366 86.3494 63.504C86.4168 63.5713 86.5081 63.6092 86.6034 63.6092C86.6986 63.6092 86.79 63.5713 86.8573 63.504C86.9247 63.4366 86.9625 63.3453 86.9625 63.25C87.1181 62.24 86.9613 61.2066 86.5132 60.2882C86.2253 59.8462 85.8301 60.0832 85.885 60.462Z" fill="#38A1FF"/>
<path d="M75.8255 73.6951C75.6943 73.668 75.0752 73.5007 74.8415 73.4597C73.3089 73.2643 71.8292 72.7712 70.4857 72.0083C70.1732 71.8534 69.9018 71.7418 69.5878 71.5819C69.5111 71.5315 69.4182 71.5117 69.3276 71.5265C69.237 71.5414 69.1553 71.5897 69.0987 71.662C69.0422 71.7343 69.0148 71.8252 69.0222 71.9167C69.0295 72.0082 69.071 72.0936 69.1384 72.1559C69.967 73.063 71.045 73.7052 72.2372 74.0018C73.0497 74.2774 73.8956 74.4429 74.7521 74.4938C75.1151 74.4867 75.4764 74.4408 75.8296 74.3568C75.9174 74.3563 76.0013 74.3209 76.063 74.2585C76.1246 74.196 76.159 74.1117 76.1584 74.0239C76.1579 73.9362 76.1225 73.8522 76.0601 73.7905C75.9976 73.7289 75.9133 73.6945 75.8255 73.6951Z" fill="#38A1FF"/>
<path d="M77.2443 40.7967C77.2682 40.2554 77.3282 39.7163 77.4238 39.183C77.4392 39.083 77.4881 38.9913 77.5627 38.923C77.6373 38.8547 77.7329 38.8139 77.8338 38.8074C80.3993 38.7334 82.9445 39.2811 85.2524 40.4039C85.3394 40.4468 85.4058 40.5224 85.437 40.6142C85.4682 40.706 85.4617 40.8065 85.4188 40.8935C85.376 40.9805 85.3004 41.0469 85.2086 41.0781C85.1167 41.1093 85.0163 41.1028 84.9293 41.0599C82.8376 40.1134 80.5597 39.6496 78.2644 39.7028C78.2069 40.1522 78.1758 41.0968 78.1569 41.3428C78.1493 41.4687 78.0921 41.5864 77.9979 41.6701C77.9037 41.7539 77.7801 41.7969 77.6543 41.7897C75.0289 41.7881 72.4084 42.0153 69.8225 42.4687C69.7058 42.4831 69.5878 42.4581 69.4869 42.3978C69.3861 42.3375 69.3082 42.2453 69.2657 42.1358C69.1231 41.7572 69.0029 41.3706 68.9057 40.9779C65.7522 41.9825 62.8914 43.7411 60.5712 46.1013C62.6278 48.8565 61.9652 46.4875 58.1998 53.0524C58.1324 53.1711 58.0244 53.2614 57.8957 53.3066C57.767 53.3518 57.6262 53.3489 57.4995 53.2984L56.7615 53.0164C55.1195 55.3097 54.0765 57.9771 53.7275 60.776C54.3909 61.1467 55.3085 61.2574 55.1641 61.924C54.345 65.2875 54.6155 68.8242 55.9366 72.024C55.9686 72.0992 55.9836 72.1806 55.9804 72.2623C55.9772 72.3441 55.956 72.4241 55.9182 72.4966C55.8804 72.5691 55.827 72.6324 55.7618 72.6818C55.6967 72.7312 55.6214 72.7656 55.5413 72.7825L54.7508 72.9686C55.802 75.6941 57.3916 78.1798 59.4249 80.2773C61.7668 78.7332 59.9234 79.4236 64.6729 82.1633C65.9318 82.8979 67.2544 83.5179 68.6244 84.0156C68.7266 84.0476 68.8129 84.117 68.8661 84.2099C68.9194 84.3028 68.9355 84.4124 68.9114 84.5167L68.6244 86.2977C70.0792 86.5946 71.5481 86.8176 73.0254 86.966C73.1119 86.9792 73.19 87.0253 73.2435 87.0946C73.2969 87.164 73.3216 87.2512 73.3124 87.3383C73.3068 87.3819 73.2925 87.4239 73.2703 87.4618C73.2482 87.4998 73.2187 87.5329 73.1835 87.5592C73.1483 87.5855 73.1082 87.6045 73.0655 87.615C73.0229 87.6255 72.9785 87.6273 72.9352 87.6204C71.2946 87.5185 69.6626 87.3087 68.0496 86.9922C67.9518 86.9623 67.8685 86.8975 67.8154 86.8101C67.7623 86.7227 67.7432 86.6188 67.7618 86.5183L67.9955 84.7348C65.3512 83.8455 62.8961 82.4703 60.7565 80.6799L59.643 81.4179C59.5415 81.4842 59.4205 81.5142 59.2997 81.5031C59.179 81.4919 59.0656 81.4402 58.978 81.3564C56.5217 78.9473 54.6479 76.0092 53.4995 72.7661C53.474 72.6937 53.464 72.6168 53.4702 72.5404C53.4765 72.464 53.4987 72.3897 53.5356 72.3224C53.684 72.0379 53.8702 72.0469 54.6836 71.8559C53.542 68.7392 53.3052 65.3631 54.0005 62.1175C53.6048 61.9609 53.2211 61.7753 52.8526 61.5624C52.7631 61.5069 52.6907 61.428 52.6431 61.3341C52.5955 61.2403 52.5746 61.1351 52.5828 61.0302C52.9073 57.7514 54.1391 54.6279 56.1399 52.0102C56.2083 51.9177 56.3045 51.8495 56.4143 51.8154C56.5242 51.7814 56.6421 51.7832 56.7508 51.8208L57.4692 52.0922C58.3445 50.5731 59.348 49.1315 60.4687 47.7831C60.1071 47.3199 59.7539 46.8503 59.4093 46.3744C59.3386 46.2702 59.3054 46.1451 59.3152 46.0197C59.3251 45.8942 59.3773 45.7758 59.4634 45.6839C62.0939 42.8812 65.4328 40.8413 69.1271 39.7799C69.2624 39.7425 69.407 39.7586 69.5308 39.8249C69.6546 39.8911 69.7481 40.0025 69.7921 40.1358C69.9118 40.5319 69.9848 40.9009 70.1332 41.3437C72.4831 40.9545 74.8625 40.7715 77.2443 40.7967Z" fill="#38A1FF"/>
<path d="M142.415 63.14C142.454 62.879 142.437 62.6128 142.366 62.3585C142.296 62.1043 142.173 61.8677 142.005 61.664C143.327 59.5616 142.184 56.2365 139.616 56.1873C139.258 53.551 135.884 52.9343 134.262 54.9122C133.784 54.7834 133.279 54.7891 132.804 54.9287C132.329 55.0683 131.901 55.3364 131.569 55.7035C128.239 54.3587 124.383 57.9175 125.623 61.3442C123.445 62.5841 123.319 66.2921 125.658 67.3073C125.233 69.6484 127.743 72.3806 129.97 71.2876C130.127 71.4813 130.324 71.6388 130.548 71.7496C130.772 71.8603 131.017 71.9216 131.266 71.9294C131.516 71.9372 131.764 71.8912 131.994 71.7946C132.224 71.698 132.431 71.5531 132.6 71.3696L132.412 74.0108C132.405 74.0575 132.406 74.1052 132.418 74.1512C132.429 74.1972 132.45 74.2403 132.478 74.278C132.507 74.3156 132.543 74.347 132.584 74.3702C132.626 74.3933 132.671 74.4078 132.718 74.4126C132.765 74.4185 132.813 74.415 132.858 74.4022C132.903 74.3895 132.946 74.3677 132.983 74.3383C133.02 74.3088 133.05 74.2723 133.073 74.2309C133.095 74.1894 133.109 74.1438 133.114 74.0969C133.263 73.2244 133.464 72.0469 133.58 70.9473C133.587 70.8422 133.559 70.7378 133.501 70.6502C133.442 70.5626 133.357 70.4967 133.257 70.4626C132.109 70.028 131.892 68.7005 132.109 67.4861C132.121 67.4124 132.117 67.3372 132.099 67.265C132.08 67.1927 132.047 67.125 132.002 67.0659C131.956 67.0067 131.9 66.9575 131.834 66.921C131.769 66.8846 131.698 66.8617 131.624 66.8538C131.337 66.8251 131.067 66.7964 130.78 66.7776C131.294 65.4048 132.027 64.125 132.953 62.9883C133.721 62.0642 134.857 61.5386 135.647 62.4504C135.907 62.7831 136.094 63.1668 136.197 63.5764C136.299 63.9861 136.314 64.4126 136.24 64.8284C136.235 64.9079 136.246 64.9877 136.274 65.0624C136.302 65.1371 136.345 65.205 136.401 65.2616C136.457 65.3182 136.525 65.3621 136.599 65.3905C136.674 65.4189 136.754 65.4311 136.833 65.4262C137.249 65.3926 138.056 65.7107 137.66 66.0904C137.37 66.3715 136.985 66.5338 136.581 66.5455C136.465 66.5584 136.356 66.6073 136.269 66.6854C136.182 66.7635 136.122 66.8668 136.097 66.9809C135.887 68.1052 135.446 69.1739 134.804 70.1199C134.546 70.4274 134.64 71.7992 134.695 74.2428C134.694 74.3301 134.728 74.4142 134.789 74.4769C134.849 74.5397 134.932 74.5761 135.019 74.5782C135.108 74.5795 135.193 74.5458 135.257 74.4844C135.321 74.423 135.358 74.3388 135.36 74.2502C135.394 73.6303 135.442 72.7357 135.496 71.9698C137.688 73.5672 140.319 72.2806 140.498 70.3651C140.937 70.206 141.312 69.9054 141.562 69.5104C141.813 69.1155 141.925 68.6486 141.881 68.183C143.647 67.1531 144.087 64.4258 142.415 63.14ZM130.361 57.2278C131.164 56.7883 132.118 57.3558 132.031 57.7297C131.93 58.1692 130.883 58.0077 130.45 57.8838C130.276 57.8338 130.1 57.7789 130.073 57.5968C130.046 57.4148 130.203 57.318 130.362 57.227L130.361 57.2278ZM128.798 58.6505C128.534 58.8824 128.315 59.1602 128.151 59.4705C127.873 59.9289 127.7 60.4431 127.644 60.9763C127.588 61.5096 127.651 62.0485 127.828 62.5546C127.861 62.6574 127.862 62.7675 127.833 62.8714C127.804 62.9753 127.745 63.0684 127.664 63.1392C127.509 63.2996 127.397 63.4973 127.341 63.7132C127.241 64.1487 127.186 64.5933 127.177 65.04C127.189 65.1265 127.168 65.2145 127.117 65.2857C127.067 65.3569 126.99 65.4057 126.904 65.4219C126.819 65.4381 126.73 65.4204 126.657 65.3726C126.583 65.3249 126.531 65.2506 126.512 65.1654C126.27 64.6395 126.194 64.052 126.296 63.482C126.346 63.1568 126.476 62.8491 126.673 62.5857C126.24 60.9154 126.673 58.7203 128.434 58.0224C128.519 57.9752 128.619 57.9628 128.712 57.9879C128.806 58.013 128.887 58.0736 128.936 58.1569C128.982 58.2408 128.994 58.3393 128.968 58.4313C128.942 58.5234 128.881 58.6018 128.799 58.6497L128.798 58.6505Z" fill="#191919"/>
</svg>
