<svg xmlns="http://www.w3.org/2000/svg" fill="none" viewBox="0 0 164 164"><path fill="#71b6f6" d="M86.926 102.402c13.417-.68 25.71-.989 27.692.123 1.021.574 2.609 8.118 3.339 13.163 4.121-.492 9.3-.945 14.475-1.297-.769-3.882-1.243-6.314-2.986-10.065-.264-.568.459-.798.754-.279a31.2 31.2 0 0 1 3.466 10.28c7.005-.46 13.917-.738 18.249-.738-.492-4.24-3.217-14.01-8.102-19.019-3.765-3.86-11.07-7.297-17.535-8.11a4.9 4.9 0 0 1-3.132 4.038c-3.454 1.357-9.758 1.713-15.382-1.376-5.932 1.693-16.805 8.15-20.838 13.28m72.322 30.175c-35.377.665-70.594.534-105.952.574-.716 0-.877 1.117-.138 1.131 35.28.651 70.979-.116 106.252-.548.754-.007.588-1.171-.162-1.157M72.142 62.678c3.632.068 21.332-.262 23.214-.343.567-.025.552-1.004 0-1.004-2.527 0-19.148.32-23.214.534a.41.41 0 0 0 0 .813m-14.496-4.534c-.264.138-4.83 5.627-2.726 4.974.298-.093 3.28-3.87 3.426-4.548a.436.436 0 0 0-.7-.426m-9.951-12.47c1.469.069 31.374-.006 33.156-.181a1.03 1.03 0 0 0-.063-2.05c-8.322.103-25.622.146-33.046.308-1.113.026-1.207 1.87-.047 1.923m41.86 31.556c-1.924 0-16.557-.163-17.594.133-.352.102-.492.672-.069.793 1.106.317 15.663.156 17.672.156s3.96.073 5.929 0c.602-.022.558-1.03-.04-1.056-1.958-.088-3.936-.025-5.898-.025M71.73 84.892a.49.49 0 0 0-.332.607c.169.574-.59.377 24.349.793a.559.559 0 0 0 0-1.111c-23.924-.386-22.44-.411-24.016-.289m23.483-14.216a.54.54 0 0 0 .033-1.072c-3.558-.098-20.12-.236-23.124.362-.492.098-.382.815.088.857 2.541.228 6.426-.625 23.003-.147m21.872-14.568c.045-7.064.373-15.875-.22-22.73a.42.42 0 0 0-.439-.354.423.423 0 0 0-.398.4c-.193 3.287-.012 18.566 0 22.762.001.69 1.053.612 1.057-.078M55.204 88.832a39 39 0 0 0 3.236 3.153c.492.463 1.25-.275.755-.738a44 44 0 0 0-3.345-3.034c-.355-.227-.92.238-.646.62M9.758 33.379c0-.617-.97-.73-.979-.098-.323 26.122.108 56.506 1.356 82.492.035.72 1.148.544 1.111-.171C9.928 88.113 9.72 60.891 9.758 33.379m12.335 58.288c-.276.41.363.931.685.549.416-.492 2.827-3.286 2.706-3.887-.332-1.593-2.92 2.642-3.391 3.338m18.039-13.251c-.42-.078-3.089 2.29-3.628 2.804-5.037-3.294-4.536-2.483-4.473-.492q.028 2.045.283 4.073c.062.427.711.353.738-.063.103-1.523-.093-3.04-.118-4.562 4.436 2.706 3.065 2.623 7.206-.77.492.544 2.835 2.824 3.544 2.737.574-.07 2.507-2.668 2.967-3.221 0 1.175.038 4.529.386 5.478.18.492.656.318.68-.171.062-1.043-.065-3.516-.062-4.72 0-1.37-.004-1.721-.578-2.541-1.247-1.781-4.404-6.145-6.33-8.513-1.697-2.087-1.771-2.132-2.962-.288-1.834 2.844-4.913 8.364-5.384 9.413-.2.442.482.65.72.323.788-1.09 2.574-4.293 3.396-5.703a49 49 0 0 0 5.547-.093 96 96 0 0 1 4.346 5.576l-2.824 3.426c-.385-.305-3.028-2.614-3.454-2.693m14.128 36.712c-4.406-.246-40.283-.053-41.683.164a.49.49 0 0 0-.34.496.49.49 0 0 0 .393.454c13.566.039 27.963-.069 41.552-.054.66 0 .774-1.019.078-1.06M23.822 64.356c.485.542 1.23-.137.826-.597-.979-1.111-3.076-3.634-4.043-4.484-.383-.337-.902.19-.631.592.695 1.038 2.89 3.42 3.848 4.489m15.784-4.824a36.3 36.3 0 0 0-.377-6.364.451.451 0 0 0-.82.082 40 40 0 0 0 .309 6.363.45.45 0 0 0 .887-.081m.718 31.748c0 .68-.18 5.199.064 5.792a.492.492 0 0 0 .852 0c.255-.651-.035-4.896-.069-5.792-.044-.48-.847-.49-.847 0"/><path fill="#71b6f6" d="M19.807 76.458c9.959-18.73 32.66-16.762 41.008-1.518-9.863 15.053-29.186 17.331-41.053 2.858-.371-.45-.83.126-.492.598 10.433 14.514 32.727 12.62 41.932-2.05a2.28 2.28 0 0 0 .142-2.663C51.22 56.348 25.868 59.467 19.12 76.015c-.2.492.445.896.686.444"/><path fill="#191919" d="M110.58 57.434c-2.565.492-4.827 6.096-1.997 8.719 1.732 1.606 9.712 1.674 14.549 1.468.035.592.162 1.175.376 1.728.193.492.77.648.627-.24a9 9 0 0 1-.108-1.527 39 39 0 0 0 2.252-.164 31 31 0 0 1-.563 3.25c-.135.588.525.698.749.137.687-1.774.964-3.68.813-5.576-.292-4.18-12.012-8.695-16.698-7.795m.808 2.208c-1.18.27-1.459 2.062-1.566 3.02-.185 1.64-1.23.493-.98-.95.192-1.087 1.121-2.858 2.477-2.682a.31.31 0 0 1 .323.273.31.31 0 0 1-.254.339"/><path fill="#191919" d="M120.17 74.308a10.7 10.7 0 0 0 1.327-3.588c1.102.2 2.152.618 3.089 1.23.558.24.769-.492.492-.72a6.46 6.46 0 0 0-3.53-1.428c-.597-1.131-5.135-1.394-5.835-.201a1.4 1.4 0 0 0-1.136-.103c-.357-.979-4.381-1.224-5.384-.093-1.155-.127-1.635.94-.108.93a12 12 0 0 0 .583 3.116c.395.808 3.237.796 3.803.387.673-.487.979-2.61 1.17-3.427.277-.087.577-.07.842.05a13.8 13.8 0 0 0 .372 3.255c.434.864 3.685 1.337 4.315.592m-7.01-1.41c-.134.322-.254.4-1.332.357-1.82-.072-1.439.323-1.996-3.343a6.15 6.15 0 0 1 3.955 0 8.1 8.1 0 0 1-.627 2.986m3.427.371a12 12 0 0 1-.216-3.064 5.93 5.93 0 0 1 4.323.132 7.5 7.5 0 0 1-.612 2.335c-.466 1.02-.543 1.153-2.012 1.034-.705-.058-1.384-.214-1.483-.436"/><path fill="#191919" d="M117.282 72.614c.153.553 1.23.618.979-.979-.143-.908-1.424-.623-.979.98"/><path fill="#191919" d="M126.582 71.953c-2.809.236-4.196 5.382-5.688 5.875-1.043.345-3.383-1.156-5.747-1.317s-3.71.837-4.152.626c-.441-.21-.136-2.055-.136-2.486 0-.43-.235-.666-.652.284-.416.95-4.478 10.064-2.711 12.517 2.525 3.505 12.832 4.247 16.032 1.836 4.011-3.022.597-12.73 1.585-15.258a1.91 1.91 0 0 1 2.023-1.009c1.351.585.979 4.592-1.18 3.965-.543-.157-.666.525-.164.788 1.467.772 2.906-.43 3.098-2.447.144-1.527-.374-3.535-2.308-3.374m-11.186 9.102c-2.036 0-2.447-.807-2.619-2.132 1.763.38 3.589.347 5.337-.092-.186 1.21-.445 2.228-2.718 2.228z"/><path fill="#191919" d="M114.423 72.453c-.377.869-.66 1.776-.842 2.706-.203 1.103 1.264 1.106 2.091.979.492-.076.582-.637.043-.676-.396-.03-1.174-.05-1.248-.186.068-.915.244-1.819.524-2.692.114-.36-.413-.502-.568-.131m-2.33.199c.456-.174.492-1.401.103-1.63-.983-.584-1.12 2.014-.103 1.63m8.023-43.189c-37.924.03-78.182-.059-115.528.26-.637.004-.652 1.64-.04 1.644 37.806.237 77.625-.059 115.528-.088.681 0 .696-1.816.04-1.816M76.91 116.755c-6.478-.386-16.513-1.653-22.558-4.249-.777-.334-4.617.293-8.977-1.722-.456-.209-.637.433-.21.696 2.227 1.372 5.041 1.738 7.611 1.821a4.2 4.2 0 0 1 1.993.445 67.6 67.6 0 0 0 22.19 3.965c.621.009.602-.917-.05-.956m73.651-1.86c-.127-.69-1.057-.447-.941.24a16.6 16.6 0 0 1-.465 7.38c-1.673 5.832-6.598 4.897-11.528 4.669-5.174-.237-12.3-.733-16.771-.939a.383.383 0 0 0-.362.599.38.38 0 0 0 .242.155c4.301.683 13.488 1.087 17.067 1.257 4.896.233 10.357.886 12.18-4.782a17.7 17.7 0 0 0 .578-8.579m-32.089 2.923a191 191 0 0 1 19.121-2.061.403.403 0 0 0-.039-.804c-6.448.265-12.875.919-19.244 1.958a.461.461 0 0 0 .164.907zm-67.447-7.093a.52.52 0 0 0 .364-.158.51.51 0 0 0 .09-.569.51.51 0 0 0-.498-.287c-3.044.098-4.58-.767-6.589-2.193-.318-.226-.656.172-.41.492 1.43 1.89 4.767 2.803 7.043 2.715m5.064-5.191c.37.643 1.148.73 1.84.886 4.088.929 13.441.619 17.78.569.617-.008.492-.805-.142-.799-3.168.032-12.728.122-17.472-.754-.875-.164-.83-.034-1.277-.738-.845-1.333-2.104-2.964-3.632-2.991-.456-.008-.492.431-.103.627a6.37 6.37 0 0 1 3.006 3.2m-2.706.182c-2.118-.622-5.11-1.619-6.756-3.745-.492-.638-.91-.142-.665.372 1.025 2.159 4.777 4.1 6.931 4.182 1.191.05.86-.701.49-.809m-8.575-1.674a.415.415 0 0 0-.569-.071.416.416 0 0 0-.102.563 9.47 9.47 0 0 0 6.829 4.009.49.49 0 0 0 .486-.341.495.495 0 0 0-.197-.561c-.72-.31-3.776-.509-6.447-3.599"/><path fill="#191919" d="M139.208 129.13c-1.469-.191-18.504.186-19.293-.137s-4.869-23.561-5.935-25.088c-1.066-1.526-34.645-.558-36.172.324-1.526.881 3.516 27.424 4.822 27.962 1.165.478 54.827-.187 56.58-.279s1.466-2.591-.002-2.782m-42.306-7.636c-4.581.381-6.017-7.134-1.439-7.881 2.173-.355 4.088 1.572 4.494 3.945a3.345 3.345 0 0 1-3.055 3.936"/></svg>