<svg xmlns="http://www.w3.org/2000/svg" fill="none" viewBox="0 0 164 164"><path fill="#71b6f6" d="M116.179 45.69c-.574.164-19.09 13.39-20.62 14.552-1.533 1.162-4.547 5.266-4.155 5.64.607.581 5.796-1.297 6.49-1.7.695-.402 20.044-14.065 20.992-14.72s-2.129-3.935-2.707-3.772M82.03 88.062c-8.204.47-15.72-6.068-27.442-9.736-4.92.856-14.241.383-15.58-2.655C21.483 78.267 6.7 89.365 4.404 96.827c-2.2 7.14 7.97 21.251 12.852 25.86 2.155-12.255 5.151-25.305 9.911-36.818.241-.584.78-.227.597.338a269.6 269.6 0 0 0-11.035 49.329c9.266 5.479 38.786 6.758 48.35 4.414.079-4.043.65-17.616 1.176-28.118a148 148 0 0 1-12.275-1.476c-.65-.106-.363-.793.273-.707 7.648 1.026 23.124 2.825 32.062.376 5.494-1.505 16.773-7.298 25.748-34.604-2.596-1.947-7.01-3.628-11.358-4.1-1.188 3.422-14.637 16.51-18.674 16.741M77.617 30.3A58.3 58.3 0 0 1 89.52 41.41c.543.645 1.148.138 1.558-.39 5.45-7.042 8.364-11.175 15.648-17.22.574-.474-.075-1.167-.688-.738-4.992 3.489-12.67 10.84-15.947 16.032a57 57 0 0 0-11.89-9.814c-.84-.513-1.401.478-.585 1.02"/><path fill="#71b6f6" d="M82.524 29.528c1.415.164 11.683-.27 13.284-.298.799-.015.858-1.291.046-1.26-1.616.062-11.972.301-13.423.559-.595.105-.439.936.093 1m-3.388 31.226c-.713-.321-1.298.649-.649 1.052a92 92 0 0 1 10.385 7.529c.99.827 2.21-.749 1.23-1.584a46.5 46.5 0 0 0-10.966-6.997m21.115-16.538c.035-3.058-.264-6.335-.28-9.412 0-.78-1.084-.649-1.078.13l.082 9.768c-2.446 0-13.487.3-16.006.772-.266-2.797-.393-5.616-.804-8.398a.455.455 0 0 0-.902.072c.13 2.732.246 5.523.455 8.255.111 1.454.116 1.357 1.55 1.253 4.966-.361 10.022-.656 15-.7 1.437-.015 1.961.084 1.983-1.74m-6.173 11.171c-2.746.035-5.74.078-8.47.388-2.85.328-2.65.568-2.448 3.136q.07 1.014.26 2.012a.513.513 0 0 0 1.019 0c0-.467-.227-3.641-.164-3.72.063-.077 8.685-.682 9.606-.745.794-.055.988-1.082.197-1.071"/><path fill="#71b6f6" d="M84.887 67.947a.525.525 0 0 0-1.038.09c.036 1.7.16 3.398.37 5.085a.604.604 0 0 0 .555.648c.082.006 6.364-.155 10.959-.59 1.175-.11.46-1.163-.227-1.11-3.246.247-6.88.377-10.139.474-.13-1.579-.24-3.084-.48-4.597"/><path fill="#191919" d="M57.002 53.025c-1.583-.097-2.524 1.856-1.674 2.031.441.092.584-1.012 1.603-1.006a.514.514 0 1 0 .071-1.025"/><path fill="#191919" d="M59.216 51.272c-.236-.475-.656-.088-.546.363.697 2.781 1.486 4.33 2.077 7.42.319 1.661-1.2.648-1.246 1.947a20.5 20.5 0 0 1-.292 2.87 3.05 3.05 0 0 1-1.714-.934c-.292-.384-.798-.04-.557.473a2.82 2.82 0 0 0 2.155 1.46c-.526 4.183-2.736 4.422-6.27 3.69-.65-.133-1.3-.364-2.013-.46-.345-.046-1.23.65 1.084 1.298 0 1.123.246 6.855.565 7.906.135.442.831.39.792-.11-.205-2.597-.286-5.024-.328-7.562 7.052 1.441 6.939-2.875 7.503-8.405 1.454-.209 1.52-1.412 1.298-2.564a28.7 28.7 0 0 0-2.508-7.392M39.257 39.375c-1.886-6.823-9.192-13.884-19.024-8.756s-8.529 18.928-3.24 24.769c3.323 3.668 6.492 7.996 6.005 11.358s4.688.442 1.992-10.574c-2.154-8.801 4.88-16.122 10.385-12.676a14.4 14.4 0 0 1 3.882-4.121"/><path fill="#191919" d="M49.07 55.615c1.469.871 10.597-6.493 10.035-8.185-4.51-13.577-21.282-10.056-23.97-.345-3.017 10.897 5.964 19.444 6.536 19.37.83-.11 3.444-1.786 4.414-5.051a2.79 2.79 0 0 0 2.816 0c.558-.317.155-.95-.434-.738-1.437.513-2.986-.65-2.83-3.128a2.267 2.267 0 0 1 3.433-1.923M41.21 67.72a37.6 37.6 0 0 0-.85 7.474.442.442 0 0 0 .87.058c.496-2.392.573-4.971 1.012-7.458.104-.593-.92-.652-1.032-.074m16.765-11.386c-.374-1.3-1.606-1.357-1.123.474.44 1.658 1.517.894 1.123-.474m40.088-.174c.391-.394 3.28-.619 3.499-.689.498-.164.383-.896-.032-1.057-.838-.328-3.207.142-3.999.574-.792.43-.925 1.877-1.63 3.394-.36.78-.845 1.496-1.161 2.291-.153.388.315.656.65.39 1.596-1.258 2.654-4.884 2.673-4.904m-1.941 6.797a.461.461 0 0 0-.194.89c5.649 2.069 5.302 5.835 6.088 6.73.17.193 1.281.607 1.006-.984-.554-3.21-3.622-6.378-6.9-6.636m11.567-3.791c2.196 5.353 2.304 6.674 2.162 12.464-.017.65.957.91 1.129.246.998-3.844-.171-10.004-2.473-13.248-.34-.48-1.02.045-.818.538m-3.595 1.707c-.129 1.455-1.047 1.443-1.948 1.714-1.125.337-.487.648 0 .766a2.32 2.32 0 0 0 2.921-2.597c-.136-.64-.918-.506-.973.117m40.287-20.238c1.247-.07.883-1.978-.351-1.909-8.911.505-17.974-.032-26.612.507-.984.06-.811 1.55.082 1.655 5.15.6 21.851.031 26.881-.254m14.487-11.903c-10.617-.351-33.005-.247-42.871.792-.805.082-1.026 1.563-.058 1.558 11.293-.07 29.912-.828 43.111-.41 1.26.04 1.052-1.9-.182-1.94m-1.316 27.157c-12.859 1.066-28.271-.261-39.99 1.155-.928.113-.695 1.693.259 1.64 10.463-.625 25.963-.176 39.782-.83 1.247-.063 1.214-2.07-.051-1.965M142.746 65c-6.011-.359-19.316-.32-24.354-.072-.941.047-1.077 1.635-.098 1.695 7.504.46 15.695.437 24.341.26 1.02-.021 1.234-1.816.111-1.882"/></svg>