<svg xmlns="http://www.w3.org/2000/svg" fill="none" viewBox="0 0 164 164"><path fill="#71b6f6" d="M55.074 40.508c-.184.184.82 1.054.962 1.154a2.245 2.245 0 0 0 3.548-1.832 2.4 2.4 0 0 0-1.893-2.255 3.3 3.3 0 0 0-6.1-2.367 5.67 5.67 0 0 0-8.66 7 4.31 4.31 0 0 0-4.994 6.667 5.05 5.05 0 0 0-4.047 1.327 6.17 6.17 0 0 0-2.176 4.937c.09 2.241 2.128 4.909 4.353 4.777a60 60 0 0 0 7.386-1.944 4 4 0 0 0 1.886-1.106c1.694-2.09 2.137-6.5 2.132-8.938 0-1.095-.207-2.178-.228-3.258a3.46 3.46 0 0 0 2.706-1.345 3.9 3.9 0 0 0 .752-2.597 3.285 3.285 0 0 0 4.373-.22m4.321 13.618a14.4 14.4 0 0 0-3.492-3.59c.104.076-1.23 1.23-1.366 1.318-.416.282-1.165.417-1.468.813a3.3 3.3 0 0 0-.287 1.563q-.133 1.207-.193 2.428a39 39 0 0 0 6.353-.83c.773-.096 1.134-.724.453-1.702m63.052-19.112a8.49 8.49 0 0 1 4.441 6.744.383.383 0 0 0 .386.369.383.383 0 0 0 .385-.369 7.82 7.82 0 0 0-4.947-7.2c-.301-.118-.574.301-.265.456m7.379 5.856q.09-.951.018-1.904c-.038-.512-.834-.519-.803 0q.055 1 .282 1.973c.073.299.476.203.503-.069m-29.721 26.944c-.728-.82-3.645-2.512-5.158-4.692-4.645-6.692-6.082-14.656-6.103-22.805.025-.011 2.378-1.683 4.041-1.759a6.8 6.8 0 0 1 3.295.756 10.8 10.8 0 0 0 .323 3.034c1.312 7.325 4.991 15.533 12.254 17.118a.29.29 0 0 0 .3-.099.286.286 0 0 0-.148-.45 16.2 16.2 0 0 1-8.408-8.035c-2.889-5.812-2.733-9.722-3.502-11.83-.34-.934-3.046-1.727-4.307-1.657-1.331.075-4.276 1.493-4.42 1.985-1.623 5.582.014 12.009 2.031 17.391a33.2 33.2 0 0 0 3.94 7.4c1.818 2.588 4.463 4.338 5.544 4.39a.438.438 0 0 0 .318-.747m8.865-8.259c-1.289 1.992.322 4.954 2.504 5.436 2.128.47 4.926-.51 5.588-2.73.117-.392-.453-.768-.726-.422a4.76 4.76 0 0 1-4.289 2.06c-2.155-.251-2.597-2.373-2.46-4.182.026-.342-.453-.415-.617-.162m33.153 30.256c-.301-5.185-.799-9.144-3.168-14.186-2.632-5.604-6.767-11.152-12.164-14.36-2.775-1.65-6.072-2.553-9.243-1.613-.316.093-.273.624.082.596 7.912-.614 14.104 5.605 18.031 11.819 3.828 6.063 4.853 10.578 5.215 16.966.01 1.947.17 3.89.48 5.811.113.521.837.356.879-.12a34 34 0 0 0-.112-4.913m-1.513 4.836c-.986.25-1.995.397-3.011.441-.503-.015-1.126-.227-1.675-.227-.193-3.604-2.657-9.397-4.838-12.898-2.385-3.832-5.589-7.699-9.611-9.88-.285-.154-.605.228-.355.456l.045.045a.33.33 0 0 0-.154.278c-.159 8.931 2.882 17.834 7.342 25.396.451.765.971 2.074 1.798 2.472a.5.5 0 0 0 .216.046.47.47 0 0 0 .372-.214.45.45 0 0 0 .068-.21c-.032-.87-.825-1.685-1.261-2.415-4.157-6.97-7.708-16.704-7.848-24.85 5.013 4.762 8.692 8.474 11.371 15.534.806 2.125 1.154 4.324 1.804 6.479a.59.59 0 0 0 .328.525c1.823.728 4.51 1.078 5.837-.257.325-.324-.028-.787-.428-.721"/><path fill="#71b6f6" d="M129.532 100.593c-2.921 1.492-4.631 4.1-11.091 4.503-4.428.275-9.049-.073-13.145-1.868 0-.028-1.875-3.063-3.034-9.303-2.825-15.153-1.366-19.926.587-29.34.061-.293-.388-.535-.521-.226a36.7 36.7 0 0 0-2.378 9.676 54.2 54.2 0 0 0 1.123 20.019 52 52 0 0 0 3.333 9.532c3.931 2.944 9.752 3 14.461 2.675a17.7 17.7 0 0 0 6.241-1.565c1.63-.754 4.1-1.904 4.92-3.615a.36.36 0 0 0-.269-.536.36.36 0 0 0-.227.048M81.42 4.402c-.112-.492-.79-.335-.828.114-.211 2.43.308 5.046.656 7.452.366 2.57.868 5.118 1.504 7.634.116.455.778.26.7-.193-1.938-11.4-1.267-11.668-2.032-15.007m8.785 13.944c4.416-4.874 7.316-7.375 8.76-9.184.257-.32-.074-.906-.48-.622-2.92 2.05-6.669 6.56-8.835 9.375-.245.322.287.727.555.43m5.966.499c2.715-1.175 5.74-2.172 8.181-3.868.353-.246.15-.884-.312-.738-2.836.916-5.483 2.692-8.062 4.152-.236.137-.077.57.193.454M73.226 15.78a45 45 0 0 0-4.341-5.16.422.422 0 0 0-.656.51 42 42 0 0 0 3.97 5.045c1.43 1.735 2.904 3.415 4.376 5.124.273.317.847-.116.587-.455-1.302-1.695-2.592-3.398-3.936-5.065m-2.345 8.281a21.3 21.3 0 0 0-7.819-2.94c-.365-.049-.388.5-.082.612a54 54 0 0 1 7.491 3.034.41.41 0 0 0 .41-.706M26.306 155.921c-1.183-.246-1.998.17-3.106-.703-1.629-1.283-3.418-5.581-4.501-7.134-.18-.259-.64-.111-.537.228.404 1.35 2.713 7.38 5.543 8.592.7.173 1.425.227 2.143.159.437.362-4.15 1.736-5.002 1.696a29 29 0 0 1-3.329-.574c-2.288-1.854-4.324-5.248-5.723-7.833.378-2.901.928-3.483.41-3.597a.27.27 0 0 0-.288.118c-.38.562-1.159 2.881-.87 3.316a14.1 14.1 0 0 0 2.406 5.078c.902 1.209 2.577 4.138 6.985 4.61 2.146.23 6.422-1.205 6.854-1.674.816-.892.05-2.069-.985-2.282m7.693-115.698a15.3 15.3 0 0 1 1.968-4.647 26 26 0 0 1 3.31-3.803.352.352 0 0 0-.425-.552c-3.02 1.715-4.838 5.546-5.534 8.806-.096.45.574.64.68.196m-.952-7.15a8.1 8.1 0 0 0-2.187 5.037c-.05.435.626.424.683 0a11.8 11.8 0 0 1 2.006-4.654.319.319 0 0 0-.502-.383"/><path fill="#191919" d="M112.771 52.082c.917-.155 1.469-1.218.875-1.366-.29-.072-.337.218-1.126.458-.32.057-.647.066-.969.025a.315.315 0 0 0-.312.317c.003.313.66.766 1.532.566"/><path fill="#191919" d="M110.891 55.298c-.188.382-.914 2.697-1.148 3.45-.095.301.376.51.519.226.354-.697 1.412-2.853 1.543-3.247 2.353.769 4.767-.798 5.016-2.596.042-.314-.35-.681-.613-.358-.83 1.022-1.62 2.033-3.078 2.014a3.31 3.31 0 0 1-3.029-2.178c-.957-2.392-.394-5.236.555-7.533.082-.207-.227-.3-.339-.143-2.142 2.997-2.552 8.483.574 10.365"/><path fill="#191919" d="M111.848 47.15c.164-.19-.049-.52-.282-.367-.72.472-1.722 1.254-1.722 2.226 0 .744 1.044 1.537 1.652.858a.286.286 0 0 0 0-.383c-.35-.392-.925-.314-.562-.983q.383-.725.914-1.351m1.753-.984a.316.316 0 0 0-.4.132 2.4 2.4 0 0 0-.373.603.38.38 0 0 0 .227.484c.835.148.854-1.084.546-1.219m.772.744a.34.34 0 0 0 .282.237.35.35 0 0 0 .334-.155 1.55 1.55 0 0 0-.097-1.518 1.31 1.31 0 0 0-1.198-.808.266.266 0 0 0-.07.522c.298.087.501.559.581.828s.054.607.168.894"/><path fill="#191919" d="M116.207 43.913c-.348 1.895 1.085 5.098 3.403 4.952a13 13 0 0 0-2.177 4.853 12.04 12.04 0 0 0-.425 5.625c.074.364.561.227.598-.082.144-1.838.465-3.657.958-5.434.356-1.174 2.698-4.53 3.581-7.26a5.24 5.24 0 0 0-.082-3.052 2.86 2.86 0 0 0-3.208-1.941c-.312-1.283-2.271-2.347-4.153-1.59-.635-1.114-2.203-1.361-3.45-1.313-1.578.063-2.46 1.422-2.502 2.92-.1 3.433 4.838 3.099 7.457 2.322m-27.051-6.614c-1.953-.21-1.955-3.01-1.986-4.468-.033-1.574.415-3.094.405-4.653a.391.391 0 0 0-.724-.195c-1.085 2.008-1.804 10.86 2.394 9.966.398-.085.262-.613-.089-.65"/><path fill="#191919" d="M88.817 32.572c.328-1.934 1.022-3.777 1.366-5.688a.365.365 0 0 0-.663-.28 11.27 11.27 0 0 0-1.33 5.889c-.004.352.566.446.627.079m3.153-6.424a9.4 9.4 0 0 0-2.066 6.22.335.335 0 0 0 .656.088c.32-1.004.553-2.034.895-3.034s.787-1.941 1.054-2.958a.328.328 0 0 0-.538-.316m4.039.728c.215-.31-.196-.64-.487-.487-2.1 1.102-3.316 3.8-3.772 6.003a.29.29 0 0 0 .557.153c1.311-3.376 2.692-4.207 3.702-5.669m.34 4.246c-1.96.645-3.387 3.085-3.83 5.002a.346.346 0 0 0 .261.414c.505.115.434-.634 2.132-2.788q.977-1.017 1.793-2.168a.319.319 0 0 0-.356-.46m38.13 70.752a2.116 2.116 0 0 0 .962 2.405c1.67.963 4.203.724 6.006.36 1.729-.351 3.185-.925 3.185-2.92a8.92 8.92 0 0 0-2.635-5.689.528.528 0 0 0-.826.637c.662 1.288 1.662 2.318 2.077 3.749.171.584.419 1.644.039 2.227-.381.582-1.516.738-2.15.867a10.6 10.6 0 0 1-4.346.016c-2.148-.459-.954-2.296-1.01-3.761a.3.3 0 0 0-.458-.245.3.3 0 0 0-.125.163c-.118.281-.246.596-.371.924-1.312.179-.738-1.312-.528-1.878.242-.66.555-1.293.933-1.886.177-.276-.203-.516-.426-.328-1.07.894-2.214 2.412-2.009 3.907.108.79.957 1.597 1.682 1.452m18.286 42.981c-.041-.061-8.064-10.321-11.07-15.7-6.731-12.064-9.766-22.386-11.762-26.742-.116-.253-.476-.064-.427.18.897 4.553 4.398 13.171 6.296 17.423 3.431 7.687 9.739 19.419 15.814 24.6a7.2 7.2 0 0 1-3.509 2.287c-2.394-2.332-12.21-8.718-24.008-27.381-2.209-3.495-4.1-7.108-6.212-10.619-.137-.228-.553-.078-.455.186 2.234 6.09 6.128 12 9.91 17.393-.121.335-.683 2.813-.683 2.813a62.5 62.5 0 0 1-9.999-.999 45 45 0 0 1-9.62-2.996c-3.641-1.513-3.891-2.498-3.721-9.066a59 59 0 0 1 1.55-11.181.33.33 0 0 0-.577-.291.3.3 0 0 0-.058.115 39.2 39.2 0 0 0-2.1 12.203c-.067 4.732-.073 7.216 3.256 8.788 6.063 2.861 15.006 5.071 21.499 4.214a42.6 42.6 0 0 1 .694 10.129.57.57 0 0 0 .354.506.57.57 0 0 0 .608-.108 12.7 12.7 0 0 0 3.286-8.191c6.339 7.853 13.552 14.082 15.685 15.359 0 .013-.5 5.612-3.843 6.681a2.27 2.27 0 0 0-1.484 1.016c-.756 1.486 7.898 1.189 7.926 1.175.876-.439 3.751-10.159 2.65-11.794"/><path fill="#191919" d="M115.097 107.647a57 57 0 0 1-2.571 10.756.6.6 0 0 0 .41.719c3.534 1.081 6.825 2.855 10.332 3.953.343.107.485-.355.227-.544-2.247-1.648-7.24-3.608-9.682-4.365a46.4 46.4 0 0 0 1.839-10.442c.019-.316-.512-.397-.555-.077M81.488 27.586a.366.366 0 0 0-.608.353c.369 1.468 1.413 2.726 1.273 5.509a9.8 9.8 0 0 1-1.82 5.222c-.24.328.3.75.566.437a9.47 9.47 0 0 0 2.409-5.475c.155-1.966-.274-4.658-1.82-6.046"/><path fill="#191919" d="M80.196 32.367a.346.346 0 0 0 .682 0c.1-2.182-.298-5.092-2.05-6.653a.34.34 0 0 0-.562.328c.473 1.576 1.629 2.865 1.93 6.325m-1.906-.597c.048.454.748.485.743 0-.023-2.193-.617-5.514-2.683-6.725a.354.354 0 0 0-.516.396c.558 1.49 2.06 2.69 2.455 6.328m-2.729-2.667c1.163 3.396.417 4.395 1.061 4.393a.3.3 0 0 0 .298-.297 11 11 0 0 0-.385-4.376 7.6 7.6 0 0 0-1.982-3.64c-.281-.231-.881-.024-.708.41.49 1.222 1.285 2.25 1.717 3.51m-.271 8.067c.053.276.496.212.491-.066-.055-2.156-.706-4.83-2.696-6.01a.388.388 0 0 0-.525.528c.679 1.195 2.161 2.581 2.73 5.548m4.678 2.617a10 10 0 0 0-.708 2.984 32.3 32.3 0 0 1-3.679 9.45c-2.24 4.019-9.33 10.268-9.33 10.268s-1.476-2.82-1.697-8.26a24.18 24.18 0 0 0 10.558-11.814 13 13 0 0 0 1.23-4.178c.023-.487-.76-.742-.965-.262-.702 1.653-1.886 8.47-8.883 13.624a24.93 24.93 0 0 1-13.478 4.684c.061-.53 0-1.066.048-1.592s.164-1.113.25-1.67c4.295-.878 4.829-8.446 1.715-11.624-.306-.314-.748.082-.574.444 1.032 2.183 1.846 4.234 1.405 6.706a4.8 4.8 0 0 1-1.666 3.202 3 3 0 0 1-3.727-.455c-.206-.193-.58.061-.41.314a3.12 3.12 0 0 0 2.645 1.488 5.37 5.37 0 0 0-.228 3.222q-1.374.043-2.742-.089c-.455-.047-5.377.341-7.598 1.743-1.138-.139-4.433 1.183-5.352 1.64a29.4 29.4 0 0 0-7.58 5.402c-.457.453-1.213 1.029-1.171 1.755.146.64.53 1.2 1.072 1.57-2.336 2.063-4.094 5.283-3.576 8.387.622 3.715 3.925 6.939 7.162 8.629a.387.387 0 0 0 .466-.606c-2.373-2.505-5.505-4.176-6.371-7.796-.798-3.331 1.29-5.556 3.001-8.036a17.6 17.6 0 0 0 2.833 2.399.378.378 0 0 0 .512-.514c-.449-.794-3.849-4.001-3.768-4.336.131-.548 3.24-3.055 3.998-3.608a29 29 0 0 1 7.38-3.888 16.26 16.26 0 0 0-4.756 6.105c-1.325 2.986-1.592 6.286-1.694 9.517-.579 18.368-2.407 16.97-3.832 21.508-.025.06-1.592 6.613-1.82 7.565-3.346 11.311-5.494 18.632-10.886 30.533-2.796 6.171-4.213 8.492-5.475 11.405-.197.455.63 1.66 2.992 2.337.683.196 2.82 0 3.432-.769.613-.77 3.547-4.653 5.222-6.945 2.05-2.801 13.485-20.306 16.383-26.664 1.476-3.237 3.474-10.152 3.868-10.388.15-.089.342.082.395.246s-.783 3.732-1.157 5.343c-.228.984-.552 3.186-.227 3.614a25 25 0 0 0 2.371 2.439 31.4 31.4 0 0 0-5.084 2.387c-1.942 1.411-3.501 4.182-4.712 6.215-.43.719-2.456 4.674-2.794 5.461a.65.65 0 0 0 .147.828q.119.1.27.136c3.125-.17 6.336-1.216 9.31-2.132a69.5 69.5 0 0 0 9.535-3.69c2.668-1.275 5.631-2.792 7.434-5.218 2.343-3.156-4.833-22.78-7.484-23.25-.228-.04-3.435 3.66-16.23 1.71-1.475-.225-2.65-1.185-4.07-1.603 2.05-2.897 2.49-6.686 2.9-10.092 1.23-10.206-.573-17.748 4.545-23.627a15.34 15.34 0 0 1 10.115-5.145c.086 0 4.057 2.17 14.443-2.194a20.2 20.2 0 0 0 .368 5.138c.19.936 1.22 4.374 1.755 4.956-3.592 2.994-5.885 3.69-8.068 4.912a.8.8 0 0 0-.182.333c-.497 3.026-4.9 21.264-5.278 23.148a.54.54 0 0 0 1.037.285c.713-1.904 4.904-21.371 4.778-23.167 3.314-.574 6.376-2.893 8.58-5.3.163-.18-.174-1.295-.37-1.763.082.063 7.533-6.13 9.976-10.168a32.3 32.3 0 0 0 2.943-6.317c.376-1.104 1.58-5.699 1.278-6.745a.41.41 0 0 0-.73-.127"/><path fill="#191919" d="M53.813 47.702c.484.35 1.793.91 1.955-.082.072-.435-.898-2.339-1.21-2.809-.144-.215-.56-.082-.455.19.222.574.749 2.227.738 2.243-.01.017-.475-.2-.72-.277-.462-.145-.657.483-.308.735m-1.743-1.887a1.87 1.87 0 0 0 0-1.137.393.393 0 0 0-.607-.2.4.4 0 0 0-.142.2 1.87 1.87 0 0 0 0 1.137.434.434 0 0 0 .749 0m-1.33-1.592c.549-.975 1.272-.967 1.66-1.357a.31.31 0 0 0-.136-.516c-.962-.198-1.737.907-2.034 1.661-.11.279.364.47.51.212m-.303 3.867c.538 1.984 2.526 2.906 3.48 2.242a.38.38 0 0 0-.09-.683c-.6-.035-1.186-.2-1.717-.482a9.7 9.7 0 0 1-1.28-1.312.23.23 0 1 0-.393.236"/></svg>