<svg width="164" height="164" viewBox="0 0 164 164" fill="none" xmlns="http://www.w3.org/2000/svg">
<path d="M130.614 92.4879C131.272 92.453 131.906 92.2363 132.448 91.8619C132.989 91.4875 133.416 90.9701 133.681 90.3674C133.906 89.6007 133.095 89.3301 132.823 90.187C132.597 90.6561 132.254 91.0596 131.828 91.3596C131.402 91.6596 130.907 91.8461 130.389 91.9016C130.208 91.9467 129.848 92.5027 130.614 92.4879Z" fill="#191919"/>
<path d="M131.967 85.9927C131.701 84.9988 130.343 85.9025 131.155 86.8496C131.381 87.1202 132.243 87.0283 131.967 85.9927Z" fill="#191919"/>
<path d="M130.028 81.7983C129.396 81.9763 129.396 82.7003 130.207 82.7003C131.114 82.6335 132.024 82.7737 132.869 83.1103C132.927 83.1299 132.99 83.1289 133.048 83.1077C133.105 83.0864 133.154 83.0461 133.185 82.9934C133.217 82.9408 133.23 82.8789 133.221 82.8182C133.213 82.7574 133.184 82.7013 133.139 82.6593C132.713 82.2999 132.215 82.0369 131.678 81.8883C131.141 81.7397 130.578 81.709 130.028 81.7983Z" fill="#191919"/>
<path d="M127.592 84.0502C126.99 83.7095 126.279 83.6127 125.608 83.7796C125.198 83.9149 125.247 84.3659 125.653 84.411C126.183 84.4293 126.704 84.5519 127.186 84.7718C127.727 85.0005 127.859 84.2822 127.592 84.0502Z" fill="#191919"/>
<path d="M128.313 87.1661C128.185 88.1687 128.17 89.1826 128.268 90.1886C128.449 91.3612 131.109 90.5043 130.704 89.8729C130.479 89.5121 129.577 90.2829 128.989 90.0082C128.833 89.0694 128.773 88.1171 128.81 87.1661C128.81 87.1002 128.784 87.037 128.737 86.9904C128.69 86.9438 128.627 86.9176 128.561 86.9176C128.496 86.9176 128.432 86.9438 128.386 86.9904C128.339 87.037 128.313 87.1002 128.313 87.1661Z" fill="#191919"/>
<path d="M127.411 87.481C128.086 87.071 127.457 85.677 126.871 86.128C126.419 86.3986 126.597 87.9738 127.411 87.481Z" fill="#191919"/>
<path d="M122.856 91.1349C123.487 93.2095 125.02 95.9155 126.779 97.1783C127.591 97.7646 127.997 97.1783 127.189 96.4116C125.455 94.9507 124.147 93.0498 123.401 90.9086C123.371 90.8363 123.313 90.7789 123.241 90.749C123.169 90.719 123.087 90.7191 123.015 90.7491C122.943 90.7791 122.885 90.8366 122.855 90.909C122.825 90.9813 122.826 91.0626 122.856 91.1349Z" fill="#191919"/>
<path d="M137.514 93.2998C137.734 93.1136 137.559 92.7586 137.288 92.8898C134.762 93.9722 133.004 97.8959 134.221 100.693C134.402 101.054 134.898 100.918 134.808 100.512C134.131 97.0431 135.022 95.4006 137.514 93.2998Z" fill="#191919"/>
<path d="M122.45 94.1567C122.804 95.2841 123.382 96.3286 124.149 97.2275C124.916 98.1265 125.857 98.8614 126.915 99.3883C127.501 99.6589 128.087 99.2079 127.185 98.6216C125.329 97.558 123.86 95.931 122.991 93.9763C122.766 93.6155 122.35 93.7532 122.45 94.1567Z" fill="#191919"/>
<path d="M124.389 91.0447C125.404 93.143 127.107 94.8303 129.215 95.8253C132.146 97.1332 132.734 95.1037 135.259 93.435C135.53 93.2546 135.394 92.8938 135.078 92.984C132.823 93.5252 132.597 96.5018 129.44 94.9684C127.599 93.945 126.047 92.4708 124.93 90.6839C124.878 90.624 124.806 90.5851 124.727 90.5746C124.648 90.5641 124.568 90.5827 124.502 90.6269C124.435 90.671 124.387 90.7378 124.367 90.8147C124.346 90.8915 124.354 90.9733 124.389 91.0447Z" fill="#191919"/>
<path d="M128.313 102.91C128.539 103.27 129.126 102.955 128.945 102.594C128.088 100.294 124.66 99.7974 123.442 97.7679C123.217 97.4071 122.811 97.7679 122.95 98.1287C124.209 100.516 126.784 100.468 128.313 102.91Z" fill="#191919"/>
<path d="M124.074 84.0083C124.239 86.2191 124.679 88.4009 125.382 90.5035C125.472 90.8192 126.058 90.6839 125.968 90.3231C125.017 87.2756 124.635 84.079 124.84 80.8931C125.16 81.0092 125.499 81.0575 125.838 81.0352C126.177 81.0129 126.507 80.9203 126.809 80.7633C127.11 80.6064 127.375 80.3886 127.587 80.1236C127.8 79.8587 127.955 79.5525 128.042 79.2244C129.261 81.0284 132.869 80.848 133.996 79.2244C133.681 81.7049 136.567 86.0796 137.153 85.2678C137.424 84.8578 137.695 84.4109 138.191 84.2756C140.04 83.6893 140.356 87.2071 139.228 87.7032C138.736 87.9287 137.74 87.2932 138.326 88.8758C139.105 90.9418 139.767 93.0498 140.31 95.1898C140.401 95.5957 140.897 95.4153 140.897 95.0094C140.5 92.8221 139.896 90.6774 139.093 88.6044C139.512 88.5509 139.901 88.3567 140.196 88.0536C140.491 87.7506 140.674 87.3565 140.716 86.9357C141.244 86.744 141.715 86.4233 142.087 86.0028C142.459 85.5823 142.719 85.0754 142.845 84.5283C142.971 83.9813 142.957 83.4115 142.806 82.8709C142.655 82.3303 142.371 81.8362 141.98 81.4335C144.415 78.9981 143.964 74.9834 140.22 75.0285C140.452 74.2898 140.456 73.4982 140.23 72.7577C140.004 72.0171 139.559 71.3623 138.954 70.8793C138.349 70.3962 137.612 70.1076 136.839 70.0512C136.067 69.9949 135.296 70.1735 134.627 70.5636C133.274 66.9105 127.727 67.9929 127.591 71.2401C124.074 68.3537 119.518 72.8637 122.224 76.3364C119.158 76.3856 118.887 83.6926 124.074 84.0083Z" fill="#191919"/>
<path d="M130.253 105.432C130.523 105.735 130.879 105.947 131.273 106.042C131.667 106.136 132.081 106.108 132.458 105.961C132.836 105.814 133.16 105.555 133.386 105.218C133.613 104.882 133.731 104.485 133.725 104.079C134.471 103.788 135.195 103.441 135.89 103.042C135.789 102.429 135.558 101.845 135.214 101.328C134.511 101.51 133.831 101.767 133.184 102.095C132.923 101.772 132.566 101.54 132.165 101.434C131.764 101.327 131.339 101.35 130.952 101.501C130.566 101.652 130.237 101.922 130.013 102.272C129.79 102.622 129.684 103.034 129.71 103.448C129.259 103.719 128.763 104.034 128.583 104.17C128.561 104.793 128.733 105.407 129.075 105.929C129.44 105.793 129.888 105.616 130.253 105.432ZM130.658 103.448C130.8 101.87 132.872 102.05 132.688 104.034C132.553 105.658 130.487 105.343 130.658 103.448Z" fill="#191919"/>
<path d="M120.376 120.677C120.241 118.422 120.151 113.099 120.737 111.115C120.827 110.754 121.278 110.664 121.229 111.431C121.077 114.497 121.107 117.569 121.319 120.632C124.725 120.522 128.134 120.688 131.513 121.128C130.069 117.34 128.039 105.568 127.814 104.034C127.588 102.501 124.521 101.463 122.894 99.8843C119.105 101.237 113.828 105.478 109.724 111.25C111.233 114.541 112.47 117.95 113.422 121.444C115.724 121.059 118.046 120.803 120.376 120.677Z" fill="#191919"/>
<path d="M141.618 96.0057C139.769 97.945 138.191 98.8921 135.395 98.9372C135.981 102.955 139.499 108.815 142.566 113.1C143.046 112.081 143.394 111.004 143.603 109.897C143.694 109.266 144.095 109.491 144.095 109.852C144.021 111.275 143.716 112.677 143.193 114.002C146.892 119.053 151.721 123.924 153.525 130.059C155.554 127.488 163.493 113.413 157.99 104.079C154.744 98.4411 147.663 95.5547 141.618 96.0057Z" fill="#191919"/>
<path d="M148.249 136.776C151.452 136.821 152.939 136.821 155.645 136.821C157.044 133.349 158.488 126.538 158.984 120.9C156.096 130.239 151.722 134.659 148.249 136.776Z" fill="#191919"/>
<path d="M135.935 133.982C130.844 134.464 125.804 135.385 120.871 136.734C123.803 136.688 134.357 136.598 138.055 136.688C137.098 136.015 136.36 135.073 135.935 133.982Z" fill="#191919"/>
<path d="M135.218 132.855C135.76 132.773 135.669 131.953 135.128 132.043C122.081 133.874 119.914 135.437 114.335 135.922C113.569 135.967 112.941 136.779 113.975 136.779C117.313 136.779 122.815 135.065 126.423 134.388C129.577 133.757 132.062 133.343 135.218 132.855Z" fill="#191919"/>
<path d="M115.053 122.03C113.067 122.427 113.564 123.067 114.286 122.887C119.428 121.805 126.374 122.03 131.516 122.887C132.012 122.977 132.237 122.21 131.741 122.12C126.644 121.263 120.145 121.014 115.053 122.03Z" fill="#191919"/>
<path d="M146.806 120.857C147.03 121.04 147.482 120.767 147.298 120.447C143.036 115.376 139.247 109.926 135.977 104.166C135.797 103.85 135.255 104.166 135.391 104.481C137.109 107.912 143.851 118.449 146.806 120.857Z" fill="#191919"/>
<path d="M152.398 130.419C152.579 129.968 151.988 129.608 151.767 130.009C150.414 132.4 148.79 134.79 146.174 135.963C143.514 137.18 140.581 136.82 138.642 134.519C134.448 129.558 131.381 113.773 130.252 106.601C130.162 106.15 129.531 106.33 129.621 106.781C130.568 113.636 133.639 129.784 138.101 135.061C141.518 139.133 148.729 138.126 152.398 130.419Z" fill="#191919"/>
<path d="M85.1494 112.422C85.4651 112.243 85.2396 111.881 84.8788 111.93C83.2552 112.246 82.1728 112.697 81.6759 114.321C81.1747 115.801 81.0507 117.382 81.3151 118.921C81.4053 119.331 81.9916 119.237 82.0367 118.831C82.0818 117.072 81.8112 116.712 82.3975 114.772C82.8936 112.964 83.7087 113.242 85.1494 112.422Z" fill="#191919"/>
<path d="M85.7359 105.523C85.6865 106.501 85.7166 107.481 85.8261 108.454C85.8712 108.815 86.5026 108.77 86.5477 108.454C86.5682 107.475 86.523 106.496 86.4124 105.523C86.3665 105.206 85.7433 105.206 85.7359 105.523Z" fill="#191919"/>
<path d="M89.1637 105.162C90.3683 104.506 92.2797 103.223 93.0874 101.643C93.3129 101.192 93.2686 101.057 92.9521 100.651C92.5534 100.2 92.0823 99.8192 91.5581 99.5236C91.0177 99.253 90.9718 99.4334 90.5667 99.704C87.905 101.553 83.8427 101.192 81.049 99.7491C80.8235 99.6138 80.1921 99.9746 80.7784 100.29C84.2519 102.05 87.9944 102.366 91.1973 100.11C91.7134 100.437 92.1838 100.831 92.5962 101.282C91.528 102.801 90.082 104.013 88.4011 104.801C87.7697 104.034 87.1383 103.313 86.5069 102.546C85.5549 101.489 85.1645 103.392 83.6197 104.936C82.0565 104.164 80.5627 103.259 79.1548 102.23C79.6058 101.779 80.0117 101.328 80.4627 100.877C80.7333 100.651 80.3725 100.2 80.0527 100.385C79.5772 100.729 79.1389 101.122 78.7448 101.557C78.5831 101.743 78.5019 101.986 78.5188 102.232C78.5357 102.478 78.6494 102.707 78.835 102.869C79.5566 103.546 83.2097 105.891 83.7968 105.62C84.789 105.128 85.3302 103.816 86.0067 103.004C86.6381 103.636 87.495 104.899 87.9911 105.395C88.3068 105.748 88.8447 105.336 89.1637 105.162Z" fill="#191919"/>
<path d="M93.9446 87.03C94.1081 86.3361 94.1686 85.6219 94.1241 84.9103C94.0339 84.1436 93.3132 84.0985 93.3574 84.9554C93.4476 86.0829 93.0426 87.3908 93.1779 87.6614C93.4936 88.4289 94.6211 87.1694 95.1614 87.9779C95.9281 89.2407 94.2594 91.631 93.2221 90.9996C92.9524 90.8192 92.7301 90.9545 92.5456 91.5408C92.27 92.3305 91.9069 93.0868 91.4632 93.7958C89.0278 97.3587 84.1119 98.2607 81.4059 95.1898C80.4518 93.9543 79.8307 92.4946 79.6019 90.9504C79.5949 90.8489 79.5614 90.7509 79.5049 90.6662C79.4484 90.5814 79.3708 90.5129 79.2797 90.4674C79.1886 90.4219 79.0872 90.4009 78.9856 90.4065C78.8839 90.4121 78.7854 90.4441 78.6999 90.4994C77.7528 91.221 76.8959 90.1386 76.8057 88.7856C76.6704 86.9357 77.7979 86.8004 78.6097 87.4318C78.6602 87.4728 78.7223 87.4969 78.7873 87.5006C78.8522 87.5044 78.9166 87.4876 78.9715 87.4527C79.0264 87.4178 79.0689 87.3665 79.093 87.3061C79.1171 87.2457 79.1216 87.1792 79.1058 87.1161C79.0607 86.7061 78.8352 84.4101 78.8352 83.914C78.7901 83.463 78.2489 83.6434 78.2489 84.0493C78.294 84.8611 78.3391 85.718 78.4293 86.4847C78.1806 86.364 77.9061 86.3058 77.6298 86.3153C77.3534 86.3247 77.0836 86.4014 76.8436 86.5387C76.6036 86.6761 76.4008 86.8699 76.2528 87.1035C76.1047 87.337 76.0158 87.6031 75.9939 87.8787C75.6331 90.3149 77.3469 92.2091 78.9254 91.3071C79.3764 93.2915 80.1431 95.321 81.8127 96.5387C81.7216 97.3505 81.6774 98.1623 81.5872 98.9741C81.5421 99.6957 82.0382 99.7859 82.2186 99.4251C82.3404 98.6032 82.4157 97.7751 82.4441 96.9446C83.5494 97.5206 84.7886 97.7909 86.0335 97.7274C87.2783 97.664 88.4836 97.2692 89.5248 96.5838C89.5699 97.3956 89.5248 98.2525 89.615 99.0643C89.6158 99.1157 89.6275 99.1662 89.6492 99.2128C89.6709 99.2593 89.7021 99.3007 89.7409 99.3344C89.7797 99.368 89.8251 99.3931 89.8742 99.4081C89.9233 99.423 89.975 99.4274 90.026 99.4211C90.0769 99.4147 90.126 99.3977 90.1699 99.3711C90.2138 99.3446 90.2517 99.309 90.281 99.2669C90.3102 99.2247 90.3303 99.1769 90.3399 99.1264C90.3495 99.076 90.3484 99.0241 90.3366 98.9741C90.2013 97.6211 90.2915 96.7642 90.2464 96.0877C91.612 95.0049 92.6055 93.5229 93.0885 91.8483C93.3616 91.9134 93.6461 91.9146 93.9198 91.8521C94.1935 91.7895 94.4492 91.6648 94.667 91.4875C96.7859 90.0525 96.6046 86.2182 93.9446 87.03Z" fill="#191919"/>
<path d="M82.7148 83.0612C82.2586 83.0523 81.8056 83.1402 81.3857 83.319C80.9658 83.4978 80.5885 83.7634 80.2786 84.0985C80.008 84.3691 80.1884 84.9554 80.7296 84.6848C81.3125 84.2664 81.9994 84.0167 82.7148 83.9632C83.5266 83.873 83.3946 83.1095 82.7148 83.0612Z" fill="#191919"/>
<path d="M93.6738 111.341C93.5472 110.244 93.1348 109.201 92.4778 108.314C91.8208 107.428 90.9424 106.729 89.9305 106.289C89.4385 106.109 89.3893 106.605 89.7501 106.781C92.0502 107.999 92.9522 110.344 93.0432 112.826C93.1326 114.855 92.1855 118.012 94.5758 119.14C94.9858 119.32 95.2982 118.648 94.8915 118.463C92.862 117.52 94.151 114.411 93.6738 111.341Z" fill="#191919"/>
<path d="M83.3 107.056C83.5206 106.781 83.2549 106.425 82.9392 106.646C81.1869 108.146 79.9031 110.119 79.241 112.329C78.9253 113.502 79.0155 114.72 78.7449 115.847C78.4292 117.155 77.3017 117.651 76.2644 118.373C75.9036 118.598 76.2193 119.23 76.6252 119.049C77.6364 118.636 78.5004 117.929 79.1057 117.02C80.0528 115.396 79.1057 113.367 81.045 109.983C81.7225 108.953 82.4763 107.974 83.3 107.056Z" fill="#191919"/>
<path d="M80.594 116.844C80.749 115.45 80.6391 114.001 81.4058 112.739C81.7511 112.217 82.2031 111.775 82.7318 111.44C83.2606 111.106 83.8541 110.888 84.4734 110.799C85.0146 110.709 84.9654 110.168 84.4734 110.168C83.7583 110.192 83.0589 110.384 82.432 110.728C81.805 111.073 81.2683 111.561 80.8654 112.152C80.0873 113.568 79.7868 115.198 80.0085 116.798C80.0077 117.114 80.5538 117.204 80.594 116.844Z" fill="#191919"/>
<path d="M86.1004 116.44C85.9364 117.615 86.1906 135.067 86.2357 136.014C86.2357 136.51 87.0475 136.465 87.0475 135.969C87.0475 130.967 86.822 121.942 86.7318 116.485C86.6834 116.212 86.1471 116.077 86.1004 116.44Z" fill="#191919"/>
<path d="M90.9224 124.736C90.4052 124.541 89.9446 124.221 89.5824 123.804C89.2201 123.386 88.9677 122.885 88.8478 122.346C88.3517 119.955 90.8322 117.655 89.5694 115.175C89.3485 114.711 88.9823 114.332 88.5263 114.095C88.0703 113.858 87.5495 113.777 87.043 113.863C86.9772 113.863 86.9141 113.889 86.8676 113.936C86.8211 113.982 86.7949 114.045 86.7949 114.111C86.7949 114.177 86.8211 114.24 86.8676 114.286C86.9141 114.333 86.9772 114.359 87.043 114.359C87.3356 114.37 87.6229 114.44 87.8876 114.566C88.1522 114.691 88.3887 114.869 88.5827 115.088C88.7767 115.307 88.9242 115.564 89.0163 115.842C89.1084 116.119 89.1431 116.413 89.1184 116.705C89.1184 118.013 88.3968 119.231 88.1262 120.493C87.851 121.486 87.9576 122.546 88.4251 123.465C88.8925 124.383 89.6869 125.093 90.6518 125.454C91.1479 125.683 91.4168 124.923 90.9224 124.736Z" fill="#191919"/>
<path d="M75.9035 119.459C75.8559 119.099 75.9035 117.881 75.2721 118.065C74.7187 118.168 74.1754 118.319 73.6485 118.516C72.9269 118.832 72.5661 119.644 73.5583 119.373C74.0093 119.238 74.5054 119.103 74.9523 118.963C75.182 121.886 76.353 124.656 78.2897 126.857C75.6475 129.114 72.7913 131.108 69.7617 132.81C68.9048 133.306 69.1303 134.073 69.8519 133.667C73.1299 131.956 76.1764 129.834 78.9178 127.353C79.0531 127.217 79.2335 127.037 79.0531 126.766C77.4369 124.24 76.2897 122.393 75.9035 119.459Z" fill="#191919"/>
<path d="M114.286 129.517C113.787 124.782 110.407 115.536 108.513 111.431C105.626 105.252 101.071 102.997 94.6667 101.598C94.5828 101.58 94.4953 101.596 94.4232 101.643C94.3512 101.689 94.3006 101.762 94.2825 101.846C94.2644 101.93 94.2804 102.018 94.327 102.09C94.3735 102.162 94.4467 102.212 94.5305 102.23C100.079 104.17 104.183 104.891 107.205 110.619C109.37 114.724 114.151 127.308 113.474 132.133C112.933 135.877 110.949 135.696 108.333 135.877C103.642 136.192 95.6138 129.923 92.2755 126.857C94.5305 125.277 95.9746 121.669 96.3805 119.144C99.9711 120.129 103.438 121.521 106.712 123.293C107.164 123.518 107.525 122.932 107.074 122.707C104.988 121.537 102.817 120.526 100.579 119.685C100.384 118.609 99.9185 117.6 99.2259 116.753C98.8651 116.438 98.6847 116.844 98.82 117.069C99.2604 117.784 99.5946 118.558 99.8122 119.369C98.7438 118.96 97.6423 118.643 96.5199 118.422C95.663 118.287 95.663 118.422 95.5277 119.144C94.0386 126.315 90.656 126.134 91.6031 127.172C94.9414 130.916 102.969 136.553 108.202 136.643C113.113 136.776 114.824 134.615 114.286 129.517Z" fill="#191919"/>
<path d="M91.3734 115.175C91.3174 114.516 91.0703 113.887 90.6625 113.366C90.2547 112.846 89.7038 112.455 89.0774 112.243C88.3051 112.093 87.5183 112.032 86.7322 112.062C86.3706 112.062 86.3706 112.513 86.6871 112.604C87.995 112.965 89.0774 112.468 90.0245 113.822C91.0618 115.265 90.4755 116.663 90.6559 117.52C90.6805 117.588 90.7242 117.646 90.7816 117.69C90.8391 117.733 90.9078 117.758 90.9795 117.763C91.0511 117.768 91.1226 117.752 91.1853 117.716C91.248 117.681 91.2991 117.629 91.3324 117.565C91.4845 116.777 91.4984 115.968 91.3734 115.175Z" fill="#191919"/>
<path d="M85.5552 113.596C85.0353 113.761 84.5569 114.036 84.1522 114.402C83.7475 114.767 83.4259 115.216 83.2092 115.716C81.315 119.685 86.5023 122.616 79.0149 125.368C78.923 125.396 78.8453 125.457 78.7979 125.541C78.7504 125.624 78.7369 125.722 78.7601 125.815C78.7834 125.908 78.8416 125.989 78.9226 126.04C79.0037 126.091 79.1014 126.109 79.1953 126.09C80.3894 125.809 81.5013 125.252 82.4425 124.465C86.6376 120.948 80.6385 117.565 85.7807 114.092C86.0513 113.867 85.9168 113.511 85.5552 113.596Z" fill="#191919"/>
<path d="M81.631 87.075C82.2115 87.5785 82.943 85.9926 82.173 85.5867C81.4957 85.2259 81.221 86.7192 81.631 87.075Z" fill="#191919"/>
<path d="M90.7422 111.972C91.9041 113.068 91.8246 114.678 91.8697 116.167C91.8697 116.528 92.4109 116.483 92.5011 116.167C92.7266 114.544 92.5462 112.603 91.2834 111.386C89.9304 110.123 87.8558 109.943 86.142 110.213C86.1029 110.215 86.0647 110.225 86.0298 110.242C85.9949 110.26 85.9641 110.285 85.9395 110.315C85.9149 110.346 85.897 110.381 85.8871 110.419C85.8771 110.457 85.8753 110.496 85.8817 110.535C85.8881 110.573 85.9027 110.61 85.9243 110.642C85.946 110.675 85.9744 110.703 86.0075 110.723C86.0406 110.744 86.0778 110.758 86.1165 110.763C86.1552 110.768 86.1947 110.765 86.2322 110.754C87.7656 110.754 89.5122 110.813 90.7422 111.972Z" fill="#191919"/>
<path d="M75.3169 85.9475C75.7219 86.3092 76.1738 85.6769 75.813 85.3161C73.1972 82.7003 73.1972 78.7307 75.0012 75.6639C80.1877 66.7333 95.6135 68.5381 98.8156 77.7385C99.3707 79.2093 99.4287 80.8215 98.9807 82.3284C98.5328 83.8354 97.6035 85.1541 96.3351 86.0828C96.0645 86.3083 96.29 86.8044 96.6508 86.624C100.259 84.82 100.89 80.0845 99.4019 76.702C94.9821 66.6439 77.7974 66.1027 73.6031 76.702C72.3403 79.8139 72.7421 83.6515 75.3169 85.9475Z" fill="#191919"/>
<path d="M76.7151 83.2416C79.4629 83.5483 82.8495 81.618 84.2025 79.2728C84.2436 79.2068 84.2582 79.1277 84.2433 79.0514C84.2285 78.9751 84.1853 78.9072 84.1224 78.8615C84.0595 78.8158 83.9816 78.7955 83.9045 78.8049C83.8273 78.8143 83.7565 78.8525 83.7064 78.912C81.6769 81.3925 79.827 82.2043 76.7151 82.5651C76.6348 82.5782 76.5619 82.6195 76.5093 82.6814C76.4566 82.7434 76.4277 82.822 76.4277 82.9033C76.4277 82.9846 76.4566 83.0633 76.5093 83.1253C76.5619 83.1872 76.6348 83.2284 76.7151 83.2416Z" fill="#191919"/>
<path d="M85.3747 90.1878C85.6912 89.9631 85.6904 89.6466 85.3747 89.5113C85.1492 89.4211 83.9315 89.7368 83.8413 89.5113C83.6609 89.0603 84.3374 87.1202 84.4727 86.1731C84.5629 85.4966 84.2472 85.4966 83.9315 86.0378C83.6158 86.579 82.6195 89.3309 83.0738 90.1427C83.5256 90.8192 84.9253 90.5052 85.3747 90.1878Z" fill="#191919"/>
<path d="M67.1084 109.086C69.8554 105.249 72.882 103.673 77.392 102.275C77.843 102.14 77.7077 101.419 77.2567 101.554C72.0702 103.087 69.4085 104.53 66.2515 108.905C65.8005 109.446 66.6566 109.716 67.1084 109.086Z" fill="#191919"/>
<path d="M95.1204 83.6475C95.1862 83.6278 95.2432 83.5861 95.2821 83.5295C95.3209 83.4729 95.3392 83.4046 95.3339 83.3362C95.3287 83.2677 95.3001 83.2031 95.2531 83.1531C95.2061 83.1031 95.1433 83.0706 95.0753 83.0612C92.2783 83.0161 88.8958 82.6102 86.7761 80.5807C84.7917 78.6865 83.7995 75.3934 83.6601 72.7325C83.615 72.2815 82.9385 72.2405 82.9836 72.6874C83.0287 75.4836 84.2956 79.1375 86.321 81.0768C88.3464 83.0161 92.3619 84.0706 95.1204 83.6475Z" fill="#191919"/>
<path d="M84.1571 92.7585C85.6192 93.5351 87.4494 93.0742 87.9455 91.6761C88.0357 91.3604 87.675 91.0898 87.4495 91.3604C86.1375 92.8938 85.014 92.2624 84.3334 92.3075C83.9767 92.2624 83.8898 92.6167 84.1571 92.7585Z" fill="#191919"/>
<path d="M89.9754 85.1358C89.6343 84.1518 87.7204 83.0612 86.8184 83.3769C86.4576 83.5122 86.3223 84.2338 86.8184 84.324C87.8207 84.4545 88.7621 84.8781 89.5244 85.5417C89.7499 85.7221 90.1017 85.4999 89.9754 85.1358Z" fill="#191919"/>
<path d="M87.0891 87.3908C87.9477 87.2202 87.9009 85.6319 87.2244 85.8123C86.5922 85.9476 86.3684 87.5343 87.0891 87.3908Z" fill="#191919"/>
<path d="M111.986 58.886C112.438 58.7531 112.888 58.6154 113.339 58.476C113.069 59.6035 112.753 60.731 112.482 61.8585C112.031 63.4821 112.663 63.6174 113.024 63.0311C114.151 61.2722 115.324 59.4682 116.541 57.7544C118.211 55.3641 118.616 55.5896 115.549 55.6798C116.09 54.6416 116.632 53.6043 117.128 52.5638C117.624 51.5232 114.286 52.6991 113.971 52.9697C113.907 53.0101 113.861 53.0726 113.841 53.1451C113.821 53.2175 113.829 53.2948 113.862 53.362C113.896 53.4293 113.953 53.4817 114.023 53.5091C114.093 53.5366 114.171 53.5372 114.241 53.5109C114.602 53.4207 115.369 53.0599 116.226 52.8795L114.737 55.8569C114.647 56.0824 114.737 56.353 115.008 56.353C115.594 56.353 116.226 56.3079 116.812 56.3079C115.685 57.9315 114.557 59.6002 113.43 61.2238L114.377 57.9766C114.4 57.9117 114.406 57.8415 114.393 57.7737C114.38 57.7058 114.348 57.6429 114.302 57.5918C114.255 57.5406 114.195 57.5032 114.129 57.4836C114.063 57.464 113.992 57.4629 113.926 57.4805C113.475 57.6158 112.979 57.7962 112.532 57.9315C112.802 56.6236 113.163 55.3157 113.479 53.9619C113.569 53.6011 113.028 53.5109 112.892 53.8266C112.368 55.2988 111.946 56.8058 111.63 58.3366C111.49 58.6154 111.671 58.9778 111.986 58.886Z" fill="#191919"/>
<path d="M57.5011 92.9881C57.7274 93.1685 58.0882 92.9881 57.9529 92.7175C57.6364 91.8155 57.3658 90.9134 58.0431 89.9663C58.3203 89.5949 58.6936 89.3061 59.1227 89.1312C59.5519 88.9562 60.0207 88.9016 60.4785 88.9733C60.5526 88.973 60.6245 88.9486 60.6835 88.9039C60.7425 88.8592 60.7854 88.7965 60.8057 88.7253C60.826 88.6542 60.8227 88.5783 60.7963 88.5092C60.7698 88.44 60.7216 88.3813 60.6589 88.3419C59.3961 87.7556 56.9148 88.838 56.9148 91.2291C56.8796 91.5473 56.9138 91.8693 57.015 92.1729C57.1162 92.4766 57.2821 92.7547 57.5011 92.9881Z" fill="#191919"/>
<path d="M55.7873 98.3059C55.7919 98.4045 55.8343 98.4975 55.9057 98.5657C55.9771 98.6339 56.072 98.6719 56.1707 98.6719C56.2694 98.6719 56.3643 98.6339 56.4357 98.5657C56.5071 98.4975 56.5495 98.4045 56.554 98.3059C56.6515 97.4751 56.5902 96.6333 56.3736 95.8254C55.9226 94.2469 54.4343 93.6606 54.4794 92.0821C54.5245 91.135 54.7049 90.1879 54.75 89.2859C54.7491 89.2121 54.7206 89.1415 54.6701 89.0877C54.6197 89.0339 54.551 89.001 54.4775 88.9953C54.404 88.9897 54.331 89.0117 54.273 89.0571C54.2149 89.1026 54.1759 89.1681 54.1637 89.2408C53.9833 90.1428 53.8029 91.0448 53.7127 91.9468C53.5323 93.9312 54.8853 94.4724 55.4265 95.7352C55.7907 96.5398 55.9159 97.4321 55.7873 98.3059Z" fill="#191919"/>
<path d="M56.2829 81.4827L56.9594 88.1124C57.0045 88.383 57.5006 88.383 57.5457 88.0673C57.7712 86.3986 57.1849 83.1063 56.8241 81.3433C56.779 81.0768 56.2378 81.167 56.2829 81.4827Z" fill="#191919"/>
<path d="M60.8388 93.6605C61.0143 94.0238 61.4702 93.7507 61.38 93.435C61.2447 92.6683 60.929 91.7663 62.4173 91.7663C63.635 91.7663 63.8113 92.8487 63.7703 93.8409C63.6801 95.69 62.1016 97.2685 62.1016 98.9372C62.1032 99.0315 62.139 99.122 62.2022 99.1919C62.2655 99.2618 62.3519 99.3064 62.4456 99.3174C62.5392 99.3284 62.6336 99.3051 62.7114 99.2518C62.7891 99.1985 62.8449 99.1187 62.8683 99.0274C63.3193 97.1783 63.4997 97.3587 64.1311 95.8253C64.6766 94.6828 64.7575 93.3732 64.3566 92.1722C63.4546 90.1427 59.4038 90.7012 60.8388 93.6605Z" fill="#191919"/>
<path d="M58.81 91.3153C58.7229 91.9836 58.8492 92.6623 59.1708 93.2546C59.2075 93.3078 59.2617 93.3465 59.3241 93.3637C59.3864 93.3809 59.4528 93.3755 59.5116 93.3486C59.5704 93.3216 59.6178 93.2748 59.6454 93.2164C59.6731 93.1579 59.6792 93.0916 59.6628 93.0291C59.4824 92.082 59.302 90.9545 60.204 90.4584C60.601 90.2155 61.0525 90.0759 61.5173 90.0523C61.982 90.0287 62.4453 90.1217 62.8649 90.3231C63.1806 90.5035 63.4512 90.0074 63.2257 89.7819C62.4631 88.8348 59.0806 89.1956 58.81 91.3153Z" fill="#191919"/>
<path d="M38.4226 83.7378C38.152 83.7829 37.8814 83.8279 37.6559 83.873C37.25 82.6102 36.0323 81.3024 34.544 81.8436C32.9655 82.4299 32.9195 84.1437 33.0106 84.9104C31.6986 85.0457 30.3488 85.2261 29.0409 85.3614C28.9668 85.3788 28.9013 85.4221 28.8562 85.4835C28.8111 85.5449 28.7893 85.6203 28.7948 85.6962C28.8002 85.7722 28.8325 85.8438 28.8858 85.8981C28.9392 85.9524 29.0102 85.986 29.086 85.9928C30.439 85.9026 31.792 85.8124 33.1459 85.7673C33.9396 89.8254 38.5242 88.7242 37.8814 84.6849C38.1069 84.6398 38.3324 84.6398 38.5128 84.5947C39.0138 88.1043 43.0941 88.2125 42.7071 84.0535C43.0679 84.0535 43.8346 83.8731 43.4738 83.3319C43.2934 83.0613 42.8875 83.2417 42.6169 83.2868C41.8953 80.3102 38.5579 80.671 38.4226 83.7378ZM33.7322 85.2712C33.5969 84.2339 33.8224 83.1514 34.4989 82.7455C35.6264 82.0239 36.7539 83.1515 37.1147 84.5947C37.8609 88.0477 34.17 88.7791 33.7322 85.2712ZM41.0835 86.4438C39.4271 87.0178 38.3143 83.2548 39.7756 82.1593C41.7165 80.6398 42.9875 85.7804 41.0818 86.4438H41.0835Z" fill="#191919"/>
<path d="M38.5132 88.8348C37.4759 88.925 37.5661 89.376 38.2426 89.4662C38.6936 89.5113 39.4152 89.4211 39.6366 89.0152C39.9974 88.3838 39.5013 87.3457 38.8699 86.7594C38.4189 86.3084 38.1934 86.7143 38.3779 86.9398C38.7862 87.5712 39.776 88.6093 38.5132 88.8348Z" fill="#191919"/>
<path d="M41.8055 87.6163C41.7629 87.1653 41.3135 87.1653 41.3135 87.6163C41.4037 90.6839 41.088 95.5998 36.7133 95.9606C34.9987 96.096 33.1496 95.2841 31.6613 94.4272C31.3907 94.2468 31.0299 94.6979 31.3456 94.9233C32.8358 95.9961 34.6081 96.6076 36.4427 96.6822C36.5329 97.4038 36.7133 98.1705 36.8035 98.8921C37.029 100.29 37.5702 99.6137 37.48 99.1627C37.385 98.3175 37.2647 97.4752 37.1192 96.6371C41.3545 95.9606 42.1392 91.1333 41.8055 87.6163Z" fill="#191919"/>
<path d="M35.6263 92.8938C35.8759 93.013 36.1479 93.0782 36.4244 93.0852C36.7009 93.0922 36.9758 93.0409 37.2311 92.9345C37.4865 92.8281 37.7165 92.6691 37.9062 92.4678C38.096 92.2665 38.2412 92.0275 38.3323 91.7663C38.648 91.0898 38.4676 90.9545 37.8813 90.9545C37.3111 90.9973 36.7387 90.91 36.2072 90.699C35.6758 90.488 35.1993 90.159 34.8137 89.7368C34.0708 89.1169 33.8887 92.2321 35.6263 92.8938ZM37.7911 91.631C37.0695 93.025 34.9039 92.3526 34.8596 90.729C35.7151 91.3357 36.7426 91.6519 37.7911 91.631Z" fill="#191919"/>
<path d="M35.4919 85.1358C35.3976 85.4056 35.5362 86.128 35.988 86.0378C36.3488 85.9927 36.3488 85.4966 36.2135 85.1809C36.0331 84.7299 35.6649 84.6373 35.4919 85.1358Z" fill="#191919"/>
<path d="M40.4976 84.324C40.4009 84.6381 40.5427 85.4515 40.9896 85.2711C41.2151 85.1809 41.3053 84.9554 41.2602 84.5495C41.1741 84.0501 40.6666 83.7795 40.4976 84.324Z" fill="#191919"/>
<path d="M32.6487 82.4749C33.3321 81.6877 34.2778 81.175 35.3104 81.0317C35.4174 81.0099 35.5132 80.9505 35.5801 80.8642C35.6471 80.7779 35.681 80.6704 35.6755 80.5613C35.6701 80.4522 35.6257 80.3487 35.5504 80.2695C35.4751 80.1903 35.374 80.1407 35.2653 80.1297C34.7435 80.1341 34.2285 80.2489 33.7542 80.4666C33.2799 80.6842 32.857 80.9998 32.5134 81.3925C31.5212 82.4749 32.3707 82.7832 32.6487 82.4749Z" fill="#191919"/>
<path d="M20.6519 81.8886C20.5779 83.2883 20.9033 84.6801 21.5902 85.9018C22.277 87.1236 23.2971 88.1249 24.5313 88.7889C24.7568 90.0968 25.6137 91.6311 27.2373 91.6311C27.7223 94.0415 28.0388 96.4828 28.1844 98.9373C28.1813 98.9806 28.1872 99.0242 28.2016 99.0652C28.2161 99.1062 28.2388 99.1438 28.2684 99.1756C28.298 99.2075 28.3339 99.2329 28.3738 99.2502C28.4136 99.2676 28.4567 99.2766 28.5001 99.2766C28.5436 99.2766 28.5866 99.2676 28.6265 99.2502C28.6664 99.2329 28.7022 99.2075 28.7319 99.1756C28.7615 99.1438 28.7842 99.1062 28.7987 99.0652C28.8131 99.0242 28.819 98.9806 28.8158 98.9373C28.7692 96.5889 28.5126 94.2494 28.0491 91.9468C27.9589 91.5409 27.9589 90.7282 27.5079 90.7733C26.6059 90.8635 25.7039 90.0968 25.4333 88.6536C25.1176 87.1202 25.9745 85.8574 27.1922 86.4396C27.3726 86.5298 27.5079 86.3945 27.5981 86.3043C29.357 84.5905 31.5669 81.4335 31.5669 77.96C33.9121 78.9981 39.5505 79.404 42.1212 78.5463C41.9408 75.1187 38.6485 69.842 31.3414 70.5636C23.1783 71.3795 20.7323 77.6033 20.6519 81.8886Z" fill="#191919"/>
<path d="M39.4152 80.4905C39.9885 80.3158 40.6008 80.3158 41.1741 80.4905C41.6251 80.6258 41.58 80.1748 41.2192 79.8591C40.9099 79.6956 40.5711 79.5954 40.2226 79.5645C39.8741 79.5335 39.523 79.5723 39.1897 79.6787C38.5132 79.9944 38.7452 80.7767 39.4152 80.4905Z" fill="#191919"/>
<path d="M22.1846 74.311C22.6935 73.1912 23.5911 72.2939 24.711 71.7854C23.7639 64.7489 13.9313 63.9371 10.9055 70.9301C7.87972 77.9231 13.9731 81.2621 15.2359 83.8295C16.4536 86.4002 17.1752 90.3698 16.3634 91.9475C15.5516 93.4809 16.5438 93.5711 17.6713 91.4555C18.5733 89.7417 20.1969 84.7315 18.889 80.5856C17.4942 76.2954 20.9669 73.9953 22.1846 74.311Z" fill="#191919"/>
<path d="M68.6861 110.168C62.9584 110.081 53.4866 109.852 48.3001 110.303C44.2402 110.664 43.248 111.927 42.3009 115.445C40.9479 120.587 38.7831 129.202 38.0615 134.118C32.6116 134.037 27.1612 134.248 21.7337 134.749C19.7042 135.02 19.5689 136.508 20.2003 137.139C20.516 137.455 20.9219 137.004 20.6923 136.688C20.6476 136.608 20.6192 136.52 20.6086 136.43C20.598 136.339 20.6055 136.247 20.6307 136.158C20.6558 136.07 20.6981 135.988 20.7551 135.917C20.8121 135.845 20.8828 135.785 20.9629 135.741C22.0904 134.975 35.7573 134.839 37.6966 134.839C38.4182 134.839 38.6437 134.749 38.8241 133.982C40.1771 127.623 41.9401 120.316 43.5596 114.318C44.0516 112.378 45.544 111.34 47.9352 111.16C53.9786 110.664 62.5033 110.935 68.9075 111.025C71.1633 111.07 72.5155 111.972 72.3359 114.498C72.1104 117.881 69.133 128.255 68.0506 132.088C67.7075 133.592 67.1772 135.046 66.4721 136.418C66.2015 136.869 66.878 137.366 67.1486 136.91C67.9588 135.215 68.6081 133.449 69.0879 131.633C70.5311 126.582 72.5614 119.275 73.1928 114.81C73.4716 111.746 71.7537 110.215 68.6861 110.168Z" fill="#191919"/>
<path d="M56.3729 120.993C56.1901 121.262 56.5082 121.669 56.8239 121.444C57.1409 121.185 57.5352 121.041 57.9441 121.033C58.3529 121.024 58.7527 121.153 59.0798 121.399C59.6661 121.94 59.8014 123.067 58.719 125.007C57.3651 127.488 55.516 127.849 54.701 126.857C53.7088 125.639 54.6559 123.158 55.603 122.165C55.8285 121.895 55.4226 121.489 55.193 121.714C53.2086 123.518 52.8478 126.18 53.9753 127.398C55.7793 129.382 58.3959 127.759 59.3873 125.639C59.9736 124.375 60.8756 122.661 60.0638 121.354C59.896 121.024 59.648 120.743 59.3428 120.535C59.0375 120.327 58.6848 120.199 58.3171 120.163C57.9494 120.127 57.5786 120.184 57.2388 120.329C56.8991 120.474 56.6013 120.702 56.3729 120.993Z" fill="#191919"/>
<path d="M61.7863 65.5616C62.8285 64.8924 61.4706 63.1253 60.3923 64.2077C59.4862 65.0655 60.9335 66.1085 61.7863 65.5616Z" fill="#191919"/>
<path d="M50.7815 66.3275C51.9574 66.7695 52.8561 65.4706 52.1345 64.7941C51.1423 63.847 49.4326 65.8207 50.7815 66.3275Z" fill="#191919"/>
<path d="M55.7874 66.0576C57.3667 66.5496 57.9522 64.5242 56.4188 64.1634C55.4266 63.9379 54.4803 65.6493 55.7874 66.0576Z" fill="#191919"/>
<path d="M115.684 74.0855C115.464 73.632 114.918 73.7698 114.963 74.1757C115.144 75.5697 117.939 75.7993 118.752 74.2659C120.194 71.4697 115.636 70.6579 115.054 72.4619C114.828 73.1384 115.414 73.0933 115.73 72.5972C116.135 71.9207 118.796 72.1872 118.075 73.8149C117.76 74.6267 116.054 74.8481 115.684 74.0855Z" fill="#71B6F6"/>
<path d="M107.972 64.6596C107.927 67.1401 110.542 68.0421 112.527 68.448C119.789 69.9363 123.081 66.0577 122.179 63.3509C122.174 63.3145 122.162 63.2795 122.142 63.2484C122.123 63.2172 122.097 63.1906 122.066 63.1704C122.035 63.1501 122.001 63.1366 121.964 63.1308C121.928 63.125 121.891 63.1271 121.856 63.1368C121.82 63.1466 121.787 63.1638 121.759 63.1873C121.731 63.2108 121.708 63.2401 121.692 63.2732C121.676 63.3063 121.667 63.3424 121.666 63.3792C121.666 63.4159 121.673 63.4524 121.687 63.4862C121.958 66.7793 118.123 67.9962 115.462 68.0421C113.388 68.0872 107.66 67.0048 108.878 63.847C109.103 63.3058 108.697 62.9901 108.386 63.3058C106.537 65.2459 103.74 64.7047 102.387 62.3587C100.944 59.8331 101.71 56.2702 104.867 56.6761C104.963 56.6816 105.058 56.6517 105.133 56.5922C105.208 56.5326 105.259 56.4474 105.276 56.3529C105.292 56.2583 105.274 56.1609 105.223 56.0792C105.173 55.9974 105.094 55.937 105.003 55.9094C102.342 54.827 101.887 50.677 105.093 48.7377C108.16 46.8886 110.731 47.9259 112.806 50.3613C113.166 50.8123 113.617 50.7221 113.663 49.8201C113.888 47.4749 116.865 46.1219 118.985 46.6631C119.548 46.8454 120.068 47.1379 120.517 47.5235C120.965 47.9091 121.332 48.3801 121.596 48.909C121.861 49.4379 122.017 50.0142 122.057 50.6042C122.096 51.1942 122.018 51.7862 121.826 52.3457C121.691 52.7557 122.097 52.8877 122.413 52.7975C125.209 52.0751 128.186 55.1427 128.456 57.8036C128.907 62.1332 125.029 62.2685 122.683 61.7724C122.232 61.6822 122.323 62.1824 122.683 62.3136C126.066 63.4411 129.584 61.8626 129.178 57.8036C128.907 54.827 125.795 51.579 122.638 52.0751C122.858 51.0887 122.792 50.0601 122.449 49.1097C122.105 48.1594 121.498 47.3264 120.699 46.7082C117.812 44.5885 113.527 46.4376 112.941 49.3691C112.029 48.2371 110.749 47.4597 109.324 47.1714C107.899 46.8831 106.418 47.1022 105.138 47.7906C102.071 49.3691 100.628 53.474 103.515 55.8192C101.395 56.3153 100.447 58.435 100.718 60.5998C101.386 64.4792 105.31 66.5087 107.972 64.6596Z" fill="#71B6F6"/>
<path d="M156.866 138.313C118.331 137.917 54.7621 137.165 6.31406 139.35C5.99836 139.35 6.04346 140.342 6.35916 140.342C52.9458 139.164 95.5284 138.259 156.911 139.621C157.315 139.621 157.269 138.317 156.866 138.313Z" fill="#71B6F6"/>
<path d="M52.3594 109.224C54.6144 109.224 59.035 109.224 62.0567 109.179C62.7173 106.099 63.1829 102.981 63.4507 99.8425C61.0604 100.158 56.5496 99.9327 54.5652 99.166C54.0978 102.572 53.3602 105.935 52.3594 109.224Z" fill="#71B6F6"/>
<path d="M18.9419 136.776C18.8132 136.219 18.8769 135.635 19.1226 135.119C19.3683 134.603 19.7815 134.186 20.2949 133.935C21.5126 133.348 34.007 133.258 36.9409 133.123C37.0762 132.401 37.4821 130.462 38.0684 127.936C30.6853 126.455 23.1817 125.655 15.6521 125.546C14.9756 125.546 15.2462 124.914 15.6521 124.914C16.7345 124.869 17.8169 124.869 18.8993 124.869C19.7334 121.57 20.976 118.389 22.5983 115.398C22.7787 115.082 23.1846 115.263 23.0493 115.578C21.6518 118.581 20.5343 121.706 19.7111 124.914C25.9499 125.152 32.1618 125.861 38.2939 127.034C39.2861 122.749 40.6391 117.247 41.9019 113.549C42.9843 110.256 44.6981 109.444 46.999 109.309C48.5015 109.243 50.0056 109.228 51.509 109.263C51.6894 108.722 51.8698 108.181 52.0502 107.505C49.8403 103.897 45.104 100.694 38.6547 100.198C36.4448 102.814 30.2653 102.544 26.8828 99.3406C24.8984 99.5661 18.3548 101.009 14.4344 105.43C8.93137 111.744 1.44476 126.223 5.05276 133.845C6.8502 137.726 16.9083 137.004 18.9419 136.776Z" fill="#71B6F6"/>
<path d="M81.0895 31.1478C81.2281 30.0203 80.4581 24.2918 79.8718 23.7506C79.8373 23.7144 79.7943 23.6874 79.7468 23.6719C79.6992 23.6564 79.6486 23.653 79.5994 23.662C79.5502 23.6709 79.504 23.6919 79.465 23.7232C79.4259 23.7544 79.3952 23.7948 79.3757 23.8408C79.1953 24.2467 80.2777 30.4254 80.413 31.1478C80.4304 31.2245 80.4734 31.293 80.5348 31.3421C80.5963 31.3912 80.6726 31.4179 80.7512 31.4179C80.8299 31.4179 80.9062 31.3912 80.9677 31.3421C81.0291 31.293 81.0721 31.2245 81.0895 31.1478Z" fill="#71B6F6"/>
<path d="M87.4502 54.1496C87.4836 54.0815 87.4987 54.0059 87.4941 53.9303C87.4896 53.8546 87.4655 53.7813 87.4242 53.7177C87.3829 53.6541 87.3258 53.6023 87.2585 53.5674C87.1912 53.5324 87.116 53.5155 87.0402 53.5182C86.2735 53.5182 85.2362 55.0074 81.447 54.4653C81.037 54.4202 80.7705 55.0074 81.1764 55.1878C83.5716 56.0881 87.0845 55.0057 87.4502 54.1496Z" fill="#71B6F6"/>
<path d="M92.0501 46.2121C93.676 47.1564 95.3815 47.9562 97.1472 48.6024C97.2248 48.6144 97.3042 48.6015 97.374 48.5654C97.4438 48.5294 97.5003 48.4721 97.5354 48.4019C97.5705 48.3316 97.5824 48.2521 97.5694 48.1746C97.5564 48.0972 97.5191 48.0259 97.4629 47.971C95.8436 47.0264 94.1366 46.241 92.3658 45.6258C92.288 45.5839 92.1969 45.5747 92.1123 45.6C92.0277 45.6254 91.9567 45.6833 91.9148 45.7611C91.8729 45.8388 91.8637 45.93 91.889 46.0146C91.9144 46.0992 91.9723 46.1702 92.0501 46.2121Z" fill="#71B6F6"/>
<path d="M83.4362 56.1799C83.3437 56.1603 83.2472 56.1758 83.1655 56.2236C83.0839 56.2713 83.023 56.3478 82.9948 56.4381C82.9666 56.5283 82.9731 56.6259 83.013 56.7116C83.053 56.7973 83.1234 56.865 83.2107 56.9015C84.3382 57.5329 86.3267 56.8113 85.5559 56.1348C85.1983 55.8191 84.6522 56.4161 83.4362 56.1799Z" fill="#71B6F6"/>
<path d="M91.0583 35.6128C91.7315 35.334 95.3436 31.1028 95.9299 30.291C96.1554 29.9753 95.6593 29.6596 95.3887 29.8851C93.8949 31.3265 92.4794 32.8471 91.1485 34.4402C90.2916 35.3873 90.741 35.744 91.0583 35.6128Z" fill="#71B6F6"/>
<path d="M79.6919 49.8651C79.7284 49.9457 79.7921 50.011 79.8718 50.0495C79.9515 50.088 80.0421 50.0974 80.128 50.0759C80.2139 50.0545 80.2895 50.0035 80.3417 49.932C80.3938 49.8605 80.4193 49.773 80.4135 49.6847C80.0978 47.7003 78.2938 46.5687 77.2975 44.9492C75.2229 41.5659 77.974 37.6873 81.4918 36.7853C84.3791 36.0186 87.6263 37.0559 88.393 40.5286C89.0695 43.506 87.7165 45.6708 86.7694 48.3768C86.589 48.9631 87.1794 49.1435 87.4459 48.6023C88.6636 46.3063 89.8362 43.5511 89.4754 40.9345C88.844 36.7402 85.3262 34.8911 81.4016 35.8382C77.974 36.6951 75.0425 39.6717 75.6288 43.4158C76.129 46.4826 78.817 47.3296 79.6919 49.8651Z" fill="#71B6F6"/>
<path d="M80.688 53.2927C81.7258 53.6618 82.8343 53.7887 83.9286 53.6636C85.023 53.5385 86.0742 53.1648 87.002 52.5711C87.4079 52.2554 87.2275 51.5789 86.6412 51.8044C84.2509 52.6613 83.3038 52.8868 80.9578 52.5711C80.5486 52.526 80.278 53.1164 80.688 53.2927Z" fill="#71B6F6"/>
<path d="M68.2805 50.0004C67.9665 50.4104 68.2805 50.9475 69.1825 50.3161C70.4354 49.5364 71.6268 48.6619 72.7462 47.7003C72.8062 47.6479 72.845 47.5755 72.8555 47.4966C72.866 47.4177 72.8475 47.3377 72.8033 47.2714C72.7591 47.2052 72.6924 47.1573 72.6155 47.1366C72.5386 47.1159 72.4569 47.124 72.3854 47.1591C70.936 47.9832 69.5623 48.934 68.2805 50.0004Z" fill="#71B6F6"/>
<path d="M71.6681 37.9579C71.7426 37.9773 71.8215 37.9699 71.8911 37.937C71.9607 37.9041 72.0165 37.8478 72.0488 37.7779C72.081 37.7081 72.0877 37.6291 72.0676 37.5548C72.0474 37.4805 72.0018 37.4156 71.9387 37.3716C70.1348 36.2018 68.2507 35.1606 66.3004 34.2556C66.2193 34.2302 66.1319 34.2344 66.0537 34.2676C65.9755 34.3009 65.9117 34.3608 65.8737 34.4368C65.8357 34.5128 65.826 34.5999 65.8463 34.6823C65.8667 34.7648 65.9157 34.8374 65.9847 34.887C67.8042 36.0437 69.7034 37.0699 71.6681 37.9579Z" fill="#71B6F6"/>
<path d="M80.6877 51.5781C82.185 52.048 85.9652 51.3075 86.777 50.6761C87.3182 50.2251 86.8221 49.5937 86.1456 49.8643C84.4624 50.5034 82.6671 50.7949 80.8681 50.7212C80.0522 50.6761 79.921 51.3403 80.6877 51.5781Z" fill="#71B6F6"/>
<path d="M84.338 48.9631C84.2802 46.5863 84.492 44.2106 84.9694 41.8816C84.9807 41.8064 84.9632 41.7298 84.9205 41.6669C84.8778 41.6041 84.8129 41.5597 84.7389 41.5426C84.6648 41.5256 84.5871 41.537 84.5211 41.5748C84.4552 41.6125 84.4059 41.6738 84.3831 41.7463C83.7897 44.1026 83.5766 46.5387 83.7517 48.9623C83.7495 49.0021 83.7555 49.0419 83.7692 49.0793C83.783 49.1167 83.8042 49.1509 83.8316 49.1799C83.8589 49.2089 83.8919 49.2319 83.9285 49.2477C83.9651 49.2635 84.0046 49.2717 84.0444 49.2717C84.0843 49.2718 84.1237 49.2637 84.1604 49.248C84.197 49.2324 84.2301 49.2094 84.2575 49.1805C84.285 49.1516 84.3063 49.1174 84.3201 49.0801C84.334 49.0427 84.3401 49.0029 84.338 48.9631Z" fill="#71B6F6"/>
<path d="M83.2554 41.4765C82.0632 41.7948 80.8354 41.9601 79.6015 41.9685C79.5334 41.969 79.4667 41.9878 79.4084 42.0229C79.3501 42.058 79.3023 42.1082 79.27 42.1681C79.2377 42.2281 79.2221 42.2956 79.2249 42.3636C79.2277 42.4316 79.2487 42.4977 79.2858 42.5548C80.2104 44.645 81.0236 46.7827 81.722 48.959C81.8573 49.369 82.2632 49.2747 82.173 48.8688C81.7515 46.7396 81.0853 44.6663 80.1878 42.6901C81.3099 42.6371 82.4188 42.4245 83.4809 42.0587C83.5495 42.023 83.6026 41.9633 83.6299 41.8909C83.6572 41.8186 83.6569 41.7387 83.6289 41.6666C83.601 41.5945 83.5474 41.5352 83.4785 41.5001C83.4096 41.465 83.3301 41.4566 83.2554 41.4765Z" fill="#71B6F6"/>
<path d="M50.5552 72.9129C50.6666 75.0704 50.3271 77.2274 49.5584 79.2464C48.7896 81.2653 47.6085 83.1019 46.0903 84.6389C45.2334 85.4958 45.955 85.6762 46.8119 85.3605C50.8709 83.782 54.5199 79.1367 55.5613 74.9867C55.7417 74.2651 55.1103 74.3102 55.0201 74.7612C54.4665 76.8014 53.5005 78.7066 52.1818 80.359C50.8631 82.0113 49.2197 83.3759 47.3531 84.3683C50.1141 81.261 51.5555 77.2 51.3711 73.0474C51.326 72.3709 51.2358 72.3258 50.424 72.1905C43.4778 71.1081 40.9071 61.1402 51.8672 57.1263C61.6547 53.5625 69.1872 60.1931 67.4726 66.8687C66.2098 71.8748 60.888 72.6415 56.5125 72.6415C55.9262 72.6415 55.9713 73.3631 56.5576 73.3631C61.0676 73.4533 66.2098 72.8219 67.8785 68.3119C71.4865 58.7048 61.3841 53.4699 52.8594 55.8635C39.0539 59.8331 42.5266 72.5972 50.5552 72.9129Z" fill="#71B6F6"/>
</svg>
