<svg xmlns="http://www.w3.org/2000/svg" fill="none" viewBox="0 0 164 164"><path fill="#191919" d="M130.614 92.488a3.56 3.56 0 0 0 3.067-2.12c.225-.767-.586-1.038-.858-.181a3.06 3.06 0 0 1-2.434 1.715c-.181.045-.541.6.225.586m1.353-6.495c-.266-.994-1.624-.09-.812.857.226.27 1.088.178.812-.857m-1.939-4.195c-.632.178-.632.902.179.902a6 6 0 0 1 2.662.41.27.27 0 0 0 .27-.45 3.86 3.86 0 0 0-3.111-.862m-2.436 2.252a2.7 2.7 0 0 0-1.984-.27c-.41.135-.361.586.045.631a4 4 0 0 1 1.533.36c.541.23.673-.489.406-.72m.721 3.115a13.5 13.5 0 0 0-.045 3.023c.181 1.172 2.841.315 2.436-.316-.225-.36-1.127.41-1.715.135a14 14 0 0 1-.179-2.842.247.247 0 0 0-.249-.248.247.247 0 0 0-.248.248m-.902.315c.675-.41.046-1.804-.54-1.353-.452.27-.274 1.846.54 1.353m-4.555 3.654c.631 2.075 2.164 4.78 3.923 6.043.812.587 1.218 0 .41-.766a12.6 12.6 0 0 1-3.788-5.503.296.296 0 0 0-.546 0 .3.3 0 0 0 .001.226m14.658 2.165c.22-.186.045-.541-.226-.41-2.526 1.082-4.284 5.006-3.067 7.803.181.361.677.225.587-.181-.677-3.469.214-5.111 2.706-7.212m-15.064.857a8.8 8.8 0 0 0 4.465 5.231c.586.27 1.172-.18.27-.766a10.07 10.07 0 0 1-4.194-4.646c-.225-.36-.641-.223-.541.18"/><path fill="#191919" d="M124.389 91.045a10.2 10.2 0 0 0 4.826 4.78c2.931 1.308 3.519-.721 6.044-2.39.271-.18.135-.541-.181-.451-2.255.541-2.481 3.518-5.638 1.984a12.46 12.46 0 0 1-4.51-4.284.325.325 0 0 0-.428-.057.33.33 0 0 0-.113.418m3.924 11.865c.226.36.813.045.632-.316-.857-2.3-4.285-2.797-5.503-4.826-.225-.36-.631 0-.492.36 1.259 2.388 3.834 2.34 5.363 4.782"/><path fill="#191919" d="M124.074 84.008a26.8 26.8 0 0 0 1.308 6.496c.09.315.676.18.586-.18a26 26 0 0 1-1.128-9.43 2.45 2.45 0 0 0 3.202-1.67c1.219 1.804 4.827 1.624 5.954 0-.315 2.48 2.571 6.856 3.157 6.044.271-.41.542-.857 1.038-.992 1.849-.587 2.165 2.931 1.037 3.427-.492.226-1.488-.41-.902 1.173a59 59 0 0 1 1.984 6.314c.091.406.587.225.587-.18a35 35 0 0 0-1.804-6.406 1.87 1.87 0 0 0 1.623-1.668 3.362 3.362 0 0 0 1.264-5.503c2.435-2.435 1.984-6.45-1.76-6.405a3.84 3.84 0 0 0-1.266-4.149 3.84 3.84 0 0 0-4.327-.315c-1.353-3.653-6.9-2.571-7.036.676-3.517-2.886-8.073 1.624-5.367 5.096-3.066.05-3.337 7.357 1.85 7.672m6.179 21.424a1.99 1.99 0 0 0 3.472-1.353q1.12-.437 2.165-1.037a4.4 4.4 0 0 0-.676-1.714c-.703.182-1.383.439-2.03.767a1.95 1.95 0 0 0-2.232-.594 1.96 1.96 0 0 0-1.242 1.947 18 18 0 0 0-1.127.722c-.022.623.15 1.237.492 1.759.365-.136.813-.313 1.178-.497m.405-1.984c.142-1.578 2.214-1.398 2.03.586-.135 1.624-2.201 1.309-2.03-.586m-10.282 17.229c-.135-2.255-.225-7.578.361-9.562.09-.361.541-.451.492.316a78 78 0 0 0 .09 9.201c3.406-.11 6.815.056 10.194.496-1.444-3.788-3.474-15.56-3.699-17.094-.226-1.533-3.293-2.571-4.92-4.15-3.789 1.353-9.066 5.594-13.17 11.366a66 66 0 0 1 3.698 10.194 63 63 0 0 1 6.954-.767m21.242-24.671c-1.849 1.939-3.427 2.886-6.223 2.931.586 4.018 4.104 9.878 7.171 14.163.48-1.019.828-2.096 1.037-3.203.091-.631.492-.406.492-.045a13.2 13.2 0 0 1-.902 4.15c3.699 5.051 8.528 9.922 10.332 16.057 2.029-2.571 9.968-16.646 4.465-25.98-3.246-5.638-10.327-8.524-16.372-8.073"/><path fill="#191919" d="M148.249 136.776c3.203.045 4.69.045 7.396.045 1.399-3.472 2.843-10.283 3.339-15.921-2.888 9.339-7.262 13.759-10.735 15.876m-12.314-2.794a89 89 0 0 0-15.064 2.752c2.932-.046 13.486-.136 17.184-.046a5.95 5.95 0 0 1-2.12-2.706m-.717-1.127c.542-.082.451-.902-.09-.812-13.047 1.831-15.214 3.394-20.793 3.879-.766.045-1.394.857-.36.857 3.338 0 8.84-1.714 12.448-2.391 3.154-.631 5.639-1.045 8.795-1.533m-20.165-10.825c-1.986.397-1.489 1.037-.767.857 5.142-1.082 12.088-.857 17.23 0 .496.09.721-.677.225-.767-5.097-.857-11.596-1.106-16.688-.09m31.753-1.173c.224.183.676-.09.492-.41a109 109 0 0 1-11.321-16.281c-.18-.316-.722 0-.586.315 1.718 3.431 8.46 13.968 11.415 16.376"/><path fill="#191919" d="M152.398 130.419c.181-.451-.41-.811-.631-.41-1.353 2.391-2.977 4.781-5.593 5.954-2.66 1.217-5.593.857-7.532-1.444-4.194-4.961-7.261-20.746-8.39-27.918-.09-.451-.721-.271-.631.18.947 6.855 4.018 23.003 8.48 28.28 3.417 4.072 10.628 3.065 14.297-4.642M85.15 112.422c.315-.179.09-.541-.271-.492-1.624.316-2.706.767-3.203 2.391a9.4 9.4 0 0 0-.36 4.6c.09.41.676.316.72-.09.046-1.759-.225-2.119.361-4.059.497-1.808 1.312-1.53 2.752-2.35m.587-6.899c-.05.978-.02 1.958.09 2.931.045.361.677.316.722 0q.03-1.47-.136-2.931c-.046-.317-.669-.317-.676 0"/><path fill="#191919" d="M89.164 105.162c1.204-.656 3.116-1.939 3.923-3.519.226-.451.182-.586-.135-.992a5.4 5.4 0 0 0-1.394-1.127c-.54-.271-.586-.09-.991.18-2.662 1.849-6.724 1.488-9.518.045-.226-.135-.857.226-.27.541 3.473 1.76 7.215 2.076 10.418-.18.516.327.987.721 1.4 1.172a10.66 10.66 0 0 1-4.196 3.519c-.631-.767-1.263-1.488-1.894-2.255-.952-1.057-1.343.846-2.887 2.39a30.3 30.3 0 0 1-4.465-2.706c.45-.451.857-.902 1.308-1.353.27-.226-.09-.677-.41-.492a8.4 8.4 0 0 0-1.308 1.172.93.93 0 0 0 .09 1.312c.722.677 4.375 3.022 4.962 2.751.992-.492 1.533-1.804 2.21-2.616.631.632 1.488 1.895 1.984 2.391.316.353.854-.059 1.173-.233"/><path fill="#191919" d="M93.945 87.03a7.3 7.3 0 0 0 .18-2.12c-.091-.766-.812-.811-.768.045.09 1.128-.314 2.436-.18 2.706.317.768 1.444-.492 1.984.317.767 1.263-.902 3.653-1.939 3.022-.27-.18-.492-.046-.676.54a11.2 11.2 0 0 1-1.083 2.256c-2.435 3.563-7.351 4.465-10.057 1.394a9.1 9.1 0 0 1-1.804-4.24.585.585 0 0 0-.902-.45c-.947.721-1.804-.361-1.894-1.714-.136-1.85.992-1.986 1.804-1.354a.31.31 0 0 0 .496-.316c-.045-.41-.27-2.706-.27-3.202-.046-.451-.587-.27-.587.135.045.812.09 1.669.18 2.436a1.698 1.698 0 0 0-2.435 1.394c-.36 2.436 1.353 4.33 2.931 3.428.451 1.984 1.218 4.014 2.888 5.232-.091.811-.136 1.623-.226 2.435-.045.722.451.812.632.451q.182-1.234.225-2.48a7 7 0 0 0 7.08-.361c.046.812 0 1.668.091 2.48a.365.365 0 1 0 .722-.09c-.136-1.353-.046-2.21-.09-2.886a8.37 8.37 0 0 0 2.841-4.24 1.83 1.83 0 0 0 1.579-.36c2.119-1.436 1.938-5.27-.722-4.458"/><path fill="#191919" d="M82.715 83.061a3.23 3.23 0 0 0-2.436 1.037c-.271.271-.09.857.45.587a3.9 3.9 0 0 1 1.986-.722c.812-.09.68-.853 0-.902m10.959 28.28a6.3 6.3 0 0 0-3.744-5.052c-.492-.18-.54.316-.18.492 2.3 1.218 3.202 3.563 3.293 6.045.09 2.029-.858 5.186 1.533 6.314.41.18.722-.492.316-.677-2.03-.943-.741-4.052-1.218-7.122M83.3 107.056c.22-.275-.045-.631-.36-.41a12 12 0 0 0-3.699 5.683c-.316 1.173-.225 2.391-.496 3.518-.316 1.308-1.443 1.804-2.48 2.526-.361.225-.046.857.36.676a5.46 5.46 0 0 0 2.48-2.029c.948-1.624 0-3.653 1.94-7.037a25 25 0 0 1 2.255-2.927"/><path fill="#191919" d="M80.594 116.844c.155-1.394.045-2.843.812-4.105a4.43 4.43 0 0 1 3.067-1.94c.542-.09.492-.631 0-.631a4.55 4.55 0 0 0-3.608 1.984 7.5 7.5 0 0 0-.857 4.646c0 .316.546.406.586.046m5.506-.404c-.164 1.175.09 18.627.136 19.574 0 .496.811.451.811-.045 0-5.002-.225-14.027-.315-19.484-.049-.273-.585-.408-.632-.045m4.822 8.296a3.33 3.33 0 0 1-2.074-2.39c-.496-2.391 1.984-4.691.721-7.171a2.36 2.36 0 0 0-2.526-1.312.25.25 0 0 0-.175.073.246.246 0 0 0 0 .35c.046.047.11.073.175.073a2.165 2.165 0 0 1 2.075 2.346c0 1.308-.721 2.526-.992 3.788a4.125 4.125 0 0 0 2.526 4.961c.496.229.765-.531.27-.718m-15.018-5.277c-.048-.36 0-1.578-.632-1.394a9.7 9.7 0 0 0-1.624.451c-.721.316-1.082 1.128-.09.857.451-.135.947-.27 1.394-.41a13.56 13.56 0 0 0 3.338 7.894 53.4 53.4 0 0 1-8.528 5.953c-.857.496-.632 1.263.09.857a43.5 43.5 0 0 0 9.066-6.314c.135-.136.316-.316.135-.587-1.616-2.526-2.763-4.373-3.15-7.307m38.383 10.058c-.499-4.735-3.879-13.981-5.773-18.086-2.887-6.179-7.442-8.434-13.846-9.833a.32.32 0 0 0-.385.248.324.324 0 0 0 .249.384c5.548 1.94 9.652 2.661 12.674 8.389 2.165 4.105 6.946 16.689 6.269 21.514-.541 3.744-2.525 3.563-5.141 3.744-4.691.315-12.72-5.954-16.058-9.02 2.255-1.58 3.7-5.188 4.105-7.713a49 49 0 0 1 10.332 4.149c.452.225.813-.361.362-.586a47 47 0 0 0-6.495-3.022 6.45 6.45 0 0 0-1.353-2.932c-.36-.315-.541.091-.406.316a8.7 8.7 0 0 1 .992 2.3 20 20 0 0 0-3.292-.947c-.857-.135-.857 0-.992.722-1.49 7.171-4.872 6.99-3.925 8.028 3.338 3.744 11.366 9.381 16.599 9.471 4.911.133 6.622-2.028 6.084-7.126"/><path fill="#191919" d="M91.373 115.175a3.4 3.4 0 0 0-2.296-2.932 10.3 10.3 0 0 0-2.345-.181c-.361 0-.361.451-.045.542 1.308.361 2.39-.136 3.338 1.218 1.037 1.443.45 2.841.63 3.698a.37.37 0 0 0 .325.243.36.36 0 0 0 .205-.047.37.37 0 0 0 .147-.151 6.9 6.9 0 0 0 .041-2.39m-5.818-1.579a3.8 3.8 0 0 0-2.346 2.12c-1.894 3.969 3.293 6.9-4.194 9.652a.372.372 0 0 0 .18.722 7.9 7.9 0 0 0 3.248-1.625c4.195-3.517-1.805-6.9 3.338-10.373.27-.225.136-.581-.226-.496m-3.924-26.521c.58.504 1.312-1.082.542-1.488-.677-.361-.952 1.132-.542 1.488"/><path fill="#191919" d="M90.742 111.972c1.162 1.096 1.083 2.706 1.128 4.195 0 .361.54.316.631 0 .226-1.623.045-3.564-1.218-4.781-1.353-1.263-3.427-1.443-5.141-1.173a.3.3 0 0 0-.112.029.28.28 0 0 0-.148.293.27.27 0 0 0 .126.188.27.27 0 0 0 .224.031c1.534 0 3.28.059 4.51 1.218M75.317 85.948c.405.361.857-.271.496-.632-2.616-2.616-2.616-6.585-.812-9.652 5.187-8.93 20.612-7.126 23.815 2.075a7.19 7.19 0 0 1-2.48 8.344c-.272.225-.046.721.315.541 3.608-1.804 4.239-6.54 2.75-9.922-4.419-10.058-21.604-10.6-25.798 0-1.263 3.112-.86 6.95 1.714 9.246"/><path fill="#191919" d="M76.715 83.242c2.748.306 6.135-1.624 7.487-3.97a.307.307 0 0 0-.496-.36c-2.03 2.48-3.879 3.292-6.99 3.653a.342.342 0 0 0 0 .677m8.659 6.946c.316-.225.315-.541 0-.677-.226-.09-1.444.226-1.534 0-.18-.45.496-2.39.632-3.338.09-.676-.226-.676-.541-.135s-1.312 3.293-.858 4.105c.452.676 1.851.362 2.3.045m-18.266 18.898c2.747-3.837 5.774-5.413 10.284-6.811.451-.135.316-.856-.135-.721-5.187 1.533-7.849 2.976-11.006 7.351-.45.541.406.811.857.181M95.12 83.648a.301.301 0 0 0-.045-.587c-2.797-.045-6.18-.45-8.299-2.48-1.984-1.895-2.977-5.188-3.116-7.849-.045-.45-.721-.492-.676-.045.045 2.797 1.312 6.45 3.337 8.39s6.04 2.994 8.8 2.57m-10.964 9.112c1.462.776 3.292.315 3.788-1.083.09-.316-.27-.586-.495-.316-1.312 1.534-2.436.902-3.117.948-.356-.046-.443.309-.176.45m5.818-7.622c-.34-.984-2.255-2.075-3.157-1.76-.36.136-.496.858 0 .948a5.13 5.13 0 0 1 2.706 1.218c.226.18.578-.042.451-.406M87.09 87.39c.858-.17.81-1.758.134-1.578-.632.136-.856 1.722-.135 1.579m24.897-28.505q.677-.2 1.353-.41c-.27 1.127-.586 2.255-.857 3.383-.451 1.623.181 1.758.542 1.172 1.127-1.759 2.3-3.563 3.517-5.277 1.67-2.39 2.075-2.164-.992-2.074.541-1.038 1.083-2.076 1.579-3.116s-2.842.135-3.157.406a.3.3 0 0 0-.109.392.305.305 0 0 0 .379.149c.361-.09 1.128-.451 1.985-.632l-1.489 2.978c-.09.225 0 .496.271.496.586 0 1.218-.045 1.804-.045-1.127 1.624-2.255 3.292-3.382 4.916l.947-3.247a.38.38 0 0 0-.451-.496c-.451.135-.947.315-1.394.45.27-1.307.631-2.615.947-3.97.09-.36-.451-.45-.587-.134a34 34 0 0 0-1.262 4.51c-.14.278.041.64.356.549M57.501 92.988c.226.18.587 0 .452-.27-.317-.903-.587-1.805.09-2.752a2.55 2.55 0 0 1 2.435-.993.342.342 0 0 0 .18-.631c-1.262-.586-3.743.496-3.743 2.887a2.22 2.22 0 0 0 .586 1.76m-1.714 5.317a.384.384 0 0 0 .767 0 6.6 6.6 0 0 0-.18-2.48c-.451-1.58-1.94-2.165-1.895-3.744.046-.947.226-1.894.271-2.796a.295.295 0 0 0-.586-.045c-.18.902-.361 1.804-.451 2.706-.18 1.984 1.172 2.525 1.713 3.788.365.805.49 1.697.361 2.57m.496-16.822.676 6.63c.045.27.542.27.587-.046.225-1.668-.361-4.96-.722-6.724-.045-.266-.586-.176-.541.14m4.556 12.177c.175.364.631.09.541-.225-.135-.767-.451-1.669 1.037-1.669 1.218 0 1.394 1.083 1.353 2.075-.09 1.849-1.668 3.428-1.668 5.096a.39.39 0 0 0 .766.09c.451-1.849.632-1.668 1.263-3.202a4.9 4.9 0 0 0 .226-3.653c-.902-2.03-4.953-1.47-3.518 1.489"/><path fill="#191919" d="M58.81 91.315c-.087.669.04 1.347.36 1.94a.275.275 0 0 0 .493-.226c-.18-.947-.361-2.075.541-2.57a2.79 2.79 0 0 1 2.66-.136c.317.18.587-.316.362-.541-.763-.947-4.145-.586-4.416 1.533m-20.387-7.577c-.271.045-.542.09-.767.135-.406-1.263-1.624-2.57-3.112-2.03-1.578.587-1.624 2.3-1.533 3.067-1.312.136-2.662.316-3.97.451a.32.32 0 0 0 .045.632c1.353-.09 2.706-.18 4.06-.226.794 4.058 5.378 2.957 4.735-1.082.226-.045.451-.045.632-.09.5 3.51 4.581 3.618 4.194-.541.36 0 1.128-.18.767-.722-.18-.27-.586-.09-.857-.045-.722-2.977-4.06-2.616-4.194.45m-4.69 1.533c-.136-1.037.09-2.12.766-2.525 1.127-.722 2.255.406 2.616 1.849.746 3.453-2.945 4.184-3.383.676m7.35 1.173c-1.656.574-2.769-3.19-1.307-4.285 1.94-1.52 3.211 3.621 1.306 4.285z"/><path fill="#191919" d="M38.513 88.835c-1.037.09-.947.541-.27.631.45.045 1.172-.045 1.394-.45.36-.632-.136-1.67-.767-2.257-.451-.45-.677-.045-.492.18.408.632 1.398 1.67.135 1.896"/><path fill="#191919" d="M41.806 87.616c-.043-.45-.492-.45-.492 0 .09 3.068-.226 7.984-4.6 8.345-1.715.135-3.564-.677-5.053-1.534-.27-.18-.631.27-.315.496a9.4 9.4 0 0 0 5.097 1.76c.09.72.27 1.487.36 2.21.226 1.397.767.72.677.27a43 43 0 0 0-.36-2.526c4.235-.676 5.02-5.504 4.686-9.02"/><path fill="#191919" d="M35.626 92.894a1.97 1.97 0 0 0 2.706-1.128c.316-.676.136-.812-.45-.812a3.77 3.77 0 0 1-3.068-1.217c-.743-.62-.925 2.495.812 3.157m2.165-1.263c-.721 1.394-2.887.722-2.931-.902a4.9 4.9 0 0 0 2.931.902m-2.299-6.495c-.094.27.044.992.496.902.36-.045.36-.541.226-.857-.18-.451-.55-.544-.722-.045m5.006-.812c-.097.314.045 1.127.492.947.225-.09.315-.316.27-.722-.086-.499-.593-.77-.762-.225m-7.849-1.849a4.3 4.3 0 0 1 2.661-1.443.457.457 0 0 0-.045-.902 3.7 3.7 0 0 0-2.752 1.263c-.992 1.082-.142 1.39.136 1.082"/><path fill="#191919" d="M20.652 81.889a7.39 7.39 0 0 0 3.88 6.9c.225 1.308 1.082 2.842 2.705 2.842.485 2.41.802 4.852.947 7.306a.32.32 0 0 0 .316.34.316.316 0 0 0 .316-.34 39.4 39.4 0 0 0-.767-6.99c-.09-.406-.09-1.219-.541-1.174-.902.09-1.804-.676-2.075-2.12-.315-1.533.541-2.796 1.76-2.213.18.09.315-.046.405-.136 1.759-1.713 3.969-4.87 3.969-8.344 2.345 1.038 7.983 1.444 10.554.586-.18-3.427-3.473-8.704-10.78-7.982-8.163.816-10.609 7.04-10.69 11.325"/><path fill="#191919" d="M39.415 80.49a3 3 0 0 1 1.76 0c.45.136.405-.315.044-.63a2.63 2.63 0 0 0-2.03-.181c-.676.315-.444 1.098.226.811m-17.23-6.179a5.08 5.08 0 0 1 2.526-2.526c-.947-7.036-10.78-7.848-13.805-.855s3.067 10.332 4.33 12.9c1.218 2.57 1.94 6.54 1.127 8.118-.811 1.533.18 1.623 1.308-.492.902-1.714 2.526-6.725 1.218-10.87-1.395-4.29 2.078-6.59 3.296-6.275m46.501 35.857c-5.728-.087-15.2-.316-20.386.135-4.06.361-5.052 1.624-6 5.142-1.352 5.142-3.517 13.757-4.238 18.673-5.45-.081-10.9.13-16.328.631-2.03.271-2.165 1.759-1.534 2.39.316.316.722-.135.492-.451a.697.697 0 0 1 .27-.947c1.128-.766 14.795-.902 16.735-.902.721 0 .947-.09 1.127-.857a397 397 0 0 1 4.736-19.664c.492-1.94 1.984-2.978 4.375-3.158 6.044-.496 14.568-.225 20.972-.135 2.256.045 3.609.947 3.429 3.473-.226 3.383-3.203 13.757-4.285 17.59a18.5 18.5 0 0 1-1.579 4.33c-.27.451.406.948.677.492a30 30 0 0 0 1.939-5.277c1.443-5.051 3.473-12.358 4.105-16.823.279-3.064-1.44-4.595-4.507-4.642"/><path fill="#191919" d="M56.373 120.993c-.183.269.135.676.45.451a1.83 1.83 0 0 1 1.121-.411c.409-.009.809.12 1.136.366.586.541.721 1.668-.361 3.608-1.354 2.481-3.203 2.842-4.018 1.85-.992-1.218-.045-3.699.902-4.692.225-.27-.18-.676-.41-.451-1.984 1.804-2.345 4.466-1.218 5.684 1.804 1.984 4.42.361 5.412-1.759.587-1.264 1.489-2.978.677-4.285a2.2 2.2 0 0 0-1.747-1.191 2.2 2.2 0 0 0-1.944.83m5.413-55.431c1.042-.67-.315-2.437-1.394-1.354-.906.858.541 1.9 1.394 1.354m-11.004.766c1.175.441 2.074-.857 1.353-1.534-.993-.947-2.702 1.027-1.353 1.534m5.005-.27c1.58.492 2.165-1.534.632-1.895-.992-.225-1.939 1.486-.632 1.895"/><path fill="#71b6f6" d="M115.684 74.086c-.22-.454-.766-.316-.721.09.181 1.394 2.976 1.623 3.789.09 1.442-2.796-3.116-3.608-3.698-1.804-.226.676.36.631.676.135.405-.676 3.066-.41 2.345 1.218-.315.812-2.021 1.033-2.391.27m-7.712-9.425c-.045 2.48 2.57 3.382 4.555 3.788 7.262 1.488 10.554-2.39 9.652-5.097a.25.25 0 0 0-.113-.18.257.257 0 0 0-.379.315c.271 3.293-3.564 4.51-6.225 4.556-2.074.045-7.802-1.037-6.584-4.195.225-.541-.181-.857-.492-.541-1.849 1.94-4.646 1.399-5.999-.947-1.443-2.526-.677-6.089 2.48-5.683a.392.392 0 0 0 .136-.767c-2.661-1.082-3.116-5.232.09-7.171 3.067-1.85 5.638-.812 7.713 1.623.36.451.811.361.857-.54.225-2.346 3.202-3.7 5.322-3.158a4.46 4.46 0 0 1 3.072 3.941 4.5 4.5 0 0 1-.231 1.742c-.135.41.271.542.587.452 2.796-.723 5.773 2.345 6.043 5.006.451 4.33-3.427 4.465-5.773 3.968-.451-.09-.36.41 0 .542 3.383 1.127 6.901-.451 6.495-4.51-.271-2.977-3.383-6.225-6.54-5.729a5.32 5.32 0 0 0-1.939-5.367c-2.887-2.12-7.172-.27-7.758 2.661a6.23 6.23 0 0 0-7.803-1.578c-3.067 1.578-4.51 5.683-1.623 8.028-2.12.496-3.068 2.616-2.797 4.78.668 3.88 4.592 5.91 7.254 4.06m48.894 73.654c-38.535-.396-102.104-1.148-150.552 1.037-.316 0-.27.992.045.992 46.587-1.178 89.17-2.083 150.552-.721.404 0 .358-1.304-.045-1.308M52.36 109.224c2.254 0 6.675 0 9.697-.045a75 75 0 0 0 1.394-9.336c-2.39.315-6.901.09-8.886-.677a65 65 0 0 1-2.206 10.058m-33.417 27.552a2.53 2.53 0 0 1 1.353-2.841c1.218-.587 13.712-.677 16.646-.812.135-.722.541-2.661 1.127-5.187a123 123 0 0 0-22.416-2.39c-.676 0-.406-.632 0-.632 1.083-.045 2.165-.045 3.247-.045a41 41 0 0 1 3.7-9.471c.18-.316.586-.135.45.18a54 54 0 0 0-3.338 9.336c6.239.238 12.45.947 18.583 2.12.992-4.285 2.345-9.787 3.608-13.485 1.082-3.293 2.796-4.105 5.097-4.24a67 67 0 0 1 4.51-.046c.18-.541.36-1.082.541-1.758-2.21-3.608-6.946-6.811-13.395-7.307-2.21 2.616-8.39 2.346-11.772-.857-1.985.225-8.528 1.668-12.449 6.089-5.503 6.314-12.99 20.793-9.381 28.415 1.797 3.881 11.855 3.159 13.889 2.931M81.09 31.148c.138-1.128-.632-6.856-1.218-7.397a.302.302 0 0 0-.496.09c-.18.406.902 6.584 1.037 7.307a.347.347 0 0 0 .677 0m6.36 23.002a.438.438 0 0 0-.41-.632c-.767 0-1.804 1.49-5.593.947-.41-.045-.677.542-.27.723 2.395.9 5.907-.182 6.273-1.038m4.6-7.938a32 32 0 0 0 5.097 2.39.37.37 0 0 0 .316-.631 29 29 0 0 0-5.097-2.345.333.333 0 0 0-.316.586m-8.614 9.968a.38.38 0 0 0-.225.721c1.127.632 3.116-.09 2.345-.766-.358-.316-.904.281-2.12.045m7.622-20.567c.673-.279 4.286-4.51 4.872-5.322.225-.316-.27-.631-.541-.406a58 58 0 0 0-4.24 4.555c-.857.947-.408 1.304-.09 1.173M79.692 49.865a.378.378 0 0 0 .722-.18c-.316-1.985-2.12-3.116-3.117-4.736-2.074-3.383.677-7.262 4.195-8.164 2.887-.766 6.134.27 6.901 3.744.677 2.977-.677 5.142-1.624 7.848-.18.586.41.767.677.225 1.218-2.296 2.39-5.05 2.03-7.667-.632-4.195-4.15-6.044-8.074-5.097-3.428.857-6.36 3.834-5.773 7.578.5 3.067 3.188 3.914 4.063 6.45m.996 3.427a7.22 7.22 0 0 0 6.314-.722c.406-.316.226-.992-.36-.767-2.391.857-3.338 1.083-5.684.767-.41-.045-.68.545-.27.722M68.28 50c-.314.41 0 .947.903.316a29 29 0 0 0 3.563-2.616.328.328 0 0 0-.36-.54A28.3 28.3 0 0 0 68.28 50m3.388-12.042a.328.328 0 0 0 .27-.586 46 46 0 0 0-5.638-3.116.358.358 0 0 0-.315.631 46 46 0 0 0 5.683 3.07m9.02 13.621c1.497.47 5.277-.27 6.089-.902.541-.45.045-1.082-.631-.812a13.3 13.3 0 0 1-5.278.857c-.816-.045-.947.62-.18.857"/><path fill="#71b6f6" d="M84.338 48.963a31.5 31.5 0 0 1 .631-7.081.302.302 0 0 0-.586-.136 22.8 22.8 0 0 0-.631 7.216.293.293 0 1 0 .586.001m-1.083-7.486c-1.192.318-2.42.483-3.653.492a.38.38 0 0 0-.316.586 65 65 0 0 1 2.436 6.404c.135.41.541.316.451-.09a28.2 28.2 0 0 0-1.985-6.179 11.8 11.8 0 0 0 3.293-.631.314.314 0 0 0-.226-.582m-32.7 31.436a15.55 15.55 0 0 1-4.465 11.726c-.857.857-.135 1.037.722.722 4.059-1.579 7.708-6.224 8.75-10.374.18-.722-.452-.677-.542-.226a15.47 15.47 0 0 1-7.667 9.607 15.98 15.98 0 0 0 4.018-11.32c-.045-.677-.135-.722-.947-.858-6.946-1.082-9.517-11.05 1.443-15.064 9.788-3.563 17.32 3.067 15.606 9.743-1.263 5.006-6.585 5.772-10.96 5.772-.587 0-.542.722.045.722 4.51.09 9.652-.541 11.32-5.051 3.609-9.607-6.494-14.842-15.019-12.448-13.805 3.97-10.332 16.733-2.304 17.049"/></svg>