<svg xmlns="http://www.w3.org/2000/svg" fill="none" viewBox="0 0 14 14"><path stroke="#60646c" stroke-linecap="round" stroke-linejoin="round" d="M9.333 4.083c0-.542 0-.813-.06-1.036A1.75 1.75 0 0 0 8.036 1.81c-.223-.06-.494-.06-1.037-.06s-.813 0-1.036.06a1.75 1.75 0 0 0-1.237 1.237c-.06.223-.06.494-.06 1.036M3.033 12.25h7.933c.653 0 .98 0 1.23-.127.22-.112.398-.29.51-.51.127-.25.127-.576.127-1.23V5.95c0-.653 0-.98-.127-1.23a1.17 1.17 0 0 0-.51-.51c-.25-.127-.577-.127-1.23-.127H3.033c-.654 0-.98 0-1.23.127-.22.112-.398.29-.51.51-.127.25-.127.577-.127 1.23v4.433c0 .654 0 .98.127 1.23.112.22.29.398.51.51.25.127.576.127 1.23.127"/></svg>