<svg width="164" height="164" viewBox="0 0 164 164" fill="none" xmlns="http://www.w3.org/2000/svg">
<path d="M93.5331 38.453C90.7082 34.3145 85.1806 34.8868 80.8059 34.9172C70.6116 34.9852 28.3144 34.9328 25.3443 35.0812C20.7696 35.3165 16.1759 37.1697 15.433 41.7232C15.032 44.1832 15.3871 46.8129 15.4789 49.2918C15.8479 59.327 16.1234 71.7409 17.3592 80.683C17.6946 83.1152 18.1349 85.553 19.6478 87.5628C22.0356 90.7362 26.7679 91.8514 30.7383 91.9179C30.785 91.9958 67.116 92.851 80.2491 91.867C84.0695 91.58 88.7221 91.293 91.2978 88.0229C92.5884 86.3829 92.6983 84.0188 92.9566 82.0278C93.8857 74.884 94.5056 62.7947 95.3174 49.8305C95.5495 46.1282 95.7299 41.6699 93.5331 38.453ZM94.5376 47.473C94.5105 48.9556 93.406 66.4864 93.3338 67.5499C93.0878 71.1464 92.2965 82.4608 91.274 85.9942C90.2629 89.4816 85.7201 90.3402 82.6336 90.6682C80.0187 90.9511 77.3856 91.1134 74.7559 91.1987C61.2587 91.635 31.9412 91.5431 30.767 91.5119C26.011 91.293 20.6753 89.899 18.8827 84.9651C18.2197 82.7222 17.8539 80.402 17.7946 78.0639C16.9 67.3031 17.0377 64.0551 16.3522 47.4911C16.2555 45.1196 15.7717 42.3316 16.859 40.1152C19.2435 35.269 26.4456 35.9487 30.858 35.9004C36.0478 35.8438 80.0925 35.811 82.819 35.7888C85.2429 35.7692 87.8595 35.6462 90.117 36.6982C94.1891 38.5933 94.6081 43.5182 94.5376 47.4697V47.473Z" fill="#191919"/>
<path d="M55.3683 95.161C56.0038 96.596 58.3834 95.8703 57.5528 93.954C57.483 93.7895 57.3776 93.6427 57.2443 93.5239C57.1109 93.4051 56.9528 93.3174 56.7814 93.267C56.6101 93.2167 56.4297 93.2049 56.2532 93.2327C56.0768 93.2604 55.9087 93.327 55.7611 93.4275C55.2552 93.7744 54.8124 94.7059 55.3839 95.2012C55.4068 95.2243 55.4361 95.2401 55.4681 95.2465C55.5 95.2529 55.5331 95.2496 55.5632 95.2372C55.5933 95.2247 55.619 95.2035 55.637 95.1763C55.655 95.1492 55.6645 95.1173 55.6643 95.0847C55.6996 94.7059 55.625 94.3025 55.9407 94.0187C56.0203 93.9385 56.1169 93.8771 56.2235 93.8393C56.33 93.8014 56.4437 93.7879 56.5561 93.7999C56.6685 93.8119 56.7768 93.8489 56.873 93.9084C56.9691 93.9678 57.0507 94.0481 57.1116 94.1434C57.241 94.3242 57.2969 94.5473 57.2683 94.7678C57.2397 94.9883 57.1287 95.1897 56.9575 95.3316C56.7361 95.4553 56.4759 95.4903 56.2297 95.4294C55.9835 95.3685 55.7697 95.2162 55.6315 95.0036C55.5282 94.833 55.2896 94.9839 55.3683 95.161Z" fill="#191919"/>
<path d="M52.1267 103.994C53.4055 104.212 54.703 104.3 55.9995 104.257C57.4157 104.299 58.8384 104.347 60.2537 104.339C60.3471 104.335 60.4353 104.295 60.4999 104.227C60.5645 104.159 60.6005 104.069 60.6005 103.976C60.6005 103.882 60.5645 103.792 60.4999 103.724C60.4353 103.657 60.3471 103.616 60.2537 103.612C58.8384 103.555 57.4157 103.55 55.9995 103.544C54.7075 103.455 53.4099 103.498 52.1267 103.673C52.0922 103.683 52.0621 103.704 52.0407 103.733C52.0194 103.762 52.0078 103.797 52.0078 103.833C52.0078 103.869 52.0194 103.904 52.0407 103.933C52.0621 103.962 52.0922 103.984 52.1267 103.994Z" fill="#191919"/>
<path d="M99.8115 35.0361C98.8773 32.9609 97.1665 31.3349 95.0465 30.5073C92.3462 29.4486 89.3385 29.6159 86.4939 29.6422C74.3776 29.7537 24.6364 29.7168 21.2129 29.8586C18.5401 29.8936 15.9219 30.6199 13.6131 31.9669C8.44713 35.2296 9.62629 40.672 9.83293 46.7752C10.2298 58.5094 10.5324 73.0743 11.8477 83.503C12.1937 86.2492 12.575 89.0307 14.0502 91.4374C16.684 95.7317 22.0173 97.3528 27.0349 97.3323C27.2284 97.3323 38.3829 97.5997 51.1749 97.6948C51.1945 98.3696 51.3282 99.115 51.4036 99.8268C51.1248 99.7932 43.6136 99.9809 41.4062 100.295C41.3604 100.304 41.3171 100.323 41.2796 100.351C41.242 100.379 41.2111 100.415 41.189 100.456C41.1669 100.497 41.1542 100.543 41.1518 100.59C41.1493 100.636 41.1573 100.683 41.175 100.726C40.0434 101.682 39.043 102.868 38.0114 103.914C36.742 105.194 35.403 106.436 34.2173 107.793C34.1681 107.844 34.1411 107.913 34.1418 107.984C34.1426 108.055 34.1711 108.123 34.2213 108.173C34.2715 108.223 34.3393 108.252 34.4103 108.252C34.4813 108.253 34.5498 108.226 34.601 108.177C35.9294 106.958 37.1365 105.588 38.3861 104.288C39.4259 103.205 40.6174 102.156 41.5546 100.972C44.8465 100.678 48.1516 100.559 51.4561 100.614C51.4627 101.153 51.434 101.791 51.9686 102.064C52.0506 102.107 52.1941 102.077 52.2097 101.965C52.249 101.253 52.2197 100.539 52.122 99.8325C52.106 99.105 51.9717 98.3849 51.7243 97.7005C54.7058 97.7218 57.7685 97.7325 60.7951 97.7276C60.4061 98.9542 60.3495 100.262 60.6311 101.518C60.6433 101.557 60.6677 101.591 60.7008 101.616C60.734 101.64 60.774 101.653 60.8152 101.653C60.8564 101.653 60.8964 101.64 60.9296 101.616C60.9627 101.591 60.9871 101.557 60.9993 101.518C61.1056 101.161 61.1692 100.793 61.1887 100.421C62.8664 100.645 64.2563 100.489 68.7762 100.771C69.4625 100.814 70.4416 100.824 71.0197 100.821C71.8704 101.993 72.8721 103.047 73.9987 103.957C75.1014 105.041 76.2635 106.063 77.4797 107.017C77.7732 107.239 78.1356 106.754 77.8716 106.509C76.7015 105.439 75.4715 104.438 74.3038 103.361C73.4136 102.408 72.4638 101.513 71.46 100.681C71.476 100.633 71.475 100.58 71.4573 100.532C71.4396 100.484 71.4061 100.444 71.3624 100.417C70.6705 100.157 69.9327 100.041 69.1944 100.076C68.2169 100.014 67.2387 99.9667 66.2596 99.9334C64.5884 99.7675 62.9084 99.7089 61.2297 99.7579C61.2756 99.0314 61.4019 98.3598 61.4076 97.7268C70.0447 97.7079 78.3259 97.5578 83.5222 97.1454C87.9322 96.7944 93.3286 96.5378 96.3487 92.7994C97.9116 90.8666 98.0584 88.1926 98.3651 85.8163C99.6615 75.7844 100.204 60.2847 101.024 48.8031C101.353 44.298 101.74 39.2575 99.8115 35.0361ZM100.344 45.3681C100.295 46.7539 99.0776 66.7931 98.9497 68.7922C98.6725 73.0013 97.764 86.1344 96.6176 90.25C95.5106 94.2262 90.6161 95.3898 87.0655 95.8211C84.0232 96.1917 80.9441 96.3869 77.8814 96.4902C62.3088 97.0183 27.6852 96.8256 27.0669 96.8026C21.4187 96.5566 15.4106 94.728 13.4729 88.8273C12.616 86.2189 12.5127 83.3677 12.2962 80.6453C11.4401 69.8435 11.4975 66.3913 10.7382 45.3263C10.6349 42.5342 10.1396 39.433 10.935 36.7089C12.8046 30.3195 21.2235 30.7377 26.4182 30.6696C32.5617 30.5876 85.086 30.5253 88.2225 30.5056C91.0482 30.4909 94.092 30.563 96.4856 32.2703C100.451 35.096 100.497 40.991 100.344 45.3657V45.3681Z" fill="#191919"/>
<path d="M4.79709 130.246C5.29319 129.543 16.8937 116.47 17.4702 115.819C17.8331 115.389 18.2945 115.052 18.8153 114.838C19.336 114.624 19.9008 114.539 20.4615 114.589C28.3631 114.543 36.2671 114.493 44.1686 114.62C58.9122 114.862 91.3448 114.035 92.4321 114.046C93.4981 114.057 94.8733 113.812 95.6867 114.594C96.4624 115.341 104.487 126.255 107.292 129.178C107.728 129.631 108.416 128.942 107.983 128.487C105.236 125.623 98.3804 116.393 97.2603 114.998C96.8581 114.346 96.3281 113.784 95.7023 113.343C94.3026 112.645 78.0649 113.496 71.1236 113.654C62.9072 113.841 65.0204 113.695 21.3324 113.684C19.3996 113.684 18.0319 113.766 16.7584 115.348C15.2939 117.169 4.88483 129.242 4.41825 130.022C4.27311 130.269 4.63719 130.472 4.79709 130.246Z" fill="#191919"/>
<path d="M106.573 133.349C107.29 132.131 108.773 130.137 108.061 129.905C106.961 129.554 4.99813 130.494 4.99813 130.494C4.99813 130.494 3.03669 130.545 4.91613 132.294C6.79557 134.043 6.88413 134.49 10.2773 134.359C13.6704 134.227 96.9177 133.962 99.2383 133.999C101.559 134.036 106.119 134.121 106.573 133.349Z" fill="#191919"/>
<path d="M15.6273 121.996C14.9057 122.889 11.702 126.182 11.5724 126.998C11.555 127.07 11.5606 127.146 11.5886 127.215C11.6165 127.283 11.6654 127.342 11.7282 127.381C12.1661 127.662 25.46 127.381 28.4226 127.371C34.6809 127.344 79.0535 127.617 80.1761 127.631C81.0346 127.642 81.6423 127.46 81.2216 126.498C79.7874 123.218 78.3631 119.938 76.9059 116.668C76.5353 115.839 76.2393 115.727 75.3479 115.732C75.3479 115.732 22.116 115.732 20.4325 115.712C20.3547 115.716 20.2814 115.75 20.2277 115.806C20.174 115.863 20.1441 115.938 20.1441 116.016C20.1441 116.094 20.174 116.169 20.2277 116.225C20.2814 116.282 20.3547 116.315 20.4325 116.32C30.9556 116.422 72.8953 116.291 75.8481 116.466C76.0868 116.481 75.7661 115.926 80.4533 126.494C80.5189 126.641 80.5016 126.904 79.7251 126.923C79.1864 126.934 27.701 126.717 15.9086 126.805C15.2821 126.805 12.6237 126.916 12.6434 126.759C12.709 126.231 16.8065 121.877 20.303 116.519C20.4235 116.334 20.139 116.183 20.0143 116.35C20.0078 116.347 17.2288 120.011 15.6273 121.996Z" fill="#191919"/>
<path d="M82.6501 125.117C82.9193 125.907 83.2645 126.669 83.6809 127.392C83.9269 127.729 84.0909 127.725 84.5009 127.738C86.787 127.809 93.1469 127.519 99.5069 127.644C99.9275 127.653 101.662 127.917 101.639 127.234C101.605 126.23 98.5565 122.684 94.3532 116.125C93.8735 115.376 93.6668 115.33 92.7181 115.371C91.1666 115.437 82.0286 115.766 79.0126 115.863C78.6116 115.877 78.6092 116.501 79.0126 116.488C94.577 115.996 93.379 115.959 93.4741 116.019C93.7808 116.214 94.0883 116.969 94.2851 117.271C94.7238 117.937 100.063 125.886 100.547 126.582C100.837 126.996 100.554 126.972 99.9734 126.96C99.3174 126.946 85.0716 127.038 84.6083 127.033C84.0343 127.026 83.7538 125.907 83.5193 125.407C80.5132 118.981 80.0343 117.991 79.2127 116.651C79.0831 116.44 78.7477 116.504 78.8396 116.719C80.2779 120.086 81.3439 122.163 82.6501 125.117Z" fill="#191919"/>
<path d="M46.6498 53.2179C46.3809 49.7157 47.8798 46.1167 49.3558 44.6079C50.8792 43.1851 52.8683 42.3651 54.9519 42.3009C57.0354 42.2368 59.0712 42.9329 60.6792 44.2594C62.8254 46.1339 64.2167 48.7248 64.5939 51.5492C64.7538 52.22 65.3319 53.9149 63.0359 54.0699C62.8719 54.0814 62.402 53.6673 62.3364 53.5402C61.6804 52.2684 61.5714 50.8022 61.017 49.4869C60.3616 47.8083 59.1087 46.4313 57.4992 45.6206C56.6929 45.2327 55.7962 45.0717 54.9054 45.1548C54.0145 45.2378 53.163 45.5619 52.4423 46.0921C51.123 47.2766 50.2646 48.889 50.0184 50.6448C49.2689 55.427 51.1385 58.8152 51.6141 59.0194C51.8836 59.1123 52.1699 59.1467 52.4538 59.1203C54.7088 59.0653 63.6755 58.7103 65.8099 58.7537C66.0363 58.7587 66.5406 58.8357 66.6824 59.2293C67.1933 60.643 66.9038 64.0755 66.8759 64.4265C66.7669 65.7795 65.9379 64.9029 64.5521 65.7746C59.9191 65.2006 58.2979 64.9702 57.4181 65.2244C57.2364 65.268 57.0656 65.3483 56.916 65.4603C56.7664 65.5722 56.6412 65.7135 56.548 65.8754C56.4278 66.223 56.4475 66.6038 56.603 66.9371C56.7585 67.2704 57.0375 67.5302 57.3812 67.6614C58.0536 67.9599 58.8629 68.0542 59.4041 68.3453C59.3582 69.2473 59.4656 69.59 59.4213 70.4953C59.3934 70.7232 59.4158 70.9544 59.4869 71.1726C59.5665 71.331 59.6848 71.4667 59.8309 71.5671C59.977 71.6675 60.1461 71.7292 60.3225 71.7466C60.6758 71.7768 61.0316 71.7463 61.3746 71.6564C61.3655 70.5276 61.5539 69.4059 61.9313 68.342C62.6128 68.456 63.3754 68.7323 64.0568 68.8463C64.1388 68.8643 63.459 71.1152 63.5861 72.0246C63.632 72.3469 64.1732 72.2591 64.2257 72.3247C65.0219 73.335 65.3261 73.5416 65.8764 73.6753C66.4946 73.8262 66.5889 74.1066 66.7046 74.8479C67.5246 80.0729 62.2388 84.792 56.7981 84.8863C53.7494 84.9413 48.471 84.8863 44.6507 79.3759C43.7806 78.1781 43.2945 76.7444 43.2567 75.2644C43.3546 74.9097 43.5173 74.5761 43.7364 74.2804C45.0541 73.0209 46.0865 71.9287 45.9085 69.6253C45.7618 67.7139 44.9795 65.9845 43.1558 65.6426C42.9984 65.6147 42.6384 65.0727 42.6146 64.9128C42.3513 63.2224 42.3121 61.5047 42.4982 59.8042C42.5701 59.672 42.6813 59.5654 42.8163 59.4991C43.8438 59.2802 46.4415 59.4311 47.4624 59.2384C47.5603 59.1363 47.6354 59.0145 47.6826 58.8812C47.7298 58.7479 47.7481 58.606 47.7363 58.4651C47.1319 56.7751 46.7662 55.009 46.6498 53.2179Z" fill="#71B6F6"/>
<path d="M77.3511 57.901C77.2576 59.4409 76.3187 78.0328 76.7 79.5424C76.713 79.5849 76.7393 79.6222 76.775 79.6486C76.8107 79.6751 76.854 79.6894 76.8985 79.6894C76.9429 79.6894 76.9862 79.6751 77.0219 79.6486C77.0577 79.6222 77.0839 79.5849 77.0969 79.5424C77.5364 78.1099 77.5496 59.7156 77.5266 57.901C77.5266 57.8777 77.5173 57.8554 77.5009 57.8389C77.4844 57.8225 77.4621 57.8132 77.4389 57.8132C77.4156 57.8132 77.3933 57.8225 77.3768 57.8389C77.3604 57.8554 77.3511 57.8777 77.3511 57.901Z" fill="#191919"/>
<path d="M118.259 64.93C115.968 64.2382 113.501 64.4377 111.352 65.4885C108.564 66.8505 106.744 69.6975 105.654 72.7209C105.287 72.0961 104.717 71.6154 104.04 71.358C102.82 70.9046 100.382 71.358 100.314 72.9808C100.314 73.0295 100.329 73.0771 100.356 73.1176C100.383 73.1581 100.422 73.1896 100.467 73.2081C100.512 73.2266 100.561 73.2314 100.609 73.2217C100.657 73.212 100.701 73.1884 100.735 73.1538C101.592 72.4675 102.521 71.7664 103.687 72.2002C104.046 72.3317 104.363 72.556 104.607 72.8501C104.851 73.1443 105.012 73.4978 105.075 73.8746C105.116 74.3464 105.011 74.8194 104.775 75.2299C104.539 75.6404 104.183 75.9687 103.754 76.1706C103.159 76.3724 102.514 76.3705 101.92 76.1654C101.327 75.9602 100.818 75.5634 100.474 75.0374C100.434 74.989 100.335 74.9955 100.342 75.0702C100.515 76.9111 103.1 77.6942 104.617 76.6864C103.845 81.1841 104.811 86.4854 108.888 88.5608C109.903 89.0878 111.013 89.4049 112.153 89.493C113.293 89.5812 114.438 89.4386 115.522 89.0737C116.605 88.7089 117.604 88.1293 118.458 87.3697C119.313 86.6101 120.005 85.686 120.494 84.6527C120.755 84.1197 119.963 83.649 119.692 84.1836C118.898 85.8788 117.502 87.2185 115.776 87.9427C114.049 88.6668 112.116 88.7237 110.35 88.1024C106.275 86.7904 105.004 82.1451 105.322 78.2944C105.565 75.8256 106.255 73.4215 107.358 71.1998C108.112 69.4037 109.37 67.8644 110.979 66.7677C112.92 65.5967 115.235 65.2123 117.449 65.6935C121.019 66.4626 123.113 70.6512 122.787 74.0091C122.769 74.1846 123.023 74.1928 123.076 74.0468C124.348 70.5602 121.657 66.1002 118.259 64.93Z" fill="#191919"/>
<path d="M117.342 82.0344C116.103 82.9905 114.896 84.0688 113.254 84.1664C110.355 84.3427 107.535 80.8364 109.512 75.5851C110.487 72.9988 112.616 69.4023 115.735 69.3039C116.399 69.2783 117.057 69.4377 117.637 69.7644C118.216 70.091 118.693 70.572 119.015 71.1538C119.418 71.9492 119.203 72.7889 119.493 73.5794C119.575 73.8073 119.949 73.9262 120.072 73.6564C120.856 71.9295 119.646 69.8024 118.121 68.9505C115.825 67.6688 113.211 68.7045 111.567 70.5314C108.556 73.8819 105.77 81.0602 110.577 84.2008C112.977 85.7703 115.945 84.3788 117.566 82.3312C117.691 82.1812 117.527 81.8909 117.342 82.0344Z" fill="#191919"/>
<path d="M58.0678 65.4885C59.2373 65.3413 60.4235 65.4007 61.5725 65.6639C66.9738 66.3298 72.353 67.7197 75.8142 67.4835C75.9413 67.4745 75.9922 67.2744 75.8454 67.2465C73.4469 66.789 70.9795 66.7144 68.5687 66.2994C66.2604 65.9034 63.9611 65.4475 61.6405 65.1383C60.4564 64.8666 59.2391 64.7688 58.0268 64.848C57.7896 64.5123 57.4667 64.2464 57.0916 64.078C56.7166 63.9097 56.3033 63.8451 55.8948 63.8911C53.1371 63.9083 52.5459 66.898 53.5824 68.6643C53.9099 69.2227 54.3252 69.7247 54.8124 70.151C54.912 70.2363 54.9831 70.3501 55.016 70.4771C55.0488 70.6041 55.0419 70.7382 54.9961 70.8611C54.6853 71.6934 53.9883 73.5368 53.4184 74.8168C53.3947 74.8698 53.3845 74.9278 53.3887 74.9857C53.3929 75.0436 53.4113 75.0996 53.4423 75.1486C53.4733 75.1977 53.5159 75.2384 53.5663 75.267C53.6168 75.2957 53.6736 75.3114 53.7316 75.3129C55.3421 75.3563 57.0215 75.4195 58.6278 75.385C58.6841 75.3836 58.7393 75.3686 58.7886 75.3414C58.8378 75.3142 58.8799 75.2755 58.9111 75.2286C58.9423 75.1818 58.9617 75.1281 58.9678 75.0721C58.9739 75.0161 58.9664 74.9595 58.946 74.907C58.3974 73.4908 58.0891 72.169 57.5274 70.8012C57.4748 70.6765 57.4639 70.5382 57.4965 70.4068C57.529 70.2754 57.6031 70.158 57.7078 70.0723C57.9636 69.8497 58.1659 69.5723 58.2995 69.2606C58.4331 68.9489 58.4946 68.6111 58.4794 68.2724C59.7914 68.7726 58.3367 70.6848 58.8361 71.6065C59.1231 72.1387 60.5302 72.3576 61.0608 72.2289C62.0112 71.9976 61.7512 69.5704 62.0604 69.0546C62.2514 68.7324 63.597 69.1514 63.6454 69.2367C63.6232 69.4955 63.5709 69.7509 63.4896 69.9976C63.356 70.7356 62.7516 72.0616 63.6782 72.3953C64.0307 72.4522 64.3871 72.4821 64.7442 72.4847C65.0183 72.5702 65.3001 72.6284 65.5855 72.6585C66.5048 72.588 66.2875 71.1735 66.4383 70.4552C66.6507 69.4294 67.1813 69.6992 68.0144 69.855C70.5123 70.4125 73.0368 70.8441 75.5781 71.1481C75.9241 71.1768 76.0102 70.5872 75.6601 70.5347C73.6101 70.2248 71.5871 69.9247 69.5625 69.4778C68.6013 69.1631 67.6068 68.9608 66.5991 68.8751C65.9898 68.9013 65.9611 69.3441 65.8611 69.8771C65.8478 70.4866 65.7495 71.0913 65.5691 71.6737C65.3149 72.0534 64.9468 71.8377 64.5376 71.8016C63.5577 71.7139 63.9168 71.2334 63.939 71.0997C64.0284 70.5626 64.5638 69.1801 64.0726 68.7283C63.4262 68.4413 62.7297 68.2842 62.0226 68.2658C61.6758 68.3183 61.6208 68.4897 61.5208 68.7898C61.4046 69.2365 61.3129 69.6893 61.2461 70.1461C61.1871 70.4249 61.3125 71.7746 60.2252 71.4581C59.6135 71.217 59.5364 71.1301 59.4642 70.4659C59.3921 69.8017 59.7668 69.0866 59.6881 68.4339C59.6291 67.9337 59.4798 67.8878 58.978 67.7697C58.4392 67.6426 57.807 67.6992 57.356 67.3203C56.4524 66.5627 57.2478 65.6992 58.0678 65.4885Z" fill="#191919"/>
<path d="M98.207 66.1814V66.3282C98.207 66.3413 98.2293 66.3413 98.2293 66.3282C98.2293 66.2798 98.2293 66.2298 98.2359 66.1814C98.2351 66.1658 98.207 66.1642 98.207 66.1814Z" fill="#191919"/>
<path d="M34.1773 108.448C34.1773 108.448 77.5225 107.889 77.9432 107.981C78.3638 108.073 77.8399 110.876 76.5492 110.868C75.2585 110.86 36.5373 111.172 35.9108 110.925C35.2843 110.677 33.509 108.457 34.1773 108.448Z" fill="#191919"/>
<path d="M124.512 69.7213C125.978 69.7385 136.289 68.5643 137.736 68.7111C139.217 68.862 158.174 72.6914 159.648 72.6274C159.759 72.6274 159.83 72.4503 159.711 72.3953C158.34 71.7713 139.673 68.1313 137.922 67.9747C136.412 67.8427 127.117 68.5553 124.497 69.5877C124.482 69.5919 124.468 69.6016 124.459 69.615C124.45 69.6285 124.446 69.6447 124.448 69.6608C124.449 69.6769 124.457 69.6919 124.469 69.703C124.481 69.7141 124.496 69.7206 124.512 69.7213Z" fill="#191919"/>
<path d="M118.09 76.6912C129.324 77.1988 134.408 71.7302 142.329 73.3292C142.68 73.3989 143.173 73.3948 143.248 73.0463C143.33 72.6757 142.821 72.5265 142.45 72.4461C139.491 71.6941 136.371 71.888 133.528 73.0004C128.586 74.9378 123.383 76.1263 118.09 76.5264C118.068 76.5264 118.047 76.5351 118.032 76.5506C118.016 76.566 118.008 76.587 118.008 76.6088C118.008 76.6307 118.016 76.6516 118.032 76.6671C118.047 76.6826 118.068 76.6912 118.09 76.6912Z" fill="#191919"/>
<path d="M119.047 78.9439C122.701 83.1128 129.552 81.3859 134.185 80.5749C138.749 79.7746 142.435 81.8131 146.854 82.3789C148.398 82.579 150.357 82.7496 151.795 82.0329C152.053 81.9033 151.891 81.5753 151.663 81.5466C150.679 81.4261 149.175 81.9304 145.96 81.2653C143.972 80.8553 142.118 80.1173 140.174 79.5909C135.289 78.2789 130.498 81.1489 125.666 80.7504C119.776 80.2682 117.929 76.6504 117.812 76.6504C118.089 77.4803 118.506 78.2562 119.047 78.9439Z" fill="#191919"/>
<path d="M121.324 86.9791C124.719 87.1537 128.124 87.3194 131.492 87.786C136.185 88.4346 140.643 90.5781 145.446 90.2911C150.249 90.0041 154.809 88.0557 159.644 88.0164C159.7 88.0148 159.753 87.9956 159.797 87.9614C159.84 87.9272 159.871 87.88 159.886 87.8267C159.9 87.7733 159.897 87.7167 159.877 87.6652C159.857 87.6138 159.821 87.5701 159.774 87.5408C157.218 86.2099 155.046 87.5555 151.565 88.2509C148.591 88.8421 145.702 89.6621 142.678 89.257C138.947 88.7568 135.42 87.3128 131.673 86.8413C128.231 86.353 124.739 86.3235 121.29 86.7536C121.162 86.7757 121.201 86.9733 121.324 86.9791Z" fill="#191919"/>
<path d="M19.2177 126.104C19.2197 126.104 19.2214 126.102 19.2227 126.101C19.2239 126.099 19.2246 126.097 19.2246 126.095C19.2246 126.093 19.2239 126.091 19.2227 126.089C19.2214 126.088 19.2197 126.086 19.2177 126.086C19.2158 126.086 19.214 126.088 19.2128 126.089C19.2116 126.091 19.2109 126.093 19.2109 126.095C19.2109 126.097 19.2116 126.099 19.2128 126.101C19.214 126.102 19.2158 126.104 19.2177 126.104Z" fill="#191919"/>
<path d="M76.9582 123.017C76.2202 123.006 74.9788 122.997 73.3379 122.99C72.9427 122.002 73.5101 123.471 71.9111 119.44C73.3478 119.44 74.449 119.44 75.1231 119.449C75.1905 119.449 75.2551 119.422 75.3028 119.374C75.3505 119.326 75.3773 119.262 75.3773 119.194C75.3773 119.127 75.3505 119.062 75.3028 119.015C75.2551 118.967 75.1905 118.94 75.1231 118.94C74.4335 118.93 73.2535 118.921 71.6996 118.915C71.3257 118.013 71.2027 117.874 70.9042 117.715C70.8805 117.702 70.8541 117.694 70.827 117.692C70.7999 117.69 70.7727 117.695 70.7475 117.705C70.7222 117.715 70.6996 117.73 70.6811 117.75C70.6627 117.77 70.649 117.794 70.641 117.82C70.545 118.095 70.5327 118.262 70.7582 118.911C67.8833 118.902 63.9932 118.896 59.6472 118.895C59.4768 118.384 59.2534 117.892 58.9806 117.428C58.9613 117.397 58.9329 117.374 58.8993 117.361C58.8657 117.347 58.8288 117.345 58.7939 117.354C58.7589 117.363 58.7278 117.383 58.7051 117.411C58.6823 117.439 58.6691 117.474 58.6673 117.51C58.6782 117.975 58.7332 118.437 58.8313 118.892C55.1323 118.892 51.1356 118.892 47.1734 118.901C47.1537 118.553 47.1332 118.204 47.1119 117.854C47.1087 117.806 47.0871 117.76 47.0516 117.727C47.016 117.694 46.9691 117.675 46.9204 117.675C46.8717 117.675 46.8248 117.694 46.7892 117.727C46.7537 117.76 46.7321 117.806 46.7289 117.854C46.6937 118.204 46.6584 118.553 46.6256 118.902C42.4969 118.907 38.4256 118.916 34.7807 118.928C34.8105 118.611 34.7679 118.291 34.6561 117.992C34.6208 117.904 34.5052 117.846 34.433 117.931C34.2013 118.219 34.0508 118.564 33.9968 118.93C29.8492 118.944 26.3175 118.961 23.9887 118.981C24.2281 118.61 24.4272 118.215 24.5824 117.801C24.7054 117.451 24.1798 117.131 23.9379 117.429C23.5334 117.935 23.1488 118.457 22.7849 118.993C22.2275 118.997 21.6701 119.007 21.113 119.025C21.0688 119.025 21.0265 119.042 20.9952 119.073C20.964 119.105 20.9465 119.147 20.9465 119.191C20.9465 119.235 20.964 119.278 20.9952 119.309C21.0265 119.34 21.0688 119.358 21.113 119.358C21.4943 119.386 21.9543 119.412 22.4848 119.435C20.5373 122.329 20.6972 122.018 20.0019 123.067C19.2506 123.07 18.4995 123.082 17.7485 123.102C17.7043 123.102 17.662 123.119 17.6308 123.15C17.5996 123.182 17.582 123.224 17.582 123.268C17.582 123.312 17.5996 123.355 17.6308 123.386C17.662 123.417 17.7043 123.435 17.7485 123.435C18.2069 123.467 18.8703 123.495 19.7083 123.517C19.293 124.16 18.9244 124.831 18.6054 125.527C18.596 125.543 18.5899 125.561 18.5875 125.58C18.585 125.598 18.5862 125.617 18.591 125.635C18.6007 125.671 18.6244 125.703 18.6571 125.722C18.6897 125.74 18.7285 125.746 18.7649 125.736C18.8014 125.726 18.8325 125.702 18.8514 125.67C19.3434 124.955 19.8903 124.239 20.4545 123.538C23.2425 123.601 27.5204 123.626 32.5151 123.631C32.2877 124.257 32.1441 124.91 32.0878 125.574C32.0723 125.813 32.3814 125.845 32.4978 125.685C32.9263 125.056 33.256 124.365 33.4753 123.635C37.4613 123.635 41.8557 123.626 46.2878 123.609C46.2065 124.304 46.2853 125.008 46.5182 125.667C46.5432 125.71 46.5791 125.746 46.6223 125.771C46.6655 125.796 46.7144 125.809 46.7642 125.809C46.814 125.809 46.8629 125.796 46.9061 125.771C46.9493 125.746 46.9852 125.71 47.0102 125.667C47.2724 125.013 47.3799 124.308 47.3243 123.605C51.6883 123.588 56.0589 123.567 60.081 123.549C60.2587 124.189 60.5114 124.806 60.8338 125.387C60.8631 125.434 60.9067 125.47 60.9582 125.49C61.0097 125.51 61.0663 125.513 61.1196 125.499C61.173 125.484 61.2202 125.453 61.2544 125.409C61.2886 125.366 61.3078 125.313 61.3094 125.257C61.2815 124.678 61.1913 124.104 61.0404 123.544C65.5225 123.524 69.5208 123.508 72.5204 123.507C72.7932 124.264 73.1663 124.981 73.6299 125.639C73.7463 125.794 74.0792 125.774 74.053 125.525C73.9651 124.833 73.7929 124.155 73.5405 123.506C75.005 123.506 76.171 123.513 76.9615 123.526C76.9949 123.525 77.0279 123.519 77.0587 123.506C77.0894 123.493 77.1173 123.474 77.1408 123.45C77.1642 123.426 77.1828 123.398 77.1954 123.367C77.2079 123.336 77.2143 123.303 77.2141 123.27C77.2139 123.236 77.2071 123.203 77.1941 123.173C77.1811 123.142 77.1622 123.114 77.1385 123.09C77.1147 123.067 77.0866 123.048 77.0556 123.036C77.0247 123.023 76.9916 123.017 76.9582 123.017ZM20.8383 123.063C21.8747 121.79 22.9178 120.568 23.6632 119.482C26.1642 119.564 29.7205 119.6 33.8156 119.614C33.5182 120.765 33.1571 121.898 32.734 123.008C27.7771 123.023 23.5492 123.042 20.8383 123.063ZM33.6696 123.006C34.4421 120.405 34.5224 120.382 34.6831 119.617C38.3674 119.626 42.4452 119.617 46.56 119.598C46.3747 121.658 46.4346 121.752 46.3321 122.979C42.1112 122.985 37.8904 122.994 33.6696 123.006ZM47.2964 122.977C47.2488 121.882 47.3062 121.583 47.2095 119.594C51.2275 119.576 55.2569 119.548 58.9773 119.522C59.1823 120.321 58.942 119.311 59.9137 122.965C55.9351 122.969 51.6104 122.971 47.2964 122.977ZM60.8772 122.97L59.8473 119.515C64.2138 119.484 68.1014 119.455 70.955 119.444C71.5954 121.122 71.3921 120.479 72.3195 122.986C69.3495 122.975 65.3585 122.97 60.8772 122.97Z" fill="#191919"/>
<path d="M96.8756 123.656C96.4336 123.498 96.0408 123.435 94.1286 123.461C93.3803 122.001 92.5553 120.581 91.6571 119.208C92.4748 119.253 93.2947 119.18 94.0917 118.992C94.1442 118.976 94.1902 118.943 94.2229 118.899C94.2555 118.854 94.2731 118.801 94.2731 118.746C94.2731 118.691 94.2555 118.637 94.2229 118.593C94.1902 118.549 94.1442 118.516 94.0917 118.5C93.1084 118.282 92.0955 118.232 91.0954 118.351C90.8264 117.948 90.553 117.548 90.2754 117.152C90.2449 117.103 90.1964 117.067 90.1402 117.053C90.084 117.039 90.0246 117.048 89.9746 117.077C89.9245 117.106 89.8879 117.154 89.8724 117.209C89.8569 117.265 89.8638 117.325 89.8916 117.376L90.4509 118.373C89.0839 118.423 86.8716 118.517 85.4218 118.583C85.0792 118.033 84.6718 117.526 84.2082 117.073C84.1853 117.052 84.1562 117.039 84.1252 117.035C84.0942 117.032 84.0629 117.039 84.036 117.054C84.009 117.07 83.9878 117.094 83.9754 117.122C83.963 117.151 83.9601 117.183 83.9671 117.213C84.1013 117.699 84.2795 118.172 84.4993 118.625C83.522 118.614 82.5459 118.698 81.585 118.877C81.5503 118.887 81.5199 118.909 81.4982 118.938C81.4765 118.967 81.4648 119.002 81.4648 119.038C81.4648 119.074 81.4765 119.11 81.4982 119.139C81.5199 119.168 81.5503 119.189 81.585 119.199C82.6694 119.423 83.781 119.483 84.8831 119.378C85.321 120.184 85.8179 120.97 86.2287 121.729C86.5608 122.341 86.8732 122.997 87.207 123.642C86.1536 123.598 85.0987 123.677 84.0639 123.878C84.0264 123.885 83.9925 123.905 83.9681 123.935C83.9438 123.964 83.9304 124.001 83.9304 124.039C83.9304 124.078 83.9438 124.115 83.9681 124.144C83.9925 124.173 84.0264 124.193 84.0639 124.2C85.2347 124.42 86.429 124.487 87.617 124.4C87.9447 124.999 88.3365 125.56 88.7855 126.075C88.9076 126.211 89.1028 126.063 89.0716 125.911C88.9642 125.392 88.8038 124.885 88.5928 124.399C90.3361 124.392 92.6427 124.371 93.7588 124.355C94.0162 124.818 94.3099 125.261 94.637 125.678C94.7616 125.842 95.0601 125.76 94.992 125.53C94.8702 125.126 94.7229 124.731 94.5509 124.346C95.3341 124.401 96.121 124.335 96.8838 124.149C96.9364 124.132 96.9822 124.099 97.0144 124.054C97.0466 124.009 97.0635 123.955 97.0626 123.899C97.0616 123.844 97.043 123.791 97.0093 123.747C96.9756 123.703 96.9287 123.671 96.8756 123.656ZM88.2238 123.614C87.8236 122.818 87.3562 122.047 86.9487 121.308C86.6092 120.695 86.2664 120.018 85.8892 119.358C87.1192 119.331 88.7453 119.286 90.9248 119.226C92.1122 121.358 92.8043 122.637 93.2643 123.476C92.1786 123.492 91.1167 123.528 88.2238 123.611V123.614Z" fill="#191919"/>
</svg>
