<svg xmlns="http://www.w3.org/2000/svg" fill="none" viewBox="0 0 164 164"><path fill="#191919" d="M93.533 38.453c-2.825-4.139-8.352-3.566-12.727-3.536-10.194.068-52.492.016-55.462.164-4.574.235-9.168 2.089-9.911 6.642-.401 2.46-.046 5.09.046 7.569.369 10.035.644 22.449 1.88 31.391.336 2.432.776 4.87 2.289 6.88 2.388 3.173 7.12 4.288 11.09 4.355.047.078 36.378.933 49.511-.051 3.82-.287 8.473-.574 11.049-3.844 1.29-1.64 1.4-4.004 1.659-5.995.929-7.144 1.549-19.233 2.36-32.198.233-3.702.413-8.16-1.784-11.377m1.005 9.02c-.028 1.483-1.132 19.013-1.204 20.077-.246 3.596-1.038 14.91-2.06 18.444-1.011 3.488-5.554 4.346-8.64 4.674-2.615.283-5.248.445-7.878.53-13.497.437-42.815.345-43.989.314-4.756-.219-10.092-1.613-11.884-6.547a26.7 26.7 0 0 1-1.088-6.901c-.895-10.76-.757-14.009-1.443-30.573-.096-2.371-.58-5.16.507-7.376 2.384-4.846 9.587-4.166 13.999-4.215 5.19-.056 49.235-.089 51.961-.111 2.424-.02 5.04-.143 7.298.91 4.072 1.894 4.491 6.82 4.42 10.77zm-39.17 47.688c.636 1.435 3.015.71 2.185-1.207a1.208 1.208 0 0 0-1.792-.526c-.506.346-.949 1.278-.377 1.773a.164.164 0 0 0 .28-.116c.036-.38-.039-.782.277-1.066a.753.753 0 0 1 1.17.124.88.88 0 0 1-.153 1.189 1 1 0 0 1-1.326-.328c-.104-.171-.342-.02-.264.157m-3.241 8.833c1.279.218 2.576.306 3.872.263 1.417.042 2.84.09 4.255.082a.36.36 0 0 0 .346-.363.365.365 0 0 0-.346-.364c-1.416-.057-2.838-.062-4.254-.068a19 19 0 0 0-3.873.129.16.16 0 0 0-.086.06.17.17 0 0 0 .086.261"/><path fill="#191919" d="M99.812 35.036a8.7 8.7 0 0 0-4.766-4.529c-2.7-1.058-5.708-.891-8.552-.865-12.116.112-61.858.075-65.281.217a15.5 15.5 0 0 0-7.6 2.108c-5.166 3.263-3.987 8.705-3.78 14.808.397 11.734.7 26.3 2.015 36.728.346 2.746.727 5.528 2.202 7.934 2.634 4.295 7.967 5.916 12.985 5.895.193 0 11.348.268 24.14.363.02.675.153 1.42.229 2.132-.28-.034-7.79.154-9.998.468a.31.31 0 0 0-.217.161.32.32 0 0 0-.014.27c-1.132.956-2.132 2.142-3.164 3.188-1.269 1.28-2.608 2.522-3.794 3.879a.272.272 0 0 0 .384.384c1.328-1.219 2.535-2.589 3.785-3.889 1.04-1.083 2.231-2.132 3.169-3.316a94 94 0 0 1 9.901-.358c.007.539-.022 1.177.513 1.45.082.043.225.013.24-.099a11 11 0 0 0-.087-2.133 6.7 6.7 0 0 0-.398-2.131c2.982.02 6.045.032 9.071.027a7.3 7.3 0 0 0-.164 3.79.2.2 0 0 0 .07.098.195.195 0 0 0 .229 0 .2.2 0 0 0 .07-.098q.16-.537.189-1.097c1.677.224 3.067.068 7.587.35.687.043 1.666.053 2.244.05a16.5 16.5 0 0 0 2.979 3.136 42 42 0 0 0 3.48 3.06c.294.222.657-.263.393-.508-1.17-1.07-2.4-2.071-3.568-3.148a31 31 0 0 0-2.844-2.68.226.226 0 0 0-.098-.264 5.4 5.4 0 0 0-2.168-.341q-1.465-.093-2.934-.143a39 39 0 0 0-5.03-.175c.046-.727.172-1.398.178-2.031 8.637-.02 16.918-.17 22.114-.582 4.41-.35 9.807-.607 12.827-4.346 1.563-1.932 1.71-4.606 2.016-6.983 1.297-10.032 1.839-25.531 2.659-37.013.329-4.505.716-9.545-1.213-13.767m.532 10.332c-.049 1.386-1.266 21.425-1.394 23.424-.278 4.21-1.186 17.342-2.332 21.458-1.107 3.976-6.002 5.14-9.552 5.571-3.043.37-6.122.566-9.185.67-15.572.527-50.196.335-50.814.312-5.648-.246-11.656-2.075-13.594-7.976-.857-2.608-.96-5.46-1.177-8.182-.856-10.801-.798-14.254-1.558-35.319-.103-2.792-.598-5.893.197-8.617 1.87-6.39 10.289-5.971 15.483-6.04 6.144-.081 58.668-.144 61.805-.163 2.825-.015 5.869.057 8.263 1.764 3.965 2.826 4.011 8.721 3.858 13.096zM4.797 130.246c.496-.703 12.097-13.776 12.673-14.427a3.5 3.5 0 0 1 2.992-1.23c7.901-.046 15.805-.096 23.707.031 14.743.242 47.176-.585 48.263-.574 1.066.011 2.441-.234 3.255.548.775.747 8.8 11.661 11.605 14.584.436.453 1.124-.236.691-.691-2.747-2.864-9.603-12.094-10.723-13.489a5.7 5.7 0 0 0-1.558-1.655c-1.4-.698-17.637.153-24.578.311-8.217.187-6.104.041-49.792.03-1.932 0-3.3.082-4.574 1.664-1.464 1.821-11.873 13.894-12.34 14.674-.145.247.22.45.38.224m101.775 3.103c.717-1.218 2.2-3.212 1.488-3.444-1.1-.351-103.063.589-103.063.589s-1.961.051-.082 1.8 1.968 2.196 5.361 2.065 86.64-.397 88.961-.36 6.881.122 7.335-.65"/><path fill="#191919" d="M15.627 121.996c-.721.893-3.925 4.186-4.055 5.002a.355.355 0 0 0 .156.383c.438.281 13.732 0 16.695-.01 6.258-.027 50.63.246 51.753.26.859.011 1.466-.171 1.046-1.133-1.435-3.28-2.859-6.56-4.316-9.83-.37-.829-.667-.941-1.558-.936 0 0-53.232 0-54.915-.02a.306.306 0 0 0-.289.304.307.307 0 0 0 .288.304c10.524.102 52.463-.029 55.416.146.239.015-.082-.54 4.605 10.028.066.147.049.41-.728.429-.539.011-52.024-.206-63.816-.118-.627 0-3.285.111-3.266-.046.066-.528 4.163-4.882 7.66-10.24.12-.185-.164-.336-.289-.169-.006-.003-2.785 3.661-4.387 5.646m67.023 3.121c.27.79.614 1.552 1.03 2.275.247.337.41.333.82.346 2.287.071 8.647-.219 15.007-.094.42.009 2.155.273 2.132-.41-.034-1.004-3.082-4.55-7.286-11.109-.48-.749-.686-.795-1.635-.754-1.551.066-10.69.395-13.705.492-.401.014-.404.638 0 .625 15.564-.492 14.366-.529 14.461-.469.307.195.614.95.811 1.252.439.666 5.778 8.615 6.262 9.311.29.414.007.39-.574.378-.656-.014-14.901.078-15.365.073-.574-.007-.854-1.126-1.089-1.626-3.006-6.426-3.485-7.416-4.306-8.756-.13-.211-.465-.147-.373.068 1.438 3.367 2.504 5.444 3.81 8.398"/><path fill="#71b6f6" d="M46.65 53.218c-.27-3.502 1.23-7.101 2.706-8.61a8.586 8.586 0 0 1 11.323-.349 11.74 11.74 0 0 1 3.915 7.29c.16.671.738 2.366-1.558 2.52-.164.012-.634-.402-.7-.529-.656-1.272-.765-2.738-1.319-4.053a7.3 7.3 0 0 0-3.518-3.866 4.93 4.93 0 0 0-5.057.471 7.52 7.52 0 0 0-2.424 4.553c-.75 4.782 1.12 8.17 1.596 8.374.27.093.556.128.84.101 2.255-.055 11.221-.41 13.356-.366.226.005.73.082.872.475.511 1.414.222 4.847.194 5.198-.11 1.352-.938.476-2.324 1.348-4.633-.574-6.254-.805-7.134-.55a1.37 1.37 0 0 0-.87.65 1.416 1.416 0 0 0 .833 1.786c.673.299 1.482.393 2.023.684-.046.902.062 1.245.017 2.15a1.6 1.6 0 0 0 .066.678 1.05 1.05 0 0 0 .835.574c.354.03.71 0 1.053-.09a9.7 9.7 0 0 1 .556-3.315c.682.114 1.444.39 2.126.504.082.018-.598 2.27-.47 3.179.045.322.586.234.639.3.796 1.01 1.1 1.217 1.65 1.35.619.151.713.432.829 1.173.82 5.225-4.466 9.944-9.907 10.038-3.049.055-8.327 0-12.147-5.51a7.3 7.3 0 0 1-1.394-4.112c.098-.354.26-.688.48-.984 1.317-1.26 2.35-2.351 2.171-4.655-.146-1.911-.928-3.64-2.752-3.982-.158-.028-.518-.57-.541-.73a19.5 19.5 0 0 1-.117-5.109.73.73 0 0 1 .318-.305c1.028-.219 3.625-.068 4.646-.26a1 1 0 0 0 .274-.774 19.3 19.3 0 0 1-1.086-5.247"/><path fill="#191919" d="M77.351 57.901c-.093 1.54-1.032 20.132-.651 21.641a.208.208 0 0 0 .397 0c.44-1.432.453-19.826.43-21.641a.09.09 0 0 0-.088-.088.09.09 0 0 0-.088.088m40.908 7.029a9.48 9.48 0 0 0-6.907.558c-2.788 1.362-4.608 4.21-5.698 7.233a3.2 3.2 0 0 0-1.614-1.363c-1.22-.453-3.658 0-3.726 1.623a.247.247 0 0 0 .421.173c.857-.686 1.786-1.388 2.952-.954a2.16 2.16 0 0 1 1.388 1.675 2.32 2.32 0 0 1-1.321 2.296 2.83 2.83 0 0 1-3.28-1.134c-.04-.048-.139-.041-.132.033.173 1.841 2.758 2.624 4.275 1.616-.772 4.498.194 9.8 4.271 11.875a8.51 8.51 0 0 0 9.57-1.191 8.5 8.5 0 0 0 2.036-2.717c.261-.533-.531-1.004-.802-.47a7.55 7.55 0 0 1-9.342 3.92c-4.075-1.313-5.346-5.958-5.028-9.809a20.5 20.5 0 0 1 2.036-7.094 10.1 10.1 0 0 1 3.621-4.432 8.88 8.88 0 0 1 6.47-1.075c3.57.77 5.664 4.958 5.338 8.316-.018.176.236.184.289.038 1.272-3.487-1.419-7.947-4.817-9.117"/><path fill="#191919" d="M117.342 82.034c-1.239.956-2.446 2.035-4.088 2.132-2.899.177-5.719-3.33-3.742-8.58.975-2.587 3.104-6.184 6.223-6.282a3.59 3.59 0 0 1 3.28 1.85c.403.795.188 1.635.478 2.425.082.228.456.347.579.077.784-1.727-.426-3.854-1.951-4.706-2.296-1.281-4.91-.246-6.554 1.581-3.011 3.35-5.797 10.53-.99 13.67 2.4 1.57 5.368.178 6.989-1.87.125-.15-.039-.44-.224-.297M58.068 65.489a10.1 10.1 0 0 1 3.505.175c5.4.666 10.78 2.056 14.241 1.82.127-.01.178-.21.031-.237-2.398-.458-4.865-.533-7.276-.948-2.309-.396-4.608-.852-6.928-1.16a12.5 12.5 0 0 0-3.614-.291 2.3 2.3 0 0 0-2.132-.957c-2.758.017-3.35 3.007-2.313 4.773.328.559.743 1.06 1.23 1.487a.64.64 0 0 1 .184.71c-.31.832-1.008 2.676-1.578 3.956a.35.35 0 0 0 .314.496c1.61.043 3.29.106 4.896.072a.35.35 0 0 0 .318-.478c-.549-1.416-.857-2.738-1.419-4.106a.63.63 0 0 1 .18-.729 2.25 2.25 0 0 0 .772-1.8c1.312.5-.142 2.413.357 3.334.287.533 1.694.752 2.225.623.95-.231.69-2.659 1-3.174.19-.323 1.536.096 1.584.182a3.4 3.4 0 0 1-.155.76c-.134.739-.738 2.065.188 2.398a7 7 0 0 0 1.066.09q.412.127.841.174c.92-.071.703-1.486.853-2.204.213-1.026.743-.756 1.576-.6 2.498.557 5.023.99 7.564 1.293.346.029.432-.56.082-.613-2.05-.31-4.073-.61-6.097-1.057a13 13 0 0 0-2.964-.603c-.61.026-.638.47-.738 1.002a6.6 6.6 0 0 1-.292 1.797c-.254.38-.622.164-1.031.128-.98-.088-.621-.569-.599-.702.09-.537.625-1.92.134-2.372a5.4 5.4 0 0 0-2.05-.462c-.347.052-.402.224-.502.524q-.174.671-.275 1.356c-.059.279.066 1.629-1.02 1.312-.612-.241-.69-.328-.762-.992s.303-1.38.224-2.032c-.059-.5-.208-.546-.71-.664-.539-.127-1.171-.07-1.622-.45-.904-.757-.108-1.62.712-1.831m40.139.692v.147c0 .013.022.013.022 0q-.002-.073.007-.147c0-.015-.029-.017-.029 0m-64.03 42.267s43.345-.559 43.766-.467-.103 2.895-1.394 2.887-40.012.304-40.638.057c-.627-.248-2.402-2.468-1.734-2.477m90.335-38.727c1.466.017 11.777-1.157 13.224-1.01 1.481.151 20.438 3.98 21.912 3.916.111 0 .182-.177.063-.232-1.371-.624-20.038-4.264-21.789-4.42-1.51-.132-10.805.58-13.425 1.613a.07.07 0 0 0-.049.073.06.06 0 0 0 .021.042.07.07 0 0 0 .043.018"/><path fill="#191919" d="M118.09 76.691c11.234.508 16.318-4.96 24.239-3.362.351.07.844.066.919-.283.082-.37-.427-.52-.798-.6a14.6 14.6 0 0 0-8.922.554 53.3 53.3 0 0 1-15.438 3.526.08.08 0 0 0-.058.025.08.08 0 0 0-.024.058.08.08 0 0 0 .024.058.08.08 0 0 0 .058.024"/><path fill="#191919" d="M119.047 78.944c3.654 4.169 10.505 2.442 15.138 1.63 4.564-.8 8.25 1.24 12.669 1.805 1.544.2 3.503.37 4.941-.346.258-.13.096-.458-.132-.486-.984-.12-2.488.383-5.703-.282-1.988-.41-3.842-1.148-5.786-1.674-4.885-1.312-9.676 1.558-14.508 1.16-5.89-.483-7.737-4.1-7.854-4.1.277.83.694 1.605 1.235 2.293m2.277 8.036c3.395.174 6.8.34 10.168.806 4.693.649 9.151 2.792 13.954 2.505s9.363-2.235 14.198-2.275a.26.26 0 0 0 .153-.055.26.26 0 0 0 .089-.134.26.26 0 0 0-.112-.286c-2.556-1.331-4.728.014-8.209.71-2.974.591-5.863 1.411-8.887 1.006-3.731-.5-7.258-1.944-11.005-2.416a39.3 39.3 0 0 0-10.383-.087c-.128.022-.089.22.034.225M19.218 126.104q.002 0 .005-.003l.002-.006-.002-.006-.005-.003q-.003 0-.005.003l-.002.006.002.006zm57.74-3.087c-.738-.011-1.98-.02-3.62-.027-.395-.988.172.481-1.427-3.55 1.437 0 2.538 0 3.212.009a.253.253 0 0 0 .254-.255.253.253 0 0 0-.254-.254c-.69-.01-1.87-.019-3.423-.025-.374-.902-.497-1.041-.796-1.2a.18.18 0 0 0-.157-.01.18.18 0 0 0-.106.115c-.096.275-.108.442.117 1.091-2.875-.009-6.765-.015-11.11-.016a7.7 7.7 0 0 0-.667-1.467.17.17 0 0 0-.082-.067.168.168 0 0 0-.232.149q.017.699.164 1.382c-3.699 0-7.695 0-11.658.009l-.061-1.047a.192.192 0 0 0-.383 0q-.053.525-.103 1.048c-4.13.005-8.2.014-11.845.026a2.1 2.1 0 0 0-.125-.936c-.035-.088-.15-.146-.223-.061a2.1 2.1 0 0 0-.436.999c-4.148.014-7.68.031-10.008.051a6.2 6.2 0 0 0 .593-1.18c.123-.35-.402-.67-.644-.372a25 25 0 0 0-1.153 1.564q-.837.005-1.672.032a.17.17 0 0 0-.118.048.167.167 0 0 0 .118.285q.573.042 1.372.077c-1.948 2.894-1.788 2.583-2.483 3.632q-1.126.005-2.253.035a.167.167 0 0 0-.167.166.167.167 0 0 0 .166.167c.459.032 1.122.06 1.96.082a16 16 0 0 0-1.103 2.01.14.14 0 0 0-.014.108c.01.036.033.068.066.087a.14.14 0 0 0 .108.014.14.14 0 0 0 .086-.066 36 36 0 0 1 1.604-2.132c2.788.063 7.065.088 12.06.093a7.6 7.6 0 0 0-.427 1.943c-.016.239.293.271.41.111a7.5 7.5 0 0 0 .977-2.05c3.986 0 8.38-.009 12.813-.026a4.6 4.6 0 0 0 .23 2.058.29.29 0 0 0 .246.142.28.28 0 0 0 .246-.142 4.6 4.6 0 0 0 .314-2.062c4.364-.017 8.735-.038 12.757-.056.178.64.43 1.257.753 1.838a.255.255 0 0 0 .286.112.26.26 0 0 0 .19-.242 8 8 0 0 0-.27-1.713c4.482-.02 8.48-.036 11.48-.037a9 9 0 0 0 1.11 2.132c.116.155.45.135.423-.114a8.5 8.5 0 0 0-.513-2.019c1.465 0 2.631.007 3.421.02a.253.253 0 0 0 .253-.256.26.26 0 0 0-.076-.18.3.3 0 0 0-.082-.054.3.3 0 0 0-.098-.019m-56.12.046c1.037-1.273 2.08-2.495 2.825-3.581 2.501.082 6.058.118 10.153.132a32 32 0 0 1-1.082 3.394c-4.957.015-9.185.034-11.896.055m12.832-.057c.772-2.601.852-2.624 1.013-3.389 3.684.009 7.762 0 11.877-.019-.185 2.06-.125 2.154-.228 3.381q-6.331.009-12.662.027m13.626-.029c-.047-1.095.01-1.394-.087-3.383 4.018-.018 8.048-.046 11.768-.072.205.799-.035-.211.937 3.443-3.979.004-8.304.006-12.618.012m13.581-.007-1.03-3.455c4.367-.031 8.254-.06 11.108-.071.64 1.678.437 1.035 1.365 3.542a3296 3296 0 0 0-11.443-.016m35.999.686c-.442-.158-.835-.221-2.747-.195a47 47 0 0 0-2.472-4.253 8.6 8.6 0 0 0 2.435-.216.258.258 0 0 0 0-.492 9 9 0 0 0-2.997-.149 64 64 0 0 0-.82-1.199.223.223 0 0 0-.384.224l.56.997c-1.367.05-3.58.144-5.03.21a8 8 0 0 0-1.213-1.51.15.15 0 0 0-.083-.038.15.15 0 0 0-.089.019.15.15 0 0 0-.069.159q.202.73.532 1.412a15 15 0 0 0-2.914.252.17.17 0 0 0-.12.161.17.17 0 0 0 .12.161c1.084.224 2.196.284 3.298.179.438.806.935 1.592 1.346 2.351.332.612.644 1.268.978 1.913a13.5 13.5 0 0 0-3.143.236.16.16 0 0 0-.096.057.16.16 0 0 0 0 .209.17.17 0 0 0 .096.056c1.17.22 2.365.287 3.553.2a9.5 9.5 0 0 0 1.168 1.675c.123.136.318-.012.287-.164a7.7 7.7 0 0 0-.48-1.512c1.744-.007 4.05-.028 5.167-.044q.386.696.878 1.323c.125.164.423.082.355-.148a10 10 0 0 0-.441-1.184 7.6 7.6 0 0 0 2.333-.197.257.257 0 0 0-.008-.493m-8.652-.042c-.4-.796-.868-1.567-1.275-2.306-.34-.613-.683-1.29-1.06-1.95 1.23-.027 2.856-.072 5.036-.132 1.187 2.132 1.88 3.411 2.34 4.25-1.086.016-2.148.052-5.041.135z"/></svg>