<svg xmlns="http://www.w3.org/2000/svg" fill="none" viewBox="0 0 42 42"><rect width="42" height="42" fill="#fff" rx="21"/><rect width="41" height="41" x=".5" y=".5" stroke="#007dfe" stroke-opacity=".537" rx="20.5"/><path stroke="#0078d4" stroke-linecap="round" stroke-linejoin="round" d="M10.5 16.1c0-1.96 0-2.94.382-3.689a3.5 3.5 0 0 1 1.529-1.53c.749-.381 1.729-.381 3.689-.381h9.8c1.96 0 2.94 0 3.689.382a3.5 3.5 0 0 1 1.53 1.529c.381.749.381 1.729.381 3.689v6.65c0 1.63 0 2.446-.266 3.09a3.5 3.5 0 0 1-1.895 1.894C28.696 28 27.881 28 26.25 28c-.57 0-.855 0-1.12.062-.352.084-.68.248-.958.48-.209.174-.38.402-.722.858l-1.703 2.271c-.254.338-.38.507-.536.567a.58.58 0 0 1-.422 0c-.156-.06-.282-.23-.536-.567L18.55 29.4c-.342-.456-.513-.684-.722-.858a2.3 2.3 0 0 0-.959-.48C16.605 28 16.32 28 15.75 28c-1.63 0-2.446 0-3.09-.266a3.5 3.5 0 0 1-1.894-1.895c-.266-.643-.266-1.458-.266-3.089z"/><path stroke="#0078d4" stroke-linecap="round" stroke-linejoin="round" d="M20.997 16.719c-.933-1.06-2.49-1.346-3.658-.375-1.17.971-1.334 2.595-.416 3.744.546.683 1.883 1.907 2.878 2.788.41.363.615.545.862.619a1.2 1.2 0 0 0 .667 0c.247-.074.453-.256.863-.62.994-.88 2.331-2.104 2.877-2.787.918-1.149.774-2.783-.415-3.744-1.19-.96-2.725-.686-3.658.375" clip-rule="evenodd"/></svg>