<svg width="164" height="164" viewBox="0 0 164 164" fill="none" xmlns="http://www.w3.org/2000/svg">
<path d="M111.848 25.1034C103.64 18.9756 92.5779 14.3245 82.5501 15.7366C82.5255 15.7396 82.502 15.7488 82.482 15.7634C82.462 15.778 82.446 15.7975 82.4356 15.82C82.4253 15.8426 82.4209 15.8674 82.4228 15.8921C82.4248 15.9168 82.433 15.9406 82.4468 15.9613C76.6354 18.2573 77.4727 17.9588 77.298 17.9194C71.6883 16.7365 65.8638 17.0829 60.4339 18.9223C60.0239 19.06 59.6057 19.1921 59.2104 19.3667C59.0469 19.4282 58.9027 19.532 58.7926 19.6676C58.6825 19.8032 58.6105 19.9657 58.584 20.1383C58.5134 20.5787 58.5413 19.7357 59.158 30.1825C59.1579 30.2234 59.1739 30.2628 59.2023 30.2921C59.2308 30.3215 59.2696 30.3387 59.3105 30.34C63.332 30.5264 67.2675 31.5683 70.8544 33.3961C74.5567 35.2821 77.3054 38.2169 80.9585 38.1193C83.0273 38.0644 85.0093 37.2517 87.0913 37.6691C88.0818 37.8676 89.0322 38.2259 90.0146 38.4555C95.1043 39.6453 97.6906 35.31 103.413 34.613C106.15 34.2792 106.925 34.9918 107.491 34.2104C107.655 33.9857 110.94 27.2404 111.906 25.3216C111.926 25.2847 111.931 25.2415 111.921 25.2009C111.91 25.1603 111.884 25.1254 111.848 25.1034ZM94.2343 26.4351C94.2109 26.6384 94.1431 26.8341 94.0356 27.0082C93.9281 27.1823 93.7837 27.3306 93.6124 27.4426C93.4412 27.5546 93.2474 27.6275 93.0448 27.6562C92.8422 27.6849 92.6357 27.6686 92.4401 27.6085C91.4307 29.8791 90.1441 32.2743 87.9301 33.4305C87.3638 33.7978 86.6968 33.9788 86.0225 33.9482C85.3482 33.9176 84.7004 33.677 84.1696 33.26C83.6502 32.8067 83.1573 32.3237 82.6936 31.8135C81.7227 30.7311 81.3275 29.6954 79.5686 26.0448C78.5797 26.1424 77.6203 25.2379 77.7367 23.8242C77.7359 23.4427 77.8828 23.0756 78.1467 22.8001C78.2964 22.6723 78.4833 22.5964 78.6797 22.5836C79.2135 21.7833 83.5177 20.8681 86.1187 16.0236C86.1372 15.9932 86.1622 15.9674 86.192 15.9481C86.2218 15.9287 86.2555 15.9164 86.2907 15.9119C86.326 15.9074 86.3618 15.9109 86.3954 15.9221C86.4291 15.9334 86.4598 15.9521 86.4853 15.9768C91.0863 20.19 90.3696 20.7533 92.3311 22.659C92.8287 23.0619 93.2262 23.5747 93.4922 24.1572C93.6513 24.422 94.058 24.2793 94.2121 24.8533C94.3205 25.3743 94.328 25.9113 94.2343 26.4351Z" fill="#38A1FF"/>
<path d="M87.2677 9.61115C86.6625 9.83419 86.4583 10.0867 86.2837 10.122C86.2502 10.1073 86.2171 10.0917 86.1844 10.0753C85.6351 9.77197 85.0236 9.59839 84.3968 9.56783C83.77 9.53728 83.1445 9.65054 82.5682 9.89897C79.3899 11.1806 76.3535 15.5676 76.9275 19.447C76.9827 19.888 77.083 20.3221 77.2268 20.7426C77.3727 21.0854 77.4154 21.9792 77.7917 22.4015C77.4872 22.6805 77.2693 23.0412 77.164 23.4406C77.0588 23.84 77.0706 24.2612 77.1981 24.654C77.2363 25.0871 77.4137 25.4962 77.7039 25.8199C77.9941 26.1437 78.3814 26.3647 78.8077 26.4498C79.8163 26.5523 79.1078 25.5634 79.868 27.5978C80.8667 30.2661 83.1193 34.3038 85.9827 34.549C87.1162 34.5268 88.202 34.0891 89.034 33.319C90.6389 31.9183 91.8537 30.1258 92.5599 28.1161C92.7548 28.1753 92.9604 28.1906 93.1619 28.1608C93.3634 28.131 93.5558 28.0569 93.7252 27.9439C94.2255 27.5556 94.5769 27.0069 94.7203 26.39C94.8636 25.7731 94.7902 25.1256 94.5124 24.5565C94.3336 24.3105 94.3541 24.522 94.6132 24.1924C95.1084 23.4554 95.4901 22.6483 95.7456 21.798C98.0662 14.3343 91.0585 8.21141 87.2677 9.61115ZM79.0094 25.7225C78.5699 25.7988 78.219 25.3945 78.0476 24.9419C77.7491 24.1522 77.7196 23.0198 78.5355 22.7984C79.0111 22.873 78.6437 22.4983 79.0168 24.5278C79.0906 24.9285 79.1778 25.3262 79.2784 25.7209C79.1896 25.7034 79.0981 25.7039 79.0094 25.7225ZM91.8974 27.7487C91.006 29.925 89.9851 31.8905 88.0491 33.1476C87.5504 33.5083 86.9736 33.7463 86.3657 33.8421C83.9057 34.0168 81.6917 30.2186 80.7298 27.9767C80.0412 26.3113 79.5857 24.5588 79.376 22.7689C82.0877 22.331 83.9959 20.0629 85.6957 18.1096C85.9114 17.8636 86.5239 17.1543 86.6125 17.0436C88.3558 20.8706 90.7568 23.1994 92.9937 24.3465C92.7244 25.5094 92.3577 26.6475 91.8974 27.7487ZM92.8142 27.479C93.1688 26.5682 93.4606 25.6342 93.6874 24.6836C94.7428 24.7754 93.9909 27.7881 92.8142 27.479Z" fill="#191919"/>
<path d="M81.886 23.962C82.0271 23.2773 83.0168 23.256 83.3768 24.4335C83.4205 24.584 83.4722 24.7321 83.5317 24.8771C83.5636 24.9305 83.6119 24.972 83.6695 24.9954C83.7271 25.0188 83.7907 25.0227 83.8507 25.0067C84.2845 24.8894 83.9327 24.0227 83.7154 23.6717C82.8799 22.3302 81.2981 22.9755 81.4555 23.9628C81.49 24.1801 81.8426 24.1703 81.886 23.962Z" fill="#191919"/>
<path d="M88.4638 24.6664C88.5244 24.5458 88.5941 24.431 88.663 24.3146C88.7319 24.1982 88.7786 24.0686 88.8516 23.9497C89.1132 23.5307 89.5995 23.2519 89.9939 23.552C90.1096 23.6445 90.2387 23.7189 90.3768 23.7726C90.5933 23.8497 90.8352 23.2388 90.1562 22.9181C89.8373 22.7924 89.483 22.7899 89.1624 22.9112C88.8418 23.0325 88.5778 23.2688 88.4219 23.5741C88.2196 23.8686 88.1183 24.2208 88.1333 24.5778C88.1345 24.6162 88.1481 24.6531 88.1719 24.6831C88.1958 24.7131 88.2286 24.7347 88.2657 24.7446C88.3027 24.7546 88.342 24.7523 88.3776 24.7382C88.4133 24.7241 88.4435 24.6989 88.4638 24.6664Z" fill="#191919"/>
<path d="M86.4565 27.4445C86.1424 27.1436 85.9021 27.3125 85.5258 26.9607C85.4684 26.9084 85.4185 26.8485 85.3773 26.7828C85.4175 26.7196 85.4634 26.6598 85.5044 26.5974C86.1309 25.6769 86.379 24.5505 86.1973 23.4519C86.1465 23.2141 85.8029 23.2838 85.7873 23.5069C85.7803 24.5855 85.4341 25.6347 84.7976 26.5056C84.4179 27.2436 85.9505 28.276 86.454 27.693C86.4865 27.66 86.505 27.6156 86.5054 27.5692C86.5059 27.5229 86.4883 27.4782 86.4565 27.4445Z" fill="#191919"/>
<path d="M85.9976 30.9443C86.479 32.0841 88.5618 31.9619 88.4511 29.7455C88.4404 29.547 88.4511 29.3355 88.2756 29.2092C88.2347 29.1852 88.187 29.1754 88.14 29.1814C88.093 29.1873 88.0493 29.2086 88.0156 29.242C87.8451 29.4273 87.9738 29.6077 87.9336 30.1907C87.8516 31.3584 86.7553 31.4494 86.3092 30.7647C86.2835 30.7274 86.2447 30.7011 86.2004 30.6911C86.1562 30.6811 86.1098 30.6881 86.0705 30.7107C86.0313 30.7334 86.0019 30.77 85.9884 30.8133C85.9749 30.8565 85.9782 30.9033 85.9976 30.9443Z" fill="#191919"/>
<path d="M56.8708 20.172C49.44 19.8752 40.9136 20.5976 34.9662 25.1142C31.2376 27.9456 28.0281 32.5761 26.0544 36.8401C25.9186 37.1334 25.8113 37.4391 25.7338 37.7528C25.7211 37.8261 25.7338 37.9014 25.7696 37.9665C25.8054 38.0317 25.8622 38.0827 25.9309 38.1113C25.9995 38.1399 26.0757 38.1443 26.1472 38.1239C26.2187 38.1035 26.2811 38.0594 26.3242 37.9988C26.8449 37.2149 29.5755 30.6303 34.789 26.2859C41.1153 21.0141 49.2301 21.1478 56.8708 20.4861C56.9091 20.4813 56.9443 20.4627 56.9698 20.4338C56.9953 20.4048 57.0094 20.3676 57.0094 20.329C57.0094 20.2905 56.9953 20.2532 56.9698 20.2243C56.9443 20.1954 56.9091 20.1768 56.8708 20.172Z" fill="#191919"/>
<path d="M27.4503 40.2357C27.5323 40.1668 36.9779 31.9972 40.2284 30.5302C42.1539 29.8228 44.1791 29.4237 46.2291 29.3478C55.4804 28.4097 55.5386 28.8779 57.1933 28.5114C57.2305 28.5004 57.2631 28.4777 57.2863 28.4466C57.3094 28.4156 57.322 28.3779 57.322 28.3392C57.322 28.3004 57.3094 28.2627 57.2863 28.2317C57.2631 28.2007 57.2305 28.1779 57.1933 28.167C55.4066 27.7315 48.817 28.3982 46.9638 28.5819C42.4514 29.028 40.7458 29.11 37.8741 31.16C34.096 33.8268 30.5133 36.7603 27.1535 39.9381C26.9599 40.1349 27.2453 40.4022 27.4503 40.2357Z" fill="#191919"/>
<path d="M34.8499 52.6006C34.2464 50.7867 32.4818 49.774 30.8319 48.7859C29.811 48.175 29.9078 48.2849 30.0119 48.2464C30.1911 48.183 30.3508 48.0741 30.4751 47.9303C30.5995 47.7865 30.6843 47.6129 30.7212 47.4264C30.7934 46.7263 30.6391 46.0216 30.2809 45.4157C28.1415 40.8311 20.8976 37.7897 15.329 40.4539C4.76986 45.51 7.54392 63.6853 19.4028 63.2876C21.16 63.2286 23.0534 62.9506 24.4294 61.8436C24.6609 61.6228 24.8652 61.375 25.0378 61.1056C29.0197 61.8649 31.8881 61.8362 33.7651 58.2988C34.7056 56.53 35.4813 54.512 34.8499 52.6006ZM34.2981 54.1824C34.0995 55.9605 33.441 57.6562 32.3875 59.1024C31.196 60.5857 29.5134 60.9252 27.6208 60.7907C24.9148 60.598 20.3367 59.2606 20.208 59.2811C19.1763 58.7792 18.2991 58.0083 17.6689 57.0496C17.0387 56.0909 16.6788 54.98 16.6271 53.8339C16.4696 50.7638 17.5897 48.0996 20.5942 47.1648C23.5405 46.2489 26.4211 47.3542 29.1304 48.8302C30.3525 49.4779 31.5304 50.2057 32.6564 51.009C33.183 51.3489 33.6115 51.8205 33.8995 52.3772C34.1875 52.9339 34.3249 53.5562 34.2981 54.1824Z" fill="#191919"/>
<path d="M19.8513 54.1848C19.9973 53.9388 19.716 53.7092 19.4848 53.8183C19.2293 53.9246 19.0132 54.1077 18.8665 54.3423C18.6894 54.6564 18.6019 55.013 18.6133 55.3734C18.6247 55.7338 18.7347 56.0842 18.9313 56.3865C18.9816 56.4758 19.0491 56.5543 19.1299 56.6175C19.2107 56.6807 19.3031 56.7273 19.402 56.7547C19.4739 56.7736 19.5495 56.7734 19.6213 56.754C19.6931 56.7345 19.7586 56.6967 19.8112 56.6441C19.8638 56.5915 19.9017 56.526 19.9211 56.4542C19.9405 56.3824 19.9408 56.3067 19.9218 56.2348C19.699 55.9426 19.5724 55.5883 19.5598 55.221C19.5472 54.8538 19.649 54.4916 19.8513 54.1848Z" fill="#191919"/>
<path d="M21.7545 49.7625C21.7744 49.8327 21.819 49.8933 21.8802 49.9332C21.9413 49.9732 22.0147 49.9896 22.087 49.9797C22.1593 49.9697 22.2256 49.9339 22.2736 49.8789C22.3216 49.8239 22.3481 49.7535 22.3482 49.6805C22.3591 49.4752 22.4125 49.2744 22.5051 49.0909C22.5977 48.9074 22.7275 48.7452 22.8861 48.6145C23.3224 48.3291 23.5183 48.43 23.7389 48.2373C23.9242 48.0733 23.9333 47.9208 23.8595 47.8068C23.3224 46.9794 21.2125 48.2455 21.7545 49.7625Z" fill="#191919"/>
<path d="M23.155 56.2749C22.9811 56.1642 22.868 56.2635 22.5629 56.0609C22.4457 55.9428 22.3989 55.8362 22.6023 55.6468C22.7122 55.5722 22.7228 55.5788 22.9754 55.5287C23.0245 55.5312 23.073 55.5173 23.1134 55.4893C23.1537 55.4613 23.1837 55.4206 23.1985 55.3738C23.2133 55.3269 23.2121 55.2765 23.1952 55.2303C23.1783 55.1842 23.1465 55.1449 23.105 55.1187C23.01 55.0685 22.9048 55.0404 22.7975 55.0367C22.6418 55.0457 22.4905 55.0908 22.3553 55.1684C22.2201 55.2459 22.1048 55.3539 22.0185 55.4836C21.9605 55.5794 21.922 55.6856 21.9052 55.7963C21.8883 55.9069 21.8935 56.0198 21.9204 56.1284C21.9473 56.237 21.9954 56.3393 22.0619 56.4293C22.1284 56.5193 22.212 56.5953 22.3079 56.653C22.5358 56.803 22.8054 56.8768 23.0779 56.8637C23.1372 56.8448 23.19 56.8093 23.2299 56.7615C23.2698 56.7137 23.2953 56.6556 23.3034 56.5938C23.3115 56.532 23.3018 56.4693 23.2755 56.4128C23.2493 56.3563 23.2074 56.3085 23.155 56.2749Z" fill="#191919"/>
<path d="M25.0288 51.6239C25.0728 51.6233 25.1156 51.6099 25.1519 51.5853C25.1883 51.5607 25.2167 51.5259 25.2335 51.4854C25.2504 51.4448 25.2549 51.4002 25.2467 51.357C25.2384 51.3139 25.2177 51.2741 25.1871 51.2426C24.8591 50.9704 24.7189 50.6169 24.9411 50.4078C25.2797 50.2012 25.7447 50.4718 25.8365 50.0643C25.8498 50.0215 25.8541 49.9764 25.8493 49.9319C25.8444 49.8873 25.8305 49.8442 25.8084 49.8053C25.7863 49.7663 25.7564 49.7323 25.7206 49.7054C25.6848 49.6784 25.6439 49.6591 25.6004 49.6485C25.2917 49.5948 24.974 49.6381 24.691 49.7723C24.5209 49.8811 24.3871 50.038 24.3065 50.223C24.2259 50.4081 24.2022 50.6129 24.2384 50.8115C24.2747 51.0101 24.3692 51.1934 24.5099 51.338C24.6507 51.4827 24.8313 51.5822 25.0288 51.6239Z" fill="#191919"/>
<path d="M27.911 54.8907C28.1049 54.5917 28.1928 54.2362 28.1605 53.8813C28.1282 53.5264 27.9777 53.1926 27.7331 52.9334C27.6936 52.8964 27.6442 52.8715 27.5909 52.8617C27.5376 52.852 27.4827 52.8578 27.4326 52.8785C27.3825 52.8992 27.3394 52.9338 27.3085 52.9783C27.2776 53.0228 27.2602 53.0752 27.2583 53.1294C27.2624 53.605 27.7003 54.0273 27.3682 54.466C27.2911 54.5348 27.2903 54.5578 27.1837 54.5832C26.9656 54.5718 26.9123 54.4725 26.4096 54.1281C25.0119 53.1411 23.3753 52.5465 21.67 52.4061C21.6147 52.4082 21.5619 52.4297 21.5209 52.4669C21.4799 52.504 21.4533 52.5544 21.4458 52.6092C21.4383 52.6641 21.4503 52.7198 21.4797 52.7666C21.5092 52.8134 21.5542 52.8484 21.6069 52.8653C22.7201 53.1365 23.8035 53.5181 24.8409 54.0043C26.3087 54.7571 26.5629 55.2827 27.1632 55.277C27.3088 55.2728 27.4516 55.2359 27.5811 55.169C27.7105 55.1022 27.8233 55.0071 27.911 54.8907Z" fill="#191919"/>
<path d="M29.9301 52.3676C29.7579 52.3381 29.2044 52.4808 29.1773 52.7235C29.0084 54.2173 28.56 55.666 27.8555 56.9941C27.8085 57.0766 27.7957 57.1743 27.8197 57.2663C27.8438 57.3582 27.9028 57.4371 27.9842 57.4861C28.5946 57.8619 29.3134 58.0223 30.0256 57.9418C30.7379 57.8612 31.4026 57.5443 31.9137 57.0416C33.5381 55.2622 32.3311 52.7842 29.9301 52.3676ZM31.9088 55.432C31.8442 55.7776 31.6995 56.1033 31.4864 56.3831C31.2733 56.6628 30.9976 56.8887 30.6815 57.0427C30.3653 57.1967 30.0175 57.2745 29.6659 57.2699C29.3143 57.2653 28.9686 57.1784 28.6566 57.0162C29.166 56.0497 29.4966 54.999 29.6324 53.915C29.6619 53.6148 29.6578 53.3122 29.6201 53.013C29.7251 53.0728 32.0449 53.4033 31.9088 55.432Z" fill="#191919"/>
<path d="M55.8541 15.5374C57.0841 15.3881 60.2649 14.3722 63.5867 15.2438C63.9007 15.3699 64.2389 15.424 64.5765 15.4021C64.6153 15.4007 64.6528 15.3882 64.6847 15.366C64.7166 15.3439 64.7414 15.3131 64.7563 15.2772C64.7711 15.2414 64.7754 15.202 64.7685 15.1638C64.7616 15.1256 64.744 15.0902 64.7175 15.0618C64.63 14.9385 64.5021 14.8497 64.3559 14.8109C62.2649 13.8884 57.6991 14.2114 55.741 15.1192C55.6998 15.1449 55.6679 15.1832 55.6502 15.2284C55.6324 15.2736 55.6297 15.3234 55.6424 15.3703C55.6551 15.4172 55.6825 15.4587 55.7206 15.4888C55.7588 15.5189 55.8056 15.5359 55.8541 15.5374Z" fill="#191919"/>
<path d="M41.8773 68.634C40.3693 66.6504 37.0328 65.3236 34.5867 64.8144C34.4868 64.7898 34.3812 64.8052 34.2924 64.8573C34.2036 64.9094 34.1386 64.994 34.1113 65.0932C34.084 65.1924 34.0964 65.2984 34.146 65.3886C34.1956 65.4788 34.2784 65.5461 34.3768 65.5762C36.4652 65.989 38.4453 66.8302 40.1922 68.0468C43.1557 70.2608 42.2168 73.6228 39.1147 73.549C36.8187 73.4925 34.9754 71.3351 32.3522 69.1498C32.3012 69.0989 32.2321 69.0703 32.16 69.0704C32.088 69.0705 32.0189 69.0992 31.968 69.1502C31.9171 69.2012 31.8886 69.2703 31.8887 69.3423C31.8887 69.4144 31.9174 69.4834 31.9684 69.5343C32.5595 70.2451 33.2102 70.904 33.9135 71.504C35.0922 72.7333 36.5522 73.6575 38.1676 74.1968C38.8533 74.386 39.5775 74.3851 40.2626 74.1941C40.9477 74.0032 41.568 73.6294 42.0569 73.1128C42.5303 72.453 42.7697 71.6539 42.7372 70.8425C42.7047 70.0311 42.402 69.2538 41.8773 68.634ZM38.7088 73.5212C38.7375 73.5212 38.7375 73.5212 38.7088 73.5212V73.5212Z" fill="#191919"/>
<path d="M45.6804 54.2019C44.0005 53.4399 42.155 53.1154 40.3159 53.2589C40.2617 53.2565 40.2075 53.2651 40.1567 53.2841C40.1058 53.3032 40.0594 53.3324 40.0201 53.3699C39.9809 53.4074 39.9497 53.4525 39.9283 53.5024C39.907 53.5523 39.896 53.606 39.896 53.6603C39.896 53.7146 39.907 53.7684 39.9283 53.8183C39.9497 53.8682 39.9809 53.9133 40.0201 53.9508C40.0594 53.9883 40.1058 54.0175 40.1567 54.0365C40.2075 54.0556 40.2617 54.0642 40.3159 54.0617C42.3659 54.0109 44.4627 54.0953 46.0805 55.3582C48.101 56.9367 47.923 59.1834 46.7537 59.9059C44.4577 61.3245 39.7247 57.1121 38.9465 56.6193C38.8882 56.5853 38.8195 56.5737 38.7533 56.5866C38.6871 56.5996 38.6278 56.6361 38.5866 56.6895C38.5453 56.7429 38.5249 56.8095 38.5291 56.8769C38.5333 56.9442 38.5619 57.0077 38.6095 57.0555C38.8609 57.3576 39.1478 57.6282 39.4639 57.8616C41.2745 59.3622 44.5397 61.618 46.7267 60.7488C49.0604 59.8181 49.0776 56.0059 45.6804 54.2019Z" fill="#191919"/>
<path d="M42.0411 55.678C41.9591 56.334 41.8582 56.9859 41.8049 57.646C41.8063 57.7214 41.8296 57.7947 41.8721 57.8571C41.9145 57.9194 41.9743 57.9679 42.0439 57.9968C42.1136 58.0256 42.1902 58.0335 42.2643 58.0194C42.3384 58.0052 42.4067 57.9698 42.4609 57.9174C42.7889 57.5591 43.1079 57.2024 43.4302 56.8432C43.4523 57.532 43.3146 58.2306 43.6073 58.5718C43.6519 58.6237 43.7067 58.666 43.7683 58.696C43.8299 58.726 43.8969 58.743 43.9653 58.7462C44.0338 58.7493 44.1021 58.7385 44.1662 58.7143C44.2302 58.69 44.2887 58.653 44.3379 58.6054C44.6181 58.2465 44.8618 57.8606 45.0653 57.4533C45.2096 57.2385 45.3376 57.0132 45.4482 56.7792C45.4696 56.7015 45.4646 56.6188 45.4342 56.5441C45.4037 56.4694 45.3493 56.4069 45.2796 56.3663C45.2099 56.3257 45.1288 56.3093 45.0488 56.3196C44.9688 56.3299 44.8944 56.3664 44.8373 56.4234C44.6012 56.7428 44.3862 57.0772 44.1936 57.4246C44.2557 56.8802 44.1854 56.3288 43.9886 55.8174C43.9586 55.766 43.9172 55.7221 43.8677 55.6891C43.8182 55.6561 43.7618 55.6348 43.7028 55.6269C43.6438 55.619 43.5838 55.6247 43.5273 55.6435C43.4708 55.6623 43.4194 55.6937 43.3769 55.7354C43.1216 56.0175 42.8679 56.3006 42.6159 56.5849C42.6225 56.2823 42.6249 55.9806 42.6323 55.6772C42.6323 55.6383 42.6246 55.5999 42.6097 55.5641C42.5947 55.5282 42.5729 55.4957 42.5454 55.4682C42.518 55.4408 42.4853 55.4191 42.4494 55.4043C42.4136 55.3895 42.3751 55.3819 42.3363 55.382C42.2975 55.382 42.259 55.3897 42.2232 55.4046C42.1874 55.4195 42.1548 55.4413 42.1274 55.4688C42.1 55.4963 42.0782 55.5289 42.0634 55.5648C42.0486 55.6007 42.041 55.6392 42.0411 55.678Z" fill="#191919"/>
<path d="M36.5499 68.7504C36.549 68.6794 36.5227 68.6111 36.4758 68.5578C36.4288 68.5046 36.3643 68.4699 36.294 68.4601C36.2229 68.4487 36.15 68.464 36.0895 68.503C36.0289 68.5421 35.985 68.6022 35.966 68.6717C35.844 69.3473 35.7662 70.0302 35.7332 70.7159C35.7351 70.7892 35.7582 70.8603 35.7996 70.9207C35.8411 70.981 35.8992 71.0281 35.9669 71.0561C36.0346 71.0842 36.109 71.092 36.181 71.0786C36.253 71.0652 36.3196 71.0312 36.3728 70.9808C36.6516 70.6766 36.9295 70.3699 37.2067 70.064L37.3182 71.6032C37.3197 71.6714 37.3388 71.738 37.3736 71.7967C37.4084 71.8553 37.4577 71.904 37.5169 71.938C37.576 71.972 37.6429 71.9901 37.7111 71.9906C37.7793 71.9912 37.8465 71.9741 37.9062 71.941C38.5499 71.5876 38.7581 70.8521 39.114 70.3724C39.2657 70.1944 39.3961 70.105 39.3289 70.1542C39.4079 70.0995 39.4633 70.0169 39.484 69.923C39.5048 69.8292 39.4893 69.7309 39.4406 69.648C39.392 69.565 39.3139 69.5035 39.2218 69.4758C39.1298 69.448 39.0306 69.456 38.9443 69.4982C38.5457 69.8039 38.2306 70.2053 38.0283 70.6651L37.9152 69.1317C37.9139 69.0553 37.8904 68.981 37.8474 68.9178C37.8045 68.8546 37.744 68.8053 37.6735 68.7761C37.6029 68.7468 37.5253 68.7388 37.4502 68.753C37.3752 68.7673 37.3059 68.8031 37.251 68.8562C37.014 69.1202 36.7787 69.3867 36.5441 69.6524C36.5646 69.3498 36.5556 69.0513 36.5499 68.7504Z" fill="#191919"/>
<path d="M78.1456 38.6047C78.1642 38.5356 78.1571 38.4622 78.1257 38.3979C78.0943 38.3337 78.0407 38.283 77.9748 38.2552C77.9089 38.2274 77.8352 38.2244 77.7673 38.2467C77.6993 38.2691 77.6418 38.3153 77.6052 38.3767C76.586 40.398 75.9242 46.1913 76.5114 47.1278C76.5308 47.1599 76.5582 47.1864 76.5909 47.2048C76.6235 47.2232 76.6604 47.2329 76.6979 47.2329C76.7354 47.2329 76.7723 47.2232 76.805 47.2048C76.8377 47.1864 76.865 47.1599 76.8845 47.1278C76.9231 47.0601 76.956 46.9893 76.9829 46.9162C76.9993 46.8531 77.0116 46.3275 77.0099 46.2602C76.97 43.6636 77.3536 41.0779 78.1456 38.6047Z" fill="#191919"/>
<path d="M82.3281 38.8679C82.3486 38.599 81.9271 38.5481 81.8631 38.8048C81.1374 41.7142 82.8471 45.3476 82.3953 48.4628C82.3281 48.9285 82.1608 49.3295 82.3133 49.5763C82.3488 49.6333 82.4048 49.6745 82.4697 49.6916C82.5347 49.7087 82.6037 49.7003 82.6626 49.6682C82.9422 49.5353 83.0283 48.9539 83.0726 48.6497C83.5515 45.4509 82.0435 42.608 82.3281 38.8679Z" fill="#191919"/>
<path d="M80.7758 47.2706C80.7917 47.7388 80.7485 48.2072 80.6471 48.6646C80.6001 48.8367 80.581 49.0153 80.5905 49.1935C80.6487 49.6428 81.5146 49.8634 81.2621 47.273C81.2534 47.2149 81.2243 47.1618 81.1798 47.1233C81.1354 47.0849 81.0787 47.0635 81.02 47.0632C80.9612 47.0629 80.9043 47.0837 80.8595 47.1217C80.8147 47.1597 80.785 47.2125 80.7758 47.2706Z" fill="#191919"/>
<path d="M79.5925 47.3632C79.244 48.6473 79.2407 48.5932 79.2858 48.913C79.3003 48.957 79.3269 48.996 79.3626 49.0255C79.3983 49.055 79.4416 49.0738 79.4875 49.0798C79.5334 49.0858 79.5801 49.0787 79.6221 49.0594C79.6642 49.04 79.7 49.0092 79.7253 48.9704C79.8729 48.7605 79.8696 48.7179 80.1173 47.5067C80.1332 47.4382 80.1219 47.3661 80.0858 47.3057C80.0498 47.2453 79.9917 47.2012 79.9239 47.1826C79.856 47.1641 79.7836 47.1725 79.7218 47.2062C79.66 47.2398 79.6136 47.2961 79.5925 47.3632Z" fill="#191919"/>
<path d="M78.0827 46.8844C78.0089 46.8735 77.9338 46.89 77.8714 46.9308C77.809 46.9716 77.7637 47.0338 77.744 47.1058C77.58 48.0447 77.4865 48.3399 77.6571 48.7408C77.6694 48.7795 77.6924 48.8138 77.7235 48.8398C77.7546 48.8658 77.7925 48.8824 77.8327 48.8876C77.8729 48.8929 77.9137 48.8866 77.9504 48.8694C77.9872 48.8523 78.0182 48.825 78.04 48.7909C78.3024 48.4415 78.291 48.0455 78.3516 47.1886C78.3513 47.1139 78.3238 47.0419 78.2743 46.9859C78.2248 46.93 78.1568 46.8939 78.0827 46.8844Z" fill="#191919"/>
<path d="M91.3239 48.0389C90.5104 45.1631 91.3091 41.6035 90.6679 39.032C90.6014 38.7639 90.1472 38.8114 90.1759 39.0984C90.5342 42.7466 89.6773 46.1152 90.9319 49.127C91.0439 49.5408 91.2863 49.9074 91.6232 50.1725C91.663 50.1951 91.708 50.2068 91.7538 50.2066C91.7996 50.2064 91.8445 50.1943 91.8841 50.1715C91.9238 50.1486 91.9568 50.1158 91.9799 50.0763C92.003 50.0368 92.0155 49.992 92.0159 49.9462C91.9807 49.3976 91.6756 49.2713 91.3239 48.0389Z" fill="#191919"/>
<path d="M93.4707 48.4875C93.4141 48.3514 93.1944 47.6773 93.1804 47.6347C93.1663 47.5886 93.1362 47.549 93.0956 47.523C93.0549 47.497 93.0064 47.4863 92.9586 47.4928C92.9108 47.4993 92.8669 47.5226 92.8346 47.5585C92.8024 47.5944 92.784 47.6406 92.7827 47.6888C92.8036 48.3694 93.0464 49.0244 93.474 49.5543C93.5166 49.5974 93.5737 49.6233 93.6342 49.6269C93.6947 49.6306 93.7545 49.6117 93.802 49.574C94.0718 49.3641 93.7356 49.1254 93.4707 48.4875Z" fill="#191919"/>
<path d="M95.1501 48.3529C94.9536 47.985 94.789 47.601 94.6581 47.2049C94.6395 47.1478 94.5995 47.1 94.5466 47.0715C94.4937 47.043 94.4318 47.036 94.3739 47.0519C94.3159 47.0679 94.2663 47.1055 94.2354 47.1571C94.2045 47.2086 94.1946 47.2701 94.2079 47.3287C94.2876 47.7802 94.4703 48.2073 94.7417 48.5768C94.9959 48.8416 95.2837 48.6826 95.1501 48.3529Z" fill="#191919"/>
<path d="M96.2681 47.6076C96.1082 47.3536 95.9869 47.0772 95.9081 46.7876C95.8902 46.7223 95.847 46.6669 95.7882 46.6334C95.7294 46.6 95.6597 46.5913 95.5945 46.6092C95.5292 46.6272 95.4738 46.6703 95.4403 46.7291C95.4069 46.7879 95.3982 46.8576 95.4161 46.9229C95.7425 48.5186 96.5502 48.1398 96.2681 47.6076Z" fill="#191919"/>
<path d="M97.4086 46.3505C96.7018 43.9487 96.7346 40.8688 95.2766 38.6425C95.248 38.6008 95.2047 38.5715 95.1553 38.5605C95.1059 38.5495 95.0542 38.5575 95.0106 38.5831C94.9669 38.6087 94.9346 38.6498 94.9201 38.6982C94.9055 38.7467 94.9099 38.7988 94.9322 38.8442C96.1622 41.1796 95.9523 43.8708 96.7018 46.4825C96.7961 46.8105 96.8748 47.2582 97.1774 47.4558C97.2152 47.4776 97.2575 47.4904 97.301 47.4934C97.3445 47.4964 97.3882 47.4894 97.4286 47.4731C97.469 47.4567 97.5052 47.4314 97.5344 47.399C97.5637 47.3666 97.5851 47.328 97.5972 47.2861C97.6167 46.9631 97.5517 46.6407 97.4086 46.3505Z" fill="#191919"/>
<path d="M34.9842 136.401C34.4168 139.868 34.1954 143.677 36.0806 146.641C40.229 153.164 52.374 152.674 57.3727 139.5C59.139 134.844 60.8167 132.406 61.2956 129.929C61.6192 128.538 61.4057 127.075 60.6978 125.835C59.9557 124.84 59.0039 124.02 57.9098 123.434C54.0984 121.021 50.8963 119.035 46.4454 118.314C42.4274 117.662 42.0174 119.366 40.3872 120.492C39.4778 121.12 38.3667 121.394 37.4262 121.968C36.7305 122.405 36.1472 123 35.7234 123.704C35.2995 124.408 35.0469 125.201 34.9859 126.021C35.0364 127.396 35.2134 128.764 35.5148 130.108C35.6336 132.22 35.455 134.339 34.9842 136.401ZM38.8628 132.515C39.2088 131.664 39.7014 130.88 40.3183 130.199C42.3954 127.721 45.167 125.607 48.3781 125.222C51.5892 124.838 52.8061 126.837 53.4293 130.066C54.1157 133.628 54.3789 137.423 52.228 140.363C51.0661 140.98 50.3724 141.616 49.0243 141.373C47.8523 141.039 46.7662 140.457 45.8402 139.665C41.9501 136.929 39.8542 137.02 38.9235 135.191C38.7335 134.771 38.6302 134.318 38.6198 133.858C38.6093 133.397 38.692 132.94 38.8628 132.512V132.515Z" fill="#38A1FF"/>
<path d="M50.7814 136.63C50.5141 137.178 49.7293 137.245 49.5744 136.664C49.4924 136.368 49.5744 135.96 49.3087 135.8C49.2578 135.771 49.2007 135.754 49.142 135.751C49.0834 135.748 49.0249 135.759 48.9714 135.783C48.9178 135.807 48.8707 135.844 48.8338 135.889C48.797 135.935 48.7714 135.989 48.7593 136.046C48.6963 136.341 48.7182 136.648 48.8224 136.931C48.8939 137.209 49.0611 137.453 49.2946 137.62C49.5281 137.788 49.8131 137.867 50.0995 137.845C50.3858 137.823 50.6553 137.701 50.8605 137.5C51.0658 137.299 51.1937 137.032 51.2217 136.746C51.22 136.695 51.2019 136.646 51.17 136.606C51.1382 136.566 51.0943 136.538 51.0449 136.524C50.9954 136.511 50.9431 136.515 50.8957 136.534C50.8482 136.553 50.8081 136.586 50.7814 136.63Z" fill="#191919"/>
<path d="M43.5576 133.845C43.5002 133.821 43.4359 133.818 43.3766 133.838C43.3173 133.857 43.2671 133.897 43.2353 133.951C43.1979 134.006 43.1483 134.052 43.0903 134.085C43.0324 134.117 42.9676 134.136 42.9011 134.14C42.8346 134.143 42.7683 134.131 42.7072 134.105C42.6461 134.078 42.5919 134.038 42.549 133.987C42.239 133.539 42.5063 133.375 42.5227 132.833C42.5318 132.505 42.2587 132.415 42.0529 132.575C41.9459 132.645 41.8564 132.738 41.7914 132.848C41.7265 132.958 41.6877 133.082 41.6781 133.209C41.4756 134.336 42.3653 135.061 43.1304 134.801C43.5994 134.644 43.9159 133.988 43.5576 133.845Z" fill="#191919"/>
<path d="M49.4459 132.747L48.8456 132.211C48.6456 132.033 48.3069 131.652 48.0256 131.934C47.9674 132.004 47.9368 132.094 47.9397 132.185C47.9426 132.277 47.9787 132.364 48.0412 132.431C48.0937 132.49 48.3799 132.727 48.6759 132.982C47.69 133.763 46.8886 134.753 46.3291 135.88C46.3012 135.932 46.2948 135.994 46.3111 136.051C46.3274 136.108 46.3652 136.157 46.4165 136.187C46.4679 136.217 46.5289 136.226 46.5867 136.212C46.6445 136.198 46.6947 136.162 46.7268 136.112C46.9154 135.84 47.1286 135.59 47.3278 135.326C47.905 134.546 48.596 133.857 49.3778 133.283C49.422 133.256 49.4595 133.219 49.4876 133.176C49.5158 133.132 49.5337 133.083 49.5403 133.031C49.5468 132.98 49.5417 132.928 49.5254 132.879C49.509 132.829 49.4819 132.785 49.4459 132.747Z" fill="#191919"/>
<path d="M47.3137 130.779C47.7235 130.624 48.1598 130.552 48.5978 130.566C49.0357 130.58 49.4665 130.68 49.8655 130.861C49.847 130.95 49.8605 131.042 49.9037 131.122C49.9468 131.201 50.0168 131.263 50.1012 131.295C50.1855 131.328 50.2787 131.329 50.3642 131.3C50.4496 131.27 50.5216 131.211 50.5674 131.133C51.6835 128.822 50.2558 126.411 48.7118 127.041C47.5736 127.504 46.8938 129.162 46.8135 130.403C46.8145 130.463 46.8293 130.523 46.8567 130.576C46.8841 130.63 46.9234 130.677 46.9717 130.713C47.0199 130.75 47.0758 130.774 47.135 130.786C47.1943 130.797 47.2554 130.795 47.3137 130.779ZM49.2973 127.72C50.1378 127.931 50.3001 129.432 50.0722 130.274C49.3557 129.837 48.5002 129.687 47.6778 129.855C47.8434 129.042 48.4617 127.72 49.2973 127.72Z" fill="#191919"/>
<path d="M61.5655 125.934C62.3825 124.842 63.1438 123.71 63.8468 122.542C64.2617 121.731 64.6061 120.707 63.832 120.206C63.6424 120.111 63.435 120.057 63.2231 120.047C63.0112 120.037 62.7996 120.072 62.602 120.149C61.1704 120.547 59.852 121.275 58.7521 122.274C58.6591 122.357 58.5837 122.458 58.5305 122.571C58.4772 122.683 58.4472 122.806 58.4421 122.93C58.4426 122.981 58.463 123.03 58.4991 123.066C58.5351 123.102 58.5839 123.123 58.6348 123.123C58.92 123.099 59.1866 122.972 59.3843 122.765C60.1036 122.137 60.9182 121.628 61.7976 121.256C62.2539 121.065 62.7287 120.922 63.2145 120.829C63.4376 120.818 63.486 120.92 63.5048 121.062C63.6016 121.778 62.4036 123.307 61.0776 125.648C61.0397 125.712 61.029 125.79 61.0479 125.862C61.0668 125.935 61.1138 125.997 61.1785 126.035C61.2432 126.073 61.3203 126.083 61.3929 126.064C61.4655 126.046 61.5276 125.999 61.5655 125.934Z" fill="#191919"/>
<path d="M48.6151 118.281C49.4351 112.647 47.2211 111.881 46.0944 112.752C45.5195 113.304 45.1459 114.033 45.0333 114.823C44.2953 117.788 44.306 117.633 44.3773 117.887C44.395 117.949 44.4283 118.005 44.474 118.05C44.5196 118.094 44.5761 118.127 44.638 118.143C44.6998 118.16 44.7649 118.16 44.8269 118.144C44.8888 118.128 44.9455 118.096 44.9915 118.051C45.217 117.82 45.1555 117.855 45.7148 115.616C45.8109 114.832 46.1099 114.087 46.5823 113.454C47.308 112.815 47.8771 114.21 47.9763 115.492C48.1772 118.01 47.8238 118.433 48.2838 118.492C48.3555 118.505 48.4296 118.491 48.491 118.452C48.5525 118.412 48.5968 118.351 48.6151 118.281Z" fill="#191919"/>
<path d="M20.143 114.461C20.1666 114.484 20.1951 114.501 20.2265 114.512C20.2578 114.522 20.2911 114.525 20.3239 114.521C20.3567 114.517 20.3881 114.505 20.4157 114.487C20.4433 114.469 20.4664 114.445 20.4833 114.416C20.7244 113.988 20.5423 113.639 20.7293 111.557C20.891 110.337 20.8924 109.101 20.7334 107.881C20.6654 107.622 20.5785 107.368 20.4735 107.122C20.451 107.056 20.4044 107.001 20.3431 106.969C20.2818 106.936 20.2104 106.929 20.1435 106.947C20.0767 106.965 20.0193 107.009 19.9833 107.068C19.9472 107.127 19.9351 107.198 19.9495 107.266C19.9733 107.389 20.0676 108.492 20.0758 108.616C20.207 110.716 19.4977 113.717 20.143 114.461Z" fill="#191919"/>
<path d="M19.7751 120.929C19.8882 121.33 20.1082 121.692 20.4114 121.977C20.5754 122.096 20.7731 121.932 20.7837 121.763C20.8288 121.031 18.8157 118.162 19.056 112.044C19.0521 111.974 19.0216 111.908 18.9705 111.859C18.9195 111.811 18.8519 111.784 18.7817 111.784C18.7114 111.784 18.6438 111.811 18.5928 111.859C18.5418 111.908 18.5112 111.974 18.5074 112.044C18.1693 115.065 18.6055 118.123 19.7751 120.929Z" fill="#191919"/>
<path d="M14.932 117.825C14.9665 118.236 15.092 118.634 15.2994 118.99C15.3863 119.121 15.6364 119.125 15.6692 118.941C15.7226 118.225 15.6893 117.504 15.57 116.796C15.356 113.549 16.0751 110.858 16.4933 108.022C16.5088 107.957 16.4985 107.889 16.4646 107.831C16.4307 107.774 16.3757 107.732 16.3114 107.714C16.2471 107.696 16.1783 107.704 16.1197 107.736C16.0611 107.768 16.0172 107.821 15.9972 107.885C15.1854 110.736 14.5015 114.892 14.932 117.825Z" fill="#191919"/>
<path d="M17.7938 119.834C18.0471 120.612 18.3563 120.628 18.426 120.408C18.6359 119.742 18.0693 119.377 17.5387 114.21C17.5387 114.144 17.5123 114.08 17.4653 114.033C17.4182 113.986 17.3544 113.959 17.2878 113.959C17.2213 113.959 17.1575 113.986 17.1104 114.033C17.0633 114.08 17.0369 114.144 17.0369 114.21C17.0232 116.111 17.278 118.004 17.7938 119.834Z" fill="#191919"/>
<path d="M16.3899 114.621C16.3899 114.565 16.3674 114.51 16.3275 114.47C16.2875 114.43 16.2332 114.408 16.1767 114.408C16.1202 114.408 16.0659 114.43 16.0259 114.47C15.986 114.51 15.9635 114.565 15.9635 114.621C15.7767 115.976 15.9256 117.356 16.3973 118.639C16.4421 118.84 16.5471 119.023 16.6982 119.163C16.7249 119.189 16.7585 119.206 16.7949 119.213C16.8313 119.22 16.8689 119.216 16.9031 119.202C16.9374 119.188 16.9667 119.164 16.9876 119.133C17.0084 119.103 17.0198 119.067 17.0205 119.029C17.0156 118.537 16.9992 118.861 16.7745 117.927C16.4921 116.849 16.3626 115.736 16.3899 114.621Z" fill="#191919"/>
<path d="M34.1938 135.161C27.7003 131.842 22.4129 128.314 17.6348 122.953C14.1721 119.117 11.4877 114.644 9.73078 109.783C8.41878 106.073 5.55534 95.3914 5.06088 89.5112C6.61232 89.3817 10.1309 89.034 11.8087 88.6756C12.2531 88.5805 12.1621 87.8335 11.6996 87.872C9.97021 88.0188 8.87305 88.282 4.5656 88.6256C4.44325 88.6273 4.32639 88.6767 4.23987 88.7632C4.15335 88.8497 4.10399 88.9666 4.10229 89.0889C4.5535 93.5198 5.39732 97.9019 6.6238 102.184C8.70824 110.197 10.3581 115.695 16.1686 122.597C20.9976 128.295 27.0946 132.784 33.9708 135.702C34.2758 135.826 34.4907 135.313 34.1938 135.161Z" fill="#191919"/>
<path d="M35.6945 121.752C34.7425 120.98 31.6839 119.551 29.1206 117.529C24.8262 114.142 23.2371 110.523 23.1477 105.156C23.1828 101.184 23.6556 97.2285 24.5573 93.3603C25.1214 90.8716 25.3248 90.7232 25.1034 90.3123C24.8991 90.0351 24.594 89.8492 24.2539 89.7949C23.9259 89.6859 23.6085 89.5817 23.2748 89.5005C23.1795 89.4754 23.0782 89.4854 22.9897 89.5287C22.9011 89.5721 22.8312 89.6459 22.7926 89.7367C22.7532 89.8271 22.7481 89.9288 22.7783 90.0227C22.8085 90.1166 22.8719 90.1963 22.9566 90.2467C23.4486 90.4649 23.8955 90.6116 24.2842 90.7453C23.0192 95.3013 22.3484 100.002 22.2883 104.73C22.3179 113.764 26.6786 117.836 34.9303 122.032C35.0891 122.104 35.2537 122.163 35.4223 122.209C35.6781 122.285 35.9085 121.926 35.6945 121.752Z" fill="#191919"/>
<path d="M8.60998 87.904C8.34581 83.7915 9.17176 79.6821 11.0044 75.991C11.0823 75.8377 11.2258 75.4818 11.1799 75.5933C11.4652 74.9324 10.8789 74.643 10.5025 75.2235C9.70994 76.6646 9.093 78.1955 8.66492 79.7835C7.92679 82.4222 7.7005 85.1778 7.99826 87.9015C7.99794 87.9827 8.02985 88.0606 8.08698 88.1182C8.14411 88.1758 8.22177 88.2083 8.30289 88.2086C8.38401 88.209 8.46194 88.177 8.51953 88.1199C8.57712 88.0628 8.60966 87.9851 8.60998 87.904Z" fill="#191919"/>
<path d="M11.0378 80.8159C11.0385 80.8788 11.0619 80.9393 11.1036 80.9863C11.1453 81.0333 11.2026 81.0637 11.265 81.0718C11.3272 81.081 11.3906 81.0672 11.4434 81.0329C11.4961 80.9987 11.5344 80.9462 11.5512 80.8856C12.1252 76.8602 13.4609 75.2153 13.4011 74.6708C13.3999 74.6356 13.3897 74.6013 13.3716 74.5712C13.3534 74.541 13.3278 74.516 13.2972 74.4985C13.2667 74.481 13.2322 74.4716 13.1969 74.4712C13.1617 74.4708 13.127 74.4794 13.096 74.4962C12.5343 74.7602 11.1518 77.7942 11.0378 80.8159Z" fill="#191919"/>
<path d="M57.2612 19.1011C57.074 17.514 56.5561 15.9838 55.7409 14.6092C55.6974 14.5372 55.6319 14.4811 55.5541 14.4493C55.4762 14.4176 55.3901 14.4118 55.3087 14.4329C50.6005 15.6001 46.1968 17.762 42.3937 20.7731C42.2453 20.8986 42.4397 21.1495 42.6012 21.0429C43.1834 20.6616 43.7607 20.3361 43.7992 20.3098C45.7431 19.0202 47.8019 17.9126 49.9492 17.0011C50.0525 17.1241 50.3486 17.3619 50.98 17.9654C51.5867 18.5374 52.0885 19.2112 52.4625 19.9564C52.5067 20.0276 52.5748 20.0807 52.6547 20.1061C52.7345 20.1315 52.8208 20.1276 52.898 20.0951C52.9752 20.0625 53.0382 20.0035 53.0758 19.9287C53.1134 19.8538 53.123 19.768 53.1029 19.6866C52.5995 18.1901 51.2989 16.6584 50.7356 16.6805C52.1954 16.0985 53.6942 15.6195 55.221 15.2471C55.8829 16.6115 56.3727 18.053 56.679 19.5382C56.7094 19.5878 56.7536 19.6275 56.8062 19.6526C56.8587 19.6776 56.9174 19.6869 56.9751 19.6794C57.0328 19.6719 57.0872 19.6478 57.1315 19.6101C57.1759 19.5724 57.2084 19.5226 57.2251 19.4669C57.2577 19.3479 57.2699 19.2242 57.2612 19.1011Z" fill="#38A1FF"/>
<path d="M47.9926 29.7216C46.9852 32.0746 46.0615 34.4626 45.2235 36.881C43.8935 35.6002 40.62 32.968 38.8423 32.5974C38.7476 32.559 38.6461 32.5402 38.5439 32.542C38.4418 32.5438 38.341 32.5663 38.2478 32.608C38.1755 32.6528 38.1231 32.7236 38.1014 32.8058C38.0797 32.888 38.0905 32.9754 38.1313 33.05C38.2494 33.3239 39.2186 33.7224 39.536 33.8815C42.1903 35.2082 44.638 37.4477 45.0095 37.4977C43.9648 40.5497 43.299 42.8105 42.7397 44.7293C40.0796 41.9618 39.7656 41.4788 39.1481 40.9359C37.6228 39.5565 35.9605 38.3366 34.1871 37.2951C33.7764 37.0167 33.3084 36.834 32.8177 36.7605C32.7572 36.7619 32.6981 36.779 32.6461 36.8099C32.594 36.8409 32.5509 36.8848 32.5208 36.9373C32.4907 36.9898 32.4747 37.0492 32.4743 37.1098C32.4738 37.1703 32.4891 37.2299 32.5184 37.2828C32.8464 37.824 34.3036 38.1373 37.3933 40.6448C39.2139 42.1252 40.9309 43.7284 42.5323 45.4435C42.006 47.364 41.3764 49.2546 40.6463 51.1072C39.9083 50.4922 38.9136 49.646 38.4462 49.2762C37.1047 48.2159 31.6181 44.2799 30.7456 43.9117C30.4176 43.774 30.3159 43.6928 30.074 43.7403C30.021 43.7558 29.976 43.7914 29.9488 43.8395C29.9215 43.8875 29.9141 43.9444 29.928 43.9978C30.0223 44.4398 31.3458 45.2639 31.805 45.573C37.8427 49.6361 38.9521 50.6242 40.3945 51.7025C39.8252 53.0259 39.204 54.3263 38.5323 55.6008C38.5348 55.5474 38.5223 55.4944 38.4964 55.4476C38.4705 55.4008 38.4321 55.3622 38.3855 55.336C36.7258 54.4782 36.7062 54.4422 36.3191 54.516C36.2788 54.5277 36.2417 54.5484 36.2105 54.5765C36.1794 54.6047 36.155 54.6395 36.1392 54.6784C36.1234 54.7173 36.1167 54.7592 36.1194 54.8011C36.1222 54.843 36.1344 54.8837 36.1551 54.9202C36.3462 55.2376 36.3855 55.2326 38.1543 55.8845C38.1971 55.8985 38.2427 55.9015 38.2869 55.8934C38.3312 55.8852 38.3727 55.8661 38.4077 55.8378C37.6967 57.1908 35.5377 61.1489 35.1875 61.7869C35.1689 61.7453 35.1421 61.7079 35.1087 61.6769C35.0753 61.6459 35.036 61.622 34.9932 61.6065C33.372 60.9292 33.5992 61.0071 33.1597 60.9448C33.0853 60.9213 33.0049 60.9265 32.9342 60.9593C32.8635 60.9921 32.8076 61.0502 32.7775 61.1221C32.7474 61.194 32.7453 61.2745 32.7715 61.3479C32.7978 61.4213 32.8505 61.4823 32.9194 61.5188C33.3384 61.7648 33.1654 61.7 34.8374 62.1797C34.8829 62.1907 34.9304 62.1907 34.976 62.1797C33.992 63.9927 33.008 65.8139 32.0486 67.6458C28.926 65.8828 31.0416 66.7553 24.2184 64.1387C23.9135 64.0086 23.5797 63.9617 23.2508 64.0025C23.2102 64.0149 23.1729 64.0362 23.1416 64.0647C23.1102 64.0933 23.0856 64.1285 23.0695 64.1677C23.0534 64.2069 23.0463 64.2493 23.0486 64.2916C23.0508 64.3339 23.0625 64.3753 23.0827 64.4125C23.2623 64.7291 23.7879 65.0054 29.0441 66.8857C29.4893 67.0497 30.8965 67.8139 31.7501 68.2157C30.935 69.7753 30.1391 71.3432 29.3622 72.9192C27.655 72.3674 23.9986 71.4334 22.7202 71.0693C17.6362 69.6187 17.3706 69.3826 15.7265 68.8873C16.0348 67.5753 16.3603 66.2633 16.6859 64.9513C16.707 64.8574 16.6911 64.7589 16.6416 64.6764C16.5921 64.5938 16.5128 64.5335 16.42 64.5079C16.3272 64.4823 16.2281 64.4933 16.1433 64.5388C16.0584 64.5842 15.9943 64.6606 15.9643 64.752C15.1068 67.4824 14.441 70.2692 13.9717 73.0922C11.8969 84.712 12.2897 96.6383 15.1246 108.096C15.1571 108.208 15.2318 108.302 15.3329 108.36C15.434 108.417 15.5534 108.433 15.6658 108.403L20.9212 106.893C21.0129 106.866 21.0937 106.81 21.1516 106.734C21.2096 106.658 21.2417 106.565 21.2434 106.47C20.8146 86.1786 33.3384 67.9172 39.9452 54.6873C43.8434 46.8801 43.3662 42.5513 48.6052 29.9693C48.7454 29.6339 48.1411 29.3764 47.9926 29.7216ZM15.8659 107.437C15.3279 105.229 14.881 103.002 14.5252 100.755C15.4755 100.79 15.3812 100.74 18.8105 100.277C19.4389 100.213 20.0568 100.07 20.6497 99.8521C20.4235 101.942 20.3263 104.044 20.3586 106.146L15.8659 107.437ZM20.7276 99.1658C20.2488 99.2658 19.2516 99.4487 18.7342 99.4938C17.2999 99.7339 15.8509 99.8766 14.3972 99.921C14.0474 97.5567 13.8 95.1787 13.6551 92.787C13.7782 92.8342 13.9053 92.8702 14.0348 92.8944C16.2411 93.0763 18.4575 93.1051 20.6678 92.9805C20.731 92.9609 20.7862 92.9216 20.8254 92.8683C20.8647 92.8151 20.8858 92.7507 20.8858 92.6845C20.8858 92.6184 20.8647 92.5539 20.8254 92.5007C20.7862 92.4474 20.731 92.4081 20.6678 92.3885C20.1799 92.2581 15.3042 92.1376 14.5178 92.0728C14.1965 92.0385 13.885 91.9425 13.6002 91.7899C13.4756 89.2047 13.4731 86.6116 13.5928 84.0105C14.7449 85.12 20.603 86.0983 21.8847 86.245C22.253 86.3166 22.6316 86.3186 23.0007 86.2508C23.063 86.2325 23.1186 86.1965 23.1609 86.1472C23.2032 86.098 23.2303 86.0375 23.239 85.9732C23.2477 85.9088 23.2375 85.8433 23.2098 85.7846C23.182 85.7259 23.1379 85.6765 23.0827 85.6423C22.6161 85.3963 21.6887 85.4045 19.3632 84.9125C17.9933 84.6324 16.6397 84.2782 15.3083 83.8515C14.6998 83.6342 14.02 83.1135 13.6461 83.0544C13.7642 81.0154 13.9599 78.9774 14.2332 76.9405C14.3563 76.999 14.4828 77.0499 14.6121 77.093C17.7961 78.1935 20.9531 79.307 24.5825 79.6104C24.6658 79.6089 24.7458 79.5776 24.8081 79.5221C24.8703 79.4666 24.9105 79.3906 24.9215 79.308C24.9326 79.2254 24.9136 79.1415 24.8681 79.0717C24.8226 79.0019 24.7535 78.9507 24.6735 78.9274C21.7567 78.2115 20.4021 78.0188 17.2377 77.025C16.5727 76.8167 15.173 76.2345 14.3677 76.0082C14.6722 73.9248 15.0584 71.8475 15.5264 69.7762C18.9909 71.045 22.5377 72.0771 26.1421 72.8651C26.5201 72.9373 28.5923 73.526 29.0465 73.5752C25.0564 81.7826 21.8002 90.2475 20.7276 99.1658Z" fill="#38A1FF"/>
<path d="M142.198 60.7218C142.181 60.8164 142.186 60.9133 142.211 61.0059C142.236 61.0985 142.281 61.1846 142.343 61.2581C142.409 61.3216 142.497 61.3571 142.589 61.3571C142.68 61.3571 142.769 61.3216 142.835 61.2581C142.896 61.1847 142.942 61.0987 142.967 61.0061C142.992 60.9134 142.997 60.8165 142.981 60.7218C143.102 59.7303 142.842 58.7299 142.252 57.9232C142.219 57.8726 142.167 57.8369 142.108 57.8232C142.049 57.8095 141.987 57.8189 141.935 57.8495C141.882 57.8801 141.843 57.9295 141.826 57.9878C141.809 58.046 141.815 58.1085 141.842 58.1626C142.116 58.9868 142.237 59.8542 142.198 60.7218Z" fill="#191919"/>
<path d="M145.673 65.6607C145.346 65.1224 144.846 64.7109 144.255 64.4939C144.203 64.4601 144.141 64.447 144.08 64.4573C144.019 64.4676 143.964 64.5004 143.926 64.5493C143.888 64.5982 143.87 64.6596 143.875 64.7212C143.881 64.7828 143.909 64.8401 143.955 64.8817C144.259 65.1548 144.187 65.1704 144.503 65.4934C144.956 65.9496 145.305 66.4981 145.526 67.1015C145.567 67.2607 145.63 67.4133 145.714 67.5549C145.753 67.6236 145.814 67.6772 145.887 67.7075C145.96 67.7379 146.041 67.7431 146.118 67.7225C146.194 67.7019 146.262 67.6566 146.31 67.5937C146.358 67.5307 146.383 67.4537 146.383 67.3745C146.3 66.7509 146.055 66.16 145.673 65.6607Z" fill="#191919"/>
<path d="M144.101 61.8075C141.447 62.5701 140.288 62.4446 138.658 62.9079C138.549 62.9391 138.456 63.0119 138.401 63.1105C138.345 63.2091 138.33 63.3257 138.359 63.4352C138.59 64.0509 138.901 64.6339 139.283 65.1695C139.342 65.2526 139.43 65.3107 139.53 65.3322C139.63 65.3538 139.734 65.3373 139.822 65.286C139.911 65.2347 139.977 65.1523 140.007 65.0549C140.038 64.9575 140.031 64.8522 139.989 64.7595C139.747 64.3968 139.535 64.0157 139.353 63.6197C141.157 63.1982 143.068 63.0563 144.283 62.2445C144.335 62.2167 144.375 62.1704 144.395 62.1147C144.415 62.059 144.413 61.9979 144.391 61.9432C144.368 61.8886 144.326 61.8445 144.272 61.8193C144.218 61.7942 144.157 61.79 144.101 61.8075Z" fill="#191919"/>
<path d="M138.252 66.5627C137.894 66.447 137.693 66.775 137.179 66.7627C137.008 66.754 136.847 66.6818 136.726 66.5602C136.651 66.4734 136.603 66.3665 136.587 66.2527C136.581 65.8937 136.706 65.5448 136.94 65.272C136.997 65.2392 137.039 65.1869 137.06 65.1249C137.081 65.0628 137.079 64.9953 137.053 64.9349C137.028 64.8746 136.981 64.8256 136.923 64.797C136.864 64.7685 136.796 64.7624 136.733 64.78C136.419 64.9404 136.163 65.1961 136.003 65.5105C135.843 65.8249 135.786 66.182 135.84 66.5307C135.929 66.8636 136.137 67.1527 136.423 67.344C136.71 67.5353 137.057 67.6158 137.398 67.5704C138.592 67.4401 138.651 66.693 138.252 66.5627ZM137.128 66.7603H137.147C137.14 66.7618 137.132 66.7618 137.125 66.7603H137.128Z" fill="#191919"/>
<path d="M153.832 69.2827C155.657 68.0797 158.02 65.7255 157.03 63.7887C157.355 63.0799 157.528 62.3104 157.536 61.5305C157.544 60.7505 157.387 59.9776 157.077 59.2623C156.611 57.694 155.823 56.2402 154.763 54.9934C153.907 54.0959 152.848 53.417 151.675 53.0138C150.502 52.6106 149.249 52.4947 148.022 52.676C147.548 52.7786 147.12 53.0291 146.798 53.3914C146.476 53.7538 146.277 54.2091 146.231 54.6916C146.178 55.1541 146.162 54.5415 143.01 55.7732C142.836 54.5104 140.971 54.3652 139.768 55.1713C138.736 55.8634 138.182 57.1188 139.063 57.6649C139.145 57.6649 136.029 59.3418 134.832 60.2307C132.162 62.2176 132.316 64.5824 133.575 67.6238C134.736 70.4249 135.812 72.5725 138.869 72.5848C140.628 72.4814 142.356 72.0854 143.985 71.413C144.067 71.4179 144.135 71.5213 144.281 71.659C144.884 72.1919 145.671 72.469 146.476 72.4315C147.28 72.394 148.038 72.0449 148.59 71.4581C149.702 71.463 152.157 70.2716 153.08 69.7427C156.093 75.5893 158.804 82.0001 159.007 88.6617C159.121 94.8482 158.427 101.023 156.942 107.03C155.976 110.49 154.628 113.832 152.924 116.995C150.955 116.62 149.028 116.046 147.174 115.282C149.285 110.708 152.012 102.863 150.921 97.9573C149.222 90.3452 132.341 80.4355 130.624 56.635C130.506 53.3716 130.025 50.1313 129.193 46.9737C125.499 34.7369 120.13 31.7759 112.676 23.2265C113.783 21.4007 115.246 19.8158 116.977 18.5657C129.666 26.6148 137.422 39.5159 144.098 52.9893C144.288 53.3722 144.846 53.0368 144.672 52.6555C138.322 39.0747 129.839 25.5373 117.211 17.571C117.137 17.5272 117.053 17.504 116.968 17.504C116.882 17.504 116.799 17.5272 116.725 17.571C116.531 17.7055 116.339 17.8449 116.151 17.9867C116.124 17.8178 116.059 17.6574 115.96 17.5177C114.493 14.8978 111.45 12.5452 108.903 11.0774C108.651 10.9323 108.42 11.2931 108.616 11.4497C111.058 13.4029 113.627 14.8716 115.303 17.7637C115.409 17.9474 115.532 18.2393 115.721 18.3197C114.357 19.4108 113.171 20.7058 112.202 22.1589C111.669 21.9744 111.687 22.0252 111.136 21.8153C108.266 20.728 107.49 18.8445 106.28 17.8744C105.7 17.4095 104.661 16.8281 104.036 17.2266C103.995 17.2517 103.96 17.287 103.937 17.3291C103.913 17.3711 103.901 17.4186 103.901 17.4669C103.901 17.5151 103.913 17.5626 103.937 17.6047C103.96 17.6467 103.995 17.682 104.036 17.7071C104.588 18.0236 104.833 17.8154 105.634 18.409C106.911 19.3561 107.792 21.5685 111.313 22.6599C111.477 22.7099 111.636 22.76 111.801 22.7952C111.655 23.0412 111.453 23.2913 111.737 23.6193C118.741 31.7193 123.851 34.741 127.438 44.7114C129.609 50.7466 129.3 53.0057 129.987 60.931C128.366 61.5345 126.662 62.2725 125.594 63.6911C125.264 64.0406 125.085 64.5059 125.095 64.9865C125.105 65.4672 125.303 65.9247 125.648 66.2602C126.389 66.6963 127.259 66.8596 128.108 66.7218C128.983 66.7437 129.856 66.6167 130.688 66.3463C131.091 68.502 131.838 70.5787 132.902 72.4963C131.44 73.2028 130.092 74.124 128.902 75.2293C127.772 76.4732 128.557 77.8115 129.852 78.1288C131.809 78.3509 133.79 78.0131 135.563 77.1547C138.382 81.6983 143.98 89.1209 145.333 90.7667C144.923 91.2464 143.851 96.2353 138.718 101.919C135.83 105.127 132.336 107.731 128.436 109.58C126.714 110.389 124.91 110.955 123.139 111.646C122.943 111.02 121.702 107.494 121.533 107.054C121.225 106.251 120.901 106.096 120.115 105.742C116.574 104.156 116.74 104.177 116.507 104.274C116.174 104.414 116.358 104.513 115.709 106.698C115.121 108.676 114.818 108.921 115.148 109.445C115.249 109.609 118.779 113.738 118.937 113.915C116.507 115.905 116.518 117.947 115.308 119.827C109.701 114.997 111.428 114.648 109.299 114.661L105.757 114.68C105.644 114.683 105.537 114.728 105.457 114.808C105.377 114.888 105.331 114.996 105.329 115.108C105.324 115.19 105.04 119.791 105.044 119.9C105.076 120.638 105.326 120.551 109.671 123.312C106.713 125.579 106.768 129.303 104.41 133.266C103.19 135.316 102.295 135.972 100.987 137.526C100.936 137.374 100.4 135.657 100.076 134.556C100.043 134.441 99.9668 134.343 99.8628 134.284C99.7587 134.225 99.6356 134.21 99.52 134.241C94.5892 136.202 89.4141 137.481 84.1376 138.045C76.5116 138.851 71.1816 138.054 63.2752 132.336C62.9956 132.133 62.6561 131.995 62.3863 131.784C62.3226 131.72 62.2362 131.684 62.146 131.684C62.0559 131.684 61.9695 131.72 61.9058 131.784C61.8421 131.848 61.8063 131.934 61.8063 132.024C61.8063 132.114 61.8421 132.201 61.9058 132.264C62.3535 132.712 62.8382 133.12 63.3547 133.485C70.5707 138.677 76.4239 139.609 83.0642 139.028C88.6406 138.541 94.1214 137.276 99.347 135.27C99.6668 136.355 99.9975 137.438 100.339 138.517C93.256 144.817 85.0872 145.381 76.7019 147.928C76.3852 148.011 76.074 148.114 75.7703 148.236C75.0807 148.546 75.2177 149.369 75.2488 150.004C68.5746 149.585 62.1059 147.531 56.4118 144.024C56.0625 143.806 55.782 144.33 56.0961 144.564C60.2781 147.671 66.5921 150.272 75.2775 150.974L75.3398 153.202C75.3497 153.551 75.2939 153.934 75.5768 154.186C75.7712 154.356 75.9868 154.36 76.7076 154.432C81.7211 154.933 86.8002 154.132 91.7759 153.074C102.28 150.842 112.044 148.468 121.893 137.248C122.537 136.51 122.542 136.465 122.668 136.364C122.687 136.586 122.889 136.755 123.278 136.605C123.043 136.696 124.325 135.928 129.369 136.336C130.311 136.416 131.239 136.622 132.126 136.948C132.185 136.982 132.254 136.992 132.319 136.975C132.385 136.958 132.44 136.916 132.475 136.858C132.509 136.799 132.518 136.73 132.501 136.665C132.484 136.6 132.442 136.544 132.384 136.51C131.283 135.834 130.018 135.475 128.726 135.471C127.728 135.393 125.627 135.434 124.682 135.471C124.09 135.493 124.416 135.544 124.24 135.307C122.764 133.309 119.585 128.419 119.015 126.027C118.242 122.784 120.737 120.779 124.533 122.272C127.842 123.746 130.873 125.779 133.493 128.28C133.567 128.35 133.644 128.415 133.722 128.48C132.761 131.072 132.052 133.871 132.837 136.51C132.854 136.569 132.892 136.62 132.944 136.654C132.996 136.688 133.058 136.702 133.12 136.694C133.181 136.687 133.238 136.657 133.28 136.61C133.321 136.564 133.344 136.504 133.343 136.441C132.706 131.485 135.34 127.411 135.343 126.344C142.723 119.191 147.568 109.309 150.191 99.5407C150.593 103.828 148.098 111.126 146.128 115.285C146.067 115.395 146.051 115.525 146.083 115.647C146.116 115.769 146.193 115.874 146.301 115.941C147.42 116.433 147.01 116.134 146.875 116.388C146.247 117.804 145.535 119.181 144.743 120.511C144.208 121.354 144.121 121.299 144.194 121.763C144.213 121.891 144.35 121.934 144.495 121.914C144.85 121.866 145.037 121.49 145.333 121.032C146.247 119.672 146.939 118.176 147.383 116.598C147.391 116.56 147.393 116.521 147.386 116.482C147.379 116.443 147.365 116.407 147.343 116.374C149.043 117.043 150.802 117.553 152.596 117.897C152.358 118.104 152.384 119.193 152.316 119.837C152.063 122.246 150.982 124.707 150.089 126.996C149.975 127.289 150.456 127.488 150.597 127.21C151.87 124.686 153.062 121.896 153.16 119.08C153.171 118.701 153.107 118.323 152.971 117.969L153.063 117.987C153.164 118.012 153.27 118.004 153.367 117.965C153.464 117.925 153.545 117.856 153.6 117.768C158.438 108.566 159.76 99.9359 159.901 89.7318C159.994 82.7569 157.03 75.4819 153.832 69.2827ZM142.346 55.924C142.346 55.9396 142.354 55.9568 142.346 55.924V55.924ZM139.422 56.899C139.285 56.5595 140.034 55.8749 140.477 55.6559C141.051 55.3746 142.178 55.2926 142.339 55.9085C142.442 56.134 141.664 56.2365 139.797 57.2631C139.77 57.1073 139.493 57.0786 139.422 56.9023V56.899ZM145.415 71.4565C144.744 71.1654 144.595 70.6422 144.026 70.6111C143.562 70.5856 143.397 70.8399 141.956 71.2671C140.329 71.7492 138.153 72.1576 136.754 71.1941C136.335 70.889 135.974 70.5113 135.688 70.0789C134.782 68.5989 134.092 66.9975 133.638 65.3229C132.868 61.9256 135.032 60.9023 137.953 59.1663C140.507 57.5164 143.296 56.2624 146.226 55.4468C146.446 58.8301 148.658 62.5742 150.277 65.2934C150.409 65.5239 150.56 65.7433 150.727 65.9494C149.659 66.4603 148.687 67.1541 147.857 67.9994C147.81 68.0486 147.775 68.1078 147.753 68.1727C147.732 68.2375 147.725 68.3062 147.734 68.3739C147.743 68.4416 147.766 68.5065 147.803 68.5639C147.84 68.6212 147.889 68.6696 147.948 68.7054C149.258 70.0174 147.693 72.2806 145.415 71.4598V71.4565ZM115.843 108.989C115.843 109.006 115.843 109.047 115.843 108.989C115.799 108.902 116.373 107.695 116.952 105.222C120.478 106.766 120.528 106.675 120.767 107.224C120.941 107.701 122.305 111.427 122.498 111.898C121.484 112.301 120.515 112.808 119.606 113.411C119.193 112.914 115.921 109.113 115.843 108.992V108.989ZM105.907 119.92C105.887 119.805 105.955 118.871 106.153 115.534C110.132 115.512 109.812 115.5 109.966 115.553C110.26 115.717 112.039 118.474 114.91 120.359C113.785 121.671 111.973 121.921 110.477 122.772C110.122 122.555 105.817 119.923 105.907 119.923V119.92Z" fill="#191919"/>
<path d="M101.188 16.154C106.551 15.7711 107.542 17.3504 108.697 17.302C108.73 17.3017 108.762 17.2928 108.791 17.2761C108.819 17.2595 108.843 17.2356 108.86 17.207C108.876 17.1783 108.885 17.1459 108.885 17.1128C108.885 17.0797 108.877 17.0471 108.861 17.0183C108.72 16.7806 108.509 16.5923 108.257 16.4796C106.036 15.4159 103.527 15.1119 101.116 15.6145C100.819 15.6965 100.868 16.1811 101.188 16.154Z" fill="#191919"/>
<path d="M102.67 14.186C106.757 14.186 108.265 15.4332 108.851 15.252C108.882 15.2426 108.911 15.2263 108.936 15.2042C108.96 15.1821 108.979 15.1548 108.992 15.1243C109.004 15.0938 109.009 15.0609 109.007 15.0281C109.005 14.9952 108.996 14.9633 108.98 14.9346C108.688 14.3155 105.239 13.3807 102.67 13.7128C102.61 13.7163 102.553 13.7426 102.512 13.7865C102.47 13.8304 102.447 13.8886 102.447 13.949C102.447 14.0094 102.47 14.0676 102.511 14.1117C102.553 14.1557 102.609 14.1823 102.67 14.186Z" fill="#191919"/>
<path d="M105.218 12.3262C107.8 12.8068 108.856 13.8793 109.558 13.9925C109.588 13.9993 109.619 13.9975 109.647 13.9873C109.675 13.9772 109.7 13.959 109.719 13.9351C109.737 13.9111 109.748 13.8824 109.751 13.8523C109.753 13.8222 109.747 13.792 109.733 13.7653C109.628 13.5852 109.489 13.4275 109.323 13.3012C108.134 12.455 106.741 11.9397 105.288 11.808C104.994 11.776 104.925 12.2721 105.218 12.3262Z" fill="#191919"/>
<path d="M129.239 128.368C128.937 128.239 128.808 128.068 128.573 128.04C128.517 128.028 128.46 128.031 128.406 128.049C128.352 128.068 128.305 128.1 128.268 128.143C128.231 128.186 128.207 128.239 128.198 128.294C128.188 128.35 128.194 128.408 128.215 128.46C128.289 128.64 128.427 128.787 128.603 128.87C128.742 128.988 128.904 129.075 129.079 129.126C129.253 129.177 129.437 129.19 129.617 129.166C129.798 129.141 129.971 129.079 130.126 128.984C130.28 128.888 130.413 128.761 130.516 128.61C130.636 128.347 130.685 128.057 130.659 127.769C130.633 127.48 130.533 127.204 130.368 126.966C130.337 126.914 130.291 126.874 130.235 126.852C130.179 126.829 130.118 126.826 130.06 126.841C130.002 126.857 129.951 126.891 129.914 126.939C129.878 126.986 129.857 127.044 129.857 127.104C129.958 128.02 130.126 128.625 129.239 128.368Z" fill="#191919"/>
<path d="M125.561 131.876C125.361 132.251 124.956 132.076 124.541 132.146C124.487 132.162 124.439 132.194 124.403 132.236C124.366 132.279 124.343 132.332 124.336 132.387C124.329 132.443 124.338 132.5 124.362 132.55C124.387 132.601 124.425 132.644 124.473 132.673C125.3 133.12 126.424 132.413 126.161 131.585C126.132 131.494 125.989 131.227 125.98 131.175C126.009 131.123 126.018 131.061 126.006 131.002C125.994 130.943 125.962 130.89 125.915 130.852C125.681 130.673 125.443 130.951 125.449 131.239C125.455 131.528 125.624 131.702 125.561 131.876Z" fill="#191919"/>
<path d="M127.542 130.962C127.593 131.014 127.663 131.043 127.736 131.043C127.809 131.043 127.879 131.014 127.931 130.962C127.982 130.911 128.011 130.841 128.011 130.768C128.011 130.695 127.982 130.625 127.931 130.574C126.937 129.606 126.239 128.375 125.918 127.026C125.842 126.902 125.725 126.809 125.588 126.761C125.45 126.714 125.301 126.716 125.165 126.766C123.964 127.087 123.888 127.847 124.246 127.927C124.603 128.008 125.066 127.508 125.29 127.508C125.654 128.869 126.443 130.079 127.542 130.962Z" fill="#191919"/>
<path d="M123.108 123.269C122.882 123.142 122.628 123.073 122.369 123.067C122.11 123.061 121.854 123.118 121.622 123.234C121.39 123.35 121.19 123.521 121.04 123.732C120.89 123.943 120.793 124.188 120.759 124.445C120.68 124.92 120.784 125.408 121.049 125.811C121.314 126.213 121.721 126.501 122.189 126.617C122.44 126.611 122.679 126.509 122.858 126.333C123.036 126.156 123.141 125.918 123.149 125.667C123.313 125.629 123.464 125.551 123.59 125.44C123.716 125.329 123.813 125.188 123.871 125.03C123.93 124.873 123.948 124.703 123.925 124.537C123.901 124.371 123.837 124.213 123.738 124.077C123.626 123.744 123.404 123.459 123.108 123.269Z" fill="#191919"/>
<path d="M142.322 120.443C141.584 124.085 142.432 133.425 137.283 139.167C136.794 139.713 136.225 140.182 135.595 140.556C135.317 140.714 135.503 141.192 135.818 141.083C138.088 140.303 139.991 136.819 140.846 134.578C141.826 131.77 142.413 128.84 142.589 125.871C142.667 124.98 142.928 121.414 142.93 121.191C142.933 120.968 142.915 120.746 142.909 120.524C142.908 120.453 142.881 120.384 142.834 120.33C142.787 120.276 142.721 120.241 142.651 120.232C142.58 120.222 142.507 120.238 142.447 120.277C142.387 120.315 142.343 120.375 142.322 120.443Z" fill="#191919"/>
<path d="M133.698 141.894C129.461 144.901 124.254 145.656 119.57 143.392C119.016 143.059 118.435 142.773 117.833 142.537C117.777 142.522 117.717 142.525 117.662 142.544C117.607 142.563 117.559 142.597 117.523 142.644C117.488 142.69 117.466 142.745 117.462 142.803C117.458 142.861 117.47 142.919 117.498 142.97C117.907 143.418 118.408 143.77 118.967 144.003C121.357 145.255 124.067 145.761 126.747 145.456C129.428 145.151 131.955 144.049 134.003 142.292C134.216 142.106 133.937 141.726 133.698 141.894Z" fill="#191919"/>
<path d="M148.464 120.178C148.498 120.115 148.505 120.041 148.485 119.972C148.466 119.903 148.42 119.844 148.358 119.808C148.296 119.772 148.222 119.761 148.152 119.778C148.082 119.794 148.022 119.837 147.983 119.898C144.839 124.417 143.889 124.155 143.631 125.152C143.624 125.18 143.623 125.208 143.629 125.235C143.635 125.263 143.646 125.288 143.663 125.311C143.68 125.333 143.702 125.351 143.727 125.363C143.752 125.376 143.779 125.383 143.807 125.383C144.277 125.287 144.699 125.032 145.001 124.66C146.4 123.372 147.57 121.856 148.464 120.178Z" fill="#191919"/>
<path d="M149.805 122.232C149.854 122.168 149.891 122.096 149.912 122.018C149.933 121.941 149.938 121.86 149.928 121.78C149.927 121.742 149.916 121.705 149.896 121.672C149.877 121.64 149.849 121.613 149.816 121.594C149.784 121.575 149.746 121.565 149.709 121.564C149.671 121.563 149.633 121.573 149.6 121.59C149.551 121.606 149.503 121.627 149.459 121.653C149.227 121.809 148.789 122.625 147.768 123.82C147.158 124.533 145.361 126.432 144.505 126.804C144.23 126.923 144.423 127.378 144.709 127.287C146.311 126.772 149.224 123.304 149.805 122.232Z" fill="#191919"/>
<path d="M150.664 122.405C150.658 122.382 150.645 122.362 150.628 122.345C150.611 122.328 150.59 122.316 150.567 122.31C150.543 122.304 150.519 122.304 150.496 122.31C150.473 122.317 150.452 122.329 150.435 122.346C149.792 123.029 149.451 125.291 146.527 127.576C146.312 127.744 146.591 128.1 146.818 127.954C149.44 126.271 150.808 123.361 150.664 122.405Z" fill="#191919"/>
<path d="M74.1277 153.398C72.7631 153.662 71.366 153.713 69.9858 153.55C69.0217 153.426 68.0756 153.188 67.1675 152.841C64.6091 151.874 63.5595 150.486 62.8912 150.228C62.8467 150.216 62.7998 150.216 62.7553 150.228C62.7108 150.24 62.6702 150.263 62.6376 150.296C62.6051 150.329 62.5816 150.369 62.5697 150.414C62.5578 150.458 62.5578 150.505 62.5698 150.55C62.6101 150.665 62.671 150.773 62.7493 150.868C64.6485 153.216 69.4586 154.962 72.9075 154.203C73.3585 154.103 73.8095 153.989 74.2523 153.852C74.3101 153.833 74.3586 153.793 74.3875 153.74C74.4165 153.686 74.4236 153.624 74.4075 153.565C74.3914 153.507 74.3533 153.457 74.3012 153.425C74.249 153.394 74.1868 153.385 74.1277 153.398Z" fill="#191919"/>
<path d="M66.92 151.334C67.166 151.416 67.3431 151.016 67.0996 150.907C63.9959 149.513 63.3554 148.408 62.9217 148.679C62.7577 148.783 62.8093 149.024 62.9217 149.148C64.1019 150.127 65.4593 150.869 66.92 151.334Z" fill="#191919"/>
<path d="M121.283 42.5884C123.541 44.3196 125.536 46.37 127.204 48.6752C127.266 48.736 127.347 48.7723 127.433 48.7775C127.52 48.7828 127.605 48.7565 127.674 48.7037C127.742 48.6508 127.789 48.575 127.806 48.4901C127.823 48.4053 127.808 48.3172 127.765 48.2423C127.389 47.549 126.939 46.8993 126.421 46.3046C123.033 42.157 118.143 39.2329 113.519 36.5605C111.854 35.4899 110.062 34.6318 108.183 34.0062C108.096 33.9856 108.004 33.9997 107.926 34.0456C107.849 34.0915 107.792 34.1656 107.768 34.2523C107.744 34.3391 107.755 34.4317 107.798 34.5107C107.841 34.5898 107.913 34.6491 107.999 34.6762C111.304 35.9808 118.48 40.3924 121.283 42.5884Z" fill="#191919"/>
<path d="M96.1859 17.0609C96.1542 16.9756 96.0907 16.906 96.0088 16.8665C95.9268 16.8271 95.8328 16.8209 95.7464 16.8493C95.3052 16.9904 95.1117 17.8489 93.6825 18.4893C92.7336 18.8954 91.7062 19.0851 90.6749 19.0445C89.6436 19.0039 88.6343 18.7342 87.7202 18.2548C88.6072 18.3637 89.5043 18.1577 90.2549 17.6726C92.1712 16.4516 93.1093 14.3778 93.6579 12.1917C93.6794 12.1282 93.6877 12.0611 93.6823 11.9943C93.6769 11.9275 93.6579 11.8625 93.6265 11.8033C93.5951 11.7441 93.552 11.6919 93.4997 11.65C93.4474 11.608 93.3871 11.5772 93.3225 11.5595C93.2579 11.5417 93.1903 11.5373 93.1239 11.5465C93.0576 11.5558 92.9938 11.5785 92.9365 11.6133C92.8792 11.6481 92.8297 11.6942 92.7908 11.7488C92.752 11.8034 92.7248 11.8654 92.7108 11.931C92.5528 12.5358 92.3539 13.1292 92.1154 13.7071C91.7179 14.8078 91.0241 15.7774 90.1105 16.509C87.9687 18.1154 86.6173 16.6222 86.1057 17.0765C85.8408 17.1125 85.7481 17.165 85.3521 17.2085C84.8981 17.2648 84.4372 17.2238 84.0003 17.0881C83.5634 16.9523 83.1604 16.725 82.8183 16.4213C82.5132 16.219 82.2505 15.9591 82.045 15.6562C81.4874 14.8264 80.2779 12.5755 80.2353 11.6284C80.2353 11.576 80.225 11.5242 80.2049 11.4759C80.1849 11.4275 80.1556 11.3836 80.1186 11.3466C80.0815 11.3096 80.0376 11.2802 79.9893 11.2602C79.9409 11.2402 79.8891 11.2299 79.8368 11.2299C79.7844 11.2299 79.7326 11.2402 79.6843 11.2602C79.6359 11.2802 79.592 11.3096 79.555 11.3466C79.518 11.3836 79.4886 11.4275 79.4686 11.4759C79.4485 11.5242 79.4382 11.576 79.4382 11.6284C79.6933 12.9124 80.1718 14.1416 80.8519 15.2602C81.2033 16.0532 81.7798 16.7255 82.51 17.1937C83.202 17.727 84.0472 18.0237 84.9208 18.04C85.6317 18.04 85.7777 17.8842 85.6719 17.9867C85.3711 18.3035 85.004 18.5499 84.5969 18.7083C82.3583 19.5504 78.7699 18.3311 77.139 15.4037C77.112 15.3581 77.0764 15.3182 77.0341 15.2864C76.9918 15.2545 76.9436 15.2314 76.8923 15.2181C76.841 15.2049 76.7876 15.202 76.7352 15.2094C76.6828 15.2168 76.6323 15.2345 76.5867 15.2614C76.5411 15.2883 76.5012 15.3239 76.4694 15.3663C76.4376 15.4086 76.4144 15.4568 76.4012 15.5081C76.388 15.5593 76.385 15.6127 76.3924 15.6652C76.3998 15.7176 76.4175 15.7681 76.4444 15.8137C78.9102 20.2917 84.9544 20.8731 86.3082 18.2048C86.788 18.7462 87.393 19.162 88.0704 19.4159C91.6931 20.9419 95.3233 19.2749 96.0367 17.8054C96.1133 17.6992 96.1663 17.5778 96.192 17.4493C96.2178 17.3209 96.2157 17.1884 96.1859 17.0609Z" fill="#38A1FF"/>
<path d="M86.7623 21.4389C86.7332 21.3377 86.6729 21.2483 86.59 21.1833C86.5072 21.1183 86.4059 21.0811 86.3007 21.0769C86.1955 21.0728 86.0917 21.1018 86.0039 21.16C85.9162 21.2182 85.849 21.3026 85.8119 21.4012C85.7798 21.5097 85.7831 21.6256 85.8215 21.7321C85.8598 21.8386 85.9312 21.9301 86.0251 21.9932C86.1104 22.0408 86.2077 22.0627 86.3052 22.0561C86.4026 22.0495 86.4961 22.0147 86.5742 21.956C86.6522 21.8973 86.7116 21.8172 86.745 21.7254C86.7784 21.6336 86.7844 21.534 86.7623 21.4389Z" fill="#38A1FF"/>
</svg>
