<svg xmlns="http://www.w3.org/2000/svg" fill="none" viewBox="0 0 164 164"><path fill="#38a1ff" d="M111.848 25.103c-8.208-6.127-19.27-10.779-29.298-9.366a.145.145 0 0 0-.103.224c-5.812 2.296-4.974 1.998-5.149 1.958a32 32 0 0 0-16.864 1.003c-.41.138-.828.27-1.224.445a.99.99 0 0 0-.626.771c-.07.44-.043-.402.574 10.045a.157.157 0 0 0 .152.157 28.3 28.3 0 0 1 11.544 3.056c3.703 1.886 6.451 4.82 10.105 4.723 2.068-.055 4.05-.867 6.132-.45.99.199 1.941.557 2.924.787 5.09 1.19 7.676-3.146 13.398-3.843 2.737-.334 3.512.379 4.078-.403.164-.224 3.449-6.97 4.415-8.888a.17.17 0 0 0 .015-.121.17.17 0 0 0-.073-.098m-17.614 1.332a1.394 1.394 0 0 1-1.794 1.174c-1.01 2.27-2.296 4.665-4.51 5.822a3.24 3.24 0 0 1-3.76-.171 18 18 0 0 1-1.476-1.446c-.971-1.083-1.367-2.119-3.125-5.77-.99.098-1.949-.806-1.832-2.22a1.48 1.48 0 0 1 .41-1.024.9.9 0 0 1 .533-.216c.533-.8 4.838-1.716 7.439-6.56a.236.236 0 0 1 .366-.047c4.601 4.213 3.885 4.776 5.846 6.682a4.14 4.14 0 0 1 1.161 1.498c.16.265.566.122.72.696.108.521.116 1.058.022 1.582"/><path fill="#191919" d="M87.268 9.611c-.606.223-.81.476-.984.511l-.1-.047a4.11 4.11 0 0 0-3.616-.176c-3.178 1.282-6.215 5.669-5.64 9.548q.083.663.299 1.296c.146.342.188 1.236.565 1.659a2.15 2.15 0 0 0-.594 2.252 2.01 2.01 0 0 0 1.61 1.796c1.008.102.3-.887 1.06 1.148.999 2.668 3.251 6.706 6.115 6.951a4.63 4.63 0 0 0 3.051-1.23 12.33 12.33 0 0 0 3.526-5.203 1.38 1.38 0 0 0 1.165-.172 2.76 2.76 0 0 0 .787-3.387c-.178-.246-.158-.035.101-.365a8.9 8.9 0 0 0 1.133-2.394c2.32-7.464-4.687-13.587-8.478-12.187m-8.259 16.112c-.44.076-.79-.328-.961-.781-.299-.79-.328-1.922.487-2.144.476.075.109-.3.482 1.73q.11.6.261 1.193a.7.7 0 0 0-.269.002m12.888 2.026c-.891 2.176-1.912 4.142-3.848 5.399a3.9 3.9 0 0 1-1.683.694c-2.46.175-4.674-3.623-5.636-5.865a19.6 19.6 0 0 1-1.354-5.208c2.712-.438 4.62-2.706 6.32-4.66.215-.245.828-.955.916-1.065 1.744 3.827 4.145 6.155 6.382 7.302a21 21 0 0 1-1.097 3.403m.917-.27c.355-.91.647-1.845.873-2.795 1.056.091.304 3.104-.873 2.795"/><path fill="#191919" d="M81.886 23.962c.141-.685 1.13-.706 1.49.471q.066.227.156.444a.29.29 0 0 0 .319.13c.433-.118.082-.984-.136-1.335-.835-1.342-2.417-.697-2.26.29.035.218.388.208.431 0m6.578.704c.06-.12.13-.235.199-.351.069-.117.116-.246.189-.365.261-.42.748-.698 1.142-.398q.175.14.383.22c.216.078.458-.533-.22-.854a1.38 1.38 0 0 0-1.735.656 1.65 1.65 0 0 0-.289 1.004.178.178 0 0 0 .33.088m-2.006 2.779c-.315-.301-.555-.133-.931-.484a1 1 0 0 1-.149-.178c.04-.063.086-.123.127-.186.627-.92.875-2.047.693-3.145-.05-.238-.394-.168-.41.055a5.14 5.14 0 0 1-.99 2.999c-.38.738 1.154 1.77 1.657 1.187a.18.18 0 0 0 .003-.248m-.459 3.499c.481 1.14 2.564 1.018 2.453-1.198-.01-.199 0-.41-.175-.537a.214.214 0 0 0-.26.033c-.17.185-.042.366-.082.949-.082 1.167-1.179 1.258-1.625.574a.18.18 0 0 0-.311.18M56.87 20.172c-7.43-.297-15.956.426-21.904 4.942-3.728 2.832-6.938 7.462-8.912 11.726a5 5 0 0 0-.32.913.327.327 0 0 0 .59.246c.52-.784 3.252-7.369 8.465-11.713 6.326-5.272 14.441-5.138 22.082-5.8a.158.158 0 0 0 0-.314"/><path fill="#191919" d="M27.45 40.236c.082-.07 9.528-8.239 12.778-9.706a19.5 19.5 0 0 1 6.001-1.182c9.251-.938 9.31-.47 10.964-.837a.18.18 0 0 0 0-.344c-1.786-.436-8.376.231-10.23.415-4.512.446-6.217.528-9.089 2.578a97 97 0 0 0-10.72 8.778c-.194.197.091.464.296.298m7.4 12.364c-.604-1.813-2.368-2.826-4.018-3.814-1.021-.611-.924-.501-.82-.54a1.1 1.1 0 0 0 .71-.82 3.3 3.3 0 0 0-.441-2.01c-2.14-4.585-9.383-7.626-14.952-4.962-10.56 5.056-7.785 23.231 4.074 22.834 1.757-.06 3.65-.337 5.026-1.444q.349-.333.609-.738c3.982.759 6.85.73 8.727-2.807.94-1.769 1.716-3.787 1.085-5.698m-.552 1.582a10.3 10.3 0 0 1-1.91 4.92c-1.192 1.484-2.875 1.823-4.767 1.689-2.706-.193-7.284-1.53-7.413-1.51a6.38 6.38 0 0 1-3.58-5.447c-.158-3.07.962-5.734 3.966-6.67 2.947-.915 5.827.19 8.536 1.666q1.836.973 3.526 2.179a3.6 3.6 0 0 1 1.642 3.173"/><path fill="#191919" d="M19.851 54.185c.146-.246-.135-.476-.366-.367-.256.107-.472.29-.619.524a1.97 1.97 0 0 0 .065 2.044.78.78 0 0 0 .471.369.426.426 0 0 0 .52-.52 1.77 1.77 0 0 1-.07-2.05m1.903-4.422a.302.302 0 0 0 .593-.082 1.48 1.48 0 0 1 .538-1.066c.436-.286.632-.185.853-.378.185-.164.194-.316.12-.43-.537-.828-2.647.438-2.105 1.956m1.401 6.512c-.174-.11-.287-.011-.592-.214-.117-.118-.164-.225.04-.414.11-.075.12-.068.372-.118a.222.222 0 0 0 .13-.41.7.7 0 0 0-.308-.082 1 1 0 0 0-.779.447.85.85 0 0 0 .29 1.169c.228.15.497.224.77.21a.328.328 0 0 0 .077-.588m1.874-4.651a.225.225 0 0 0 .158-.381c-.328-.273-.468-.626-.246-.835.339-.207.804.064.896-.344a.33.33 0 0 0-.237-.416 1.5 1.5 0 0 0-.909.124 1.017 1.017 0 0 0 .338 1.852m2.882 3.266a1.59 1.59 0 0 0-.178-1.957.283.283 0 0 0-.475.196c.004.476.442.898.11 1.337-.077.069-.078.092-.184.117-.218-.011-.272-.11-.774-.455a9.6 9.6 0 0 0-4.74-1.722.235.235 0 0 0-.063.46c1.113.27 2.197.652 3.234 1.138 1.468.753 1.722 1.279 2.322 1.273a.97.97 0 0 0 .748-.386m2.019-2.523c-.172-.03-.726.113-.753.355a12 12 0 0 1-1.322 4.271.364.364 0 0 0 .13.492 3.21 3.21 0 0 0 3.929-.444c1.624-1.78.417-4.258-1.984-4.674m1.979 3.064a2.253 2.253 0 0 1-3.252 1.584 9.1 9.1 0 0 0 .975-3.101q.045-.452-.012-.902c.105.06 2.425.39 2.289 2.419m23.945-39.895c1.23-.149 4.41-1.165 7.733-.293.314.126.652.18.99.158a.202.202 0 0 0 .14-.34.65.65 0 0 0-.361-.251c-2.091-.923-6.657-.6-8.615.308a.226.226 0 0 0 .113.418M41.877 68.634c-1.508-1.984-4.844-3.31-7.29-3.82a.395.395 0 0 0-.21.762 15.4 15.4 0 0 1 5.815 2.47c2.964 2.215 2.025 5.577-1.077 5.503-2.296-.056-4.14-2.214-6.763-4.4a.272.272 0 1 0-.384.385 16 16 0 0 0 1.945 1.97 10.5 10.5 0 0 0 4.255 2.693 3.92 3.92 0 0 0 3.889-1.084 3.644 3.644 0 0 0-.18-4.479m-3.168 4.887q.042 0 0 0m6.971-19.319a10.9 10.9 0 0 0-5.364-.943.404.404 0 0 0-.42.401.403.403 0 0 0 .42.402c2.05-.051 4.147.033 5.764 1.296 2.021 1.579 1.843 3.825.674 4.548-2.296 1.419-7.03-2.794-7.807-3.287a.278.278 0 0 0-.338.437q.38.454.855.806c1.81 1.5 5.076 3.756 7.263 2.887 2.333-.93 2.35-4.743-1.047-6.547"/><path fill="#191919" d="M42.041 55.678c-.082.656-.183 1.308-.236 1.968a.388.388 0 0 0 .656.271c.328-.358.647-.715.97-1.074.021.689-.116 1.388.176 1.729a.5.5 0 0 0 .73.033 7 7 0 0 0 .728-1.152q.218-.323.383-.674a.366.366 0 0 0-.61-.356q-.356.48-.644 1.002a3.4 3.4 0 0 0-.205-1.608.39.39 0 0 0-.612-.082q-.383.423-.761.85c.007-.303.009-.604.016-.908a.294.294 0 0 0-.296-.295.295.295 0 0 0-.295.296M36.55 68.75a.3.3 0 0 0-.256-.29.29.29 0 0 0-.328.212 16 16 0 0 0-.233 2.044.38.38 0 0 0 .64.265q.418-.457.834-.917l.111 1.54a.396.396 0 0 0 .588.337c.644-.353.852-1.089 1.208-1.569.152-.178.282-.267.215-.218a.38.38 0 0 0-.385-.656 3 3 0 0 0-.916 1.167l-.113-1.533a.392.392 0 0 0-.664-.276q-.355.396-.707.796c.02-.302.012-.6.006-.902m41.596-30.145a.296.296 0 0 0-.54-.228c-1.02 2.021-1.682 7.814-1.095 8.75a.217.217 0 0 0 .374 0q.057-.101.098-.21c.016-.064.029-.59.027-.657a23.9 23.9 0 0 1 1.136-7.655m4.182.263c.02-.269-.4-.32-.465-.063-.726 2.91.984 6.543.532 9.658-.067.465-.234.867-.082 1.113a.263.263 0 0 0 .35.092c.28-.133.365-.714.41-1.018.479-3.2-1.03-6.042-.745-9.782m-1.552 8.402c.016.469-.027.937-.129 1.395a1.7 1.7 0 0 0-.056.529c.058.449.924.67.671-1.921a.246.246 0 0 0-.486-.002m-1.183.092c-.349 1.284-.352 1.23-.307 1.55a.246.246 0 0 0 .44.057c.147-.21.144-.252.391-1.463a.272.272 0 0 0-.525-.144m-1.509-.479a.305.305 0 0 0-.339.222c-.164.939-.257 1.234-.087 1.635a.213.213 0 0 0 .383.05c.262-.35.251-.745.312-1.602a.31.31 0 0 0-.27-.305m13.242 1.155c-.814-2.876-.015-6.436-.656-9.007-.067-.268-.52-.22-.492.066.358 3.649-.499 7.017.756 10.029.112.414.354.78.691 1.045a.26.26 0 0 0 .357-.096.26.26 0 0 0 .036-.13c-.035-.548-.34-.675-.692-1.907m2.146.449c-.056-.137-.276-.81-.29-.853a.203.203 0 0 0-.397.054c.02.68.263 1.335.691 1.865a.246.246 0 0 0 .328.02c.27-.21-.066-.449-.331-1.087m1.679-.134a7.3 7.3 0 0 1-.492-1.148.234.234 0 0 0-.45.124c.08.451.262.878.534 1.248.254.265.542.106.408-.224m1.118-.745a3 3 0 0 1-.36-.82.255.255 0 1 0-.492.135c.327 1.596 1.134 1.217.852.685m1.141-1.258c-.707-2.401-.674-5.481-2.132-7.708a.2.2 0 0 0-.345.202c1.23 2.336 1.02 5.027 1.77 7.639.094.328.173.775.475.973a.287.287 0 0 0 .42-.17 1.86 1.86 0 0 0-.188-.936"/><path fill="#38a1ff" d="M34.984 136.401c-.567 3.467-.789 7.276 1.097 10.24 4.148 6.523 16.293 6.033 21.292-7.141 1.766-4.656 3.444-7.094 3.923-9.571a5.67 5.67 0 0 0-.598-4.094 8.5 8.5 0 0 0-2.788-2.401c-3.812-2.413-7.014-4.399-11.465-5.12-4.018-.652-4.428 1.052-6.058 2.178-.91.628-2.02.902-2.96 1.476a5.24 5.24 0 0 0-2.441 4.053 22.4 22.4 0 0 0 .529 4.087 22.6 22.6 0 0 1-.53 6.293m3.879-3.886a7.9 7.9 0 0 1 1.455-2.316c2.077-2.478 4.849-4.592 8.06-4.977 3.211-.384 4.428 1.615 5.051 4.844.687 3.562.95 7.357-1.201 10.297-1.162.617-1.856 1.253-3.204 1.01a8.5 8.5 0 0 1-3.184-1.708c-3.89-2.736-5.986-2.645-6.917-4.474a3.42 3.42 0 0 1-.06-2.679z"/><path fill="#191919" d="M50.781 136.63c-.267.548-1.052.615-1.207.034-.082-.296 0-.704-.265-.864a.38.38 0 0 0-.338-.017.38.38 0 0 0-.212.263c-.063.295-.04.602.063.885a1.221 1.221 0 0 0 2.4-.185.237.237 0 0 0-.44-.116m-7.224-2.785a.26.26 0 0 0-.181-.007.25.25 0 0 0-.142.113.44.44 0 0 1-.334.189.44.44 0 0 1-.352-.153c-.31-.448-.043-.612-.026-1.154.009-.328-.264-.418-.47-.258a.83.83 0 0 0-.375.634c-.202 1.127.687 1.852 1.452 1.592.47-.157.786-.813.428-.956m5.888-1.098-.6-.536c-.2-.178-.54-.559-.82-.277a.375.375 0 0 0 .015.497c.053.059.339.296.635.551a8.5 8.5 0 0 0-2.347 2.898.23.23 0 0 0 .398.232c.188-.272.402-.522.6-.786a9.7 9.7 0 0 1 2.05-2.043.35.35 0 0 0 .163-.252.34.34 0 0 0-.094-.284m-2.132-1.968a3.33 3.33 0 0 1 2.551.082.384.384 0 0 0 .236.434.384.384 0 0 0 .466-.162c1.117-2.311-.311-4.722-1.855-4.092-1.138.463-1.818 2.121-1.899 3.362a.4.4 0 0 0 .159.31.4.4 0 0 0 .342.066m1.983-3.059c.84.211 1.003 1.712.775 2.554a3.32 3.32 0 0 0-2.394-.419c.165-.813.784-2.135 1.62-2.135m12.268-1.786a41 41 0 0 0 2.28-3.392c.416-.811.76-1.835-.014-2.336a1.52 1.52 0 0 0-1.23-.057 9.5 9.5 0 0 0-3.85 2.125.93.93 0 0 0-.31.656.195.195 0 0 0 .193.193c.285-.024.552-.151.75-.358a9 9 0 0 1 2.413-1.509 7 7 0 0 1 1.416-.427c.224-.011.272.091.29.233.098.716-1.1 2.245-2.426 4.586a.282.282 0 0 0 .315.416.28.28 0 0 0 .172-.13m-12.95-7.653c.82-5.634-1.394-6.4-2.52-5.529a3.57 3.57 0 0 0-1.062 2.071c-.738 2.965-.727 2.81-.656 3.064a.37.37 0 0 0 .45.257.4.4 0 0 0 .165-.093c.225-.231.164-.196.723-2.435a4.54 4.54 0 0 1 .867-2.162c.726-.639 1.295.756 1.394 2.038.201 2.518-.152 2.941.308 3a.29.29 0 0 0 .331-.211m-28.472-3.82q.036.035.084.051a.22.22 0 0 0 .257-.096c.24-.428.058-.777.245-2.859.162-1.22.163-2.456.004-3.676a5.5 5.5 0 0 0-.26-.759.27.27 0 0 0-.33-.175.27.27 0 0 0-.194.319c.024.123.119 1.226.127 1.35.131 2.1-.578 5.101.067 5.845m-.368 6.468c.113.401.333.763.636 1.048.164.119.362-.045.373-.214.045-.732-1.968-3.601-1.728-9.719a.276.276 0 0 0-.549 0 17.9 17.9 0 0 0 1.268 8.885m-4.843-3.104c.034.411.16.809.367 1.165.087.131.337.135.37-.049a9 9 0 0 0-.099-2.145c-.214-3.247.505-5.938.923-8.774a.26.26 0 0 0-.182-.308.256.256 0 0 0-.314.171c-.812 2.851-1.495 7.007-1.065 9.94m2.862 2.009c.253.778.562.794.632.574.21-.666-.357-1.031-.887-6.198a.25.25 0 0 0-.502 0 20.2 20.2 0 0 0 .757 5.624"/><path fill="#191919" d="M16.39 114.621a.213.213 0 1 0-.426 0 8.34 8.34 0 0 0 .433 4.018c.045.201.15.384.301.524a.19.19 0 0 0 .29-.03.2.2 0 0 0 .032-.104c-.004-.492-.02-.168-.245-1.102a12 12 0 0 1-.385-3.306"/><path fill="#191919" d="M34.194 135.161c-6.494-3.319-11.781-6.847-16.56-12.208a39.9 39.9 0 0 1-7.903-13.17c-1.312-3.71-4.176-14.392-4.67-20.272 1.551-.13 5.07-.477 6.748-.835.444-.096.353-.843-.11-.804-1.729.147-2.826.41-7.133.754a.47.47 0 0 0-.464.463 75 75 0 0 0 2.522 13.095c2.084 8.013 3.734 13.511 9.545 20.413a47.8 47.8 0 0 0 17.802 13.105c.305.124.52-.389.223-.541"/><path fill="#191919" d="M35.695 121.752c-.953-.772-4.011-2.201-6.574-4.223-4.295-3.387-5.884-7.006-5.973-12.373a54 54 0 0 1 1.41-11.796c.563-2.488.767-2.637.545-3.048a1.3 1.3 0 0 0-.85-.517 12 12 0 0 0-.978-.294.41.41 0 0 0-.318.746c.492.218.938.365 1.327.498a55 55 0 0 0-1.996 13.985c.03 9.034 4.39 13.106 12.642 17.302q.24.108.492.177c.256.076.486-.283.273-.457M8.61 87.904a23.4 23.4 0 0 1 2.394-11.913c.078-.153.222-.51.176-.398.285-.66-.301-.95-.678-.37a20.6 20.6 0 0 0-1.837 4.56 21.5 21.5 0 0 0-.667 8.118.306.306 0 1 0 .612.003m2.428-7.088a.26.26 0 0 0 .227.256.26.26 0 0 0 .286-.186c.574-4.026 1.91-5.67 1.85-6.215a.207.207 0 0 0-.305-.175c-.562.264-1.944 3.298-2.058 6.32"/><path fill="#38a1ff" d="M57.261 19.101a11.4 11.4 0 0 0-1.52-4.492.39.39 0 0 0-.432-.176 34 34 0 0 0-12.915 6.34c-.149.126.046.377.207.27.582-.381 1.16-.707 1.198-.733A38 38 0 0 1 49.95 17c.104.123.4.36 1.031.964a7.1 7.1 0 0 1 1.483 1.991.352.352 0 0 0 .64-.27c-.504-1.496-1.804-3.028-2.367-3.006a34 34 0 0 1 4.485-1.433 18.3 18.3 0 0 1 1.458 4.291.301.301 0 0 0 .546-.071q.05-.18.036-.366m-9.269 10.622a108 108 0 0 0-2.77 7.159c-1.33-1.28-4.603-3.913-6.38-4.284a.76.76 0 0 0-.595.011.333.333 0 0 0-.117.442c.118.274 1.088.672 1.405.832 2.654 1.326 5.102 3.566 5.474 3.616a153 153 0 0 0-2.27 7.231c-2.66-2.767-2.974-3.25-3.592-3.793a30 30 0 0 0-4.96-3.64 3.3 3.3 0 0 0-1.37-.535.352.352 0 0 0-.3.522c.328.541 1.786.854 4.875 3.362a51 51 0 0 1 5.14 4.798 55 55 0 0 1-1.887 5.664c-.738-.615-1.732-1.461-2.2-1.83-1.341-1.061-6.828-4.997-7.7-5.365-.328-.138-.43-.22-.672-.172a.21.21 0 0 0-.146.258c.094.442 1.418 1.266 1.877 1.575 6.038 4.063 7.147 5.051 8.59 6.13a55 55 0 0 1-1.863 3.898.29.29 0 0 0-.146-.265c-1.66-.858-1.68-.894-2.067-.82a.278.278 0 0 0-.164.404c.191.318.23.313 2 .965a.27.27 0 0 0 .253-.047 656 656 0 0 1-3.22 5.949.34.34 0 0 0-.195-.18c-1.621-.678-1.394-.6-1.833-.662a.312.312 0 0 0-.24.574c.418.246.245.181 1.917.66a.3.3 0 0 0 .139 0 419 419 0 0 0-2.927 5.467c-3.123-1.763-1.007-.89-7.83-3.507a1.9 1.9 0 0 0-.968-.136.287.287 0 0 0-.168.41c.18.316.705.592 5.961 2.473.445.164 1.852.928 2.706 1.33a224 224 0 0 0-2.388 4.703c-1.707-.552-5.363-1.486-6.642-1.85-5.084-1.45-5.35-1.686-6.993-2.182.308-1.312.633-2.624.959-3.936a.375.375 0 0 0-.722-.199 61.5 61.5 0 0 0-1.992 8.34 84.15 84.15 0 0 0 1.153 35.004.45.45 0 0 0 .54.307l5.256-1.51a.45.45 0 0 0 .322-.423c-.428-20.291 12.095-38.553 18.702-51.783 3.898-7.807 3.421-12.136 8.66-24.718.14-.335-.464-.593-.612-.247m-32.127 77.715a83 83 0 0 1-1.34-6.682c.95.035.855-.015 4.285-.478a7.6 7.6 0 0 0 1.839-.425 51 51 0 0 0-.291 6.294zm4.862-8.271c-.48.1-1.476.283-1.994.328a32 32 0 0 1-4.337.427 83 83 0 0 1-.742-7.134q.185.07.38.107a48 48 0 0 0 6.633.087.31.31 0 0 0 0-.593c-.488-.13-5.364-.25-6.15-.315a2.5 2.5 0 0 1-.918-.283 83 83 0 0 1-.007-7.78c1.152 1.11 7.01 2.088 8.292 2.235.368.072.747.074 1.116.006a.336.336 0 0 0 .082-.609c-.467-.246-1.394-.237-3.72-.73a39 39 0 0 1-4.055-1.06c-.608-.218-1.288-.739-1.662-.798a81 81 0 0 1 .587-6.114q.185.088.38.153c3.183 1.1 6.34 2.214 9.97 2.517a.349.349 0 0 0 .09-.683c-2.916-.716-4.27-.908-7.435-1.902-.665-.208-2.065-.79-2.87-1.017a82 82 0 0 1 1.158-6.232 81.5 81.5 0 0 0 10.616 3.09c.378.071 2.45.66 2.905.71-3.99 8.207-7.247 16.672-8.32 25.59"/><path fill="#191919" d="M142.198 60.722a.65.65 0 0 0 .145.536.354.354 0 0 0 .492 0 .67.67 0 0 0 .146-.536 3.93 3.93 0 0 0-.729-2.799.235.235 0 0 0-.317-.074.236.236 0 0 0-.093.314c.274.824.395 1.691.356 2.559m3.475 4.938a2.78 2.78 0 0 0-1.418-1.166.245.245 0 0 0-.329.055.25.25 0 0 0-.051.172.25.25 0 0 0 .08.16c.304.274.232.29.548.612a4.5 4.5 0 0 1 1.023 1.609q.062.24.188.453a.355.355 0 0 0 .404.167.36.36 0 0 0 .265-.347 3.6 3.6 0 0 0-.71-1.714m-1.572-3.853c-2.654.762-3.813.637-5.443 1.1a.433.433 0 0 0-.299.527 7.6 7.6 0 0 0 .924 1.735.408.408 0 0 0 .724-.115.4.4 0 0 0-.018-.296 8 8 0 0 1-.636-1.14c1.804-.42 3.715-.563 4.93-1.374a.239.239 0 0 0-.011-.426.24.24 0 0 0-.171-.012m-5.849 4.756c-.358-.116-.559.212-1.073.2a.7.7 0 0 1-.453-.203.6.6 0 0 1-.139-.307 1.47 1.47 0 0 1 .353-.981.27.27 0 0 0 .113-.337.27.27 0 0 0-.32-.155 1.67 1.67 0 0 0-.893 1.75 1.42 1.42 0 0 0 1.558 1.04c1.194-.13 1.253-.877.854-1.007m-1.124.197h.019-.022z"/><path fill="#191919" d="M153.832 69.283c1.825-1.203 4.188-3.558 3.198-5.494a5.56 5.56 0 0 0 .047-4.527 11.8 11.8 0 0 0-2.314-4.269 7.75 7.75 0 0 0-6.741-2.317 2.28 2.28 0 0 0-1.791 2.016c-.053.462-.069-.15-3.221 1.081-.174-1.263-2.039-1.408-3.242-.602-1.032.692-1.586 1.948-.705 2.494.082 0-3.034 1.677-4.231 2.566-2.67 1.987-2.516 4.351-1.257 7.393 1.161 2.8 2.237 4.949 5.294 4.96a15.8 15.8 0 0 0 5.116-1.171c.082.005.15.108.296.246a3.096 3.096 0 0 0 4.309-.2c1.112.004 3.567-1.187 4.49-1.716 3.013 5.846 5.724 12.257 5.927 18.919a71 71 0 0 1-2.065 18.368 48.5 48.5 0 0 1-4.018 9.965 29.7 29.7 0 0 1-5.75-1.713c2.111-4.574 4.838-12.419 3.747-17.325-1.699-7.612-18.58-17.521-20.297-41.322a44.2 44.2 0 0 0-1.431-9.661c-3.694-12.237-9.063-15.198-16.517-23.747a15.95 15.95 0 0 1 4.301-4.661c12.689 8.049 20.445 20.95 27.121 34.423.19.383.748.048.574-.333-6.35-13.581-14.833-27.119-27.461-35.085a.48.48 0 0 0-.486 0q-.292.202-.574.416a1.1 1.1 0 0 0-.191-.47c-1.467-2.62-4.51-4.972-7.057-6.44-.252-.145-.483.216-.287.373 2.442 1.953 5.011 3.422 6.687 6.314.106.183.229.475.418.556a17 17 0 0 0-3.519 3.839c-.533-.185-.515-.134-1.066-.344-2.87-1.087-3.646-2.97-4.856-3.94-.58-.465-1.619-1.047-2.244-.648a.28.28 0 0 0-.135.24.28.28 0 0 0 .135.24c.552.317.797.108 1.598.702 1.277.947 2.158 3.16 5.679 4.25.164.05.323.101.488.136-.146.246-.348.496-.064.824 7.004 8.1 12.114 11.122 15.701 21.092 2.171 6.036 1.862 8.295 2.549 16.22-1.621.604-3.325 1.342-4.393 2.76a1.83 1.83 0 0 0 .054 2.57 3.68 3.68 0 0 0 2.46.46 7.7 7.7 0 0 0 2.58-.375 20.4 20.4 0 0 0 2.214 6.15 16.3 16.3 0 0 0-4 2.733c-1.13 1.244-.345 2.582.95 2.9a10.4 10.4 0 0 0 5.711-.974c2.819 4.543 8.417 11.966 9.77 13.612-.41.48-1.482 5.468-6.615 11.152a32.7 32.7 0 0 1-10.282 7.661c-1.722.809-3.526 1.375-5.297 2.066-.196-.626-1.437-4.152-1.606-4.592-.308-.803-.632-.958-1.418-1.312-3.541-1.586-3.375-1.565-3.608-1.468-.333.14-.149.239-.798 2.424-.588 1.978-.891 2.223-.561 2.747.101.164 3.631 4.293 3.789 4.47-2.43 1.99-2.419 4.032-3.629 5.912-5.607-4.83-3.88-5.179-6.009-5.166l-3.542.019a.44.44 0 0 0-.428.428c-.005.082-.289 4.683-.285 4.792.032.738.282.651 4.627 3.412-2.958 2.267-2.903 5.991-5.261 9.954-1.22 2.05-2.115 2.706-3.423 4.26-.051-.152-.587-1.869-.911-2.97a.457.457 0 0 0-.556-.315 58.4 58.4 0 0 1-15.382 3.804c-7.626.806-12.956.009-20.863-5.709-.28-.203-.619-.341-.889-.552a.339.339 0 1 0-.48.48q.672.673 1.449 1.221c7.216 5.192 13.069 6.124 19.71 5.543a60 60 0 0 0 16.282-3.758q.48 1.628.992 3.247c-7.083 6.3-15.252 6.864-23.637 9.411a8 8 0 0 0-.932.308c-.69.31-.552 1.133-.521 1.768a40.8 40.8 0 0 1-18.837-5.98c-.35-.218-.63.306-.316.54 4.182 3.107 10.496 5.708 19.182 6.41l.062 2.228c.01.349-.046.732.237.984.194.17.41.174 1.13.246 5.014.501 10.093-.3 15.069-1.358 10.504-2.232 20.268-4.606 30.117-15.826.644-.738.649-.783.775-.884.019.222.221.391.61.241-.235.091 1.047-.677 6.091-.269.942.08 1.87.286 2.757.612a.256.256 0 0 0 .349-.09.256.256 0 0 0-.091-.348 7.03 7.03 0 0 0-3.658-1.039c-.998-.078-3.099-.037-4.044 0-.592.022-.266.073-.442-.164-1.476-1.998-4.655-6.888-5.225-9.28-.773-3.243 1.722-5.248 5.518-3.755a31.6 31.6 0 0 1 8.96 6.008q.112.104.229.2c-.961 2.592-1.67 5.391-.885 8.03a.26.26 0 0 0 .283.184.254.254 0 0 0 .223-.253c-.637-4.956 1.997-9.03 2-10.097 7.38-7.153 12.225-17.035 14.848-26.803.402 4.287-2.093 11.585-4.063 15.744a.49.49 0 0 0 .173.656c1.119.492.709.193.574.447a39 39 0 0 1-2.132 4.123c-.535.843-.622.788-.549 1.252.019.128.156.171.301.151.355-.048.542-.424.838-.882a15.5 15.5 0 0 0 2.05-4.434.28.28 0 0 0-.04-.224c1.7.669 3.459 1.179 5.253 1.523-.238.207-.212 1.296-.28 1.94-.253 2.409-1.334 4.87-2.227 7.159-.114.293.367.492.508.214 1.273-2.524 2.465-5.314 2.563-8.13a2.9 2.9 0 0 0-.189-1.111l.092.018a.495.495 0 0 0 .537-.219c4.838-9.202 6.16-17.832 6.301-28.036.093-6.975-2.871-14.25-6.069-20.45m-11.486-13.359c0 .016.008.033 0 0m-2.924.975c-.137-.34.612-1.024 1.055-1.243.574-.281 1.701-.363 1.862.252.103.226-.675.328-2.542 1.355-.027-.156-.304-.184-.375-.36zm5.993 14.558c-.671-.292-.82-.815-1.389-.846-.464-.025-.629.229-2.07.656-1.627.482-3.803.89-5.202-.073a4.3 4.3 0 0 1-1.066-1.115 18.3 18.3 0 0 1-2.05-4.756c-.77-3.397 1.394-4.42 4.315-6.157a30.1 30.1 0 0 1 8.273-3.72c.22 3.384 2.432 7.128 4.051 9.847q.199.346.45.656a10.2 10.2 0 0 0-2.87 2.05.47.47 0 0 0-.123.375.46.46 0 0 0 .214.331c1.31 1.312-.255 3.576-2.533 2.755zm-29.572 37.532c0 .017 0 .058 0 0-.044-.087.53-1.294 1.109-3.767 3.526 1.544 3.576 1.453 3.815 2.002.174.477 1.538 4.203 1.731 4.674-1.014.403-1.983.91-2.892 1.513-.413-.497-3.685-4.298-3.763-4.419zm-9.936 10.931c-.02-.115.048-1.049.246-4.386 3.979-.022 3.659-.034 3.813.019.294.164 2.073 2.921 4.944 4.806-1.125 1.312-2.937 1.562-4.433 2.413-.355-.217-4.66-2.849-4.57-2.849z"/><path fill="#191919" d="M101.188 16.154c5.363-.383 6.354 1.196 7.509 1.148a.19.19 0 0 0 .188-.19.2.2 0 0 0-.024-.094 1.34 1.34 0 0 0-.604-.538 11.23 11.23 0 0 0-7.141-.866c-.297.082-.248.567.072.54m1.482-1.968c4.087 0 5.595 1.247 6.181 1.066a.2.2 0 0 0 .085-.048.2.2 0 0 0 .056-.08.23.23 0 0 0-.012-.19c-.292-.618-3.741-1.553-6.31-1.221a.235.235 0 0 0-.223.236c0 .06.023.119.064.163a.24.24 0 0 0 .159.074m2.548-1.86c2.582.48 3.638 1.553 4.34 1.666a.158.158 0 0 0 .193-.14.16.16 0 0 0-.018-.087 1.6 1.6 0 0 0-.41-.464 8.24 8.24 0 0 0-4.035-1.493c-.294-.032-.363.464-.07.518m24.021 116.042c-.302-.129-.431-.3-.666-.328a.32.32 0 0 0-.305.103.3.3 0 0 0-.07.151.3.3 0 0 0 .017.166c.074.18.212.327.388.41a1.29 1.29 0 0 0 1.523.114c.154-.096.287-.223.39-.374a1.67 1.67 0 0 0-.148-1.644.276.276 0 0 0-.454-.027.27.27 0 0 0-.057.165c.101.916.269 1.521-.618 1.264m-3.678 3.508c-.2.375-.605.2-1.02.27a.292.292 0 0 0-.179.404.3.3 0 0 0 .111.123c.827.447 1.951-.26 1.688-1.088-.029-.091-.172-.358-.181-.41a.26.26 0 0 0-.065-.323c-.234-.179-.472.099-.466.387s.175.463.112.637m1.981-.914a.276.276 0 0 0 .389-.388 7.3 7.3 0 0 1-2.013-3.548.63.63 0 0 0-.753-.26c-1.201.321-1.277 1.081-.919 1.161s.82-.419 1.044-.419a6.63 6.63 0 0 0 2.252 3.454m-4.434-7.693a1.58 1.58 0 0 0-1.486-.035 1.58 1.58 0 0 0-.863 1.211 1.915 1.915 0 0 0 1.43 2.172.984.984 0 0 0 .96-.95 1.01 1.01 0 0 0 .722-.637 1.01 1.01 0 0 0-.133-.953 1.55 1.55 0 0 0-.63-.808m19.214-2.826c-.738 3.642.11 12.982-5.039 18.724a7.2 7.2 0 0 1-1.688 1.389c-.278.158-.092.636.223.527 2.27-.78 4.173-4.264 5.028-6.505a32.2 32.2 0 0 0 1.743-8.707c.078-.891.339-4.457.341-4.68s-.015-.445-.021-.667a.3.3 0 0 0-.075-.194.3.3 0 0 0-.512.113m-8.624 21.451c-4.237 3.007-9.444 3.762-14.128 1.498a11.6 11.6 0 0 0-1.737-.855.295.295 0 0 0-.371.266.3.3 0 0 0 .036.167c.409.448.91.8 1.469 1.033a13.48 13.48 0 0 0 15.036-1.711c.213-.186-.066-.566-.305-.398m14.766-21.716a.27.27 0 0 0 .021-.206.28.28 0 0 0-.502-.074c-3.144 4.519-4.094 4.257-4.352 5.254a.2.2 0 0 0 .032.159.2.2 0 0 0 .064.052q.038.02.08.02a2.07 2.07 0 0 0 1.194-.723 16.9 16.9 0 0 0 3.463-4.482m1.341 2.054a.62.62 0 0 0 .123-.452.22.22 0 0 0-.112-.186.22.22 0 0 0-.216-.004.7.7 0 0 0-.141.063c-.232.156-.67.972-1.691 2.167-.61.713-2.407 2.612-3.263 2.984-.275.119-.082.574.204.483 1.602-.515 4.515-3.983 5.096-5.055m.859.173a.13.13 0 0 0-.036-.06.13.13 0 0 0-.061-.035.14.14 0 0 0-.071 0 .15.15 0 0 0-.061.036c-.643.683-.984 2.945-3.908 5.23-.215.168.064.524.291.378 2.622-1.683 3.99-4.593 3.846-5.549m-76.536 30.993a13.5 13.5 0 0 1-4.142.152 12.3 12.3 0 0 1-2.818-.709c-2.559-.967-3.609-2.355-4.277-2.613a.26.26 0 0 0-.321.186.26.26 0 0 0 0 .136q.06.174.18.318c1.898 2.348 6.709 4.094 10.157 3.335.452-.1.903-.214 1.345-.351a.236.236 0 0 0-.125-.454m-7.207-2.064c.246.082.423-.318.18-.427-3.104-1.394-3.745-2.499-4.178-2.228-.164.104-.113.345 0 .469a11.9 11.9 0 0 0 3.998 2.186m54.363-108.746a29.4 29.4 0 0 1 5.921 6.087.358.358 0 0 0 .561-.433 10.8 10.8 0 0 0-1.344-1.937c-3.388-4.148-8.278-7.072-12.902-9.745a23.7 23.7 0 0 0-5.336-2.554.348.348 0 0 0-.184.67c3.305 1.305 10.481 5.716 13.284 7.912"/><path fill="#38a1ff" d="M96.186 17.06a.35.35 0 0 0-.44-.21c-.44.14-.634.999-2.063 1.64a6.95 6.95 0 0 1-5.963-.235 3.8 3.8 0 0 0 2.535-.582c1.916-1.221 2.854-3.295 3.403-5.481a.492.492 0 1 0-.947-.261 14 14 0 0 1-.596 1.776 6.36 6.36 0 0 1-2.004 2.802c-2.142 1.606-3.494.113-4.005.567-.265.037-.358.089-.754.133a3.22 3.22 0 0 1-2.534-.788 2.8 2.8 0 0 1-.773-.765c-.558-.83-1.767-3.08-1.81-4.028a.397.397 0 0 0-.398-.398.4.4 0 0 0-.399.398 11.2 11.2 0 0 0 1.414 3.632 4.43 4.43 0 0 0 1.658 1.934c.692.533 1.537.83 2.41.846.712 0 .858-.156.752-.053a2.95 2.95 0 0 1-1.075.721c-2.239.842-5.827-.377-7.458-3.304a.404.404 0 0 0-.738.104.4.4 0 0 0 .043.306c2.466 4.478 8.51 5.06 9.864 2.39.48.542 1.085.958 1.762 1.212 3.623 1.526 7.253-.141 7.967-1.61a.92.92 0 0 0 .149-.745m-9.424 4.378a.5.5 0 0 0-.95-.038.53.53 0 0 0 .213.592.505.505 0 0 0 .737-.554"/></svg>