<svg xmlns="http://www.w3.org/2000/svg" fill="none" viewBox="0 0 18 15"><path stroke="#65636d" stroke-linecap="round" stroke-linejoin="round" d="m16.75 12.167-5.536-5m-4.762 0-5.535 5M.5 3l6.804 4.763c.551.386.827.578 1.126.653.265.066.542.066.806 0 .3-.075.576-.267 1.127-.653L17.167 3M4.5 13.833h8.667c1.4 0 2.1 0 2.635-.272a2.5 2.5 0 0 0 1.092-1.093c.273-.534.273-1.235.273-2.635V4.5c0-1.4 0-2.1-.273-2.635A2.5 2.5 0 0 0 15.802.772C15.267.5 14.567.5 13.167.5H4.5C3.1.5 2.4.5 1.865.772A2.5 2.5 0 0 0 .772 1.865C.5 2.4.5 3.1.5 4.5v5.333c0 1.4 0 2.1.272 2.635a2.5 2.5 0 0 0 1.093 1.093c.535.272 1.235.272 2.635.272"/></svg>