<svg xmlns="http://www.w3.org/2000/svg" fill="none" viewBox="0 0 24 24"><rect width="24" height="24" fill="#dbecff" rx="12"/><path fill="#09355d" fill-rule="evenodd" d="M20.654 20.654a5.3 5.3 0 0 0 1.2-1.842c.257-.661.433-1.417.483-2.524.05-1.11.063-1.464.063-4.288s-.012-3.179-.063-4.288c-.05-1.107-.226-1.863-.483-2.524a5.1 5.1 0 0 0-1.2-1.842 5.1 5.1 0 0 0-1.842-1.2c-.662-.257-1.418-.433-2.524-.483C15.178 1.612 14.824 1.6 12 1.6s-3.18.012-4.288.063c-1.107.05-1.863.226-2.525.483a5.1 5.1 0 0 0-1.842 1.2 5.1 5.1 0 0 0-1.2 1.842c-.256.661-.432 1.417-.483 2.524C1.612 8.822 1.6 9.176 1.6 12s.012 3.179.062 4.288c.05 1.107.227 1.863.484 2.524a5.1 5.1 0 0 0 1.2 1.842c.519.53 1.147.939 1.841 1.2.662.257 1.418.433 2.525.483 1.11.051 1.463.063 4.288.063 2.824 0 3.179-.012 4.288-.063 1.107-.05 1.863-.226 2.524-.483a5.3 5.3 0 0 0 1.842-1.2M3.2 10.776v2.448c-.002 1.313-.002 1.654.032 2.4.043.937.094 1.626.25 2.144.15.5.319 1.007.869 1.62.55.612 1.08.89 1.756 1.093.676.204 1.525.248 2.262.281.837.038 1.168.038 2.923.038h1.894c1.346.002 1.685.002 2.44-.032.936-.043 1.625-.094 2.144-.25.498-.15 1.006-.319 1.618-.869s.89-1.08 1.094-1.756.248-1.525.281-2.263c.038-.835.038-1.166.038-2.914v-1.425c0-1.754 0-2.085-.038-2.922-.033-.737-.077-1.586-.28-2.262C20.276 5.43 20 4.9 19.386 4.35c-.612-.55-1.12-.719-1.618-.87-.52-.155-1.208-.206-2.144-.25-.755-.034-1.094-.033-2.44-.032L12 3.2h-.71c-1.754 0-2.085 0-2.922.037-.737.034-1.586.078-2.262.282S4.9 4 4.35 4.612c-.55.613-.719 1.12-.869 1.62-.156.518-.207 1.206-.25 2.143-.034.747-.034 1.087-.032 2.4m8.8-2.376a3.6 3.6 0 1 0 0 7.2 3.6 3.6 0 0 0 0-7.2M6.8 12a5.2 5.2 0 1 1 10.4 0 5.2 5.2 0 0 1-10.4 0m10.752-4.352a1.2 1.2 0 1 0 0-2.4 1.2 1.2 0 0 0 0 2.4" clip-rule="evenodd"/></svg>