<svg xmlns="http://www.w3.org/2000/svg" fill="none" viewBox="0 0 42 42"><rect width="42" height="42" fill="#fff" rx="21"/><rect width="41" height="41" x=".5" y=".5" stroke="#007dfe" stroke-opacity=".537" rx="20.5"/><path stroke="#0078d4" stroke-linecap="round" stroke-linejoin="round" d="M18.083 32.667h5.833m-5.25-14h4.667m-2.333 0v7m3.5-.786a8.167 8.167 0 1 0-7 0v.786c0 1.087 0 1.63.177 2.06a2.33 2.33 0 0 0 1.263 1.262c.429.178.973.178 2.06.178s1.63 0 2.06-.178a2.33 2.33 0 0 0 1.262-1.263c.178-.428.178-.972.178-2.06z"/></svg>