<svg xmlns="http://www.w3.org/2000/svg" fill="none" viewBox="0 0 24 24"><rect width="24" height="24" fill="#dbecff" rx="12"/><path fill="#09355d" fill-rule="evenodd" d="M3.2 1.6a1.6 1.6 0 0 0-1.6 1.6v17.6a1.6 1.6 0 0 0 1.6 1.6h17.6a1.6 1.6 0 0 0 1.6-1.6V3.2a1.6 1.6 0 0 0-1.6-1.6zm1.68 8h3.04v9.6H4.88zm3.24-3.192a1.72 1.72 0 1 1-3.44 0 1.72 1.72 0 0 1 3.44 0m11.08 6.963c0-2.888-1.867-4.01-3.721-4.01a3.5 3.5 0 0 0-1.753.369c-.412.206-.842.678-1.174 1.5h-.085V9.6H9.6v9.608h3.05v-5.11c-.045-.523.123-1.2.466-1.602.342-.403.832-.499 1.204-.548h.116c.97 0 1.69.6 1.69 2.114v5.146h3.05z" clip-rule="evenodd"/></svg>