<svg xmlns="http://www.w3.org/2000/svg" fill="none" viewBox="0 0 18 18"><path fill="#65636d" fill-rule="evenodd" d="M1.333 0C.597 0 0 .597 0 1.333V16c0 .736.597 1.333 1.333 1.333H16c.736 0 1.333-.597 1.333-1.333V1.333C17.333.597 16.736 0 16 0zm1.4 6.667h2.534v8H2.733zm2.7-2.66a1.433 1.433 0 1 1-2.866 0 1.433 1.433 0 0 1 2.866 0m9.234 5.803c0-2.407-1.556-3.343-3.101-3.343a2.94 2.94 0 0 0-1.461.308c-.343.172-.701.565-.978 1.25h-.071V6.667h-2.39v8.006h2.542v-4.258c-.037-.436.103-1 .389-1.335.285-.336.694-.416 1.003-.456h.097c.808 0 1.408.5 1.408 1.76v4.289h2.541z" clip-rule="evenodd"/></svg>