<svg xmlns="http://www.w3.org/2000/svg" fill="none" viewBox="0 0 164 164"><path fill="#71b6f6" d="M100.959 64.854a4.87 4.87 0 0 1 4.556-.73c-1.333-4.92-2.688-10.495-6.06-14.215-.455-.478-3.212-3.28-6.629-3.804a15 15 0 0 0-5.764.319c-2.3.547-2.825 1.047-3.463 2.005a31 31 0 0 0-1.913 3.667c.564 0 4.61-2.095 9.135-.98 5.354 1.3 6.447 4.374 7.199 5.718a78 78 0 0 1 2.939 8.02m-43.739.296c-.41.019-.799.023-1.209.023a34 34 0 0 0-.638-1.618c-.182-.433-.866-.547-.979 0s-.228 1.071-.365 1.595c-.574-.023-1.162-.046-1.73-.091a.567.567 0 0 0-.275 1.048c.48.25.957.501 1.413.774a4.3 4.3 0 0 0-.456 1.64c-.114.433.524.751.89.455.431-.319.841-.656 1.274-.979.388.273.752.57 1.14.865.387.32 1.161.023.934-.546-.183-.502-.388-1.003-.574-1.48l.843-.639c.391-.341.323-1.075-.269-1.047m-6.973.547q-.686.011-1.367.09c-.136-.364-.246-.728-.364-1.093a.558.558 0 0 0-1.071 0c-.091.433-.205.866-.32 1.276q-.861.109-1.73.114c-.547 0-.843.843-.297 1.093.433.206.889.41 1.322.616-.23.47-.369.98-.41 1.503a.41.41 0 0 0 .706.274c.456-.342.91-.638 1.367-1.003.41.182.82.387 1.23.574a.59.59 0 0 0 .797-.798 21 21 0 0 1-.524-.98c.319-.25.616-.478.957-.705a.522.522 0 0 0-.296-.961m-7.472.182c-.478.031-.934.068-1.413.091-.228-.456-.456-.934-.683-1.39-.205-.433-.798-.25-.934.114-.164.456-.319.934-.479 1.394-.615.045-1.23.068-1.845.091-.456.023-.752.729-.25.934.432.205.888.387 1.343.592a7.5 7.5 0 0 0-.5 1.413.501.501 0 0 0 .728.592c.023-.023 1.276-.865 1.71-1.162.5.228.978.456 1.457.707a.501.501 0 0 0 .683-.684c-.159-.364-.341-.729-.5-1.116.318-.205.637-.41.956-.638a.508.508 0 0 0-.273-.938m90.42-41.508c-.388-.02-.775-.046-1.139-.046-.183-.569-.342-1.139-.524-1.708a.51.51 0 0 0-.797-.266.5.5 0 0 0-.183.266c-.16.524-.319 1.025-.456 1.55-.546-.069-1.066-.115-1.617-.206a.563.563 0 0 0-.666.717.57.57 0 0 0 .233.308c.455.274.888.574 1.321.866a4.5 4.5 0 0 0-.569 1.686c0 .091.319.865.774.478q.673-.518 1.413-.934c.364.32.729.638 1.093.984a.561.561 0 0 0 .934-.547c-.136-.5-.296-.984-.432-1.48.296-.206.615-.41.911-.616a.576.576 0 0 0-.296-1.052m-6.973.023c-.455-.032-.888-.023-1.344-.023-.114-.387-.205-.775-.296-1.162a.556.556 0 0 0-1.07 0c-.114.41-.246.82-.388 1.208a16 16 0 0 1-1.776-.023.595.595 0 0 0-.553.437.59.59 0 0 0 .257.656c.432.251.888.502 1.321.752q-.282.664-.524 1.344c-.137.41.41.661.706.41.068-.068.984-.706 1.298-.91.41.227.843.478 1.253.705a.594.594 0 0 0 .857-.434.6.6 0 0 0-.059-.363c-.16-.319-.297-.66-.433-.98.341-.227.683-.432 1.025-.638.478-.25.228-.943-.274-.979m-7.239.273h-1.394c-.182-.455-.365-.888-.547-1.344-.137-.365-.729-.574-.934-.114l-.615 1.435a51 51 0 0 1-1.868-.045.503.503 0 0 0-.251.934c.41.228.843.456 1.253.661q-.33.645-.592 1.321a.52.52 0 0 0 .105.598.52.52 0 0 0 .601.085 82 82 0 0 1 1.755-1.002l1.435.82a.511.511 0 0 0 .751-.569c-.136-.41-.296-.82-.455-1.23.341-.182.683-.387 1.025-.569a.53.53 0 0 0 .22-.588.54.54 0 0 0-.489-.393m-13.605.866c.41.223.843.456 1.253.661q-.332.645-.593 1.321a.516.516 0 0 0 .707.683 80 80 0 0 1 1.754-1.002l1.435.82a.51.51 0 0 0 .752-.569c-.137-.41-.296-.82-.456-1.23.342-.182.684-.387 1.026-.569a.53.53 0 0 0 .043-.873.53.53 0 0 0-.317-.11h-1.39c-.182-.456-.364-.889-.546-1.345-.137-.364-.73-.569-.935-.114l-.614 1.435c-.615 0-1.253-.022-1.869-.045a.51.51 0 0 0-.469.377.51.51 0 0 0 .219.56m3.373 42.327a6.45 6.45 0 0 0-1.892-1.913c-3.041-2.17-6.894.417-7.358 3.873-.182 1.458-.319 4.215.934 6.314a4.7 4.7 0 0 0 6.265 1.845c3.148-1.607 3.782-7.206 2.051-10.118m-1.071 7.135a.5.5 0 0 1-.518.088.49.49 0 0 1-.302-.43c.046-1.207.502-2.324.433-3.554a4.94 4.94 0 0 0-1.48-3.53c-.388-.343.137-1.006.547-.707a5.44 5.44 0 0 1 2.141 3.736c.204 1.387.181 3.3-.821 4.394zM68.06 32.983c-.866-2.87-18.906-1.542-21.074-1.071a2.07 2.07 0 0 0-1.845 2.255c-.036 2.028-.592 10.32-.274 12.417.502 3.37 3.532 3.165 6.243 3.256 1.55.046 8.133-.068 8.133-.068 5.166 3.706 4.407 3.294 4.51 3.19.09-.684-.433-3.258.683-3.418.456-.068 2.689-.068 3.122-.796 1.028-1.71.709-15.128.502-15.765M51.363 41.82a1.17 1.17 0 0 1-1.275-1.025 1.148 1.148 0 0 1 1.776-.957 1.077 1.077 0 0 1-.501 1.982m5.285 0c-1.048 0-1.253-.592-1.276-1.025a1.148 1.148 0 0 1 1.777-.957 1.079 1.079 0 0 1-.5 1.982m5.172 0c-1.117 0-1.254-.592-1.276-1.025a1.148 1.148 0 0 1 1.776-.955 1.08 1.08 0 0 1-.5 1.98m97.707 27.388a2.05 2.05 0 0 0-1.846-2.255c-2.141-.456-20.206-1.777-21.074 1.093-.182.638-.501 14.057.501 15.765.433.729 2.665.729 3.121.797 1.23.176.511 3.313.707 3.508 0-.045 4.761-2.778 4.761-2.778s6.31-.388 7.86-.433c2.711-.091 5.74.09 6.242-3.258.32-2.1-.236-10.389-.272-12.439m-15.4 6.63c-.046.432-.182 1.116-1.276 1.025a1.07 1.07 0 0 1-.956-.798 1.12 1.12 0 0 1 .389-1.127 1.13 1.13 0 0 1 1.182-.154 1.09 1.09 0 0 1 .661 1.05zm5.149 0c-.046.432-.137 1.025-1.276 1.025a1.02 1.02 0 0 1-.957-.798 1.13 1.13 0 0 1 .392-1.123 1.13 1.13 0 0 1 1.18-.152 1.09 1.09 0 0 1 .661 1.044zm5.307.023c-.045.432-.296 1.002-1.298 1.025a1.07 1.07 0 0 1-.908-1.478c.086-.21.236-.386.429-.504a1.146 1.146 0 0 1 1.616.365c.106.178.162.381.161.588z"/><path fill="#191919" d="M82.46 78.25c-.364-.026-.501.455-.296.683 1.73 1.89 5.536-.046 5.494-2.438a.456.456 0 0 0-.843-.227 4.2 4.2 0 0 1-1.731 1.886c-.893.46-1.69.156-2.624.096m-2.1-20.709c-.363.299.022.888.455.774 1.298-.41 2.164.524 2.141 1.804-.037 1.548-1.476 3.623-2.597 8.293-.456 1.845-1.572 6.994 1.96 6.584.364-.046.523-.615.09-.706-2.779-.57-1.116-4.944-.638-6.698 1.215-4.3 3.493-7.34 1.71-9.614a2.19 2.19 0 0 0-3.122-.437m8.684 8.315c1.116.117 2.71-.82 2.574-2.096a.485.485 0 0 0-.889-.25c-.387.569-.683 1.207-1.48 1.23a1.57 1.57 0 0 1-1.503-1.413.376.376 0 0 0-.752 0 2.38 2.38 0 0 0 2.05 2.529"/><path fill="#191919" d="M81.18 63.145a.457.457 0 0 0-.682-.387c-.251.136-.456.433-.798.364-.32-.068-.433-.41-.524-.683a.311.311 0 0 0-.57-.069 1.3 1.3 0 0 0 .775 1.777c.687.251 1.853-.137 1.8-1.002m6.838-4.42c2.207-.537 3.827.866 4.943 2.552a.464.464 0 0 0 .843-.365c-.41-2.642-3.781-3.69-5.991-2.893a.368.368 0 0 0 .205.706M74.668 85.721c1.23.656 3.349.524 3.737-.524.865-2.347-1.663-4.306-4.078-3.349a9.1 9.1 0 0 1-1.732-3.986c-.434-2.504.386-4.624 1.048-6.994.114-.41-.433-.592-.66-.273-2.598 3.577-2.233 8.998.478 12.415a2.46 2.46 0 0 0 1.207 2.711"/><path fill="#191919" d="M155.86 148.142a266 266 0 0 0-5.286-.114c.41-6.242.957-12.484 1.071-18.749a.57.57 0 0 0-.229-.453.58.58 0 0 0-.5-.093 22.7 22.7 0 0 1-6.424 1.066 25.2 25.2 0 0 1-6.515-.865.558.558 0 0 0-.706.524c.013 6.229.6 12.444 1.754 18.566-1.781.018-20.444-.029-42.173-.093 9.214-.497 20.122-4.228 26.886-10.501a49 49 0 0 1-1.777 9.523c-.137.501.661.889.888.365a25.5 25.5 0 0 0 1.505-5.65c.431-1.734.592-3.524.478-5.308a25.69 25.69 0 0 0 7.176-21.05c-.941-9.408-4.756-16.35-13.191-21.186a7.5 7.5 0 0 0 3.6-2.233 4.87 4.87 0 0 0 1.139-4.237c-.365-1.436-1.595-2.214-2.87-2.803a8.06 8.06 0 0 1-3.394-3.03c-2.962-4.305-1.732-9.977-1.755-12.688-.091-9.184-.25-22.508-9.658-27.43-5.422-2.847-13.624-2.414-17.018 3.213a13.4 13.4 0 0 1 4.146.183 11.88 11.88 0 0 1 7.199 4.122 21.8 21.8 0 0 1 4.124 7.336c.752 2.05 2.437 8.338 2.437 8.338a7.4 7.4 0 0 1 2.529 2.438c1.964 3.407 1.219 9.662-2.346 11.504a5.26 5.26 0 0 1-6.47-1.23 17.35 17.35 0 0 0 .729 8.566c.683 1.96 1.412 4.055 3.007 5.308-1.197.684-7.15 5.73-9.295 6.949-2.506 1.412-7.177 3.508-8.065-.707-.09-.455-.775-.25-.706.182 1.14 6.15 8.774 1.823 11.755-.136 1.139-.752 5.377-4.374 6.516-5.126 3.804-2.529 9.271.068 12.802 1.982a25.8 25.8 0 0 1 10.093 9.184 29.2 29.2 0 0 1 3.622 14.215c.068 9.751-5.468 17.93-13.737 22.759a45.4 45.4 0 0 1-14.056 5.084c-5.103 1.025-10.548 1.412-15.58-.069a17.4 17.4 0 0 1 .023-7.267 20.24 20.24 0 0 0 18.665-5.541 20.23 20.23 0 0 0 5.346-18.721c-.182-.911-1.594-.524-1.39.387a18.88 18.88 0 0 1-5.229 17.6 18.88 18.88 0 0 1-17.711 4.84.683.683 0 0 0-.82.455q-.267 1.097-.433 2.214a10.8 10.8 0 0 0-4.146-1.617c-3.7-.793-6.026.724-9.227 2.756a32 32 0 0 0-4.556 2.962c-.297.273.022.866.41.706 4.683-1.948 7.889-6.636 13.326-5.376 1.4.406 2.77.908 4.1 1.503a16.6 16.6 0 0 0 .246 4.853c.251 1.276.524 1.344 1.755 1.663a25 25 0 0 0 4.653.714l-7.467-.022a1.43 1.43 0 0 0 .353-1.057 2.87 2.87 0 0 0-.5-1.663c-.548-.547-12.598.091-17.68-.114-1.844-3.759-3.644-7.544-5.467-11.322a26.2 26.2 0 0 0 10.98-7.336c.045 3.47.914 9.093 2.848 11.801.365.501 1.23.228 1.025-.433-.592-1.982-1.594-3.805-2.05-5.855a29.83 29.83 0 0 1 2.324-18.954.393.393 0 0 0-.683-.387 26.9 26.9 0 0 0-3.44 11.869 29.3 29.3 0 0 1-11.437 8.429c-1.708-3.554-3.417-7.134-5.148-10.684 3.72-3.921 8.364-12.046 12.826-16.767 6.287-6.698 11.436-8.43 13.144-8.93 4.876-1.368 5.924.09 6.015-.525.27-1.68.368-3.383.296-5.084a16.2 16.2 0 0 0-.41-3.736c2.62-.57 4.739-2.733 4.329-5.718-.07-.524-.89-.364-.912.114a4.69 4.69 0 0 1-3.508 4.237 6.8 6.8 0 0 1-5.924-1.8c-2.825-2.505-4.396-6.538-5.125-10.16A23.16 23.16 0 0 1 82.914 53.3a.338.338 0 0 0-.478-.478 23.05 23.05 0 0 0-7.017 18.338c.41 6.015 3.444 15.105 10.435 16.039q.624.073 1.252.045c.044 2.472.637 2.367.16 7.519-.023 0-.023-.023-.046-.023-3.303-.73-7.016.706-9.91 2.232-6.982 3.664-11.354 9.79-15.744 16.084-1.891 2.711-3.896 5.33-5.878 7.973-.843-1.754-5.99-11.644-6.766-11.89-.803-.259-37.72.352-41.872 1.139-2.05.387-.227 3.258.274 4.374 4.442 10.183 16.948 33.033 16.974 33.056-4.375-.069-8.61-.114-13.009-.16a.377.377 0 0 0-.265.642c.07.07.166.11.265.11 36.86 1.763 135.24 1.079 144.524.683a.42.42 0 0 0 .43-.229.42.42 0 0 0 .019-.336.43.43 0 0 0-.233-.243.4.4 0 0 0-.169-.033m-6.425-.114c-3.189-.023-6.378 0-9.545.023a138 138 0 0 1-1.48-17.838c1.996.499 4.047.752 6.105.752a22.7 22.7 0 0 0 5.968-.911c-.137 6.014-.66 11.982-1.048 17.974"/><path fill="#71b6f6" d="M33.911 127.182c-.319-.319-1.412-1.117-2.3-.319-1.345 1.184.66 4.214 2.213 4.123 2.457-.135.68-3.347.087-3.804"/><path fill="#191919" d="M140.392 128.641c-.22-2.344-.183-4.92-.775-7.199a.46.46 0 0 0-.493-.321.45.45 0 0 0-.395.435c-.046 2.347.569 4.876.888 7.199.068.433.818.342.775-.114m3.144-.091a117 117 0 0 1-.479-11.163.577.577 0 0 0-.949-.359.57.57 0 0 0-.19.359 42.6 42.6 0 0 0 .866 11.277.38.38 0 0 0 .423.258.39.39 0 0 0 .329-.372m4.078-.341c.415-2.282.615-4.648.843-6.949.366-2.429.564-4.88.592-7.336a.54.54 0 0 0-.466-.518.535.535 0 0 0-.582.381 55 55 0 0 0-.797 6.97c-.228 2.438-.524 4.898-.524 7.336 0 .503.838.639.934.116m11.162-106.821c-.091-1.687.182-3.76-1.367-4.83-2.095-1.436-5.171-1.595-7.608-1.777-7.809-.656-21.085.228-23.78.797-1.23.25-1.731 1.435-1.89 2.597a20 20 0 0 0 0 3.508.544.544 0 0 0 .546.526.547.547 0 0 0 .547-.526c0-1.162-.387-4.761.888-4.99a128.6 128.6 0 0 1 21.756-.91c2.689.137 5.74.25 8.225 1.367a2.1 2.1 0 0 1 1.321 1.185c0 .611 1.192 18.795.364 21.277-.455 1.435-2.733 2.142-4.123 2.165-2.763.09-10.894-.38-14.76-.48-.957-.022-6.174 5.74-6.174 5.74s-.068-3.143-.114-4.715a.6.6 0 0 0-.241-.463.6.6 0 0 0-.511-.106c-1.982.296-4.374.341-6.014-1.003-.98-.797-.934-2.232-.957-3.394-.068-2.552.456-5.33-.068-7.86-.069-.387-.729-.296-.683.091.295 3.144-.639 6.334-.228 9.5.478 3.645 4.419 4.192 7.54 3.873.046 1.914.114 3.828.16 5.74a.58.58 0 0 0 .427.541.58.58 0 0 0 .644-.245 44 44 0 0 1 6.037-6.56c.136.023 7.221.342 10.615.433 2.985.091 7.587.706 9.364-2.483 1.024-1.846.209-16.917.084-18.999"/><path fill="#191919" d="M132.783 39.43a.36.36 0 0 0 .364.34.366.366 0 0 0 .364-.34c.337-6.335 2.656-8.692 5.992-9.979.387-.136.387-.82-.114-.774-2.096.16-3.827 1.731-4.92 3.444-1.413 2.206-1.674 4.735-1.686 7.309"/><path fill="#191919" d="M136.405 34.008a35 35 0 0 0-.774 5.604.43.43 0 0 0 .372.415.43.43 0 0 0 .47-.301c.354-1.856.559-3.738.615-5.627.023-.365-.617-.456-.683-.091m14.877-.388c1.379-2.5.342-5.494-1.412-7.518-.296-.341-.775.091-.592.456.843 1.663 1.868 3.416 1.48 5.353-.318 1.595-2.392 3.941-3.986 2.141a.354.354 0 0 0-.424-.051.36.36 0 0 0-.15.169.36.36 0 0 0-.018.224c.087.28.234.537.432.752-.153.892-.405 3.403-.091 4.264a.379.379 0 0 0 .729 0q.163-1.887.114-3.782c1.322.43 3.264-.82 3.918-2.008"/><path fill="#191919" d="M147.159 32.3c1.308-.806 2.301-2.416 1.754-3.988a.31.31 0 0 0-.346-.216.315.315 0 0 0-.269.307 3.49 3.49 0 0 1-1.207 2.78 6 6 0 0 0-4.169-2.734.3.3 0 0 0-.233.029.3.3 0 0 0-.145.185.32.32 0 0 0 .029.233.3.3 0 0 0 .185.145 6.14 6.14 0 0 1 3.736 3.076.477.477 0 0 0 .665.182"/><path fill="#191919" d="M146.725 27.583c-1.195-1.354-2.607 1.686-.774 1.686 3.189 0 4.077-5.718 3.485-7.108-.41-.979-2.027-1.298-2.324-.023a.94.94 0 0 0 .047.538.94.94 0 0 0 .843.599.95.95 0 0 0 .523-.134c0 .16-.16 2.893-1.8 4.442"/><path fill="#191919" d="M135.606 27.036a1.977 1.977 0 0 0 3.28-.296 2.466 2.466 0 0 0 3.379.908 2.46 2.46 0 0 0 .904-.908.94.94 0 0 0 .923.733.95.95 0 0 0 .922-.733 1.03 1.03 0 0 0 .574-.888.817.817 0 0 0 .41-1.025 1 1 0 0 0 0-.365 1.23 1.23 0 0 0 .094-1.546 1.2 1.2 0 0 0-.413-.367 1.4 1.4 0 0 0-.273-.114c.045-.25-.16-.66-.752-.615a1.1 1.1 0 0 0-.251-.297.94.94 0 0 0-.387-.751 1.08 1.08 0 0 0-.482-1.092 1.397 1.397 0 0 0-2.095-.228 1.462 1.462 0 0 0-2.575.683 1.175 1.175 0 0 0-1.553.294 1.2 1.2 0 0 0-.224.526c-.078-.068-1.203.1-.364 1.07a1.42 1.42 0 0 0-.679 1.018 1.42 1.42 0 0 0 .36 1.17 1.754 1.754 0 0 0-1.184 2.055c.063.284.196.548.386.768m5.149.228c-2.161-.426-1.959-3.463-1.913-3.576a3.14 3.14 0 0 0 2.255-1.732 2.49 2.49 0 0 0 2.347 1.435q-.061.626-.046 1.253c0 .046-.863 2.971-2.643 2.62M27.738 88.386c3.053 1.983 6.105 3.987 9.067 6.083a.59.59 0 0 0 .888-.501c-.182-1.754-.387-3.486-.569-5.24 3.303.866 7.495 1.071 8.657-2.938.569-2.005.433-4.329.433-6.379.022-2.597.045-5.24-.183-7.837a.592.592 0 0 0-1.184 0c-.091 3.919.246 7.814 0 11.732-.114 1.914-.501 3.782-2.529 4.51-1.868.661-3.919.046-5.74-.5a.618.618 0 0 0-.775.591l.547 4.853c-2.506-1.709-7.7-5.445-8.11-5.4-3.235.365-15.99 1.185-19.068.957-1.207-.09-2.665-.341-3.394-1.435-.867-1.298-.662-20.954-.548-24.215.045-1.367.045-3.053 1.162-4.056 1.093-.979 2.711-.956 4.078-.979 5.855-.09 30.732-1.116 32.167-.66 1.822.57 1.982 2.847 2.027 4.42.023.591 1.003.796 1.117.158.364-2.392-.182-5.126-2.894-5.695-1.868-.405-1.947.032-31.073.592-2.415.046-5.582-.09-6.949 2.37a8.15 8.15 0 0 0-.706 3.6C4.07 64.42 4.07 83.1 4.25 84.9c.246 2.723 1.453 4.203 4.944 4.397 2.005.137 14.398-.433 18.544-.912"/><path fill="#191919" d="M31.748 78.705a14.1 14.1 0 0 0 .5 5.831.465.465 0 0 0 .913-.113 17.4 17.4 0 0 0-.32-2.848c-.113-.957-.163-1.913-.273-2.87a.41.41 0 1 0-.82 0"/><path fill="#191919" d="M34.64 76.883c1.572 2.576 1.066 4.437 1.254 5.99.045.365.615.661.82.228 1.383-3.154-1.148-8.692-5.308-10.205 0-.114-.842-1.071-1.116-1.527a.455.455 0 0 0-.706-.091c-.433.433-2.12 1.23-1.982 1.549q.387 1.095.979 2.096a.492.492 0 0 0 .82 0 6.4 6.4 0 0 1 1.435-1.39 9.8 9.8 0 0 1 3.805 3.35m-5.557-3.008-.48-.82a6 6 0 0 0 1.208-.752c.137.183.274.365.433.547q-.63.456-1.161 1.025m-3.485 1.231c.459-.544.82-1.14 1.23-1.732a.47.47 0 0 0-.16-.638c-.433-.296-.888-.547-1.321-.82a2.2 2.2 0 0 0-.956-.456c-.802 0-.793.777-1.162.912a.295.295 0 0 0-.183.387c-.706-.023-2.825 1.504-3.531 3.007a4.35 4.35 0 0 1-.982-2.94c.113.093.227.206.364.298 1.776 1.093 3.19-.32 3.034-1.162-.228-1.14-1.777-1.823-2.141-.296a5.86 5.86 0 0 1-1.846-5.013c0 .023.775.388 1.116-.615a1.14 1.14 0 0 0-1.758-1.39c-.729.479-.683 3.874-.546 4.694-.069.023-3.554 5.604-.912 9.203a4.18 4.18 0 0 0 4.01 1.731 34.6 34.6 0 0 0 .228 5.104c.068.614.98.66.98 0a33.4 33.4 0 0 0-.365-5.422 3.8 3.8 0 0 0 1.116-.91c.273-.365-.206-.866-.502-.5-.38.398-.837.715-1.344.933-1.64.478-3.462-.957-3.963-2.734-.638-2.278.41-4.306 1.025-6.314.222.62.52 1.209.888 1.754a4.85 4.85 0 0 0 .046 3.008c.228.615.683 1.754 1.48 1.777.775.023 1.162-.73 1.436-1.299.524-1.116 2.551-2.278 2.574-2.369.527.389 1.873 2.122 2.145 1.802m-1.526-2.393c.09-.136.182-.341.246-.364.147-.055.337.149 1.457.934l-.34.615a8.6 8.6 0 0 0-1.363-1.185"/><path fill="#191919" d="M26.782 74.627c-.09-.296-.638-.455-.66-.091a.945.945 0 0 0 1.047.957.93.93 0 0 0 .82-1.276.346.346 0 0 0-.542-.07.35.35 0 0 0-.096.184c-.045.433-.273.843-.569.296m.319 10.183c.314.346.524-.046.73-.387a8.3 8.3 0 0 0 1.138-1.709c.225-.713-.182-1.552-1.025-6.674a.437.437 0 0 0-.502-.297c-.465.093-1.091-.013-1.139.297-.41 1.804-.683 3.644-1.002 5.466-.188 1.007-.47.811 1.8 3.304m-.752-4.51c.213-1.297.32-2.597.478-3.918q.308.033.615 0c.456.068.73 4.852.798 5.376.136.984-.866 2.214-.912 2.278a13 13 0 0 1-.91-1.344c-.502-.684-.2-1.594-.069-2.392m2.483-17.45a1.71 1.71 0 0 0-2.005.272 2.21 2.21 0 0 0-2.415.046c-1.777 1.344-.706 4.42-.592 4.67.364 1.982 1.435 4.033 3.736 3.736 2.165-.273 2.848-3.052 2.711-5.24.091-2.528-.729-3.097-1.435-3.485m-1.731 4.988a2.6 2.6 0 0 0-2.142.984 9 9 0 0 1-.433-1.709c.4-1.028 1.826-1.342 2.347-2.255.774.592 2.415.656 2.437 1.8a5.2 5.2 0 0 1-.113 2.05c-.023-.05-.479-.73-2.096-.87"/></svg>