<svg width="164" height="164" viewBox="0 0 164 164" fill="none" xmlns="http://www.w3.org/2000/svg">
<path d="M100.959 64.8539C101.599 64.3649 102.35 64.0423 103.145 63.9151C103.94 63.7878 104.754 63.8599 105.515 64.1249C104.182 59.2049 102.827 53.6289 99.455 49.9094C98.9999 49.4305 96.243 46.6294 92.8261 46.1046C90.9023 45.8364 88.9447 45.9448 87.0623 46.4236C84.7614 46.9705 84.2374 47.4715 83.5994 48.4285C82.8808 49.6073 82.2415 50.8326 81.6855 52.0963C82.2497 52.0963 86.2956 50.0012 90.8212 51.1164C96.1749 52.4153 97.268 55.4903 98.02 56.8343C99.1446 59.4521 100.126 62.1293 100.959 64.8539Z" fill="#71B6F6"/>
<path d="M57.2191 65.15C56.8091 65.1689 56.4212 65.173 56.0112 65.173C55.8062 64.626 55.6012 64.0791 55.3732 63.5551C55.1912 63.1221 54.5073 63.0082 54.3942 63.5551C54.281 64.102 54.1662 64.626 54.0293 65.15C53.4553 65.127 52.8673 65.1041 52.2982 65.059C52.1772 65.0642 52.061 65.108 51.9666 65.1841C51.8723 65.2602 51.8049 65.3646 51.7743 65.4818C51.7436 65.5991 51.7514 65.723 51.7964 65.8356C51.8414 65.9481 51.9213 66.0432 52.0244 66.1069C52.5032 66.357 52.9813 66.608 53.4372 66.881C53.1781 67.3921 53.0231 67.9495 52.9813 68.521C52.8673 68.954 53.5053 69.2721 53.8702 68.9761C54.3023 68.6571 54.7123 68.3201 55.1453 67.997C55.5331 68.2701 55.8972 68.5661 56.2843 68.8621C56.6721 69.1811 57.4462 68.8851 57.2191 68.316C57.0362 67.8142 56.8312 67.3132 56.6451 66.8351C56.9181 66.6301 57.2191 66.4021 57.488 66.1971C57.8792 65.856 57.8111 65.1221 57.2191 65.15Z" fill="#71B6F6"/>
<path d="M50.2457 65.6969C49.7888 65.7044 49.3326 65.7347 48.8788 65.7879C48.7427 65.423 48.6328 65.0589 48.5147 64.694C48.481 64.5781 48.4106 64.4762 48.314 64.4037C48.2175 64.3312 48.1 64.292 47.9792 64.292C47.8585 64.292 47.741 64.3312 47.6444 64.4037C47.5479 64.4762 47.4775 64.5781 47.4438 64.694C47.3528 65.127 47.2388 65.5599 47.1248 65.9699C46.5506 66.0425 45.9725 66.0806 45.3938 66.0839C44.8468 66.0839 44.5508 66.9269 45.0969 67.177C45.5299 67.3828 45.9858 67.587 46.4188 67.7928C46.1895 68.2638 46.0504 68.7736 46.0088 69.2959C46.0107 69.3769 46.0366 69.4555 46.0831 69.5218C46.1297 69.5881 46.1948 69.6391 46.2704 69.6684C46.3459 69.6977 46.4284 69.704 46.5075 69.6864C46.5866 69.6689 46.6588 69.6283 46.7148 69.5697C47.1707 69.2278 47.6258 68.9318 48.0817 68.5669C48.4917 68.7489 48.9017 68.9539 49.3117 69.1409C49.4233 69.2002 49.5509 69.2221 49.6758 69.2034C49.8007 69.1846 49.9163 69.1263 50.0056 69.037C50.0948 68.9476 50.153 68.8319 50.1716 68.707C50.1902 68.5821 50.1682 68.4545 50.1088 68.343C49.9255 68.0213 49.7508 67.6949 49.5848 67.3639C49.9038 67.113 50.2006 66.8851 50.5417 66.6579C50.6368 66.5958 50.7091 66.5045 50.7476 66.3977C50.7862 66.2909 50.789 66.1745 50.7556 66.0659C50.7221 65.9574 50.6543 65.8627 50.5624 65.7962C50.4704 65.7296 50.3592 65.6947 50.2457 65.6969Z" fill="#71B6F6"/>
<path d="M42.774 65.8789C42.2959 65.9101 41.84 65.947 41.3611 65.97C41.1332 65.514 40.9052 65.036 40.678 64.5801C40.473 64.1471 39.8802 64.33 39.7441 64.694C39.5801 65.15 39.4251 65.628 39.2652 66.088C38.6502 66.1331 38.0352 66.1561 37.4202 66.1791C36.9643 66.202 36.6682 66.908 37.1693 67.113C37.6022 67.318 38.0581 67.5001 38.5132 67.7051C38.2991 68.158 38.1313 68.6313 38.0122 69.1179C37.9795 69.2148 37.9772 69.3193 38.0056 69.4175C38.034 69.5156 38.0917 69.6028 38.171 69.6672C38.2504 69.7317 38.3475 69.7703 38.4494 69.7779C38.5513 69.7856 38.6532 69.7619 38.7412 69.71C38.7642 69.687 40.0171 68.8449 40.4501 68.548C40.9511 68.776 41.4292 69.004 41.908 69.2549C42.0035 69.3093 42.1142 69.3308 42.2231 69.3161C42.3319 69.3014 42.433 69.2514 42.5106 69.1736C42.5882 69.0959 42.6382 68.9948 42.6527 68.8859C42.6673 68.777 42.6456 68.6664 42.5911 68.571C42.432 68.2069 42.25 67.842 42.0901 67.455C42.4091 67.25 42.728 67.045 43.047 66.817C43.1408 66.7584 43.2129 66.6708 43.2524 66.5675C43.2918 66.4642 43.2964 66.3508 43.2655 66.2446C43.2346 66.1385 43.1699 66.0453 43.0811 65.9793C42.9924 65.9133 42.8846 65.878 42.774 65.8789Z" fill="#71B6F6"/>
<path d="M133.194 24.3713C132.806 24.3516 132.419 24.3254 132.055 24.3254C131.872 23.7563 131.713 23.1864 131.531 22.6173C131.5 22.5111 131.436 22.4178 131.347 22.3514C131.259 22.2849 131.151 22.249 131.041 22.249C130.93 22.249 130.823 22.2849 130.734 22.3514C130.646 22.4178 130.582 22.5111 130.551 22.6173C130.391 23.1413 130.232 23.6423 130.095 24.1663C129.549 24.0982 129.029 24.0523 128.478 23.9613C128.348 23.9317 128.213 23.9487 128.095 24.0092C127.976 24.0697 127.883 24.1699 127.832 24.2923C127.78 24.4146 127.773 24.5512 127.812 24.6781C127.851 24.805 127.934 24.9141 128.045 24.9863C128.5 25.2602 128.933 25.5603 129.366 25.8522C129.065 26.3705 128.872 26.9438 128.797 27.5381C128.797 27.6292 129.116 28.4032 129.571 28.0162C130.019 27.671 130.491 27.3589 130.984 27.0822C131.348 27.4012 131.713 27.7202 132.077 28.0662C132.165 28.1517 132.279 28.2059 132.401 28.2206C132.522 28.2353 132.646 28.2096 132.752 28.1476C132.858 28.0856 132.94 27.9906 132.987 27.8771C133.034 27.7636 133.042 27.638 133.011 27.5193C132.875 27.0183 132.715 26.5353 132.579 26.0384C132.875 25.8334 133.194 25.6284 133.49 25.4234C133.591 25.3562 133.668 25.2587 133.711 25.1448C133.753 25.0308 133.758 24.9064 133.725 24.7894C133.692 24.6725 133.623 24.569 133.528 24.4938C133.432 24.4187 133.315 24.3758 133.194 24.3713Z" fill="#71B6F6"/>
<path d="M126.221 24.3943C125.766 24.3623 125.333 24.3713 124.877 24.3713C124.763 23.9843 124.672 23.5964 124.581 23.2094C124.548 23.0935 124.477 22.9916 124.381 22.9191C124.284 22.8466 124.167 22.8074 124.046 22.8074C123.925 22.8074 123.808 22.8466 123.711 22.9191C123.615 22.9916 123.544 23.0935 123.511 23.2094C123.397 23.6194 123.265 24.0294 123.123 24.4173C122.531 24.4432 121.938 24.4356 121.347 24.3943C121.22 24.3984 121.098 24.443 120.998 24.5217C120.899 24.6003 120.827 24.7089 120.794 24.8313C120.761 24.9537 120.768 25.0835 120.814 25.2016C120.86 25.3197 120.943 25.4199 121.051 25.4874C121.483 25.7383 121.939 25.9892 122.372 26.2393C122.184 26.682 122.009 27.1302 121.848 27.5833C121.711 27.9933 122.258 28.2442 122.554 27.9933C122.622 27.9252 123.538 27.2873 123.852 27.0823C124.262 27.3102 124.695 27.5611 125.105 27.7883C125.217 27.8458 125.344 27.8664 125.468 27.8471C125.592 27.8279 125.707 27.7697 125.795 27.681C125.884 27.5923 125.942 27.4777 125.962 27.3537C125.981 27.2298 125.961 27.1028 125.903 26.9912C125.743 26.6723 125.606 26.3303 125.47 26.0113C125.811 25.7842 126.153 25.5792 126.495 25.3734C126.973 25.1233 126.723 24.4296 126.221 24.3943Z" fill="#71B6F6"/>
<path d="M118.982 24.6673H117.588C117.406 24.2122 117.223 23.7792 117.041 23.3233C116.904 22.9584 116.312 22.7493 116.107 23.2093L115.492 24.6443C114.877 24.6443 114.239 24.6222 113.624 24.5992C113.515 24.6014 113.41 24.6389 113.324 24.7061C113.238 24.7734 113.176 24.8667 113.148 24.972C113.12 25.0773 113.126 25.189 113.167 25.2902C113.208 25.3914 113.28 25.4767 113.373 25.5332C113.783 25.7612 114.216 25.9891 114.626 26.1941C114.406 26.6236 114.208 27.0646 114.034 27.5152C113.987 27.6131 113.971 27.7237 113.99 27.8311C114.009 27.9385 114.061 28.0371 114.139 28.1129C114.218 28.1887 114.318 28.2378 114.426 28.2531C114.534 28.2684 114.644 28.2492 114.74 28.1982C114.763 28.1761 116.039 27.4471 116.495 27.1962L117.93 28.0162C118.017 28.0659 118.117 28.0889 118.217 28.0823C118.317 28.0758 118.413 28.04 118.493 27.9794C118.573 27.9188 118.634 27.8361 118.667 27.7414C118.701 27.6468 118.706 27.5445 118.681 27.4471C118.545 27.0371 118.385 26.6271 118.226 26.2171C118.567 26.0351 118.909 25.8301 119.251 25.648C119.345 25.5857 119.417 25.4953 119.456 25.3898C119.496 25.2843 119.501 25.1691 119.471 25.0604C119.441 24.9518 119.378 24.8553 119.29 24.7847C119.203 24.7142 119.095 24.6731 118.982 24.6673Z" fill="#71B6F6"/>
<path d="M105.377 25.5333C105.787 25.7563 106.22 25.9892 106.63 26.1942C106.409 26.6239 106.211 27.0648 106.037 27.5152C105.989 27.6133 105.973 27.724 105.992 27.8316C106.011 27.9391 106.063 28.0379 106.142 28.1138C106.22 28.1897 106.321 28.2387 106.429 28.2539C106.537 28.2691 106.647 28.2496 106.744 28.1983C107.324 27.857 107.909 27.523 108.498 27.1962L109.933 28.0162C110.02 28.0662 110.12 28.0894 110.22 28.083C110.32 28.0766 110.417 28.0409 110.497 27.9802C110.577 27.9196 110.637 27.8367 110.671 27.7419C110.704 27.6472 110.709 27.5447 110.685 27.4472C110.548 27.0372 110.389 26.6272 110.229 26.2172C110.571 26.0351 110.913 25.8301 111.255 25.6481C111.352 25.5873 111.428 25.4965 111.469 25.3894C111.511 25.2822 111.517 25.1643 111.486 25.0535C111.455 24.9427 111.389 24.8449 111.298 24.7746C111.207 24.7044 111.096 24.6656 110.981 24.6641H109.591C109.409 24.209 109.227 23.776 109.045 23.3201C108.908 22.956 108.315 22.751 108.11 23.2061L107.496 24.6411C106.881 24.6411 106.243 24.619 105.627 24.596C105.519 24.6007 105.415 24.6398 105.331 24.7076C105.246 24.7754 105.186 24.8683 105.158 24.9729C105.13 25.0774 105.136 25.1881 105.175 25.2889C105.215 25.3897 105.285 25.4753 105.377 25.5333Z" fill="#71B6F6"/>
<path d="M108.75 67.8609C108.261 67.097 107.616 66.4448 106.858 65.947C103.817 63.7773 99.9641 66.3644 99.5 69.8199C99.318 71.2778 99.181 74.0347 100.434 76.1339C101.035 77.1937 102.025 77.9785 103.193 78.3228C104.362 78.667 105.619 78.5437 106.699 77.9789C109.847 76.3717 110.481 70.7735 108.75 67.8609ZM107.679 74.9949C107.609 75.057 107.524 75.0982 107.432 75.1138C107.341 75.1293 107.247 75.1186 107.161 75.0828C107.075 75.047 107.001 74.9877 106.948 74.9116C106.894 74.8355 106.863 74.7458 106.859 74.653C106.905 73.4459 107.361 72.3291 107.292 71.0991C107.293 70.4416 107.162 69.7908 106.908 69.1845C106.653 68.5782 106.281 68.0287 105.812 67.5682C105.424 67.2262 105.949 66.5628 106.359 66.8621C106.951 67.3065 107.446 67.8671 107.814 68.5094C108.182 69.1518 108.415 69.8625 108.5 70.5981C108.704 71.9847 108.681 73.8977 107.679 74.9916V74.9949Z" fill="#71B6F6"/>
<path d="M68.0603 32.983C67.1944 30.113 49.1536 31.4405 46.9863 31.912C46.4435 31.9684 45.9449 32.2371 45.5993 32.6595C45.2537 33.0819 45.0891 33.6238 45.1413 34.167C45.1052 36.1949 44.5493 44.4876 44.8674 46.5835C45.3693 49.9545 48.3992 49.7495 51.1101 49.8405C52.6591 49.8864 59.2429 49.7725 59.2429 49.7725C64.4089 53.478 63.6495 53.0656 63.7529 52.9623C63.8439 52.2784 63.3199 49.7044 64.4359 49.5445C64.8918 49.4764 67.1247 49.4764 67.5577 48.7475C68.5859 47.0386 68.267 33.6201 68.0603 32.983ZM51.3627 41.8201C51.0583 41.8497 50.7545 41.759 50.5162 41.5675C50.2779 41.3759 50.124 41.0987 50.0876 40.7951C50.0882 40.5884 50.1446 40.3857 50.2508 40.2084C50.3571 40.0311 50.5092 39.8858 50.6912 39.7878C50.8732 39.6898 51.0783 39.6427 51.2848 39.6516C51.4913 39.6605 51.6916 39.7249 51.8645 39.8382C52.055 39.9601 52.2022 40.1389 52.2854 40.3493C52.3686 40.5596 52.3835 40.7908 52.328 41.01C52.2724 41.2293 52.1493 41.4255 51.9761 41.5709C51.8028 41.7163 51.5882 41.8035 51.3627 41.8201ZM56.6484 41.8201C55.6004 41.8201 55.3954 41.2281 55.3725 40.7951C55.3731 40.5884 55.4295 40.3857 55.5357 40.2084C55.642 40.0311 55.7941 39.8858 55.9761 39.7878C56.1581 39.6898 56.3632 39.6427 56.5697 39.6516C56.7762 39.6605 56.9765 39.7249 57.1494 39.8382C57.3393 39.9604 57.4861 40.1392 57.569 40.3493C57.6519 40.5594 57.6667 40.7902 57.6113 41.0092C57.556 41.2282 57.4332 41.4243 57.2605 41.5698C57.0877 41.7153 56.8736 41.8028 56.6484 41.8201ZM61.8201 41.8201C60.7033 41.8201 60.5663 41.2281 60.5442 40.7951C60.5452 40.5887 60.6019 40.3863 60.7082 40.2094C60.8145 40.0325 60.9666 39.8875 61.1484 39.7897C61.3302 39.6919 61.535 39.6449 61.7412 39.6538C61.9475 39.6626 62.1475 39.7269 62.3203 39.8398C62.5082 39.9631 62.6529 40.1419 62.7344 40.3512C62.8159 40.5606 62.8302 40.7902 62.7752 41.008C62.7201 41.2259 62.5986 41.4211 62.4274 41.5667C62.2562 41.7122 62.044 41.8008 61.8201 41.8201Z" fill="#71B6F6"/>
<path d="M159.528 69.2081C159.556 68.9386 159.531 68.6661 159.453 68.4065C159.376 68.1469 159.247 67.9052 159.076 67.6955C158.904 67.4858 158.693 67.3122 158.453 67.1848C158.214 67.0574 157.952 66.9786 157.682 66.9531C155.541 66.4972 137.476 65.1762 136.608 68.0462C136.426 68.6841 136.107 82.1026 137.109 83.8107C137.542 84.5396 139.774 84.5396 140.23 84.6085C141.46 84.784 140.741 87.9213 140.937 88.1165C140.937 88.0714 145.698 85.3375 145.698 85.3375C145.698 85.3375 152.008 84.9496 153.558 84.9045C156.269 84.8135 159.298 84.9956 159.8 81.6467C160.12 79.5475 159.564 71.2581 159.528 69.2081ZM144.128 75.8378C144.082 76.2699 143.946 76.9538 142.852 76.8628C142.629 76.8468 142.417 76.7612 142.245 76.618C142.074 76.4748 141.951 76.2814 141.896 76.0649C141.849 75.8595 141.861 75.6453 141.93 75.4463C141.999 75.2473 142.122 75.0714 142.285 74.9383C142.448 74.8053 142.645 74.7204 142.854 74.6931C143.063 74.6659 143.275 74.6974 143.467 74.7841C143.671 74.871 143.844 75.0181 143.962 75.2059C144.08 75.3936 144.138 75.6129 144.128 75.8345V75.8378ZM149.277 75.8378C149.231 76.2699 149.14 76.8628 148.001 76.8628C147.775 76.8549 147.559 76.7722 147.385 76.6278C147.212 76.4833 147.092 76.2853 147.044 76.0649C146.999 75.8598 147.011 75.6463 147.081 75.4481C147.15 75.2498 147.273 75.0748 147.436 74.9425C147.599 74.8102 147.796 74.7259 148.004 74.6989C148.213 74.672 148.424 74.7035 148.616 74.7898C148.819 74.8765 148.991 75.0229 149.109 75.2094C149.227 75.396 149.285 75.6139 149.277 75.8345V75.8378ZM154.584 75.8608C154.539 76.2929 154.288 76.8628 153.286 76.8858C153.061 76.8685 152.846 76.7801 152.674 76.6333C152.501 76.4866 152.38 76.289 152.326 76.0689C152.273 75.8488 152.291 75.6175 152.378 75.4082C152.464 75.1989 152.614 75.0223 152.807 74.9038C152.98 74.789 153.18 74.7231 153.387 74.7133C153.594 74.7034 153.799 74.7499 153.982 74.8479C154.164 74.9458 154.317 75.0914 154.423 75.2693C154.529 75.4471 154.585 75.6504 154.584 75.8575V75.8608Z" fill="#71B6F6"/>
<path d="M82.4599 78.2495C82.0958 78.2241 81.9589 78.7046 82.1639 78.9326C83.8949 80.8235 87.6997 78.8875 87.6579 76.4947C87.6544 76.3971 87.6198 76.3032 87.559 76.2268C87.4982 76.1503 87.4146 76.0953 87.3203 76.0699C87.226 76.0445 87.126 76.05 87.0351 76.0856C86.9441 76.1211 86.867 76.1849 86.8149 76.2676C86.4473 77.0605 85.8424 77.7195 85.0839 78.1536C84.1909 78.6136 83.3947 78.3102 82.4599 78.2495Z" fill="#191919"/>
<path d="M80.3593 57.541C79.9969 57.8395 80.3823 58.4291 80.8153 58.3151C82.1133 57.9051 82.9792 58.8391 82.9563 60.1191C82.9194 61.6673 81.4803 63.7419 80.3593 68.4118C79.9034 70.2568 78.7874 75.4056 82.3183 74.9956C82.6832 74.9496 82.8423 74.3806 82.4093 74.2895C79.6304 73.7196 81.2933 69.3458 81.7714 67.5918C82.9858 63.2925 85.2638 60.252 83.4803 57.9781C83.3073 57.7402 83.0882 57.5396 82.836 57.3883C82.5839 57.2369 82.3038 57.1379 82.0126 57.0971C81.7213 57.0563 81.4248 57.0746 81.1408 57.1509C80.8567 57.2271 80.591 57.3598 80.3593 57.541Z" fill="#191919"/>
<path d="M89.0426 65.856C90.1586 65.9732 91.7535 65.036 91.6166 63.76C91.6128 63.6575 91.5766 63.5589 91.5132 63.4783C91.4498 63.3977 91.3624 63.3393 91.2637 63.3115C91.165 63.2837 91.06 63.2879 90.9638 63.3236C90.8676 63.3592 90.7853 63.4245 90.7285 63.5099C90.3407 64.079 90.0447 64.717 89.2476 64.7399C88.8686 64.7261 88.5074 64.5753 88.231 64.3155C87.9546 64.0557 87.7818 63.7045 87.7446 63.3271C87.74 63.2304 87.6985 63.1392 87.6284 63.0724C87.5584 63.0055 87.4654 62.9683 87.3686 62.9683C87.2718 62.9683 87.1787 63.0055 87.1087 63.0724C87.0387 63.1392 86.9971 63.2304 86.9926 63.3271C86.9487 63.9302 87.1362 64.5275 87.5171 64.9973C87.8979 65.4671 88.4434 65.7741 89.0426 65.856Z" fill="#191919"/>
<path d="M81.1806 63.145C81.1787 63.066 81.1564 62.9888 81.1157 62.9209C81.0751 62.8531 81.0176 62.797 80.9488 62.758C80.88 62.719 80.8022 62.6985 80.7232 62.6985C80.6441 62.6985 80.5664 62.719 80.4976 62.758C80.2466 62.8941 80.0417 63.191 79.6997 63.1221C79.3807 63.054 79.2668 62.7121 79.1757 62.439C79.1587 62.3804 79.1248 62.328 79.0783 62.2885C79.0317 62.2489 78.9746 62.224 78.9139 62.2166C78.8533 62.2093 78.7919 62.2199 78.7372 62.2472C78.6826 62.2745 78.6372 62.3173 78.6066 62.3701C78.5304 62.5364 78.4901 62.7169 78.4883 62.8998C78.4866 63.0827 78.5234 63.2639 78.5965 63.4316C78.6696 63.5993 78.7772 63.7497 78.9123 63.873C79.0474 63.9963 79.207 64.0897 79.3807 64.1471C80.0679 64.398 81.2339 64.0101 81.1806 63.145Z" fill="#191919"/>
<path d="M88.019 58.7253C90.2256 58.1882 91.846 59.5912 92.962 61.2771C93.0206 61.372 93.1113 61.4426 93.2177 61.476C93.3241 61.5095 93.4389 61.5035 93.5413 61.4592C93.6436 61.4149 93.7266 61.3353 93.775 61.2348C93.8234 61.1344 93.834 61.0199 93.8049 60.9122C93.3949 58.2702 90.0239 57.2222 87.814 58.0192C87.7253 58.0505 87.652 58.1146 87.609 58.1982C87.5661 58.2819 87.5567 58.3788 87.583 58.4691C87.6092 58.5594 87.669 58.6363 87.7501 58.6839C87.8311 58.7315 87.9274 58.7463 88.019 58.7253Z" fill="#191919"/>
<path d="M74.6681 85.7213C75.8981 86.3773 78.017 86.2453 78.4048 85.1973C79.2699 82.8505 76.7419 80.8915 74.327 81.8484C73.4357 80.6791 72.8415 79.3111 72.5951 77.8616C72.1605 75.3581 72.9805 73.2376 73.6431 70.8678C73.7571 70.4578 73.2101 70.2758 72.983 70.5948C70.3852 74.1716 70.7501 79.5934 73.461 83.0104C73.3397 83.5321 73.3919 84.0791 73.6098 84.5683C73.8276 85.0576 74.1992 85.4624 74.6681 85.7213Z" fill="#191919"/>
<path d="M155.86 148.142C154.099 148.086 152.337 148.049 150.574 148.028C150.984 141.786 151.531 135.544 151.645 129.279C151.644 129.191 151.623 129.104 151.583 129.026C151.543 128.947 151.486 128.879 151.416 128.826C151.345 128.773 151.263 128.737 151.177 128.721C151.09 128.705 151.001 128.709 150.916 128.733C148.837 129.395 146.673 129.754 144.492 129.799C142.292 129.797 140.101 129.506 137.977 128.934C137.895 128.911 137.809 128.908 137.726 128.924C137.643 128.939 137.564 128.974 137.496 129.024C137.428 129.075 137.373 129.14 137.334 129.215C137.295 129.29 137.273 129.373 137.271 129.458C137.284 135.687 137.871 141.902 139.025 148.024C137.244 148.042 118.581 147.995 96.8521 147.931C106.066 147.434 116.974 143.703 123.738 137.43C123.46 140.655 122.865 143.845 121.961 146.953C121.824 147.454 122.622 147.842 122.849 147.318C123.566 145.499 124.07 143.603 124.354 141.668C124.785 139.934 124.946 138.144 124.832 136.36C127.529 133.613 129.574 130.295 130.816 126.652C132.058 123.008 132.465 119.132 132.008 115.31C131.067 105.902 127.252 98.9602 118.817 94.1238C120.207 93.7401 121.456 92.965 122.417 91.8909C122.925 91.3231 123.293 90.6439 123.491 89.908C123.689 89.1721 123.711 88.4001 123.556 87.654C123.191 86.2182 121.961 85.44 120.686 84.8512C119.287 84.1884 118.109 83.1365 117.292 81.8213C114.33 77.5163 115.56 71.8436 115.537 69.1327C115.446 59.9487 115.287 46.6245 105.879 41.7037C100.457 38.8558 92.2552 39.2888 88.8612 44.9156C90.2443 44.7614 91.643 44.8231 93.0071 45.0985C95.8243 45.5628 98.3799 47.0265 100.206 49.2214C102.043 51.3762 103.444 53.8677 104.33 56.5571C105.082 58.6071 106.767 64.8949 106.767 64.8949C107.794 65.4917 108.662 66.3281 109.296 67.3328C111.26 70.7399 110.515 76.9948 106.95 78.8374C105.892 79.4001 104.675 79.5849 103.498 79.3612C102.322 79.1375 101.257 78.5188 100.48 77.6074C100.001 80.4786 100.251 83.4241 101.209 86.1731C101.892 88.1321 102.621 90.228 104.216 91.4809C103.019 92.1648 97.0661 97.2119 94.921 98.4296C92.4151 99.8417 87.7444 101.938 86.8563 97.7228C86.7653 97.2677 86.0814 97.4727 86.1503 97.9048C87.2893 104.055 94.9243 99.7277 97.905 97.7687C99.044 97.0168 103.282 93.3948 104.421 92.6429C108.225 90.114 113.692 92.7109 117.223 94.6248C121.351 96.7241 124.838 99.8966 127.316 103.809C129.714 108.162 130.96 113.055 130.938 118.024C131.006 127.775 125.47 135.954 117.201 140.783C112.829 143.242 108.079 144.96 103.145 145.867C98.0419 146.892 92.5971 147.279 87.5648 145.798C87.0599 143.401 87.0677 140.924 87.5878 138.531C90.9138 139.252 94.368 139.122 97.6306 138.154C100.893 137.185 103.859 135.409 106.253 132.99C108.647 130.571 110.392 127.587 111.326 124.315C112.261 121.042 112.355 117.587 111.599 114.269C111.417 113.358 110.005 113.745 110.209 114.656C110.907 117.792 110.792 121.054 109.877 124.134C108.962 127.214 107.277 130.009 104.98 132.256C102.683 134.503 99.8514 136.126 96.7522 136.973C93.6529 137.82 90.3889 137.862 87.2688 137.096C87.0998 137.052 86.9204 137.075 86.7677 137.159C86.6151 137.244 86.5009 137.384 86.4488 137.551C86.271 138.282 86.1265 139.021 86.0158 139.765C84.7612 138.944 83.3492 138.393 81.8699 138.148C78.1701 137.355 75.8437 138.872 72.6433 140.904C71.0428 141.76 69.5183 142.751 68.0865 143.866C67.7905 144.139 68.1095 144.732 68.4965 144.572C73.1804 142.624 76.3857 137.936 81.8232 139.196C83.2228 139.602 84.5928 140.104 85.9232 140.699C85.7663 142.32 85.8492 143.955 86.1692 145.552C86.4201 146.828 86.6931 146.896 87.924 147.215C89.4492 147.599 91.0073 147.838 92.5775 147.929L85.1097 147.907C85.2367 147.763 85.3335 147.596 85.3942 147.414C85.455 147.233 85.4784 147.041 85.4631 146.85C85.4719 146.257 85.2969 145.676 84.9621 145.187C84.4152 144.64 72.3645 145.278 67.2837 145.073C65.4387 141.314 63.6388 137.529 61.816 133.751C66.0426 132.284 69.8229 129.758 72.7966 126.415C72.8409 129.885 73.7101 135.508 75.6445 138.216C76.0094 138.717 76.8745 138.444 76.6695 137.783C76.0774 135.801 75.0754 133.978 74.6195 131.928C73.296 125.526 74.1124 118.867 76.9433 112.974C76.9947 112.883 77.0079 112.776 76.98 112.675C76.9522 112.575 76.8856 112.49 76.7949 112.438C76.7042 112.387 76.5969 112.374 76.4965 112.402C76.396 112.43 76.3108 112.496 76.2595 112.587C74.2073 116.223 73.0296 120.287 72.8196 124.456C69.7556 128.161 65.8283 131.055 61.383 132.885C59.675 129.331 57.9661 125.751 56.2351 122.201C59.9554 118.28 64.5991 110.155 69.0607 105.434C75.3484 98.7363 80.4972 97.0045 82.2053 96.5034C87.081 95.1365 88.129 96.5945 88.22 95.9795C88.4891 94.299 88.5882 92.5958 88.516 90.8955C88.5252 89.6382 88.3876 88.3841 88.106 87.1587C90.7259 86.5896 92.8448 84.4257 92.4348 81.4409C92.3659 80.9169 91.5459 81.0768 91.5229 81.5548C91.4593 82.5406 91.0858 83.4811 90.4558 84.242C89.8259 85.0029 88.9716 85.5453 88.015 85.7918C86.9557 85.9825 85.8662 85.9189 84.8363 85.6061C83.8064 85.2933 82.8656 84.7403 82.0913 83.9927C79.2664 81.4868 77.6945 77.454 76.9655 73.8321C76.2348 70.1836 76.3939 66.4128 77.4293 62.8388C78.4647 59.2649 80.346 55.993 82.9138 53.3001C82.9771 53.2367 83.0128 53.1507 83.0128 53.0611C83.0128 52.9714 82.9771 52.8854 82.9138 52.822C82.8504 52.7586 82.7644 52.723 82.6747 52.723C82.5851 52.723 82.4991 52.7586 82.4357 52.822C79.9879 55.1735 78.0897 58.0365 76.8767 61.2067C75.6637 64.3768 75.166 67.7757 75.419 71.1605C75.829 77.1752 78.863 86.2649 85.8535 87.1989C86.2692 87.2479 86.6882 87.263 87.1064 87.244C87.1499 89.7163 87.7427 89.6105 87.2655 94.7626C87.2425 94.7626 87.2425 94.7396 87.2204 94.7396C83.9166 94.0106 80.2037 95.4456 77.3099 96.9717C70.3276 100.636 65.9562 106.762 61.5659 113.056C59.675 115.767 57.6701 118.386 55.6881 121.029C54.8452 119.275 49.6972 109.385 48.9223 109.139C48.1187 108.88 11.2023 109.491 7.04982 110.278C4.99982 110.665 6.82268 113.536 7.3237 114.652C11.7656 124.835 24.2723 147.685 24.2977 147.708C19.923 147.639 15.6877 147.594 11.2892 147.548C11.1896 147.548 11.0941 147.588 11.0237 147.658C10.9532 147.729 10.9137 147.824 10.9137 147.924C10.9137 148.024 10.9532 148.119 11.0237 148.19C11.0941 148.26 11.1896 148.3 11.2892 148.3C48.1499 150.063 146.529 149.379 155.813 148.983C155.871 148.991 155.929 148.986 155.985 148.97C156.04 148.953 156.092 148.926 156.136 148.889C156.181 148.851 156.217 148.806 156.243 148.754C156.269 148.702 156.284 148.646 156.287 148.588C156.291 148.53 156.282 148.472 156.262 148.418C156.242 148.364 156.211 148.314 156.171 148.272C156.13 148.23 156.082 148.197 156.029 148.175C155.975 148.153 155.918 148.141 155.86 148.142ZM149.435 148.028C146.246 148.005 143.057 148.028 139.89 148.051C139.011 142.143 138.516 136.185 138.41 130.213C140.406 130.712 142.457 130.965 144.515 130.965C146.536 130.929 148.543 130.622 150.483 130.054C150.346 136.068 149.823 142.036 149.435 148.028Z" fill="#191919"/>
<path d="M33.911 127.182C33.592 126.863 32.499 126.065 31.6101 126.863C30.2661 128.047 32.271 131.077 33.8241 130.986C36.2808 130.851 34.5039 127.639 33.911 127.182Z" fill="#71B6F6"/>
<path d="M140.392 128.641C140.172 126.297 140.209 123.721 139.617 121.442C139.586 121.339 139.52 121.25 139.43 121.191C139.34 121.132 139.231 121.107 139.124 121.121C139.018 121.135 138.919 121.186 138.847 121.266C138.774 121.345 138.732 121.448 138.729 121.556C138.683 123.903 139.298 126.432 139.617 128.755C139.685 129.188 140.435 129.097 140.392 128.641Z" fill="#191919"/>
<path d="M143.536 128.55C143.203 124.819 143.035 121.146 143.057 117.387C143.039 117.249 142.972 117.121 142.867 117.028C142.762 116.936 142.627 116.885 142.487 116.885C142.347 116.885 142.212 116.936 142.108 117.028C142.003 117.121 141.935 117.249 141.918 117.387C141.704 121.168 141.995 124.96 142.784 128.664C142.813 128.75 142.871 128.823 142.949 128.87C143.026 128.917 143.118 128.936 143.207 128.922C143.297 128.908 143.379 128.864 143.439 128.796C143.499 128.728 143.533 128.641 143.536 128.55Z" fill="#191919"/>
<path d="M147.614 128.209C148.029 125.927 148.229 123.561 148.457 121.26C148.823 118.831 149.021 116.38 149.049 113.924C149.046 113.797 148.997 113.674 148.912 113.579C148.827 113.484 148.71 113.423 148.583 113.406C148.457 113.39 148.328 113.419 148.222 113.489C148.115 113.559 148.036 113.665 148.001 113.787C147.586 116.091 147.32 118.419 147.204 120.757C146.976 123.195 146.68 125.655 146.68 128.093C146.68 128.596 147.518 128.732 147.614 128.209Z" fill="#191919"/>
<path d="M158.776 21.3875C158.685 19.7015 158.958 17.6286 157.409 16.5577C155.314 15.1218 152.238 14.9628 149.801 14.7807C141.992 14.1247 128.716 15.0095 126.021 15.5778C124.791 15.8287 124.29 17.0128 124.131 18.1747C124.028 19.342 124.028 20.5161 124.131 21.6835C124.136 21.8248 124.196 21.9584 124.298 22.0565C124.4 22.1545 124.536 22.2092 124.677 22.2092C124.818 22.2092 124.954 22.1545 125.056 22.0565C125.158 21.9584 125.218 21.8248 125.224 21.6835C125.224 20.5215 124.837 16.9217 126.112 16.6938C133.325 15.7758 140.603 15.4711 147.868 15.7828C150.557 15.9197 153.608 16.0337 156.093 17.1497C156.386 17.2376 156.657 17.3894 156.886 17.5943C157.114 17.7991 157.294 18.0519 157.414 18.3346C157.414 18.9463 158.606 37.1298 157.778 39.612C157.323 41.047 155.045 41.7538 153.655 41.7768C150.892 41.8669 142.761 41.3979 138.895 41.2979C137.938 41.2749 132.721 47.0379 132.721 47.0379C132.721 47.0379 132.653 43.894 132.607 42.3221C132.604 42.2318 132.581 42.1433 132.539 42.0632C132.497 41.983 132.438 41.9131 132.366 41.8586C132.294 41.8041 132.211 41.7663 132.123 41.7481C132.034 41.7298 131.943 41.7315 131.855 41.753C129.873 42.049 127.481 42.0941 125.841 40.7501C124.861 39.9531 124.907 38.5181 124.884 37.3561C124.816 34.8043 125.34 32.0261 124.816 29.4964C124.747 29.1094 124.087 29.2004 124.133 29.5875C124.428 32.7313 123.494 35.9211 123.905 39.0872C124.383 42.7321 128.324 43.279 131.445 42.96C131.491 44.8739 131.559 46.7878 131.605 48.7C131.609 48.8239 131.653 48.9432 131.73 49.0406C131.806 49.138 131.912 49.2083 132.032 49.2413C132.151 49.2743 132.278 49.2684 132.394 49.2242C132.51 49.1801 132.609 49.1002 132.676 48.996C134.462 46.6115 136.484 44.4136 138.713 42.436C138.849 42.459 145.934 42.778 149.328 42.869C152.313 42.96 156.915 43.575 158.692 40.386C159.716 38.5402 158.901 23.4686 158.776 21.3875Z" fill="#191919"/>
<path d="M132.783 39.4298C132.789 39.5221 132.83 39.6087 132.898 39.6719C132.966 39.7351 133.055 39.7702 133.147 39.7702C133.24 39.7702 133.329 39.7351 133.397 39.6719C133.464 39.6087 133.505 39.5221 133.511 39.4298C133.848 33.0953 136.167 30.7378 139.503 29.4512C139.89 29.3151 139.89 28.6312 139.389 28.6771C137.293 28.8362 135.562 30.4082 134.469 32.1211C133.056 34.3269 132.795 36.8558 132.783 39.4298Z" fill="#191919"/>
<path d="M136.405 34.008C135.995 35.8518 135.736 37.726 135.631 39.6119C135.634 39.714 135.673 39.8119 135.741 39.8879C135.809 39.964 135.902 40.0133 136.003 40.027C136.105 40.0407 136.208 40.0179 136.294 39.9627C136.38 39.9076 136.443 39.8236 136.473 39.7259C136.827 37.8695 137.032 35.988 137.088 34.099C137.111 33.7341 136.471 33.6431 136.405 34.008Z" fill="#191919"/>
<path d="M151.282 33.6202C152.661 31.12 151.624 28.1262 149.87 26.1024C149.574 25.7605 149.095 26.1935 149.278 26.5575C150.121 28.2205 151.146 29.9745 150.758 31.9113C150.44 33.5062 148.366 35.8522 146.772 34.0523C146.717 33.9989 146.645 33.965 146.569 33.9557C146.492 33.9464 146.415 33.9623 146.348 34.0008C146.281 34.0394 146.229 34.0986 146.198 34.1696C146.168 34.2405 146.162 34.3194 146.18 34.3943C146.267 34.6739 146.414 34.9307 146.612 35.1462C146.459 36.0376 146.207 38.5492 146.521 39.4102C146.544 39.4891 146.592 39.5584 146.658 39.6077C146.724 39.657 146.804 39.6836 146.886 39.6836C146.968 39.6836 147.048 39.657 147.114 39.6077C147.179 39.5584 147.227 39.4891 147.25 39.4102C147.359 38.1527 147.397 36.8901 147.364 35.6284C148.686 36.0581 150.628 34.8084 151.282 33.6202Z" fill="#191919"/>
<path d="M147.159 32.2991C148.467 31.4938 149.46 29.8842 148.913 28.3122C148.891 28.2409 148.843 28.18 148.78 28.1404C148.717 28.1007 148.641 28.085 148.567 28.0959C148.493 28.1069 148.425 28.1438 148.376 28.2001C148.327 28.2564 148.299 28.3284 148.298 28.4032C148.319 28.9275 148.221 29.4497 148.012 29.9309C147.803 30.4122 147.488 30.8402 147.091 31.183C146.633 30.455 146.024 29.834 145.304 29.3623C144.585 28.8906 143.773 28.5791 142.922 28.4492C142.884 28.4384 142.843 28.4354 142.803 28.4403C142.763 28.4452 142.724 28.458 142.689 28.4779C142.654 28.4978 142.623 28.5243 142.598 28.5561C142.573 28.5879 142.555 28.6243 142.544 28.6632C142.534 28.7021 142.531 28.7427 142.536 28.7827C142.54 28.8227 142.553 28.8614 142.573 28.8965C142.593 28.9316 142.62 28.9625 142.651 28.9873C142.683 29.0121 142.719 29.0304 142.758 29.0412C143.557 29.2736 144.3 29.6661 144.943 30.1949C145.585 30.7237 146.113 31.3777 146.494 32.117C146.525 32.174 146.566 32.2242 146.617 32.2645C146.667 32.3048 146.725 32.3344 146.788 32.3515C146.85 32.3685 146.915 32.3727 146.979 32.3636C147.043 32.3546 147.104 32.3327 147.159 32.2991Z" fill="#191919"/>
<path d="M146.725 27.5833C145.53 26.2294 144.118 29.2692 145.951 29.2692C149.14 29.2692 150.028 23.5513 149.436 22.1614C149.026 21.1823 147.409 20.8634 147.112 22.1385C147.075 22.3184 147.091 22.5052 147.159 22.6761C147.226 22.8471 147.341 22.9947 147.491 23.1011C147.641 23.2074 147.819 23.2678 148.002 23.275C148.186 23.2821 148.367 23.2357 148.525 23.1413C148.525 23.3004 148.365 26.0343 146.725 27.5833Z" fill="#191919"/>
<path d="M135.606 27.0363C135.81 27.2905 136.074 27.4903 136.374 27.6179C136.674 27.7455 137.001 27.797 137.326 27.7677C137.65 27.7384 137.963 27.6292 138.235 27.45C138.507 27.2707 138.731 27.027 138.886 26.7403C139.102 27.1172 139.414 27.4303 139.79 27.648C140.166 27.8657 140.593 27.9804 141.028 27.9804C141.462 27.9804 141.889 27.8657 142.265 27.648C142.641 27.4303 142.953 27.1172 143.169 26.7403C143.217 26.9487 143.335 27.1345 143.503 27.2675C143.67 27.4006 143.878 27.473 144.092 27.473C144.305 27.473 144.513 27.4006 144.681 27.2675C144.848 27.1345 144.966 26.9487 145.014 26.7403C145.181 26.6574 145.322 26.5312 145.423 26.3749C145.524 26.2187 145.581 26.0382 145.588 25.8523C145.772 25.7631 145.916 25.6087 145.991 25.4191C146.067 25.2295 146.07 25.0185 145.998 24.8273C146.021 24.7067 146.021 24.5829 145.998 24.4624C146.124 24.3242 146.217 24.1594 146.269 23.9802C146.322 23.8011 146.334 23.6123 146.303 23.428C146.272 23.2438 146.2 23.0689 146.092 22.9166C145.984 22.7642 145.843 22.6384 145.679 22.5485C145.592 22.5012 145.501 22.463 145.406 22.4345C145.451 22.1844 145.246 21.7744 144.654 21.8195C144.589 21.7065 144.504 21.6062 144.403 21.5235C144.402 21.3766 144.366 21.2321 144.299 21.1016C144.232 20.971 144.135 20.858 144.016 20.7715C144.051 20.5624 144.024 20.3476 143.938 20.1537C143.853 19.9597 143.712 19.7951 143.534 19.6801C143.42 19.5158 143.272 19.3778 143.101 19.2755C142.929 19.1733 142.737 19.1092 142.538 19.0876C142.34 19.066 142.139 19.0873 141.949 19.1502C141.759 19.2131 141.585 19.3161 141.439 19.4522C141.261 19.2337 141.025 19.0711 140.757 18.984C140.49 18.8969 140.203 18.8889 139.931 18.9611C139.659 19.0332 139.413 19.1824 139.224 19.3907C139.035 19.599 138.91 19.8576 138.864 20.1352C138.699 20.0343 138.512 19.9757 138.318 19.9645C138.125 19.9532 137.932 19.9898 137.757 20.0708C137.581 20.1519 137.428 20.275 137.311 20.4292C137.194 20.5835 137.117 20.7641 137.087 20.9552C137.009 20.8872 135.884 21.0544 136.723 22.0253C136.541 22.1339 136.386 22.2815 136.269 22.4576C136.151 22.6336 136.074 22.8336 136.044 23.043C136.013 23.2524 136.03 23.466 136.092 23.6682C136.154 23.8705 136.261 24.0563 136.404 24.2123C136.127 24.3001 135.875 24.4554 135.673 24.6644C135.47 24.8733 135.323 25.1292 135.244 25.4092C135.165 25.6892 135.156 25.9845 135.22 26.2685C135.283 26.5525 135.416 26.8164 135.606 27.0363ZM140.755 27.2643C138.594 26.8379 138.796 23.8014 138.842 23.6883C139.328 23.5976 139.785 23.3935 140.177 23.0926C140.569 22.7916 140.884 22.4023 141.097 21.9564C141.304 22.3998 141.637 22.7723 142.054 23.0275C142.471 23.2827 142.955 23.4093 143.444 23.3914C143.403 23.8078 143.388 24.2262 143.398 24.6444C143.398 24.6903 142.535 27.6153 140.755 27.2643Z" fill="#191919"/>
<path d="M27.7377 88.3863C30.7905 90.369 33.8434 92.3731 36.8052 94.4691C36.8942 94.5216 36.9955 94.5498 37.0988 94.5508C37.2021 94.5518 37.3039 94.5256 37.3939 94.4748C37.4839 94.4241 37.5589 94.3505 37.6115 94.2615C37.664 94.1726 37.6922 94.0714 37.6933 93.968C37.5113 92.2141 37.3063 90.4822 37.1242 88.7282C40.4272 89.5942 44.619 89.7991 45.781 85.7902C46.35 83.7853 46.2139 81.4614 46.2139 79.4114C46.2361 76.8136 46.259 74.1716 46.0311 71.5738C46.0311 71.4168 45.9687 71.2662 45.8577 71.1552C45.7466 71.0442 45.596 70.9818 45.439 70.9818C45.282 70.9818 45.1314 71.0442 45.0204 71.1552C44.9094 71.2662 44.847 71.4168 44.847 71.5738C44.756 75.4926 45.093 79.3884 44.847 83.3064C44.733 85.2203 44.346 87.0882 42.3181 87.8164C40.4501 88.4773 38.3993 87.8615 36.5781 87.3154C36.4871 87.2917 36.392 87.2891 36.2999 87.3077C36.2078 87.3262 36.1211 87.3655 36.0464 87.4226C35.9717 87.4796 35.911 87.5529 35.8689 87.6369C35.8267 87.7209 35.8043 87.8134 35.8032 87.9074L36.3501 92.7602C33.8442 91.0513 28.6503 87.3154 28.2403 87.3605C25.0054 87.7254 12.2503 88.5454 9.17206 88.3174C7.96502 88.2264 6.50706 87.9755 5.77808 86.8824C4.91134 85.5844 5.11634 65.9281 5.23032 62.667C5.27542 61.3 5.27542 59.6141 6.39226 58.6113C7.48532 57.6322 9.10318 57.6551 10.4701 57.6322C16.3249 57.5412 41.2021 56.5162 42.6371 56.9713C44.4591 57.5412 44.619 59.8191 44.6641 61.3911C44.6871 61.9831 45.667 62.1881 45.781 61.5501C46.145 59.1582 45.5989 56.4243 42.8872 55.8552C41.0192 55.4502 40.9405 55.8872 11.8141 56.4473C9.3992 56.4932 6.23236 56.3563 4.86542 58.8163C4.35944 59.9469 4.11797 61.1781 4.1594 62.4161C4.06838 64.421 4.06838 83.1014 4.25042 84.9013C4.49642 87.6237 5.70264 89.1038 9.1942 89.2981C11.1991 89.4351 23.5918 88.8652 27.7377 88.3863Z" fill="#191919"/>
<path d="M31.7477 78.7045C31.5051 80.6621 31.6758 82.6488 32.2488 84.5364C32.2801 84.642 32.348 84.7332 32.4403 84.7935C32.5325 84.8539 32.6432 84.8795 32.7526 84.866C32.862 84.8524 32.9631 84.8004 33.0378 84.7194C33.1125 84.6383 33.156 84.5333 33.1606 84.4232C33.133 83.4667 33.0263 82.5142 32.8416 81.5753C32.7276 80.6184 32.6776 79.6615 32.5677 78.7053C32.5679 78.5966 32.5248 78.4923 32.4479 78.4153C32.3711 78.3383 32.2669 78.295 32.1582 78.2949C32.0494 78.2948 31.9451 78.3379 31.8681 78.4147C31.7912 78.4915 31.7479 78.5958 31.7477 78.7045Z" fill="#191919"/>
<path d="M34.6405 76.8826C36.2125 79.459 35.7065 81.3204 35.8943 82.8735C35.9394 83.2384 36.5093 83.5344 36.7143 83.1014C38.0968 79.9469 35.5663 74.4094 31.4056 72.8957C31.4056 72.7817 30.5635 71.8248 30.2896 71.3689C30.2542 71.3104 30.206 71.2606 30.1487 71.2233C30.0914 71.1859 30.0264 71.162 29.9585 71.1533C29.8907 71.1445 29.8217 71.1512 29.7568 71.1728C29.6919 71.1943 29.6327 71.2302 29.5836 71.2779C29.1506 71.7108 27.4647 72.5079 27.6016 72.8268C27.8592 73.5556 28.1871 74.2576 28.5807 74.9228C28.6256 74.9904 28.6865 75.0459 28.7581 75.0843C28.8296 75.1227 28.9095 75.1428 28.9907 75.1428C29.0719 75.1428 29.1518 75.1227 29.2234 75.0843C29.2949 75.0459 29.3558 74.9904 29.4007 74.9228C29.8032 74.3873 30.2875 73.9186 30.8357 73.5337C32.3755 74.2972 33.6876 75.4521 34.6405 76.8826ZM29.0826 73.8748L28.6037 73.0548C29.035 72.8534 29.4405 72.601 29.8115 72.3029C29.9477 72.4857 30.0846 72.6678 30.2445 72.8498C29.8253 73.1535 29.4362 73.4967 29.0826 73.8748Z" fill="#191919"/>
<path d="M25.5986 75.1055C26.0578 74.5619 26.4186 73.9657 26.8286 73.3737C26.8912 73.2678 26.9096 73.1415 26.8799 73.0221C26.8501 72.9027 26.7745 72.7998 26.6695 72.7357C26.2365 72.4397 25.7806 72.1888 25.3477 71.9157C25.0709 71.688 24.7427 71.5315 24.3915 71.4598C23.5904 71.4598 23.5994 72.2372 23.2296 72.3717C23.1916 72.3842 23.1565 72.4043 23.1265 72.4308C23.0965 72.4574 23.0722 72.4897 23.0551 72.5259C23.038 72.5621 23.0284 72.6014 23.027 72.6415C23.0256 72.6815 23.0323 72.7214 23.0467 72.7587C22.3407 72.7357 20.2218 74.2626 19.5158 75.7656C18.8384 74.94 18.4887 73.8938 18.5335 72.8268C18.6466 72.9186 18.7606 73.0318 18.8975 73.1236C20.6745 74.2167 22.0873 72.8046 21.9315 71.9617C21.7036 70.8227 20.1546 70.1388 19.7905 71.6656C19.1079 71.036 18.5846 70.2532 18.2637 69.3817C17.9428 68.5102 17.8335 67.575 17.9447 66.653C17.9447 66.6759 18.7196 67.0408 19.0615 66.038C19.1863 65.8025 19.2246 65.5308 19.1698 65.2701C19.1149 65.0093 18.9704 64.7761 18.7613 64.6109C18.5522 64.4457 18.2919 64.359 18.0255 64.366C17.7591 64.3729 17.5036 64.473 17.3035 64.6489C16.5745 65.127 16.6204 68.5218 16.7573 69.3418C16.6885 69.3647 13.2035 74.9456 15.8455 78.5454C16.2895 79.1754 16.8989 79.6705 17.6065 79.976C18.3141 80.2814 19.0923 80.3854 19.8553 80.2765C19.8054 81.981 19.8816 83.6869 20.0833 85.3801C20.1513 85.9943 21.0623 86.0402 21.0623 85.3801C21.0886 83.5657 20.9668 81.7521 20.6983 79.9575C21.1247 79.7284 21.5032 79.4197 21.8135 79.0481C22.0873 78.6832 21.6085 78.1822 21.3124 78.5471C20.9319 78.9457 20.4748 79.2634 19.9685 79.4811C18.3285 79.9591 16.5056 78.5241 16.0046 76.7472C15.3666 74.4692 16.4146 72.4414 17.0296 70.4332C17.2518 71.0524 17.5501 71.6416 17.9176 72.1872C17.6139 73.1693 17.63 74.2225 17.9636 75.1949C18.1915 75.8099 18.6466 76.9489 19.4445 76.9719C20.2186 76.9948 20.6064 76.2429 20.8795 75.673C21.4035 74.557 23.4313 73.395 23.4543 73.304C23.9807 73.6927 25.3272 75.4262 25.5986 75.1055ZM24.0726 72.7128C24.1636 72.5767 24.2546 72.3717 24.3186 72.3487C24.4662 72.2938 24.6564 72.4979 25.7765 73.2827L25.4354 73.8977C25.024 73.456 24.5672 73.0588 24.0726 72.7128Z" fill="#191919"/>
<path d="M26.7822 74.6267C26.6911 74.3306 26.1442 74.1716 26.1212 74.5356C26.1188 74.6699 26.145 74.8031 26.1981 74.9264C26.2512 75.0497 26.3299 75.1603 26.429 75.2509C26.5282 75.3414 26.6455 75.4098 26.7731 75.4515C26.9007 75.4931 27.0357 75.5072 27.1692 75.4926C27.3175 75.4856 27.4619 75.4432 27.5905 75.369C27.7191 75.2948 27.828 75.191 27.9083 75.0661C27.9885 74.9412 28.0377 74.799 28.0518 74.6512C28.0659 74.5034 28.0444 74.3544 27.9892 74.2167C27.9535 74.1557 27.9 74.1071 27.8359 74.0774C27.7717 74.0478 27.7 74.0386 27.6305 74.051C27.5609 74.0635 27.4968 74.0969 27.4469 74.1469C27.397 74.1969 27.3636 74.2611 27.3512 74.3306C27.3061 74.7636 27.0782 75.1736 26.7822 74.6267Z" fill="#191919"/>
<path d="M27.1012 84.8103C27.4153 85.1555 27.6252 84.7643 27.8302 84.4232C28.2798 83.9034 28.6624 83.3293 28.9692 82.7143C29.1939 82.0009 28.7871 81.1621 27.9442 76.0396C27.9116 75.9371 27.8424 75.8503 27.7498 75.7957C27.6572 75.7411 27.5477 75.7225 27.4423 75.7435C26.9774 75.8362 26.3509 75.7304 26.3034 76.0396C25.8934 77.8436 25.6203 79.6845 25.3013 81.5065C25.1127 82.5135 24.8306 82.3175 27.1012 84.8103ZM26.3493 80.3003C26.5625 79.003 26.6683 77.7033 26.8273 76.3815C27.0317 76.4045 27.238 76.4045 27.4423 76.3815C27.8983 76.4504 28.1713 81.2342 28.2402 81.7582C28.3763 82.7422 27.3743 83.9722 27.3284 84.0362C26.9966 83.6079 26.6923 83.159 26.4173 82.6922C25.9163 82.0083 26.2181 81.0981 26.3493 80.2995V80.3003Z" fill="#191919"/>
<path d="M28.832 62.8491C28.5121 62.6757 28.1453 62.6087 27.7848 62.6578C27.4244 62.7069 27.0889 62.8695 26.8271 63.1221C26.4633 62.8951 26.0415 62.7786 25.6128 62.7868C25.1841 62.7949 24.767 62.9274 24.4122 63.1681C22.6352 64.512 23.7061 67.5879 23.8201 67.838C24.1842 69.8199 25.2551 71.8707 27.556 71.5739C29.7208 71.3008 30.4039 68.5218 30.267 66.3349C30.358 63.806 29.538 63.2369 28.832 62.8491ZM27.1009 67.838C26.6917 67.8217 26.2843 67.9024 25.9122 68.0734C25.54 68.2444 25.2134 68.5009 24.9591 68.822C24.7588 68.268 24.6138 67.6956 24.5261 67.1131C24.9263 66.0848 26.3515 65.7707 26.873 64.8581C27.6471 65.4501 29.2879 65.5141 29.31 66.6572C29.4081 67.3413 29.3696 68.038 29.1969 68.7072C29.1739 68.658 28.718 67.9782 27.1009 67.838Z" fill="#191919"/>
</svg>
