<svg xmlns="http://www.w3.org/2000/svg" fill="none" viewBox="0 0 164 164"><path fill="#191919" d="M154.779 130.665c-49.963.255-102.008.55-150.196.492-.59 0-.672.925-.07.928 49.92.285 100.233-.164 150.168-.41.668-.002.747-1.014.098-1.01m-27.432-42.799a3.6 3.6 0 0 1-.515 1.7c-.328.463.092.901.552.5a2.35 2.35 0 0 0 .538-2.25.31.31 0 0 0-.575.05m.127-2.682a4.23 4.23 0 0 0 1.518-2.32c.186-.729-.26-1.206-.682-.292a6.6 6.6 0 0 1-1.221 2.05c-.413.464-.181.845.385.562m-7.261-7.063c.151 2.75-.636 5.813.148 8.182.112.338.682.278.64-.102a24 24 0 0 1 0-5.647c.415-6.361-1.394-5.63-1.285-5.077.279.856.446 1.745.497 2.644m6.288 5.779a6.3 6.3 0 0 0 1.159-3.411c-.062-.928-.758-.998-.798-.145a7.5 7.5 0 0 1-1.016 3.105c-.284.63.098 1.192.655.45m1.198 2.482c-.311.396-.024.71.426.506a4.17 4.17 0 0 0 1.49-1.758c.328-1.026-.508-1.148-.632-.464-.109.604-1.015 1.374-1.284 1.716m-4.153-5.173c.24-.51 1.732-2.46 1.791-2.204a7.3 7.3 0 0 1-1.49 4.028c-.213.279.097.802.65.352.89-.725 1.698-3.335 1.601-4.474a.73.73 0 0 0-.278-.517.73.73 0 0 0-.571-.139c-.852.144-1.925 1.76-2.232 2.706-.098.309.384.554.529.248m-22.364-3.086a.75.75 0 0 0-1.072.158c-.223.357-.067.584.265.417a1.24 1.24 0 0 1 .738-.12c.255.009.273-.33.069-.456m-5.26 4.502c-.14-.315-.697-.082-.64.27.237 1.489 2.23 2.172 3.067 1.99.282-.061.485-.259.273-.501-.331-.379-1.86.149-2.7-1.759m.324-6.186a1.65 1.65 0 0 0-1.267 1.221c-.074.463.274.738.668.135a1.28 1.28 0 0 1 .784-.599c.644-.167.432-.826-.185-.757m1.387 2.428a.89.89 0 0 0-1.128.426c-.164.32-.023.585.348.367.227-.149.494-.228.766-.228.29-.002.325-.408.014-.566m3.832-2.961a1.61 1.61 0 0 0-1.6-.3c-.437.185-.362.69.163.69a2.3 2.3 0 0 1 1.123.112c.421.156.546-.293.314-.502m-2.656 5.605c-.41.367.12.663 1.01.246a.74.74 0 0 0 .53-.766 5.5 5.5 0 0 0-.845-1.856c-.328-.334-.492.107-.348.464q.292.729.465 1.495c.02.047-.713.327-.812.417m-48.94-31.512c-.212 3.034.424 11.255-2.468 14.084-2.403 2.35-6.542.306-8.22-1.976-.339-.464-.727.11-.394.565 1.994 2.718 6.506 4.683 9.25 1.996 2.742-2.688 2.387-10.608 2.444-14.548.005-.334-.585-.507-.612-.12"/><path fill="#191919" d="M34.94 56.826a4.3 4.3 0 0 0 1.759 1.731 43 43 0 0 0-.232 6.813c.047 1.183.77 1.148.738 0a47.4 47.4 0 0 1 .264-6.72c.164-1.443-.285-.18-1.661-2.176-1.078-1.563-.492-3.247.464-3.362 1.16-.137 1.796 1.342 2.32.71a11.6 11.6 0 0 0 1.856-4.906c2.817.656 12.662 1.858 13.235-3.608.695-6.634-11.574-6.76-15.225-2.143-1.94-2.26-6.422.218-3.007 9.28-1.272.773-1.511 2.863-.51 4.381"/><path fill="#191919" d="M49.271 51.755a2.28 2.28 0 0 0-1.476-.59c-.562.038-.706.679-.038.82.37.013.728.132 1.031.344.52.461.958-.147.483-.574m-3.925 6.363c-.631-.042-1.021.667.125.747.733.05 1.109-.15 1.29-.492.273-.516.176-2.55 0-3.453a.3.3 0 0 0-.599 0c.077 2.696.375 3.276-.816 3.198m-3.399.649c-.241 2.436 2.87 3.466 3.754 2.65a.362.362 0 0 0-.204-.59 2.364 2.364 0 0 1-2.94-2.014.307.307 0 0 0-.61-.046m6.331-2.887c.64-.049.59-1.386 0-1.35-.44.027-.626 1.4 0 1.35m-4.432-1.424c-.596.111-.464 1.318 0 1.294.465-.023.598-1.405 0-1.294m.404-3.011c-.367-.41-1.91-.125-2.132.89-.056.256.227.766.715.153.487-.612 1.059-.301 1.253-.366a.417.417 0 0 0 .164-.678m-6.103 34.794a86 86 0 0 1 1.622-13.295c.113-.561-.599-.719-.715-.164-.596 2.846-1.995 10.627-1.541 13.457a.321.321 0 0 0 .634.002m26.043 32.311c.238-.75.384-11.494.208-12.743a.339.339 0 0 0-.65 0c-.217 1.179-.004 6.789-.347 12.743-.024.409.66.407.789 0m-39.857-12.437c-.048 2.378 1.341 11.139 1.856 14.316.15.929.121 1.066 1.045 1.336 10.109 2.974 24.771 1.098 35.638.149a.46.46 0 0 0 .4-.33.466.466 0 0 0-.494-.598c-11.417 1.002-24.45 2.682-35.572-.069-.678-4.428-1.616-9.152-2.195-14.85-.01-.389-.67-.362-.678.046m.803-19.508c-.724.767-1.552 3.955-1.68 4.896a.313.313 0 0 0 .608.12c.751-3.136 1.54-4.013 1.596-4.75.02-.257-.33-.47-.524-.266m47.196 19.281c.553-.035.586-.705 0-.747a90 90 0 0 1-13.345-1.916 35.6 35.6 0 0 1-.465-10.813c.071-.56-.634-.538-.705 0-.457 3.491-.584 7.249.464 10.632-1.364-.381-5.406-1.394-6.496-2.264a53.7 53.7 0 0 1-.492-10.25 57.8 57.8 0 0 1 18.368 2.63c.334.106.361-.366.064-.547-2.05-1.251-6.208-2.005-8.644-2.32-.149-.994-.892-4.065-1.365-4.575a.334.334 0 0 0-.471.028c-.328.365.458 1.23 1.014 4.445a64 64 0 0 0-8.455-.548c-1.072 0-1.318 0-1.424.984a46 46 0 0 0 .371 9.569c.159 1.187.361 1.394 1.531 1.986 3.343 1.693 15.875 3.977 20.05 3.706"/><path fill="#191919" d="M37.251 96.985c-.5 5.996.373 17.319 1.35 23.485.083.537.924.464.85-.082a184.5 184.5 0 0 1-1.532-23.379.338.338 0 0 0-.668-.024"/><path fill="#191919" d="M18.356 108.479a16.5 16.5 0 0 0 6.905-4.32c.551-.574.746-.868.186-1.601a10.67 10.67 0 0 1-2.321-9.22c.154-.845 0-1.327-.877-1.091-2.58.694-7.005 2.317-8.816 3.977-.289.264.05.752.38.557a29.4 29.4 0 0 1 8.446-3.608c-.738 4.314.4 6.755 2.687 10.129a16.2 16.2 0 0 1-3.327 2.733c-3.86-3.155-4.862-7.198-4.64-9.085.044-.381-.744-.984-.734.115a11.93 11.93 0 0 0 4.687 9.371q-1.137.631-2.363 1.066c-4.875 1.722-7.414.617-8.417-4.408-1.595-7.991 4.948-20.108 10.06-26.033 4.11-4.762 5.513-4.899 11.908-7.104a12.8 12.8 0 0 0 2.624 4.333c1.093 1.191 1.541-.36 4.737-2.84a24 24 0 0 1 2.96 3.363c.379.47.82.43 1.395.199a28.6 28.6 0 0 0 8.91-6.45c.627.599 8.446 3.22 13.216 7.93 4.412 4.358 10.406 15.044 11.22 21.388.07.547.725.399.656-.153-.82-6.391-6.498-17.108-11.316-21.812-3.629-3.547-8.63-6.085-13.33-7.891a.557.557 0 0 0-.103-.793q-1.201-1.097-2.566-1.982c-.834-.527-.864-.55-1.634.122-3.184 2.776-4.872 3.744-9.336 4.96a16.3 16.3 0 0 1-3.81-3.541c-.461-.591-.5-.673-1.201-.31-.975.504-2.938 1.943-2.687 2.667-6.782 2.359-8.01 2.326-12.31 7.388-5.132 6.04-11.756 18.064-10.27 26.394.947 5.311 3.662 7.279 9.081 5.55M49.79 65.757c.912.578 1.775 1.23 2.58 1.95a25.4 25.4 0 0 1-9.206 6.649 20 20 0 0 0-3.082-3.382 19.2 19.2 0 0 0 9.708-5.214zm-14.678 1.365a13 13 0 0 0 3.74 3.712 16.5 16.5 0 0 0-3.22 3.016 14 14 0 0 1-3.034-4.76 7.8 7.8 0 0 1 2.51-1.966z"/><path fill="#191919" d="M44.398 97.634c0-.138-.05-.324-.204-.366-.757-.208-.464.656-2.928.59a.339.339 0 0 0-.18.649c1.194.48 3.3-.195 3.312-.873m-1.481-9.359c-.399-.065-.427.534-.082.668 2.49.97 3.495.338 5.829 2.288.283.237.827.033.7-.41-.39-1.382-3.811-2.118-6.447-2.546m1.89 11.963c.492-.357.181-.997-.422-.728a2.95 2.95 0 0 1-2.126.232c-.38-.07-.468.362-.143.64.613.525 2.07.307 2.691-.144m-4.608-4.372c-.328.078-.27.7.082.679 3.906-.246 5.066-4.42 4.255-5.138a.297.297 0 0 0-.395 0c-.731.646.1 3.507-3.942 4.46m3.558 6.387c2.788.715 5.89-1.318 5.822-2.445 0-.279-.348-.557-.616-.358-.27.2-1.184 2.367-5.105 2.154a.333.333 0 0 0-.276.505c.04.067.102.118.175.144m-18.95-9.482c1.17-1.515 3.974-4.428 6.115-3.22.488.274.83-.463.34-.738-2.511-1.408-6.041 1.332-6.961 3.368-.357.787.287.873.506.59m7.726 5.619a8.4 8.4 0 0 1-2.636-.733c-.328-.057-1.148.813 1.03 1.312 2.468.568 2.037-.551 1.606-.579m-3.133 1.29c-.887-.431-.875.781.645 1.169.465.119 1.862.101 1.73-.464-.119-.51-.589.163-2.375-.705m.933 2.573c.38-.197.189-.782-.214-.656-1.395.427-2.363.385-4.32-.343a.33.33 0 0 0-.42.346.33.33 0 0 0 .086.191 5.17 5.17 0 0 0 4.868.462m3.559-5.714c-2.552-1.323-3.145-2.112-3.832-3.508-.144-.293-.82-.183-.585.607.473 1.58 2.696 2.896 4.084 3.608a.394.394 0 1 0 .333-.71zm90.651 14.612c-1.389 1.733-2.172 5.126-.148 6.497 2.236 1.514 5.03-.051 6.396-2.024 1.558-2.241 1.773-5.478 0-6.612-1.951-1.251-4.662.16-6.248 2.139m6.292 2.469c-.902 2.32-3.829 4.642-5.86 3.304-1.584-1.043-.82-4.027.264-5.3.961-1.131 2.677-2.433 4.287-2.143 1.931.346 1.843 2.77 1.309 4.139"/><path fill="#191919" d="M104.496 126.131c-.047 0-14.158.22-16.636.32-1.886.077-2.32.219-2.32 1.931a1.7 1.7 0 0 0 1.127 1.856c.32.072.464-.334.251-.566a1.36 1.36 0 0 1-.464-1.203c.056-.984.028-1.088 1.34-1.131 5.323-.176 10.368.01 15.899-.242 1.178-.053 1.508.052 1.675-1.114 1.051-7.34 2.073-16.788 3.327-24.853.589-3.787 3.902-4.651 7.327-4.76 7.457-.242 17.815-.425 25.36-.54 6.441-.098 5.624 2.515 5.272 6.497-.82 9.281-1.734 17.406-2.92 25.392a2.8 2.8 0 0 1-.63 1.394.4.4 0 0 0-.125.11.4.4 0 0 0-.069.318.4.4 0 0 0 .657.213 3.74 3.74 0 0 0 1.082-2.227c1.002-8.101 2.076-15.967 2.821-24.153.592-6.497.608-8.487-5.425-8.515-7.094-.033-19.953.588-25.494.598-4.682.008-7.954 1.093-8.673 5.912a982 982 0 0 0-3.382 24.763m-40.59-3.257c-11.07 1.452-30.942 2.812-37.447-.353-.103 1.558-.09 5.276-.13 7.341 3.386-.042 35.382-.176 37.586-.264.028-1.054.127-5.073-.009-6.724m38.901-43.434a42 42 0 0 0-.376-4.357c-.06-.288-.591-.334-.557 0 .291 2.87.934 10.414-.696 12.436-.884 1.097-2.933 1.443-6.432.343-.463-.146-.583.328-.157.538a9.2 9.2 0 0 0 4.12.928 16.5 16.5 0 0 0 .868 3.884c.124.349.678.2.574-.164a18 18 0 0 1-.533-2.501c5.239-.464 10.51-4.468 9.225-4.956s-4.055-2.285-6.036-6.15"/><path fill="#191919" d="M90.43 91.834v1.582a.33.33 0 0 0 .655.056c.2-2.575.16-5.163-.12-7.731-.103-.93.05-1.164-.738-1.299-1.124-.193-1.535-1.394-1.713-2.557-.164-1.08.21-2.214 1.133-2.264.849-.045 1.114 1.011 1.512-.219a8 8 0 0 0-.06-3.405c2.288 0 10.795-.268 15.722-4.868.686-.64-2.571-.515-4.144-2.87-3.071-4.6-11.95-7.369-15.04.617-3.936-1.569-6.097 2.084-4.863 12.237.546 4.487-3.076 8.352-3.116 8.817-.039.464 4.85 2.327 10.771 1.904"/><path fill="#71b6f6" d="M47.478 81.19a17 17 0 0 1-2.296-.72c.752-1.016 1.54-2.01 2.227-3.068a.345.345 0 1 0-.543-.426 39 39 0 0 0-2.75 3.43.464.464 0 0 0 .105.646c.62.296 1.267.533 1.932.708-1.1.793-2.739 1.713-3.777 2.32-.656.384-.465.977.24.724a45 45 0 0 0 4.962-2.784c.444-.223.474-.696-.1-.83M33.68 84.693c-.544-1.487-1.196-2.943-1.857-4.381-.173-.377-.574-.604-.849-.027a7.5 7.5 0 0 1-.789 1.331 24.4 24.4 0 0 1-1.787-3.716.346.346 0 0 0-.645.246 31 31 0 0 0 1.958 4.58.465.465 0 0 0 .79.134 8.4 8.4 0 0 0 .849-1.394 37 37 0 0 1 1.633 3.498.377.377 0 0 0 .745-.117.4.4 0 0 0-.049-.154m-14.001 23.8c-4.049 5.533-3.712 13.038-11.137 18.803-.83.645-.925 1.961.761.64 6.601-5.173 7.307-12.142 11.02-19.024.227-.422-.398-.754-.644-.419m48.587 13.554C55.989 116.766 55.213 106.1 49.24 101.82c-.357-.256-.717.281-.464.585 6.862 8.26 7.643 15.866 19.188 20.621.62.255.89-.725.3-.979m71.884-45.951c-.377 5.404-.361 11.995-4.761 16.488-.459.468.219 1.238.673.765 4.562-4.747 5.035-10.72 4.961-17.197a.4.4 0 0 0-.023-.17.43.43 0 0 0-.221-.25.43.43 0 0 0-.334-.022.44.44 0 0 0-.295.386m-.938-38.995c-.115-1.346-.118-3.97-.376-5.084-.082-.348-.637-.436-.733-.046a22.4 22.4 0 0 0 .13 5.323c.078.61 1.037.498.979-.193m-20.475 17.448c.687.05 3.564-.507 4.613-.608.533-.051.465-.968-.093-.928-.83.058-3.916.37-4.682.83a.39.39 0 0 0 .162.706m5.236-14.432c1.066.926 1.617 1.348 2.32 1.991.502.458 1.237-.026.808-.552a18.7 18.7 0 0 0-2.914-2.525c-.857-.765-1.344.109-.214 1.086m27.893-4.408c-.853.608-2.214 2.902-2.714 3.777a.495.495 0 0 0 .168.709.5.5 0 0 0 .394.043.5.5 0 0 0 .301-.26c.768-1.299 1.615-2.554 2.403-3.841.149-.245-.296-.614-.552-.428m-23.335 16.914c.328 4.483 3.567 8.315 7.067 10.886.464.34.82-.232.423-.603-2.646-2.49-5.399-5.105-6.241-8.816-2.974-13.09 20.214-14.947 20.348-2.922.048 4.395-2.788 8.02-5.388 11.3-.404.51.182.934.613.464 2.685-2.934 5.389-6.496 5.74-10.673 1.19-13.942-23.561-13.186-22.562.364m30.872-3.949c-1.615.188-3.248.402-4.838.692-.464.082-.274.803.148.77a70 70 0 0 0 4.863-.548c.55-.081.342-.973-.173-.914"/><path fill="#71b6f6" d="M143.678 53.774c3.794-3.335-.683-6.553-2.292-2.701a17.5 17.5 0 0 0-.928 2.933c-.877.156-1.771.201-2.659.135-.343-1.276-.812-3.362-2.132-3.936-2.7-1.175-4.116 3.963 1.332 4.853a77 77 0 0 1 1.434 7.829.335.335 0 0 0 .336.295.34.34 0 0 0 .337-.295 33 33 0 0 0-1.045-7.708q1.103.045 2.195-.103a20.3 20.3 0 0 0 .418 7.657c.138.636.84.464.724-.149a21 21 0 0 1-.033-7.708 4.9 4.9 0 0 0 2.313-1.102m.028-3.314c1.294.852-.728 2.952-2.097 3.28.756-3.038 1.619-3.595 2.097-3.28m-9.281 2.033c-.533-1.04.39-1.963 1.239-1.086a6.4 6.4 0 0 1 1.04 2.561 3.47 3.47 0 0 1-2.288-1.476zm23.95 9.285a24.6 24.6 0 0 0-4.37-1.976c-.391-.107-.636.492-.312.714 1.307.883 2.875 1.332 4.237 2.132.862.511 1.508-.146.445-.87m-30.159 1.652c-.603.114-2.651 2.552-2.952 3.116-.606 1.148.252 1.268.441.929.86-1.543 2.384-2.596 2.831-3.25.21-.303.162-.886-.32-.795m7.63 1.016c-.232 6.246 1.108 10.08 4.515 10.086 4.338.007 4.807-5.2 4.515-10.403a49.7 49.7 0 0 1-9.03.317m6.937 5.69a8.8 8.8 0 0 1-3.936 1.434c-.52.009-.62-.568-.125-.692a10.9 10.9 0 0 0 3.568-1.573.49.49 0 0 1 .611.2c.06.1.081.22.06.337a.5.5 0 0 1-.178.293m.139-3.095c-1.014.808-4.45 1.67-4.947 1.64-.366 0-.59-.396-.227-.636.644-.424 2.706-.781 4.641-1.804.653-.344 1.158.301.537.8zM35.999 87.56c-3.444.165-4.799 1.62-4.599 4.265s1.735 3.248 4.608 3.318a7.74 7.74 0 0 1-.01-7.582"/><path fill="#71b6f6" d="M42.093 91.528c.05-2.983-2.788-3.842-4.951-3.968a7.05 7.05 0 0 0 0 7.573c2.32-.097 4.259-.593 4.784-2.51.52.222.754.738 1.155.385.615-.545-.562-1.257-.988-1.48m55.716 9.54c-1.142-1.628-5.54-4.747-9.192-7.312-3.077.927-8.79 3.62-11.87 6.761-3.082 3.141-8.151 17.799-6.85 25.057.902 5.03 4.784 4.372 14.85 4.279-.224-.701-.441-3.207.83-3.954s13.717-.656 18.097-.617c.181-.989.534-3.712.929-7.003-7.62-.464-17.281.758-24.846 1.37-.465.037-.497-.395-.061-.464a39 39 0 0 1 3.11-.525c.125-1.856.773-7.954 1.465-9.745.146-.375.553-.237.487.13a82 82 0 0 0-1.057 9.522 163 163 0 0 1 21.011-1.113c2.341-18.773 2.011-20.518 6.288-22.075-1.23-.621-7.123-2.412-9.981-2.412-.221 1.067-1.893 6.343-3.21 8.101m20.25-6.522c2.487-.088 7.029-.204 8.635-.292.112-.645.302-1.64.673-3.151-.928-.656-5.912-3.211-7.38-3.854-.114.497-1.459 5.453-1.928 7.297"/></svg>