<svg xmlns="http://www.w3.org/2000/svg" fill="none" viewBox="0 0 164 164"><path fill="#191919" d="M120.81 137.432c-3.362-.224-6.487-.809-9.917-1.017-4.092-.246-7.853-.074-12.218-.023a36 36 0 0 0-6.956.574 7.5 7.5 0 0 0-2.776 1.025.318.318 0 0 0 .205.574q1.424.579 2.918.938 0-.098.01-.194c.07-.524.383-1.388.847-1.317.478.065.52.984.41 1.519-.129.674-.546.955-.867.839a28 28 0 0 0-.005 3.35.55.55 0 0 0 .47.506 58 58 0 0 0 5.38.574c3.994.246 11.667.199 13.216.082a17.2 17.2 0 0 0 3.474-.586.63.63 0 0 0 .453-.656c0-.046-.007-.092-.01-.137-.497-.178-.623-1.799-.656-2.318-.053-.773-.308-3.46.47-3.492.606-.024.714 1.607.756 2.542a11.35 11.35 0 0 0 5.12-1.624.644.644 0 0 0 .032-1.014.64.64 0 0 0-.356-.145"/><path fill="#38a1ff" d="M137.331 59.178c-1.024-5.192-2.276-10.39-5.568-14.544q.24-.031.48-.074a.387.387 0 0 0 .152-.696.4.4 0 0 0-.288-.061 7.33 7.33 0 0 1-4.895-.91.41.41 0 0 0-.428.037c-2.357 1.804-5.386 2.966-8.195 1.932a.43.43 0 0 0-.477.127c-3.804 4.476-11.917 4.932-16.564 1.482a.49.49 0 0 0-.528-.032 37.4 37.4 0 0 1-15.973 4.537 18.4 18.4 0 0 0 5.888-3.725.574.574 0 0 0-.138-.918 2.33 2.33 0 0 1-1.402-2.354c.218-2.657 3.75-4.864 6.253-5.747a15.5 15.5 0 0 1 5.651-.843.6.6 0 0 0 .503-.246 9.97 9.97 0 0 1 9.668-4.1.61.61 0 0 0 .656-.319.6.6 0 0 0-.122-.718c-4.255-4.063-9.887-6.233-15.406-8.178-19.995-7.052-44.506-7.518-60.18 6.888a.63.63 0 0 0 .208 1.057 9.45 9.45 0 0 1 4.161 3.023 1.607 1.607 0 0 1-.392 2.45.632.632 0 0 0 .132 1.07 4.47 4.47 0 0 1 2.596 2.778c.716 2.603-1.995 4.794-4.525 5.693a8.9 8.9 0 0 1-4.077.479.633.633 0 0 0-.546 1.057c3.394 3.667 8.266 5.158 13.252 4.92-3.776 1.683-8.22 1.075-12.123-.375a14.5 14.5 0 0 1-5.42-3.18.64.64 0 0 0-.755-.127 7.91 7.91 0 0 1-7.644-.36.64.64 0 0 0-.894.236c-3.964 7.259-6.673 17.893-6.943 26.265a.635.635 0 0 0 .684.656c7.753-.566 18.09.432 20.513 7.852a.64.64 0 0 0 .612.439c7.298-.091 12.004 5.848 13.015 12.902a.63.63 0 0 0 .492.532c2.396.553 2.51 1.486 3.198 1.14a.63.63 0 0 0 .346-.55c.123-5.341 2.503-9.513 6.483-12.957a.62.62 0 0 0 .206-.611c-.578-2.682-1.869-17.865-1.703-23.933.052-1.058.245-2.104.574-3.11.025-.082 4.066-12.071 5.63-14.01.737-.91 1.456-1.284 2.395-.196a9.6 9.6 0 0 1 1.453 2.884c1.746 4.89 4.36 9.328 6.018 14.246a10.9 10.9 0 0 1 .492 3.52c0 .082-.447 14.052-.797 21.361a.61.61 0 0 0 .274.535 25.4 25.4 0 0 1 5.112 4.97.595.595 0 0 0 .95-.052c3.02-4.516 9.154-9.348 14.099-7.078a.565.565 0 0 0 .759-.31 35 35 0 0 1 3.854-7.574 25.95 25.95 0 0 1 11.76-9.118c4.725-1.733 9.851-1.67 14.142 1.722a.45.45 0 0 0 .348.09.44.44 0 0 0 .299-.2c3.164-4.969 6.537-8.24 12.366-9.229a.377.377 0 0 0 .309-.445m-66.472 49.274a6.6 6.6 0 0 0-1.23-3.271 2.78 2.78 0 0 0-2.354-1.115c-2.013.087-3.264 2.947-2.937 4.846.376 2.151 1.976 5.145 2.672 6.801q.376.844.597 1.741a.386.386 0 0 0 .754-.058c.404-2.35 2.793-5.894 2.498-8.944"/><path fill="#191919" d="M146.288 95.603c-.751-.093-3.034-.017-3.854-.218-.527-.131-.771-.328-.783-.861a13.6 13.6 0 0 1 .147-1.964.625.625 0 0 0-.294-.656 9 9 0 0 1-1.459-1.026 33 33 0 0 0 2.535-3.482.385.385 0 0 0-.592-.492c-.959.96-1.476 1.539-2.942 3.24-.174.14-.3.33-.361.546-.109.469.209.843.566 1.167q.576.508 1.23.909a13 13 0 0 0-.097 1.972 1.95 1.95 0 0 0 1.281 1.73 6.3 6.3 0 0 0 2.236.28 18 18 0 0 0-.021 3.538.32.32 0 0 0 .636.049l.609-3.515c.323.016.841.034.995.028.351-.007 1.118-.273 1.118-.615-.002-.256-.667-.593-.95-.63"/><path fill="#191919" d="M143.021 93.841a1.52 1.52 0 0 0 1.843.656 1.95 1.95 0 0 0 1.132-1.173c.147-.45.03-1.33-.367-1.336-.181 0-.638.662-.69.745-.301.483-.591.82-.965.361-.562-.56-.618-.69-.878-.615-.461.132-.286.876-.075 1.362m9.316-5.461a2.4 2.4 0 0 0-1.037-.217.38.38 0 0 0-.388.182.4.4 0 0 0-.044.292.38.38 0 0 0 .317.289 1.5 1.5 0 0 1 1.066.831 1.624 1.624 0 0 1-1.583 2.093c-.498.016-1.371.121-1.377.61 0 .217.415.662 1.297.67 0 1.199.005 3.807.082 4.786.053.696.223 1.886.246 2.03a.32.32 0 0 0 .088.228.32.32 0 0 0 .223.1.326.326 0 0 0 .328-.312c.365-2.05.298-1.409.298-7.047 1.902-1.01 2.462-3.525.484-4.535m-9.67-2.533a7.5 7.5 0 0 1 .06-2.323 3.5 3.5 0 0 1 .801-1.64c1.435-1.644 4.241-1.594 6.124-.525 1.241.696 2.115 1.745 3.659 2.14 1.938.466 3.414-.403 3.936-1.69a.325.325 0 0 0-.258-.464.32.32 0 0 0-.309.17 2.63 2.63 0 0 1-3.052.806c-1.222-.346-2.181-1.402-3.347-2.07-2.416-1.37-5.856-1.321-7.69.828a4 4 0 0 0-.984 2.296 7.3 7.3 0 0 0 .306 2.624.38.38 0 0 0 .162.256.39.39 0 0 0 .439-.002.4.4 0 0 0 .16-.258.4.4 0 0 0-.007-.154z"/><path fill="#191919" d="M144.198 85.297c.274-1.37 2.25-2.296 3.608-1.962 2.86.674 5.369 3.054 8.88 1.996a5 5 0 0 0 1.436-.708 5.3 5.3 0 0 0 1.334-1.325.32.32 0 0 0-.053-.45.32.32 0 0 0-.45.054 6.15 6.15 0 0 1-2.602 1.268c-2.96.82-5.248-1.37-8.259-2.06-2.228-.487-4.601 1.015-4.656 3.103a.39.39 0 0 0 .345.424.383.383 0 0 0 .417-.34"/><path fill="#191919" d="M147.507 85.557c1.375-.435 2.665.677 3.959 1.384 2.536 1.351 5.685 1.872 7.544-.323a.32.32 0 0 0 .102-.217.323.323 0 0 0-.289-.337.32.32 0 0 0-.229.068 5.2 5.2 0 0 1-1.589.577 7.15 7.15 0 0 1-4.938-.883c-1.403-.742-2.984-2.147-4.884-.967a.4.4 0 0 0-.212.216.38.38 0 0 0 .01.302.38.38 0 0 0 .378.222.4.4 0 0 0 .148-.042m7.166 4.833a3.84 3.84 0 0 0 3.01-.096c.144-.098.75-.656.586-.942-.194-.342-1.783.013-2.117.024-.915.04-1.886-.398-2.132.02-.217.362.475.892.653.994m-.986 3.047a3.84 3.84 0 0 0 2.378.288c.781-.175 1.148-.769 1.071-.976-.169-.395-1.64-.216-1.992-.236a5 5 0 0 1-1.016-.174c-.642-.093-.887-.12-1.029.115-.205.353.461.9.588.983m-.627 2.377a4.4 4.4 0 0 0 2.897-.11c.087-.05.782-.565.661-.863-.105-.255-1.041-.246-1.167-.228a5.8 5.8 0 0 1-2.105.049c-.082-.005-.984.015-1.077.323-.112.373.686.785.791.829"/><path fill="#38a1ff" d="M128.583 109.634c-.286-3.11-2.674-5.287-5.735-6.734-4.483-2.116-10.645-3.286-18.153-2.614-4.597.428-9.281 1.087-12.857 3.968-2.825 2.296-4.535 5.412-6.368 8.346-2.997 4.817 3.64 9.642 8.707 12.136a7.82 7.82 0 0 1-4.407 3.413.64.64 0 0 0-.45.43c-.902 2.983-.681 6.52-.574 9.614a.64.64 0 0 0 .266.492c.54.384.732-.263 4.9-.803 5.807-.751 17.035-.641 26.743.884a.64.64 0 0 0 .538-.171.65.65 0 0 0 .192-.531 71 71 0 0 1 .023-14.76c3.905-2.587 6.872-8.133 7.179-11.858q.072-.906-.004-1.812"/><path fill="#191919" d="M97.541 125.03c1.968-3.944 4.637-8.063 5.588-13.42.574-3.162.05-5.998-2.688-7.679a.317.317 0 0 1-.13-.425.32.32 0 0 1 .421-.144 5.94 5.94 0 0 1 3.448 3.526c1.104 3.151-.299 7.801-1.594 10.896a60.4 60.4 0 0 1-4.314 8.118.52.52 0 0 1-.624.24l-2.244-.907a.383.383 0 0 1-.231-.494.4.4 0 0 1 .199-.218.4.4 0 0 1 .295-.013zm24.981-19.533a8.6 8.6 0 0 1 1.202 2.192 10.78 10.78 0 0 1-.093 7.606 47 47 0 0 1-2.408 5.138.3.3 0 0 0-.059.237.3.3 0 0 0 .128.208.32.32 0 0 0 .447-.07 12.95 12.95 0 0 0 3.091-5.094c1.312-3.7 1.254-8.181-1.756-10.754a.386.386 0 0 0-.552.537M83.948 116.55a9.5 9.5 0 0 0-1.21 2.553c-1.385 4.789.309 10.262 5.394 9.936a.319.319 0 0 0 .265-.528.32.32 0 0 0-.219-.11 7.4 7.4 0 0 1-2.067-.82c-2.734-1.59-2.899-5.106-2.198-8.175q.27-1.275.716-2.501a.39.39 0 0 0-.045-.425.383.383 0 0 0-.636.068z"/><path fill="#38a1ff" d="M159.879 115.979c-.43-1.604-.875-3.134-1.262-4.877-.961-4.432-1.599-7.961-5.997-10.004-2.59-1.198-5.205-.563-6.308-.344-8.407 1.695-11.795 7.86-13.948 16.167-.402 1.558-3.759 16.836-4.32 19.25a.376.376 0 0 0 .24.439q1.363.468 2.775.767c.717.141.71-.199.498-.803a4 4 0 0 1-.155-.574c-.043-.251-.082-.52.076-.679a.42.42 0 0 0 .115-.323.4.4 0 0 0-.17-.297c-.902-.682-.675-1.862.043-2.727a.46.46 0 0 0 .023-.546 1.56 1.56 0 0 1-.315-1.186c.265-1.074 2.609-1.458 3.896-.925a.53.53 0 0 0 .618-.157.5.5 0 0 0 .104-.201l.26-.89a.55.55 0 0 0-.309-.656c-1.12-.508-.732-1.353.369-1.591a5.26 5.26 0 0 1 4.148 1.539.61.61 0 0 0 .788.087q.562-.359 1.158-.656a.614.614 0 0 0 .303-.685c-.237-.979-.36-2.006-.525-3.04a116 116 0 0 0 12.917-4.139c.295 1.318.433 2.372.636 3.659a.635.635 0 0 0 .632.535.63.63 0 0 0 .618-.552q.327-2.472.399-4.965l2.318-.872a.63.63 0 0 0 .375-.754"/><path fill="#191919" d="M143.611 103.72c-4.091 1.85-5.002 6.188-4.571 10.641a20.1 20.1 0 0 0 1.51 6.174.33.33 0 0 0 .149.194.325.325 0 0 0 .436-.114.32.32 0 0 0 .031-.241c-.092-.619-.384-2.767-.457-3.198a20.8 20.8 0 0 1-.265-7.281 8.53 8.53 0 0 1 3.548-5.509.383.383 0 0 0 .048-.638.39.39 0 0 0-.427-.032zm-11.055 27.145c.082 0 2.043-.153 2.126-.164.143-.018.992-.275 1.019-.546.052-.525-1.209-.703-1.744-.688-.743.03-2.542.26-2.418.959.052.34.935.439 1.017.439m-.228 3.003c.082-.005 2.075-.328 2.158-.341.15-.032.984-.336.996-.615.017-.527-1.269-.623-1.834-.554-.748.087-2.574.479-2.388 1.169.088.337.986.349 1.068.341m.519 2.356a17.3 17.3 0 0 1 5.221.148c1.086.152 2.418.724 3.633.99 4.674.992 9.827.943 12.274-3.182.513-.83.9-1.733 1.147-2.677.587-2.873.751-5.816.486-8.736a51 51 0 0 0-.463-3.569.32.32 0 0 0-.634.066c.169 3.21.125 8.973-.619 11.935a8.7 8.7 0 0 1-1.011 2.332c-2.113 3.571-6.859 3.462-10.921 2.615a36 36 0 0 0-3.752-.938 15.8 15.8 0 0 0-5.518.263.385.385 0 0 0 .159.753z"/><path fill="#191919" d="M146.58 125.05c-.12-.328-.952-.281-1.281-.156q-.63.242-1.196.609a17 17 0 0 0-.275-.782c-.203-.525-.451-1.022-.673-1.541a.38.38 0 0 0-.329-.274.4.4 0 0 0-.283.084.39.39 0 0 0-.126.409c.125.95.332 1.889.618 2.804-.997.574-1.701.902-2.695 1.548-1.205-1.134-2.499-1.985-4.095-1.558a.3.3 0 0 0-.223.112.3.3 0 0 0-.062.112q-.018.062-.012.127a.3.3 0 0 0 .039.122q.031.056.083.096a.3.3 0 0 0 .242.063q.331.038.647.145a8.6 8.6 0 0 1 2.87 2.05.64.64 0 0 0 .811.067c.417-.297 4.446-2.686 4.717-2.828.176-.087 1.423-.689 1.223-1.209m.282 13.17a26.7 26.7 0 0 1-4.606-.196c-2.152-.383-4.006-1.216-6.284-1.383a21.7 21.7 0 0 0-3.922.488.635.635 0 0 0-.566.666c.074 1.521.227 2.788.375 4.393a.63.63 0 0 0 .636.574c9.862-.098 12.415-.113 13.051-.147.448-.024.474-.191.67-.594a13.7 13.7 0 0 0 1.169-3.215.5.5 0 0 0-.125-.415.52.52 0 0 0-.398-.171M68.634 63.703c-1.733-1.518-5.851-1.68-7.084 1.139a4.337 4.337 0 0 0 1.778 5.586 5.1 5.1 0 0 0 2.788.619c3.286-.233 4.903-5.266 2.518-7.344m-5.092 5.294a3.6 3.6 0 0 1-.707-4.012c.82-1.824 2.693-1.722 4.462-.812-1.196 1.655-2.631 3.11-3.755 4.824m73.979-9.04a.324.324 0 0 0-.364-.267c-5.237.687-10.154 3.41-12.808 8.118a16.52 16.52 0 0 0-15.031-1.083c-6.98 2.805-12.827 9.747-15.698 16.744-4.855-1.2-9.797 1.333-12.956 5.155a.386.386 0 0 0 .465.594.4.4 0 0 0 .118-.092c3.029-3.362 7.688-5.555 12.02-4.486a16.7 16.7 0 0 0-.7 3.859c.007.259.127 1.37.492 1.389s.656-1.148.728-1.51c.656-3.315.6-4.893 3.787-9.778 3.034-4.657 7.337-8.727 12.218-10.688a15.37 15.37 0 0 1 14.038 1.025c-.431.824-.755 1.7-.964 2.606-.035.27-.069 1.222.246 1.303.328.082.85-.902.977-1.219 1.715-4.042 2.677-6.113 6.346-8.552a18.5 18.5 0 0 1 6.819-2.75.323.323 0 0 0 .267-.368M48.83 96.718c-.328-7.44-6.287-13.745-13.66-13.02-2.196-4.55-7.265-8.15-15.475-8.15a.38.38 0 0 0-.402.367.39.39 0 0 0 .37.4c2.975.196 5.886.956 8.577 2.241a12.23 12.23 0 0 1 5.96 6.082.636.636 0 0 0 .67.376c6.28-.87 11.144 3.883 12.833 9.85q.243.845.391 1.712a5 5 0 0 0-1.514.03c-.217.05-1.085.35-1.022.737.053.349 1.033.432 1.126.44q.737-.013 1.467.095c.6.106 2.221.831 2.475.52.171-.224-.149-1.24-1.796-1.68M91.167 46.32c-2.562-1.38-2.384-4.224-.173-6.273 2.6-2.394 6.19-3.444 9.741-3.745a.386.386 0 0 1 .325.623.4.4 0 0 1-.25.142c-9.18 1.066-13.052 6.97-8.412 8.482a.6.6 0 0 1 .246.979 19.7 19.7 0 0 1-5.494 4.208 33.4 33.4 0 0 0 13.498-4.51.64.64 0 0 1 .725.04c4.555 3.532 11.788 2.817 15.424-1.804a.64.64 0 0 1 .656-.222c2.584.647 6.604.355 8.595-1.421a.63.63 0 0 1 .635-.119c4.89 1.852 10.754.499 14.001-3.56a.52.52 0 0 1 .539-.182c3.415.94 7.555.54 9.872-2.178a.32.32 0 0 1 .436-.029.33.33 0 0 1 .114.206.32.32 0 0 1-.058.228c-2.345 2.978-6.569 3.657-10.29 2.856a13.36 13.36 0 0 1-14.708 3.953c-2.307 1.796-6.232 2.148-9.047 1.565a12.63 12.63 0 0 1-16.595 1.982c-5.756 3.413-12.637 4.838-19.434 4.756a.625.625 0 0 1-.028-1.249 15.43 15.43 0 0 0 9.682-4.728m-48.004 7.226a14.83 14.83 0 0 1-9.625-5.532.624.624 0 0 1 .453-.99c2.715-.217 6.838-1.982 8.126-4.257.82-1.45.359-3.073-2.296-4.696a.467.467 0 0 1-.15-.664c1.312-1.84-.164-3.772-2.114-4.884a.318.318 0 1 1 .3-.56c2.223 1.128 3.954 3.274 2.834 5.536 3.084 1.906 3.39 4.018 2.428 5.822-1.325 2.488-5.084 4.253-7.895 4.788 3.418 3.754 9.573 5.392 14.24 3.653a.638.638 0 0 1 .531 1.155c-6.56 3.645-15.118 1.82-20.818-2.839-5.412 2.161-10.328-.643-12.944-5.917a12.34 12.34 0 0 1-12.109-7.687.385.385 0 0 1 .72-.274c1.737 4.332 7.015 7.43 11.666 6.724a.59.59 0 0 1 .624.338c2.354 4.973 6.842 7.736 11.904 5.507a.63.63 0 0 1 .665.096 19.74 19.74 0 0 0 13.46 4.681m100.993 33.789c.297.053.467.492.383.98-.083.486-.395.843-.689.79-.295-.052-.471-.492-.385-.979s.393-.843.691-.79m-33.492-.252c.262.078.36.54.213 1.028-.148.488-.477.82-.738.746-.262-.075-.361-.537-.217-1.029.145-.49.476-.823.742-.745m-55.054 54.83c-1.322-6.16-9.074-7.923-14.751-5.279a9.62 9.62 0 0 0-10.642-5.264c-3.814-7.894-11.163-12.874-21.353-12.82a.374.374 0 0 0-.156.715q.067.03.141.03c8.803.368 16.378 4.523 20.26 12.604a9.7 9.7 0 0 0-3.773 2.276c-.158.177-.865 1.05-.615 1.319.246.255 1.365-.476 1.51-.574 2.912-2.014 5.437-3.322 8.863-2.004a8.68 8.68 0 0 1 4.901 4.781.6.6 0 0 0 .36.346q.123.043.253.034a.6.6 0 0 0 .245-.073c4.617-2.558 12.613-1.718 14.159 4.063a.31.31 0 0 0 .254.239.32.32 0 0 0 .233-.059.31.31 0 0 0 .11-.33z"/><path fill="#191919" d="M85.508 131.047a4.3 4.3 0 0 0-2.49-.902 9.8 9.8 0 0 0-3.59.486 8.1 8.1 0 0 0-4.87-2.828 6.25 6.25 0 0 0-5.07 1.072 55 55 0 0 1 .747-8.765c.379-1.95 1.369-3.816 2.013-5.746a17.55 17.55 0 0 0 .786-7.714 8.13 8.13 0 0 0-1.736-4.537 4.7 4.7 0 0 0-3.634-1.636l.112-.91 3.966-.077a.635.635 0 0 0 .627-.605c.035-.582.033-1.519.028-2.104l.915-.406c2.668 2.766 5.404 5.772 6.888 9.298a.64.64 0 0 0 .736.373.64.64 0 0 0 .488-.664c-.426-6.062-.15-11.526-3.997-16.008a42 42 0 0 0-3.592-3.482.5.5 0 0 0-.077-.058c.246-4.314.492-13.524.365-18.496-.077-2.728-.22-4.228-.423-6.383a.7.7 0 0 0-.03-.338c-1.7-4.857-2.829-7.207-5.634-13.564a14.1 14.1 0 0 0-1.767-3.56 2.36 2.36 0 0 0-1.913-.925c-1.769.093-2.443 3.14-2.931 4.421-1.777 4.71-3.258 9.412-4.623 14.254a.62.62 0 0 0 .183.635c.213 3.123.729 14.939 1.348 24.157a.4.4 0 0 0-.199.102 42 42 0 0 0-3.592 3.483c-3.854 4.475-3.572 10.014-4 16.007a.64.64 0 0 0 .49.664.64.64 0 0 0 .735-.372c1.581-3.766 4.58-6.923 7.432-9.86l.057.59a.386.386 0 0 0 .549.41c.438.05.51.055.984.111q-.031 1.037.107 2.062a.56.56 0 0 0 .57.46l3.778-.074c.057.454.117.914.183 1.399a8.2 8.2 0 0 0-4.397 5.309c-1.193 5.257 2.719 9.689 4.092 14.295.555 1.862.444 4.069.583 6.036.061.769.127 1.564.196 2.367-3.16-2.27-7.68-1.211-10.713 1.043-2.927-1.825-7.32-2.106-12.136.687a.374.374 0 0 0-.176.503.4.4 0 0 0 .091.116.36.36 0 0 0 .276.088.4.4 0 0 0 .141-.043 18 18 0 0 1 7.076-1.519 8.15 8.15 0 0 1 4.4 1.43.62.62 0 0 0 .745-.026c3.24-2.668 7.878-2.816 10.361-1.447.187 2.253.362 4.531.402 6.49a.384.384 0 0 0 .385.385.387.387 0 0 0 .386-.385c.04-4.036-.151-6.228-.304-9.758-.106-2.066.082-4.16-.542-6.314-1.322-4.487-5.115-8.938-4.032-13.663a6.88 6.88 0 0 1 3.324-4.251l.023-.012c.14.973.3 2.073.498 3.406l-.034.745a.382.382 0 0 0 .53.38.4.4 0 0 0 .236-.255.4.4 0 0 0 .016-.177c.194-1.715.403-2.995.636-4.674a3.48 3.48 0 0 1 2.87 1.204 7.1 7.1 0 0 1 1.415 3.839 16.4 16.4 0 0 1-.72 7.153c-.655 2-1.619 3.772-2.024 5.914-1.039 5.721-.203 11.113-.554 16.482a.319.319 0 0 0 .525.266.32.32 0 0 0 .113-.217c.212-2.118.281-4.301.344-6.473a7.08 7.08 0 0 1 4.874-.924 13.4 13.4 0 0 1 4.259 1.919 7.7 7.7 0 0 0-2.018 1.154 8 8 0 0 0-.564.516.371.371 0 0 0 .43.604q1.086-.493 2.178-.97a10.3 10.3 0 0 1 4.341-.89q1.152.063 2.29.258a.3.3 0 0 0 .236.009.306.306 0 0 0 .184-.396.3.3 0 0 0-.16-.174M71.382 97.585c-.035.656-.48 1.096-.684 1.089-.847-.043-.769-2.668.055-2.668.496 0 .656.948.63 1.579m-9.824-41.936q-.023-1.098.118-2.187c.108-.805 1.083-6.467 1.1-6.55.14-.78.478-1.51.984-2.12a.385.385 0 0 1 .538-.1.38.38 0 0 1 .101.534 3.6 3.6 0 0 0-.271.95c-.022.098-.871 5.849-1.254 7.503-.164.72-.397 1.423-.696 2.1a.318.318 0 0 1-.623-.13zm-.902 2.413c.063-.403.562-.832.835-.765a.93.93 0 0 1 .41 1.036.65.65 0 0 1-.76.53.66.66 0 0 1-.485-.801m1.686 40.885c-.211.017-.656-.455-.723-1.008-.138-1.148.294-1.552.526-1.564.447-.026.685.82.727 1.267.095.81-.324 1.292-.53 1.305m2.666-.36a1.16 1.16 0 0 1-.765-.993c-.11-.656-.014-1.572.48-1.612.749-.05 1.224 2.482.285 2.605m1.793-12.831a.633.633 0 0 0-.884-.099c-1.89 1.46-1.629 4.11-1.433 6.466.078.88.149 1.66.215 2.37a12.3 12.3 0 0 0-4.8 1.59 110 110 0 0 0-.425-11.89c-.935-14.03-.86-16.632-1.67-22.238 3.502-.807 13.303-.789 15.252-.776-.053 2.658-.37 20.487-.454 22.68-.196 5.173-.47 7.209-.151 11.07a23 23 0 0 0-4.215-.585c.158-2 .08-4.01-.233-5.99a6.2 6.2 0 0 0-1.202-2.598m.84 11.528c.047-.699.34-1.428.738-1.412.496.02.618.98.54 1.611a1.16 1.16 0 0 1-.728 1.046c-.441-.037-.591-.63-.55-1.245"/><path fill="#191919" d="M51.04 134.208c.518-.194 1.276-.382 1.423-.422a9.7 9.7 0 0 1 3.356-.41c1.146.09 2.275.325 3.362.7.156.046 1.255.338 1.47.404a.31.31 0 0 0 .34-.03.31.31 0 0 0 .102-.327.3.3 0 0 0-.148-.183 7.5 7.5 0 0 0-1.352-.91 10.12 10.12 0 0 0-7.5-.32 6.4 6.4 0 0 0-1.414.852.372.372 0 0 0 .363.649zm69.316-48.651a6.5 6.5 0 0 0-2.713-2.587 14 14 0 0 0-.444-3.076 5.73 5.73 0 0 0-4.387-3.811 4.474 4.474 0 0 0-5.354 5.132 6.9 6.9 0 0 0 .738 2.154c.321.665.74 1.277 1.245 1.816a11.4 11.4 0 0 0-1.26 2.393 5.55 5.55 0 0 0-2.611 2.946.633.633 0 0 0 .298.826l.834.416c-.039 2.682.754 5.12 3.263 6.067-.063.633-.063.802-.082 1.632a.318.318 0 0 0 .508.3.32.32 0 0 0 .125-.21l.447-1.61c1.553.245 4.132-.207 5.926-.64q-.034.886.024 1.772c.022.462.164 1.522.598 1.55.39.026.649-.838.667-1.403a27 27 0 0 0-.06-1.742 4 4 0 0 0-.117-.81 91 91 0 0 0 1.759-3.46c1.223-2.615 2.018-5.135.596-7.655m-11.548-4.869c.005-.624.19-1.234.534-1.755 1.23-2.03 3.634-2.026 1.949-.342a4.8 4.8 0 0 0-.857 1.006 4.3 4.3 0 0 0-.468 1.195c-.487 1.572-1.034.863-1.158-.104m3.461 11.72a2.24 2.24 0 0 1-1.418.295.61.61 0 0 0-.635.618c.04 1.148.012 2.275.149 3.465-2.006-1.066-2.487-2.962-2.378-5.38a.64.64 0 0 0-.35-.598l-.641-.315q.262-.495.615-.93c.919-1.116 1.424-.773 1.609-1.317q.381-1.288.902-2.527c.526.329 1.1.576 1.701.732-.308 1.052-.4 1.58-.676 2.94a.627.627 0 0 0 .435.727c.351.069.68.22.96.442a1.366 1.366 0 0 1-.273 1.848"/></svg>