<svg width="164" height="164" viewBox="0 0 164 164" fill="none" xmlns="http://www.w3.org/2000/svg">
<path d="M120.81 137.432C117.448 137.208 114.323 136.623 110.893 136.415C106.801 136.169 103.04 136.341 98.6755 136.392C96.3434 136.357 94.0133 136.549 91.7186 136.966C90.7341 137.119 89.7903 137.468 88.9429 137.991C88.8889 138.033 88.8494 138.09 88.8301 138.155C88.8108 138.22 88.8127 138.289 88.8355 138.353C88.8584 138.417 88.9009 138.472 88.9571 138.51C89.0132 138.549 89.0801 138.568 89.1479 138.565C90.0959 138.95 91.0714 139.264 92.0663 139.503C92.0663 139.438 92.0699 139.373 92.0769 139.309C92.1458 138.785 92.4591 137.921 92.9232 137.992C93.4012 138.057 93.4439 138.976 93.3332 139.511C93.2044 140.185 92.7871 140.466 92.4656 140.35C92.398 141.466 92.3963 142.584 92.4607 143.7C92.4704 143.825 92.5222 143.944 92.6077 144.035C92.6932 144.127 92.8073 144.187 92.9314 144.206C94.719 144.483 96.5123 144.671 98.3114 144.78C102.305 145.026 109.978 144.979 111.527 144.862C112.702 144.786 113.866 144.59 115.001 144.276C115.14 144.236 115.262 144.148 115.344 144.029C115.427 143.909 115.466 143.765 115.454 143.62C115.454 143.574 115.447 143.528 115.444 143.483C114.947 143.305 114.821 141.684 114.788 141.165C114.735 140.392 114.48 137.705 115.258 137.673C115.864 137.649 115.972 139.28 116.014 140.215C117.826 140.091 119.582 139.534 121.134 138.591C121.24 138.514 121.32 138.406 121.363 138.283C121.406 138.159 121.411 138.025 121.375 137.899C121.34 137.772 121.267 137.66 121.166 137.577C121.065 137.493 120.94 137.443 120.81 137.432Z" fill="#191919"/>
<path d="M137.331 59.1778C136.307 53.9864 135.055 48.7884 131.763 44.6343C131.922 44.6138 132.084 44.5884 132.243 44.5597C132.343 44.5413 132.432 44.4839 132.491 44.4001C132.549 44.3162 132.572 44.2126 132.554 44.112C132.545 44.0622 132.527 44.0146 132.499 43.9721C132.472 43.9295 132.437 43.8928 132.395 43.8641C132.353 43.8353 132.306 43.8151 132.257 43.8046C132.207 43.7941 132.156 43.7935 132.107 43.8028C130.419 44.0797 128.687 43.7577 127.212 42.8926C127.144 42.8587 127.068 42.8443 126.993 42.8509C126.917 42.8576 126.845 42.8851 126.784 42.9303C124.427 44.7344 121.398 45.8963 118.589 44.8623C118.506 44.8322 118.416 44.8282 118.33 44.8509C118.245 44.8737 118.169 44.922 118.112 44.9894C114.308 49.4649 106.195 49.9209 101.548 46.4711C101.472 46.4148 101.382 46.3817 101.288 46.3761C101.195 46.3704 101.101 46.3923 101.02 46.4391C96.1027 49.1295 90.6438 50.6801 85.0468 50.9762C87.2291 50.121 89.2278 48.8566 90.9352 47.2509C90.9998 47.1873 91.0483 47.1094 91.077 47.0234C91.1056 46.9375 91.1134 46.846 91.0999 46.7564C91.0864 46.6668 91.0519 46.5817 90.9992 46.5081C90.9465 46.4344 90.8771 46.3742 90.7967 46.3325C90.3448 46.1381 89.9659 45.8058 89.7142 45.3831C89.4625 44.9605 89.3509 44.4691 89.3953 43.9791C89.6126 41.3223 93.1451 39.1149 95.6478 38.2318C97.4628 37.602 99.3794 37.3161 101.299 37.3888C101.397 37.3921 101.494 37.3714 101.581 37.3285C101.669 37.2856 101.745 37.2219 101.802 37.1428C102.872 35.6271 104.344 34.4403 106.052 33.7159C107.761 32.9916 109.637 32.7585 111.47 33.0428C111.6 33.0678 111.733 33.0503 111.852 32.9928C111.97 32.9354 112.066 32.8412 112.126 32.7243C112.187 32.6074 112.207 32.4742 112.185 32.3446C112.163 32.215 112.1 32.096 112.004 32.0055C107.749 27.9432 102.117 25.7735 96.5982 23.8276C76.6033 16.7756 52.0918 16.3099 36.4175 30.7156C36.3377 30.7887 36.278 30.8811 36.2443 30.9839C36.2105 31.0867 36.2037 31.1965 36.2247 31.3027C36.2456 31.4088 36.2935 31.5078 36.3637 31.5901C36.434 31.6724 36.5242 31.7353 36.6258 31.7726C38.2658 32.3762 39.7064 33.4228 40.7873 34.7959C40.9441 34.9738 41.0596 35.1841 41.1255 35.4119C41.1915 35.6396 41.2062 35.8792 41.1686 36.1133C41.1311 36.3474 41.0422 36.5703 40.9084 36.766C40.7746 36.9617 40.5991 37.1254 40.3945 37.2453C40.3095 37.3126 40.2433 37.4006 40.2021 37.501C40.161 37.6013 40.1464 37.7105 40.1598 37.8181C40.1731 37.9257 40.214 38.0281 40.2784 38.1153C40.3427 38.2025 40.4285 38.2717 40.5274 38.3162C41.1376 38.5601 41.6867 38.9355 42.1354 39.4156C42.5841 39.8958 42.9215 40.469 43.1235 41.0944C43.8385 43.6971 41.1284 45.8881 38.5979 46.7868C37.2947 47.2616 35.8986 47.4255 34.5209 47.2657C34.392 47.2491 34.2612 47.2726 34.1461 47.3329C34.0311 47.3933 33.9374 47.4876 33.8778 47.603C33.8181 47.7184 33.7954 47.8494 33.8128 47.9781C33.8302 48.1069 33.8867 48.2272 33.9748 48.3227C37.3687 51.9905 42.2412 53.4813 47.2268 53.2427C43.4507 54.9261 39.0079 54.3177 35.1039 52.8679C33.0859 52.2182 31.2354 51.1325 29.6837 49.688C29.5885 49.5882 29.4636 49.5219 29.3276 49.499C29.1917 49.4761 29.0519 49.4978 28.9293 49.5609C27.7287 50.1523 26.3976 50.4294 25.0607 50.3663C23.7239 50.3032 22.4248 49.9019 21.2853 49.2001C21.2116 49.1546 21.1294 49.1247 21.0437 49.112C20.9581 49.0993 20.8707 49.1042 20.787 49.1264C20.7033 49.1486 20.625 49.1875 20.5569 49.241C20.4887 49.2944 20.4322 49.3611 20.3906 49.4371C16.4268 56.6957 13.7183 67.3303 13.4477 75.7016C13.4444 75.7912 13.4601 75.8803 13.4937 75.9633C13.5274 76.0464 13.5782 76.1213 13.6429 76.1833C13.7075 76.2452 13.7846 76.2928 13.869 76.3229C13.9533 76.3529 14.0431 76.3648 14.1324 76.3577C21.8847 75.7919 32.2216 76.7898 34.6447 84.21C34.6872 84.3385 34.7694 84.4502 34.8795 84.5291C34.9896 84.6079 35.1218 84.6498 35.2572 84.6487C42.5552 84.5576 47.2612 90.4969 48.2723 97.5514C48.2902 97.6796 48.347 97.7992 48.4349 97.8942C48.5229 97.9892 48.6378 98.055 48.7643 98.0827C51.1603 98.6362 51.2735 99.5694 51.9623 99.2233C52.0646 99.1716 52.1509 99.093 52.2119 98.9959C52.2728 98.8988 52.3062 98.7869 52.3083 98.6723C52.4305 93.3316 54.811 89.1603 58.7912 85.7163C58.878 85.6428 58.9431 85.5469 58.9794 85.4391C59.0157 85.3313 59.0218 85.2156 58.9971 85.1046C58.419 82.4232 57.1283 67.2401 57.2939 61.1721C57.3455 60.1143 57.5385 59.0683 57.8679 58.0618C57.8933 57.9798 61.9335 45.9906 63.4972 44.0529C64.2352 43.1427 64.9544 42.768 65.8933 43.8561C66.5376 44.7281 67.029 45.7033 67.3463 46.7401C69.0921 51.6306 71.7062 56.0684 73.3643 60.9859C73.7205 62.1244 73.8867 63.3137 73.8563 64.5062C73.8563 64.5882 73.4094 78.5585 73.0592 85.8672C73.0551 85.9723 73.0782 86.0767 73.1261 86.1704C73.1741 86.264 73.2454 86.3437 73.3331 86.4018C75.2622 87.81 76.9831 89.4832 78.445 91.3718C78.5045 91.4424 78.5795 91.4981 78.6642 91.5347C78.7489 91.5713 78.8409 91.5878 78.9331 91.5828C79.0252 91.5778 79.1149 91.5514 79.1951 91.5059C79.2753 91.4603 79.3439 91.3967 79.3954 91.3202C82.4146 86.8044 88.549 81.9722 93.4936 84.242C93.5635 84.2737 93.6391 84.2909 93.7158 84.2924C93.7926 84.294 93.8688 84.2798 93.9399 84.2509C94.0109 84.222 94.0754 84.1788 94.1292 84.1241C94.183 84.0694 94.2252 84.0043 94.253 83.9328C95.2238 81.26 96.518 78.716 98.107 76.3577C101.053 72.2355 105.141 69.0659 109.867 67.2401C114.592 65.5074 119.718 65.5705 124.009 68.9621C124.058 69.0008 124.114 69.0288 124.174 69.0443C124.234 69.0599 124.296 69.0625 124.357 69.0521C124.418 69.0418 124.477 69.0186 124.528 68.9841C124.58 68.9497 124.623 68.9047 124.656 68.8522C127.82 63.883 131.193 60.6112 137.022 59.6231C137.072 59.6149 137.119 59.5968 137.162 59.5698C137.205 59.5428 137.242 59.5075 137.271 59.466C137.299 59.4244 137.32 59.3775 137.33 59.328C137.34 59.2785 137.341 59.2274 137.331 59.1778Z" fill="#38A1FF"/>
<path d="M70.8586 108.452C70.7488 107.271 70.324 106.142 69.6286 105.181C69.3571 104.817 69.0007 104.525 68.5904 104.331C68.1802 104.137 67.7286 104.046 67.2752 104.066C65.2621 104.153 64.0108 107.013 64.3379 108.912C64.7135 111.063 66.3141 114.057 67.0095 115.713C67.2596 116.275 67.4597 116.857 67.6073 117.454C67.6314 117.54 67.6846 117.615 67.7576 117.666C67.8306 117.717 67.9191 117.741 68.0079 117.734C68.0968 117.727 68.1805 117.69 68.2448 117.628C68.3092 117.567 68.3502 117.485 68.3609 117.396C68.7651 115.046 71.1538 111.502 70.8586 108.452Z" fill="#38A1FF"/>
<path d="M146.288 95.6031C145.537 95.5097 143.254 95.5859 142.434 95.385C141.907 95.2538 141.663 95.057 141.651 94.524C141.652 93.8667 141.702 93.2104 141.798 92.5601C141.822 92.4338 141.807 92.3031 141.754 92.1858C141.702 92.0684 141.614 91.9701 141.504 91.9041C140.985 91.6116 140.496 91.2679 140.045 90.8783C140.965 89.7741 141.812 88.6108 142.58 87.3958C142.64 87.3166 142.666 87.2178 142.655 87.1197C142.643 87.0216 142.594 86.9317 142.518 86.8685C142.442 86.8054 142.345 86.7738 142.246 86.7804C142.148 86.7869 142.055 86.8311 141.988 86.9038C141.029 87.8632 140.512 88.4429 139.046 90.1436C138.872 90.2838 138.746 90.4746 138.685 90.6897C138.576 91.1587 138.894 91.5327 139.251 91.8566C139.634 92.1948 140.046 92.4991 140.481 92.7659C140.399 93.4199 140.367 94.0792 140.384 94.738C140.404 95.1203 140.537 95.488 140.765 95.7956C140.993 96.1032 141.306 96.3371 141.665 96.4682C142.387 96.6962 143.145 96.7912 143.901 96.7487C143.778 97.9243 143.771 99.1092 143.88 100.286C143.874 100.37 143.902 100.453 143.956 100.516C144.011 100.58 144.088 100.62 144.172 100.626C144.214 100.63 144.256 100.626 144.296 100.613C144.336 100.601 144.373 100.58 144.405 100.553C144.437 100.526 144.463 100.493 144.482 100.455C144.501 100.418 144.513 100.377 144.516 100.335L145.125 96.82C145.448 96.8364 145.966 96.8536 146.12 96.8479C146.471 96.8405 147.238 96.5748 147.238 96.2329C147.236 95.9771 146.571 95.64 146.288 95.6031Z" fill="#191919"/>
<path d="M143.021 93.841C143.202 94.1494 143.486 94.3842 143.823 94.5041C144.16 94.6241 144.528 94.6216 144.864 94.497C145.126 94.3955 145.363 94.2381 145.559 94.0356C145.755 93.8331 145.904 93.5904 145.996 93.3244C146.143 92.8742 146.026 91.9944 145.629 91.9878C145.448 91.9878 144.991 92.6504 144.939 92.7332C144.638 93.2162 144.348 93.5532 143.974 93.094C143.412 92.5347 143.356 92.4044 143.096 92.479C142.635 92.611 142.81 93.3547 143.021 93.841Z" fill="#191919"/>
<path d="M152.337 88.3798C152.012 88.2306 151.658 88.1566 151.3 88.1633C151.25 88.1557 151.199 88.158 151.15 88.1702C151.101 88.1823 151.055 88.2041 151.014 88.2341C150.973 88.2641 150.939 88.3019 150.912 88.3453C150.886 88.3886 150.869 88.4367 150.861 88.4868C150.854 88.5369 150.856 88.5879 150.868 88.6371C150.88 88.6863 150.902 88.7326 150.932 88.7733C150.962 88.8141 151 88.8486 151.043 88.8747C151.087 88.9009 151.135 88.9183 151.185 88.9259C151.415 88.9717 151.631 89.0707 151.816 89.2151C152.002 89.3595 152.15 89.5452 152.251 89.7574C152.325 90.0022 152.34 90.2612 152.295 90.513C152.251 90.7649 152.147 91.0026 151.992 91.2067C151.838 91.4108 151.638 91.5754 151.407 91.6873C151.177 91.7991 150.924 91.8548 150.668 91.85C150.17 91.8656 149.297 91.9714 149.291 92.4593C149.291 92.6766 149.706 93.1218 150.588 93.1309C150.588 94.3289 150.593 96.9373 150.67 97.9156C150.723 98.6117 150.893 99.8016 150.916 99.9459C150.914 100.031 150.945 100.113 151.004 100.174C151.062 100.236 151.143 100.272 151.227 100.274C151.312 100.274 151.393 100.242 151.454 100.183C151.515 100.125 151.551 100.046 151.555 99.9615C151.92 97.9115 151.853 98.5535 151.853 92.9152C153.755 91.9058 154.315 89.39 152.337 88.3798Z" fill="#191919"/>
<path d="M142.667 85.8467C142.565 85.0742 142.586 84.2906 142.727 83.5244C142.844 82.9165 143.12 82.3506 143.528 81.8844C144.963 80.2395 147.769 80.2903 149.652 81.3588C150.893 82.055 151.767 83.1038 153.311 83.499C155.249 83.9648 156.725 83.0964 157.247 81.8098C157.284 81.734 157.29 81.647 157.264 81.5668C157.238 81.4867 157.182 81.4196 157.108 81.3793C157.071 81.36 157.031 81.3482 156.989 81.3446C156.948 81.341 156.906 81.3456 156.866 81.3583C156.826 81.3709 156.789 81.3913 156.757 81.4183C156.726 81.4453 156.699 81.4783 156.68 81.5154C156.327 81.9611 155.838 82.2803 155.288 82.4255C154.738 82.5706 154.156 82.5338 153.628 82.3207C152.406 81.9754 151.447 80.9193 150.281 80.2502C147.865 78.8808 144.425 78.93 142.591 81.0792C142.026 81.7196 141.681 82.5243 141.607 83.3752C141.548 84.2612 141.651 85.1506 141.913 85.9992C141.921 86.0506 141.94 86.0997 141.968 86.1437C141.996 86.1876 142.032 86.2255 142.075 86.2549C142.118 86.2843 142.167 86.3048 142.218 86.315C142.269 86.3252 142.322 86.3249 142.373 86.3142C142.423 86.3035 142.472 86.2826 142.514 86.2527C142.557 86.2228 142.593 86.1846 142.621 86.1404C142.648 86.0962 142.666 86.0468 142.674 85.9954C142.682 85.9439 142.68 85.8913 142.667 85.8409V85.8467Z" fill="#191919"/>
<path d="M144.198 85.2965C144.472 83.9271 146.448 83.0005 147.806 83.335C150.666 84.0091 153.175 86.3887 156.686 85.3309C157.2 85.1747 157.685 84.9357 158.122 84.6233C158.642 84.2645 159.094 83.8158 159.456 83.2981C159.509 83.2315 159.532 83.1467 159.522 83.0624C159.512 82.9782 159.469 82.9013 159.403 82.8488C159.336 82.7963 159.251 82.7724 159.167 82.7824C159.083 82.7924 159.006 82.8354 158.953 82.9021C158.199 83.5255 157.307 83.9601 156.351 84.1698C153.391 84.9898 151.103 82.8004 148.092 82.1108C145.864 81.6229 143.491 83.1251 143.436 85.2128C143.426 85.3147 143.457 85.4163 143.521 85.4957C143.586 85.5751 143.679 85.6258 143.781 85.6368C143.881 85.6462 143.981 85.6158 144.059 85.5521C144.137 85.4885 144.187 85.3966 144.198 85.2965Z" fill="#191919"/>
<path d="M147.507 85.5573C148.882 85.1219 150.172 86.2338 151.466 86.9406C154.002 88.292 157.151 88.8127 159.01 86.6176C159.07 86.5614 159.107 86.4839 159.112 86.4013C159.116 86.3188 159.089 86.2376 159.035 86.1748C158.981 86.1119 158.905 86.0724 158.823 86.0645C158.741 86.0565 158.659 86.0808 158.594 86.1321C158.392 86.2491 158.182 86.3495 157.964 86.4322C157.654 86.555 157.333 86.6478 157.005 86.7094C155.307 87.0211 153.553 86.7074 152.067 85.8263C150.664 85.0842 149.083 83.6787 147.183 84.8587C147.135 84.8785 147.092 84.9078 147.055 84.9449C147.019 84.982 146.99 85.0261 146.971 85.0746C146.952 85.123 146.943 85.1748 146.945 85.2268C146.947 85.2788 146.959 85.3299 146.981 85.3771C147.002 85.4243 147.034 85.4666 147.072 85.5014C147.111 85.5362 147.156 85.5629 147.206 85.5797C147.255 85.5965 147.307 85.6032 147.359 85.5994C147.411 85.5955 147.461 85.5812 147.507 85.5573H147.507Z" fill="#191919"/>
<path d="M154.673 90.3896C155.155 90.5777 155.671 90.6663 156.188 90.6499C156.705 90.6336 157.214 90.5127 157.683 90.2945C157.827 90.1961 158.433 89.6385 158.269 89.3523C158.075 89.0096 156.486 89.3646 156.152 89.3761C155.237 89.4163 154.266 88.9776 154.02 89.3958C153.803 89.7582 154.495 90.2879 154.673 90.3896Z" fill="#191919"/>
<path d="M153.687 93.4367C154.429 93.784 155.262 93.8851 156.065 93.7253C156.846 93.5499 157.213 92.9562 157.136 92.7487C156.967 92.3543 155.496 92.5331 155.144 92.5126C154.8 92.4887 154.46 92.4304 154.128 92.3387C153.486 92.2461 153.241 92.2198 153.099 92.4543C152.894 92.8069 153.56 93.3531 153.687 93.4367Z" fill="#191919"/>
<path d="M153.06 95.8138C154.011 96.1054 155.032 96.0667 155.957 95.704C156.044 95.6548 156.739 95.139 156.618 94.8405C156.513 94.5855 155.577 94.5945 155.451 94.6125C154.759 94.7571 154.045 94.7738 153.346 94.6617C153.264 94.6568 152.362 94.6773 152.269 94.9848C152.157 95.3579 152.955 95.7696 153.06 95.8138Z" fill="#191919"/>
<path d="M128.583 109.634C128.297 106.524 125.909 104.347 122.848 102.9C118.365 100.784 112.203 99.6138 104.695 100.286C100.098 100.714 95.4135 101.373 91.8383 104.254C89.0134 106.55 87.3029 109.666 85.4702 112.6C82.4731 117.417 89.1101 122.242 94.1769 124.736C93.1769 126.376 91.6084 127.591 89.7702 128.149C89.6645 128.176 89.5675 128.23 89.4886 128.305C89.4098 128.381 89.3517 128.475 89.3201 128.579C88.4181 131.562 88.6386 135.099 88.7461 138.193C88.7501 138.29 88.7762 138.385 88.8222 138.47C88.8682 138.555 88.9331 138.629 89.0117 138.685C89.5529 139.069 89.744 138.422 93.9129 137.882C99.7193 137.131 110.947 137.241 120.655 138.766C120.752 138.781 120.85 138.773 120.944 138.744C121.037 138.714 121.122 138.663 121.193 138.595C121.263 138.528 121.317 138.444 121.351 138.352C121.384 138.26 121.395 138.162 121.385 138.064C120.879 133.157 120.887 128.21 121.408 123.304C125.313 120.717 128.28 115.171 128.587 111.446C128.635 110.843 128.634 110.237 128.583 109.634Z" fill="#38A1FF"/>
<path d="M97.5411 125.03C99.5091 121.086 102.178 116.967 103.129 111.61C103.703 108.448 103.179 105.612 100.441 103.931C100.368 103.891 100.314 103.824 100.29 103.745C100.266 103.665 100.274 103.58 100.311 103.506C100.349 103.432 100.414 103.376 100.492 103.349C100.571 103.322 100.657 103.327 100.732 103.362C101.526 103.668 102.245 104.141 102.84 104.749C103.435 105.358 103.892 106.087 104.18 106.888C105.284 110.039 103.881 114.689 102.586 117.784C101.356 120.596 99.9137 123.31 98.2717 125.902C98.2122 126.009 98.1171 126.091 98.0031 126.135C97.889 126.179 97.7633 126.181 97.6477 126.142L95.4042 125.235C95.3566 125.217 95.3128 125.191 95.2754 125.157C95.2381 125.123 95.2078 125.082 95.1863 125.036C95.1648 124.99 95.1526 124.94 95.1503 124.89C95.148 124.839 95.1557 124.789 95.1729 124.741C95.1902 124.693 95.2166 124.65 95.2507 124.612C95.2848 124.575 95.326 124.545 95.3718 124.523C95.4177 124.502 95.4673 124.489 95.5179 124.487C95.5684 124.485 95.619 124.493 95.6666 124.51L97.5411 125.03Z" fill="#191919"/>
<path d="M122.522 105.497C123.028 106.165 123.433 106.904 123.724 107.689C124.618 110.152 124.585 112.855 123.631 115.295C122.933 117.055 122.128 118.771 121.223 120.433C121.198 120.467 121.18 120.505 121.169 120.546C121.159 120.587 121.157 120.629 121.164 120.67C121.17 120.712 121.185 120.751 121.207 120.787C121.229 120.823 121.258 120.854 121.292 120.878C121.36 120.928 121.446 120.948 121.53 120.935C121.614 120.922 121.689 120.877 121.739 120.808C123.151 119.374 124.21 117.629 124.83 115.714C126.142 112.014 126.084 107.533 123.074 104.96C123.002 104.887 122.905 104.845 122.803 104.844C122.701 104.843 122.603 104.882 122.529 104.953C122.456 105.024 122.415 105.122 122.413 105.224C122.412 105.326 122.451 105.424 122.522 105.497Z" fill="#191919"/>
<path d="M83.948 116.55C83.4192 117.336 83.0112 118.196 82.7377 119.103C81.3527 123.892 83.0468 129.365 88.1324 129.039C88.217 129.046 88.3006 129.018 88.3647 128.962C88.4288 128.907 88.4683 128.828 88.4744 128.743C88.4805 128.659 88.4527 128.575 88.3972 128.511C88.3417 128.447 88.263 128.408 88.1784 128.401C87.4518 128.234 86.7548 127.958 86.1111 127.581C83.3773 125.991 83.2124 122.475 83.9135 119.406C84.0927 118.557 84.3319 117.721 84.6294 116.905C84.6529 116.86 84.6673 116.811 84.6719 116.761C84.6764 116.711 84.671 116.66 84.656 116.612C84.641 116.564 84.6166 116.519 84.5842 116.48C84.5519 116.441 84.5122 116.409 84.4674 116.386C84.4227 116.362 84.3738 116.348 84.3235 116.343C84.2731 116.339 84.2224 116.344 84.1742 116.359C84.1259 116.374 84.0811 116.398 84.0423 116.431C84.0035 116.463 83.9714 116.503 83.948 116.548V116.55Z" fill="#191919"/>
<path d="M159.879 115.979C159.449 114.375 159.004 112.845 158.617 111.102C157.656 106.67 157.018 103.141 152.62 101.098C150.03 99.8999 147.415 100.535 146.312 100.754C137.905 102.449 134.517 108.614 132.364 116.921C131.962 118.479 128.605 133.757 128.044 136.171C128.022 136.261 128.035 136.355 128.08 136.436C128.124 136.517 128.197 136.579 128.284 136.61C129.192 136.922 130.119 137.178 131.059 137.377C131.776 137.518 131.769 137.178 131.557 136.574C131.49 136.387 131.438 136.195 131.402 136C131.359 135.749 131.32 135.48 131.478 135.321C131.519 135.279 131.551 135.228 131.571 135.173C131.591 135.117 131.599 135.057 131.593 134.998C131.588 134.939 131.57 134.882 131.541 134.831C131.511 134.78 131.471 134.735 131.423 134.701C130.521 134.019 130.748 132.839 131.466 131.974C131.527 131.897 131.562 131.803 131.566 131.705C131.57 131.607 131.544 131.51 131.489 131.428C131.359 131.262 131.264 131.071 131.21 130.867C131.156 130.663 131.144 130.45 131.174 130.242C131.439 129.168 133.783 128.784 135.07 129.317C135.141 129.346 135.217 129.359 135.293 129.356C135.369 129.353 135.443 129.334 135.512 129.3C135.58 129.267 135.64 129.219 135.688 129.16C135.737 129.101 135.772 129.033 135.792 128.959L136.052 128.069C136.089 127.941 136.077 127.804 136.021 127.683C135.964 127.563 135.865 127.467 135.743 127.413C134.623 126.905 135.011 126.06 136.112 125.822C136.874 125.761 137.64 125.868 138.356 126.134C139.072 126.4 139.722 126.818 140.26 127.361C140.359 127.467 140.493 127.535 140.638 127.551C140.783 127.567 140.928 127.53 141.048 127.448C141.422 127.209 141.809 126.99 142.206 126.792C142.325 126.727 142.419 126.625 142.473 126.501C142.528 126.377 142.541 126.239 142.509 126.107C142.272 125.128 142.149 124.101 141.984 123.067C146.367 121.94 150.68 120.558 154.901 118.928C155.196 120.246 155.334 121.3 155.537 122.587C155.56 122.737 155.637 122.874 155.753 122.973C155.869 123.071 156.017 123.124 156.169 123.122C156.322 123.12 156.468 123.063 156.582 122.961C156.695 122.86 156.768 122.721 156.787 122.57C157.005 120.923 157.138 119.266 157.186 117.605L159.504 116.733C159.648 116.675 159.766 116.567 159.835 116.428C159.904 116.289 159.92 116.129 159.879 115.979Z" fill="#38A1FF"/>
<path d="M143.611 103.72C139.52 105.57 138.609 109.908 139.04 114.361C139.213 116.486 139.723 118.57 140.55 120.535C140.561 120.576 140.58 120.614 140.605 120.647C140.631 120.68 140.662 120.708 140.699 120.729C140.735 120.75 140.775 120.764 140.817 120.769C140.858 120.774 140.9 120.772 140.941 120.761C140.981 120.75 141.019 120.732 141.052 120.707C141.086 120.682 141.114 120.651 141.135 120.615C141.156 120.578 141.169 120.539 141.175 120.497C141.18 120.456 141.177 120.414 141.166 120.374C141.074 119.755 140.782 117.607 140.709 117.176C140.192 114.783 140.102 112.319 140.444 109.895C140.643 108.788 141.059 107.732 141.668 106.786C142.277 105.841 143.067 105.025 143.992 104.386C144.036 104.361 144.075 104.328 144.106 104.288C144.137 104.248 144.16 104.203 144.173 104.154C144.187 104.105 144.191 104.055 144.184 104.004C144.178 103.954 144.162 103.906 144.137 103.862C144.113 103.818 144.079 103.779 144.04 103.748C144 103.717 143.954 103.694 143.905 103.68C143.857 103.667 143.806 103.663 143.756 103.669C143.706 103.675 143.657 103.691 143.613 103.716L143.611 103.72Z" fill="#191919"/>
<path d="M132.556 130.865C132.638 130.865 134.599 130.712 134.682 130.701C134.825 130.683 135.674 130.426 135.701 130.155C135.753 129.63 134.492 129.452 133.957 129.467C133.214 129.497 131.415 129.727 131.539 130.426C131.591 130.766 132.474 130.865 132.556 130.865Z" fill="#191919"/>
<path d="M132.328 133.868C132.41 133.863 134.403 133.54 134.486 133.527C134.636 133.495 135.47 133.191 135.482 132.912C135.499 132.385 134.213 132.289 133.648 132.358C132.9 132.445 131.074 132.837 131.26 133.527C131.348 133.864 132.246 133.876 132.328 133.868Z" fill="#191919"/>
<path d="M132.847 136.224C134.585 136.008 136.345 136.058 138.068 136.372C139.154 136.524 140.486 137.096 141.701 137.362C146.375 138.354 151.528 138.305 153.975 134.18C154.488 133.35 154.875 132.447 155.122 131.503C155.709 128.63 155.873 125.687 155.608 122.767C155.504 121.58 155.337 120.405 155.145 119.198C155.137 119.114 155.095 119.036 155.029 118.983C154.963 118.93 154.879 118.905 154.795 118.914C154.711 118.922 154.634 118.964 154.58 119.03C154.527 119.096 154.502 119.18 154.511 119.264C154.68 122.474 154.636 128.237 153.892 131.199C153.671 132.022 153.331 132.807 152.881 133.531C150.768 137.102 146.022 136.993 141.96 136.146C140.727 135.766 139.475 135.453 138.208 135.208C136.368 134.971 134.5 135.059 132.69 135.471C132.593 135.495 132.51 135.556 132.457 135.64C132.405 135.725 132.387 135.826 132.407 135.924C132.428 136.021 132.485 136.107 132.568 136.163C132.65 136.219 132.751 136.241 132.849 136.224H132.847Z" fill="#191919"/>
<path d="M146.58 125.05C146.46 124.722 145.628 124.769 145.299 124.894C144.88 125.055 144.479 125.259 144.103 125.503C144.016 125.24 143.928 124.979 143.828 124.721C143.625 124.196 143.377 123.699 143.155 123.18C143.14 123.131 143.116 123.086 143.085 123.047C143.053 123.007 143.013 122.975 142.969 122.951C142.925 122.927 142.876 122.912 142.826 122.906C142.775 122.901 142.725 122.906 142.676 122.92C142.628 122.934 142.582 122.958 142.543 122.99C142.504 123.022 142.471 123.061 142.447 123.106C142.423 123.15 142.408 123.199 142.403 123.249C142.397 123.299 142.402 123.35 142.417 123.399C142.542 124.349 142.749 125.288 143.035 126.203C142.038 126.777 141.334 127.105 140.34 127.751C139.135 126.617 137.841 125.766 136.245 126.193C136.202 126.196 136.16 126.207 136.122 126.226C136.084 126.245 136.049 126.272 136.022 126.305C135.994 126.338 135.973 126.376 135.96 126.417C135.948 126.458 135.944 126.501 135.948 126.544C135.953 126.587 135.966 126.628 135.987 126.666C136.007 126.703 136.036 126.736 136.07 126.762C136.104 126.789 136.143 126.808 136.184 126.819C136.226 126.829 136.269 126.832 136.312 126.825C136.532 126.85 136.749 126.899 136.959 126.97C138.047 127.447 139.024 128.146 139.829 129.02C139.935 129.124 140.074 129.187 140.222 129.2C140.37 129.212 140.518 129.172 140.64 129.087C141.057 128.79 145.086 126.401 145.357 126.259C145.533 126.172 146.78 125.57 146.58 125.05Z" fill="#191919"/>
<path d="M146.862 138.22C145.324 138.288 143.783 138.222 142.256 138.024C140.104 137.641 138.25 136.808 135.972 136.641C134.653 136.684 133.34 136.847 132.05 137.129C131.888 137.147 131.74 137.226 131.635 137.35C131.529 137.473 131.476 137.633 131.484 137.795C131.558 139.316 131.711 140.583 131.859 142.188C131.874 142.346 131.947 142.493 132.065 142.599C132.183 142.705 132.336 142.764 132.495 142.762C142.357 142.664 144.91 142.649 145.546 142.615C145.994 142.591 146.02 142.424 146.216 142.021C146.739 141.002 147.131 139.922 147.385 138.806C147.396 138.732 147.39 138.656 147.368 138.584C147.347 138.513 147.31 138.447 147.26 138.391C147.21 138.335 147.149 138.291 147.08 138.261C147.011 138.232 146.937 138.218 146.862 138.22Z" fill="#191919"/>
<path d="M68.6336 63.7026C66.9009 62.1848 62.7829 62.0233 61.5504 64.8416C61.0937 65.8263 61.023 66.9466 61.3521 67.9809C61.6813 69.0153 62.3864 69.8886 63.3282 70.4283C64.1796 70.896 65.1469 71.1105 66.1162 71.0466C69.4019 70.8137 71.019 65.7805 68.6336 63.7026ZM63.5422 68.9966C63.0328 68.4777 62.6925 67.8166 62.5664 67.1005C62.4402 66.3844 62.534 65.6469 62.8354 64.9851C63.6554 63.1615 65.5283 63.2631 67.297 64.1733C66.1006 65.8281 64.6656 67.2836 63.5422 68.9966Z" fill="#191919"/>
<path d="M137.521 59.9568C137.507 59.8737 137.461 59.7993 137.393 59.7495C137.325 59.6997 137.24 59.6785 137.157 59.6903C131.92 60.3767 127.003 63.0999 124.349 67.8083C122.109 66.4489 119.578 65.6418 116.964 65.4534C114.351 65.2651 111.73 65.701 109.318 66.7251C102.338 69.5295 96.4907 76.4716 93.6199 83.4687C88.7647 82.2682 83.8226 84.802 80.6639 88.624C80.631 88.6623 80.6059 88.7067 80.5901 88.7547C80.5743 88.8027 80.5681 88.8533 80.5719 88.9037C80.5756 88.954 80.5893 89.0032 80.612 89.0483C80.6348 89.0934 80.6662 89.1335 80.7045 89.1665C80.7428 89.1994 80.7872 89.2245 80.8352 89.2403C80.8831 89.2561 80.9338 89.2623 80.9841 89.2585C81.0345 89.2548 81.0836 89.2411 81.1287 89.2183C81.1738 89.1956 81.214 89.1642 81.2469 89.1259C84.276 85.7639 88.9353 83.5712 93.2673 84.6397C92.8829 85.8939 92.6478 87.1892 92.567 88.4986C92.5736 88.7577 92.6941 89.8696 93.059 89.8877C93.4239 89.9057 93.715 88.7397 93.7872 88.3772C94.4432 85.0628 94.3874 83.4851 97.574 78.6004C100.608 73.9428 104.911 69.8731 109.792 67.9117C112.044 66.952 114.494 66.5443 116.935 66.7226C119.377 66.9009 121.741 67.66 123.83 68.9367C123.399 69.7607 123.075 70.6368 122.866 71.5434C122.831 71.8124 122.797 72.7652 123.112 72.8456C123.44 72.9276 123.962 71.9436 124.089 71.6271C125.804 67.5853 126.766 65.514 130.435 63.0753C132.501 61.7118 134.82 60.7769 137.254 60.3258C137.338 60.3123 137.414 60.2659 137.464 60.1967C137.514 60.1275 137.535 60.0412 137.521 59.9568Z" fill="#191919"/>
<path d="M48.8299 96.7175C48.5019 89.2776 42.543 82.9735 35.1704 83.6975C32.9744 79.1482 27.9052 75.5476 19.6945 75.5476C19.644 75.5451 19.5935 75.5527 19.5459 75.5699C19.4983 75.5871 19.4545 75.6135 19.4172 75.6477C19.3799 75.6818 19.3496 75.723 19.3283 75.7689C19.3069 75.8147 19.2948 75.8644 19.2927 75.9149C19.2892 76.017 19.326 76.1163 19.3952 76.1914C19.4645 76.2665 19.5605 76.3112 19.6625 76.3159C22.6379 76.5111 25.5489 77.2714 28.2397 78.5561C30.891 79.8037 33.0059 81.9621 34.1995 84.6381C34.255 84.7653 34.3507 84.8708 34.4718 84.9386C34.5929 85.0064 34.7328 85.0328 34.8703 85.0136C41.1506 84.1444 46.0141 88.8972 47.7033 94.8635C47.865 95.4266 47.9955 95.9982 48.0944 96.5756C47.5909 96.5092 47.0803 96.5191 46.5799 96.6052C46.3634 96.656 45.495 96.9569 45.5581 97.3432C45.6114 97.6917 46.5913 97.7753 46.684 97.7827C47.1748 97.7742 47.6654 97.806 48.151 97.8778C48.7512 97.9844 50.3724 98.7093 50.6257 98.3977C50.7971 98.1738 50.4773 97.1578 48.8299 96.7175Z" fill="#191919"/>
<path d="M91.1673 46.3203C88.6048 44.9394 88.7827 42.0965 90.9943 40.0473C93.5937 37.6529 97.1844 36.6033 100.735 36.3024C100.835 36.2962 100.933 36.3288 101.008 36.3935C101.084 36.4581 101.132 36.5497 101.142 36.6489C101.151 36.7481 101.122 36.8472 101.06 36.9252C100.998 37.0033 100.908 37.0543 100.81 37.0674C91.6306 38.1334 87.7577 44.0374 92.3981 45.5487C92.4933 45.5808 92.5789 45.6364 92.647 45.7102C92.7152 45.784 92.7637 45.8737 92.7882 45.9711C92.8127 46.0686 92.8123 46.1706 92.7872 46.2678C92.762 46.3651 92.7128 46.4545 92.6441 46.5278C91.0759 48.2442 89.2157 49.669 87.1501 50.736C91.9209 50.2186 96.5245 48.6804 100.648 46.226C100.759 46.1587 100.887 46.1265 101.017 46.1336C101.146 46.1408 101.27 46.187 101.373 46.2662C105.928 49.7979 113.161 49.0829 116.797 44.4622C116.873 44.3656 116.976 44.2932 117.092 44.2537C117.209 44.2143 117.334 44.2095 117.453 44.24C120.037 44.887 124.057 44.595 126.048 42.8189C126.133 42.7437 126.237 42.6929 126.349 42.672C126.461 42.651 126.576 42.6607 126.683 42.7C131.573 44.5524 137.437 43.1986 140.684 39.1396C140.746 39.0603 140.831 39.0009 140.927 38.9686C141.022 38.9363 141.125 38.9324 141.223 38.9575C144.638 39.8973 148.778 39.4971 151.095 36.7804C151.15 36.7209 151.226 36.6847 151.307 36.6793C151.388 36.6738 151.468 36.6995 151.531 36.7511C151.593 36.8027 151.634 36.8763 151.645 36.9568C151.655 37.0374 151.634 37.1189 151.587 37.1847C149.242 40.1629 145.018 40.8419 141.297 40.0408C139.54 42.1194 137.19 43.6118 134.561 44.3183C131.933 45.0248 129.151 44.9116 126.589 43.994C124.282 45.7898 120.357 46.1424 117.542 45.5594C115.492 47.8548 112.675 49.3229 109.619 49.6877C106.564 50.0525 103.48 49.2889 100.947 47.5405C95.191 50.9541 88.3096 52.3785 81.5134 52.2965C81.3527 52.2928 81.1996 52.2273 81.0859 52.1137C80.9722 52 80.9067 51.8469 80.903 51.6862C80.8993 51.5254 80.9577 51.3695 81.066 51.2507C81.1744 51.1319 81.3243 51.0595 81.4847 51.0484C85.1756 50.6872 88.6128 49.0087 91.1673 46.3203Z" fill="#191919"/>
<path d="M43.1629 53.5462C39.3592 53.0178 35.9087 51.0345 33.5377 48.0136C33.4722 47.9241 33.4317 47.8186 33.4205 47.7082C33.4092 47.5977 33.4277 47.4863 33.4739 47.3854C33.5201 47.2844 33.5924 47.1976 33.6833 47.1339C33.7742 47.0703 33.8805 47.032 33.9912 47.0231C36.7062 46.8074 40.8292 45.042 42.1174 42.7665C42.9374 41.3167 42.4757 39.6939 39.8214 38.0711C39.7663 38.0388 39.7185 37.9956 39.6808 37.9441C39.6432 37.8925 39.6165 37.8338 39.6024 37.7716C39.5884 37.7093 39.5872 37.6448 39.5991 37.5821C39.6109 37.5194 39.6355 37.4598 39.6713 37.4069C40.9833 35.5669 39.5073 33.6349 37.5574 32.523C37.5206 32.5033 37.4881 32.4766 37.4616 32.4443C37.4352 32.412 37.4154 32.3748 37.4033 32.3349C37.3912 32.295 37.3871 32.253 37.3913 32.2115C37.3954 32.17 37.4077 32.1297 37.4274 32.0929C37.4471 32.0562 37.4739 32.0236 37.5061 31.9972C37.5384 31.9708 37.5756 31.9509 37.6155 31.9389C37.6555 31.9268 37.6974 31.9227 37.7389 31.9269C37.7804 31.931 37.8207 31.9433 37.8575 31.963C40.0797 33.0913 41.8107 35.2372 40.6906 37.4988C43.7746 39.4053 44.0813 41.5168 43.1194 43.3208C41.7943 45.8087 38.0354 47.5741 35.2236 48.1088C38.6422 51.8627 44.7971 53.5011 49.4638 51.7619C49.6143 51.707 49.78 51.7107 49.9279 51.7724C50.0758 51.834 50.195 51.9491 50.262 52.0946C50.3289 52.2402 50.3387 52.4056 50.2892 52.5581C50.2398 52.7105 50.1348 52.8387 49.9951 52.9172C43.4351 56.5621 34.8768 54.7376 29.177 50.0784C23.765 52.2391 18.8491 49.4355 16.2333 44.1613C13.6654 44.3019 11.1178 43.6366 8.94671 42.2582C6.77561 40.8799 5.08955 38.8575 4.12432 36.4738C4.088 36.3784 4.09105 36.2725 4.1328 36.1794C4.17455 36.0863 4.25158 36.0136 4.34694 35.9773C4.44231 35.941 4.54819 35.944 4.64131 35.9858C4.73442 36.0275 4.80714 36.1045 4.84345 36.1999C6.58104 40.532 11.8594 43.6291 16.5104 42.9239C16.637 42.9054 16.7661 42.9283 16.8786 42.9892C16.991 43.05 17.0808 43.1457 17.1344 43.2617C19.4878 48.235 23.9757 50.9984 29.0384 48.7689C29.147 48.7211 29.2668 48.7048 29.3842 48.7217C29.5016 48.7387 29.6119 48.7883 29.7026 48.8648C33.4497 52.0473 38.2496 53.7167 43.1629 53.5462Z" fill="#191919"/>
<path d="M144.156 87.3351C144.453 87.3875 144.623 87.8271 144.539 88.3141C144.456 88.8012 144.144 89.1579 143.85 89.1054C143.555 89.053 143.379 88.6134 143.465 88.1264C143.551 87.6393 143.858 87.2834 144.156 87.3351Z" fill="#191919"/>
<path d="M110.664 87.0841C110.926 87.162 111.024 87.6245 110.877 88.1124C110.729 88.6003 110.4 88.9324 110.139 88.8577C109.877 88.7831 109.778 88.3206 109.922 87.8295C110.067 87.3383 110.398 87.0062 110.664 87.0841Z" fill="#191919"/>
<path d="M55.6097 141.914C54.2879 135.754 46.5364 133.991 40.8587 136.635C39.9295 134.694 38.376 133.12 36.4468 132.165C34.5175 131.211 32.3239 130.931 30.2168 131.371C26.403 123.477 19.0541 118.497 8.86399 118.551C8.76524 118.55 8.67006 118.588 8.59924 118.657C8.52842 118.725 8.4877 118.819 8.48597 118.918C8.48466 118.967 8.49306 119.015 8.51067 119.061C8.52828 119.106 8.55475 119.148 8.58855 119.183C8.62234 119.218 8.66279 119.246 8.70755 119.266C8.7523 119.285 8.80046 119.296 8.84923 119.296C17.6519 119.664 25.2271 123.819 29.1082 131.9C27.6924 132.359 26.4016 133.137 25.3362 134.176C25.1779 134.353 24.4711 135.226 24.7212 135.495C24.9672 135.75 26.0856 135.019 26.2308 134.921C29.1426 132.907 31.6682 131.599 35.0942 132.917C36.1924 133.34 37.1932 133.982 38.0357 134.804C38.8783 135.626 39.545 136.61 39.9953 137.698C40.0275 137.778 40.0762 137.85 40.1382 137.909C40.2003 137.969 40.2742 138.015 40.3553 138.044C40.4363 138.073 40.5226 138.084 40.6084 138.078C40.6941 138.071 40.7775 138.046 40.853 138.005C45.4696 135.447 53.4663 136.287 55.0119 142.068C55.0207 142.108 55.0375 142.146 55.0614 142.18C55.0852 142.214 55.1156 142.242 55.1507 142.264C55.1858 142.286 55.2249 142.3 55.2657 142.307C55.3065 142.313 55.3482 142.311 55.3883 142.301C55.4284 142.291 55.466 142.273 55.499 142.248C55.532 142.223 55.5596 142.192 55.5803 142.156C55.6009 142.12 55.6142 142.081 55.6192 142.04C55.6243 141.999 55.6211 141.957 55.6097 141.918V141.914Z" fill="#191919"/>
<path d="M85.5084 131.047C84.7941 130.492 83.923 130.176 83.0189 130.145C81.8019 130.082 80.5838 130.247 79.4273 130.631C78.1934 129.137 76.4661 128.134 74.5573 127.803C73.6847 127.609 72.7807 127.604 71.9062 127.789C71.0316 127.974 70.2068 128.344 69.4873 128.875C69.5035 125.938 69.7536 123.007 70.2351 120.11C70.6139 118.16 71.6037 116.294 72.2482 114.364C73.0819 111.883 73.3503 109.248 73.0338 106.65C72.9307 104.996 72.325 103.413 71.2978 102.113C70.8489 101.591 70.2907 101.174 69.6627 100.891C69.0347 100.608 68.3522 100.467 67.6636 100.477C67.7005 100.188 67.7374 99.8851 67.7759 99.5661L71.7423 99.4899C71.904 99.4878 72.0588 99.4241 72.1752 99.3118C72.2916 99.1995 72.3608 99.0471 72.3687 98.8855C72.404 98.3033 72.4024 97.3661 72.3974 96.7806L73.3117 96.3747C75.98 99.1405 78.7164 102.147 80.1997 105.673C80.2584 105.813 80.3646 105.926 80.4993 105.995C80.6341 106.063 80.7886 106.081 80.9355 106.046C81.0824 106.011 81.2122 105.925 81.3016 105.803C81.391 105.682 81.4344 105.532 81.424 105.382C80.9984 99.3201 81.2731 93.8565 77.4273 89.3743C76.3003 88.1429 75.1007 86.98 73.8349 85.8918C73.8113 85.87 73.7855 85.8508 73.7578 85.8344C74.0038 81.5204 74.2498 72.3101 74.1227 67.3377C74.0456 64.6103 73.9038 63.1097 73.7004 60.9548C73.7192 60.8414 73.7085 60.725 73.6693 60.6169C71.9702 55.7601 70.8411 53.41 68.0359 47.0533C67.6179 45.7888 67.023 44.5898 66.2688 43.4921C66.0442 43.1995 65.7544 42.9635 65.4223 42.8031C65.0903 42.6426 64.7253 42.5621 64.3565 42.5679C62.587 42.6606 61.9129 45.7077 61.425 46.9894C59.6481 51.6986 58.1672 56.4005 56.8019 61.2434C56.7699 61.3557 56.7701 61.4747 56.8024 61.5869C56.8348 61.6991 56.8979 61.8 56.9847 61.8781C57.1979 65.0007 57.7137 76.8169 58.3328 86.0353C58.2582 86.0492 58.1892 86.0846 58.1344 86.137C56.8691 87.2258 55.6696 88.3887 54.5419 89.6195C50.6879 94.0951 50.97 99.6342 50.5428 105.627C50.5324 105.777 50.5758 105.927 50.6652 106.049C50.7546 106.17 50.8844 106.256 51.0313 106.291C51.1782 106.326 51.3328 106.308 51.4675 106.24C51.6022 106.172 51.7084 106.058 51.7671 105.919C53.348 102.153 56.3476 98.9962 59.1987 96.0582L59.2561 96.6494C59.2448 96.7191 59.2528 96.7905 59.2793 96.856C59.3057 96.9215 59.3496 96.9784 59.4061 97.0207C59.4627 97.0629 59.5297 97.0889 59.6 97.0957C59.6703 97.1025 59.7411 97.09 59.8047 97.0594C60.2434 97.1086 60.3156 97.1135 60.7887 97.1701C60.7679 97.8593 60.8038 98.5491 60.8961 99.2324C60.9201 99.3645 60.9907 99.4836 61.0952 99.5679C61.1997 99.6522 61.331 99.6961 61.4652 99.6916L65.2438 99.6178C65.3012 100.072 65.361 100.532 65.4266 101.017C64.3528 101.53 63.4034 102.271 62.6442 103.188C61.885 104.105 61.3342 105.175 61.0298 106.326C59.8367 111.583 63.7489 116.015 65.1216 120.621C65.6775 122.483 65.566 124.69 65.7046 126.657C65.7661 127.426 65.8325 128.221 65.9006 129.024C62.7403 126.754 58.2205 127.813 55.1881 130.067C52.2615 128.242 47.8671 127.961 43.0521 130.754C43.007 130.775 42.9666 130.805 42.9332 130.841C42.8998 130.878 42.8742 130.921 42.8577 130.968C42.8413 131.015 42.8345 131.065 42.8377 131.115C42.8408 131.164 42.8539 131.213 42.8761 131.257C42.8984 131.302 42.9293 131.341 42.9671 131.373C43.0049 131.406 43.0487 131.43 43.0961 131.445C43.1435 131.46 43.1934 131.465 43.2429 131.461C43.2924 131.456 43.3404 131.442 43.3842 131.418C45.616 130.439 48.023 129.922 50.46 129.899C52.0342 129.941 53.5627 130.437 54.8609 131.329C54.9712 131.406 55.1033 131.445 55.2376 131.44C55.3718 131.435 55.5009 131.387 55.6055 131.303C58.8445 128.635 63.4832 128.487 65.9662 129.856C66.1531 132.109 66.3278 134.387 66.368 136.346C66.368 136.448 66.4086 136.546 66.4809 136.618C66.5531 136.69 66.6512 136.731 66.7534 136.731C66.8556 136.731 66.9536 136.69 67.0259 136.618C67.0982 136.546 67.1388 136.448 67.1388 136.346C67.179 132.31 66.9879 130.118 66.8354 126.588C66.7288 124.522 66.9174 122.428 66.2925 120.274C64.9707 115.787 61.1782 111.336 62.2614 106.611C62.5004 105.715 62.918 104.876 63.4891 104.146C64.0602 103.415 64.7731 102.808 65.5849 102.36L65.6078 102.348C65.7472 103.321 65.9088 104.421 66.1064 105.754L66.072 106.499C66.065 106.601 66.0984 106.701 66.1649 106.777C66.2314 106.854 66.3257 106.902 66.427 106.909C66.487 106.912 66.5469 106.902 66.6025 106.879C66.6581 106.857 66.7081 106.822 66.7488 106.778C66.7896 106.734 66.8202 106.681 66.8384 106.624C66.8566 106.567 66.862 106.506 66.8542 106.447C67.0478 104.732 67.2569 103.452 67.4897 101.773C68.0288 101.737 68.5687 101.827 69.0669 102.036C69.565 102.245 70.0076 102.568 70.3597 102.977C71.1977 104.09 71.6899 105.425 71.7751 106.816C72.0681 109.224 71.8224 111.667 71.0559 113.969C70.3999 115.969 69.4364 117.741 69.0313 119.883C67.9924 125.604 68.828 130.996 68.477 136.365C68.4707 136.449 68.4979 136.532 68.5526 136.596C68.6073 136.66 68.6851 136.699 68.7689 136.706C68.8535 136.712 68.9373 136.686 69.0021 136.631C69.0669 136.576 69.1075 136.498 69.115 136.414C69.3274 134.296 69.3962 132.113 69.4594 129.941C70.9191 129.055 72.65 128.727 74.3326 129.017C75.8536 129.403 77.2952 130.052 78.5917 130.936C77.8642 131.216 77.1837 131.605 76.5737 132.09C76.3712 132.254 76.1899 132.428 76.0104 132.606C75.9303 132.663 75.8763 132.75 75.86 132.847C75.8438 132.944 75.8668 133.043 75.9239 133.123C75.9809 133.203 76.0675 133.257 76.1644 133.274C76.2614 133.29 76.3608 133.267 76.4409 133.21C77.1643 132.881 77.89 132.558 78.618 132.24C79.9836 131.633 81.4647 131.329 82.959 131.35C83.7265 131.392 84.491 131.478 85.2485 131.608C85.3229 131.642 85.4079 131.646 85.4848 131.617C85.5618 131.589 85.6244 131.532 85.6589 131.457C85.6934 131.383 85.6969 131.298 85.6687 131.221C85.6404 131.144 85.5828 131.081 85.5084 131.047ZM71.3823 97.585C71.347 98.241 70.9018 98.6805 70.6976 98.674C69.8513 98.6313 69.9292 96.0057 70.7525 96.0057C71.2486 96.0057 71.4085 96.9544 71.3823 97.585ZM61.5579 55.6486C61.5428 54.9179 61.5823 54.1872 61.6759 53.4624C61.7842 52.6572 62.7592 46.9951 62.7764 46.9123C62.9153 46.1324 63.2544 45.402 63.7604 44.7926C63.789 44.7507 63.8256 44.7148 63.8681 44.6871C63.9106 44.6593 63.9581 44.6402 64.008 44.6308C64.0579 44.6215 64.1091 44.622 64.1588 44.6325C64.2085 44.6429 64.2556 44.6631 64.2975 44.6917C64.3396 44.7199 64.3756 44.7562 64.4035 44.7984C64.4314 44.8407 64.4507 44.888 64.4602 44.9378C64.4696 44.9875 64.4691 45.0386 64.4586 45.0882C64.4482 45.1377 64.4279 45.1847 64.3992 45.2264C64.2651 45.5288 64.1737 45.8483 64.1277 46.1759C64.1064 46.2743 63.2569 52.025 62.874 53.6789C62.7101 54.3995 62.477 55.1025 62.1778 55.7781C62.1693 55.819 62.1528 55.8579 62.1293 55.8924C62.1058 55.927 62.0757 55.9566 62.0407 55.9795C61.9701 56.0258 61.884 56.0421 61.8014 56.0249C61.7188 56.0078 61.6463 55.9585 61.6 55.8879C61.5538 55.8173 61.5374 55.7312 61.5546 55.6486H61.5579ZM60.6559 58.0618C60.719 57.6592 61.2184 57.2303 61.4906 57.2968C61.6617 57.4021 61.794 57.56 61.8679 57.7468C61.9418 57.9337 61.9533 58.1394 61.9006 58.3332C61.886 58.4181 61.8547 58.4992 61.8085 58.5718C61.7623 58.6444 61.7021 58.7072 61.6315 58.7564C61.5608 58.8056 61.4811 58.8402 61.397 58.8584C61.3129 58.8766 61.2259 58.8778 61.1413 58.8621C60.9709 58.8202 60.8241 58.7124 60.7331 58.5624C60.6421 58.4123 60.6143 58.2323 60.6559 58.0618ZM62.3418 98.947C62.131 98.9642 61.6858 98.4919 61.6194 97.9392C61.4808 96.7912 61.9129 96.387 62.145 96.3747C62.5919 96.3493 62.8297 97.1947 62.8723 97.6424C62.9666 98.4526 62.5476 98.9339 62.3418 98.947ZM65.0084 98.587C64.7989 98.5126 64.6153 98.3793 64.4796 98.2032C64.3439 98.0271 64.2619 97.8156 64.2434 97.594C64.1335 96.938 64.2286 96.0221 64.7222 95.9819C65.4717 95.9311 65.9465 98.464 65.0084 98.587ZM66.8009 85.7557C66.696 85.6265 66.5445 85.5438 66.3791 85.5254C66.2137 85.507 66.0477 85.5544 65.917 85.6573C64.0269 87.1161 64.2885 89.7671 64.4844 92.123C64.5623 93.0028 64.6329 93.7835 64.6985 94.4936C63.0058 94.6849 61.3714 95.2261 59.899 96.0828C59.9729 92.1147 59.8311 88.1455 59.4742 84.1928C58.5386 70.1634 58.6141 67.5607 57.8039 61.9552C61.3061 61.1483 71.1068 61.1663 73.0559 61.1786C73.0034 63.8371 72.6853 81.6663 72.6024 83.8582C72.4065 89.0316 72.1326 91.0676 72.4507 94.9282C71.0671 94.6024 69.656 94.4066 68.2359 94.3435C68.3937 92.3446 68.3155 90.3341 68.0031 88.3534C67.8107 87.4055 67.399 86.5159 66.8009 85.7557ZM67.6406 97.2841C67.6882 96.5854 67.9817 95.8556 68.3786 95.872C68.8755 95.8917 68.9969 96.8519 68.919 97.4833C68.9134 97.7098 68.8414 97.9296 68.7119 98.1154C68.5825 98.3013 68.4013 98.445 68.1908 98.5288C67.7497 98.4919 67.5996 97.8999 67.6406 97.2841Z" fill="#191919"/>
<path d="M51.0391 134.208C51.5582 134.014 52.3158 133.826 52.4634 133.786C53.5489 133.453 54.685 133.314 55.8189 133.376C56.9647 133.466 58.0944 133.701 59.1809 134.076C59.3367 134.122 60.4363 134.414 60.6503 134.48C60.6858 134.499 60.7248 134.512 60.765 134.516C60.8052 134.52 60.8458 134.517 60.8846 134.505C60.9234 134.494 60.9596 134.475 60.9911 134.45C61.0226 134.424 61.0487 134.393 61.0681 134.357C61.0875 134.322 61.0997 134.283 61.104 134.243C61.1084 134.203 61.1047 134.162 61.0934 134.123C61.082 134.084 61.0631 134.048 61.0377 134.017C61.0123 133.985 60.981 133.959 60.9455 133.94C60.5293 133.588 60.0759 133.283 59.5934 133.03C57.2269 131.966 54.5423 131.852 52.0936 132.71C51.5874 132.931 51.1119 133.218 50.6791 133.562C50.5965 133.612 50.5365 133.692 50.5119 133.785C50.4872 133.878 50.4998 133.978 50.5469 134.062C50.594 134.146 50.672 134.209 50.7645 134.237C50.8569 134.265 50.9566 134.255 51.0424 134.211L51.0391 134.208Z" fill="#191919"/>
<path d="M120.356 85.5573C119.725 84.4474 118.782 83.5476 117.643 82.9702C117.61 81.9316 117.46 80.8999 117.199 79.8944C116.874 78.9256 116.296 78.0613 115.525 77.3912C114.753 76.721 113.817 76.2693 112.812 76.083C112.097 75.9287 111.354 75.9523 110.65 76.1517C109.946 76.3511 109.301 76.7202 108.772 77.2267C108.244 77.7332 107.848 78.3616 107.618 79.0569C107.389 79.7522 107.334 80.493 107.458 81.2146C107.583 81.9685 107.832 82.6964 108.196 83.3687C108.517 84.0335 108.936 84.6458 109.441 85.185C108.927 85.9298 108.504 86.733 108.181 87.5778C106.98 88.2073 106.051 89.2556 105.57 90.524C105.504 90.6735 105.498 90.8427 105.554 90.9964C105.609 91.1501 105.722 91.2767 105.868 91.3498L106.702 91.7655C106.663 94.4485 107.456 96.8856 109.965 97.8335C109.902 98.4657 109.902 98.6346 109.883 99.4645C109.871 99.5483 109.893 99.6335 109.944 99.7012C109.995 99.7689 110.071 99.8137 110.154 99.8257C110.238 99.8376 110.323 99.8158 110.391 99.765C110.459 99.7142 110.504 99.6385 110.516 99.5547L110.963 97.9442C112.516 98.1902 115.095 97.7376 116.889 97.3054C116.866 97.8958 116.875 98.487 116.913 99.0766C116.935 99.5391 117.077 100.599 117.511 100.627C117.901 100.653 118.16 99.7892 118.178 99.2242C118.189 98.9077 118.145 97.7999 118.118 97.4825C118.108 97.2091 118.068 96.9375 118.001 96.6724C118.612 95.5313 119.198 94.3773 119.76 93.2112C120.983 90.597 121.778 88.0771 120.356 85.5573ZM108.808 80.6881C108.813 80.0636 108.998 79.4538 109.342 78.9325C110.572 76.9038 112.976 76.9071 111.291 78.5914C110.96 78.8851 110.672 79.2235 110.434 79.5967C110.218 79.9693 110.061 80.3724 109.966 80.7923C109.479 82.3642 108.932 81.6549 108.808 80.6881ZM112.269 92.4084C111.842 92.6609 111.343 92.7645 110.851 92.7028C110.768 92.6989 110.685 92.7122 110.607 92.7417C110.53 92.7712 110.459 92.8163 110.4 92.8743C110.34 92.9322 110.293 93.0018 110.262 93.0786C110.23 93.1555 110.215 93.238 110.216 93.321C110.256 94.469 110.228 95.5957 110.365 96.7864C108.359 95.7204 107.878 93.8237 107.987 91.4055C107.992 91.2828 107.962 91.1612 107.9 91.0551C107.838 90.9491 107.747 90.8632 107.637 90.8077L106.996 90.4929C107.17 90.1636 107.376 89.8521 107.611 89.563C108.53 88.447 109.035 88.7905 109.22 88.246C109.474 87.3876 109.775 86.5439 110.122 85.7188C110.648 86.048 111.222 86.2949 111.823 86.4511C111.515 87.5031 111.423 88.0312 111.147 89.3908C111.115 89.5446 111.142 89.7049 111.222 89.8397C111.303 89.9746 111.432 90.074 111.582 90.1181C111.933 90.1868 112.262 90.3384 112.542 90.5601C112.739 90.8454 112.82 91.1947 112.769 91.5376C112.719 91.8805 112.54 92.1914 112.269 92.4076V92.4084Z" fill="#191919"/>
</svg>
