<svg xmlns="http://www.w3.org/2000/svg" fill="none" viewBox="0 0 37 36"><path fill="#bcbac7" d="M15.508 24.46q0 2.153-1.507 3.607-1.507 1.453-3.769 1.453-2.152 0-3.66-1.669-1.508-1.668-1.508-4.199 0-1.83.808-4.037a30 30 0 0 1 2.207-4.468 50 50 0 0 1 3.122-4.468 73 73 0 0 1 3.553-4.199l1.454 1.184q-2.422 2.853-4.038 5.76-1.614 2.907-1.938 5.707 2.154.16 3.715 1.614t1.56 3.715m15.45 0q0 2.153-1.508 3.607-1.507 1.453-3.768 1.453-2.153 0-3.66-1.669-1.508-1.668-1.508-4.199 0-1.83.808-4.037a30 30 0 0 1 2.207-4.468 50 50 0 0 1 3.122-4.468 73 73 0 0 1 3.553-4.199l1.4 1.184q-2.422 2.853-4.038 5.76-1.56 2.907-1.884 5.707 2.154.16 3.714 1.614t1.561 3.715"/></svg>