<svg xmlns="http://www.w3.org/2000/svg" fill="none" viewBox="0 0 20 20"><path stroke="#65636d" stroke-linecap="round" stroke-linejoin="round" d="M6.667 6.667h.008m-2.873-4.22L2.448 3.803c-.289.288-.433.433-.536.6q-.137.226-.2.483c-.045.191-.045.395-.045.803v2.374c0 .408 0 .612.046.803q.061.257.2.482c.102.168.246.312.535.6l6.39 6.391c.99.99 1.485 1.485 2.056 1.67a2.5 2.5 0 0 0 1.545 0c.57-.185 1.066-.68 2.056-1.67l1.843-1.843c.99-.99 1.485-1.485 1.67-2.056a2.5 2.5 0 0 0 0-1.545c-.185-.57-.68-1.066-1.67-2.056l-6.39-6.39c-.289-.289-.433-.433-.601-.536a1.7 1.7 0 0 0-.482-.2c-.192-.045-.395-.045-.803-.045H5.688c-.408 0-.612 0-.804.046q-.256.061-.481.2c-.168.102-.313.246-.6.535m3.281 4.22a.417.417 0 1 1-.833 0 .417.417 0 0 1 .833 0"/></svg>