<svg xmlns="http://www.w3.org/2000/svg" fill="none" viewBox="0 0 164 164"><path fill="#38a1ff" d="M79.814 63.248c-.049.214-.475 1.366-.522 1.467a3.98 3.98 0 0 1-2.586 2.214q-.429.174-.88.265a.361.361 0 0 0 0 .722 3.7 3.7 0 0 0 1.13.028c2.206-.328 4.019-2.888 3.504-4.7a.324.324 0 0 0-.646.004"/><path fill="#191919" d="M41.713 141.243c-.492-1.348-3.542-.211-5.54 0 .19-.387-.05-.318-1.321-4.013a210 210 0 0 0-7.85-21.402 119 119 0 0 0-6.27-12.356.37.37 0 0 0-.21-.182.366.366 0 0 0-.459.232.37.37 0 0 0 .021.278l-4.422 1.98a.327.327 0 0 0-.536-.08.33.33 0 0 0-.085.191c-.194 2.132-.205 4.549 1.311 6.035 0 2.905-5.437 16.706-7.185 20.194a36 36 0 0 1-3.883 6.132.58.58 0 0 0-.107.426c.045.387.265.319 2.101 1.672.396.296.809.602 1.186.92a.53.53 0 0 0 .435.119.55.55 0 0 0 .373-.252 74 74 0 0 0 4.814-9.207c1.653-3.761 5.433-13.91 6.09-17.563 1.383 2.965 2.928 5.848 4.346 8.798 4.144 8.634 4.333 12.584 7.15 19.978a.547.547 0 0 0 .754.3 36 36 0 0 0 3.01-1.647.34.34 0 0 0 .241.134c2.018.379 4.116-.386 4.94-.216q-.17.317-.41.585a3.3 3.3 0 0 1-.7.556c-1.307.793-4.548 2.187-5.677 1.148a.35.35 0 0 0-.383-.104.4.4 0 0 0-.12.071.376.376 0 0 0-.036.509 2.98 2.98 0 0 0 2.871.841c1.58-.3 3.08-.931 4.401-1.85.485-.38.873-.87 1.132-1.43a1 1 0 0 0 .018-.797m-30.177 3.892c-.606-1.161-2.674-1.245-3.608-2.68a.39.39 0 0 1 .071-.505.384.384 0 0 1 .52.073c.56.694 1.819.872 2.789 1.415.772.433 1.592 1.343 1.365 2.179-.309 1.074-2.028 1.047-3.126 1.026a6.23 6.23 0 0 1-4.92-2.809 3.06 3.06 0 0 1 .396-3.795.33.33 0 0 1 .219-.125.33.33 0 0 1 .36.413.3.3 0 0 1-.059.115c-1.586 2.414 1.507 5.046 4.024 5.084a5.8 5.8 0 0 0 1.922-.164c.167-.069.16-.005.047-.227m.071.181c-.018 0 0-.027 0-.027.018.009.018.015 0 .027"/><path fill="#38a1ff" d="M145.325 86.4a15.65 15.65 0 0 0-3.521-8.525 11 11 0 0 0-1.67-1.41c-.574 4.306-1.624 8.534-2.174 12.839-.127.997.809 1.813.988 2.802a40 40 0 0 1 4.796-1.348 6.1 6.1 0 0 1 1.545-4.423zm-22.67 1.316c.845-4.273 1.689-8.557 2.46-12.84a24.03 24.03 0 0 0-11.047 9.44 28 28 0 0 0-1.526 3.11 27.5 27.5 0 0 1 3.251 1.857c1.135.664 2.352 1.195 3.503 1.873.61-.568 1.12-1.248 1.706-1.861.492-.514 1.078-.958 1.563-1.476zm-15.235-42.39c.551 1.546 3.003 2.321 4.616 1.882a4.4 4.4 0 0 0 .844-.366.36.36 0 0 0 .212-.177.361.361 0 0 0-.427-.512c-.27.031-.539.01-.791.026a4.22 4.22 0 0 1-3.269-.84s-.433-.257-.682-.425c-.262-.35-.78.095-.503.412m.434-2.686q.318.277.701.457c.607.206 1.246.3 1.886.277a3.42 3.42 0 0 0 2.551-.866.359.359 0 0 0-.36-.619c-.215.073-.449.082-.664.137-.164.034-.306.078-.468.11a6.5 6.5 0 0 1-2.658-.039c-.154-.022-.596-.04-.719-.058a.32.32 0 0 0-.431.164.337.337 0 0 0 .162.437M76.67 59.696c.018.112.018.203.036.315s.035.2.053.302q.289.646.701 1.22a3.27 3.27 0 0 0 1.455 1.384.36.36 0 1 0 .485-.53c-.108-.174-.163-.35-.287-.525-.22-.309-.485-.594-.7-.908-.247-.36-.547-.865-.791-1.204-.108-.126-.234-.206-.341-.328a.336.336 0 0 0-.443-.168.33.33 0 0 0-.197.315.3.3 0 0 0 .029.127m2.317-1.896c.073.492-.064.64.862 1.992a4.17 4.17 0 0 0 1.495 1.562.35.35 0 0 0 .503.026.373.373 0 0 0 .036-.51c-.109-.204-.18-.405-.306-.599-.233-.366-.521-.688-.755-1.04-.364-.547-.643-1.066-.88-1.339-.108-.137-.233-.233-.34-.366a.336.336 0 0 0-.615.274m2.335-2.109c-.053.28-.047.569.018.846a7.9 7.9 0 0 0 1.85 3.075c.144.142.305.256.467.392a.38.38 0 0 0 .521.065.37.37 0 0 0 .054-.506c-.09-.196-.164-.379-.251-.566-.036-.078-.09-.151-.127-.223a19 19 0 0 1-1.886-3.208.33.33 0 0 0-.257-.26.328.328 0 0 0-.389.385m2.767-2.292c-.047.27-.047.545 0 .815.148.604.378 1.186.683 1.729a4.5 4.5 0 0 0 1.67 2.013.353.353 0 0 0 .503.03.37.37 0 0 0 .036-.51c-.126-.219-.213-.443-.341-.656a12.4 12.4 0 0 1-1.545-2.903c-.037-.077-.32-.559-.36-.642a.33.33 0 0 0-.385-.262.33.33 0 0 0-.261.386m5.711 2.344c.438-.068 6.868-.58 8.713-.601.438-.005 3.169.049 3.754.101a.374.374 0 0 0 .431-.293.38.38 0 0 0-.305-.418 11.7 11.7 0 0 0-3.107-.477 37 37 0 0 0-4.674.19c-2.005.183-3.134.115-4.976.86a.33.33 0 0 0 .165.638m-.001 3.009a8.7 8.7 0 0 1 1.654-.154c1.325-.057 2.354-.296 4.867-.42 1.663-.082 3.116-.046 4.007-.075.521-.018 1.041-.053 1.562-.067a.361.361 0 0 0 .054-.721c-.629-.094-1.257-.2-1.886-.246a40 40 0 0 0-7.563.358 8.4 8.4 0 0 0-2.927.714.329.329 0 0 0 .233.615zm14.641-11.51c-.29.34-.526.722-.701 1.132a6.8 6.8 0 0 0-.287 3.068 4.76 4.76 0 0 0 2.245 3.712.36.36 0 0 0 .507-.058.363.363 0 0 0-.058-.507 8.6 8.6 0 0 1-1.041-1.574 5.86 5.86 0 0 1-.522-3.556q.158-.96.431-1.894a.327.327 0 0 0-.376-.479.33.33 0 0 0-.198.156m1.831-.64c-.32.702-.359 1.5-.108 2.23a6.47 6.47 0 0 0 2.587 3.762c.356.197.745.326 1.148.381a.357.357 0 0 0 .461-.24.37.37 0 0 0-.035-.281.37.37 0 0 0-.229-.168 4 4 0 0 1-.772-.551 6.22 6.22 0 0 1-2.103-3.182 7.8 7.8 0 0 1-.305-1.769.334.334 0 0 0-.236-.395.337.337 0 0 0-.408.213m-9.286 18.916q.552.209 1.132.323a16 16 0 0 0 4.329.05q.54-.121 1.042-.352a.385.385 0 0 0 .27-.435.38.38 0 0 0-.45-.267c-.354.025-.285-.022-1.476.04a28 28 0 0 1-3.485-.091 6 6 0 0 0-1.293.075.33.33 0 0 0-.069.657m-1.222-1.934q.63.16 1.276.22a12.7 12.7 0 0 0 4.76-.536q.557-.253 1.024-.647a.37.37 0 0 0 .144-.492.37.37 0 0 0-.503-.131c-.285.11-.796.216-1.006.274-2.837.738-3.025.148-5.677.656a.328.328 0 1 0-.018.656m-8.926 2.662q.491.176 1.006.255 1.611.19 3.18.604c.287.052.556.056.826.097a.363.363 0 0 0 .25-.68 8 8 0 0 0-.718-.406 10.3 10.3 0 0 0-4.13-.632c-.145.029-.27.063-.41.1a.33.33 0 0 0-.004.662m8.154 2.49c.184.06.954.345 1.096.393 3.58 1.129 3.362 1.58 5.822 2.277a.363.363 0 0 0 .306-.656q-.552-.404-1.148-.743a20 20 0 0 0-4.725-1.901 5.2 5.2 0 0 0-1.275-.03.33.33 0 0 0-.353.42.33.33 0 0 0 .281.237zm-11.981-.614a28.1 28.1 0 0 1 9.538 2.978c1.325.675 4.728 2.803 5.317 3.21a.359.359 0 0 0 .577-.326.37.37 0 0 0-.127-.242 21 21 0 0 0-4.33-3.116 27.5 27.5 0 0 0-8.478-3.15 10 10 0 0 0-2.515-.014.34.34 0 0 0-.323.339.33.33 0 0 0 .341.32m-1.635 2.08q1.04.295 2.03.729c4.083 1.66 3.356.944 10.94 5.43a.36.36 0 0 0 .502-.082.37.37 0 0 0-.089-.503 21.4 21.4 0 0 0-4.674-3.162c-2.138-1.159-6.224-3.02-8.64-3.07a.33.33 0 0 0-.07.658"/><path fill="#191919" d="M91.472 42.916c-.401.062-.787.118-1.186.22a.575.575 0 0 1-.701-.608c.133-1.183.834-2.418.72-3.411l-.126-1.817a.54.54 0 0 1 .269-.508c.398-.239.593.073 1.059.225.62.177 1.096-.1 1.742-.033a1.5 1.5 0 0 1 1.313 1.045c.32 1.028-.497 1.985 1.508 1.993a.534.534 0 0 1 .521.41c.332 1.466.56 2.953.683 4.45a9.8 9.8 0 0 1 3.341 1.039.34.34 0 0 1 .17.186.34.34 0 0 1-.006.252.33.33 0 0 1-.432.164 9.3 9.3 0 0 0-3.52-.714.48.48 0 0 1-.467-.42c-.144-.946-.512-3.382-.719-4.297a2.02 2.02 0 0 1-2.012-1.312c-.172-.617.086-1.388-.269-1.628-.328-.246-1.12.184-2.012-.03l.072.879a8 8 0 0 1-.557 2.887c.27-.043.54-.082.809-.126a.54.54 0 0 1 .574.302c.342.708 1.17 1.476 1.94 1.302a.54.54 0 0 1 .664.438l.323 1.886a.54.54 0 0 1-.25.556 41.4 41.4 0 0 0-5.156 3.667.36.36 0 0 1-.486-.533 29.7 29.7 0 0 1 4.779-3.84l-.198-1.062a3.14 3.14 0 0 1-2.39-1.562"/><path fill="#191919" d="M94.525 32.982q.37-.206.773-.332c1.847-.528 3.172 1.148 3.915 2.914.138.462.35.898.63 1.29.447.492 1.332.686 1.993 1.144a2.85 2.85 0 0 1 1.168 1.822q.023 1.038.164 2.066c.029.06.099.21.164.235 0 0-.018.018 0 .017a.32.32 0 0 1 .395.238c.112.365-.434.656-.952.181-1-.943.017-2.779-1.509-3.697a8.3 8.3 0 0 1-2.21-1.26 4.5 4.5 0 0 1-.844-1.613c-.46-1.124-1.426-2.6-2.604-2.267a2.6 2.6 0 0 0-.738.365c-.574.349-.802-.513-2.174-.11a5.75 5.75 0 0 0-3.072 2.63 15.3 15.3 0 0 0-1.347 3.268c-.328 1.042-.84 2.24-.377 3.216.619 1.303 2.434 2.87-.378 4.182a.364.364 0 0 1-.484-.164.375.375 0 0 1 .164-.484c2.419-1.23-.454-2.106-.539-4.246.02-.97.214-1.93.574-2.83.656-2.157 1.407-4.065 3.126-5.517 1.17-.991 2.762-1.65 4.162-1.048"/><path fill="#191919" d="M99.302 40.436c.246.492.137.738.125 1.414a3.4 3.4 0 0 0 .216 1.499 1.24 1.24 0 0 0 .934.72c.521.089 1.499-.188 1.312-.677-.149-.389-.319-.09-1.023-.332-.726-.217.019-1.998-.557-3-.263-.447-1.078-1.093-1.384-.752-.193.254.009.31.377 1.128m-1.705.18a16.5 16.5 0 0 0 .09 2.91c.382 1.166 1.336 1.432 1.58 1.04.203-.39-.302-.41-.52-1.37-.082-.438-.027-1.44-.109-1.957a1.5 1.5 0 0 0-.43-.91.337.337 0 1 0-.611.287m-7.508 6.92c1.175-.381 2.03-1.968 1.204-3.093-.29-.394-.79-.146-.648.323.29.948-.15 1.526-.861 2.191-.383.357-.076.701.305.578m16.364-13.395c.304.482.545 1 .719 1.542.382 1.192.337 2.87.934 2.86.879-.022.429-3.633-.791-4.98-.24-.268-.959-.859-1.239-.563-.198.211.22.904.377 1.142m1.76-.655c.164.24.581 1.075 1.042.915.475-.182.194-1.066-.125-1.57a4 4 0 0 0-.359-.448c-.351-.28-.866-.427-1.043-.236-.278.352.43 1.254.485 1.34m1.455-.359c.114.26.425 1.083.862.989.486-.105.342-.968.144-1.459-.286-.8-.895-1.007-1.078-.91-.454.244.003 1.216.072 1.38m1.923 1.936c.135 1.415-.035 2.897.538 2.938 1.007.072.542-4.284.234-5.092-.053-.2-.405-1.107-.772-1.011-.519.136-.146 1.647 0 3.165M70.077 68.736a4.8 4.8 0 0 1-2.64 1.292.97.97 0 0 1-1.042-1.265 3.7 3.7 0 0 1 .984-1.426c.733-.82 1.465-1.255 5.946-4.46a.334.334 0 0 1 .468.03.34.34 0 0 1-.037.466 27 27 0 0 1-3.466 3.011 16 16 0 0 0-2.102 1.717c-.375.431-.492.483-.63.797.343-.063.668-.2.953-.4.446-.281.863-.623 1.258-.93a.55.55 0 0 1 .772.099c.459.609 1.764.868 1.958-.027.314-1.445 2.08-1.632 2.982-2.18a.364.364 0 0 1 .503.086c.507.767-2.271 1.267-2.443 2.292-.275 1.637-2.185 1.87-3.464.898"/><path fill="#191919" d="M113.242 39.085a.53.53 0 0 0-.432-.45 8 8 0 0 0-5.478.737.54.54 0 0 0-.288.526c.154 1.938.285 4.801-1.347 5.852-.955.594-2.322.533-3.449.511a.58.58 0 0 0-.43.182 8.7 8.7 0 0 0-1.942 3.905c-1.812.278-3.69.618-5.571.83.246-.562.468-1.095.54-1.29.176-.465-.218-.746-.592-.416a3 3 0 0 0-.887 1.804c-.836.074-1.669.114-2.492.104a9 9 0 0 0 .594-.617c.304-.35.062-.776-.423-.583-.82.328-1.172.89-1.93 1.886l-.88-1.92a.562.562 0 0 0-.826-.22c-1.308.952-2.062 1.757-3.198 2.654a104 104 0 0 0-9.557 8.586.57.57 0 0 0-.125.597 7.84 7.84 0 0 0 2.209 3.136.55.55 0 0 0 .683.017c3.153-2.357 7.298-4.871 10.76-7.125a5.68 5.68 0 0 0 2.317 3.425c0 .11-.017.842.036 2.05a37.8 37.8 0 0 0-12.956 9.02.55.55 0 0 0 .36.927c2.816.2 5.513 1.217 7.76 2.927a12.1 12.1 0 0 1 3.072 2.893.52.52 0 0 0 .682.18c3.27-1.721 7.527-3.033 10.616-5.411 4.742-3.671 5.207-8.985 2.372-14.32a13.4 13.4 0 0 0 1.059-3.28 12.2 12.2 0 0 0 5.084-1.318c5.73-3.065 5.561-9.341 4.659-15.8m-9.898 26.076a8.82 8.82 0 0 1-3.844 7.888c-2.946 2.214-6.934 3.45-10.113 5.013a18.3 18.3 0 0 0-6.97-4.967 14.6 14.6 0 0 0-3.233-.855A35.75 35.75 0 0 1 91.29 64.16a.56.56 0 0 0 .36-.529c-.011-.6-.024-.52-.043-2.145.17.045.44.11.65.15a25 25 0 0 0-.752 5.568c0 .662.036 1.312.072 1.968a.359.359 0 1 0 .718.025c.423-3.175.296-3.416.719-5.877.252.65.467 1.303.7 1.954.165.492.666 1.729.739 1.948a.335.335 0 0 0 .523.185.34.34 0 0 0 .124-.35 18.4 18.4 0 0 0-1.476-5.265 23.4 23.4 0 0 0 6.717-.656 5 5 0 0 0 1.701-.845 11.8 11.8 0 0 1 1.302 4.864zm9.037-16.727c-.866 3.84-3.58 6.098-7.258 6.806-3.155.596-1.734-.534-2.802 2.726-.558 1.798-.462 1.757-2.245 2.142a26.3 26.3 0 0 1-7.078.583c-.738-.017-1.89.267-3.215-1.804-.918-1.421-.233-2.207-.844-2.552a.55.55 0 0 0-.574.021c-3.732 2.46-7.571 4.725-11.245 7.404a7.2 7.2 0 0 1-1.401-2.075 102 102 0 0 1 9.196-8.237c.835-.666 1.759-1.58 2.604-2.214l1.006 2.187a.56.56 0 0 0 .984.055 8 8 0 0 1 .7-1.01c3.384.149 6.875-.59 10.186-1.086.639-.092.339-.73 1.113-2.46a6.6 6.6 0 0 1 .97-1.558q1.074.045 2.138-.1c3.372-.54 3.779-3.701 3.521-7.086a6.93 6.93 0 0 1 4.095-.574c.382 2.818.777 6.008.149 8.832"/><path fill="#191919" d="M69.592 96.25a102.5 102.5 0 0 1 6.413-13.584 45.3 45.3 0 0 1 4.92-7.89.33.33 0 0 1 .586.175.32.32 0 0 1-.084.24c-1.795 2.343-3.158 5.311-4.526 7.954a112 112 0 0 0-6.463 14.025.546.546 0 0 1-.738.328 16 16 0 0 0-2.084-.73 7.8 7.8 0 0 0-1.706-.399c-.072 0-.126-.009-.164.016-.072.042-.036.11-.018.174.184.395.447.749.772 1.04 1.017.901 3.362 2.608 4.706 2.886.475.091.773.109 1.312-.786 1.023-1.674 5.123-12.382 14.64-21.238a.376.376 0 0 1 .521.016c.536.617-.88.547-5.838 7.38a77 77 0 0 0-5.963 9.617c-2.226 4.319-1.968 4.083-2.407 4.801-.708 1.167-1.399 1.414-2.138 1.349-1.673-.142-4.31-2.111-5.55-3.177-.984-.844-1.74-2.262-.665-2.985.712-.479 1.995.01 2.802.239.55.144 1.288.397 1.672.55"/><path fill="#191919" d="M65.354 97.348c.129.097.616.497.952.708 3.898 2.442 3.514 2.468 5.228 3.258a.357.357 0 0 0 .395-.594q-.452-.496-.984-.902a32 32 0 0 0-4.132-2.68 7 7 0 0 0-1.168-.384.332.332 0 0 0-.475.276.33.33 0 0 0 .184.318"/><path fill="#191919" d="M67.814 98.323c.272-.274.255-.055.504-1.506 0-.344-.032-.199-.073-.43a.367.367 0 0 0-.7-.214 1.5 1.5 0 0 0-.234.269q-.156.347-.197.724c-.164.765-.032.877.053 1.041a.33.33 0 0 0 .27.384.317.317 0 0 0 .377-.268m9.897-24.466a4 4 0 0 0-.772.712 6.5 6.5 0 0 0-1.024 2.23 5.3 5.3 0 0 0 .09 3.427.346.346 0 0 0 .395.31.35.35 0 0 0 .306-.406c.192-3.608.182-3.066 1.509-5.853.263-.344-.245-.758-.504-.42m3.469 21.689v.01c.324-.032-.34-.92-.395-1.103-.431-1.389-.646-1.982-1.114-3.864a.329.329 0 0 1 .63-.192c2.05 5.233 1.838 4.552 1.903 4.83.48 1.536-3.045 2.825-2.55 3.833.143.333 2.578-.206 3.97-.984 1.066-.6 1.394-1.076 1.347-2.214-.04-1.066-1.722-9.144-1.742-9.23a.36.36 0 0 1 .397-.453.36.36 0 0 1 .303.266 56 56 0 0 1 1.832 7.307c.209 1.121.526 2.528.108 3.608-.6 1.546-3.158 2.471-4.778 2.783-.937.177-1.968.284-2.407-.56-.972-1.854 2.09-3.131 2.496-4.03 0-.015.018-.043.018-.056-.001.011-.018.033-.018.049"/><path fill="#191919" d="M79.868 99.679a7.7 7.7 0 0 0 3.034-.785 7.2 7.2 0 0 0 2.788-1.537.359.359 0 0 0-.36-.621c-.173.06-.665.206-.933.318-.593.246-1.17.52-1.779.755-.594.23-1.224.427-1.832.668q-.586.231-1.114.574a.327.327 0 0 0-.154.525.33.33 0 0 0 .35.103"/><path fill="#191919" d="M80.226 97.275a.8.8 0 0 0 0 .208.7.7 0 0 0 .018.19q.31.66.701 1.275.149.205.36.346a.373.373 0 0 0 .6.101.35.35 0 0 0 .064-.395c0-.546.077-.349-.378-1.17-.433-.785-.53-.758-.808-.899-.218-.378-.806-.017-.557.344m12.737-55.073a1.097 1.097 0 0 0 1.994-.812c-.05-.469-.513-.585-.72-.1a.693.693 0 0 1-.825.42c-.45-.192-.66.096-.45.492M14.787 68.523c-.51-.531-.887-.766-1.51-1.388-.32-.298-.042-.565-.269-1.84-.129-.421.542-.599.629-.176q.267.67.41 1.378a10 10 0 0 1 1.922 1.718.55.55 0 0 1-.035.704l-.72.761a4.03 4.03 0 0 1-1.777 4.307l.503 2.546a.34.34 0 0 1-.234.451.36.36 0 0 1-.449-.238 11.8 11.8 0 0 1-.95-2.938.53.53 0 0 1 .27-.569c1.422-.783 1.814-2.008 1.49-3.626-.075-.379.248-.602.72-1.09"/><path fill="#191919" d="M9.348 72.587a2.305 2.305 0 0 1-2.57-2.342 2.5 2.5 0 0 1 1.798-2.18c.656-.216.758-1.344.503-1.998-.125-.32-.635-.795-.683-1.336-.07-.789.646-1.307 1.455-1.368 1.166-.093 2.446.688 4.06-.033a2.6 2.6 0 0 0 1.526-2.2c.043-.213.03-.432-.036-.639-.147-.474.79-.91.79.669a3.46 3.46 0 0 1-1.831 3.116c-1.686.857-3.455.2-4.24.184-.172 0-.61.042-.61.164 0 .15.487.717.61 1.042.477 1.255.128 3.024-1.203 3.456a1.375 1.375 0 0 0-1.045 1.168 1.22 1.22 0 0 0 1.634 1.143.55.55 0 0 1 .738.364l1.455 5.33a.373.373 0 0 1-.234.452.355.355 0 0 1-.45-.238c-.558-1.54-1.228-3.068-1.667-4.754"/><path fill="#191919" d="M9.541 62.539c.778-.502 2.835-.525 3.88-.954 1.307-.537 2.35-1.653 1.976-3.02a.357.357 0 0 0-.637-.187.37.37 0 0 0-.081.265c-.018.26-.104.51-.251.726a2.7 2.7 0 0 1-1.42 1.185c-1.326.533-2.886.102-3.916 1.503a.32.32 0 0 0-.017.467.33.33 0 0 0 .466.015"/><path fill="#191919" d="M5.23 64.064a2.03 2.03 0 0 1-.197-1.632 4.26 4.26 0 0 1 2.21-2.453c1.401-.733 3.756-1.19 4.688-2.39a.86.86 0 0 0 .233-.693.363.363 0 0 1 .701-.189 1.63 1.63 0 0 1-.252 1.363c-1.087 1.69-3.608 2.208-4.85 2.874-.99.531-2.105 1.636-1.545 2.6q.088.157.198.3a.574.574 0 0 1-.126.767c-.991.753-1.237 2.531-1.006 3.746A9.15 9.15 0 0 0 7.8 72.738c.665.74 1.385 1.429 2.156 2.058a.332.332 0 0 1-.395.534 19 19 0 0 1-2.407-1.83c-3.61-3.332-3.717-7.453-1.922-9.436"/><path fill="#191919" d="M12.559 70.414c.27-.399.76-.19.647.294-.422 1.804-2.633 1.394-2.281-.356a.385.385 0 0 1 .323-.348c.18-.011.27.142.34.31.231.542.487.813.97.1"/><path fill="#38a1ff" d="M34.96 92.215a54 54 0 0 1-6.27-3.155c-1.94-1.128-4.46-1.786-5.676-3.738-.846-1.357-.772-3.305-1.581-4.797-3.596-6.636-12.284-4.424-14.514 1.46-1.014 2.675-.775 5.227-.629 7.868a46.7 46.7 0 0 0 4.706 17.561.54.54 0 0 0 .647.276c5.57-1.737 11.316-4.296 16.236-5.735a.37.37 0 0 0 .252-.32c.018-.15-.52-.146-.018-.073 1.175.157 2.367.145 3.539-.035a.42.42 0 0 0 .305-.246c1.36-3.16 1.996-5.342 3.287-8.395a.513.513 0 0 0-.284-.671m-19-12.19c.223-.184.372-.082 1.502.902.497.433.958.902 1.468 1.331.902.759 1.878 1.439 2.798 2.159.586.459.752.704 1.144 1.016a.362.362 0 0 1-.415.593c-.41-.25-.777-.36-1.359-.738-1.34-.87-3.93-2.847-4.815-4.192-.318-.485-.584-.856-.323-1.071m11.706 21.417c-.895-.184-1.834-.339-2.749-.584-3.48-.97-6.743-2.6-9.61-4.798-2.001-1.302-4.605-4.03-5.192-6.25a.33.33 0 1 1 .63-.196c.39.827.925 1.577 1.58 2.214a17 17 0 0 0 3.592 3.3c1.008.65 2.315 1.621 3.45 2.277a48.6 48.6 0 0 0 8.46 3.331.363.363 0 0 1-.161.706"/><path fill="#191919" d="M35.067 95.704c.269.213.42.388.88.716 1.002.725 2.16 1.513 2.605 2.69q.096.22.164.452c0 .11.036.213.036.328a.36.36 0 0 0 .7.164c.77-1.727-1.349-3.665-2.945-4.546a4.5 4.5 0 0 0-1.132-.4.336.336 0 1 0-.308.596m.664 3.413a2.36 2.36 0 0 1 .88 1.686.41.41 0 0 0 .342.388c.708.056.596-2.035-.809-2.595-.556-.222-.66.378-.413.52m-1.671 1.154q.25.593.63 1.111c.115.16.252.297.45.233.396-.129.333-1.27-.558-1.76-.164-.092-.324-.165-.467-.049-.144.117-.11.297-.054.465m-2.227.38c.316.468 1.36 1.526 1.743 1.112.457-.492-1.385-2.083-1.797-1.576-.12.148-.046.312.054.464m100.863-32.18a.9.9 0 0 0 .126.323q.03.071.09.12c.603.563 2.095-.02 1.975-.902.246-.41-.41-.767-.628-.34-.127.082-.156 0-.377.193-.094.082-.261.195-.378.158-.017-.004-.035 0-.053 0-.09-.02-.144.053-.252.02a.33.33 0 0 0-.465-.037.33.33 0 0 0-.038.465m-22.778 34.372c.137.394.632 2.074 1.24 1.833.591-.213-.062-1.849-.395-2.852-.131-.308-.516-1.304-.988-1.142-.51.195-.027 1.669.143 2.161m2.479-.896c.151.527.519 1.976 1.115 1.804.627-.186.01-2.019-.216-2.744-.15-.448-.512-1.244-.902-1.136-.547.152-.147 1.526.003 2.076m2.246-.688c.082.3.42 2.078 1.042 1.924.638-.159.077-2.214-.108-2.856-.101-.35-.41-1.324-.863-1.217-.537.127-.21 1.612-.071 2.149m-2.191-11.335a7.6 7.6 0 0 0-.862 1.312 23.6 23.6 0 0 0-1.293 3.413 18.4 18.4 0 0 0-.881 5.084.363.363 0 0 0 .718.107c.126-.484.29-.963.41-1.468.274-1.115.497-2.282.827-3.415q.49-1.676 1.148-3.294c.566-1.592.419-1.198.502-1.419a.328.328 0 0 0-.569-.32m4.58 3.364a4 4 0 0 0-.503.636 24 24 0 0 0-1.204 3 5 5 0 0 0-.125.881.354.354 0 1 0 .665.246c.143-.23.305-.43.43-.67.234-.46.385-.951.574-1.432.87-2.195.623-1.629.755-2.378a.35.35 0 0 0 .006-.252.325.325 0 0 0-.524-.133.3.3 0 0 0-.074.102m17.46 6.073c-.012.709.14 1.41.443 2.051a4.61 4.61 0 0 0 3.208 2.53c.693.146 1.411.13 2.097-.046a6.45 6.45 0 0 0 4.473-5.094.35.35 0 0 0-.245-.437.353.353 0 0 0-.437.244 9.4 9.4 0 0 1-1.617 2.619 5.8 5.8 0 0 1-2.515 1.608 3.32 3.32 0 0 1-3.018-.684 4.66 4.66 0 0 1-1.722-2.799.333.333 0 1 0-.667.008"/><path fill="#191919" d="M136.865 99.856c.729 1.102 1.436 1.105 1.616.88.229-.286-.698-1.524-.646-1.44-.152-.246-.669-1.366-1.132-1.222-.489.151-.222 1.203.162 1.782m3.376-.214c.226-.205.09-.47-.089-.934-.27-.39-1.026-1.492-1.491-1.234-.728.452.958 2.737 1.58 2.168m.647-1.072c.172.165 1.132 1.32 1.581.903s-.636-1.55-.97-1.872c-.431-.433-1.165-.935-1.437-.588-.334.366.518 1.223.826 1.558m-18.79-9.765c-.703.738-1.968 2.322-2.46 2.915a.53.53 0 0 1-.683.113c-1.936-1.148-4.764-2.895-6.682-3.914a.56.56 0 0 1-.269-.68c2.658-7.357 10.535-13.775 18.627-14.292a.57.57 0 0 1 .593.439c.634 3.12 4.138 3.326 5.264.656a.53.53 0 0 1 .738-.263 17.2 17.2 0 0 1 3.936 2.788 16.16 16.16 0 0 1 4.651 9.967.3.3 0 0 1-.053.244.3.3 0 0 1-.215.128.34.34 0 0 1-.248-.063.33.33 0 0 1-.13-.22 15.38 15.38 0 0 0-7.954-11.63 3.738 3.738 0 0 1-6.952-.91c-7.274.683-14.291 6.314-17.029 13.093 1.827 1.003 4.523 2.658 5.893 3.485a38 38 0 0 1 3.377-3.779.51.51 0 0 1 .862.445c-.548 3.763-1.548 6.688-2.173 10.403a.367.367 0 0 1-.41.302.363.363 0 0 1-.31-.405c.36-2.81 1.061-5.576 1.545-8.364.029-.146.047-.3.082-.458"/><path fill="#191919" d="M137.673 92.84a.334.334 0 0 1-.378.288.337.337 0 0 1-.287-.378c0-.648-.236-.803.486-3.854a.552.552 0 0 1 1.059-.064 7.6 7.6 0 0 1 .683 3.085.36.36 0 0 1-.047.276.355.355 0 0 1-.375.157.37.37 0 0 1-.23-.162.4.4 0 0 1-.049-.135c-.107-.268-.234-.519-.323-.788-.142-.312.094-.077-.539 1.576"/><path fill="#191919" d="M144.535 91.488c.738-2.762 1.908-5.292 4.346-6.755a8.38 8.38 0 0 1 6.736-.805 4.58 4.58 0 0 1 3.054 3.541.55.55 0 0 1-.342.629c-3.298 1.318-7.673 1.827-8.406 3.27a.53.53 0 0 0-.072.45c.152.444 1.303.686 1.922.644 2.542-.18 5.069-1.319 7.329-2.17a.535.535 0 0 1 .655.207q.07.106.083.232c.766 6.375-6.965 10.832-12.792 5.954-1.281.597-2.448.963-3.953 1.51a.36.36 0 0 1-.403-.084.37.37 0 0 1-.063-.407.37.37 0 0 1 .216-.185 41 41 0 0 0 4.095-1.712.42.42 0 0 1 .467.063 7.8 7.8 0 0 0 2.731 1.524c4.573 1.528 8.724-1.897 8.675-5.822-2.566 1-7.35 3.015-9.484 1.316a1.54 1.54 0 0 1-.395-2.026c.972-1.936 5.222-2.397 8.532-3.625-.984-3.06-5.311-3.18-8.011-1.554-2.284 1.374-3.249 3.818-3.936 6.369a.54.54 0 0 1-.342.384c-4.605 1.64-27.678 8.282-28.31 8.461a.33.33 0 0 1-.25-.029.33.33 0 0 1 .07-.605c2.924-.872 26.339-8.259 27.848-8.776"/><path fill="#191919" d="M133.505 100.504a.34.34 0 0 0-.394-.246c-14.451 3.549-18.212 5.587-28.257 8.246a.58.58 0 0 0-.377.316 26 26 0 0 1-1.476 3.134c-2.343 3.798-7.522 4.756-10.473 1.63 1.93-.466 4.106-.725 5.874-1.648 2.789-1.444 2.248-4.925-.808-5.403-2.307-.358-4.639.681-6.826 1.489q.376-.87.88-1.67c2.957-4.633 8.65-4.495 11.497-1.201a.43.43 0 0 0 .484.117c1.293-.547 2.349-.848 4.36-1.506.172.486.586 1.668 1.083 1.53.699-.212-.156-2.349-.431-3.034-.123-.395-.574-1.098-.898-1-.41.134-.217 1.1-.09 1.507l.1.306c-1.482.444-3.211.95-4.16 1.308a7.965 7.965 0 0 0-10.578-1.08 11.4 11.4 0 0 0-3.7 5.446.55.55 0 0 0 .682.702c2.415-.76 5.034-2.195 7.437-1.821 1.984.315 2.296 2.366.467 3.327-1.917.984-4.442 1.168-6.521 1.786a.56.56 0 0 0-.36.36.56.56 0 0 0 .073.502c2.71 3.716 7.8 3.871 11.245.876 1.595-1.394 2.233-3.056 3.053-4.972 9.948-2.685 18.933-6.265 27.862-8.601a.34.34 0 0 0 .252-.4M124.2 77.507c-.15.51-1.165 5.202-1.329 6.56-.16 1.32-.164 1.796.198 1.859.551.094.703-.806 2.065-7.731.09-.455.401-2.206-.054-2.301-.31-.069-.451.157-.88 1.612m15.503.291c-.606 1.58-.564 1.694-1.581 7.518a14 14 0 0 0-.216 2.032.367.367 0 0 0 .719.14c.127-.445.323-.936.449-1.5.252-1.123.94-4.92 1.148-6.31.093-.618.12-1.625.126-1.75a.33.33 0 0 0-.048-.247.33.33 0 0 0-.597.117"/><path fill="#191919" d="M135.517 104.639a6.6 6.6 0 0 1-.306-1.115.38.38 0 0 0-.376-.323 11 11 0 0 1-1.527-.1c-2.745-.357-2.537-.996-3.18-.769-1.394.492-2.712 1.138-4.113 1.624-2.084.738-4.221 1.378-6.323 2.088a.47.47 0 0 0-.27.276c-1.312 4.242-1.785 8.782-2.694 13.005-.827 3.915-4.078 19.598-4.832 23.529a.526.526 0 0 0 .305.598 18.7 18.7 0 0 1 2.875 1.879.55.55 0 0 0 .506.076.56.56 0 0 0 .355-.368c3.473-11.972 7.34-30.267 9.305-36.032 1.529.221 3.071.34 4.616.353 1.182 3.675 6.342 26.857 7.134 33.334a.56.56 0 0 0 .299.414.55.55 0 0 0 .51-.011c.877-.486 1.948-1.084 2.838-1.517a.55.55 0 0 0 .323-.492c-.12-6.518-3.14-30.194-5.445-36.449m-29.765 41.393c.149.029.052.259 2.335.352.093 0 3.387.093 4.653.015.738-.046 1.367-.044 1.761-.771a.35.35 0 0 1 .193-.193.36.36 0 0 1 .273.004c.542.237-.047 1.098-.521 1.452a5.53 5.53 0 0 1-2.802.624 41 41 0 0 1-5.622-.204c-1.77-.4-1.874-1.782-.539-2.387 1.148-.522 3.997-.341 6.143-1.433a.33.33 0 0 1 .471.097.33.33 0 0 1-.013.378.3.3 0 0 1-.098.089 9.14 9.14 0 0 1-4.566 1.581 4.5 4.5 0 0 0-1.668.396"/><path fill="#191919" d="M146.582 145.34c-.984-1.108-4.861-.831-6.128-3.183a.37.37 0 0 1-.051-.27.36.36 0 0 1 .652-.121c1.394 1.947 6.374 1.219 6.763 3.69a.834.834 0 0 1-.558.851c-.606.186-1.227.32-1.855.401-.443.055-.902.082-1.338.092a21 21 0 0 1-4.168-.044c-2.015-.373-2.502-1.346-2.966-3.096a.34.34 0 0 1 .094-.356.33.33 0 0 1 .238-.084.3.3 0 0 1 .224.111.3.3 0 0 1 .06.112c.477 1.104.849 1.766 1.841 2.083 1.369.442 3.304.201 4.659.164a10 10 0 0 0 2.533-.35M11.17 66.956q.033.16.104.301a1 1 0 0 0 .17.24.6.6 0 0 0 .212.14.4.4 0 0 0 .22.017.4.4 0 0 0 .19-.108.6.6 0 0 0 .134-.215 1 1 0 0 0 .055-.289 1.2 1.2 0 0 0-.032-.317 1.2 1.2 0 0 0-.103-.301 1 1 0 0 0-.171-.24.6.6 0 0 0-.212-.14.4.4 0 0 0-.218-.017.4.4 0 0 0-.192.107.6.6 0 0 0-.133.215 1 1 0 0 0-.056.29 1.2 1.2 0 0 0 .033.317m81.001-27.42c0 .143.038.28.105.381s.159.158.254.158.187-.057.254-.158a.7.7 0 0 0 .105-.38.7.7 0 0 0-.105-.381c-.067-.102-.159-.158-.254-.158s-.187.056-.254.158a.7.7 0 0 0-.105.38m41.738 25.861a.48.48 0 0 0 .41-.146.85.85 0 0 0 .238-.476.85.85 0 0 0-.074-.527.48.48 0 0 0-.342-.269.4.4 0 0 0-.212.02.6.6 0 0 0-.198.126.8.8 0 0 0-.153.211.93.93 0 0 0-.088.543q.019.136.077.25a.6.6 0 0 0 .148.181.4.4 0 0 0 .194.088zM35.976 82.82c0-.021-.017-.043-.017-.066a.354.354 0 0 1 .305-.41 3.42 3.42 0 0 1 2.586.306 3.73 3.73 0 0 1 1.672 3.642 3.56 3.56 0 0 1-4.674 2.965c-3.256-.991-2.971-5.822-.036-6.434a.3.3 0 0 1 .164-.003m.234.23a.32.32 0 0 1-.215.41c-1.516.568-1.777 2.829-.935 3.99a2.48 2.48 0 0 0 2.515.79c2.894-.705 2.387-5.453-1.203-5.179a.4.4 0 0 1-.162-.012z"/><path fill="#191919" d="m32.857 72.55-.017-1.128a.55.55 0 0 1 .287-.492c2.235-1.178 5.248-.798 7.598.132a.54.54 0 0 1 .342.533l-.018.697c1.14.52 2.219 1.167 3.215 1.927l.45-.506a.56.56 0 0 1 .61-.138 8.73 8.73 0 0 1 4.455 3.935.57.57 0 0 1-.073.665l-.448.454c.545 1.213.85 2.52.898 3.85.27.031.539.073.79.1a.56.56 0 0 1 .486.429c.5 2.322.358 4.737-.41 6.985a.544.544 0 0 1-.665.34l-.79-.21a10.6 10.6 0 0 1-1.132 2.924c.426.604.666.814.538 1.159a10.05 10.05 0 0 1-4.22 4.725.43.43 0 0 1-.611-.183l-.377-.815c-.72.45-1.51.78-2.336.977a.361.361 0 0 1-.405-.533.36.36 0 0 1 .226-.164q.668-.189 1.293-.492c1.089-.529 1.11-.893 1.49-.812a.42.42 0 0 1 .27.22l.396.794a9.24 9.24 0 0 0 3.198-3.819 8 8 0 0 1-.539-.776.53.53 0 0 1 0-.54q.385-.622.646-1.304c.72-1.771.51-2.252.917-2.49.265-.154.456-.041 1.239.164.512-1.796.604-3.685.27-5.522-.952-.107-1.066-.082-1.222-.271-.322-.323.059-.75-.377-2.542-.473-1.947-1.066-2.191-.647-2.679l.431-.433a7.8 7.8 0 0 0-3.34-2.947l-.54.608a.546.546 0 0 1-.79.038 15.7 15.7 0 0 0-3.718-2.286.56.56 0 0 1-.305-.538l.035-.628c-1.852-.664-4.202-.975-6.017-.197l.036 1.123a.56.56 0 0 1-.342.526 9.4 9.4 0 0 0-3.54 2.147.54.54 0 0 1-.827-.006l-.882-1.079a12.04 12.04 0 0 0-3.936 4.018q.605.616 1.276 1.158a.38.38 0 0 1 .107.526 9.2 9.2 0 0 0-1.186 2.67.332.332 0 1 1-.646-.156c.203-.912.535-1.79.984-2.608-.419-.313-.588-.492-1.364-1.168a.43.43 0 0 1-.108-.498c.865-2.108 2.779-3.786 4.674-5.091a.526.526 0 0 1 .718.112l.808.965a11.4 11.4 0 0 1 3.145-1.85m8.074-20.495a.364.364 0 0 1 .287-.328c3.526-.938 5.3 4.56 1.688 5.775a3.39 3.39 0 0 1-3.413-.651 3.08 3.08 0 0 1 .989-4.959.337.337 0 0 1 .449.163m.018.172c0 .306-.317.185-.79.846a2.5 2.5 0 0 0 .125 2.995 2.28 2.28 0 0 0 2.263.378c2.324-.786 1.04-4.274-1.185-4.008a.376.376 0 0 1-.413-.21"/><path fill="#191919" d="M40.08 44.91c-.015-.06-.104-.688-.127-1.003a.545.545 0 0 1 .328-.545 6.97 6.97 0 0 1 5.838.367.52.52 0 0 1 .27.503q-.071.79-.234 1.568c.75.354.683.337.862.43.072-.1.126-.197.198-.293.25-.337.503-.661.754-.991a.446.446 0 0 1 .557-.134 7.4 7.4 0 0 1 3.445 3.65.4.4 0 0 1-.164.484q-.586.436-1.058.992c.267.488.414 1.032.431 1.588.253-.046.442-.104.862-.214a.39.39 0 0 1 .45.23 7.97 7.97 0 0 1 0 6.204.47.47 0 0 1-.574.262 4 4 0 0 1-.45-.157q-.281.64-.628 1.248l.898.727a.53.53 0 0 1 .09.686 7.86 7.86 0 0 1-4.419 3.521.54.54 0 0 1-.593-.219l-.287-.419q-.571.302-1.186.5.051.195.126.383a.55.55 0 0 1-.377.709 10.3 10.3 0 0 1-5.766.263.56.56 0 0 1-.41-.548l.036-.525a9 9 0 0 1-1.312-.297c-.199.474-.205.604-.45.725a.56.56 0 0 1-.449 0 10.5 10.5 0 0 1-4.4-3.672.55.55 0 0 1 .071-.715c.233-.23.449-.477.682-.709a8.7 8.7 0 0 1-1.023-1.886l-1.06-.042a.56.56 0 0 1-.557-.504c-.129-1.8.023-3.61.45-5.364a.62.62 0 0 1 .232-.347c.219-.136.305-.11 1.222.102q.262-.646.63-1.24c.876-1.403.881-.921.663-1.257a8 8 0 0 1-.41-.574.54.54 0 0 1-.036-.574c.883-1.662 2.723-2.42 4.454-3.044a.56.56 0 0 1 .666.237l.286.512a6.2 6.2 0 0 1 1.468-.617m5.247-.417a6.2 6.2 0 0 0-4.256-.28c.017.104.125.784.164 1.015a.5.5 0 0 1-.09.42c-.193.328-.425.11-1.42.54-.934.4-1.043.728-1.437.639-.28-.063-.319-.207-.682-.854a6.57 6.57 0 0 0-3.251 2.104q.263.37.574.702a.57.57 0 0 1 0 .738 7.1 7.1 0 0 0-1.671 2.746.56.56 0 0 1-.611.381 10 10 0 0 1-.772-.142 14.7 14.7 0 0 0-.342 3.976c.335.01.65.025.988.052.707.057.297.81 1.76 2.706a.56.56 0 0 1-.088.772 7 7 0 0 0-.665.662 9.4 9.4 0 0 0 3.143 2.674q.103-.225.23-.436a.554.554 0 0 1 .7-.229 8.5 8.5 0 0 0 2.03.488.563.563 0 0 1 .467.61l-.036.516a9.04 9.04 0 0 0 4.182-.226 3 3 0 0 1-.09-.439.54.54 0 0 1 .378-.625 7 7 0 0 0 1.85-.79.553.553 0 0 1 .772.164l.341.492a6.95 6.95 0 0 0 3.181-2.555l-.845-.7a.514.514 0 0 1-.107-.641c1.14-1.92.937-2.119 1.312-2.249.273-.107.42.06.755.205.57-1.539.6-3.226.089-4.785a7 7 0 0 1-1.024.174.36.36 0 0 1-.395-.384 3.5 3.5 0 0 0-.342-1.831.363.363 0 0 1-.018-.537c.225-.222.793-.902 1.025-1.066a6.76 6.76 0 0 0-2.659-2.7q-.244.333-.485.674c-.433.64-.426.82-.719.887-.27.063-.328-.076-.934-.394-.305-.15-.629-.274-.952-.402a.51.51 0 0 1-.305-.566q.154-.748.252-1.507zm53.205 37.855c-3.362.294-3.395 5.62.09 5.932 3.666.328 3.974-4.797.862-5.613a.36.36 0 1 0-.234.682c1.356.607 1.699 2.72.719 3.51a1.813 1.813 0 0 1-2.856-1.586 2.31 2.31 0 0 1 1.545-2.276.33.33 0 1 0-.126-.65"/><path fill="#191919" d="M107.154 75.97a13.5 13.5 0 0 0-4.24-1.919.37.37 0 0 1-.252-.445.37.37 0 0 1 .45-.251 13.6 13.6 0 0 1 4.958 2.176.44.44 0 0 1 .072.637l-.719.984a7.2 7.2 0 0 1 1.401 1.694l1.222-.352a.54.54 0 0 1 .593.246c1.203 1.968 1.275 4.052 1.67 6.206a.55.55 0 0 1-.431.628c-.419.094-.847.14-1.276.135a8.9 8.9 0 0 1-1.508 3.867q.638.638 1.365 1.174a.57.57 0 0 1 .198.656 11.7 11.7 0 0 1-4.114 4.896.56.56 0 0 1-.646-.065 7 7 0 0 1-.611-.574 7.45 7.45 0 0 1-5.048 1.387c0 .435.128.61-.09.897a.58.58 0 0 1-.41.196 12.3 12.3 0 0 1-6.806-1.91.55.55 0 0 1-.18-.723l.486-1a10.2 10.2 0 0 1-2.102-2.124l-.683.47a.535.535 0 0 1-.682-.066c-1.523-1.545-2.78-3.034-3.18-5.153a.485.485 0 0 1 .252-.546l.934-.445a9.5 9.5 0 0 1-.144-3.49L86.88 83a.38.38 0 0 1-.324-.403q.148-1.028.486-2.01a.329.329 0 0 1 .629.194 9 9 0 0 0-.324 1.537l.808.132a.403.403 0 0 1 .323.443c-.381 3.436.808 4.055.072 4.438l-.898.464a9.25 9.25 0 0 0 2.569 3.912l.772-.534a.53.53 0 0 1 .755.17 9.2 9.2 0 0 0 2.514 2.558.55.55 0 0 1 .18.676l-.484.984a11.35 11.35 0 0 0 5.173 1.476v-.64a.563.563 0 0 1 .646-.524 6.35 6.35 0 0 0 5.209-1.389.564.564 0 0 1 .773.062q.266.311.574.58a11.5 11.5 0 0 0 3.126-3.736c-.484-.391-.88-.768-1.491-1.353a.55.55 0 0 1-.036-.764 7.66 7.66 0 0 0 1.652-4.187.55.55 0 0 1 .2-.377.54.54 0 0 1 .411-.115q.476.054.952 0c-.299-1.804-.364-3.258-1.222-4.96l-1.239.331a.52.52 0 0 1-.574-.276 6.2 6.2 0 0 0-1.652-2.09.49.49 0 0 1-.054-.677zm-1.564-44.45a4.27 4.27 0 0 1-1.329-2.006 2.3 2.3 0 0 1 .216-1.647c1.01-2.413 5.308-1.384 4.903 1.49a2.6 2.6 0 0 1-.61 1.36.39.39 0 0 0 0 .511.374.374 0 0 0 .521 0 3.2 3.2 0 0 0 1.042-1.666c1.011-3.893-5.175-5.914-6.862-2.137a3.4 3.4 0 0 0-.234 2.398 4.12 4.12 0 0 0 2.012 2.258.33.33 0 0 0 .458-.105.3.3 0 0 0 .045-.122.34.34 0 0 0-.064-.247.3.3 0 0 0-.098-.086"/><path fill="#191919" d="M106.524 17.979c.038-.082-.014.052.342-1.109a.55.55 0 0 1 .503-.388 9.62 9.62 0 0 1 6.107 2.128.54.54 0 0 1 .108.755c-.164.233-.235.387-.449.752a9.6 9.6 0 0 1 1.94 1.944l1.203-.532a.55.55 0 0 1 .683.184 12 12 0 0 1 2.012 6.466.536.536 0 0 1-.449.529l-.754.164a6.7 6.7 0 0 1-.108 2.594l.738.386a.5.5 0 0 1 .233.613 10.94 10.94 0 0 1-3.449 5.175.393.393 0 0 1-.52-.032 34 34 0 0 1-.647-.63q-.134.14-.287.258a.356.356 0 0 1-.587-.304.38.38 0 0 1 .119-.247c.46-.433.37-.574.629-.626a.38.38 0 0 1 .305.082c.276.216.673.566.755.644a10.25 10.25 0 0 0 2.587-4.226l-.701-.345a.51.51 0 0 1-.287-.589 8 8 0 0 0 .215-1.54c.047-1.313-.295-1.537-.072-1.913.193-.26.302-.231 1.186-.427a11.16 11.16 0 0 0-1.563-5.018l-1.239.543a.555.555 0 0 1-.683-.223 7.5 7.5 0 0 0-2.281-2.279.57.57 0 0 1-.198-.698c.123-.271.302-.581.467-.875a8.5 8.5 0 0 0-4.563-1.602c-.131.427-.269.902-.394 1.186a.56.56 0 0 1-.558.342 7.7 7.7 0 0 0-3.179.275.544.544 0 0 1-.682-.29l-.432-.936a9.93 9.93 0 0 0-4.527 2.642q.35.534.755 1.028a.54.54 0 0 1 0 .694 7.8 7.8 0 0 0-1.562 2.723.53.53 0 0 1-.558.389c-.233-.027-.592-.062-.79-.082a13.6 13.6 0 0 0-.719 4.647l1.096.108a.344.344 0 0 1 .324.35q.027.519.18 1.014a.336.336 0 1 1-.648.18c-.14-.436-.187-.759-.215-.845l-1.167-.058a.416.416 0 0 1-.36-.382 14.2 14.2 0 0 1 .7-5.715c.157-.403.649-.353 1.258-.296.33-.856.79-1.654 1.365-2.368-.06-.088-.744-1.048-.808-1.134a.56.56 0 0 1 .054-.717 10.98 10.98 0 0 1 5.873-3.353.57.57 0 0 1 .593.317l.395.888a8.8 8.8 0 0 1 2.711-.221m-1.958 21.761c-.323-.038-1.036-.322-1.005-.634.056-.568 1.497-.43 1.58-.427a.55.55 0 0 1 .522.554v.503c.316.09.831.293.772.618-.041.443-.926.41-1.347.41a.57.57 0 0 1-.522-.574z"/><path fill="#38a1ff" d="M71.838 63.248c.048-.215.474-1.366.52-1.467a3.98 3.98 0 0 1 2.587-2.215 5 5 0 0 1 .88-.264.36.36 0 0 0 0-.722 3.7 3.7 0 0 0-1.131-.029c-2.191.328-4.023 2.86-3.503 4.7a.324.324 0 0 0 .647-.003"/><path fill="#38a1ff" d="M65.99 66.73a11.9 11.9 0 0 1-.134-5.871 10.43 10.43 0 0 1 12.218-7.667 9.7 9.7 0 0 1 2.2.644.38.38 0 0 0 .492-.17.364.364 0 0 0-.18-.482c-7.896-4.005-16.224 2.36-16.032 10.064a9.8 9.8 0 0 0 .808 3.703c.103.397.743.215.628-.22m19.895-6.269c.41 2.78.298 2.347.36 2.788a.36.36 0 1 0 .718 0 5 5 0 0 0-.45-2.962c-.288-.442-.683-.205-.628.174M75.826 73.695c-.132-.027-.75-.194-.984-.235a11.9 11.9 0 0 1-4.356-1.452c-.313-.155-.584-.266-.898-.426a.366.366 0 0 0-.45.574 6.24 6.24 0 0 0 3.1 1.846 9.6 9.6 0 0 0 2.514.492 5 5 0 0 0 1.078-.137.33.33 0 1 0-.004-.662"/><path fill="#38a1ff" d="M77.244 40.797q.036-.813.18-1.614a.444.444 0 0 1 .41-.376c2.565-.074 5.11.474 7.418 1.597a.366.366 0 0 1-.323.656 15.3 15.3 0 0 0-6.665-1.357c-.057.45-.088 1.394-.107 1.64a.476.476 0 0 1-.503.447 45 45 0 0 0-7.831.679.53.53 0 0 1-.557-.333 10 10 0 0 1-.36-1.158A20.35 20.35 0 0 0 60.57 46.1c2.057 2.755 1.394.386-2.371 6.951a.565.565 0 0 1-.7.246l-.739-.282a16.9 16.9 0 0 0-3.034 7.76c.664.37 1.582.481 1.437 1.148-.819 3.363-.549 6.9.773 10.1a.553.553 0 0 1-.396.758l-.79.187a21.7 21.7 0 0 0 4.674 7.308c2.342-1.544.498-.853 5.248 1.886a24.3 24.3 0 0 0 3.951 1.853.425.425 0 0 1 .287.5l-.287 1.782q2.184.446 4.401.668a.34.34 0 0 1 .287.372.327.327 0 0 1-.377.282 37 37 0 0 1-4.885-.628.416.416 0 0 1-.288-.474l.234-1.783a22.4 22.4 0 0 1-7.24-4.055l-1.113.738a.54.54 0 0 1-.665-.062 22.6 22.6 0 0 1-5.479-8.59.55.55 0 0 1 .037-.444c.148-.284.334-.275 1.148-.466A17.6 17.6 0 0 1 54 62.118a9 9 0 0 1-1.148-.556.57.57 0 0 1-.27-.532 17.73 17.73 0 0 1 3.557-9.02.54.54 0 0 1 .61-.19l.72.272a31 31 0 0 1 2.999-4.309 49 49 0 0 1-1.06-1.409.555.555 0 0 1 .054-.69 21.33 21.33 0 0 1 9.664-5.904.547.547 0 0 1 .665.356c.12.396.193.765.341 1.208a41 41 0 0 1 7.111-.547"/><path fill="#191919" d="M142.415 63.14a1.9 1.9 0 0 0-.049-.782 1.9 1.9 0 0 0-.361-.694c1.322-2.102.179-5.428-2.389-5.477-.358-2.636-3.732-3.253-5.354-1.275a2.69 2.69 0 0 0-2.693.791c-3.33-1.344-7.186 2.214-5.946 5.641-2.178 1.24-2.304 4.948.035 5.963-.425 2.341 2.085 5.074 4.312 3.98a1.73 1.73 0 0 0 1.296.642 1.74 1.74 0 0 0 1.334-.56l-.188 2.642a.35.35 0 0 0 .446.391.36.36 0 0 0 .215-.171.4.4 0 0 0 .041-.134c.149-.873.35-2.05.466-3.15a.48.48 0 0 0-.323-.484c-1.148-.435-1.365-1.762-1.148-2.977a.55.55 0 0 0-.485-.632c-.287-.029-.557-.058-.844-.076a13.5 13.5 0 0 1 2.173-3.79c.768-.924 1.904-1.45 2.694-.538a3 3 0 0 1 .593 2.378.565.565 0 0 0 .359.563q.114.042.234.035c.416-.033 1.223.285.827.664a1.62 1.62 0 0 1-1.079.456.56.56 0 0 0-.484.435 8.3 8.3 0 0 1-1.293 3.139c-.258.307-.164 1.68-.109 4.123a.33.33 0 0 0 .094.234.33.33 0 0 0 .468.007.34.34 0 0 0 .103-.234c.034-.62.082-1.514.136-2.28 2.192 1.597 4.823.31 5.002-1.605a2.11 2.11 0 0 0 1.383-2.182c1.766-1.03 2.206-3.757.534-5.043m-12.054-5.912c.803-.44 1.757.128 1.67.502-.101.44-1.148.278-1.581.154-.174-.05-.35-.105-.377-.287s.13-.279.289-.37zm-1.563 1.422c-.264.232-.483.51-.647.82a3.64 3.64 0 0 0-.323 3.085.55.55 0 0 1-.164.584c-.155.16-.267.358-.323.574q-.15.655-.164 1.327a.34.34 0 0 1-.273.382.337.337 0 0 1-.392-.257 2.83 2.83 0 0 1-.216-1.683c.05-.325.18-.633.377-.896-.433-1.67 0-3.866 1.761-4.564a.373.373 0 0 1 .502.135.365.365 0 0 1-.137.493z"/></svg>