<svg xmlns="http://www.w3.org/2000/svg" fill="none" viewBox="0 0 14 18"><path fill="#65636d" d="M6.875 3.75a3.125 3.125 0 1 0 0 6.25 3.125 3.125 0 0 0 0-6.25m0 5a1.875 1.875 0 1 1 0-3.75 1.875 1.875 0 0 1 0 3.75m0-8.75A6.883 6.883 0 0 0 0 6.875c0 2.453 1.134 5.053 3.281 7.52a20 20 0 0 0 3.239 2.992.625.625 0 0 0 .717 0 20 20 0 0 0 3.232-2.992c2.144-2.467 3.281-5.067 3.281-7.52A6.883 6.883 0 0 0 6.875 0m0 16.094C5.584 15.078 1.25 11.348 1.25 6.875a5.625 5.625 0 0 1 11.25 0c0 4.471-4.334 8.203-5.625 9.219"/></svg>