<svg xmlns="http://www.w3.org/2000/svg" fill="none" viewBox="0 0 28 16"><path fill="#fff" fill-rule="evenodd" d="M11.066 1.65a.26.26 0 0 1-.224.055.06.06 0 0 1 .028-.041.7.7 0 0 1 .196-.014m.082 0q2.901-.006 5.801.014.024.016.028.04-2.928.028-5.829-.054" clip-rule="evenodd" opacity=".01"/><path fill="#fff" fill-rule="evenodd" d="M8.43 5.297q-.004.082.056.136a.14.14 0 0 1-.126-.081q-.008-1.812-.042-3.62a.8.8 0 0 0-.28.027.4.4 0 0 0 .224.082q-.014 2.34.028 4.681.034-.244.042-.49.03-.06.098-.054v.027a21 21 0 0 0-.042 1.089q-.024.096-.126.081a.2.2 0 0 1-.14-.081l-.098.081a.13.13 0 0 1-.084-.054q-.029-2.654 0-5.308.173-.217.42-.081.05 1.786.07 3.565" clip-rule="evenodd"/><path fill="#fff" fill-rule="evenodd" d="m7.816 1.677.056 5.526q.286.04.589.027v.054a1.8 1.8 0 0 1-.617 0 281 281 0 0 1-.028-5.607" clip-rule="evenodd" opacity=".273"/><path fill="#fff" fill-rule="evenodd" d="M11.066 1.65h.084q2.901.082 5.829.055.028 0 .028.027v1.77q-.314.04-.645.026v-.054q.281.007.561-.014l.042-.04q.035-.81-.014-1.606h-.056a.06.06 0 0 0-.028-.041q-2.985-.02-5.97-.014h-.055v-.054a.26.26 0 0 0 .224-.055" clip-rule="evenodd" opacity=".67"/><path fill="#fff" fill-rule="evenodd" d="M19.5 1.677q.195.006.392.028a125 125 0 0 0 0 5.24q-.002.157-.098.067a.4.4 0 0 1-.099.11.37.37 0 0 1-.14-.15.3.3 0 0 1-.112-.041.6.6 0 0 1 .028-.136l.042-.028a.3.3 0 0 1 .084.082 41 41 0 0 0-.126-2.205q-.068.006-.098-.054-.25.054-.49 0a1 1 0 0 0 .364-.041.7.7 0 0 0-.364-.014q.104-.046.084-.163h-.084v-.109a1 1 0 0 0 .238-.054q.12.028.238.013a.36.36 0 0 1 .154-.15.12.12 0 0 0-.042-.135l-.042-.082a40 40 0 0 1 0-2.123.2.2 0 0 1 .07-.055" clip-rule="evenodd"/><path fill="#fff" fill-rule="evenodd" d="M8.487 1.569v3.756q-.028 0-.028-.028V1.623H7.87v5.58l-.056-5.526a.17.17 0 0 1 .028-.122q.33-.034.645.014" clip-rule="evenodd" opacity=".585"/><path fill="#fff" fill-rule="evenodd" d="M10.897 1.76q2.985-.007 5.97.013.023.016.027.04a167 167 0 0 0-5.997 0v2.804a37 37 0 0 1 0-2.858" clip-rule="evenodd" opacity=".904"/><path fill="#fff" fill-rule="evenodd" d="M16.896 1.814h.056q.014.789-.028 1.578a.5.5 0 0 1-.267.055l-.21-.014-.042-.04a21 21 0 0 1-.014-1.09H11.46v1.824a.12.12 0 0 1-.07-.082.7.7 0 0 1-.014-.19q.014-.695-.028-1.388a.13.13 0 0 1-.056-.041q.138-.128.252-.272a.23.23 0 0 1 .224.081q2.214.028 4.428 0a1 1 0 0 1 .14-.068.23.23 0 0 1-.056-.19h.28a.13.13 0 0 1-.014.081.6.6 0 0 0-.182.137q.086.12.14.258a3.2 3.2 0 0 0-.014.721.34.34 0 0 0 .07.205.8.8 0 0 1 .224.013.12.12 0 0 0 .07-.081q.06-.72.043-1.443-.294-.03-.589-.054h-5.086a.4.4 0 0 1-.267.027q-.048 1.306-.014 2.613.009.063.043.109.001.045.027.081a.2.2 0 0 1-.112-.027V1.814q3-.054 5.998 0" clip-rule="evenodd"/><path fill="#fff" fill-rule="evenodd" d="M17.006 1.732a.06.06 0 0 1 .042.027q.028.857 0 1.715a.06.06 0 0 1-.042.027z" clip-rule="evenodd" opacity=".035"/><path fill="#fff" fill-rule="evenodd" d="M8.43 5.297a236 236 0 0 0-.07-3.565q-.247-.137-.42.081a251 251 0 0 0 0 5.308.13.13 0 0 0 .084.054l.098-.081a.2.2 0 0 0 .14.081q.102.015.126-.081.008-.551.042-1.089v1.198h-.532q-.014-2.778.028-5.553.226-.006.448.014.027.03.042.068.021 1.782.014 3.565" clip-rule="evenodd" opacity=".997"/><path fill="#fff" fill-rule="evenodd" d="M11.373 3.855q-.048.011-.056.068a.7.7 0 0 0-.028.204q-.056-.05-.084.027a.7.7 0 0 1-.084-.136l-.028.068a.77.77 0 0 1 .056.45q.126.006.252-.014.035-.068.084-.014.155-.119.28.027l.112-.081q.24.026.477.027l.14-.055a.46.46 0 0 1 .224.055.53.53 0 0 1 .336 0l.14-.055a.46.46 0 0 1 .224.055 13 13 0 0 1 1.654 0 .53.53 0 0 1 .448 0q.135-.03.253 0l.14-.055a.46.46 0 0 1 .224.055.5.5 0 0 1 .252 0 .53.53 0 0 1 .448 0 .5.5 0 0 1 .253 0 .49.49 0 0 1 .448 0 .3.3 0 0 1 .252 0l.225-.055q.404.04.812.028-.009.068.056.081a.7.7 0 0 1 .364.014 1 1 0 0 1-.364.04q-3.882-.013-7.762.028a.18.18 0 0 1-.14-.054.24.24 0 0 1-.043-.11 41 41 0 0 1 .014-2.612.4.4 0 0 0 .267-.028q2.538.003 5.086 0 .296.025.588.055.018.723-.041 1.442a.12.12 0 0 1-.07.082.8.8 0 0 0-.225-.013.33.33 0 0 1-.07-.205 3.2 3.2 0 0 1 .014-.72 1.2 1.2 0 0 0-.14-.26.6.6 0 0 1 .182-.136.13.13 0 0 0 .014-.081h-.28q-.014.108.056.19a1 1 0 0 0-.14.068q-2.214.029-4.428 0a.23.23 0 0 0-.224-.081q-.114.144-.252.272a.12.12 0 0 0 .056.04q.042.694.028 1.389" clip-rule="evenodd"/><path fill="#fff" fill-rule="evenodd" d="M8.46 5.298h-.028q.006-1.785-.014-3.566a.3.3 0 0 0-.042-.068 4 4 0 0 0-.449-.014Q7.885 4.425 7.9 7.203h.533V5.978q.038-.09.14-.082 3.712-.027 7.398.055-3.741-.007-7.482.013-.042.63-.028 1.266-.303.013-.589-.027v-5.58h.589z" clip-rule="evenodd" opacity=".927"/><path fill="#fff" fill-rule="evenodd" d="M8.488 1.569q.056 0 .056.054-.042 1.844-.028 3.702h-.028z" clip-rule="evenodd" opacity=".127"/><path fill="#fff" fill-rule="evenodd" d="M19.332 1.569v2.504h-.309a.6.6 0 0 1 .253-.028q-.007-1.224.014-2.45a.06.06 0 0 1 .042-.026" clip-rule="evenodd" opacity=".035"/><path fill="#fff" fill-rule="evenodd" d="M10.842 1.705v.054q.014 1.354-.028 2.695a44 44 0 0 1-.014-2.722.06.06 0 0 1 .042-.027" clip-rule="evenodd" opacity=".097"/><path fill="#fff" fill-rule="evenodd" d="M19.502 1.677q.216-.04.448-.027.015 2.793-.028 5.58h-.532q.006-1.238-.014-2.477a.06.06 0 0 0-.042-.027 654 654 0 0 0-8.436-.027v-.082q.051.03.113.027 4.182-.005 8.35.014a.2.2 0 0 1 .07.095q.075.246 0 .49-.02.98-.013 1.96h.476q.055-2.756 0-5.498a5 5 0 0 0-.392-.028" clip-rule="evenodd" opacity=".986"/><path fill="#fff" fill-rule="evenodd" d="M19.977 1.623q.028 2.817-.056 5.607.042-2.787.028-5.58-.232-.013-.448.027a.2.2 0 0 0-.07.055 40 40 0 0 0 0 2.123l.042.082q.02.117-.084.163V1.596q.296-.01.588.027" clip-rule="evenodd" opacity=".751"/><path fill="#fff" fill-rule="evenodd" d="M19.977 1.569a.32.32 0 0 1 .07.217q.012 2.69.014 5.376a.14.14 0 0 1-.084.136 2.3 2.3 0 0 1-.505 0q-.095-.002-.14-.068V4.726a.06.06 0 0 1 .042.027q.021 1.239.014 2.477h.532q.084-2.79.057-5.607z" clip-rule="evenodd" opacity=".384"/><path fill="#fff" fill-rule="evenodd" d="M20.257 2.222v4.382a42 42 0 0 1 0-4.382" clip-rule="evenodd" opacity=".075"/><path fill="#fff" fill-rule="evenodd" d="M16.306 2.385h.056v1.143a6 6 0 0 1-.056-1.143" clip-rule="evenodd" opacity=".133"/><path fill="#fff" fill-rule="evenodd" d="M10.84 1.76h.057a37 37 0 0 0 0 2.857V4.7a.3.3 0 0 0-.085-.082v-.163q.043-1.34.029-2.695" clip-rule="evenodd" opacity=".604"/><path fill="#fff" fill-rule="evenodd" d="M11.486 2.385h.056v1.66a.3.3 0 0 1 .168.028h-.224z" clip-rule="evenodd" opacity=".076"/><path fill="#fff" fill-rule="evenodd" d="M21.826 3.093v.027h-.589a31 31 0 0 0-.056 2.613h.589v.054h-.645V3.066q.358-.014.7.027" clip-rule="evenodd" opacity=".148"/><path fill="#fff" fill-rule="evenodd" d="M21.239 3.12a38 38 0 0 0-.014 2.504q.182.08.392.082a.4.4 0 0 0 .14-.027q.021-.531.014-1.062V3.12h.056q.028 1.32-.056 2.613h-.588q-.028-1.32.056-2.613" clip-rule="evenodd" opacity=".401"/><path fill="#fff" fill-rule="evenodd" d="M21.744 4.78q.007.41-.014.817a.2.2 0 0 1-.126.082 3 3 0 0 0-.309-.041.08.08 0 0 1-.028-.068q-.006-1.17.014-2.341.213-.02.435 0-.014.669.028 1.334-.105.072-.07.19.028.03.07.027" clip-rule="evenodd"/><path fill="#fff" fill-rule="evenodd" d="M21.24 3.12h.532v1.388a30 30 0 0 1-.042-1.306.5.5 0 0 0-.266-.055 1 1 0 0 0-.21.028q-.036 1.204.013 2.395a.08.08 0 0 0 .028.068q.156.012.309.04a.2.2 0 0 0 .126-.081q.02-.408.014-.817a.26.26 0 0 1 .028-.163q.007.531-.014 1.062a.4.4 0 0 1-.14.027 1 1 0 0 1-.393-.082 38 38 0 0 1 .014-2.504" clip-rule="evenodd" opacity=".969"/><path fill="#fff" fill-rule="evenodd" d="M21.771 4.508v.109a.26.26 0 0 0-.028.163.08.08 0 0 1-.07-.027q-.036-.119.07-.19a16 16 0 0 1-.028-1.334 2.5 2.5 0 0 0-.434 0q-.021 1.17-.014 2.34a34 34 0 0 1-.014-2.395 1 1 0 0 1 .21-.027.5.5 0 0 1 .266.055q.007.66.042 1.306m.588-.735a.4.4 0 0 0 .182.136q.028.285 0 .572l-.042.04q.222.155 0 .314.142.062.028.177a1 1 0 0 1-.336 0 .5.5 0 0 0-.056-.096q.038-.514.014-1.034a.45.45 0 0 1 .21-.109" clip-rule="evenodd"/><path fill="#fff" fill-rule="evenodd" d="M5.74 5.134q.007-.694-.014-1.388a1.9 1.9 0 0 0-.63 0v-.082q.323-.006.644.014l.042.04.014.708q0 .369-.056.708" clip-rule="evenodd" opacity=".148"/><path fill="#fff" fill-rule="evenodd" d="M22.724 3.692a3 3 0 0 0-.532.027h-.084v1.388q.302.014.588-.027.084-.57.056-1.17.042.605.028 1.224-.356.034-.728 0-.018-.375-.028-.748a3.7 3.7 0 0 1 .056-.694q.327-.054.644 0" clip-rule="evenodd" opacity=".416"/><path fill="#fff" fill-rule="evenodd" d="M19.978 1.569v.054a3.6 3.6 0 0 0-.589-.027V4.1q-1.995.027-3.993.027-1.97 0-3.91-.054h.224q3.66-.024 7.315 0h.308V1.569q.322-.055.645 0" clip-rule="evenodd" opacity=".047"/><path fill="#fff" fill-rule="evenodd" d="M22.724 3.692a.44.44 0 0 1 .028.217q.027.6-.056 1.17.015-.632-.028-1.251.007-.04-.028-.055l-.449-.054q.264-.037.533-.027" clip-rule="evenodd" opacity=".599"/><path fill="#fff" fill-rule="evenodd" d="M20.258 6.604h.644V2.25h-.644v-.027q.343-.007.7 0v4.41q-.357.013-.7-.028" clip-rule="evenodd" opacity=".143"/><path fill="#fff" fill-rule="evenodd" d="M16.95 1.813q.048.796.014 1.606l-.042.041q-.28.02-.56.014V2.385a54 54 0 0 0-4.877 0v1.688q1.94.054 3.91.054 1.997 0 3.993-.027l-.084.068q-3.91.027-7.819 0a.06.06 0 0 1-.028-.041V2.303h4.932q-.007.544.014 1.09l.042.04.21.014a.5.5 0 0 0 .267-.055q.042-.789.028-1.579" clip-rule="evenodd" opacity=".741"/><path fill="#fff" fill-rule="evenodd" d="M16.363 2.385h-4.877a54 54 0 0 1 4.877 0" clip-rule="evenodd" opacity=".237"/><path fill="#fff" fill-rule="evenodd" d="M5.74 5.134h-.644V3.746q.315-.052.63 0 .021.694.014 1.388" clip-rule="evenodd" opacity=".592"/><path fill="#fff" fill-rule="evenodd" d="M6.077 3.12a40 40 0 0 0-.014 2.559q.283.039.574.027V3.12a61 61 0 0 1 .028 2.613 2 2 0 0 1-.644-.054q-.028-1.295.056-2.559" clip-rule="evenodd" opacity=".582"/><path fill="#fff" fill-rule="evenodd" d="M6.077 3.12h.56v2.586q-.29.013-.574-.027a40 40 0 0 1 .014-2.559" clip-rule="evenodd" opacity=".984"/><path fill="#fff" fill-rule="evenodd" d="M11.374 3.855a.7.7 0 0 0 .014.19q.016.06.07.082.004.025.028.041 3.909.027 7.819 0l.084-.068q.104-.045.084-.163.068.052.042.136a.36.36 0 0 0-.154.15.7.7 0 0 1-.238-.014 1 1 0 0 1-.239.054v.11h.084q.021.116-.084.162-.065-.013-.056-.081a6 6 0 0 1-.812-.027l-.224.054a.3.3 0 0 0-.253 0 .49.49 0 0 0-.448 0 .5.5 0 0 0-.252 0 .53.53 0 0 0-.449 0 .5.5 0 0 0-.252 0 .46.46 0 0 0-.224-.054l-.14.054a.5.5 0 0 0-.252 0 .53.53 0 0 0-.449 0 13 13 0 0 0-1.653 0 .46.46 0 0 0-.225-.054l-.14.054a.53.53 0 0 0-.336 0 .46.46 0 0 0-.224-.054l-.14.054a5 5 0 0 1-.477-.027l-.112.081q-.124-.146-.28-.027-.049-.055-.084.014a1.2 1.2 0 0 1-.252.013.77.77 0 0 0-.056-.449l.028-.068a.7.7 0 0 0 .084.136q.03-.076.084-.027a.7.7 0 0 1 .028-.204q.008-.056.056-.068" clip-rule="evenodd"/><path fill="#fff" fill-rule="evenodd" d="M7.59 6.604a4.5 4.5 0 0 1-.701.027v-4.41q.36-.012.714.028.036 2.184-.014 4.355" clip-rule="evenodd" opacity=".141"/><path fill="#fff" fill-rule="evenodd" d="M7.562 2.304v4.273h-.617V2.249q.28-.006.56.014a.1.1 0 0 1 .057.04" clip-rule="evenodd" opacity=".812"/><path fill="#fff" fill-rule="evenodd" d="M6.974 2.303q.277-.012.547.028.034 2.105-.014 4.205a1.7 1.7 0 0 1-.519-.014 317 317 0 0 1-.014-4.219" clip-rule="evenodd" opacity=".976"/><path fill="#fff" fill-rule="evenodd" d="M7.562 2.303q.042 2.145.028 4.3-.33.014-.645-.026h.617z" clip-rule="evenodd" opacity=".23"/><path fill="#fff" fill-rule="evenodd" d="M7.254 6.522a.24.24 0 0 1 .182-.136l.014-.082a74 74 0 0 0 0-3.946 1 1 0 0 1-.28 0q-.157-.006-.07.109l.014.354a63 63 0 0 0 0 3.415.33.33 0 0 0 .112.286.2.2 0 0 1-.168-.054.1.1 0 0 0-.042.027q-.029-2.068 0-4.137.228-.04.462-.027.048 2.027.014 4.055-.045.174-.238.136" clip-rule="evenodd"/><path fill="#fff" fill-rule="evenodd" d="M7.256 6.522h-.029a.33.33 0 0 1-.112-.286 63 63 0 0 1 0-3.415l-.014-.354q-.086-.114.07-.11a1 1 0 0 0 .28 0 74 74 0 0 1 0 3.948l-.013.081a.24.24 0 0 0-.183.136" clip-rule="evenodd"/><path fill="#fff" fill-rule="evenodd" d="M20.258 2.249h.644v4.355h-.644z" clip-rule="evenodd" opacity=".504"/><path fill="#fff" fill-rule="evenodd" d="M20.341 2.276a162 162 0 0 0-.028 4.246 80 80 0 0 1-.028-2.123q0-1.075.056-2.123" clip-rule="evenodd" opacity=".934"/><path fill="#fff" fill-rule="evenodd" d="M10.814 4.617q.052.034.084.082 4.225-.014 8.435.027v.027h-2.746q-2.775-.006-5.549.014a.12.12 0 0 1-.056.04.6.6 0 0 0-.154-.08.2.2 0 0 1-.014-.11" clip-rule="evenodd" opacity=".267"/><path fill="#fff" fill-rule="evenodd" d="M16.586 4.753h2.69v.055q-1.275.006-2.55-.014a.4.4 0 0 1-.14-.04" clip-rule="evenodd" opacity=".01"/><path fill="#fff" fill-rule="evenodd" d="M5.152 3.773h.56Q5.72 4.4 5.7 5.025a.3.3 0 0 1-.07.041 4 4 0 0 1-.477.014z" clip-rule="evenodd" opacity=".957"/><path fill="#fff" fill-rule="evenodd" d="M5.236 3.8a1.1 1.1 0 0 1 .448.055q.007.558-.014 1.116a.64.64 0 0 1-.434.068 6 6 0 0 1-.056-.354q0-.412.014-.83a.1.1 0 0 0 .042-.054m17.123-.028h.28q.036.015.028.055v1.224a5 5 0 0 1-.504-.013.17.17 0 0 1-.028-.123.5.5 0 0 1 .056.096q.168.027.336 0 .114-.114-.028-.177.222-.159 0-.313l.042-.041q.028-.285 0-.572a.4.4 0 0 1-.182-.136" clip-rule="evenodd"/><path fill="#fff" fill-rule="evenodd" d="M5.993 3.093q-.014 1.3.028 2.585.306.08.645.055a1 1 0 0 1-.336.054 1.2 1.2 0 0 1-.35-.054 42 42 0 0 1 .013-2.64" clip-rule="evenodd" opacity=".041"/><path fill="#fff" fill-rule="evenodd" d="M20.34 2.276h.532V6.55q-.288.013-.56-.028-.015-2.125.028-4.246" clip-rule="evenodd" opacity=".927"/><path fill="#fff" fill-rule="evenodd" d="M20.678 2.304a.26.26 0 0 1 .14.027q.042 2.096.028 4.191h-.504q-.007-2.027.014-4.055a.4.4 0 0 1 .042-.123q.148-.006.28-.04" clip-rule="evenodd"/><path fill="#fff" fill-rule="evenodd" d="M6.664 5.733q.014-1.313-.028-2.613h-.56a29 29 0 0 0-.056 2.56 60 60 0 0 1-.028-2.586q.345-.055.7-.027.014 1.341-.028 2.667" clip-rule="evenodd" opacity=".133"/><path fill="#fff" fill-rule="evenodd" d="M6.133 3.175q.196-.007.392.013l.042.041q.035 1.208-.014 2.409-.226.032-.448-.014A34 34 0 0 1 6.09 3.23a.1.1 0 0 0 .042-.054" clip-rule="evenodd"/><path fill="#fff" fill-rule="evenodd" d="m22.192 3.719.448.054h-.28a.45.45 0 0 0-.21.11q.024.518-.015 1.033a.17.17 0 0 0 .028.123q.252.02.505.013V3.828q.042.619.028 1.252-.286.04-.589.027V3.719z" clip-rule="evenodd" opacity=".965"/><path fill="#fff" fill-rule="evenodd" d="M19.892 1.705a136 136 0 0 1 0 5.498h-.476q-.007-.98.014-1.96a.8.8 0 0 0 0-.49.2.2 0 0 0-.07-.095q-4.17-.019-8.351-.014a.15.15 0 0 1-.029-.082.18.18 0 0 0 .14.055q3.881-.04 7.763-.027.24.054.49 0 .03.06.099.054.093 1.103.126 2.205a.3.3 0 0 0-.084-.082l-.042.027a.6.6 0 0 0-.028.136.3.3 0 0 0 .112.041.37.37 0 0 0 .14.15.4.4 0 0 0 .098-.109q.096.09.098-.068a126 126 0 0 1 0-5.24" clip-rule="evenodd"/><path fill="#fff" fill-rule="evenodd" d="M21.826 3.093a.06.06 0 0 1 .042.027q.027 1.307 0 2.613-.03.06-.098.054v-.054q.083-1.291.056-2.613z" clip-rule="evenodd" opacity=".048"/><path fill="#fff" fill-rule="evenodd" d="M8.543 1.623V5.27q4.176-.027 8.323.055H8.515q-.014-1.858.028-3.702" clip-rule="evenodd" opacity=".025"/><path fill="#fff" fill-rule="evenodd" d="M8.543 5.325h8.323v.19a.7.7 0 0 1-.084.381h-.056v-.081a.7.7 0 0 0 .028-.218q.053-.035.056-.109-.003-.075-.056-.109z" clip-rule="evenodd" opacity=".364"/><path fill="#fff" fill-rule="evenodd" d="M8.488 5.325h.056l8.211.054q-4.147.027-8.267-.054" clip-rule="evenodd" opacity=".747"/><path fill="#fff" fill-rule="evenodd" d="M8.432 5.298h.028q0 .027.028.027 4.12.081 8.267.054.053.035.056.11-.002.074-.056.108a.3.3 0 0 0-.028-.177 385 385 0 0 0-7.93.014h-.309a.16.16 0 0 1-.056-.136" clip-rule="evenodd" opacity=".928"/><path fill="#fff" fill-rule="evenodd" d="M16.865 5.325q.052.027.056.095-.004.069-.056.095z" clip-rule="evenodd" opacity=".103"/><path fill="#fff" fill-rule="evenodd" d="M8.797 5.434q3.958-.048 7.93-.014a.3.3 0 0 1 .029.177.7.7 0 0 1-.028.218.2.2 0 0 0-.07.054.52.52 0 0 1-.169.381l-.084.272a.3.3 0 0 1-.098.136q.104-.252.168-.517a.13.13 0 0 0 .098-.027.44.44 0 0 0-.041-.3.5.5 0 0 0 .07-.244q.179.051.098-.123-3.942 0-7.903-.013" clip-rule="evenodd"/><path fill="#fff" fill-rule="evenodd" d="M8.487 5.434h.309q3.96.012 7.903.013.08.174-.099.123a.5.5 0 0 1-.07.245q.075.143.042.3a.13.13 0 0 1-.098.026q-.064.266-.168.517a.7.7 0 0 1-.168.327.18.18 0 0 1-.126 0 .3.3 0 0 1-.042.095l.028.028a.12.12 0 0 1-.098.04.57.57 0 0 1-.126.327.5.5 0 0 1-.112.054 1 1 0 0 0-.085-.23 1 1 0 0 1 .057-.123q-.041-.059-.085-.068.039-.12.085-.232a.5.5 0 0 0 .098-.218q.168-.068.168-.245l.098-.136q.114-.167.14.055l.028-.068a9 9 0 0 0-.112-.354.1.1 0 0 0 .028-.04 301 301 0 0 0-7.006-.014 5 5 0 0 0-.504.04q-.103-.01-.14.082-.069-.006-.099.054a4 4 0 0 1-.042.49q-.042-2.34-.028-4.681a.4.4 0 0 1-.224-.082.8.8 0 0 1 .28-.027q.034 1.81.042 3.62a.14.14 0 0 0 .126.082" clip-rule="evenodd"/><path fill="#fff" fill-rule="evenodd" d="M15.997 6.277a.54.54 0 0 1 .084-.217.13.13 0 0 0-.084-.11h-.028a251 251 0 0 0-7.399-.054 5 5 0 0 1 .505-.04q3.502-.035 7.006.013a.1.1 0 0 1-.028.04q.06.178.112.355l-.028.068q-.027-.222-.14-.055" clip-rule="evenodd"/><path fill="#fff" fill-rule="evenodd" d="M19.277 4.753h.056V7.23a.06.06 0 0 1-.042-.027q-.02-1.198-.014-2.395z" clip-rule="evenodd" opacity=".031"/><path fill="#fff" fill-rule="evenodd" d="M15.97 5.95H16a.12.12 0 0 1-.028.11 5 5 0 0 0-.757-.055q-3.334.009-6.67 0-.069.605-.084 1.225-.014-.636.028-1.265 3.742-.021 7.483-.014" clip-rule="evenodd" opacity=".218"/><path fill="#fff" fill-rule="evenodd" d="M15.968 6.06a1.5 1.5 0 0 1-.224.49.2.2 0 0 1-.084.054q.11-.215.21-.436a.2.2 0 0 1 .098-.108" clip-rule="evenodd" opacity=".151"/><path fill="#fff" fill-rule="evenodd" d="M16.727 5.896h.056q-.081.237-.168.477-.015.042-.056.04a7 7 0 0 1 .168-.517" clip-rule="evenodd" opacity=".057"/><path fill="#fff" fill-rule="evenodd" d="M16.727 5.815v.081a7 7 0 0 0-.169.518.05.05 0 0 0-.056.027 2.2 2.2 0 0 1-.224.435.2.2 0 0 0-.028.136.07.07 0 0 0-.056.014 1 1 0 0 1-.112.15l.056-.19a.7.7 0 0 0 .168-.328.3.3 0 0 0 .098-.136l.084-.272a.52.52 0 0 0 .169-.38.2.2 0 0 1 .07-.055" clip-rule="evenodd" opacity=".984"/><path fill="#fff" fill-rule="evenodd" d="M12.131 6.55a.15.15 0 0 1 .084.136 1 1 0 0 0-.168-.096 2.6 2.6 0 0 0-.533 0 .12.12 0 0 0-.056.082.8.8 0 0 1 .028.177.18.18 0 0 1-.084-.163V6.55z" clip-rule="evenodd" opacity=".261"/><path fill="#fff" fill-rule="evenodd" d="M12.129 6.55H11.4v.136q-.076-.058-.056-.164.4-.014.785.028" clip-rule="evenodd" opacity=".102"/><path fill="#fff" fill-rule="evenodd" d="M16.557 6.413a1.4 1.4 0 0 1-.308.6.2.2 0 0 1 .028-.137 2.2 2.2 0 0 0 .224-.435.05.05 0 0 1 .056-.028" clip-rule="evenodd" opacity=".078"/><path fill="#fff" fill-rule="evenodd" d="M8.543 6.005q.007.627-.014 1.252a.08.08 0 0 1-.07.027V7.23q.015-.62.084-1.225" clip-rule="evenodd" opacity=".116"/><path fill="#fff" fill-rule="evenodd" d="M15.661 6.631a.13.13 0 0 1-.028.11.22.22 0 0 1-.112.108.13.13 0 0 1 .014-.082 1 1 0 0 1 .126-.136" clip-rule="evenodd" opacity=".063"/><path fill="#fff" fill-rule="evenodd" d="M15.997 5.95a.13.13 0 0 1 .084.11.54.54 0 0 0-.084.217l-.098.136q0 .177-.168.245a.5.5 0 0 1-.099.218.74.74 0 0 1-.224.245.6.6 0 0 0 .028-.136q-.01-.103.084-.136a.22.22 0 0 0 .112-.109.13.13 0 0 0 .028-.109v-.027a.2.2 0 0 0 .085-.055q.16-.23.224-.49a.12.12 0 0 0 .028-.108" clip-rule="evenodd" opacity=".961"/><path fill="#fff" fill-rule="evenodd" d="M11.486 6.849a.2.2 0 0 1 .112.027q.11.243.253.463.104.12.168.272a.08.08 0 0 1-.07-.027 4.5 4.5 0 0 1-.463-.735" clip-rule="evenodd" opacity=".51"/><path fill="#fff" fill-rule="evenodd" d="M12.214 6.686q.066.155.126.326.058.09.154.136.025.053.042.11.149.126.294.244v.055a1.7 1.7 0 0 1-.28-.164 4 4 0 0 0-.238-.3l-.154-.299-.112-.136a2 2 0 0 0-.477-.027.8.8 0 0 0 .028.245.2.2 0 0 0-.112-.027.8.8 0 0 0-.028-.177.12.12 0 0 1 .056-.082q.267-.027.533 0a1 1 0 0 1 .168.096" clip-rule="evenodd" opacity=".937"/><path fill="#fff" fill-rule="evenodd" d="M15.437 6.985a.6.6 0 0 1-.028.136.4.4 0 0 0-.112.123.14.14 0 0 1-.084.013.13.13 0 0 1-.014.082.5.5 0 0 1-.154.109q.15-.222.322-.436a.08.08 0 0 1 .07-.027" clip-rule="evenodd" opacity=".247"/><path fill="#fff" fill-rule="evenodd" d="M12.158 6.795a2 2 0 0 0-.182-.082.2.2 0 0 0-.015.109.2.2 0 0 0-.112.027q-.043-.15-.196-.095-.102.219.14.231.015.097.042.19.015-.013.028-.027a.13.13 0 0 0 .07.068.12.12 0 0 0-.028.096.2.2 0 0 1 .14.027q.082.188.197.354a.2.2 0 0 1-.084-.095q-.154-.03-.182-.177a.2.2 0 0 0-.127-.082 4 4 0 0 1-.252-.463.8.8 0 0 1-.028-.245q.24-.014.477.027z" clip-rule="evenodd"/><path fill="#fff" fill-rule="evenodd" d="M12.215 6.686q.261.37.574.707.035.05.042.11-.146-.12-.294-.246a1 1 0 0 0-.042-.109.37.37 0 0 1-.154-.136 6 6 0 0 0-.126-.326" clip-rule="evenodd" opacity=".271"/><path fill="#fff" fill-rule="evenodd" d="M15.633 6.876q-.045.111-.084.232.044.01.084.068a1 1 0 0 0-.056.122q.057.109.084.231a.4.4 0 0 0 .112-.054.57.57 0 0 0 .126-.327.12.12 0 0 0 .098-.04l-.028-.028a.3.3 0 0 0 .042-.095.18.18 0 0 0 .126 0l-.056.19a10 10 0 0 1-.686.817.13.13 0 0 0-.014.082q-.174.083-.337.19-.12.058-.224.136a.5.5 0 0 0 .084-.136 2 2 0 0 1 .168-.054.6.6 0 0 1 .085-.163 2 2 0 0 1-.085-.15l.029-.027q-.115-.03-.057-.123.144.105.239.245a2 2 0 0 0 .28-.245q.106-.146-.07-.163.016-.213-.168-.3.063-.069.084-.163a.74.74 0 0 0 .224-.245" clip-rule="evenodd"/><path fill="#fff" fill-rule="evenodd" d="M16.25 7.012a.7.7 0 0 1-.127.245q-.19.24-.364.49-.186.174-.379.327a.13.13 0 0 1 .014-.082q.368-.39.687-.816a1 1 0 0 0 .112-.15.07.07 0 0 1 .056-.014" clip-rule="evenodd" opacity=".318"/><path fill="#fff" fill-rule="evenodd" d="M12.017 7.611q.189.158.378.327a.2.2 0 0 1 .014.109 2.4 2.4 0 0 1-.378-.354.13.13 0 0 1-.014-.082" clip-rule="evenodd" opacity=".035"/><path fill="#fff" fill-rule="evenodd" d="m12.158 6.795.154.299q.127.144.238.3.135.095.28.163.012.073.056.136.124.078.197.204.23.074.364.272.094.047.196.068.159.226.42.123.223-.17.477-.273a.3.3 0 0 1 .154-.15.13.13 0 0 0 .014-.081h.14q.01-.12.14-.109a.6.6 0 0 1 .28-.326.3.3 0 0 0 .056-.137q.186.087.169.3.175.017.07.163a2 2 0 0 1-.28.245 1 1 0 0 0-.239-.245q-.058.093.056.123l-.028.027q.036.073.084.15a.6.6 0 0 0-.084.163 2 2 0 0 0-.168.054.5.5 0 0 1-.084.136 1.4 1.4 0 0 1-.154.11.2.2 0 0 0-.014.108.24.24 0 0 0-.252.095 4 4 0 0 1-.505.259 2.3 2.3 0 0 0-.42-.259.5.5 0 0 0-.168-.013v-.11h-.14a.16.16 0 0 0-.056-.136 4 4 0 0 0-.337-.204l-.532-.558a2 2 0 0 1-.196-.354.2.2 0 0 0-.14-.027.12.12 0 0 1 .028-.096.13.13 0 0 1-.07-.068l-.029.028a1.4 1.4 0 0 1-.042-.19q-.242-.013-.14-.232.153-.054.197.095a.2.2 0 0 1 .112-.027.2.2 0 0 1 .014-.11q.094.039.182.083" clip-rule="evenodd"/><path fill="#fff" fill-rule="evenodd" d="M12.832 7.502a.16.16 0 0 1 .084.027q.195.169.364.354a.24.24 0 0 1-.112-.013q-.149-.18-.336-.313z" clip-rule="evenodd" opacity=".027"/><path fill="#fff" fill-rule="evenodd" d="M15.044 7.448q-.086.173-.224.313-.213.184-.476.286.34-.309.7-.6" clip-rule="evenodd" opacity=".333"/><path fill="#fff" fill-rule="evenodd" d="M15.41 7.121a.35.35 0 0 1-.084.163.3.3 0 0 1-.056.136.6.6 0 0 0-.28.327q-.13-.012-.14.109h-.14a.13.13 0 0 1-.015.082.3.3 0 0 0-.154.15q-.254.102-.476.272-.262.104-.42-.123a.5.5 0 0 1 .196.095.12.12 0 0 0 .112 0q.202-.077.364-.217a.08.08 0 0 0 .028-.068q.264-.102.476-.286.14-.14.225-.313a.5.5 0 0 0 .154-.11.13.13 0 0 0 .014-.08q.044.005.084-.014a.4.4 0 0 1 .112-.123" clip-rule="evenodd"/><path fill="#fff" fill-rule="evenodd" d="M11.85 7.339q.078.015.126.082.029.147.182.176a.2.2 0 0 0 .084.096l.532.558q.172.09.337.204.06.055.056.136h-.112q-.01-.153-.168-.15l-.28-.3a.35.35 0 0 0-.197-.094.2.2 0 0 0-.014-.11 15 15 0 0 0-.378-.326 1 1 0 0 0-.168-.272" clip-rule="evenodd" opacity=".957"/><path fill="#fff" fill-rule="evenodd" d="M12.832 7.557q.188.135.336.313a.24.24 0 0 0 .112.013q.105.201.337.245a.2.2 0 0 0 .028.11.8.8 0 0 1-.196-.069.68.68 0 0 0-.365-.272.6.6 0 0 0-.196-.204.3.3 0 0 1-.056-.136" clip-rule="evenodd" opacity=".992"/><path fill="#fff" fill-rule="evenodd" d="M13.28 7.883a.9.9 0 0 1 .336.245.45.45 0 0 1-.337-.245" clip-rule="evenodd" opacity=".388"/><path fill="#fff" fill-rule="evenodd" d="M14.344 8.046a.08.08 0 0 1-.028.068 1.2 1.2 0 0 1-.364.218.12.12 0 0 1-.112 0 .5.5 0 0 0-.197-.095.2.2 0 0 1-.027-.109q.141.071.294.136.222-.1.434-.218" clip-rule="evenodd" opacity=".136"/><path fill="#fff" fill-rule="evenodd" d="M12.41 8.047q.114.015.196.095l.28.3q.159-.004.169.149a2.3 2.3 0 0 1-.645-.544" clip-rule="evenodd" opacity=".149"/><path fill="#fff" fill-rule="evenodd" d="M15.38 8.074a4 4 0 0 1-.252.286.8.8 0 0 0-.28.217.14.14 0 0 1-.084.014.54.54 0 0 1 .252-.245.15.15 0 0 0 .028-.082q.162-.107.336-.19" clip-rule="evenodd" opacity=".173"/><path fill="#fff" fill-rule="evenodd" d="M13.055 8.59h.112q.097.068.168.164a.2.2 0 0 1-.112-.027 3 3 0 0 1-.168-.136" clip-rule="evenodd" opacity=".114"/><path fill="#fff" fill-rule="evenodd" d="M15.046 8.264a.15.15 0 0 1-.028.082.54.54 0 0 0-.253.245 1 1 0 0 1-.28.109l-.196.19a2 2 0 0 0-.392.136 2.3 2.3 0 0 0-.56-.272.7.7 0 0 0-.169-.163h.14V8.7a.5.5 0 0 1 .168.013q.228.11.42.259.26-.111.505-.259a.24.24 0 0 1 .252-.095.2.2 0 0 1 .014-.109q.084-.05.154-.109a1.3 1.3 0 0 1 .225-.136" clip-rule="evenodd" opacity=".992"/><path fill="#fff" fill-rule="evenodd" d="M14.766 8.59q-.147.15-.337.26a.25.25 0 0 1-.14.04l.196-.19a1 1 0 0 0 .28-.11" clip-rule="evenodd" opacity=".035"/><path fill="#fff" fill-rule="evenodd" d="M13.334 8.754q.299.099.56.272a2 2 0 0 1 .393-.136 1 1 0 0 1-.365.218 8 8 0 0 1-.504-.259.15.15 0 0 1-.084-.095" clip-rule="evenodd" opacity=".141"/><path fill="#fff" fill-rule="evenodd" d="M2.714 9.734q-.3.04-.616.054a.4.4 0 0 1 .224-.068 1 1 0 0 1 .392.014" clip-rule="evenodd" opacity=".133"/><path fill="#fff" fill-rule="evenodd" d="M2.797 9.734a.17.17 0 0 1 .14.055q-.095.017-.14-.055" clip-rule="evenodd" opacity=".078"/><path fill="#fff" fill-rule="evenodd" d="M7.367 9.734q-.045.072-.14.054.047-.069.14-.054" clip-rule="evenodd" opacity=".135"/><path fill="#fff" fill-rule="evenodd" d="M8.094 9.789q-.344-.017-.672-.055a1.9 1.9 0 0 1 .644.014q.024.015.028.04" clip-rule="evenodd" opacity=".137"/><path fill="#fff" fill-rule="evenodd" d="M13.363 9.734q.028 0 .028.027a.8.8 0 0 0-.364.136h-.028a.2.2 0 0 1-.112.027.67.67 0 0 1 .476-.19" clip-rule="evenodd" opacity=".133"/><path fill="#fff" fill-rule="evenodd" d="M13.363 9.734q.231-.047.477-.014.127.005.224.068a11 11 0 0 0-.673-.027q0-.027-.028-.027" clip-rule="evenodd" opacity=".139"/><path fill="#fff" fill-rule="evenodd" d="M25.499 9.734a8 8 0 0 1-.589.054.06.06 0 0 1 .028-.04q.285-.064.56-.014" clip-rule="evenodd" opacity=".135"/><path fill="#fff" fill-rule="evenodd" d="M25.582 9.734a.17.17 0 0 1 .14.055h-.14z" clip-rule="evenodd" opacity=".094"/><path fill="#fff" fill-rule="evenodd" d="M13.392 9.761q.336.003.672.027h.084q0 .055.056.055a.13.13 0 0 1 .112.027.4.4 0 0 1-.308-.04 2.9 2.9 0 0 0-.98.067.8.8 0 0 1 .364-.136" clip-rule="evenodd" opacity=".587"/><path fill="#fff" fill-rule="evenodd" d="M2.096 9.788v.055h-.112q.03-.069.112-.055" clip-rule="evenodd" opacity=".316"/><path fill="#fff" fill-rule="evenodd" d="M5.434 9.789v.054H4.62v.082h-.056a.2.2 0 0 1 .028-.11q.42-.04.84-.026" clip-rule="evenodd" opacity=".388"/><path fill="#fff" fill-rule="evenodd" d="M7.366 9.734h.056q.328.037.672.054h.056v.055a5 5 0 0 0-1.037 0q.03-.069.112-.055.096.018.14-.054" clip-rule="evenodd" opacity=".872"/><path fill="#fff" fill-rule="evenodd" d="M8.15 9.788q.093-.015.14.055h-.14z" clip-rule="evenodd" opacity=".186"/><path fill="#fff" fill-rule="evenodd" d="M10.645 10.034q-.015.08.056.108.03.05.028.11v.081a.86.86 0 0 1-.168-.49h-.813q.009.069-.056.082a.2.2 0 0 1 .028-.11q.434-.046.868-.013.052.11.057.232m4.091-.245h2.13v.054h-2.13z" clip-rule="evenodd" opacity=".392"/><path fill="#fff" fill-rule="evenodd" d="M17.96 9.789v.054h-.814q.39-.081.813-.054" clip-rule="evenodd" opacity=".391"/><path fill="#fff" fill-rule="evenodd" d="M18.633 9.789h.785v.054h-.785zm2.689 0v.054h-1.43v-.027q.708-.04 1.43-.027" clip-rule="evenodd" opacity=".392"/><path fill="#fff" fill-rule="evenodd" d="M21.322 9.788q.084-.013.112.055h-.112z" clip-rule="evenodd" opacity=".016"/><path fill="#fff" fill-rule="evenodd" d="M22.809 9.789h.756v.054h-.756z" clip-rule="evenodd" opacity=".389"/><path fill="#fff" fill-rule="evenodd" d="M25.133 9.816q.216-.04.448-.028h.168q0 .055.056.055h.028v.054a1.8 1.8 0 0 0-.7-.081" clip-rule="evenodd" opacity=".88"/><path fill="#fff" fill-rule="evenodd" d="M3.274 10.034a.8.8 0 0 1 .168.136q.065.147-.07.245-.121.085-.224.19a.3.3 0 0 0-.042.11h-.112a.2.2 0 0 0-.014-.11.5.5 0 0 1-.154-.081.48.48 0 0 0-.505-.055.12.12 0 0 0-.056.082q-.084 0-.084.081-.165.046-.154.218a1.3 1.3 0 0 0 0 .381q.003.092.07.136-.01.105.084.136.033.127.168.136a.06.06 0 0 0 .028.041q.182.028.365 0a.11.11 0 0 0 .056-.095q.044.006.084-.014a.5.5 0 0 0 .112-.15.24.24 0 0 1 .112.014.11.11 0 0 0 .084.068q.084 0 .084.082.12.135.224.286a1 1 0 0 0-.084.177.27.27 0 0 0-.224.163.7.7 0 0 0-.266.082q-.145.031-.294.027-.226.014-.449-.027a1.6 1.6 0 0 0-.364-.136.6.6 0 0 0-.14-.028q0-.054-.056-.054a.1.1 0 0 0-.084-.082.2.2 0 0 0-.028-.109 3 3 0 0 0-.14-.163q-.015-.035-.056-.027a.3.3 0 0 1-.028-.163v-.11q-.074-.583.168-1.115v-.027a.15.15 0 0 0 .084-.136.5.5 0 0 0 .14-.137q.106.01.14-.081h.028q.099-.004.14-.082h.112q.631-.155 1.177.19m4.878-.19h.14q.046.1.168.082h.028q-.006.165-.028.326-.065.013-.056.082a.4.4 0 0 0-.112.19.8.8 0 0 1-.252-.054.87.87 0 0 0-.589-.082q-.175.07-.126.245.029.03.07.027.114.069.253.123.17.012.336.04h.112a.44.44 0 0 0 .308.164q.056.082.14.136.072.269.042.545-.066.182-.154.353l-.112.11a4 4 0 0 1-.42.163 3.5 3.5 0 0 1-.617.027 5 5 0 0 0-.308-.027H6.92q0-.042-.042-.055a.6.6 0 0 0-.21-.027 2 2 0 0 0-.112-.136 1 1 0 0 1 .084-.19.44.44 0 0 0 .14-.327.35.35 0 0 1 .168.027h.112q-.006.066.056.095.207.078.435.068a.66.66 0 0 0 .294-.068q.07-.146-.056-.245a6 6 0 0 1-.841-.231.3.3 0 0 0-.14-.055 1 1 0 0 0-.224-.299v-.435q.098-.21.224-.409.136-.042.266-.109.044-.014.042-.054a5 5 0 0 1 1.037 0m6.163.027q.01.101.112.136a.15.15 0 0 0-.028.082.6.6 0 0 1-.028.136l-.056.027a.46.46 0 0 1-.14.245 2 2 0 0 0-.393-.082h-.364q-.12.017-.14.137.014.08.084.108.21.143.476.15.247.066.477.177h.056q0 .082.084.082a.12.12 0 0 0 .028.109q.068.359-.028.707-.048.077-.084.164-.09.083-.168.163-.107-.01-.14.082h-.028q-.096-.018-.14.054h-.057a.37.37 0 0 0-.196-.027 4.4 4.4 0 0 1-.925-.11h-.084a1.4 1.4 0 0 1-.14-.135q.095-.184.14-.381.098-.066.084-.19h.112q.035.09.14.08H13q-.002.042.042.055a.6.6 0 0 0 .21.028h.028a.3.3 0 0 0 .182.054.3.3 0 0 0 .182-.054h.084q.077-.073.056-.191l-.224-.027h-.028q-.044-.072-.14-.055a.5.5 0 0 1-.224-.027.14.14 0 0 0-.084-.082.6.6 0 0 1-.253-.108q-.025.005-.028.027h-.028q0-.054-.056-.055 0-.081-.084-.081v-.055l-.028-.108q-.149-.644.393-1.008h.028a2.9 2.9 0 0 1 .98-.068q.15.082.309.041m10.816-.054q.363-.03.7.082a.08.08 0 0 0 .07-.028q.01.046.042.082a.9.9 0 0 1 .309.19l.196.273q.183.561.056 1.143v.082a2.7 2.7 0 0 1-.392.435 2.4 2.4 0 0 1-.309.218q-.423.021-.84.054-.045-.072-.14-.054a.2.2 0 0 1-.14-.027.6.6 0 0 0-.225-.191.8.8 0 0 0-.14-.218.16.16 0 0 0-.112-.054q-.015-.034-.056-.027v-.028a1.4 1.4 0 0 1-.028-.19 1.9 1.9 0 0 1 .056-1.089.5.5 0 0 0 .028-.163q.24-.207.504-.395a.77.77 0 0 1 .42-.095m.028.707h.28q.05.03.112.028 0 .054.056.054.097.147.168.3v.326a.27.27 0 0 0-.084.19.9.9 0 0 1-.224.191h-.028a1.3 1.3 0 0 1-.336-.027h-.028a.5.5 0 0 0-.14-.136.33.33 0 0 0-.085-.218v-.354q.087-.18.225-.326a.2.2 0 0 1 .084-.027" clip-rule="evenodd"/><path fill="#fff" fill-rule="evenodd" d="M17.034 9.843q.044.016.015.054a.06.06 0 0 1-.015-.054" clip-rule="evenodd" opacity=".01"/><path fill="#fff" fill-rule="evenodd" d="M1.845 9.87v.055H1.79q0-.055.056-.055" clip-rule="evenodd" opacity=".017"/><path fill="#fff" fill-rule="evenodd" d="M1.986 9.843q-.042.079-.14.082V9.87a.26.26 0 0 1 .14-.027" clip-rule="evenodd" opacity=".308"/><path fill="#fff" fill-rule="evenodd" d="M5.433 9.843q-.005.11.085.163v.027a.26.26 0 0 0 .084.218q-.014.126.084.19.04.164.084.327a.33.33 0 0 0 .14.218.5.5 0 0 0 .042.218q.078.164.182.3v.026q.003.111.028.218.09.26.196.517-.365.007-.728-.013a.76.76 0 0 1-.126-.34.2.2 0 0 0-.07-.055q-.435-.007-.87.014a.84.84 0 0 1-.167.394q-.364.007-.729-.013a.08.08 0 0 0 .028-.069q.12-.316.252-.626a.5.5 0 0 0 .07-.19l.028.027q.02-.096.042-.19v-.082a.15.15 0 0 0 .084-.082.34.34 0 0 0 .056-.217.09.09 0 0 0 .099-.055l.07-.326v-.028a.77.77 0 0 0 .224-.49v-.081zm-.448.952q.124.15.14.354.005.025.028.041-.124.02-.252.014v-.136q.074-.043.056-.136a.18.18 0 0 0 .028-.137" clip-rule="evenodd"/><path fill="#fff" fill-rule="evenodd" d="M8.291 9.843q.114-.005.168.082-.12.018-.168-.082" clip-rule="evenodd" opacity=".282"/><path fill="#fff" fill-rule="evenodd" d="M10.73 10.333q.05.05.085.109v.027q.034.13.084.258.015.042.056.041v.055a.23.23 0 0 0 .084.19q0 .1.042.19l.182.354v.028q.09.258.168.517a.12.12 0 0 1 0 .15 9 9 0 0 1-.7.013.12.12 0 0 0-.028-.109.2.2 0 0 0-.085-.109v-.054a.2.2 0 0 0-.028-.109q-.461-.04-.924-.027v.109a.46.46 0 0 0-.14.3q-.366.013-.73-.028a.24.24 0 0 0 .029-.136.18.18 0 0 1 .028-.136.4.4 0 0 0 .14-.3v-.027a.15.15 0 0 0 .084-.082 4 4 0 0 1 .21-.38q.033-.277.154-.518v-.027q.1-.155.183-.326a1 1 0 0 1 .042-.164 1 1 0 0 0 .028-.218q.065-.012.056-.081h.812a.86.86 0 0 0 .168.49m-.56.517v.027q-.014.08.056.109l.028.163q-.042.052-.126.055a.3.3 0 0 1-.126-.027.26.26 0 0 0 .028-.164q.065-.013.056-.082v-.027a.15.15 0 0 0 .042-.081q.016.022.042.027m8.49-1.007h.728q.012.845-.028 1.687v.164a.4.4 0 0 0-.084.163q-.145.037-.154.19-.087.077-.154.164a2 2 0 0 0-.196.027 2.4 2.4 0 0 1-1.01 0 .6.6 0 0 0-.14-.027l-.168-.136q.006-.144-.14-.164a1.4 1.4 0 0 1-.028-.19 1.2 1.2 0 0 1-.042-.218 48 48 0 0 1-.014-1.633h.673q-.007.708.014 1.415a.1.1 0 0 0 .042.055.36.36 0 0 0 .084.245q.018.065.084.095.357.108.518-.204.023-.817.015-1.633" clip-rule="evenodd"/><path fill="#fff" fill-rule="evenodd" d="M19.39 9.843h.027v1.687h-.056q.04-.842.028-1.687" clip-rule="evenodd" opacity=".639"/><path fill="#fff" fill-rule="evenodd" d="M21.434 9.897a.26.26 0 0 1 .14.028q.24.165.504.299a.18.18 0 0 0 .084.136.34.34 0 0 1 .085.218q.165.474 0 .953a.94.94 0 0 1-.169.38q-.07.015-.084.082a.07.07 0 0 0-.056.014.5.5 0 0 0-.084.122h-.028a.6.6 0 0 1-.168.027 4 4 0 0 0-.364.096q-.66.02-1.317.013V9.87q.73-.012 1.457.027m-.645.626q.24.006.477.028 0 .054.056.054a.65.65 0 0 1 .196.599l-.084.218q-.072.015-.084.081-.129.059-.253.11h-.336q.041-.543.028-1.09" clip-rule="evenodd"/><path fill="#fff" fill-rule="evenodd" d="M22.807 9.789v2.504h.757v.054h-.813q-.028-1.293.056-2.558" clip-rule="evenodd" opacity=".308"/><path fill="#fff" fill-rule="evenodd" d="M5.432 9.789q.08.09.084.217-.09-.052-.084-.163z" clip-rule="evenodd" opacity=".188"/><path fill="#fff" fill-rule="evenodd" d="M19.893 9.843h1.541v.054q-.727-.039-1.457-.027v2.395q.659.007 1.317-.013.178-.057.364-.095 0 .054-.056.054a.32.32 0 0 0-.224.082h-1.485z" clip-rule="evenodd" opacity=".934"/><path fill="#fff" fill-rule="evenodd" d="M21.434 9.843a.3.3 0 0 1 .252.082h-.112a.26.26 0 0 0-.14-.028z" clip-rule="evenodd" opacity=".702"/><path fill="#fff" fill-rule="evenodd" d="M14.316 9.87h.056q.001.054.056.055h.028v.163H14.4a.15.15 0 0 1 .028-.082q-.102-.035-.112-.136" clip-rule="evenodd" opacity=".692"/><path fill="#fff" fill-rule="evenodd" d="M14.736 9.789v.735a.06.06 0 0 1-.042-.028l-.014-.354q0-.192.056-.353" clip-rule="evenodd" opacity=".1"/><path fill="#fff" fill-rule="evenodd" d="M22.809 9.843h.756v2.45h-.756z" clip-rule="evenodd" opacity=".8"/><path fill="#fff" fill-rule="evenodd" d="M22.836 9.87h.7v2.395h-.7z" clip-rule="evenodd"/><path fill="#fff" fill-rule="evenodd" d="M25.834 9.843a.24.24 0 0 1 .112.014q.12.07.224.15 0 .08.084.08v.055a.9.9 0 0 0-.308-.19.2.2 0 0 1-.042-.082.08.08 0 0 1-.07.027z" clip-rule="evenodd" opacity=".639"/><path fill="#fff" fill-rule="evenodd" d="M1.79 9.925h.028q-.035.09-.14.082.03-.07.112-.082" clip-rule="evenodd" opacity=".239"/><path fill="#fff" fill-rule="evenodd" d="M7.115 9.843q0 .04-.042.054-.13.066-.266.11a.36.36 0 0 1 .308-.164" clip-rule="evenodd" opacity=".333"/><path fill="#fff" fill-rule="evenodd" d="M24.517 9.952q0 .054-.056.054 0-.054.056-.054" clip-rule="evenodd" opacity=".015"/><path fill="#fff" fill-rule="evenodd" d="M14.457 9.925q.05.019.056.081-.006.063-.056.082z" clip-rule="evenodd" opacity=".121"/><path fill="#fff" fill-rule="evenodd" d="M17.204 9.843h.756v1.497a.1.1 0 0 1-.042-.055q-.02-.707-.014-1.415h-.672q-.007.816.014 1.633.011.113.042.218h-.056q.018-.093-.056-.136v-.055q.041-.84.028-1.687" clip-rule="evenodd" opacity=".895"/><path fill="#fff" fill-rule="evenodd" d="M19.416 9.789q.056.407.056.843l-.014.844a.06.06 0 0 1-.042.027z" clip-rule="evenodd" opacity=".175"/><path fill="#fff" fill-rule="evenodd" d="M23.563 9.789q.056.625.056 1.279-.001.654-.056 1.28z" clip-rule="evenodd" opacity=".163"/><path fill="#fff" fill-rule="evenodd" d="M2.714 9.734h.084q.045.072.14.054a1 1 0 0 1 .197.082q0 .054.056.054h.056l.028.11a1.46 1.46 0 0 0-1.177-.191v-.055q.315-.015.616-.054" clip-rule="evenodd" opacity=".824"/><path fill="#fff" fill-rule="evenodd" d="M17.146 9.843h.056q.014.847-.028 1.687a25 25 0 0 1-.028-1.687" clip-rule="evenodd" opacity=".359"/><path fill="#fff" fill-rule="evenodd" d="M18.632 9.789v.054q.027.763-.056 1.497-.007-.762.014-1.524a.06.06 0 0 1 .042-.027" clip-rule="evenodd" opacity=".053"/><path fill="#fff" fill-rule="evenodd" d="M21.574 9.925h.112q.129.09.28.163.079.052.113.136a5 5 0 0 1-.505-.3" clip-rule="evenodd" opacity=".855"/><path fill="#fff" fill-rule="evenodd" d="M4.562 9.952q.014.126-.084.19-.013-.125.084-.19" clip-rule="evenodd" opacity=".339"/><path fill="#fff" fill-rule="evenodd" d="M9.692 9.925a1 1 0 0 1-.028.217h-.056a.27.27 0 0 1 .084-.217" clip-rule="evenodd" opacity=".624"/><path fill="#fff" fill-rule="evenodd" d="M12.859 9.925a.07.07 0 0 1-.014.054 2 2 0 0 1-.21.163.15.15 0 0 1 .028-.081.37.37 0 0 1 .196-.136" clip-rule="evenodd" opacity=".065"/><path fill="#fff" fill-rule="evenodd" d="M21.686 9.925q.195 0 .28.163a2 2 0 0 1-.28-.163" clip-rule="evenodd" opacity=".137"/><path fill="#fff" fill-rule="evenodd" d="M25.498 9.734h.084v.054q-.232-.013-.448.028a.77.77 0 0 0-.42.095 7 7 0 0 0-.505.395.15.15 0 0 1 .028-.082.18.18 0 0 0 .14-.136q0-.082.084-.082.056 0 .056-.054.18-.122.393-.164.3-.016.588-.054" clip-rule="evenodd" opacity=".741"/><path fill="#fff" fill-rule="evenodd" d="M26.17 10.006q.07.015.084.082-.084 0-.084-.082" clip-rule="evenodd" opacity=".021"/><path fill="#fff" fill-rule="evenodd" d="M1.677 10.006a.5.5 0 0 1-.14.136.18.18 0 0 1 .14-.136" clip-rule="evenodd" opacity=".208"/><path fill="#fff" fill-rule="evenodd" d="M6.805 10.006q-.126.198-.224.409v-.028a.32.32 0 0 1 .042-.19.4.4 0 0 0 .112-.163.08.08 0 0 1 .07-.028" clip-rule="evenodd" opacity=".092"/><path fill="#fff" fill-rule="evenodd" d="M10.645 10.033q.068.033.056.11-.07-.03-.056-.11" clip-rule="evenodd" opacity=".106"/><path fill="#fff" fill-rule="evenodd" d="M8.487 9.925q.051.026.056.095a2 2 0 0 1-.028.163q-.008.056-.056.068.022-.162.028-.326" clip-rule="evenodd" opacity=".031"/><path fill="#fff" fill-rule="evenodd" d="M16.865 9.789q.056.167.056.367t-.056.367z" clip-rule="evenodd" opacity=".125"/><path fill="#fff" fill-rule="evenodd" d="M5.516 10.033q.09.087.084.218a.26.26 0 0 1-.084-.218" clip-rule="evenodd" opacity=".294"/><path fill="#fff" fill-rule="evenodd" d="M14.4 10.088h.055a.29.29 0 0 1-.084.245v-.109a.6.6 0 0 0 .028-.136" clip-rule="evenodd" opacity=".122"/><path fill="#fff" fill-rule="evenodd" d="M24.376 10.088a.18.18 0 0 1-.14.136.5.5 0 0 1 .14-.136" clip-rule="evenodd" opacity=".036"/><path fill="#fff" fill-rule="evenodd" d="M26.254 10.088q.135.075.21.218.025.067.042.136l-.056-.027-.196-.273z" clip-rule="evenodd" opacity=".325"/><path fill="#fff" fill-rule="evenodd" d="M1.537 10.142a.15.15 0 0 1-.084.136v-.054q0-.082.084-.082" clip-rule="evenodd" opacity=".459"/><path fill="#fff" fill-rule="evenodd" d="M9.61 10.142q.014.08-.057.11-.014-.082.056-.11" clip-rule="evenodd" opacity=".306"/><path fill="#fff" fill-rule="evenodd" d="M1.452 10.224v.082a.13.13 0 0 0-.084.054q-.01-.103.084-.136" clip-rule="evenodd" opacity=".071"/><path fill="#fff" fill-rule="evenodd" d="M4.563 9.925h.056a.77.77 0 0 1-.224.49.47.47 0 0 0 .084-.272q.098-.066.084-.191z" clip-rule="evenodd" opacity=".82"/><path fill="#fff" fill-rule="evenodd" d="M22.078 10.224q.042-.008.056.027l.028.11a.18.18 0 0 1-.084-.137" clip-rule="evenodd" opacity=".647"/><path fill="#fff" fill-rule="evenodd" d="M5.6 10.251q.096.065.083.19-.098-.064-.084-.19" clip-rule="evenodd" opacity=".176"/><path fill="#fff" fill-rule="evenodd" d="M8.46 10.251q.017.093-.057.136v-.054q-.009-.069.056-.082" clip-rule="evenodd" opacity=".016"/><path fill="#fff" fill-rule="evenodd" d="M10.729 10.251q.098.065.084.19a.6.6 0 0 0-.085-.108z" clip-rule="evenodd" opacity=".137"/><path fill="#fff" fill-rule="evenodd" d="M8.038 10.469h-.196a.35.35 0 0 0-.196-.054.35.35 0 0 0-.197.054.08.08 0 0 0-.07.027q-.031.065.014.11v.054a.08.08 0 0 1-.07-.028q-.049-.176.126-.245a.87.87 0 0 1 .589.082" clip-rule="evenodd" opacity=".927"/><path fill="#fff" fill-rule="evenodd" d="M22.135 10.251a.66.66 0 0 1 .224.463l-.112-.136a.34.34 0 0 0-.084-.218z" clip-rule="evenodd" opacity=".165"/><path fill="#fff" fill-rule="evenodd" d="M4.48 10.142q0 .15-.084.273v.027H4.34a1 1 0 0 1 .14-.3" clip-rule="evenodd" opacity=".055"/><path fill="#fff" fill-rule="evenodd" d="M1.369 10.36q.009.069-.056.082-.003-.063.056-.082" clip-rule="evenodd" opacity=".094"/><path fill="#fff" fill-rule="evenodd" d="M7.842 10.469h-.393a.35.35 0 0 1 .196-.054q.116 0 .197.054" clip-rule="evenodd" opacity=".129"/><path fill="#fff" fill-rule="evenodd" d="M9.553 10.251q.013.127-.084.19a.3.3 0 0 1 .084-.19" clip-rule="evenodd" opacity=".188"/><path fill="#fff" fill-rule="evenodd" d="M13.418 10.415h.364v.054h-.364z" clip-rule="evenodd" opacity=".123"/><path fill="#fff" fill-rule="evenodd" d="M14.373 10.333a.25.25 0 0 1-.084.19q-.014-.125.084-.19" clip-rule="evenodd" opacity=".243"/><path fill="#fff" fill-rule="evenodd" d="M24.209 10.306q0 .084-.028.163l-.112.109a.28.28 0 0 1 .14-.272" clip-rule="evenodd" opacity=".443"/><path fill="#fff" fill-rule="evenodd" d="M2.826 10.523h-.14a.2.2 0 0 0-.14-.054.2.2 0 0 0-.14.054.6.6 0 0 1-.14.028.12.12 0 0 1 .056-.082.48.48 0 0 1 .504.054" clip-rule="evenodd" opacity=".361"/><path fill="#fff" fill-rule="evenodd" d="M9.608 10.142h.056a1 1 0 0 0-.042.164 3 3 0 0 1-.183.326.6.6 0 0 0 .028-.19q.099-.065.085-.19.07-.03.056-.11" clip-rule="evenodd" opacity=".796"/><path fill="#fff" fill-rule="evenodd" d="M12.999 9.897q-.541.365-.392 1.008l-.056-.028v-.136q-.007-.204.014-.408a.23.23 0 0 0 .07-.19q.108-.072.21-.164a.06.06 0 0 0 .014-.054h.028a.2.2 0 0 0 .112-.028" clip-rule="evenodd" opacity=".822"/><path fill="#fff" fill-rule="evenodd" d="M13.42 10.415v.054l-.085.109q.003.045.028.082a.13.13 0 0 1-.084-.11q.02-.12.14-.135" clip-rule="evenodd" opacity=".314"/><path fill="#fff" fill-rule="evenodd" d="M25.665 10.605h-.056q-.056 0-.056-.054a.2.2 0 0 1-.112-.027.2.2 0 0 0-.14-.055.2.2 0 0 0-.14.055.16.16 0 0 0-.084.027h-.028a.12.12 0 0 1 .056-.082.54.54 0 0 1 .532.068q.031.026.028.068" clip-rule="evenodd" opacity=".359"/><path fill="#fff" fill-rule="evenodd" d="M2.686 10.523h-.28a.2.2 0 0 1 .14-.054q.09.002.14.054" clip-rule="evenodd" opacity=".041"/><path fill="#fff" fill-rule="evenodd" d="M7.844 10.469h.14v.054q-.092.015-.14-.054" clip-rule="evenodd" opacity=".075"/><path fill="#fff" fill-rule="evenodd" d="M14.372 10.224v.109q-.098.065-.084.19v.028a.4.4 0 0 1-.225 0q.002-.04-.042-.055a.6.6 0 0 0-.21-.027h-.028v-.054q.2.023.393.081a.45.45 0 0 0 .14-.245q.028-.015.056-.027" clip-rule="evenodd" opacity=".955"/><path fill="#fff" fill-rule="evenodd" d="M14.736 10.469q.34-.026.645.054h-.645z" clip-rule="evenodd" opacity=".202"/><path fill="#fff" fill-rule="evenodd" d="M25.44 10.523h-.28a.2.2 0 0 1 .14-.054q.09.003.14.054" clip-rule="evenodd" opacity=".044"/><path fill="#fff" fill-rule="evenodd" d="M13.81 10.47a.6.6 0 0 1 .21.026q.045.014.043.055a1 1 0 0 1-.182-.027q-.058-.008-.07-.055" clip-rule="evenodd" opacity=".051"/><path fill="#fff" fill-rule="evenodd" d="M21.154 10.496a1 1 0 0 0-.448 0q-.042.57-.028 1.143a13 13 0 0 1-.028-1.197q.239-.007.476.013.024.015.028.041" clip-rule="evenodd" opacity=".88"/><path fill="#fff" fill-rule="evenodd" d="M8.403 10.333v.054a.2.2 0 0 1-.028.11q-.065.057-.14.108h-.028q-.001-.054-.056-.054a.6.6 0 0 1-.169-.027v-.055h.056q.117.048.253.055a.4.4 0 0 1 .112-.191" clip-rule="evenodd" opacity=".541"/><path fill="#fff" fill-rule="evenodd" d="M8.374 10.496q-.005.156-.14.109.077-.05.14-.109" clip-rule="evenodd" opacity=".096"/><path fill="#fff" fill-rule="evenodd" d="M16.866 10.469v.054q-.255.004-.532 0a.13.13 0 0 0-.113-.027v1.797h-.028v-1.824z" clip-rule="evenodd" opacity=".305"/><path fill="#fff" fill-rule="evenodd" d="M20.79 10.523q.012.547-.029 1.09h-.028a5.3 5.3 0 0 1 .056-1.09" clip-rule="evenodd" opacity=".022"/><path fill="#fff" fill-rule="evenodd" d="M5.684 10.442q.133.13.14.326h-.056z" clip-rule="evenodd" opacity=".216"/><path fill="#fff" fill-rule="evenodd" d="M6.581 10.387v.436a.06.06 0 0 1-.042-.027l-.014-.205q.002-.12.056-.204" clip-rule="evenodd" opacity=".165"/><path fill="#fff" fill-rule="evenodd" d="M8.15 10.55q.056 0 .056.055-.056 0-.056-.054" clip-rule="evenodd" opacity=".068"/><path fill="#fff" fill-rule="evenodd" d="M9.469 10.442a.6.6 0 0 1-.028.19v.027h-.056a.33.33 0 0 1 .084-.217" clip-rule="evenodd" opacity=".349"/><path fill="#fff" fill-rule="evenodd" d="M10.813 10.469q.123.12.14.3-.042 0-.056-.041a3 3 0 0 1-.085-.259" clip-rule="evenodd" opacity=".278"/><path fill="#fff" fill-rule="evenodd" d="M12.634 10.142a.23.23 0 0 1-.07.19 3 3 0 0 0-.014.41h-.056q-.007-.205.014-.41a.5.5 0 0 1 .126-.19" clip-rule="evenodd" opacity=".397"/><path fill="#fff" fill-rule="evenodd" d="M26.506 10.469q.07.027.056.109-.07-.028-.056-.11" clip-rule="evenodd" opacity=".312"/><path fill="#fff" fill-rule="evenodd" d="M2.266 10.55q0 .082-.084.082 0-.082.084-.082" clip-rule="evenodd" opacity=".09"/><path fill="#fff" fill-rule="evenodd" d="M2.715 10.523h.112a.5.5 0 0 0 .154.082.2.2 0 0 1 .014.109z" clip-rule="evenodd" opacity=".086"/><path fill="#fff" fill-rule="evenodd" d="M4.34 10.469q.02.139-.084.218a.4.4 0 0 1 .084-.218" clip-rule="evenodd" opacity=".239"/><path fill="#fff" fill-rule="evenodd" d="M7.45 10.469a.4.4 0 0 0-.056.136q-.045-.045-.014-.109a.08.08 0 0 1 .07-.027" clip-rule="evenodd" opacity=".231"/><path fill="#fff" fill-rule="evenodd" d="M14.063 10.55q.115.031.224 0v.082a.23.23 0 0 1-.225-.081" clip-rule="evenodd" opacity=".173"/><path fill="#fff" fill-rule="evenodd" d="M14.765 9.843h2.102v.626h-.673v1.824h-.756q.014-.93-.028-1.851.083.897.056 1.823h.672v-1.823h.7V9.87h-2.045v.572a3 3 0 0 1-.028-.599" clip-rule="evenodd" opacity=".876"/><path fill="#fff" fill-rule="evenodd" d="M15.41 10.442h-.617V9.87h2.046v.572h-.7v1.823h-.673q.028-.926-.056-1.823" clip-rule="evenodd"/><path fill="#fff" fill-rule="evenodd" d="M17.959 9.789q.084.76.056 1.551h-.056z" clip-rule="evenodd" opacity=".104"/><path fill="#fff" fill-rule="evenodd" d="M21.154 10.496a.37.37 0 0 1 .224.054l.168.273a1 1 0 0 1 .028.204q-.001.106-.056.177a.65.65 0 0 0-.196-.599q-.056 0-.056-.055a7 7 0 0 0-.477-.027 5.3 5.3 0 0 0-.056 1.089q-.015.034-.056.027-.014-.571.028-1.143a1 1 0 0 1 .449 0" clip-rule="evenodd" opacity=".263"/><path fill="#fff" fill-rule="evenodd" d="M24.18 10.469a1.9 1.9 0 0 0-.056 1.089h-.056v-.027q0-.055-.056-.055v-.082q.055-.33 0-.653v-.027q.074-.043.056-.136z" clip-rule="evenodd" opacity=".98"/><path fill="#fff" fill-rule="evenodd" d="M7.395 10.605q.12.006.196.082a.6.6 0 0 1-.196-.028z" clip-rule="evenodd" opacity=".165"/><path fill="#fff" fill-rule="evenodd" d="M13.334 10.578q.115.036.196.109a.6.6 0 0 1-.168-.027.15.15 0 0 1-.028-.082" clip-rule="evenodd" opacity=".178"/><path fill="#fff" fill-rule="evenodd" d="M3.246 9.925q.203.136.336.34a2.2 2.2 0 0 1-.477.45.3.3 0 0 1 .042-.11q.104-.105.225-.19.133-.099.07-.245a.8.8 0 0 0-.168-.136z" clip-rule="evenodd" opacity=".153"/><path fill="#fff" fill-rule="evenodd" d="M14.736 9.843h.028q-.014.307.028.599h.617q.042.923.028 1.85-.042.008-.056-.027v-1.742a2 2 0 0 0-.645-.054z" clip-rule="evenodd" opacity=".403"/><path fill="#fff" fill-rule="evenodd" d="M1.285 10.605q.015.08-.056.109-.014-.08.056-.109" clip-rule="evenodd" opacity=".378"/><path fill="#fff" fill-rule="evenodd" d="M10.224 10.877h-.056v-.027a.2.2 0 0 0-.029-.136.3.3 0 0 0-.056.19v.028h-.056q.034-.135.056-.273h.112q.004.111.028.218" clip-rule="evenodd" opacity=".769"/><path fill="#fff" fill-rule="evenodd" d="M24.069 10.578q.018.093-.056.136-.016-.09.056-.136" clip-rule="evenodd" opacity=".284"/><path fill="#fff" fill-rule="evenodd" d="M26.563 10.605q.07.027.056.109-.07-.028-.056-.109" clip-rule="evenodd" opacity=".204"/><path fill="#fff" fill-rule="evenodd" d="M2.154 10.714q0 .054-.056.054 0-.054.056-.054" clip-rule="evenodd" opacity=".037"/><path fill="#fff" fill-rule="evenodd" d="M2.994 10.714h.112q-.005.044-.056.054-.05-.01-.056-.054" clip-rule="evenodd" opacity=".12"/><path fill="#fff" fill-rule="evenodd" d="M7.617 10.687q.08-.012.14.027a.1.1 0 0 1-.07.027q-.058-.008-.07-.054" clip-rule="evenodd" opacity=".239"/><path fill="#fff" fill-rule="evenodd" d="M7.844 10.714q.064-.003.084.054-.07.009-.084-.054" clip-rule="evenodd" opacity=".045"/><path fill="#fff" fill-rule="evenodd" d="M9.384 10.687q0 .054-.056.054 0-.054.056-.054" clip-rule="evenodd" opacity=".055"/><path fill="#fff" fill-rule="evenodd" d="M13.615 10.687a.65.65 0 0 1 .28.081.7.7 0 0 1-.224-.027q-.05-.01-.056-.054" clip-rule="evenodd" opacity=".157"/><path fill="#fff" fill-rule="evenodd" d="M13.363 10.66q.082.025.168.027h.085q.005.044.056.054a.7.7 0 0 0 .224.027h.028q.044.072.14.055.072.06.168.081h.056a.15.15 0 0 1 .028.082 2.6 2.6 0 0 0-.476-.177.9.9 0 0 1-.477-.15" clip-rule="evenodd" opacity=".665"/><path fill="#fff" fill-rule="evenodd" d="M18.632 9.843h.027q.007.817-.014 1.633-.16.313-.518.204a.14.14 0 0 1-.084-.095h.056q.047.002.084.027.027.05.098.055.07-.004.098-.055h.028q.146.03.14-.109.016-.08.028-.163.084-.734.056-1.497" clip-rule="evenodd" opacity=".439"/><path fill="#fff" fill-rule="evenodd" d="M25.049 10.55h.028a1.3 1.3 0 0 0-.224.327.3.3 0 0 1 .028-.163q.065-.098.168-.164" clip-rule="evenodd" opacity=".112"/><path fill="#fff" fill-rule="evenodd" d="M25.61 10.605h.055a.38.38 0 0 1 .113.3 2.4 2.4 0 0 0-.169-.3" clip-rule="evenodd" opacity=".125"/><path fill="#fff" fill-rule="evenodd" d="M4.254 10.687q.014.08-.056.109-.015-.08.056-.11" clip-rule="evenodd" opacity=".214"/><path fill="#fff" fill-rule="evenodd" d="M4.34 10.442h.056l-.07.326a.09.09 0 0 1-.098.055.34.34 0 0 1-.056.217v-.136a.2.2 0 0 1 .028-.108q.07-.028.056-.11.105-.078.084-.217z" clip-rule="evenodd" opacity=".994"/><path fill="#fff" fill-rule="evenodd" d="M7.395 10.66q.094.029.196.027h.028q.012.046.07.054.045 0 .07-.027h.084q.014.063.084.054h.056v.055a4 4 0 0 0-.336-.041 1.6 1.6 0 0 1-.252-.123" clip-rule="evenodd" opacity=".722"/><path fill="#fff" fill-rule="evenodd" d="M7.982 10.769q.083-.015.113.054h-.113z" clip-rule="evenodd" opacity=".016"/><path fill="#fff" fill-rule="evenodd" d="M10.168 10.85a.06.06 0 0 1-.042-.027.15.15 0 0 1-.042.081.3.3 0 0 1 .056-.19.2.2 0 0 1 .028.136" clip-rule="evenodd" opacity=".078"/><path fill="#fff" fill-rule="evenodd" d="M13.924 10.769q.095-.018.14.054-.095.017-.14-.055" clip-rule="evenodd" opacity=".022"/><path fill="#fff" fill-rule="evenodd" d="M5.825 10.769q.06.019.056.081-.065-.013-.056-.081" clip-rule="evenodd" opacity=".084"/><path fill="#fff" fill-rule="evenodd" d="M12.494 10.741h.056v.163q-.075-.058-.056-.163" clip-rule="evenodd" opacity=".153"/><path fill="#fff" fill-rule="evenodd" d="M5.77 10.769h.056q-.01.067.056.081a.6.6 0 0 1 .028.136.33.33 0 0 1-.14-.217" clip-rule="evenodd" opacity=".306"/><path fill="#fff" fill-rule="evenodd" d="M8.15 10.823q.114-.005.169.082a.19.19 0 0 1-.169-.082" clip-rule="evenodd" opacity=".431"/><path fill="#fff" fill-rule="evenodd" d="M14.063 10.823q.12-.02.168.082a.4.4 0 0 1-.168-.082" clip-rule="evenodd" opacity=".443"/><path fill="#fff" fill-rule="evenodd" d="M10.953 10.823q.098.064.084.19a.23.23 0 0 1-.084-.19" clip-rule="evenodd" opacity=".194"/><path fill="#fff" fill-rule="evenodd" d="M8.096 10.823h.056q.06.082.168.081.084 0 .084.082a.44.44 0 0 1-.308-.163" clip-rule="evenodd" opacity=".784"/><path fill="#fff" fill-rule="evenodd" d="M10.169 10.877h.056v.109q-.07-.027-.056-.109" clip-rule="evenodd" opacity=".012"/><path fill="#fff" fill-rule="evenodd" d="M6.582 10.85q.143.129.224.3a.38.38 0 0 1-.224-.3" clip-rule="evenodd" opacity=".514"/><path fill="#fff" fill-rule="evenodd" d="M10.027 10.932h.056q.01.068-.056.081z" clip-rule="evenodd" opacity=".078"/><path fill="#fff" fill-rule="evenodd" d="M14.29 10.905q.083 0 .083.081h-.056a.15.15 0 0 0-.028-.082" clip-rule="evenodd" opacity=".18"/><path fill="#fff" fill-rule="evenodd" d="M21.546 10.823a.4.4 0 0 1 .056.217l-.028.218a.3.3 0 0 1-.084.136.6.6 0 0 0 .028-.19.3.3 0 0 0 .056-.177 1 1 0 0 0-.028-.204" clip-rule="evenodd" opacity=".711"/><path fill="#fff" fill-rule="evenodd" d="M1.453 10.306a2.04 2.04 0 0 0-.168 1.116h-.056v-.708q.07-.028.056-.109a.3.3 0 0 1 .028-.163q.065-.013.056-.082a.13.13 0 0 1 .084-.054" clip-rule="evenodd" opacity=".704"/><path fill="#fff" fill-rule="evenodd" d="M5.18 11.15h-.056a.63.63 0 0 0-.14-.354v-.137h.084q.019.256.113.49" clip-rule="evenodd" opacity=".424"/><path fill="#fff" fill-rule="evenodd" d="M10.225 10.959q.086.07.084.19h-.056q-.015-.08-.028-.163z" clip-rule="evenodd" opacity=".51"/><path fill="#fff" fill-rule="evenodd" d="m12.551 10.877.056.028.028.109h-.056a.2.2 0 0 1-.028-.11z" clip-rule="evenodd" opacity=".18"/><path fill="#fff" fill-rule="evenodd" d="m22.246 10.578.112.136q.055.367 0 .735l-.112.082a1.4 1.4 0 0 0 0-.953" clip-rule="evenodd" opacity=".627"/><path fill="#fff" fill-rule="evenodd" d="M4.956 10.932q.018.093-.056.136-.018-.094.056-.136" clip-rule="evenodd" opacity=".016"/><path fill="#fff" fill-rule="evenodd" d="M8.402 10.986a.18.18 0 0 1 .14.136.5.5 0 0 1-.14-.136" clip-rule="evenodd" opacity=".14"/><path fill="#fff" fill-rule="evenodd" d="M9.3 10.905a.3.3 0 0 1-.084.217q-.02-.14.084-.217" clip-rule="evenodd" opacity=".227"/><path fill="#fff" fill-rule="evenodd" d="M12.578 11.013h.056v.055q-.056 0-.056-.055" clip-rule="evenodd" opacity=".011"/><path fill="#fff" fill-rule="evenodd" d="M24.853 10.877v.327a.25.25 0 0 1-.056-.164.25.25 0 0 1 .056-.163" clip-rule="evenodd" opacity=".212"/><path fill="#fff" fill-rule="evenodd" d="M25.777 10.932q.053.034.056.108-.002.075-.056.11z" clip-rule="evenodd" opacity=".434"/><path fill="#fff" fill-rule="evenodd" d="m26.45 10.415.055.027v.027q-.014.08.056.109v.027q-.014.08.056.109v.054a1.6 1.6 0 0 0 0 .6v.08q-.065.015-.056.082v.028h-.056a2.15 2.15 0 0 0-.056-1.143" clip-rule="evenodd" opacity=".863"/><path fill="#fff" fill-rule="evenodd" d="M26.62 10.769q.056.3 0 .598a1.6 1.6 0 0 1 0-.598" clip-rule="evenodd" opacity=".229"/><path fill="#fff" fill-rule="evenodd" d="M1.228 10.741v.49h-.056q-.007-.232.014-.463a.06.06 0 0 1 .042-.027" clip-rule="evenodd" opacity=".221"/><path fill="#fff" fill-rule="evenodd" d="M4.171 10.905v.136a.15.15 0 0 1-.084.081q-.02-.14.084-.217" clip-rule="evenodd" opacity=".278"/><path fill="#fff" fill-rule="evenodd" d="M24.012 10.741q.056.323 0 .653a1.9 1.9 0 0 1 0-.653" clip-rule="evenodd" opacity=".312"/><path fill="#fff" fill-rule="evenodd" d="M9.382 10.66h.057q-.122.24-.155.517a4 4 0 0 0-.21.38v-.135q.105-.079.084-.218.066-.013.056-.082a.3.3 0 0 0 .084-.218q.015-.08.028-.163.056 0 .056-.054z" clip-rule="evenodd" opacity=".958"/><path fill="#fff" fill-rule="evenodd" d="M11.037 11.013q.176.242.224.545l-.182-.354a.5.5 0 0 1-.042-.19" clip-rule="evenodd" opacity=".302"/><path fill="#fff" fill-rule="evenodd" d="M12.635 11.068q.084 0 .084.082a.1.1 0 0 1-.084-.082" clip-rule="evenodd" opacity=".078"/><path fill="#fff" fill-rule="evenodd" d="M4.088 11.122v.082h-.056q-.009-.069.056-.082" clip-rule="evenodd" opacity=".065"/><path fill="#fff" fill-rule="evenodd" d="M4.9 11.095v.109q.127.006.252-.014a.06.06 0 0 1-.028-.04h.056v.027a.47.47 0 0 1-.308.054.18.18 0 0 1 .028-.136" clip-rule="evenodd" opacity=".02"/><path fill="#fff" fill-rule="evenodd" d="M5.908 10.986q.15.235.225.517-.104-.135-.183-.3a.5.5 0 0 1-.042-.217" clip-rule="evenodd" opacity=".427"/><path fill="#fff" fill-rule="evenodd" d="M9.215 11.122q.01.069-.056.082-.009-.069.056-.082" clip-rule="evenodd" opacity=".122"/><path fill="#fff" fill-rule="evenodd" d="M12.719 11.15q.056 0 .056.054-.056 0-.056-.055" clip-rule="evenodd" opacity=".057"/><path fill="#fff" fill-rule="evenodd" d="M14.456 11.068a.15.15 0 0 1 .084.136l-.056-.027a.12.12 0 0 1-.028-.11" clip-rule="evenodd" opacity=".188"/><path fill="#fff" fill-rule="evenodd" d="M24.882 10.714a.3.3 0 0 0-.028.163.25.25 0 0 0-.056.163q.001.1.056.164v.163l-.056-.027a1.3 1.3 0 0 1 0-.544.14.14 0 0 1 .084-.082" clip-rule="evenodd" opacity=".822"/><path fill="#fff" fill-rule="evenodd" d="M10.252 11.15h.056v.054a.64.64 0 0 1-.365 0 .05.05 0 0 1 .056-.027.3.3 0 0 0 .127.027q.082-.003.126-.055" clip-rule="evenodd" opacity=".025"/><path fill="#fff" fill-rule="evenodd" d="M4.985 10.796a.18.18 0 0 1-.028.136q-.074.043-.057.136v.027a.18.18 0 0 0-.028.136.47.47 0 0 0 .309-.054q.07.027.056.109h-.42q.014-.173.055-.34a.23.23 0 0 1 .113-.15" clip-rule="evenodd" opacity=".166"/><path fill="#fff" fill-rule="evenodd" d="M6.945 11.204q.412.146.841.231.127.1.056.245a.66.66 0 0 1-.294.068 1.1 1.1 0 0 1-.435-.068q-.061-.03-.056-.095l.169.027q.014.063.084.055h.028q.004.024.028.04l.182.014a.3.3 0 0 0 .182-.054.18.18 0 0 0 .084-.136q-.067-.095-.196-.082h-.056q-.03-.069-.112-.055h-.112a.33.33 0 0 0-.225-.081.6.6 0 0 0-.168-.11" clip-rule="evenodd" opacity=".91"/><path fill="#fff" fill-rule="evenodd" d="M13.167 11.367a1.3 1.3 0 0 1-.308-.095.2.2 0 0 1-.056-.068q.001-.022.028-.027a.6.6 0 0 0 .252.109q.063.026.084.081" clip-rule="evenodd" opacity=".263"/><path fill="#fff" fill-rule="evenodd" d="M6.807 11.15q.08.011.14.054.095.043.168.109-.22.021-.308-.164" clip-rule="evenodd" opacity=".118"/><path fill="#fff" fill-rule="evenodd" d="M10.029 11.013a.26.26 0 0 1-.028.164.05.05 0 0 0-.056.027.64.64 0 0 0 .364 0q.065.013.056.082h-.448a.32.32 0 0 1 .112-.273" clip-rule="evenodd" opacity=".623"/><path fill="#fff" fill-rule="evenodd" d="M9.158 11.204q.021.139-.084.218a.6.6 0 0 1 .084-.218" clip-rule="evenodd" opacity=".114"/><path fill="#fff" fill-rule="evenodd" d="M1.171 11.231h.056v.136q-.073-.043-.056-.136" clip-rule="evenodd" opacity=".029"/><path fill="#fff" fill-rule="evenodd" d="M25.78 11.231a.3.3 0 0 1-.015.136q-.017.051-.07.054a.27.27 0 0 1 .084-.19" clip-rule="evenodd" opacity=".171"/><path fill="#fff" fill-rule="evenodd" d="M2.182 10.632a.15.15 0 0 1-.028.082q-.056 0-.056.054-.057.3 0 .6-.069-.045-.07-.137a1.3 1.3 0 0 1 0-.38q-.012-.173.154-.219" clip-rule="evenodd" opacity=".243"/><path fill="#fff" fill-rule="evenodd" d="M7.113 11.313q.132 0 .224.081a.27.27 0 0 1-.224-.081" clip-rule="evenodd" opacity=".137"/><path fill="#fff" fill-rule="evenodd" d="M3.19 11.503a.11.11 0 0 1-.084-.068.24.24 0 0 0-.112-.013q.03-.075.112-.041.069.046.084.122" clip-rule="evenodd" opacity=".234"/><path fill="#fff" fill-rule="evenodd" d="M4.03 11.204h.055q-.023.094-.042.19l-.028-.027a.5.5 0 0 1-.07.19v-.108a.6.6 0 0 1 .084-.245" clip-rule="evenodd" opacity=".925"/><path fill="#fff" fill-rule="evenodd" d="M14.54 11.258q.075.043.057.136-.074-.043-.056-.136" clip-rule="evenodd" opacity=".327"/><path fill="#fff" fill-rule="evenodd" d="M21.518 11.204a.6.6 0 0 1-.028.19q-.015.034-.056.028z" clip-rule="evenodd" opacity=".073"/><path fill="#fff" fill-rule="evenodd" d="M7.45 11.394q.082-.013.111.055-.083.014-.112-.055" clip-rule="evenodd" opacity=".253"/><path fill="#fff" fill-rule="evenodd" d="M13.39 11.394q.096-.017.14.055-.095.017-.14-.055" clip-rule="evenodd" opacity=".369"/><path fill="#fff" fill-rule="evenodd" d="M24.854 11.231q.079.09.084.218a.15.15 0 0 1-.084-.082z" clip-rule="evenodd" opacity=".196"/><path fill="#fff" fill-rule="evenodd" d="m14.485 11.177.056.027v.054q-.018.094.056.137v.19q-.077.072-.056.19v.055a.13.13 0 0 1-.084.054q.096-.348.028-.707" clip-rule="evenodd" opacity=".89"/><path fill="#fff" fill-rule="evenodd" d="M3.947 11.449v.054H3.89q0-.054.056-.054" clip-rule="evenodd" opacity=".025"/><path fill="#fff" fill-rule="evenodd" d="M6.89 11.503h-.14q.008.069-.057.082a.24.24 0 0 0 .028-.136q.11-.02.169.054" clip-rule="evenodd" opacity=".075"/><path fill="#fff" fill-rule="evenodd" d="M8.542 11.122q.041 0 .056.04a.5.5 0 0 1 .028.205v.327a.3.3 0 0 1-.028.163q-.056 0-.056.054v.028a.3.3 0 0 0-.112.081q.087-.171.154-.354.03-.276-.042-.544" clip-rule="evenodd" opacity=".574"/><path fill="#fff" fill-rule="evenodd" d="M12.83 11.503h-.111q.005-.044.056-.054.051.01.056.054" clip-rule="evenodd" opacity=".118"/><path fill="#fff" fill-rule="evenodd" d="M21.434 11.422q0 .081-.084.081.012-.067.084-.081" clip-rule="evenodd" opacity=".031"/><path fill="#fff" fill-rule="evenodd" d="M7.617 11.449q.13-.014.196.082a.24.24 0 0 1-.196-.082" clip-rule="evenodd" opacity=".043"/><path fill="#fff" fill-rule="evenodd" d="M8.627 11.367a.25.25 0 0 1 .056.163.25.25 0 0 1-.056.164z" clip-rule="evenodd" opacity=".129"/><path fill="#fff" fill-rule="evenodd" d="M12.916 11.476q.056.027 0 0" clip-rule="evenodd" opacity=".01"/><path fill="#fff" fill-rule="evenodd" d="M26.62 11.449q.009.069-.056.081-.01-.068.056-.081" clip-rule="evenodd" opacity=".041"/><path fill="#fff" fill-rule="evenodd" d="M1.229 11.422h.056v.108q-.07-.027-.056-.108" clip-rule="evenodd" opacity=".047"/><path fill="#fff" fill-rule="evenodd" d="M9.076 11.449v.109a.15.15 0 0 1-.084.081q-.014-.126.084-.19" clip-rule="evenodd" opacity=".176"/><path fill="#fff" fill-rule="evenodd" d="M16.335 10.523q-.03.053-.07 0-.007.919-.042 1.824v-1.851a.13.13 0 0 1 .112.027" clip-rule="evenodd" opacity=".082"/><path fill="#fff" fill-rule="evenodd" d="M17.96 11.34h.055q.054.118.084.245h-.056a.36.36 0 0 1-.084-.245" clip-rule="evenodd" opacity=".165"/><path fill="#fff" fill-rule="evenodd" d="M24.012 11.476q.056 0 .056.054-.056 0-.056-.054" clip-rule="evenodd" opacity=".033"/><path fill="#fff" fill-rule="evenodd" d="M2.993 11.422a.5.5 0 0 1-.112.15.14.14 0 0 1-.084.013.33.33 0 0 1 .196-.163" clip-rule="evenodd" opacity=".097"/><path fill="#fff" fill-rule="evenodd" d="M13.728 11.53q.051.064 0 .137h-.056a.16.16 0 0 0 .056-.136" clip-rule="evenodd" opacity=".037"/><path fill="#fff" fill-rule="evenodd" d="M24.938 11.449a.5.5 0 0 1 .14.136q-.126-.015-.14-.136" clip-rule="evenodd" opacity=".231"/><path fill="#fff" fill-rule="evenodd" d="M6.918 11.503q.099.004.14.082h-.112a.15.15 0 0 0-.028-.082" clip-rule="evenodd" opacity=".443"/><path fill="#fff" fill-rule="evenodd" d="M25.693 11.422q.007.251-.224.19a.9.9 0 0 0 .224-.19" clip-rule="evenodd" opacity=".863"/><path fill="#fff" fill-rule="evenodd" d="M18.546 11.503q.006.14-.14.109.03-.037.084-.027-.009-.069.056-.082" clip-rule="evenodd" opacity=".349"/><path fill="#fff" fill-rule="evenodd" d="M26.508 11.558h.056q.009.068-.056.081z" clip-rule="evenodd" opacity=".106"/><path fill="#fff" fill-rule="evenodd" d="M2.182 11.503q.09.065.196.109-.028 0-.028.027-.135-.007-.168-.136" clip-rule="evenodd" opacity=".463"/><path fill="#fff" fill-rule="evenodd" d="M7.227 11.612q.063-.003.084.055-.07.008-.084-.055" clip-rule="evenodd" opacity=".024"/><path fill="#fff" fill-rule="evenodd" d="M12.719 11.503q.012.126-.085.19-.012-.124.085-.19" clip-rule="evenodd" opacity=".271"/><path fill="#fff" fill-rule="evenodd" d="M13 11.585a.38.38 0 0 1 .252.082.6.6 0 0 1-.21-.028Q13 11.625 13 11.585" clip-rule="evenodd" opacity=".157"/><path fill="#fff" fill-rule="evenodd" d="m13.559 11.449.224.027q.02.118-.056.19.051-.072 0-.136a.21.21 0 0 1-.168-.081" clip-rule="evenodd" opacity=".251"/><path fill="#fff" fill-rule="evenodd" d="M14.596 11.585q.02.118-.056.19-.021-.117.056-.19" clip-rule="evenodd" opacity=".388"/><path fill="#fff" fill-rule="evenodd" d="M17.175 11.585q.074.043.056.136-.072-.046-.056-.136" clip-rule="evenodd" opacity=".161"/><path fill="#fff" fill-rule="evenodd" d="M18.184 11.612h.196q-.027.051-.098.054-.07-.003-.098-.054" clip-rule="evenodd" opacity=".056"/><path fill="#fff" fill-rule="evenodd" d="M19.361 11.53h.056q.018.094-.056.137z" clip-rule="evenodd" opacity=".058"/><path fill="#fff" fill-rule="evenodd" d="M21.35 11.503a.08.08 0 0 1-.028.068.2.2 0 0 0-.112.055q-.067.03-.112-.014.123-.05.252-.109" clip-rule="evenodd" opacity=".498"/><path fill="#fff" fill-rule="evenodd" d="M25.106 11.585q.165.034.336.027a.2.2 0 0 1-.14.055l-.14-.014q-.054-.017-.056-.068" clip-rule="evenodd" opacity=".055"/><path fill="#fff" fill-rule="evenodd" d="M6.133 11.53q.08.09.084.218H6.16a1 1 0 0 1-.028-.217" clip-rule="evenodd" opacity=".312"/><path fill="#fff" fill-rule="evenodd" d="M24.068 11.558h.056q.007.096.028.19a.19.19 0 0 1-.084-.19" clip-rule="evenodd" opacity=".043"/><path fill="#fff" fill-rule="evenodd" d="M2.798 11.585a.11.11 0 0 1-.056.095 1.2 1.2 0 0 1-.364 0 .06.06 0 0 1-.028-.04q0-.028.028-.028h.028q.05.052.14.055a.2.2 0 0 0 .14-.055.2.2 0 0 1 .112-.027" clip-rule="evenodd" opacity=".461"/><path fill="#fff" fill-rule="evenodd" d="M2.406 11.612h.28a.2.2 0 0 1-.14.055.2.2 0 0 1-.14-.055" clip-rule="evenodd" opacity=".052"/><path fill="#fff" fill-rule="evenodd" d="M3.273 11.585q.154.093.295.218a.14.14 0 0 1-.014.136q-.071.06-.14.109a1 1 0 0 1 .084-.177 3 3 0 0 0-.225-.286" clip-rule="evenodd" opacity=".107"/><path fill="#fff" fill-rule="evenodd" d="M6.889 11.503h.028a.15.15 0 0 1 .028.082.35.35 0 0 0-.168-.027.44.44 0 0 1-.14.326.6.6 0 0 0 .028-.136l.028-.163q.065-.013.056-.082z" clip-rule="evenodd" opacity=".804"/><path fill="#fff" fill-rule="evenodd" d="M7.73 11.667a.3.3 0 0 1-.182.054l-.182-.014a.06.06 0 0 1-.028-.04z" clip-rule="evenodd" opacity=".216"/><path fill="#fff" fill-rule="evenodd" d="M13.644 11.667a.3.3 0 0 1-.183.054.3.3 0 0 1-.182-.054q.173-.008.365 0" clip-rule="evenodd" opacity=".241"/><path fill="#fff" fill-rule="evenodd" d="M1.313 11.694q.04-.008.056.027v.054q-.06-.019-.056-.081" clip-rule="evenodd" opacity=".02"/><path fill="#fff" fill-rule="evenodd" d="M1.37 11.72q.069.075.14.164.03.05.027.11a.34.34 0 0 1-.168-.219z" clip-rule="evenodd" opacity=".443"/><path fill="#fff" fill-rule="evenodd" d="M3.89 11.503h.057v.055q-.132.309-.252.626h-.056q.132-.337.252-.68" clip-rule="evenodd" opacity=".404"/><path fill="#fff" fill-rule="evenodd" d="M22.358 11.449q-.05.198-.154.38a.2.2 0 0 1-.126.082.94.94 0 0 0 .168-.38z" clip-rule="evenodd" opacity=".098"/><path fill="#fff" fill-rule="evenodd" d="M19.361 11.694q.014.126-.084.19v-.027a.4.4 0 0 1 .084-.163" clip-rule="evenodd" opacity=".192"/><path fill="#fff" fill-rule="evenodd" d="M24.152 11.776q.042-.008.056.027v.027q-.056 0-.056-.054" clip-rule="evenodd" opacity=".025"/><path fill="#fff" fill-rule="evenodd" d="M26.507 11.694a.15.15 0 0 1-.084.136q-.011-.102.084-.136" clip-rule="evenodd" opacity=".012"/><path fill="#fff" fill-rule="evenodd" d="M6.217 11.748q.098.066.084.19a.3.3 0 0 1-.084-.19" clip-rule="evenodd" opacity=".114"/><path fill="#fff" fill-rule="evenodd" d="M8.992 11.667a.4.4 0 0 1-.14.299.6.6 0 0 1 .084-.259q.014-.042.056-.04" clip-rule="evenodd" opacity=".227"/><path fill="#fff" fill-rule="evenodd" d="M10.618 11.993h-.056v-.081H9.72a.18.18 0 0 1-.028.136h-.056a.15.15 0 0 1 .028-.082v-.109q.463-.014.925.027.03.05.028.11" clip-rule="evenodd" opacity=".362"/><path fill="#fff" fill-rule="evenodd" d="M17.23 11.721h.056q.007.096.028.19-.052-.003-.07-.054a.3.3 0 0 1-.014-.136" clip-rule="evenodd" opacity=".01"/><path fill="#fff" fill-rule="evenodd" d="M6.665 11.748a.6.6 0 0 1-.028.136 1 1 0 0 0-.084.19q.06.07.112.137a2 2 0 0 1-.196-.04l.07-.232a.5.5 0 0 1 .126-.19" clip-rule="evenodd" opacity=".361"/><path fill="#fff" fill-rule="evenodd" d="M8.599 11.857q0 .054-.056.054 0-.054.056-.054" clip-rule="evenodd" opacity=".049"/><path fill="#fff" fill-rule="evenodd" d="M24.208 11.83q.075.048.084.136-.093-.037-.084-.136" clip-rule="evenodd" opacity=".247"/><path fill="#fff" fill-rule="evenodd" d="M24.209 11.83v-.027a.17.17 0 0 1 .112.054q.09.1.14.218a.16.16 0 0 0-.084-.027q0-.055-.056-.055-.028 0-.028-.027a.18.18 0 0 0-.084-.136" clip-rule="evenodd" opacity=".878"/><path fill="#fff" fill-rule="evenodd" d="M26.505 11.64v.054q-.095.034-.084.136a3 3 0 0 1-.112.163q-.056 0-.056.055a1 1 0 0 0-.168.15.47.47 0 0 1-.28.095 2.4 2.4 0 0 0 .308-.218q.224-.202.392-.436" clip-rule="evenodd" opacity=".376"/><path fill="#fff" fill-rule="evenodd" d="M22.078 11.912q0 .081-.084.081.013-.067.084-.081" clip-rule="evenodd" opacity=".188"/><path fill="#fff" fill-rule="evenodd" d="M11.262 11.585a.33.33 0 0 1 .112.163l.112.354h-.056a11 11 0 0 0-.168-.517" clip-rule="evenodd" opacity=".314"/><path fill="#fff" fill-rule="evenodd" d="M17.315 11.912q.145.018.14.163a.23.23 0 0 1-.14-.163" clip-rule="evenodd" opacity=".502"/><path fill="#fff" fill-rule="evenodd" d="M10.56 11.993h.057v.055q-.057 0-.057-.055" clip-rule="evenodd" opacity=".049"/><path fill="#fff" fill-rule="evenodd" d="M24.32 11.993q.056 0 .056.055-.056 0-.056-.055" clip-rule="evenodd" opacity=".03"/><path fill="#fff" fill-rule="evenodd" d="M26.31 11.993a.08.08 0 0 1-.056.055q0-.055.056-.055" clip-rule="evenodd" opacity=".01"/><path fill="#fff" fill-rule="evenodd" d="M1.537 11.993a.1.1 0 0 1 .084.082q-.084 0-.084-.082" clip-rule="evenodd" opacity=".047"/><path fill="#fff" fill-rule="evenodd" d="M6.3 11.966q.099.065.085.19a.3.3 0 0 1-.084-.19" clip-rule="evenodd" opacity=".137"/><path fill="#fff" fill-rule="evenodd" d="M19.275 11.857v.027a.13.13 0 0 1-.014.082.34.34 0 0 0-.126.136.5.5 0 0 1-.168.109q.066-.087.154-.163.009-.154.154-.19" clip-rule="evenodd" opacity=".163"/><path fill="#fff" fill-rule="evenodd" d="M9.637 12.048h.056q.011.076-.056.108z" clip-rule="evenodd" opacity=".08"/><path fill="#fff" fill-rule="evenodd" d="M1.621 12.075q.056 0 .056.054-.056 0-.056-.054" clip-rule="evenodd" opacity=".016"/><path fill="#fff" fill-rule="evenodd" d="M14.54 11.83a.5.5 0 0 1-.337.38q.078-.08.168-.162.038-.087.084-.164a.13.13 0 0 0 .084-.054" clip-rule="evenodd" opacity=".039"/><path fill="#fff" fill-rule="evenodd" d="M21.996 11.993a.18.18 0 0 1-.14.136.5.5 0 0 1 .083-.122.07.07 0 0 1 .057-.014" clip-rule="evenodd" opacity=".02"/><path fill="#fff" fill-rule="evenodd" d="M1.678 12.13a.6.6 0 0 1 .14.027.8.8 0 0 1 .168.136.4.4 0 0 1-.308-.164" clip-rule="evenodd" opacity=".152"/><path fill="#fff" fill-rule="evenodd" d="M8.542 11.939a.15.15 0 0 1-.028.081.7.7 0 0 0-.168.164.22.22 0 0 1-.168.081q.072-.06.14-.136l.112-.109a.3.3 0 0 1 .112-.081" clip-rule="evenodd" opacity=".088"/><path fill="#fff" fill-rule="evenodd" d="M12.636 11.694a1.6 1.6 0 0 1-.14.38q.066.075.14.137-.154.009-.196-.123.056-.223.196-.394" clip-rule="evenodd" opacity=".158"/><path fill="#fff" fill-rule="evenodd" d="M3.416 12.048a.27.27 0 0 1-.225.163.27.27 0 0 1 .225-.163" clip-rule="evenodd" opacity=".231"/><path fill="#fff" fill-rule="evenodd" d="M17.453 12.075q.087.067.168.136-.135-.009-.168-.136" clip-rule="evenodd" opacity=".157"/><path fill="#fff" fill-rule="evenodd" d="M21.826 12.13q.005.035-.028.054-.105.034-.196.082v-.055q.056 0 .056-.054.085 0 .168-.028" clip-rule="evenodd" opacity=".239"/><path fill="#fff" fill-rule="evenodd" d="M24.377 12.048q.047.002.084.027.135.067.224.19a.9.9 0 0 1-.308-.217" clip-rule="evenodd" opacity=".196"/><path fill="#fff" fill-rule="evenodd" d="M12.635 12.21h.084v.055q-.07.009-.084-.054" clip-rule="evenodd" opacity=".069"/><path fill="#fff" fill-rule="evenodd" d="M17.623 12.21a.6.6 0 0 1 .14.028v.055q-.098-.004-.14-.082" clip-rule="evenodd" opacity=".255"/><path fill="#fff" fill-rule="evenodd" d="m5.517 12.21.112.083v.054q-.143.005-.112-.136" clip-rule="evenodd" opacity=".059"/><path fill="#fff" fill-rule="evenodd" d="M6.664 12.211a.6.6 0 0 1 .21.027q.044.014.042.055a1 1 0 0 1-.182-.028q-.058-.008-.07-.054" clip-rule="evenodd" opacity=".596"/><path fill="#fff" fill-rule="evenodd" d="M14.203 12.21q-.042.079-.14.083.033-.092.14-.082" clip-rule="evenodd" opacity=".22"/><path fill="#fff" fill-rule="evenodd" d="M18.967 12.21q0 .042-.042.055a1 1 0 0 0-.21.082l.056-.109q.096-.02.196-.027" clip-rule="evenodd" opacity=".165"/><path fill="#fff" fill-rule="evenodd" d="M21.603 12.21v.055a1.2 1.2 0 0 1-.224.028.32.32 0 0 1 .224-.082" clip-rule="evenodd" opacity=".318"/><path fill="#fff" fill-rule="evenodd" d="M3.639 12.184h.056a.08.08 0 0 1-.028.068q.363.02.728.013-.37.041-.756.028z" clip-rule="evenodd" opacity=".742"/><path fill="#fff" fill-rule="evenodd" d="M6.162 11.748h.056a.3.3 0 0 0 .084.19v.028a.3.3 0 0 0 .084.19q.029 0 .028.028a.12.12 0 0 0-.028.109H5.63l-.112-.082a.5.5 0 0 1-.028-.163q-.001-.055-.056-.055v-.136q.04.018.07.055a.76.76 0 0 0 .126.34q.363.02.728.013a9 9 0 0 1-.196-.517" clip-rule="evenodd" opacity=".747"/><path fill="#fff" fill-rule="evenodd" d="M9.663 11.966a.15.15 0 0 0-.028.082v.109q-.093.032-.084.136h-.784v-.11q-.01-.068.056-.08a.24.24 0 0 1-.028.135q.363.04.728.027.016-.18.14-.299" clip-rule="evenodd" opacity=".742"/><path fill="#fff" fill-rule="evenodd" d="M11.43 12.102h.056q.02.094.028.19H10.7v-.136q.04.045.028.11.35.006.7-.014a.12.12 0 0 0 0-.15" clip-rule="evenodd" opacity=".745"/><path fill="#fff" fill-rule="evenodd" d="M11.486 12.102q.14.117.028.245v-.054a1.4 1.4 0 0 0-.028-.19" clip-rule="evenodd" opacity=".076"/><path fill="#fff" fill-rule="evenodd" d="M12.719 12.21q.456.104.925.11-.287.04-.589.027h-.056q-.029-.069-.112-.054a.35.35 0 0 1-.168-.028z" clip-rule="evenodd" opacity=".973"/><path fill="#fff" fill-rule="evenodd" d="M2.014 12.293q.083-.015.112.054-.084.014-.112-.054" clip-rule="evenodd" opacity=".288"/><path fill="#fff" fill-rule="evenodd" d="M5.433 11.857v.054h-.84a1 1 0 0 1-.113.409q-.447.04-.896.027-.018-.094.056-.136v.082q.386.013.756-.028a.84.84 0 0 0 .168-.394q.435-.021.87-.014" clip-rule="evenodd" opacity=".257"/><path fill="#fff" fill-rule="evenodd" d="M6.414 12.184a.26.26 0 0 1 .028.163h-.813v-.054h.757a.12.12 0 0 1 .028-.11" clip-rule="evenodd" opacity=".261"/><path fill="#fff" fill-rule="evenodd" d="M8.068 12.293q0 .054-.056.054 0-.054.056-.054" clip-rule="evenodd" opacity=".063"/><path fill="#fff" fill-rule="evenodd" d="M9.636 12.157a1.4 1.4 0 0 1-.028.19H8.71q-.02-.102.056-.163v.109h.785q-.011-.105.084-.136" clip-rule="evenodd" opacity=".256"/><path fill="#fff" fill-rule="evenodd" d="M10.618 12.048q.062.038.084.108v.137h.812v.054q-.42.007-.84-.014a.6.6 0 0 1-.056-.285" clip-rule="evenodd" opacity=".26"/><path fill="#fff" fill-rule="evenodd" d="M12.887 12.293q.083-.015.112.054-.084.014-.112-.054" clip-rule="evenodd" opacity=".253"/><path fill="#fff" fill-rule="evenodd" d="M14.035 12.293q-.048.069-.14.054.044-.072.14-.054" clip-rule="evenodd" opacity=".222"/><path fill="#fff" fill-rule="evenodd" d="M15.38 12.266q.015.034.056.027h.785v.054q-.42.007-.84-.013-.054-.04 0-.068" clip-rule="evenodd" opacity=".265"/><path fill="#fff" fill-rule="evenodd" d="M17.791 12.293q.084-.015.112.054-.083.014-.112-.054" clip-rule="evenodd" opacity=".29"/><path fill="#fff" fill-rule="evenodd" d="M17.762 12.238q.505.108 1.009 0-.03.055-.056.11h-.084q-.347-.012-.701 0h-.028q-.03-.07-.112-.055h-.028z" clip-rule="evenodd" opacity=".967"/><path fill="#fff" fill-rule="evenodd" d="M19.892 9.816v2.477h1.457a5 5 0 0 1-.729.054q-.375 0-.742-.027-.035-1.26.014-2.504" clip-rule="evenodd" opacity=".264"/><path fill="#fff" fill-rule="evenodd" d="M24.824 12.293q.095-.018.14.054-.095.017-.14-.054" clip-rule="evenodd" opacity=".429"/><path fill="#fff" fill-rule="evenodd" d="M1.816 12.157q.19.045.365.136.222.04.448.027a2 2 0 0 1-.476.027h-.028q-.03-.069-.112-.054h-.028a.8.8 0 0 0-.169-.136" clip-rule="evenodd" opacity=".803"/><path fill="#fff" fill-rule="evenodd" d="M3.19 12.21q0 .042-.043.055a1.1 1.1 0 0 1-.294.096 3 3 0 0 1-.7-.014 2 2 0 0 0 .476-.027q.149.005.294-.027a.7.7 0 0 1 .266-.082" clip-rule="evenodd" opacity=".439"/><path fill="#fff" fill-rule="evenodd" d="M8.32 12.13q-.068.075-.14.135a.13.13 0 0 1-.112.028q-.056 0-.056.054h-.084q-.33.014-.645-.027.31.013.617-.027.217-.069.42-.164" clip-rule="evenodd" opacity=".247"/><path fill="#fff" fill-rule="evenodd" d="M6.973 12.293q.155.009.308.027.315.04.644.027a4 4 0 0 1-.784.014.22.22 0 0 1-.168-.069" clip-rule="evenodd" opacity=".449"/><path fill="#fff" fill-rule="evenodd" d="M13.643 12.32a.37.37 0 0 1 .196.027 3 3 0 0 1-.784 0q.302.013.588-.027" clip-rule="evenodd" opacity=".453"/><path fill="#fff" fill-rule="evenodd" d="M18.63 12.347a2.3 2.3 0 0 1-.7 0q.355-.01.7 0" clip-rule="evenodd" opacity=".463"/><path fill="#fff" fill-rule="evenodd" d="M25.806 12.293a.22.22 0 0 1-.169.068 2.8 2.8 0 0 1-.672-.014q.418-.033.84-.054" clip-rule="evenodd" opacity=".459"/><path fill="#fff" fill-rule="evenodd" d="M7.058 13.028h-.953q.223-.055.477-.055.255 0 .476.055" clip-rule="evenodd" opacity=".138"/><path fill="#fff" fill-rule="evenodd" d="M17.566 12.973h.084l.084.109q-.527-.131-.869.272a.46.46 0 0 1 .365-.34q.175-.007.336-.04" clip-rule="evenodd" opacity=".992"/><path fill="#fff" fill-rule="evenodd" d="M6.608 13.273q-.09.022-.168.054h-.084a.47.47 0 0 0 .112.395.22.22 0 0 0-.126.177q-.015.217-.028.435a.2.2 0 0 1-.127.027v-1.224q.373-.02.757-.028a.12.12 0 0 1-.056.123 1.4 1.4 0 0 0-.28.04" clip-rule="evenodd"/><path fill="#fff" fill-rule="evenodd" d="M7.059 13.027q.106.15 0 .3z" clip-rule="evenodd" opacity=".034"/><path fill="#fff" fill-rule="evenodd" d="M20.872 12.81h.197a.12.12 0 0 0 .056.122q-.041.194-.029.395.558-.097.645.435a1.2 1.2 0 0 1-.14-.245.6.6 0 0 0-.14-.081.84.84 0 0 0-.42-.055v-.517h-.14q-.036-.013-.029-.054" clip-rule="evenodd" opacity=".283"/><path fill="#fff" fill-rule="evenodd" d="M17.65 12.973q.271.017.21.272-.004.08-.07.11.006-.138.029-.273h-.084z" clip-rule="evenodd" opacity=".075"/><path fill="#fff" fill-rule="evenodd" d="M18.659 13.218q.032.03.042.082.021.408.014.816a3.6 3.6 0 0 1-.056-.898" clip-rule="evenodd" opacity=".011"/><path fill="#fff" fill-rule="evenodd" d="M20.901 12.864h.14v.517q-.052-.003-.07-.054a2 2 0 0 1-.014-.327.2.2 0 0 0-.126.028q-.021.657 0 1.306a.35.35 0 0 0 .322.136.8.8 0 0 0 .309-.054.5.5 0 0 1 .168-.136.6.6 0 0 0-.112.19q-.37.051-.729 0a22 22 0 0 1-.028-1.551q.096.017.14-.055" clip-rule="evenodd" opacity=".93"/><path fill="#fff" fill-rule="evenodd" d="M17.736 13.082h.084q-.022.135-.028.272a9 9 0 0 1-.378-.054.4.4 0 0 0-.238.054q0-.062.056-.095.252-.02.504-.014z" clip-rule="evenodd" opacity=".941"/><path fill="#fff" fill-rule="evenodd" d="M6.105 13.027h.953v.3h-.616q.078-.033.168-.055.155.007.308-.013a.2.2 0 0 0 .056-.177 6 6 0 0 0-.784.027 7.6 7.6 0 0 0 0 1.306q.104.062.182-.027.006-.246.042-.49a5 5 0 0 1 .476-.04.21.21 0 0 0 0-.205q.053.042.056.123a.3.3 0 0 1-.056.15h-.448q.014.286-.028.571a1 1 0 0 1-.309.027z" clip-rule="evenodd" opacity=".507"/><path fill="#fff" fill-rule="evenodd" d="M10.422 13.463a2 2 0 0 0-.14-.068 3 3 0 0 0-.673.014q.017-.06.084-.068.31-.029.617 0 .094.03.112.122" clip-rule="evenodd" opacity=".096"/><path fill="#fff" fill-rule="evenodd" d="M11.877 14.09q.083.012.112-.055a.73.73 0 0 0-.196-.626 1.6 1.6 0 0 0-.56 0 .12.12 0 0 1 .083-.068q.728-.156.743.558.03.021.042.054a1 1 0 0 1-.084.15q-.08.03-.14-.014" clip-rule="evenodd" opacity=".631"/><path fill="#fff" fill-rule="evenodd" d="M13 13.654h.224v-.272q-.28-.007-.56.013a.4.4 0 0 1-.085.095q-.047.202-.014.409.058.075.126.136a.14.14 0 0 1-.112-.028q-.315-.393.112-.666.283-.033.56.013a.55.55 0 0 1 .015.3.19.19 0 0 1-.154.054q-.079-.003-.112-.055" clip-rule="evenodd" opacity=".369"/><path fill="#fff" fill-rule="evenodd" d="M14.09 13.327a.28.28 0 0 1-.195.081q.002-.05.056-.068a.4.4 0 0 1 .14-.013" clip-rule="evenodd" opacity=".192"/><path fill="#fff" fill-rule="evenodd" d="M14.316 13.327a.45.45 0 0 1 .21.027.55.55 0 0 1-.013.3v-.273q-.122.021-.197-.054" clip-rule="evenodd" opacity=".057"/><path fill="#fff" fill-rule="evenodd" d="M17.734 13.082v.163q-.253-.006-.505.014a.11.11 0 0 0-.056.095.16.16 0 0 0-.154.082q-.08.3 0 .599.043.099.154.108v.055a.24.24 0 0 0 .225.082 3 3 0 0 1 .364-.028v.136a1.3 1.3 0 0 1-.673.014 1.5 1.5 0 0 1-.308-.286 1 1 0 0 1-.056-.354q.01-.19.028-.38a.2.2 0 0 0 .112-.028q.341-.404.869-.272" clip-rule="evenodd"/><path fill="#fff" fill-rule="evenodd" d="M20.2 13.381h-.391a.06.06 0 0 1 .028-.04l.182-.014q.11 0 .182.054" clip-rule="evenodd" opacity=".018"/><path fill="#fff" fill-rule="evenodd" d="M14.092 13.327h.224q.075.075.196.054v.272h-.168q-.108-.095-.252-.027a.55.55 0 0 1 .336-.054.15.15 0 0 0-.056-.15 1.2 1.2 0 0 0-.365 0 .52.52 0 0 0-.14.476q-.045-.004-.056-.054a1 1 0 0 1-.028-.136q.03-.155.084-.3h.028a.28.28 0 0 0 .197-.081" clip-rule="evenodd" opacity=".859"/><path fill="#fff" fill-rule="evenodd" d="M18.548 12.864a.25.25 0 0 1-.196.054q-.006.668.014 1.334.011.131.14.163a.13.13 0 0 1 .014.082h.225q0-.084.028-.163a1.3 1.3 0 0 1-.127-.19q-.02-.64-.014-1.28.067.06.085.15a.37.37 0 0 0-.056.204q-.028.465.056.898a.13.13 0 0 0 .084.109v.272a.17.17 0 0 1-.112.109.6.6 0 0 0-.225-.068.3.3 0 0 1-.14-.204V12.89a.7.7 0 0 0 .168-.081q.044.014.056.054" clip-rule="evenodd" opacity=".342"/><path fill="#fff" fill-rule="evenodd" d="M6.105 13.028v1.497a.06.06 0 0 1-.042-.028l-.014-.735q0-.382.056-.734" clip-rule="evenodd" opacity=".025"/><path fill="#fff" fill-rule="evenodd" d="M8.71 13.381h.365v.272h-.364a.9.9 0 0 1 .308-.027.3.3 0 0 0-.028-.163 1 1 0 0 1-.28-.082" clip-rule="evenodd" opacity=".827"/><path fill="#fff" fill-rule="evenodd" d="M17.175 13.354a.71.71 0 0 0-.07.708q.027.03.07.027v.055a.17.17 0 0 1-.154-.11 1.14 1.14 0 0 1 0-.598.16.16 0 0 1 .154-.082" clip-rule="evenodd"/><path fill="#fff" fill-rule="evenodd" d="M18.548 12.864h.084q-.007.64.014 1.28.054.1.126.19a.5.5 0 0 0-.028.163h-.224a.13.13 0 0 0-.014-.082q-.13-.032-.14-.163-.023-.666-.015-1.334a.25.25 0 0 0 .197-.054" clip-rule="evenodd" opacity=".954"/><path fill="#fff" fill-rule="evenodd" d="M18.436 13h.14q.004.15-.027.3.03.435.042.87.14.14-.014.246a.225.225 0 0 1-.155-.218q-.034-.601.014-1.198m-9.725.381q.129.06.28.082a.3.3 0 0 1 .028.163.9.9 0 0 0-.308.027q-.006.273.014.545.017.023.042.027l.028.055a.5.5 0 0 0 .224.027v.163q-.182.007-.364-.014a.4.4 0 0 0-.112-.136 4.3 4.3 0 0 1-.028-1.156h.14a.28.28 0 0 0 .056.217" clip-rule="evenodd"/><path fill="#fff" fill-rule="evenodd" d="M11.991 14.035q-.309-.007-.616.013a.1.1 0 0 0-.028.041.4.4 0 0 1 .084.163q-.225-.146 0-.3a.7.7 0 0 1-.183-.135.22.22 0 0 1 .07-.218q-.036-.044-.084-.014-.056.145-.126.286a.7.7 0 0 0 0 .272q.07.087.098.191-.187-.14-.14-.381a.49.49 0 0 1 .154-.463.13.13 0 0 0 .014-.081q.281-.051.56 0 .247.264.197.626m-.364-.327q.027 0 .028.027a.26.26 0 0 1-.224.055v-.082z" clip-rule="evenodd" opacity=".999"/><path fill="#fff" fill-rule="evenodd" d="M11.401 13.436a.9.9 0 0 1 .337.04q.083.095.182.177a.37.37 0 0 1-.014.245.26.26 0 0 1-.14.028 5 5 0 0 1-.014-.3.53.53 0 0 0-.393-.027.2.2 0 0 1 .042-.163" clip-rule="evenodd"/><path fill="#fff" fill-rule="evenodd" d="M6.441 13.327h.617a3 3 0 0 1-.56.027v.218h.504q.026.172 0 .354H6.89a.3.3 0 0 0 .056-.15q-.003-.081-.056-.123a2.2 2.2 0 0 0-.449-.027z" clip-rule="evenodd" opacity=".246"/><path fill="#fff" fill-rule="evenodd" d="M13.223 13.572v.081h-.225q-.126-.015-.084.082.19.05.309.19a1.7 1.7 0 0 0-.435-.136q-.041-.184.155-.19a.8.8 0 0 0 .28-.027" clip-rule="evenodd" opacity=".612"/><path fill="#fff" fill-rule="evenodd" d="M20.874 12.81q-.007.04.027.054-.044.072-.14.055-.014.778.028 1.551a11.5 11.5 0 0 1-.056-1.606.17.17 0 0 0 .14-.054" clip-rule="evenodd" opacity=".534"/><path fill="#fff" fill-rule="evenodd" d="M8.431 13.082q-.014.6.028 1.197a.6.6 0 0 0 .14.19q.25.042.505.028v.055h-.421a.32.32 0 0 1-.294-.245l-.014-.613q0-.321.056-.612" clip-rule="evenodd" opacity=".231"/><path fill="#fff" fill-rule="evenodd" d="M14.232 13.653h.281q-.036.05-.112.055a.23.23 0 0 1-.169-.055" clip-rule="evenodd" opacity=".058"/><path fill="#fff" fill-rule="evenodd" d="M18.324 12.891v1.443a.06.06 0 0 1-.042-.027l-.014-.708q0-.369.056-.708" clip-rule="evenodd" opacity=".107"/><path fill="#fff" fill-rule="evenodd" d="M13.867 13.409a2 2 0 0 0-.084.3q.01.067.028.135.01.05.056.055a.18.18 0 0 1 .084.136q-.233-.077-.224-.327 0-.187.14-.3" clip-rule="evenodd" opacity=".184"/><path fill="#fff" fill-rule="evenodd" d="M20.201 13.68q.065.194.056.409l-.014.3a.06.06 0 0 1-.042.027z" clip-rule="evenodd" opacity=".01"/><path fill="#fff" fill-rule="evenodd" d="M6.609 13.272q.132-.034.28-.04a.12.12 0 0 0 .056-.123q-.384.009-.757.027v1.225a.2.2 0 0 0 .126-.027l.028-.436a.22.22 0 0 1 .126-.176.47.47 0 0 1-.112-.395h.084v.3q.228-.01.449.026a.21.21 0 0 1 0 .205 5 5 0 0 0-.477.04 4 4 0 0 0-.042.49q-.078.09-.182.028a7.6 7.6 0 0 1 0-1.307 6 6 0 0 1 .785-.027.2.2 0 0 1-.056.177q-.154.02-.308.013" clip-rule="evenodd"/><path fill="#fff" fill-rule="evenodd" d="M17.567 12.973a2 2 0 0 1-.337.041.46.46 0 0 0-.364.34.2.2 0 0 1-.112.027q-.018.19-.028.381a1 1 0 0 0 .056.354q.036.107.056.218a.08.08 0 0 1-.07-.027.5.5 0 0 1-.084-.245 3 3 0 0 1 0-.572.7.7 0 0 1 .476-.517.84.84 0 0 1 .407 0" clip-rule="evenodd" opacity=".509"/><path fill="#fff" fill-rule="evenodd" d="M17.791 13.354q-.027.05-.098.055a.46.46 0 0 0-.518.054.63.63 0 0 0 0 .626.08.08 0 0 1-.07-.027.71.71 0 0 1 .07-.708q.105-.063.238-.054.189.03.378.054" clip-rule="evenodd" opacity=".315"/><path fill="#fff" fill-rule="evenodd" d="M9.608 13.408v1.116h.28v.028h-.336q-.028-.587.056-1.144" clip-rule="evenodd" opacity=".128"/><path fill="#fff" fill-rule="evenodd" d="M19.584 13.381h-.337q-.014.41.029.817a.26.26 0 0 0 .168.218.15.15 0 0 1 .028.081l.056.055a.24.24 0 0 1-.112-.014.54.54 0 0 1-.21-.313 6 6 0 0 1 0-.844l.041-.04.169-.014q.102.002.168.054" clip-rule="evenodd" opacity=".068"/><path fill="#fff" fill-rule="evenodd" d="M8.851 14.225h-.084a.06.06 0 0 1-.042-.027q-.02-.272-.014-.545h.365v-.272H8.71v-.3h-.25a.47.47 0 0 1 .308-.053v.299q.165-.012.323.027.006.09.07.15a.24.24 0 0 0-.056.204h-.337q-.006.217.014.435.045.036.07.082" clip-rule="evenodd" opacity=".215"/><path fill="#fff" fill-rule="evenodd" d="M11.625 13.708h-.196v.082a.26.26 0 0 0 .224-.055q.07.028.056.11h-.364q-.034-.198.168-.192.078.003.112.055" clip-rule="evenodd" opacity=".218"/><path fill="#fff" fill-rule="evenodd" d="M14.344 13.653h-.112q-.079-.01-.07.055.161.078.322.163.05.044.056.11a.7.7 0 0 0-.224-.083q0-.04-.043-.054l-.21-.082a.24.24 0 0 1 .028-.136q.144-.067.253.027" clip-rule="evenodd" opacity=".139"/><path fill="#fff" fill-rule="evenodd" d="M20.145 13.381h.056v1.035a.13.13 0 0 1-.028.108.45.45 0 0 1-.196.028h-.448l-.056-.055q.338.01.672-.027z" clip-rule="evenodd" opacity=".215"/><path fill="#fff" fill-rule="evenodd" d="M10.422 13.463q.1.03.126.136.021.476.014.953h-.392q.006-.382-.014-.762-.075-.14-.21-.041a.23.23 0 0 1 0 .204v.163a.9.9 0 0 1 0-.435q.135-.06.252.027.042.393.028.79h.28q.007-.45-.014-.899a2 2 0 0 0-.07-.136" clip-rule="evenodd" opacity=".404"/><path fill="#fff" fill-rule="evenodd" d="M14.092 13.626a.24.24 0 0 0-.028.136l.21.082q.044.014.042.054.25.18.127.463a.36.36 0 0 1-.337.109l-.21-.014q-.056-.067 0-.136a.6.6 0 0 1 .252.014q.079.006.112-.054v-.164a.6.6 0 0 0-.308-.082.18.18 0 0 0-.084-.136.52.52 0 0 1 .14-.476q.182-.027.365 0a.15.15 0 0 1 .056.15.55.55 0 0 0-.337.054" clip-rule="evenodd"/><path fill="#fff" fill-rule="evenodd" d="M21.463 13.436q.075.03.14.081.06.137.14.245a3 3 0 0 1-.056.49l-.056.028q.045-.3.014-.6z" clip-rule="evenodd" opacity=".899"/><path fill="#fff" fill-rule="evenodd" d="M11.234 13.409a.13.13 0 0 1-.014.081.49.49 0 0 0-.154.463q-.048.24.14.381.05.067.112.136.293.04.588.027-.24.071-.504.055a.42.42 0 0 1-.378-.327 1.24 1.24 0 0 1 .028-.626.6.6 0 0 1 .182-.19" clip-rule="evenodd" opacity=".561"/><path fill="#fff" fill-rule="evenodd" d="M20.734 12.864q-.028.817.056 1.606.358.051.729 0-.035.091-.14.082h-.477a.26.26 0 0 1-.21-.055 23 23 0 0 1 0-1.605.06.06 0 0 1 .042-.028" clip-rule="evenodd" opacity=".123"/><path fill="#fff" fill-rule="evenodd" d="M9.945 13.953q.06.026.056.095-.003.198 0 .395-.015.096-.112.109v-.027a.84.84 0 0 0 .056-.409z" clip-rule="evenodd" opacity=".01"/><path fill="#fff" fill-rule="evenodd" d="M12.943 13.599q-.195.006-.154.19.228.04.434.137.04.217.014.435-.141.084-.266.19h-.224a.4.4 0 0 0-.196-.081 1 1 0 0 1 0-.245q.205.054.42.055.056-.09 0-.191a2.4 2.4 0 0 1-.336-.19.65.65 0 0 1-.014-.327.45.45 0 0 1 .49-.109q.053.047 0 .095a.5.5 0 0 0-.168.041" clip-rule="evenodd"/><path fill="#fff" fill-rule="evenodd" d="M19.584 13.381v.191a1.5 1.5 0 0 0 .056.572.08.08 0 0 0 .028.067q.097.02.196.014v-.844h.28v1.09a5 5 0 0 1-.672.026.15.15 0 0 0-.028-.081.26.26 0 0 1-.168-.218 6 6 0 0 1-.028-.817z" clip-rule="evenodd" opacity=".965"/><path fill="#fff" fill-rule="evenodd" d="M19.81 13.381h.055v.844a.7.7 0 0 1-.196-.014.08.08 0 0 1-.028-.068q.07.057.14.028.042-.394.028-.79" clip-rule="evenodd" opacity=".215"/><path fill="#fff" fill-rule="evenodd" d="M19.586 13.381q.047.011.056.068.005.07-.056.096z" clip-rule="evenodd" opacity=".031"/><path fill="#fff" fill-rule="evenodd" d="M6.89 13.926h.112a2.4 2.4 0 0 1-.504.027q.007.285-.014.572a.7.7 0 0 1-.379 0 1 1 0 0 0 .309-.028q.042-.285.028-.571z" clip-rule="evenodd" opacity=".087"/><path fill="#fff" fill-rule="evenodd" d="M13.223 13.572a.8.8 0 0 1-.28.027.5.5 0 0 1 .168-.04q.051-.05 0-.096a.45.45 0 0 0-.49.109.65.65 0 0 0 .013.327q.161.108.337.19.054.101 0 .19a.12.12 0 0 0-.028-.108.36.36 0 0 1-.253-.136 1 1 0 0 1-.126-.136 1.1 1.1 0 0 1 .014-.409.4.4 0 0 0 .084-.095q.28-.02.56-.014z" clip-rule="evenodd" opacity=".98"/><path fill="#fff" fill-rule="evenodd" d="M11.43 14.252q.151.034.308.028.187.009.112.177-.195.027-.392 0a3 3 0 0 1-.252-.123.5.5 0 0 0-.098-.19.7.7 0 0 1 0-.273q.069-.141.126-.286.048-.03.084.014a.22.22 0 0 0-.07.218q.08.082.182.136-.223.152 0 .3m2.887-.355q.12.024.224.082.075.043.056.136a3 3 0 0 1-.056.3.7.7 0 0 0-.224.136h-.364a.25.25 0 0 0-.154-.082.35.35 0 0 1 .014-.231.4.4 0 0 1 .14-.014h.028q.12.078.28.055-.034.06-.112.054a.6.6 0 0 0-.252-.014q-.057.069 0 .136l.21.014a.36.36 0 0 0 .336-.109q.123-.283-.126-.463" clip-rule="evenodd"/><path fill="#fff" fill-rule="evenodd" d="M7.617 12.81q.396.01.295.38a.5.5 0 0 1-.155.123q.067.011.127.041.02.6.014 1.198h-.393q-.006-.6.014-1.198.196-.054 0-.109l-.07-.177.07-.176a.14.14 0 0 0 .098-.082" clip-rule="evenodd" opacity=".198"/><path fill="#fff" fill-rule="evenodd" d="M7.645 12.891q.12-.019.196.068a.36.36 0 0 1 0 .259q-.35.139-.294-.218a.6.6 0 0 0 .098-.109" clip-rule="evenodd"/><path fill="#fff" fill-rule="evenodd" d="M13.953 14.035q.168 0 .308.081v.164a.4.4 0 0 1-.28-.055q.116.013.224-.027a1.5 1.5 0 0 1-.252-.163" clip-rule="evenodd" opacity=".063"/><path fill="#fff" fill-rule="evenodd" d="M21.742 13.763q.047.168.014.353-.003.092-.07.136a3 3 0 0 0 .056-.49" clip-rule="evenodd" opacity=".159"/><path fill="#fff" fill-rule="evenodd" d="M10.422 13.463q.037.065.07.136.021.45.014.899h-.28q.014-.396-.028-.79a.24.24 0 0 0-.252-.027.9.9 0 0 0 0 .435.84.84 0 0 1-.056.409h-.28v-1.116q.335-.044.672-.014.074.032.14.068" clip-rule="evenodd" opacity=".778"/><path fill="#fff" fill-rule="evenodd" d="M10.252 13.436q.031.042.056.095.076.01.126.068.07.41.014.817-.07.048-.14 0a9 9 0 0 1-.042-.708q-.14-.156-.35-.095a.08.08 0 0 0-.028.068q-.075.018-.084.095.085.298.042.613-.117.113-.14-.055a6 6 0 0 1 0-.816.13.13 0 0 1 .07-.069q.237-.02.476-.013" clip-rule="evenodd"/><path fill="#fff" fill-rule="evenodd" d="M10.253 13.436q-.239-.007-.476.013a.13.13 0 0 0-.07.068 6 6 0 0 0 0 .817q.023.168.14.054.043-.315-.042-.612.009-.078.084-.095.014.39-.028.775-.128.047-.182-.068a5.4 5.4 0 0 1 .014-.952 1.5 1.5 0 0 1 .56 0" clip-rule="evenodd" opacity=".976"/><path fill="#fff" fill-rule="evenodd" d="M17.176 14.089a.4.4 0 0 1 .112.068q.14.02.28.014a.23.23 0 0 1-.154.054 2 2 0 0 1-.238-.027z" clip-rule="evenodd" opacity=".074"/><path fill="#fff" fill-rule="evenodd" d="M21.041 13.381a.84.84 0 0 1 .42.055q.09.118.183.245.03.3-.014.599a.5.5 0 0 0-.168.136.8.8 0 0 1-.309.054.35.35 0 0 1-.322-.136 20 20 0 0 1 0-1.307.2.2 0 0 1 .126-.027q-.007.164.014.327.018.051.07.054m.084.327q.13-.024.196.082.042.134.028.272a.2.2 0 0 0-.084.095.23.23 0 0 1-.14.068z" clip-rule="evenodd"/><path fill="#fff" fill-rule="evenodd" d="M21.126 14.28q.23-.002.224-.218a.25.25 0 0 0 .056-.163q-.013-.368-.336-.19-.042.25-.028.516a2 2 0 0 1-.014-.571.34.34 0 0 1 .126-.136q.097.08.224.095.027.03.042.068a1.3 1.3 0 0 1-.042.572 1 1 0 0 0-.182.054.1.1 0 0 1-.07-.027m0-.572q.13-.024.196.082.042.134.028.272a.2.2 0 0 0-.084.095.23.23 0 0 1-.14.068z" clip-rule="evenodd" opacity=".671"/><path fill="#fff" fill-rule="evenodd" d="M21.07 13.708h.057v.408a.8.8 0 0 1-.056-.408" clip-rule="evenodd" opacity=".022"/><path fill="#fff" fill-rule="evenodd" d="M21.35 14.062a.7.7 0 0 0-.027-.272q-.066-.106-.197-.082h-.056q.324-.177.337.19a.25.25 0 0 1-.056.164" clip-rule="evenodd" opacity=".565"/><path fill="#fff" fill-rule="evenodd" d="M8.431 13.082h.28v.3a.28.28 0 0 1-.056-.218h-.14q-.065.58.028 1.156a.4.4 0 0 1 .112.137q.182.02.365.013v-.163a.5.5 0 0 1-.224-.027l-.028-.055h.28q.045.132.056.272-.255.014-.505-.027a.6.6 0 0 1-.14-.19 13 13 0 0 1-.028-1.198" clip-rule="evenodd" opacity=".987"/><path fill="#fff" fill-rule="evenodd" d="M11.99 14.035q-.028.068-.112.054-.226-.014-.448.027.136.14.336.109l-.028.054a1.1 1.1 0 0 1-.308-.027.4.4 0 0 0-.084-.163.1.1 0 0 1 .028-.04 7 7 0 0 1 .616-.014" clip-rule="evenodd" opacity=".604"/><path fill="#fff" fill-rule="evenodd" d="M21.07 13.708a.8.8 0 0 0 .056.408v.11a.23.23 0 0 0 .14-.069.2.2 0 0 1 .085-.095q.004.216-.224.218-.064.003-.085-.055-.014-.266.028-.517" clip-rule="evenodd" opacity=".574"/><path fill="#fff" fill-rule="evenodd" d="M13.223 13.926q.056 0 .056.054a.86.86 0 0 1 0 .436q-.064.136-.224.136h-.084q.124-.106.266-.19a1.5 1.5 0 0 0-.014-.436" clip-rule="evenodd" opacity=".627"/><path fill="#fff" fill-rule="evenodd" d="M18.8 14.225q.053.035.057.109a.21.21 0 0 1-.056.163z" clip-rule="evenodd" opacity=".098"/><path fill="#fff" fill-rule="evenodd" d="M13.28 13.98a.28.28 0 0 1 .083.232.2.2 0 0 1-.084.204.86.86 0 0 0 0-.436" clip-rule="evenodd" opacity=".043"/><path fill="#fff" fill-rule="evenodd" d="M13.951 14.225a.4.4 0 0 0-.14.014.35.35 0 0 0-.014.231q.098.015.154.082h-.056a.26.26 0 0 1-.14-.028.55.55 0 0 1-.014-.299.14.14 0 0 1 .098-.054q.079-.008.112.054" clip-rule="evenodd" opacity=".29"/><path fill="#fff" fill-rule="evenodd" d="M14.595 14.116a.23.23 0 0 1 .014.19.14.14 0 0 1-.07.11q.036-.149.056-.3" clip-rule="evenodd" opacity=".214"/><path fill="#fff" fill-rule="evenodd" d="M12.944 14.17q.039.045.028.11a1.7 1.7 0 0 1-.42-.055 1 1 0 0 0 0 .245.4.4 0 0 1 .196.082 3 3 0 0 0-.253-.027.06.06 0 0 1-.042-.028.38.38 0 0 1 .042-.3l.084-.026q.132.03.267.054.07-.004.098-.054" clip-rule="evenodd" opacity=".427"/><path fill="#fff" fill-rule="evenodd" d="M19.444 14.416a1 1 0 0 0-.098-.218 11 11 0 0 1-.014-.79.35.35 0 0 1 .168.028q.035.34.042.68.021.287.294.19a.22.22 0 0 0 .07-.108l.028-.762a.14.14 0 0 1 .168 0q.03.49 0 .98a.4.4 0 0 1-.28 0 .36.36 0 0 1-.378 0" clip-rule="evenodd"/><path fill="#fff" fill-rule="evenodd" d="M19.585 13.572a.06.06 0 0 1 .042.027q.02.272.014.544a1.5 1.5 0 0 1-.056-.571" clip-rule="evenodd" opacity=".027"/><path fill="#fff" fill-rule="evenodd" d="M21.686 14.252q-.009.171-.168.218a.6.6 0 0 1 .112-.19z" clip-rule="evenodd" opacity=".045"/><path fill="#fff" fill-rule="evenodd" d="M17.624 14.17a.5.5 0 0 1 .224-.026.7.7 0 0 1 0 .367q-.31.12-.644.082a.06.06 0 0 1-.028-.041q.196.007.392-.014a.06.06 0 0 0 .028-.04l.224-.028a.65.65 0 0 0-.042-.272.26.26 0 0 0-.154-.027" clip-rule="evenodd" opacity=".12"/><path fill="#fff" fill-rule="evenodd" d="M7.563 13.381h.28v1.143h-.28z" clip-rule="evenodd" opacity=".953"/><path fill="#fff" fill-rule="evenodd" d="M7.618 13.436h.168q.007.462-.014.925-.087.162-.168 0a5 5 0 0 1 .014-.925" clip-rule="evenodd"/><path fill="#fff" fill-rule="evenodd" d="M9.102 14.552v-.055a1 1 0 0 0-.056-.272h-.14q.106-.108.224 0l.028.163a.25.25 0 0 1-.056.164" clip-rule="evenodd" opacity=".114"/><path fill="#fff" fill-rule="evenodd" d="M11.766 14.225h.14q.045.143 0 .272-.296.014-.589-.027a2 2 0 0 1-.112-.136q.118.064.252.123.196.027.393 0 .075-.167-.112-.178z" clip-rule="evenodd" opacity=".955"/><path fill="#fff" fill-rule="evenodd" d="M16.781 14.116q.132.163.309.286.33.082.672-.014v-.136a3 3 0 0 0-.364.027.24.24 0 0 1-.224-.081q.117.02.238.027a.23.23 0 0 0 .154-.054h.056a.26.26 0 0 1 .154.027.65.65 0 0 1 .042.272l-.224.027a.8.8 0 0 1-.336.014 2.3 2.3 0 0 1-.42-.177 1.4 1.4 0 0 0-.057-.218" clip-rule="evenodd" opacity=".714"/><path fill="#fff" fill-rule="evenodd" d="M14.54 14.416q-.045.165-.224.136a.7.7 0 0 1 .225-.136" clip-rule="evenodd" opacity=".082"/><path fill="#fff" fill-rule="evenodd" d="M16.838 14.334q.198.107.42.177a.8.8 0 0 0 .337-.014.06.06 0 0 1-.028.041q-.196.02-.393.014a.37.37 0 0 1-.336-.218" clip-rule="evenodd" opacity=".102"/><path fill="#fff" fill-rule="evenodd" d="M8.684 14.552h.336a.27.27 0 0 1-.168.054.27.27 0 0 1-.168-.054" clip-rule="evenodd" opacity=".02"/><path fill="#fff" fill-rule="evenodd" d="M11.402 14.552q.264.015.505-.055a.4.4 0 0 0 0-.272h-.112q.06-.074.168-.054.017.119.056.231a.16.16 0 0 1-.056.136q-.17.056-.35.068a.4.4 0 0 1-.21-.054" clip-rule="evenodd" opacity=".033"/><path fill="#fff" fill-rule="evenodd" d="M12.494 14.524q.128.009.252.028h.309a.4.4 0 0 1-.21.054.54.54 0 0 1-.35-.082" clip-rule="evenodd" opacity=".045"/><path fill="#fff" fill-rule="evenodd" d="M13.895 14.552h.42a.35.35 0 0 1-.196.054l-.196-.013a.06.06 0 0 1-.028-.041" clip-rule="evenodd" opacity=".049"/><path fill="#fff" fill-rule="evenodd" d="M19.557 14.552h.42a.4.4 0 0 1-.21.054.4.4 0 0 1-.21-.054" clip-rule="evenodd" opacity=".039"/><path fill="#fff" fill-rule="evenodd" d="M20.902 14.552h.477a.06.06 0 0 1-.028.04q-.21.029-.42 0a.06.06 0 0 1-.029-.04" clip-rule="evenodd" opacity=".029"/></svg>