<svg width="160" height="160" viewBox="0 0 160 160" fill="none" xmlns="http://www.w3.org/2000/svg">
<path d="M112.58 104.395C112.636 104.388 112.69 104.37 112.738 104.342C112.787 104.314 112.829 104.277 112.863 104.232C112.897 104.187 112.922 104.136 112.936 104.082C112.95 104.027 112.953 103.971 112.944 103.915C112.567 101.495 114.095 98.6887 116.69 98.6527C117.208 98.6455 117.558 98.6215 117.551 97.9887C117.395 84.0519 117.311 68.5487 117.193 54.1487C117.189 53.6975 117.193 52.5119 116.508 52.5919C113.254 52.9727 110.814 50.6615 110.578 47.4975C110.504 46.5063 110.734 46.3959 109.778 46.3975C90.7467 46.4255 68.5458 46.3215 50.1114 47.1807C49.2194 47.2223 48.7467 47.1239 48.6539 48.1303C48.4707 50.1119 46.9002 52.8575 44.7338 53.1159C43.7322 53.2359 43.9483 53.1959 43.9603 54.2359C44.1259 68.1727 44.4714 84.3255 44.6402 98.0831C44.6498 98.8463 47.0322 98.2335 48.4898 100.761C49.9474 103.288 48.1531 105.024 49.6211 105.001C63.4995 104.817 78.909 104.689 92.9011 104.611C93.039 104.611 93.1712 104.556 93.2687 104.459C93.3663 104.361 93.4211 104.229 93.4211 104.091C93.4211 103.953 93.3663 103.821 93.2687 103.723C93.1712 103.626 93.039 103.571 92.9011 103.571C79.8571 103.644 61.9834 103.841 50.1338 104.09C50.5587 101.247 48.5339 97.8223 45.6043 97.5303C45.3963 84.2223 45.1786 67.9879 44.945 53.9743C46.2167 53.5983 47.3463 52.8495 48.1878 51.8246C49.0292 50.7997 49.5438 49.546 49.6651 48.2255C69.7451 47.7063 89.4187 47.0527 109.559 47.3791C109.446 50.9231 112.782 53.7975 116.211 53.6055C116.491 68.2991 116.699 82.9151 116.466 97.6135C115.794 97.6907 115.143 97.8996 114.552 98.2282C113.96 98.5568 113.439 98.9987 113.018 99.5287C112.598 100.059 112.286 100.666 112.1 101.317C111.914 101.968 111.858 102.648 111.935 103.321C111.97 103.62 112.139 103.38 110.4 103.59C109.6 103.746 109.741 104.208 110.327 104.348C111.074 104.452 111.83 104.468 112.58 104.395Z" fill="#191919"/>
<path d="M93.3597 108.302C76.1861 108.449 58.1309 108.411 41.0293 108.821C40.7029 87.0712 39.9949 65.3896 39.8885 42.7728C39.8885 42.28 39.1045 42.2072 39.1045 42.7264C39.1045 64.5176 39.8413 86.7112 40.0077 108.38C40.0165 109.522 40.4589 109.772 41.4029 109.76C58.2141 109.554 76.3933 109.378 93.4477 109.298C94.0989 109.295 94.0053 108.297 93.3597 108.302Z" fill="#191919"/>
<path d="M121.04 42.1344C121.011 41.1432 120.61 40.9536 119.655 40.972C94.0545 41.4712 67.5569 41.4184 42.0777 41.692C41.6161 41.6968 41.5849 42.5224 42.0777 42.5224C67.8225 42.5088 94.4233 41.8216 120.127 42.0032C120.853 63.8776 120.811 86.696 121.167 108.13C117.763 108.218 113.546 108.282 110.411 108.524C109.996 108.556 109.893 109.269 110.359 109.297C112.461 109.422 118.599 109.164 121.084 109.089C122.153 109.057 122.275 108.674 122.262 107.834C121.924 85.9032 121.674 63.9816 121.04 42.1344Z" fill="#191919"/>
<path d="M65.879 56.0288C66.5798 55.9608 66.6318 53.9824 65.9206 53.8288C63.479 53.3024 57.3238 53.6144 54.6518 53.8288C53.8838 53.8912 53.8318 56.3087 54.6046 56.2471C58.3518 55.9631 62.439 56.3656 65.879 56.0288Z" fill="#191919"/>
<path d="M106.136 53.5488C104.066 53.2032 95.6707 53.3592 94.0739 53.8032C93.5547 53.9472 93.7539 55.6912 94.1203 55.8528C94.3795 55.9664 105.75 55.7688 106.054 55.6448C106.532 55.4496 106.766 53.6544 106.136 53.5488Z" fill="#191919"/>
<path d="M79.6855 85.8312C72.0855 86.1856 62.8639 86.2024 54.5375 86.7392C53.9151 86.7792 53.8111 87.8072 54.4855 87.8336C62.3623 88.1464 71.7991 87.296 79.7999 87.0192C80.6039 86.9912 80.4847 85.7936 79.6855 85.8312Z" fill="#191919"/>
<path d="M80.1889 78.308C74.3313 77.7888 59.8065 78.1336 53.8321 78.8272C53.2361 78.896 53.3601 79.8896 53.9569 79.8672C62.5249 79.5032 71.6593 79.42 80.1681 79.4672C80.2441 79.4686 80.3196 79.455 80.3902 79.4272C80.4609 79.3994 80.5255 79.3579 80.5801 79.3052C80.6348 79.2524 80.6786 79.1894 80.7089 79.1198C80.7392 79.0501 80.7555 78.9752 80.7569 78.8992C80.7583 78.8233 80.7447 78.7478 80.7169 78.6771C80.6891 78.6064 80.6476 78.5419 80.5949 78.4872C80.5421 78.4325 80.4791 78.3888 80.4095 78.3584C80.3398 78.3281 80.2649 78.3118 80.1889 78.3104V78.308Z" fill="#191919"/>
<path d="M79.9198 82.0847C79.5606 82.0319 57.2726 82.4951 54.3566 82.8375C54.2383 82.8551 54.1309 82.9162 54.0553 83.0089C53.9798 83.1015 53.9415 83.219 53.948 83.3384C53.9545 83.4578 54.0053 83.5704 54.0905 83.6543C54.1757 83.7382 54.2891 83.7872 54.4086 83.7919C59.0782 83.8959 76.323 83.8143 79.9774 83.1439C80.5286 83.0399 80.431 82.1599 79.9198 82.0847Z" fill="#191919"/>
<path d="M58.5901 99.0199C58.7365 99.5855 59.2445 99.7255 59.5189 99.2015C60.1504 97.9966 60.9088 96.8627 61.7813 95.8191C61.8173 96.5503 61.8613 97.2823 61.9317 98.0079C61.9449 98.145 62.0119 98.2712 62.1182 98.3588C62.2244 98.4464 62.3611 98.4882 62.4981 98.4751C63.0237 98.4247 62.8517 97.8935 64.2581 96.3999C64.3031 96.8741 64.3988 97.3421 64.5437 97.7959C64.588 97.8792 64.6541 97.949 64.735 97.9976C64.8159 98.0462 64.9085 98.0719 65.0029 98.0719C65.0973 98.0719 65.1899 98.0462 65.2708 97.9976C65.3517 97.949 65.4178 97.8792 65.4621 97.7959C65.7551 96.9697 66.2659 96.2381 66.9405 95.6783C67.0029 96.1199 67.4205 98.0215 68.2533 97.7071C70.7013 96.7915 73.2584 96.1998 75.8597 95.9471C75.9446 95.9388 76.0227 95.8972 76.0769 95.8313C76.131 95.7654 76.1568 95.6808 76.1485 95.5959C76.1402 95.511 76.0986 95.4329 76.0327 95.3788C75.9669 95.3246 75.8822 95.2988 75.7973 95.3071C73.235 95.296 70.6912 95.7405 68.2845 96.6199C67.9856 96.0716 67.8572 95.4465 67.9157 94.8247C67.9211 94.7387 67.9049 94.6528 67.8688 94.5747C67.8326 94.4965 67.7775 94.4286 67.7085 94.3771C67.6395 94.3256 67.5588 94.292 67.4736 94.2795C67.3884 94.267 67.3014 94.276 67.2205 94.3055C66.3829 94.7512 65.6696 95.3987 65.1453 96.1895C65.108 95.9403 65.0906 95.6886 65.0933 95.4367C65.0933 95.0791 64.6821 94.7447 64.3621 95.0271C63.8392 95.4896 63.3503 95.989 62.8989 96.5215C62.8201 95.8221 62.7803 95.1189 62.7797 94.4151C62.7797 93.8959 62.0885 93.8639 61.7989 94.1607C60.8985 95.0888 60.0944 96.1058 59.3989 97.1959C59.4789 95.7327 61.0965 90.1879 58.7037 91.2655C57.0181 92.0239 55.0405 97.3879 54.9165 99.2191C54.8853 99.6807 55.3565 99.8159 55.5125 99.3279C56.1525 97.3407 57.4893 94.0359 58.9269 92.5103C58.9117 94.5375 58.0005 96.7255 58.5901 99.0199Z" fill="#191919"/>
<path d="M92.3769 81.4C91.6865 82.0648 92.7505 86.0232 92.2969 86.4488C91.8433 86.8744 88.3537 87.8184 88.3273 89.0432C88.3009 90.268 91.4713 91.5744 91.7937 92.4256C92.1161 93.2768 89.7649 97.0072 90.2369 98.0704C90.7089 99.1336 95.2177 98.0968 95.8817 98.5896C96.5457 99.0824 96.8257 102.263 97.7601 102.491C98.6945 102.719 101.501 100.001 102.43 100.026C103.359 100.052 105.449 102.688 106.305 102.475C107.161 102.262 107.089 98.1384 107.707 97.7648C108.324 97.3912 111.748 97.6552 112.308 96.9912C112.868 96.3272 110.659 93.1312 111.135 92.2496C111.612 91.368 114.041 89.6096 113.88 88.576C113.719 87.5424 111.006 87.0816 110.55 86.3912C110.094 85.7008 111.068 81.4368 110.31 80.8504C109.551 80.264 105.811 81.4904 104.826 81.0104C103.84 80.5304 102.75 77.8416 101.521 77.944C100.561 78.024 99.1649 81.2072 97.8321 81.5032C96.4993 81.7992 93.0721 80.7312 92.3769 81.4ZM101.097 82.9048C105.48 82.7096 108.537 85.2192 109.003 89.536C110.083 99.524 94.2249 101.155 93.7033 90.6928C93.4665 86.0128 96.4129 83.1136 101.094 82.9048H101.097Z" fill="#71B6F6"/>
<path d="M59.0002 68.1959C59.0002 68.5223 54.7298 71.6359 54.849 72.1647C54.9682 72.6935 63.6122 72.2447 63.7578 71.7551C63.8309 69.2397 63.7076 66.7225 63.389 64.2263C63.2114 63.7463 53.5314 64.1855 53.5626 64.5535C53.5938 64.9215 59.0002 67.8687 59.0002 68.1959Z" fill="#71B6F6"/>
<path d="M109.047 71.7968C109.207 71.2264 104.766 68.7304 104.766 68.2768C104.766 67.8232 108.813 66.2008 108.596 65.6824C108.378 65.164 100.503 64.0824 100.294 64.9456C100.172 67.1951 100.234 69.451 100.481 71.6904C100.704 72.092 108.888 72.3728 109.047 71.7968Z" fill="#71B6F6"/>
<path d="M108.64 98.9319C108.12 98.7103 108.16 103.42 106.834 103.897C105.508 104.373 102.865 101.718 102.165 101.785C101.465 101.853 98.5652 104.515 96.9764 103.975C95.9364 103.622 95.1556 99.7879 94.9268 99.8551C94.698 99.9223 95.1036 111.582 95.3684 116.245C95.3722 116.326 95.3965 116.403 95.4389 116.471C95.4813 116.539 95.5405 116.595 95.6108 116.634C95.681 116.672 95.76 116.692 95.8401 116.691C95.9203 116.691 95.9988 116.669 96.0684 116.629C96.658 116.293 102.444 112.937 102.512 112.997C103.586 113.945 107.736 115.457 109.05 115.897C109.167 115.938 109.295 115.929 109.406 115.875C109.517 115.821 109.602 115.725 109.643 115.608C109.683 115.493 109.728 116.138 109.107 108.453C108.917 106.144 109.067 99.1151 108.64 98.9319Z" fill="#71B6F6"/>
<path d="M98.0896 70.0376C98.78 69.2232 98.6088 61.5808 98.0896 61.036C97.5704 60.4912 66.384 60.268 65.6896 61.036C65.1704 61.5544 65.3472 68.7304 66.084 69.6016C66.8208 70.4728 97.3952 70.8576 98.0896 70.0376ZM71.5464 63.7808C77.2536 63.4824 86.364 63.8224 92.5328 63.8608C93.1192 63.8648 93.5296 66.6416 92.1024 66.632C85.9904 66.5888 77.192 67.0552 71.5512 66.2424C70.9336 66.16 70.9336 63.8128 71.5464 63.7808Z" fill="#71B6F6"/>
<path d="M24.9224 65.384C22.3028 66.9332 20.4041 69.4575 19.6424 72.404C19.0416 74.7632 19.432 76.0392 21.8368 74.2296C24.1224 72.5104 27.0368 69.412 27.8448 66.7016C28.8544 63.3272 26.64 64.3608 24.9224 65.384Z" fill="#71B6F6"/>
<path d="M23.781 75.0136C21.9138 76.9392 20.021 81.3952 20.0866 84.0312C20.153 86.7448 21.2866 87.256 23.0858 84.7776C24.8453 82.3537 25.945 79.5143 26.277 76.5376C26.593 73.6952 26.3866 72.3264 23.781 75.0136Z" fill="#71B6F6"/>
<path d="M31.4288 55.1056C29.872 55.064 27.68 56.1952 26.24 57.4664C23.9568 59.4792 22.292 62.2376 23.1272 62.852C24.1456 63.6008 27.4296 61.7736 29.2544 60.304C31.2896 58.6664 32.6744 55.1384 31.4288 55.1056Z" fill="#71B6F6"/>
<path d="M7.04789 62.3951C7.03829 66.4527 8.83349 71.5151 11.9719 74.2191C16.0719 77.7519 15.5615 74.0095 14.7423 70.9823C13.7167 67.1863 12.5095 63.2791 10.1719 60.0863C7.51989 56.4615 7.05349 60.2111 7.04789 62.3951Z" fill="#71B6F6"/>
<path d="M20.2941 57.8656C20.4234 55.4958 20.128 53.122 19.4221 50.856C18.7157 48.5928 17.5389 46.4952 16.3093 50.0056C15.4698 52.3016 15.0788 54.7374 15.1573 57.1808C15.5117 64.88 19.7925 67.1432 20.2941 57.8656Z" fill="#71B6F6"/>
<path d="M148.48 70.484C149.519 69.1626 150.278 67.6434 150.711 66.019C151.143 64.3946 151.241 62.6991 150.996 61.036C150.393 56.9288 149.331 56.716 146.819 59.8896C145.069 62.1596 144.051 64.9081 143.899 67.7704C143.634 71.76 144.487 75.5344 148.48 70.484Z" fill="#71B6F6"/>
<path d="M143.447 58.1304C144.272 55.2524 144.089 52.1787 142.928 49.4192C142.265 47.6472 140.848 45.7016 139.846 48.5392C138.612 52.0432 138.897 56.992 141.132 60.052C142.025 61.28 143.276 58.6544 143.447 58.1304Z" fill="#71B6F6"/>
<path d="M126.449 37.0968C128.835 37.1368 130.377 38.0568 130.929 41.1176C131.08 41.9584 131.873 42.0208 131.969 40.988C132.183 38.6128 132.939 36.8848 135.839 36.6864C136.747 36.6248 137.396 35.6824 135.647 35.68C131.906 35.6744 131.807 31.996 131.455 29.636C131.375 29.1168 130.64 28.8416 130.62 29.8384C130.561 32.7024 129.925 36.1728 126.568 36.1728C125.639 36.1728 125.509 37.0808 126.449 37.0968ZM131.169 33.216C131.578 34.8912 132.44 35.5248 133.949 36.1576C133.279 36.4216 132.689 36.8539 132.234 37.4127C131.78 37.9715 131.477 38.6381 131.355 39.348C131.096 38.7105 130.702 38.137 130.2 37.6673C129.697 37.1976 129.098 36.8429 128.445 36.628C129.101 36.2705 129.679 35.7844 130.143 35.1988C130.608 34.6131 130.949 33.9398 131.148 33.2192L131.169 33.216Z" fill="#71B6F6"/>
<path d="M27.4955 95.76C27.9277 92.5626 27.7713 89.313 27.0339 86.172C26.2651 82.912 24.7763 86.5368 24.4395 87.5936C23.4946 90.177 23.3357 92.9823 23.9827 95.656C25.1699 99.932 26.8707 100.405 27.4955 95.76Z" fill="#71B6F6"/>
<path d="M29.9446 96.0936C29.8494 100.188 29.7902 102.688 31.9446 106.263C34.815 111.02 36.2334 110.051 36.0958 105.366C36.0052 101.852 34.9539 98.4298 33.0558 95.4712C31.2798 92.7272 30.0302 92.4048 29.9446 96.0936Z" fill="#71B6F6"/>
<path d="M127.211 55.1832C128.419 57.6016 130.841 59.0528 133.329 59.8528C135.401 60.5192 138.324 61.6264 135.889 58.1248C132.653 53.4816 124.765 50.284 127.211 55.1832Z" fill="#71B6F6"/>
<path d="M130.356 117.621C128.036 116.557 124.129 116.628 121.561 116.91C113.467 117.798 117.259 120.099 121.042 121.828C123.78 123.113 126.853 123.504 129.826 122.948C134.973 121.928 134.926 119.717 130.356 117.621Z" fill="#71B6F6"/>
<path d="M125.369 101.568C125.4 109.921 129.657 109.381 130.584 100.872C130.826 98.6784 130.615 96.4584 129.961 94.3503C128.86 90.8191 127.388 93.4303 126.615 95.2223C125.767 97.2293 125.343 99.3896 125.369 101.568Z" fill="#71B6F6"/>
<path d="M134.019 63.3759C132.339 62.4647 130.295 62.0527 131.166 64.7767C131.606 66.0122 132.293 67.1452 133.185 68.1067C134.077 69.0682 135.155 69.8381 136.354 70.3695C139.747 72.0143 140.81 71.5135 138.819 68.0495C137.682 66.0782 136.02 64.4605 134.019 63.3759Z" fill="#71B6F6"/>
<path d="M131.991 87.3983C131.741 89.7983 132.047 94.3087 133.163 96.4383C134.118 98.2599 136.068 99.6711 136.639 96.7703C137.211 93.8695 136.639 90.0255 135.726 87.2135C134.336 82.9359 132.44 83.0655 131.991 87.3983Z" fill="#71B6F6"/>
<path d="M140.182 82.8736C139.695 79.7151 138.304 76.7652 136.176 74.3808C131.565 69.2648 132.666 81.5272 138.392 84.8192C140.633 86.108 140.443 84.5056 140.182 82.8736Z" fill="#71B6F6"/>
<path d="M152.267 74.8216C148.697 77.0366 145.985 80.3991 144.577 84.3576C143.5 87.6944 144.41 87.7536 147.377 86.4328C151.057 84.7928 154.863 81.012 155.725 76.9848C156.67 72.56 155.136 72.96 152.267 74.8216Z" fill="#71B6F6"/>
<path d="M143.347 104.992C139.975 105.222 136.227 106.794 133.542 108.38C127.782 111.778 131.871 112.856 136.198 112.567C139.4 112.355 142.481 111.257 145.096 109.397C149.035 106.592 148.463 104.64 143.347 104.992Z" fill="#71B6F6"/>
<path d="M149.455 90.1272C146.532 91.3924 143.902 93.2471 141.729 95.5752C137.355 100.271 138.871 101.326 144.811 99.6792C148.344 98.6992 152.338 96.0488 153.72 92.5504C155.692 87.556 152.624 88.7512 149.455 90.1272Z" fill="#71B6F6"/>
<path d="M19.4797 97.064C17.1462 94.1608 14.0608 91.9535 10.5597 90.6824C7.76446 89.6688 5.54366 89.12 7.43966 93.28C8.27894 95.1219 9.52208 96.7513 11.0769 98.0473C12.6317 99.3432 14.4583 100.273 16.4213 100.766C21.5421 102.043 22.7997 101.194 19.4797 97.064Z" fill="#71B6F6"/>
<path d="M26.863 113.346C31.9526 113.01 32.511 112.029 28.051 109.288C24.7514 107.268 20.986 106.136 17.1198 106C14.427 105.902 11.9998 106.208 14.7694 109.45C17.539 112.693 22.8678 113.608 26.863 113.346Z" fill="#71B6F6"/>
<path d="M8.25747 53.4504C8.33747 53.9432 9.13747 54.4904 9.23267 53.4504C9.41267 51.4064 9.86547 49.4568 12.7191 49.2008C13.4663 49.1344 13.9647 48.536 12.8127 48.4384C10.1359 48.212 9.78947 45.8904 9.29267 43.0528C9.18387 42.4304 8.40867 42.7256 8.37907 43.1984C8.22547 45.6672 7.68387 47.9464 4.95987 48.184C3.52787 48.3088 3.83347 48.9944 4.95987 49.1392C7.67987 49.4864 7.93347 51.5152 8.25747 53.4504ZM8.79987 45.792C8.89057 46.4537 9.15226 47.0803 9.55912 47.6099C9.96598 48.1395 10.5039 48.5538 11.1199 48.812C10.5761 49.0206 10.0797 49.3361 9.65992 49.7398C9.24015 50.1435 8.90554 50.6272 8.67587 51.1624C8.6116 50.6011 8.39688 50.0676 8.05441 49.6182C7.71195 49.1689 7.25445 48.8204 6.73027 48.6096C7.24559 48.3016 7.69413 47.8936 8.04954 47.4098C8.40496 46.9259 8.66006 46.3759 8.79987 45.792Z" fill="#71B6F6"/>
<path d="M143.182 73.7367C142.313 65.9047 139.353 57.5647 134.533 51.2711C134.673 50.3375 132.749 47.1559 131.789 46.1919C130.078 44.4775 126.823 42.3263 125.282 42.8087C123.741 43.2911 126.353 47.7871 128.499 49.6679C129.996 50.8538 131.791 51.6042 133.687 51.8367C137.746 57.6933 140.472 64.3683 141.673 71.3919C142.871 78.3644 142.296 85.5263 140.001 92.2183C135.958 103.781 125.973 113.999 113.088 117.278C104.187 119.543 94.823 118.225 85.8438 120.516C85.1078 120.703 85.507 121.809 86.2334 121.626C100.023 118.154 113.921 123.196 128.96 110.248C134.166 105.814 138.19 100.157 140.672 93.7847C143.155 87.4126 144.017 80.5241 143.182 73.7367Z" fill="#71B6F6"/>
<path d="M12.8651 87.2736C16.6451 89.0608 17.0251 87.7176 15.3915 84.1608C13.9643 81.0456 11.4491 77.056 8.42345 75.288C4.70985 73.12 4.45625 74.4472 5.34185 78C5.83202 80.0059 6.76104 81.8781 8.06196 83.4817C9.36288 85.0853 11.0033 86.3804 12.8651 87.2736Z" fill="#71B6F6"/>
<path d="M41.079 117.112C36.7798 115.55 31.7702 116.072 27.4126 117.371C22.9326 118.707 22.9134 120.077 27.1726 122.139C31.2238 124.103 37.7246 123.763 41.8454 122.036C46.3998 120.125 46.4102 119.05 41.079 117.112Z" fill="#71B6F6"/>
<path d="M57.1113 125.377C53.6041 125.388 53.7897 124.713 53.3513 121.823C53.2057 120.869 52.5713 120.899 52.4585 121.823C52.2577 123.477 51.8569 125.297 49.7457 125.294C48.8009 125.294 48.5193 125.882 49.4857 126.124C51.6249 126.659 51.9473 128.07 52.2617 130.342C52.3337 130.861 53.0401 131.062 53.1489 130.477C53.4761 128.734 53.5905 126.093 57.0401 126.15C57.9057 126.165 57.9625 125.374 57.1113 125.377ZM52.7737 128.412C52.6753 127.893 52.3689 126.305 51.0137 125.852C51.7761 125.805 52.6473 124.497 52.8081 123.969C52.84 124.439 53.031 124.885 53.3498 125.233C53.6686 125.581 54.0962 125.81 54.5625 125.883C54.0856 126.133 53.6748 126.493 53.3638 126.932C53.0529 127.372 52.8506 127.879 52.7737 128.412Z" fill="#71B6F6"/>
<path d="M72.8837 119.44C63.5445 118.07 53.7965 118.787 44.7421 115.694C20.4541 107.398 10.1597 78.1424 25.5861 54.6072C30.1981 52.8416 34.1685 44.6712 32.8861 43.172C31.6037 41.6728 27.9429 45.764 26.6965 47.6864C25.4632 49.5918 24.748 51.7858 24.6213 54.052C15.7757 66.5832 13.9997 85.412 23.3597 100.177C27.4996 106.711 33.4153 111.93 40.4141 115.223C49.0325 119.275 58.6461 119.208 67.9381 120.038C76.9349 120.838 86.7989 122.869 92.8429 130.166C93.3229 130.748 93.8357 130.05 93.3613 129.476C88.2445 123.28 81.1997 120.661 72.8837 119.44Z" fill="#71B6F6"/>
<path d="M77.4551 122.679C75.4048 123.077 73.4712 123.934 71.7991 125.185C70.4679 126.169 68.3199 128.3 67.8791 129.912C67.7719 130.302 68.1495 130.662 68.3983 130.259C69.4302 128.605 70.8029 127.19 72.4247 126.109C73.9885 124.959 75.7862 124.167 77.6903 123.789C77.8304 123.751 77.9507 123.661 78.0265 123.537C78.1022 123.413 78.1276 123.265 78.0975 123.123C78.0674 122.981 77.9841 122.856 77.8646 122.773C77.7451 122.691 77.5985 122.657 77.4551 122.679Z" fill="#71B6F6"/>
</svg>
