<svg width="164" height="164" viewBox="0 0 164 164" fill="none" xmlns="http://www.w3.org/2000/svg">
<path fill-rule="evenodd" clip-rule="evenodd" d="M138.657 18.8836C131.842 27.0475 130.94 28.3686 129.203 29.7421C130.229 30.1611 130.738 31.3288 130.335 32.3677C129.927 33.4198 128.747 33.9446 127.695 33.5378C126.688 33.0557 125.968 32.7023 125.416 32.43C122.101 34.6088 118.815 36.3332 115.263 37.9076C116.634 38.0306 117.619 37.933 119.597 37.8584C120.721 37.9224 121.585 38.89 121.521 40.015C121.457 41.1417 120.486 42.0027 119.363 41.9379C116.634 41.4935 116.94 41.2442 111.372 40.8998C110.284 40.8326 109.194 40.8399 108.106 40.803C89.6778 47.7378 87.4073 47.5976 81.3811 51.5418C68.3259 60.0862 58.3866 74.9019 54.0341 88.7379C52.7524 92.8117 52.4802 98.8084 51.8307 103.258C51.3601 106.483 53.3846 115.07 53.3846 115.07L59.6544 113.29C59.6544 113.29 58.9123 109.431 58.499 106.166C57.0632 105.892 56.7278 105.582 55.7093 105.215C54.5909 104.958 53.8922 103.839 54.1489 102.72C54.4064 101.6 55.5248 100.9 56.6433 101.158C57.2042 101.232 57.7667 101.286 58.3219 101.381C58.5367 98.3902 58.6769 95.5111 59.2731 92.7215C58.5105 92.373 57.7856 91.9482 57.0074 91.6137C55.9111 91.2611 55.3133 90.0868 55.6651 88.993C56.0168 87.8991 57.1919 87.2988 58.2874 87.6523C59.073 87.8392 59.8528 88.0237 60.6138 88.2664C61.5215 85.7671 62.6154 83.335 63.8708 80.9896C63.6478 80.842 63.4223 80.6977 63.191 80.5607C62.1513 80.0695 61.7093 78.8264 62.2013 77.7891C62.6933 76.7502 63.9348 76.3074 64.9753 76.7994C65.3452 76.9355 65.7166 77.0659 66.0848 77.2045C67.5862 74.8437 69.3517 72.4411 71.186 70.3288C69.9732 69.5875 69.1114 68.87 68.0905 68.2632C67.0672 67.7474 66.6531 66.4953 67.168 65.4686C67.6822 64.4428 68.9351 64.0279 69.9642 64.5445C71.8617 65.2915 72.7145 65.6269 74.407 66.943C77.0736 64.378 80.0109 62.0886 83.1556 60.0812C81.978 59.1333 81.8108 58.6782 81.199 57.8754C80.3823 57.0686 80.3725 55.7508 81.1826 54.9316C81.9895 54.1149 83.3073 54.1043 84.124 54.9111C85.5983 56.1075 85.7443 55.9681 87.1563 57.7434C98.1329 51.8394 95.7024 52.6963 114.162 45.8665C121.204 43.2614 126.8 41.3385 133.563 36.4948C134.988 35.4747 136.204 34.3308 137.248 33.0721C139.317 30.5809 142.633 25.3657 142.633 25.3657L138.661 18.8844L138.657 18.8836Z" fill="#71B6F6"/>
<path fill-rule="evenodd" clip-rule="evenodd" d="M99.1184 53.3408L92.4748 55.8238C93.7212 60.3215 94.5715 63.4285 95.1849 65.8672C97.7851 69.2915 99.3652 70.3157 100.524 71.3644C101.256 72.2197 101.161 73.5104 100.306 74.2459C99.4505 74.9815 98.1582 74.8839 97.4259 74.0286C97.0791 73.5079 96.8191 73.1094 96.6133 72.7929C96.8815 74.5903 97.1004 76.5468 97.4128 79.3143C97.5703 80.7034 97.6211 82.1017 97.5711 83.494C98.1492 83.8803 98.7232 84.273 99.2832 84.6888C100.134 85.4325 100.217 86.724 99.4735 87.5727C98.8519 88.282 97.8458 88.4567 97.0364 88.0606C96.6379 90.0606 96.0262 92.0171 95.2128 93.8843C95.6236 94.077 96.0705 94.2902 96.5879 94.5476C97.5555 95.1266 97.872 96.3803 97.2923 97.3496C96.7142 98.3164 95.4579 98.6337 94.4903 98.0556C94.1082 97.7825 93.7646 97.5308 93.4391 97.2922C92.214 99.2946 90.729 101.142 88.9996 102.769C89.3637 102.904 89.7712 103.058 90.2403 103.24C91.2522 103.736 91.6777 104.961 91.18 105.974C90.6823 106.986 89.458 107.407 88.4453 106.912C87.2924 106.251 86.4593 105.759 85.7606 105.354C83.4654 106.895 81.0145 108.004 78.3536 108.753C78.5266 108.782 78.7135 108.812 78.9161 108.847C80.0009 109.166 80.6159 110.303 80.297 111.385C79.978 112.466 78.8431 113.085 77.7582 112.766C75.0424 111.594 76.0805 111.736 72.3676 110.603C59.7387 114.905 60.4226 113.262 47.9545 118.144C38.6967 121.769 32.1826 126.555 28.1909 131.107C25.9006 133.719 21.3701 140.956 21.3701 140.956L26.3024 145.788C27.2889 144.586 28.2868 143.363 29.2938 142.149C28.5517 141.745 27.8268 141.311 27.0822 140.909C26.0367 140.428 25.5784 139.191 26.0589 138.147C26.5402 137.104 27.776 136.646 28.8215 137.127C30.2327 137.625 30.7813 137.696 32.3778 138.514C33.976 136.689 35.5856 134.964 37.1912 133.458C36.4196 133.035 35.9374 132.601 35.2412 132.113C34.2343 131.567 33.8546 130.303 34.4024 129.292C34.9501 128.282 36.2138 127.905 37.2265 128.451C38.718 129.114 39.4618 129.288 40.9484 130.264C42.791 128.828 44.5359 127.656 46.2711 126.668C46.1169 126.547 45.9742 126.41 45.8053 126.294C44.7319 125.89 44.1833 124.69 44.586 123.615C44.9886 122.539 46.1907 121.993 47.2649 122.396C47.6454 122.439 48.0086 122.428 48.367 122.555C49.3198 122.893 49.7249 123.589 51.2591 124.278C54.5104 122.981 57.9938 122.031 62.2225 120.935C64.0454 120.463 65.8617 119.948 67.7001 119.551C71.2663 118.78 74.8727 118.365 78.3126 117.441C95.2907 112.881 105.088 96.1376 103.131 78.6665C101.842 67.1693 103.153 72.1533 99.1201 53.34L99.1184 53.3408Z" fill="#71B6F6"/>
<path fill-rule="evenodd" clip-rule="evenodd" d="M96.9785 43.4182C96.9064 42.6605 96.5726 39.2181 96.4357 38.467C94.4013 38.1923 93.938 37.8733 92.125 37.2182C91.018 36.9164 90.3636 35.7717 90.6654 34.6639C90.9671 33.556 92.1077 32.9 93.2213 33.2018C93.9347 33.3059 94.6481 33.3297 95.359 33.4995C95.3418 33.283 95.3311 33.064 95.3303 32.8435C95.3262 31.5233 94.8744 29.5749 95.2237 28.2621C95.364 27.7349 96.0888 25.3405 96.8072 22.9903C95.6026 22.6049 94.9941 22.2491 93.9199 21.7948C92.8236 21.4471 92.2168 20.2761 92.5669 19.1806C92.9163 18.0867 94.088 17.4799 95.1786 17.8276C96.1749 18.0785 97.1827 18.2803 98.1749 18.5566C98.6677 17.0831 99.5181 15.1971 100.089 14.3598C100.874 13.2086 103.027 9.37096 103.027 9.37096L99.7091 4.1C99.7091 4.1 95.5936 10.4304 94.6825 12.25C92.0225 17.566 89.6953 20.7895 88.9015 24.0186C88.3579 26.2277 88.6555 28.3482 88.4415 33.4388C88.2152 38.8229 87.5789 37.2083 90.2693 46.1135L96.9785 43.4182Z" fill="#71B6F6"/>
<path fill-rule="evenodd" clip-rule="evenodd" d="M65.2671 133.485C64.9875 131.945 65.1081 130.402 64.7432 128.963C64.4726 127.895 61.6017 121.783 61.6017 121.783L54.6875 123.687C54.6875 123.687 55.1647 125.125 55.6608 126.656C56.1036 126.979 57.2853 127.645 57.4878 127.718C58.0692 127.928 58.6563 127.944 59.2664 128.048C60.3176 128.467 60.8268 129.658 60.407 130.704C59.9872 131.751 58.7965 132.261 57.751 131.842C57.5222 131.688 57.3074 131.526 57.0934 131.366C57.5731 132.692 58.2857 133.987 58.6678 135.427C59.5632 138.801 59.218 139.844 59.0958 140.879C60.0601 141.336 60.8301 141.606 62.056 142.149C63.04 142.705 63.3869 143.953 62.8276 144.934C62.2717 145.909 61.0368 146.255 60.061 145.712C60.2192 146.299 60.3447 146.892 60.3881 147.499C60.5415 149.657 60.4308 150.881 60.0044 151.969C60.2627 152.057 60.5431 152.153 60.8482 152.258C61.883 152.709 62.3545 153.915 61.9051 154.947C61.4541 155.982 60.2438 156.454 59.2155 156.003C58.7719 155.766 58.3988 155.563 58.0774 155.385C57.6116 156.996 58.3513 158.761 59.9076 159.531C61.6559 160.396 63.7772 159.679 64.6431 157.931C65.1958 156.213 65.4369 154.504 65.7493 152.727C66.926 146.039 67.5902 143.695 67.327 141.113C67.1302 139.184 65.8584 136.732 65.268 133.484L65.2671 133.485Z" fill="#71B6F6"/>
<path fill-rule="evenodd" clip-rule="evenodd" d="M94.2923 20.613C95.1796 20.9139 96.0447 21.2747 96.9368 21.5691C99.0688 22.2735 101.249 22.8319 103.392 23.5281C108.612 25.2222 109.07 25.615 110.919 26.2661C114.201 27.4215 117.731 28.2669 123.16 30.3472C124.837 30.9901 126.469 31.7338 128.13 32.403C128.553 32.5735 129.033 32.3546 129.197 31.9298C129.361 31.5051 129.152 31.0204 128.724 30.863C127.151 30.2849 125.545 29.7954 123.963 29.2246C119.977 27.7872 114.408 25.4428 111.892 24.5588C110.195 23.9627 108.46 23.4846 106.749 22.9361C101.189 21.1526 100.818 20.8492 98.4219 20.0734C97.223 19.6856 96.0029 19.374 94.8007 19.0091C94.3571 18.8746 93.8856 19.114 93.7454 19.5552C93.6052 19.9964 93.852 20.4621 94.2915 20.6114L94.2923 20.613Z" fill="#191919"/>
<path fill-rule="evenodd" clip-rule="evenodd" d="M92.4504 36.0217C93.3639 36.2866 94.2708 36.6047 95.2089 36.8433C96.4996 37.1713 97.8313 37.3739 99.1556 37.6601C106.639 39.2755 103.014 38.9507 111.515 39.8445C112.337 39.9306 118.165 40.6219 119.431 40.7228C119.885 40.7588 120.275 40.4013 120.301 39.947C120.327 39.4928 119.979 39.0926 119.525 39.0754C116.549 38.9598 115.877 39.1065 111.441 38.3669C109.577 38.0561 107.738 37.5617 105.863 37.2296C104.989 37.0746 104.103 37.0164 103.228 36.8679C99.2597 36.1947 97.3614 35.4338 94.9719 34.8425C94.2774 34.6703 93.5746 34.567 92.8899 34.3989C92.4398 34.2882 91.9797 34.5424 91.8584 34.9901C91.737 35.4379 92.0043 35.893 92.4496 36.0217H92.4504Z" fill="#191919"/>
<path fill-rule="evenodd" clip-rule="evenodd" d="M82.0686 56.9915C82.4671 57.4326 82.8459 57.8886 83.2682 58.3076C84.276 59.3072 85.4035 60.1796 86.4482 61.1497C89.5412 64.0213 88.7212 63.5367 89.9709 64.7643C91.8471 66.6076 92.4211 66.7314 95.3788 69.7482C97.1377 71.5424 96.927 71.503 98.3447 73.2349C98.6334 73.5875 99.1639 73.6194 99.5083 73.3218C99.8527 73.0241 99.9011 72.4969 99.5953 72.159C98.5899 71.0479 98.4833 71.1119 96.3636 68.8093C92.7917 64.9291 92.7581 64.7716 91.6486 63.6884C90.7155 62.7774 89.0796 61.4908 87.3953 59.8451C86.586 59.0546 85.8521 58.1936 85.0403 57.4105C84.4597 56.8504 83.8299 56.3461 83.2469 55.7926C82.9099 55.4737 82.3843 55.4712 82.0587 55.8C81.7332 56.1288 81.7357 56.6643 82.0661 56.9898L82.0686 56.9915Z" fill="#191919"/>
<path fill-rule="evenodd" clip-rule="evenodd" d="M68.6483 67.1549C69.529 67.6174 73.7233 70.3078 74.5999 70.9031C77.4772 72.8572 81.7224 76.0404 82.845 76.7702C84.7802 78.0297 86.8392 79.1244 88.8105 80.3643C93.7797 83.4899 95.0334 84.7109 97.3901 86.8478C97.7271 87.1537 98.2544 87.1143 98.5537 86.7724C98.853 86.4305 98.8251 85.9016 98.4783 85.6072C96.4824 83.9147 85.6707 76.2561 83.5534 74.9104C82.0791 73.9732 81.4592 73.8904 77.3124 70.8227C72.6835 67.3984 72.9861 67.3705 69.4035 65.6543C68.9845 65.4534 68.4827 65.6133 68.2744 66.0274C68.0661 66.4415 68.2375 66.9384 68.6483 67.1549Z" fill="#191919"/>
<path fill-rule="evenodd" clip-rule="evenodd" d="M63.7194 79.4398C64.5427 79.849 65.3192 80.341 66.1245 80.7871C68.0203 81.8375 69.9457 82.8446 71.821 83.9409C74.5229 85.5211 77.7717 87.5006 79.4445 88.3558C82.0431 89.6842 87.2509 92.1983 91.0894 94.473C92.4571 95.284 93.7683 96.1778 95.1131 97.0126C95.5001 97.2528 96.0118 97.1192 96.2447 96.728C96.4776 96.3369 96.3554 95.8244 95.9602 95.5964C94.4899 94.7477 92.9655 93.9909 91.4764 93.161C87.7192 91.0659 82.3145 87.7244 80.1604 86.5567C78.8263 85.8335 77.4429 85.2128 76.0981 84.5199C72.6771 82.7585 70.6681 81.2561 68.0867 79.7334C66.605 78.8592 66.4574 78.833 64.4402 77.922C64.0171 77.7309 63.5201 77.9031 63.3209 78.3221C63.1216 78.7412 63.3053 79.2348 63.721 79.4414L63.7194 79.4398Z" fill="#191919"/>
<path fill-rule="evenodd" clip-rule="evenodd" d="M57.3859 90.4329C58.2289 90.7199 62.8676 92.6903 64.5888 93.5645C68.7109 95.6587 70.7724 97.0199 71.5727 97.4783C74.0532 98.8994 76.4263 99.8129 79.4226 101.161C86.0629 104.149 84.5664 103.587 88.9812 105.819C89.3871 106.024 89.8841 105.851 90.0849 105.441C90.2859 105.032 90.1178 104.531 89.7053 104.338C86.4827 102.827 87.2863 103.459 80.9502 100.286C78.004 98.8108 75.0134 97.0314 72.4468 95.8228C67.4022 93.4472 63.6589 90.9413 60.7102 89.7572C59.7983 89.3915 58.8512 89.1209 57.9025 88.8339C57.4589 88.6994 56.9882 88.9356 56.8447 89.3759C56.7012 89.8163 56.9472 90.2845 57.3859 90.4337V90.4329Z" fill="#191919"/>
<path fill-rule="evenodd" clip-rule="evenodd" d="M55.9861 104.006C56.6568 104.178 57.3038 104.427 57.9705 104.614C59.2201 104.965 60.4961 105.214 61.7277 105.623C61.7589 105.632 64.3378 106.577 64.4796 106.635C65.0872 106.885 65.6563 107.211 66.2664 107.454C67.571 107.974 72.09 109.377 74.9961 110.431C76.0383 110.809 77.0494 111.262 78.1047 111.6C78.5385 111.74 79.0002 111.478 79.1289 111.041C79.2577 110.604 79.0108 110.137 78.5713 110.017C75.8046 109.265 75.4045 109.274 72.2057 107.942C70.6386 107.289 67.7883 105.954 67.2586 105.76C66.4099 105.45 66.1303 105.522 62.2312 104.11C61.799 103.953 59.804 103.126 58.2411 102.728C57.6236 102.571 56.9922 102.475 56.3616 102.368C55.9106 102.264 55.4596 102.546 55.3555 102.999C55.2513 103.451 55.5359 103.892 55.9861 104.006Z" fill="#191919"/>
<path fill-rule="evenodd" clip-rule="evenodd" d="M46.2406 125.135C46.5916 125.303 46.9229 125.504 47.2804 125.657C47.952 125.944 48.6662 126.106 49.3287 126.41C49.4952 126.487 49.6502 126.585 49.8134 126.669C50.1397 126.838 50.4808 126.975 50.799 127.159C51.1221 127.346 51.3951 127.6 51.7248 127.776C52.6456 128.271 53.6518 128.563 54.6112 128.976C57.7583 130.332 56.5218 129.863 58.2003 130.71C58.6218 130.879 59.1031 130.674 59.2721 130.251C59.441 129.828 59.236 129.348 58.8129 129.179C57.3951 128.75 57.3598 128.766 56.3758 128.266C54.2217 127.17 53.9289 126.697 52.744 126.12C52.3554 125.931 51.9339 125.846 51.5354 125.681C49.7519 124.938 48.7662 124.204 47.8372 123.845C47.5108 123.718 47.1697 123.649 46.8294 123.56C46.3948 123.397 45.9102 123.617 45.7478 124.052C45.5854 124.487 45.8052 124.971 46.2398 125.134L46.2406 125.135Z" fill="#191919"/>
<path fill-rule="evenodd" clip-rule="evenodd" d="M35.8324 131.025C36.4638 131.385 37.0607 131.799 37.6962 132.15C39.2214 132.993 40.8188 133.691 42.3555 134.505C46.4399 136.669 46.2185 136.8 47.7084 137.63C50.1447 138.988 53.3418 140.277 57.2696 142.559C58.4119 143.224 59.5025 143.969 60.6407 144.645C61.0318 144.878 61.541 144.731 61.7665 144.335C61.992 143.939 61.8559 143.427 61.4566 143.211C60.2897 142.579 59.0851 142.03 57.9199 141.401C54.4685 139.537 51.2041 137.346 49.1369 136.201C47.8962 135.514 46.6023 134.933 45.3427 134.28C40.8221 131.935 41.7077 132.186 39.2928 130.879C38.4211 130.408 37.5142 130.006 36.6327 129.548C36.2219 129.334 35.7143 129.479 35.4929 129.887C35.2715 130.296 35.4306 130.796 35.8324 131.025V131.025Z" fill="#191919"/>
<path fill-rule="evenodd" clip-rule="evenodd" d="M27.599 139.785C28.7183 140.318 29.8065 140.91 30.9282 141.439C32.4985 142.178 34.1131 142.819 35.6851 143.557C39.5784 145.384 41.1971 146.404 43.5349 147.522C45.8285 148.618 50.9641 150.705 55.2207 152.713C56.723 153.421 58.1875 154.201 59.6979 154.889C60.1129 155.078 60.6024 154.88 60.7853 154.462C60.9681 154.044 60.7795 153.552 60.3589 153.376C58.8345 152.741 57.2839 152.17 55.7726 151.503C50.5664 149.206 46.9961 147.014 43.7399 145.467C42.7133 144.979 41.6456 144.591 40.61 144.122C35.4596 141.795 33.6679 140.622 30.8216 139.314C29.9934 138.933 29.1382 138.622 28.3026 138.256C27.8787 138.071 27.3826 138.247 27.189 138.669C26.9955 139.09 27.1808 139.584 27.6007 139.784L27.599 139.785Z" fill="#191919"/>
<path fill-rule="evenodd" clip-rule="evenodd" d="M65.3998 40.826C65.1973 40.2987 65.0161 39.7649 64.7709 39.2557C64.4281 38.5456 63.9722 37.9011 63.595 37.2082C62.7561 35.6657 62.3355 34.4849 61.8599 33.642C61.1465 32.3784 60.7348 32.0897 59.281 29.624C58.52 28.3333 58.7463 28.708 57.8878 26.7819C57.6672 26.3702 57.1531 26.2152 56.7423 26.4366C56.3314 26.658 56.1765 27.1714 56.3979 27.5838C57.3171 29.0246 57.2671 28.7925 58.0633 30.3046C59.5778 33.1828 59.5319 33.5854 60.2732 34.8826C60.7373 35.6953 60.9931 35.66 62.0731 37.8338C62.5044 38.7006 62.7988 39.6263 63.2276 40.4923C63.4072 40.8547 63.6319 41.1868 63.8295 41.5386C64.0255 41.9715 64.5372 42.1642 64.9701 41.9683C65.4031 41.7723 65.5966 41.2606 65.3998 40.8268V40.826Z" fill="#71B6F6"/>
<path fill-rule="evenodd" clip-rule="evenodd" d="M60.0917 44.1125C58.8913 42.2773 58.8289 42.4462 57.3316 41.049C55.8507 39.6673 55.1668 38.8801 54.4099 38.2897C53.4071 37.5066 52.984 37.4032 50.3731 35.6714C48.9553 34.7309 49.3022 34.9195 47.8434 33.7501C47.458 33.4853 46.9307 33.5845 46.6667 33.9691C46.4027 34.3537 46.5011 34.8817 46.8865 35.1458C48.205 35.9067 48.2304 35.851 49.3186 36.6316C51.8811 38.4701 51.8171 38.7948 53.3702 40.0002C53.9409 40.443 54.4764 40.5611 55.9614 42.0174C56.6707 42.7127 57.2332 43.5237 57.8687 44.2552C58.1377 44.5643 58.437 44.8357 58.7051 45.1391C58.9888 45.5212 59.5284 45.6024 59.9113 45.3195C60.2943 45.0366 60.3746 44.4946 60.0917 44.1125Z" fill="#71B6F6"/>
<path fill-rule="evenodd" clip-rule="evenodd" d="M56.4542 47.5877C56.0475 47.4188 55.653 47.2269 55.2316 47.0982C54.6444 46.9186 54.0303 46.8645 53.4341 46.7152C52.2681 46.4241 51.116 45.9289 50.4977 45.7829C49.3948 45.5221 49.0332 45.655 46.8348 45.195C45.6654 44.9506 46.1197 45.049 44.4879 44.4668C44.0353 44.3528 43.5744 44.6267 43.4596 45.0793C43.3448 45.532 43.6204 45.9928 44.073 46.1076C45.4645 46.32 45.2317 46.2019 46.5076 46.5521C49.0209 47.2409 49.057 47.5 50.2558 47.7739C50.9889 47.9411 51.034 47.7091 52.8888 48.2659C53.6063 48.4815 54.2746 48.8333 54.9946 49.0408C55.2955 49.1277 55.6047 49.1605 55.9113 49.2244C56.3632 49.3737 56.8519 49.1285 57.0011 48.6767C57.1504 48.2249 56.9052 47.7361 56.4534 47.5869L56.4542 47.5877Z" fill="#71B6F6"/>
</svg>
