<svg width="160" height="160" viewBox="0 0 160 160" fill="none" xmlns="http://www.w3.org/2000/svg">
<path d="M151.004 127.478C102.26 127.726 51.484 128.014 4.47198 127.958C3.89678 127.958 3.81598 128.86 4.40398 128.863C53.1056 129.142 102.192 128.703 150.909 128.463C151.561 128.462 151.638 127.474 151.004 127.478Z" fill="#191919"/>
<path d="M124.24 85.7234C124.214 86.3092 124.041 86.879 123.738 87.381C123.418 87.833 123.828 88.261 124.277 87.8698C124.546 87.5799 124.736 87.2254 124.828 86.8407C124.92 86.456 124.911 86.054 124.802 85.6738C124.774 85.6198 124.731 85.5753 124.678 85.5459C124.625 85.5166 124.565 85.5038 124.504 85.5091C124.444 85.5144 124.387 85.5377 124.34 85.5759C124.293 85.614 124.258 85.6654 124.24 85.7234Z" fill="#191919"/>
<path d="M124.365 83.1064C125.099 82.5397 125.621 81.7425 125.846 80.8432C126.027 80.132 125.592 79.6664 125.18 80.5576C124.909 81.2913 124.505 81.9692 123.989 82.5576C123.586 83.0104 123.812 83.3824 124.365 83.1064Z" fill="#191919"/>
<path d="M117.279 76.2161C117.427 78.8977 116.659 81.8873 117.424 84.1977C117.534 84.5281 118.09 84.4697 118.049 84.0985C117.831 82.2685 117.831 80.419 118.049 78.5889C118.454 72.3833 116.689 73.0969 116.795 73.6361C117.067 74.4716 117.23 75.3388 117.279 76.2161Z" fill="#191919"/>
<path d="M123.415 81.853C124.107 80.8771 124.5 79.7211 124.546 78.5258C124.485 77.6202 123.807 77.5522 123.768 78.385C123.665 79.4553 123.326 80.4896 122.776 81.4138C122.5 82.029 122.872 82.577 123.415 81.853Z" fill="#191919"/>
<path d="M124.583 84.2744C124.28 84.66 124.56 84.9672 124.999 84.768C125.635 84.3442 126.139 83.7498 126.453 83.0528C126.773 82.052 125.957 81.9328 125.837 82.6C125.73 83.1888 124.846 83.94 124.583 84.2744Z" fill="#191919"/>
<path d="M120.532 79.2273C120.766 78.7289 122.222 76.8273 122.279 77.0769C122.2 78.5029 121.693 79.872 120.826 81.0065C120.618 81.2785 120.92 81.7889 121.46 81.3505C122.328 80.6433 123.116 78.0961 123.021 76.9857C123.014 76.8873 122.986 76.7915 122.939 76.7045C122.893 76.6176 122.828 76.5414 122.75 76.4811C122.672 76.4207 122.582 76.3774 122.486 76.3541C122.39 76.3308 122.29 76.3279 122.193 76.3457C121.362 76.4857 120.316 78.0633 120.016 78.9857C119.92 79.2865 120.391 79.5257 120.532 79.2273Z" fill="#191919"/>
<path d="M98.7138 76.2161C98.636 76.1552 98.5466 76.1107 98.451 76.0853C98.3554 76.06 98.2557 76.0544 98.1579 76.0689C98.0601 76.0833 97.9662 76.1175 97.882 76.1694C97.7979 76.2212 97.7251 76.2897 97.6682 76.3705C97.4506 76.7193 97.6026 76.9402 97.9266 76.7778C98.1488 76.6652 98.4003 76.6241 98.6466 76.6601C98.8954 76.6689 98.913 76.3385 98.7138 76.2161Z" fill="#191919"/>
<path d="M93.5808 80.6082C93.4448 80.3002 92.9016 80.5282 92.956 80.8706C93.188 82.3234 95.1328 82.9906 95.9488 82.813C96.224 82.753 96.4224 82.5602 96.2152 82.3234C95.892 81.9546 94.4 82.469 93.5808 80.6082Z" fill="#191919"/>
<path d="M93.8971 74.5729C93.5998 74.6349 93.3261 74.7797 93.1074 74.9904C92.8888 75.2011 92.7341 75.4693 92.6611 75.7641C92.5891 76.2161 92.9283 76.4841 93.3131 75.8953C93.3956 75.7522 93.5057 75.6269 93.637 75.5267C93.7682 75.4264 93.9181 75.3532 94.0779 75.3113C94.7067 75.1481 94.4995 74.5049 93.8971 74.5729Z" fill="#191919"/>
<path d="M95.251 76.9409C95.0488 76.8601 94.8237 76.858 94.6201 76.9351C94.4165 77.0121 94.2491 77.1626 94.151 77.3569C93.991 77.6697 94.1286 77.9281 94.4902 77.7153C94.7122 77.5699 94.9719 77.4926 95.2374 77.4929C95.5198 77.4905 95.5542 77.0945 95.251 76.9409Z" fill="#191919"/>
<path d="M98.9903 74.0521C98.78 73.868 98.5242 73.7437 98.2496 73.6921C97.9749 73.6404 97.6914 73.6634 97.4287 73.7585C97.0031 73.9393 97.0759 74.4329 97.5887 74.4329C97.9571 74.3781 98.3334 74.4154 98.6839 74.5417C99.0943 74.6937 99.2167 74.2561 98.9903 74.0521Z" fill="#191919"/>
<path d="M96.4 79.5201C96 79.8777 96.5176 80.1673 97.3864 79.7601C97.5448 79.7131 97.6823 79.6134 97.7761 79.4775C97.87 79.3416 97.9145 79.1777 97.9024 79.0129C97.7424 78.3633 97.463 77.7492 97.0784 77.2017C96.7584 76.8761 96.5984 77.3065 96.7392 77.6545C96.9295 78.1276 97.081 78.6153 97.192 79.1129C97.2112 79.1593 96.4968 79.4321 96.4 79.5201Z" fill="#191919"/>
<path d="M48.653 48.7769C48.4466 51.7369 49.0666 59.7569 46.245 62.5169C43.901 64.8089 39.8634 62.8161 38.2266 60.5889C37.8954 60.1369 37.517 60.6969 37.8418 61.1409C39.7866 63.7921 44.189 65.7089 46.865 63.0873C49.541 60.4657 49.1946 52.7385 49.2506 48.8945C49.2554 48.5689 48.6794 48.4001 48.653 48.7769Z" fill="#191919"/>
<path d="M34.0891 55.4401C34.4842 56.1584 35.0807 56.7454 35.8051 57.1289C35.5546 59.335 35.4789 61.5574 35.5787 63.7753C35.6251 64.9297 36.3291 64.8953 36.2987 63.7753C36.2293 61.5866 36.3153 59.3958 36.5563 57.2193C36.7163 55.8113 36.2787 57.0441 34.9355 55.0961C33.8843 53.5713 34.4555 51.9289 35.3883 51.8161C36.5203 51.6825 37.1411 53.1257 37.6523 52.5089C38.6125 51.0725 39.2317 49.4356 39.4627 47.7233C42.2107 48.3633 51.8155 49.5353 52.3747 44.2033C53.0531 37.7305 41.0835 37.6073 37.5211 42.1121C35.6283 39.9073 31.2555 42.3249 34.5875 51.1665C33.3467 51.9201 33.1131 53.9593 34.0891 55.4401Z" fill="#191919"/>
<path d="M48.0681 50.4929C47.6726 50.1346 47.1615 49.9305 46.6281 49.9177C46.0801 49.9545 45.9393 50.5793 46.5913 50.7177C46.9519 50.7295 47.3013 50.846 47.5969 51.0529C48.1041 51.5025 48.5313 50.9089 48.0681 50.4929Z" fill="#191919"/>
<path d="M44.2399 56.7001C43.6247 56.6593 43.2439 57.3513 44.3623 57.4289C45.0775 57.4785 45.4439 57.2833 45.6207 56.9489C45.8871 56.4457 45.7927 54.4609 45.6207 53.5801C45.6207 53.5026 45.5899 53.4284 45.5352 53.3736C45.4804 53.3188 45.4062 53.2881 45.3287 53.2881C45.2513 53.2881 45.177 53.3188 45.1222 53.3736C45.0675 53.4284 45.0367 53.5026 45.0367 53.5801C45.1119 56.2105 45.4023 56.7769 44.2399 56.7001Z" fill="#191919"/>
<path d="M40.9241 57.3338C40.6889 59.7106 43.7241 60.7154 44.5865 59.9186C44.6265 59.8718 44.6535 59.8154 44.6649 59.755C44.6764 59.6945 44.6718 59.6321 44.6517 59.574C44.6315 59.5158 44.5965 59.4639 44.5502 59.4235C44.5038 59.3831 44.4476 59.3555 44.3873 59.3434C44.0684 59.4259 43.7355 59.439 43.4111 59.3821C43.0867 59.3251 42.7783 59.1993 42.5065 59.0131C42.2348 58.827 42.0061 58.5848 41.8358 58.3029C41.6655 58.0209 41.5576 57.7058 41.5193 57.3786C41.5196 57.303 41.4912 57.23 41.4398 57.1744C41.3885 57.1188 41.318 57.0848 41.2425 57.0791C41.1671 57.0734 41.0923 57.0965 41.0332 57.1438C40.9741 57.1911 40.9351 57.259 40.9241 57.3338Z" fill="#191919"/>
<path d="M47.0993 54.5178C47.7241 54.4698 47.6745 53.165 47.0993 53.2002C46.6697 53.2266 46.4881 54.565 47.0993 54.5178Z" fill="#191919"/>
<path d="M42.7771 53.1282C42.1955 53.2362 42.3243 54.4138 42.7771 54.3906C43.2299 54.3674 43.3603 53.0194 42.7771 53.1282Z" fill="#191919"/>
<path d="M43.1698 50.1897C42.8114 49.7897 41.3066 50.0681 41.0898 51.0585C41.0354 51.3081 41.3114 51.8057 41.7866 51.2081C42.2618 50.6105 42.8202 50.9137 43.009 50.8505C43.0727 50.8281 43.1299 50.7902 43.1752 50.7401C43.2206 50.69 43.2527 50.6294 43.2687 50.5637C43.2847 50.4981 43.284 50.4295 43.2667 50.3642C43.2494 50.2989 43.2161 50.2389 43.1698 50.1897Z" fill="#191919"/>
<path d="M37.2171 84.1346C37.407 79.7766 37.9361 75.44 38.7995 71.1642C38.9099 70.6162 38.2155 70.4626 38.1019 71.0042C37.5211 73.7802 36.1555 81.3714 36.5987 84.133C36.6109 84.2061 36.6485 84.2725 36.705 84.3205C36.7615 84.3684 36.8331 84.3949 36.9072 84.395C36.9813 84.3952 37.0531 84.3692 37.1098 84.3215C37.1665 84.2738 37.2045 84.2076 37.2171 84.1346Z" fill="#191919"/>
<path d="M62.6237 115.658C62.8557 114.926 62.9989 104.443 62.8269 103.226C62.8067 103.157 62.7649 103.097 62.7078 103.055C62.6507 103.012 62.5814 102.989 62.5101 102.989C62.4389 102.989 62.3695 103.012 62.3124 103.055C62.2553 103.097 62.2135 103.157 62.1933 103.226C61.9805 104.375 62.1885 109.849 61.8541 115.658C61.8309 116.056 62.4973 116.055 62.6237 115.658Z" fill="#191919"/>
<path d="M23.7395 103.524C23.6923 105.844 25.0475 114.391 25.5499 117.491C25.6971 118.397 25.6683 118.531 26.5691 118.795C36.4315 121.695 50.7363 119.865 61.3379 118.939C61.3973 118.933 61.4549 118.916 61.5075 118.887C61.5601 118.859 61.6067 118.821 61.6444 118.775C61.6822 118.728 61.7105 118.675 61.7277 118.618C61.7449 118.561 61.7507 118.501 61.7447 118.441C61.7387 118.382 61.7211 118.324 61.6928 118.272C61.6645 118.219 61.6262 118.173 61.5799 118.135C61.5337 118.097 61.4805 118.069 61.4233 118.052C61.3661 118.034 61.3061 118.029 61.2467 118.035C50.1075 119.011 37.3931 120.651 26.5419 117.967C25.8803 113.647 24.9659 109.039 24.4003 103.479C24.3915 103.099 23.7475 103.126 23.7395 103.524Z" fill="#191919"/>
<path d="M24.5234 84.4922C23.817 85.2402 23.009 88.3506 22.8842 89.2682C22.8802 89.3417 22.9029 89.4141 22.948 89.4723C22.9932 89.5304 23.0578 89.5703 23.13 89.5846C23.2022 89.5989 23.2772 89.5867 23.3411 89.5501C23.405 89.5136 23.4535 89.4552 23.4778 89.3858C24.2106 86.3258 24.9794 85.4706 25.0346 84.7506C25.0538 84.501 24.7122 84.2922 24.5234 84.4922Z" fill="#191919"/>
<path d="M70.5687 103.302C71.1079 103.268 71.1399 102.614 70.5687 102.574C66.1881 102.276 61.836 101.651 57.5487 100.704C56.8614 97.2314 56.7087 93.6741 57.0959 90.1553C57.1647 89.6081 56.4767 89.6305 56.4079 90.1553C55.9615 93.5609 55.8375 97.2273 56.8607 100.527C55.5295 100.156 51.5863 99.1673 50.5223 98.3185C50.0435 95.0081 49.8827 91.6595 50.0423 88.3185C56.1148 88.2042 62.166 89.0711 67.9623 90.8857C68.2887 90.9881 68.3151 90.5281 68.0255 90.3513C66.0255 89.1305 61.9687 88.3953 59.5919 88.0873C59.4471 87.1185 58.7223 84.1217 58.2607 83.6241C58.2287 83.5956 58.1914 83.5738 58.151 83.5597C58.1106 83.5457 58.0677 83.5398 58.025 83.5423C57.9823 83.5448 57.9405 83.5558 57.902 83.5745C57.8635 83.5932 57.8291 83.6193 57.8007 83.6513C57.4807 84.0081 58.2479 84.8513 58.7903 87.9881C56.0554 87.6285 53.2998 87.45 50.5415 87.4537C49.4959 87.4537 49.2559 87.4537 49.1519 88.4137C48.9475 91.5296 49.069 94.6582 49.5143 97.7489C49.6687 98.9073 49.8663 99.1089 51.0079 99.6865C54.2687 101.338 66.4951 103.566 70.5687 103.302Z" fill="#191919"/>
<path d="M36.3434 94.6193C35.8546 100.469 36.7074 111.516 37.661 117.531C37.741 118.056 38.5618 117.985 38.4898 117.451C37.5088 109.888 37.0097 102.27 36.9954 94.6433C36.9858 94.5654 36.9487 94.4934 36.8909 94.4403C36.833 94.3871 36.7581 94.3564 36.6796 94.3535C36.6011 94.3506 36.5242 94.3758 36.4625 94.4245C36.4009 94.4732 36.3587 94.5423 36.3434 94.6193Z" fill="#191919"/>
<path d="M17.9086 105.834C20.4712 105.014 22.7873 103.564 24.6454 101.618C25.183 101.058 25.3734 100.772 24.8262 100.057C23.7794 98.8343 23.0302 97.3857 22.6374 95.8249C22.2446 94.264 22.2188 92.6334 22.5622 91.0609C22.7126 90.2369 22.5622 89.7673 21.707 89.9969C19.1902 90.6737 14.8726 92.2577 13.1054 93.8769C12.8238 94.1345 13.155 94.6105 13.4766 94.4201C16.022 92.8225 18.8026 91.6346 21.7166 90.9001C20.9966 95.1097 22.1062 97.4913 24.3382 100.782C23.3798 101.812 22.288 102.709 21.0918 103.449C17.3254 100.37 16.3486 96.4265 16.5646 94.5849C16.6086 94.2137 15.8398 93.6249 15.8494 94.6977C15.8652 96.4691 16.2853 98.2135 17.0776 99.7979C17.87 101.382 19.0136 102.765 20.4214 103.84C19.6834 104.25 18.9125 104.598 18.1166 104.88C13.3598 106.56 10.883 105.482 9.90464 100.579C8.34864 92.7833 14.7318 80.9617 19.7198 75.1817C23.7286 70.5353 25.0982 70.4025 31.3366 68.2505C31.8989 69.8167 32.7694 71.2543 33.8966 72.4785C34.963 73.6401 35.4006 72.1273 38.5182 69.7081C39.5804 70.7099 40.5475 71.8079 41.407 72.9881C41.7758 73.4465 42.207 73.4081 42.767 73.1825C46.0449 71.6678 48.9972 69.5306 51.4598 66.8897C52.071 67.4737 59.6998 70.0321 64.3534 74.6265C68.6582 78.8777 74.5054 89.3033 75.2998 95.4929C75.3686 96.0265 76.007 95.8817 75.9398 95.3433C75.1398 89.1081 69.6006 78.6529 64.8998 74.0633C61.3598 70.6033 56.4798 68.1265 51.8942 66.3649C51.9397 66.308 51.9732 66.2426 51.9928 66.1725C52.0124 66.1024 52.0177 66.0291 52.0083 65.9569C51.999 65.8847 51.9752 65.8151 51.9385 65.7523C51.9017 65.6895 51.8526 65.6347 51.7942 65.5913C51.0147 64.8787 50.1774 64.232 49.291 63.6577C48.4774 63.1433 48.4478 63.1217 47.6974 63.7761C44.5902 66.4849 42.9438 67.4289 38.5886 68.6153C37.1727 67.6703 35.9178 66.504 34.8718 65.1609C34.4214 64.5841 34.383 64.5041 33.6998 64.8577C32.7486 65.3505 30.8334 66.7545 31.0782 67.4609C24.4614 69.7617 23.2638 69.7297 19.0678 74.6681C14.0622 80.5601 7.59984 92.2921 9.04864 100.418C9.97264 105.6 12.6222 107.52 17.9086 105.834ZM48.5758 64.1537C49.466 64.7168 50.3078 65.3528 51.0926 66.0553C48.6259 68.867 45.5556 71.0846 42.111 72.5425C41.2376 71.3318 40.229 70.2246 39.1046 69.2425C42.6906 68.5082 45.9831 66.74 48.5758 64.1561V64.1537ZM34.2558 65.4849C35.2115 66.9291 36.4534 68.1617 37.9046 69.1065C36.7304 69.9422 35.6738 70.9319 34.763 72.0489C33.4705 70.7182 32.4633 69.1377 31.803 67.4041C32.4789 66.6037 33.3125 65.9512 34.2518 65.4873L34.2558 65.4849Z" fill="#191919"/>
<path d="M43.3151 95.253C43.3151 95.1178 43.2655 94.937 43.1159 94.8954C42.3775 94.693 42.6631 95.5354 40.2591 95.4706C40.1784 95.4565 40.0952 95.473 40.0259 95.5168C39.9566 95.5606 39.9061 95.6286 39.8841 95.7076C39.8622 95.7866 39.8704 95.871 39.9072 95.9443C39.944 96.0176 40.0067 96.0745 40.0831 96.1042C41.2487 96.5722 43.3039 95.9146 43.3151 95.253Z" fill="#191919"/>
<path d="M41.8705 86.1217C41.4809 86.0585 41.4537 86.6433 41.7905 86.7737C44.2201 87.7201 45.2001 87.1033 47.4769 89.0057C47.7529 89.2369 48.2833 89.0377 48.1601 88.6057C47.7793 87.2577 44.4417 86.5393 41.8705 86.1217Z" fill="#191919"/>
<path d="M43.713 97.7928C44.193 97.4448 43.8898 96.82 43.301 97.0824C42.6624 97.4144 41.9227 97.4951 41.2274 97.3088C40.8562 97.2408 40.7707 97.6624 41.0875 97.9336C41.6859 98.4456 43.1066 98.2328 43.713 97.7928Z" fill="#191919"/>
<path d="M39.2179 93.5282C38.8979 93.6042 38.9555 94.2114 39.2979 94.1898C43.1091 93.9498 44.2403 89.8786 43.4491 89.1778C43.3961 89.1306 43.3276 89.1046 43.2567 89.1046C43.1858 89.1046 43.1173 89.1306 43.0643 89.1778C42.3507 89.8082 43.1619 92.5994 39.2179 93.5282Z" fill="#191919"/>
<path d="M42.6903 99.7602C45.4103 100.458 48.4359 98.4746 48.3703 97.3746C48.3703 97.1026 48.0311 96.8314 47.7687 97.0258C47.5063 97.2202 46.6143 99.3346 42.7887 99.1266C42.7128 99.1292 42.6402 99.1582 42.5834 99.2086C42.5266 99.259 42.4892 99.3277 42.4775 99.4027C42.4658 99.4777 42.4807 99.5545 42.5196 99.6197C42.5584 99.685 42.6188 99.7347 42.6903 99.7602Z" fill="#191919"/>
<path d="M24.2011 90.509C25.3435 89.0314 28.0779 86.189 30.1675 87.3674C30.6427 87.6354 30.9771 86.9162 30.4987 86.6474C28.0491 85.2738 24.6051 87.9474 23.7075 89.9338C23.3595 90.7018 23.9875 90.785 24.2011 90.509Z" fill="#191919"/>
<path d="M31.7392 95.9913C30.8488 95.8951 29.9802 95.6535 29.168 95.2761C28.848 95.2209 28.048 96.0689 30.1728 96.5561C32.5808 97.1105 32.16 96.0185 31.7392 95.9913Z" fill="#191919"/>
<path d="M28.6829 97.2498C27.8181 96.829 27.8293 98.0122 29.3125 98.3906C29.7661 98.5066 31.1293 98.489 31.0013 97.9378C30.8845 97.4402 30.4261 98.097 28.6829 97.2498Z" fill="#191919"/>
<path d="M29.5935 99.7602C29.9655 99.5682 29.7783 98.997 29.3847 99.1202C28.0247 99.5362 27.0799 99.4954 25.1703 98.785C25.103 98.7649 25.0309 98.7675 24.9652 98.7924C24.8996 98.8174 24.8439 98.8632 24.8069 98.9229C24.7698 98.9826 24.7535 99.0528 24.7603 99.1227C24.7671 99.1926 24.7968 99.2584 24.8447 99.3098C25.5378 99.7703 26.3341 100.052 27.1625 100.131C27.991 100.21 28.8261 100.082 29.5935 99.7602Z" fill="#191919"/>
<path d="M33.0657 94.1849C30.5761 92.8945 29.9969 92.1249 29.3265 90.7625C29.1865 90.4769 28.5265 90.5841 28.7561 91.3553C29.2177 92.8969 31.3865 94.1801 32.7401 94.8753C32.7862 94.9031 32.8377 94.9209 32.8911 94.9276C32.9446 94.9343 32.9989 94.9296 33.0504 94.914C33.102 94.8984 33.1497 94.8721 33.1905 94.8368C33.2312 94.8016 33.2641 94.7582 33.287 94.7094C33.31 94.6607 33.3224 94.6076 33.3235 94.5538C33.3246 94.4999 33.3144 94.4464 33.2935 94.3967C33.2727 94.3471 33.2416 94.3023 33.2024 94.2654C33.1631 94.2285 33.1165 94.2002 33.0657 94.1825V94.1849Z" fill="#191919"/>
<path d="M121.505 108.441C120.15 110.132 119.386 113.442 121.36 114.779C123.542 116.257 126.267 114.73 127.6 112.805C129.12 110.619 129.33 107.461 127.6 106.354C125.697 105.134 123.052 106.511 121.505 108.441ZM127.643 110.85C126.763 113.113 123.907 115.379 121.926 114.073C120.381 113.055 121.126 110.144 122.183 108.903C123.122 107.799 124.795 106.529 126.366 106.811C128.25 107.15 128.164 109.514 127.643 110.85Z" fill="#191919"/>
<path d="M101.947 123.055C101.901 123.055 88.1342 123.27 85.7166 123.367C83.8766 123.442 83.4534 123.58 83.4534 125.251C83.3968 125.633 83.4757 126.024 83.6766 126.355C83.8775 126.685 84.1876 126.936 84.5534 127.062C84.8654 127.131 85.0062 126.735 84.7982 126.509C84.6312 126.367 84.5024 126.185 84.4233 125.98C84.3443 125.775 84.3175 125.554 84.3454 125.336C84.3998 124.376 84.3726 124.274 85.6534 124.232C90.8462 124.061 95.7678 124.242 101.164 123.996C102.313 123.944 102.635 124.047 102.798 122.91C103.823 115.748 104.821 106.531 106.044 98.6626C106.618 94.9682 109.851 94.125 113.193 94.0178C120.467 93.7826 130.573 93.6042 137.933 93.4922C144.217 93.3962 143.421 95.9458 143.077 99.8306C142.277 108.885 141.385 116.812 140.229 124.603C140.153 125.105 139.94 125.576 139.613 125.963C139.566 125.99 139.525 126.027 139.492 126.071C139.46 126.115 139.437 126.165 139.425 126.218C139.414 126.272 139.413 126.327 139.425 126.38C139.436 126.434 139.458 126.484 139.49 126.529C139.522 126.573 139.563 126.61 139.61 126.637C139.658 126.664 139.71 126.681 139.764 126.687C139.819 126.693 139.874 126.687 139.925 126.67C139.977 126.653 140.025 126.625 140.065 126.588C140.654 126.005 141.026 125.239 141.121 124.415C142.098 116.512 143.146 108.838 143.873 100.851C144.45 94.5138 144.466 92.5714 138.581 92.5442C131.659 92.5122 119.114 93.1186 113.709 93.1282C109.141 93.1354 105.949 94.1946 105.247 98.8954C104.051 106.931 102.911 115.191 101.947 123.055Z" fill="#191919"/>
<path d="M62.3481 119.877C51.5481 121.294 32.1601 122.62 25.8137 119.533C25.7137 121.053 25.7273 124.68 25.6865 126.695C28.9913 126.654 60.2065 126.523 62.3569 126.437C62.3841 125.409 62.4801 121.488 62.3481 119.877Z" fill="#191919"/>
<path d="M100.299 77.5026C100.252 76.0801 100.13 74.661 99.9328 73.2514C99.8736 72.9706 99.356 72.9258 99.3888 73.2514C99.6728 76.0514 100.3 83.4114 98.7104 85.3842C97.848 86.4546 95.8488 86.7922 92.4352 85.7194C91.9832 85.577 91.8664 86.0394 92.2816 86.2442C93.5337 86.8526 94.9096 87.1625 96.3016 87.1498C96.4299 88.4422 96.7141 89.7144 97.148 90.9386C97.2696 91.2786 97.8096 91.1346 97.708 90.7786C97.4776 89.9785 97.3038 89.1631 97.188 88.3386C102.299 87.8858 107.442 83.9794 106.188 83.5034C104.934 83.0274 102.232 81.2738 100.299 77.5026Z" fill="#191919"/>
<path d="M88.224 89.5946V91.1378C88.2168 91.2226 88.2436 91.3069 88.2985 91.372C88.3535 91.4371 88.432 91.4778 88.5169 91.485C88.6017 91.4922 88.686 91.4654 88.7511 91.4105C88.8162 91.3556 88.8568 91.277 88.864 91.1922C89.0593 88.6798 89.02 86.1548 88.7464 83.6498C88.6464 82.7434 88.796 82.5146 88.0264 82.3826C86.9304 82.1938 86.5296 81.0226 86.356 79.8882C86.196 78.8338 86.5601 77.7282 87.4609 77.6786C88.2889 77.6354 88.548 78.6658 88.936 77.4658C89.1561 76.367 89.1362 75.2337 88.8776 74.1434C91.1096 74.1434 99.4096 73.8818 104.216 69.3938C104.886 68.769 101.708 68.8914 100.173 66.5938C97.1769 62.1066 88.5152 59.405 85.5 67.1962C81.66 65.6658 79.552 69.2298 80.756 79.1346C81.288 83.5122 77.7545 87.2834 77.7161 87.7362C77.6777 88.189 82.448 90.0066 88.224 89.5946Z" fill="#191919"/>
<path d="M46.3199 79.2089C45.5576 79.0284 44.809 78.7939 44.0799 78.5073C44.8135 77.5161 45.5831 76.5473 46.2535 75.5145C46.3087 75.4442 46.3336 75.3548 46.3229 75.2661C46.3122 75.1773 46.2666 75.0965 46.1963 75.0413C46.126 74.9862 46.0366 74.9612 45.9479 74.9719C45.8591 74.9826 45.7783 75.0282 45.7231 75.0985C44.7663 76.1622 43.8705 77.2792 43.0399 78.4441C42.97 78.5416 42.9417 78.6627 42.961 78.7811C42.9803 78.8994 43.0458 79.0052 43.1431 79.0753C43.7479 79.3645 44.3787 79.5957 45.0271 79.7657C43.9543 80.5401 42.3559 81.4369 41.3423 82.0297C40.7023 82.4041 40.8887 82.9825 41.5775 82.7353C43.2471 81.934 44.8637 81.0269 46.4175 80.0193C46.8511 79.8017 46.8799 79.3409 46.3199 79.2089Z" fill="#71B6F6"/>
<path d="M32.8574 82.6273C32.3278 81.1769 31.691 79.7561 31.0462 78.3529C30.8774 77.9849 30.4862 77.7641 30.2182 78.3265C30.007 78.7848 29.7491 79.2202 29.4486 79.6257C28.7662 78.4686 28.1831 77.2557 27.7054 76.0001C27.6896 75.9588 27.6659 75.9209 27.6355 75.8888C27.6051 75.8566 27.5687 75.8307 27.5284 75.8126C27.488 75.7946 27.4444 75.7846 27.4002 75.7833C27.356 75.7821 27.3119 75.7895 27.2706 75.8053C27.2293 75.8211 27.1914 75.8448 27.1593 75.8752C27.1271 75.9056 27.1012 75.942 27.0832 75.9824C27.0651 76.0227 27.0551 76.0663 27.0538 76.1105C27.0526 76.1547 27.06 76.1988 27.0758 76.2401C27.5925 77.778 28.2314 79.272 28.9862 80.7081C29.0143 80.7819 29.0612 80.847 29.1221 80.8971C29.1831 80.9472 29.2561 80.9805 29.3339 80.9938C29.4117 81.007 29.4916 80.9997 29.5658 80.9726C29.6399 80.9456 29.7057 80.8996 29.7566 80.8393C30.0761 80.4139 30.3534 79.9584 30.5846 79.4793C31.1745 80.5885 31.7065 81.7277 32.1782 82.8921C32.1898 82.944 32.2124 82.9928 32.2446 83.0352C32.2767 83.0775 32.3177 83.1124 32.3646 83.1374C32.4115 83.1625 32.4633 83.177 32.5164 83.1802C32.5695 83.1833 32.6226 83.175 32.6722 83.1556C32.7217 83.1363 32.7665 83.1065 32.8035 83.0683C32.8404 83.03 32.8686 82.9842 32.8862 82.9341C32.9038 82.8839 32.9104 82.8305 32.9054 82.7775C32.9004 82.7246 32.884 82.6733 32.8574 82.6273Z" fill="#71B6F6"/>
<path d="M19.2001 105.847C15.2497 111.245 15.5785 118.567 8.33452 124.191C7.52412 124.82 7.43212 126.105 9.07692 124.816C15.5169 119.769 16.2057 112.97 19.8289 106.256C20.0497 105.844 19.4401 105.52 19.2001 105.847Z" fill="#71B6F6"/>
<path d="M66.5987 119.07C54.6227 113.918 53.8651 103.512 48.0387 99.3369C47.6899 99.0873 47.3387 99.6105 47.5859 99.9073C54.2803 107.966 55.0419 115.386 66.3059 120.026C66.9099 120.274 67.1747 119.318 66.5987 119.07Z" fill="#71B6F6"/>
<path d="M136.73 74.2401C136.362 79.5121 136.377 85.9425 132.085 90.3257C131.637 90.7825 132.298 91.5337 132.741 91.0721C137.191 86.4409 137.653 80.6145 137.581 74.2945C137.584 74.2386 137.577 74.1826 137.559 74.1295C137.541 74.0765 137.512 74.0276 137.475 73.9856C137.438 73.9435 137.394 73.9092 137.343 73.8845C137.293 73.8598 137.238 73.8453 137.182 73.8417C137.127 73.8381 137.071 73.8456 137.018 73.8637C136.965 73.8818 136.916 73.9101 136.874 73.9471C136.832 73.9841 136.797 74.029 136.772 74.0793C136.748 74.1296 136.733 74.1842 136.73 74.2401Z" fill="#71B6F6"/>
<path d="M135.814 36.1962C135.702 34.8834 135.699 32.3225 135.447 31.2361C135.367 30.8969 134.826 30.8105 134.732 31.1913C134.567 32.9212 134.61 34.6645 134.859 36.3842C134.935 36.9794 135.871 36.8706 135.814 36.1962Z" fill="#71B6F6"/>
<path d="M115.839 53.2185C116.51 53.2681 119.316 52.7241 120.339 52.6249C120.86 52.5753 120.793 51.6809 120.249 51.7201C119.439 51.7769 116.428 52.0817 115.681 52.5305C115.619 52.574 115.571 52.6351 115.544 52.7059C115.517 52.7767 115.511 52.854 115.528 52.9279C115.545 53.0018 115.584 53.069 115.639 53.1208C115.695 53.1725 115.764 53.2066 115.839 53.2185Z" fill="#71B6F6"/>
<path d="M120.948 39.1385C121.988 40.0417 122.526 40.4537 123.212 41.0809C123.701 41.5281 124.419 41.0553 124 40.5425C123.139 39.6257 122.186 38.8002 121.156 38.0793C120.32 37.3329 119.846 38.1849 120.948 39.1385Z" fill="#71B6F6"/>
<path d="M148.16 34.8377C147.327 35.4313 146 37.6689 145.512 38.5233C145.475 38.5787 145.45 38.6411 145.438 38.7067C145.427 38.7723 145.428 38.8395 145.444 38.9044C145.459 38.9692 145.488 39.0301 145.527 39.0835C145.567 39.1368 145.618 39.1814 145.676 39.2144C145.734 39.2474 145.798 39.2681 145.864 39.2753C145.93 39.2825 145.997 39.276 146.061 39.2562C146.124 39.2364 146.183 39.2037 146.233 39.1602C146.284 39.1167 146.325 39.0633 146.354 39.0033C147.103 37.7361 147.93 36.5113 148.699 35.2553C148.844 35.0161 148.41 34.6569 148.16 34.8377Z" fill="#71B6F6"/>
<path d="M125.393 51.3393C125.713 55.7129 128.872 59.4521 132.287 61.9601C132.739 62.2921 133.087 61.7337 132.699 61.3721C130.119 58.9417 127.433 56.3913 126.611 52.7705C123.71 40.0001 146.332 38.1881 146.463 49.9201C146.51 54.2073 143.743 57.7449 141.207 60.9441C140.812 61.4417 141.384 61.8553 141.804 61.3969C144.423 58.5345 147.062 55.0593 147.404 50.9841C148.565 37.3825 124.418 38.1201 125.393 51.3393Z" fill="#71B6F6"/>
<path d="M155.512 47.4866C153.937 47.6698 152.344 47.8794 150.792 48.1618C150.34 48.2418 150.525 48.945 150.937 48.913C152.522 48.7909 154.103 48.6128 155.682 48.3786C156.218 48.2994 156.015 47.429 155.512 47.4866Z" fill="#71B6F6"/>
<path d="M140.174 52.4625C143.874 49.2089 139.507 46.0697 137.938 49.8273C137.552 50.7527 137.249 51.7103 137.032 52.6889C136.176 52.8409 135.305 52.885 134.438 52.8201C134.103 51.5753 133.646 49.5401 132.358 48.9801C129.723 47.8345 128.342 52.8465 133.657 53.7153C134.256 56.2351 134.723 58.7844 135.056 61.3529C135.066 61.4326 135.106 61.5058 135.166 61.5588C135.226 61.6119 135.304 61.6411 135.384 61.6411C135.465 61.6411 135.542 61.6119 135.603 61.5588C135.663 61.5058 135.702 61.4326 135.713 61.3529C135.67 58.8149 135.327 56.2908 134.694 53.8329C135.409 53.8616 136.126 53.8282 136.835 53.7329C136.494 56.2262 136.632 58.7618 137.242 61.2033C137.378 61.8233 138.062 61.6553 137.949 61.0577C137.475 58.5744 137.465 56.0249 137.917 53.5377C138.751 53.3862 139.53 53.0151 140.174 52.4625ZM140.201 49.2297C141.463 50.0601 139.49 52.1097 138.154 52.4297C138.893 49.4649 139.734 48.9225 140.201 49.2297ZM131.146 51.2129C130.626 50.1985 131.526 49.2977 132.355 50.1537C132.872 50.9024 133.218 51.7552 133.37 52.6521C132.92 52.5751 132.49 52.4078 132.106 52.1604C131.723 51.9129 131.393 51.5903 131.138 51.2121L131.146 51.2129Z" fill="#71B6F6"/>
<path d="M154.512 60.2712C153.157 59.4909 151.729 58.8452 150.248 58.3432C149.867 58.2392 149.628 58.8232 149.944 59.04C151.219 59.9016 152.749 60.3392 154.078 61.12C154.919 61.6184 155.549 60.9776 154.512 60.2712Z" fill="#71B6F6"/>
<path d="M125.09 61.8833C124.501 61.9945 122.504 64.3729 122.21 64.9233C121.619 66.0433 122.456 66.1601 122.641 65.8289C123.479 64.3241 124.966 63.2969 125.402 62.6593C125.607 62.3625 125.561 61.7945 125.09 61.8833Z" fill="#71B6F6"/>
<path d="M132.533 62.8745C132.306 68.9681 133.614 72.7081 136.937 72.7145C141.17 72.7209 141.628 67.6401 141.342 62.5649C138.421 62.9355 135.473 63.0392 132.533 62.8745ZM139.301 68.4249C138.152 69.1941 136.835 69.6741 135.461 69.8241C134.953 69.8329 134.856 69.2705 135.338 69.1497C136.582 68.8523 137.762 68.3322 138.82 67.6145C138.926 67.5691 139.045 67.5638 139.154 67.5996C139.264 67.6353 139.357 67.7097 139.416 67.8089C139.475 67.908 139.495 68.0252 139.474 68.1386C139.453 68.2519 139.391 68.3537 139.301 68.4249ZM139.437 65.4057C138.447 66.1945 135.095 67.0353 134.61 67.0057C134.253 67.0057 134.034 66.6193 134.389 66.3857C135.017 65.9713 137.029 65.6233 138.916 64.6257C139.553 64.2897 140.046 64.9193 139.44 65.4057H139.437Z" fill="#71B6F6"/>
<path d="M35.1194 85.4249C31.7594 85.5849 30.4378 87.0049 30.633 89.5849C30.8282 92.1649 32.3258 92.7545 35.1282 92.8225C34.4924 91.6937 34.1577 90.4204 34.1562 89.1249C34.1546 87.8294 34.4863 86.5552 35.1194 85.4249Z" fill="#71B6F6"/>
<path d="M41.0654 89.2953C41.115 86.3849 38.3454 85.5473 36.235 85.4249C35.5324 86.5289 35.1592 87.8103 35.1592 89.1189C35.1592 90.4275 35.5324 91.709 36.235 92.8129C38.4982 92.7177 40.3902 92.2337 40.9022 90.3641C41.4094 90.5809 41.6382 91.0841 42.0294 90.7393C42.6294 90.2073 41.4814 89.5129 41.0654 89.2953Z" fill="#71B6F6"/>
<path d="M95.4227 98.6033C94.3091 97.0145 90.0171 93.9721 86.4547 91.4689C83.4531 92.3737 77.8803 95.0001 74.8739 98.0649C71.8675 101.13 66.9219 115.431 68.1915 122.511C69.0715 127.419 72.8595 126.776 82.6787 126.686C82.4611 126.002 82.2491 123.557 83.4891 122.828C84.7291 122.099 96.8715 122.188 101.145 122.227C101.322 121.262 101.666 118.605 102.051 115.395C94.6171 114.942 85.1915 116.134 77.8107 116.731C77.3579 116.767 77.3267 116.346 77.7515 116.278C78.7554 116.066 79.7674 115.895 80.7851 115.766C80.9075 113.955 81.5395 108.006 82.2155 106.259C82.3579 105.893 82.7547 106.027 82.6907 106.386C82.1653 109.459 81.8207 112.561 81.6587 115.675C88.4613 114.873 95.3086 114.51 102.158 114.589C104.442 96.2737 104.12 94.5721 108.292 93.0529C107.092 92.4465 101.343 90.6993 98.5547 90.6993C98.3387 91.7401 96.7083 96.8873 95.4227 98.6033Z" fill="#71B6F6"/>
<path d="M115.18 92.2402C117.606 92.1546 122.038 92.041 123.604 91.9554C123.713 91.3258 123.899 90.3554 124.261 88.881C123.356 88.241 118.493 85.7482 117.061 85.121C116.95 85.6058 115.637 90.441 115.18 92.2402Z" fill="#71B6F6"/>
</svg>
