<svg width="164" height="164" viewBox="0 0 164 164" fill="none" xmlns="http://www.w3.org/2000/svg">
<path d="M95.213 98.5386C95.2107 98.482 95.1969 98.4264 95.1724 98.3754C95.1478 98.3243 95.1131 98.2789 95.0703 98.2417C95.0661 98.0707 95.0208 97.9032 94.9383 97.7534C94.8557 97.6036 94.7383 97.4758 94.596 97.3809C94.4536 97.2861 94.2905 97.2268 94.1205 97.2082C93.9504 97.1896 93.7784 97.2122 93.6189 97.2741C92.9629 96.4541 91.5911 97.6891 92.0609 98.1868C92.0503 98.1975 92.0503 98.2089 92.0388 98.2196C91.7108 99.0552 92.5997 99.9367 93.3696 100.078C93.596 100.127 93.8305 100.123 94.0553 100.068C94.2801 100.012 94.4893 99.9066 94.6671 99.7582C94.8448 99.6098 94.9863 99.4228 95.0809 99.2114C95.1755 99.0001 95.2207 98.77 95.213 98.5386Z" fill="#191919"/>
<path d="M71.2657 106.873C71.177 106.726 71.0448 106.61 70.8874 106.541C70.73 106.472 70.555 106.453 70.3867 106.488C70.3053 106.51 70.2312 106.554 70.1714 106.614C70.1117 106.673 70.0683 106.747 70.0455 106.829C69.7782 107.619 70.5744 108.469 71.123 108.115C71.4887 107.949 71.4559 107.174 71.2657 106.873Z" fill="#191919"/>
<path d="M75.9718 105.268C75.8842 105.119 75.7522 105.002 75.5944 104.933C75.4366 104.864 75.2611 104.847 75.0928 104.883C75.0114 104.906 74.9373 104.949 74.8775 105.009C74.8178 105.069 74.7744 105.143 74.7516 105.224C74.4843 106.014 75.2797 106.859 75.8291 106.51C76.1932 106.345 76.1637 105.577 75.9718 105.268Z" fill="#191919"/>
<path d="M76.3126 110.083C75.7396 108.882 75.0549 107.737 74.2675 106.664C74.0679 106.308 73.7848 106.006 73.4426 105.784C73.4075 105.765 73.3677 105.757 73.328 105.76C73.2883 105.764 73.2504 105.779 73.219 105.803C73.1876 105.828 73.1639 105.861 73.1509 105.898C73.1379 105.936 73.1361 105.977 73.1458 106.015C73.1982 106.356 73.3007 106.404 74.1576 107.786C74.8262 108.876 75.4178 110.011 75.928 111.183V111.216C75.3999 111.205 73.9707 111.206 73.8165 111.238C73.4434 111.32 73.5197 111.812 73.8165 111.919C74.2683 112.038 74.7368 112.079 75.2023 112.041C75.6141 112.092 76.032 112.062 76.4323 111.953C77.222 111.602 76.5438 110.567 76.3126 110.083Z" fill="#191919"/>
<path d="M73.9707 113.811C73.9852 114.194 74.1343 114.559 74.3917 114.843C74.6491 115.126 74.9983 115.31 75.3778 115.361C75.7788 115.359 76.1654 115.212 76.4667 114.947C76.768 114.683 76.9637 114.318 77.0178 113.921C77.0859 113.636 77.163 113.177 76.7981 113.053C76.4594 112.936 76.2839 113.273 76.2044 113.536C76.0871 113.922 75.9731 114.503 75.4565 114.503C74.9071 114.503 74.7349 113.929 74.3791 113.635C74.3441 113.604 74.3011 113.584 74.255 113.577C74.209 113.569 74.1618 113.575 74.1191 113.594C74.0763 113.612 74.0396 113.642 74.0133 113.681C73.9871 113.719 73.9723 113.765 73.9707 113.811Z" fill="#191919"/>
<path d="M62.5905 121.77C61.705 121.904 60.8379 122.14 60.0067 122.474C54.0355 124.565 47.815 126.994 42.4915 130.797C41.6808 131.36 40.906 131.973 40.1718 132.633C39.4153 133.241 38.8628 134.066 38.5883 134.997C38.5227 135.293 38.9163 135.603 39.1492 135.325C39.6547 134.67 40.1942 134.043 40.7654 133.445C42.78 131.714 44.973 130.202 47.3074 128.935C51.3604 126.79 55.5775 124.97 59.919 123.493C60.8922 123.201 61.829 122.798 62.7111 122.294C62.9645 122.156 62.898 121.738 62.5905 121.77Z" fill="#191919"/>
<path d="M78.1155 122.398C85.7686 126.041 93.0863 126.334 99.2715 133.91C101.221 136.296 101.631 137.721 102.581 138.901C102.836 139.219 103.262 138.869 103.197 138.539C102.958 137.644 102.568 136.796 102.042 136.032C100.598 133.678 98.774 131.579 96.6443 129.82C92.9452 126.78 90.0285 125.914 85.99 124.432C80.0171 122.241 79.8277 122.213 78.3591 121.87C78.0278 121.793 77.8089 122.252 78.1155 122.398Z" fill="#191919"/>
<path d="M115.961 101.639C115.762 101.967 115.574 102.64 115.906 102.958C115.965 103.012 116.035 103.053 116.11 103.08C116.186 103.106 116.266 103.117 116.346 103.112C116.426 103.107 116.504 103.086 116.576 103.05C116.647 103.014 116.711 102.964 116.763 102.903C116.932 102.686 117.028 102.42 117.038 102.145C117.133 101.239 116.301 101.08 115.961 101.639Z" fill="#191919"/>
<path d="M121.062 102.035C120.993 101.996 120.917 101.971 120.838 101.962C120.76 101.953 120.68 101.96 120.604 101.982C120.528 102.005 120.457 102.043 120.396 102.093C120.335 102.144 120.285 102.206 120.249 102.277C120.051 102.605 119.862 103.278 120.194 103.596C120.253 103.65 120.323 103.691 120.399 103.717C120.474 103.744 120.554 103.754 120.634 103.749C120.714 103.744 120.792 103.723 120.864 103.687C120.935 103.652 120.999 103.602 121.051 103.541C121.221 103.324 121.317 103.058 121.326 102.783C121.36 102.646 121.352 102.502 121.306 102.37C121.259 102.237 121.174 102.121 121.062 102.035Z" fill="#191919"/>
<path d="M116.785 106.272C117.306 105.922 117.742 105.46 118.061 104.92C118.504 104.156 118.774 103.304 118.853 102.424C118.873 102.171 118.512 102.106 118.391 102.303C117.817 103.235 117.554 104.502 116.533 105.349C116.311 105.533 115.927 105.656 115.763 105.91C115.409 106.457 116.214 107.031 116.588 107.328C117.072 107.713 117.764 108.251 118.413 108.097C118.459 108.084 118.502 108.06 118.537 108.028C118.573 107.996 118.601 107.956 118.619 107.912C118.637 107.868 118.644 107.82 118.641 107.772C118.638 107.724 118.624 107.677 118.6 107.636C118.269 107.092 117.496 107.01 116.785 106.272Z" fill="#191919"/>
<path d="M119.966 108.83C118.947 109.304 117.793 109.398 116.711 109.094C116.393 108.962 116.055 108.884 115.711 108.863C115.672 108.865 115.634 108.876 115.6 108.897C115.566 108.917 115.539 108.945 115.519 108.979C115.499 109.013 115.488 109.051 115.487 109.091C115.486 109.13 115.495 109.169 115.513 109.204C115.898 109.886 117.071 110.052 117.778 110.105C118.371 110.145 118.967 110.078 119.537 109.908C118.659 112.541 116.851 112.778 116.568 111.953C116.369 111.371 116.445 110.744 116.261 110.16C116.239 110.091 116.195 110.03 116.136 109.987C116.077 109.944 116.006 109.921 115.933 109.921C115.86 109.921 115.789 109.944 115.73 109.987C115.671 110.03 115.627 110.091 115.605 110.16C115.402 110.956 115.483 111.797 115.836 112.538C116.039 112.851 116.342 113.086 116.696 113.203C117.049 113.321 117.432 113.315 117.782 113.187C119.25 112.866 120.301 110.809 120.586 109.328C120.613 109.246 120.615 109.157 120.59 109.074C120.566 108.991 120.516 108.918 120.449 108.864C120.381 108.809 120.299 108.777 120.213 108.771C120.126 108.765 120.04 108.786 119.966 108.83Z" fill="#191919"/>
<path d="M124.845 123.082C124.499 122.992 124.133 123.027 123.81 123.181C121.9 123.714 119.857 123.494 118.104 122.565C117.391 122.201 116.784 121.669 116.093 121.279C116.058 121.259 116.02 121.247 115.98 121.245C115.94 121.243 115.9 121.25 115.864 121.266C115.828 121.282 115.795 121.306 115.77 121.337C115.745 121.368 115.727 121.404 115.719 121.443C115.346 121.336 115.318 121.453 113.564 121.597C110.346 121.862 103.396 120.975 99.1375 125.236C98.074 126.18 97.3675 127.461 97.1367 128.865C97.1382 128.953 97.1683 129.039 97.2226 129.109C97.2768 129.179 97.3523 129.23 97.4377 129.253C97.5231 129.277 97.6138 129.272 97.6963 129.24C97.7788 129.207 97.8486 129.149 97.8952 129.074C98.3623 128.006 98.9849 127.013 99.7427 126.127C103.708 121.951 110.204 122.946 113.64 122.542C114.311 122.46 115.378 122.422 115.854 121.872C115.865 121.861 115.865 121.861 115.865 121.85C117.058 123.746 120.275 124.677 122.693 124.401C123.364 124.324 124.721 124.244 125.035 123.51C125.054 123.47 125.064 123.426 125.065 123.382C125.065 123.337 125.056 123.293 125.038 123.252C125.02 123.212 124.993 123.175 124.96 123.146C124.927 123.117 124.887 123.095 124.845 123.082Z" fill="#191919"/>
<path d="M104.273 93.7006C103.844 93.1176 102.49 92.5231 102.041 93.4152C102.025 93.4419 102.015 93.472 102.013 93.5031C102.01 93.5342 102.015 93.5654 102.027 93.5943C102.039 93.6232 102.057 93.6489 102.081 93.6693C102.104 93.6898 102.132 93.7044 102.163 93.7121C102.427 93.7539 102.69 93.6801 102.943 93.7334C103.096 93.7698 103.239 93.8414 103.359 93.9427C103.479 94.0439 103.574 94.1719 103.636 94.3164C104.382 95.8531 103.045 97.9031 101.832 97.4832C101.57 97.3922 101.415 97.1552 101.184 97.0216C100.844 96.8281 100.446 97.1971 100.722 97.8022C100.652 97.8334 100.591 97.8826 100.546 97.9449C99.8622 99.1385 98.9238 100.167 97.7978 100.958C94.9212 102.717 91.8118 101.434 91.2665 98.8133C90.8565 96.8272 91.2542 93.4316 91.6068 91.4579C91.7626 90.5895 92.0102 89.6982 92.0799 88.8191C92.0799 88.7621 92.0612 88.7067 92.0266 88.6614C91.992 88.6161 91.9434 88.5835 91.8884 88.5684C91.8334 88.5534 91.775 88.5569 91.7222 88.5784C91.6694 88.5998 91.6251 88.638 91.5961 88.6871C90.5301 90.8306 89.9045 97.0093 90.4859 99.2864C90.8313 100.499 91.6432 101.525 92.7437 102.14C93.8442 102.754 95.1436 102.908 96.3571 102.566C96.3267 102.903 96.4095 103.149 96.3349 104.413C96.2431 105.977 96.0069 106.174 96.2693 106.557C96.2894 106.591 96.316 106.621 96.3476 106.644C96.3792 106.667 96.4152 106.684 96.4534 106.693C96.4916 106.703 96.5313 106.704 96.5701 106.698C96.6089 106.692 96.646 106.678 96.6793 106.657C97.0278 106.421 97.0401 106.062 97.0967 105.655C97.2085 104.868 97.2308 104.07 97.1631 103.277C97.1538 102.968 97.1058 102.662 97.0204 102.365C97.2509 102.277 97.4846 102.194 97.7125 102.09C99.3238 101.31 100.578 99.9455 101.22 98.2745C103.658 99.4373 105.744 95.7006 104.273 93.7006Z" fill="#191919"/>
<path d="M102.91 98.8797C102.502 99.9117 102.326 101.021 102.394 102.129C102.463 103.236 102.774 104.316 103.306 105.29C103.526 105.652 104.194 105.412 104.021 104.982C103.014 102.475 103.055 101.628 103.35 99.0002C103.351 98.9481 103.334 98.8971 103.303 98.8554C103.271 98.8136 103.227 98.7835 103.177 98.7697C103.126 98.7559 103.073 98.7592 103.025 98.7791C102.977 98.799 102.936 98.8344 102.91 98.8797Z" fill="#191919"/>
<path d="M112.278 84.5969C112.571 84.095 112.755 83.5367 112.818 82.9588C112.88 82.3808 112.82 81.7962 112.641 81.2431C112.474 80.8339 112.192 80.4818 111.829 80.23C111.466 79.9781 111.037 79.8372 110.595 79.8245C110.882 78.4724 110.793 76.857 109.826 75.8557C109.526 75.5509 109.139 75.3461 108.717 75.2694C108.296 75.1927 107.862 75.2476 107.473 75.4269C107.385 74.9179 107.165 74.4408 106.835 74.0434C106.505 73.646 106.077 73.3421 105.593 73.162C105.132 73.0162 104.638 73.0127 104.175 73.1519C103.712 73.2912 103.302 73.5668 102.998 73.9427C102.114 73.2154 101.036 72.7642 99.8977 72.6454C99.5354 72.5681 99.1578 72.6098 98.821 72.7641C98.4842 72.9185 98.2061 73.1774 98.0281 73.5023C97.531 73.1813 96.9551 73.0032 96.3636 72.9878C95.772 72.9723 95.1876 73.12 94.6743 73.4146C94.2108 73.7131 93.8477 74.144 93.6321 74.6513C93.4164 75.1587 93.3581 75.7191 93.4648 76.26C92.9107 76.2324 92.3582 76.3412 91.8559 76.577C91.3537 76.8127 90.917 77.1682 90.5842 77.6122C90.2742 78.0681 90.0986 78.602 90.0773 79.1529C90.056 79.7038 90.1898 80.2496 90.4636 80.7282C90.0022 80.8595 89.595 81.1354 89.3021 81.5154C89.0091 81.8953 88.8457 82.3592 88.8359 82.8389C88.8551 83.1396 88.941 83.4323 89.0875 83.6957C89.234 83.959 89.4374 84.1864 89.6829 84.3613C89.9283 84.5361 90.2097 84.654 90.5064 84.7064C90.8032 84.7588 91.1079 84.7444 91.3984 84.6642C91.4562 84.648 91.5101 84.6207 91.5573 84.5837C91.6044 84.5466 91.6438 84.5007 91.6732 84.4485C91.7026 84.3962 91.7214 84.3387 91.7286 84.2792C91.7357 84.2197 91.7311 84.1594 91.715 84.1017C91.6988 84.0439 91.6714 83.99 91.6344 83.9428C91.5974 83.8957 91.5515 83.8563 91.4993 83.8269C91.447 83.7975 91.3895 83.7787 91.33 83.7715C91.2705 83.7644 91.2102 83.769 91.1524 83.7851C90.9924 83.8193 90.8269 83.8179 90.6675 83.7812C90.508 83.7445 90.3586 83.6733 90.2296 83.5726C90.1007 83.4719 89.9953 83.3442 89.921 83.1985C89.8467 83.0527 89.8052 82.8925 89.7994 82.729C89.8662 82.379 90.0582 82.0654 90.3396 81.8468C90.6209 81.6283 90.9723 81.5198 91.3279 81.5416C91.4217 81.5406 91.5131 81.5121 91.5909 81.4598C91.6687 81.4074 91.7294 81.3334 91.7657 81.247C91.802 81.1605 91.8121 81.0653 91.795 80.9731C91.7778 80.8809 91.734 80.7958 91.669 80.7282C91.3104 80.3968 91.0847 79.9462 91.0342 79.4606C90.9836 78.975 91.1116 78.4875 91.3943 78.0894C91.7169 77.7051 92.1459 77.4248 92.6274 77.2838C93.109 77.1428 93.6215 77.1475 94.1003 77.2973C94.4628 77.3982 94.8736 76.9545 94.6284 76.6052C94.4982 76.4071 94.4104 76.1843 94.3703 75.9506C94.3302 75.717 94.3388 75.4776 94.3956 75.2474C94.4523 75.0173 94.5559 74.8013 94.7 74.6131C94.844 74.4248 95.0254 74.2683 95.2328 74.1534C95.7186 73.9264 96.2654 73.8647 96.7897 73.9778C97.3139 74.0909 97.7866 74.3727 98.1356 74.7799C98.4767 75.153 99.1392 74.6749 98.8506 74.2297C98.6243 73.882 99.0704 73.6171 99.3779 73.5737C100.018 73.5712 100.652 73.6963 101.244 73.9417C101.835 74.1871 102.372 74.5479 102.822 75.0029C102.879 75.0569 102.948 75.0955 103.024 75.1151C103.1 75.1347 103.18 75.1345 103.256 75.1148C103.332 75.095 103.402 75.0562 103.458 75.0021C103.515 74.9479 103.557 74.8802 103.58 74.8053C103.655 74.633 103.763 74.4772 103.898 74.3474C104.034 74.2176 104.194 74.1164 104.369 74.0497C104.544 73.983 104.731 73.9522 104.919 73.9592C105.106 73.9662 105.291 74.0107 105.461 74.0903C105.87 74.3282 106.203 74.6787 106.42 75.1002C106.636 75.5218 106.727 75.9966 106.682 76.4683C106.685 76.5758 106.727 76.6785 106.799 76.7584C106.871 76.8382 106.969 76.8899 107.076 76.9044C107.182 76.919 107.291 76.8953 107.381 76.8377C107.472 76.7801 107.54 76.6922 107.572 76.5896C107.656 76.4307 107.79 76.3032 107.952 76.226C108.115 76.1487 108.298 76.1259 108.474 76.1608C108.697 76.2059 108.906 76.3059 109.081 76.4518C109.255 76.5977 109.391 76.7849 109.475 76.9964C109.912 78.0586 109.92 79.2488 109.497 80.3165C109.346 80.747 109.839 80.9898 110.179 80.8446C111.016 80.4871 111.772 81.3063 111.894 82.0648C111.935 83.0214 111.686 83.9682 111.179 84.7806C111.135 84.8609 111.116 84.9522 111.123 85.0434C111.13 85.1346 111.164 85.2217 111.22 85.2941C111.276 85.3664 111.352 85.4209 111.438 85.4509C111.525 85.4809 111.618 85.4851 111.707 85.4629C112.169 85.3751 112.5 85.8581 112.543 86.2542C112.551 86.7861 112.406 87.3091 112.125 87.7605C111.968 88.1637 111.714 88.5222 111.386 88.8046C111.058 89.0869 110.666 89.2845 110.244 89.38C109.903 89.4243 109.834 89.9073 110.046 90.118C110.258 90.3287 110.14 91.1299 110.134 91.4152C110.139 91.9041 110.027 92.387 109.806 92.8232C109.651 93.1587 109.379 93.4266 109.042 93.5774C108.704 93.7281 108.323 93.7515 107.97 93.6432C107.887 93.5978 107.791 93.5806 107.698 93.594C107.604 93.6074 107.517 93.6508 107.45 93.7176C107.384 93.7844 107.34 93.8711 107.327 93.9647C107.313 94.0583 107.33 94.1538 107.375 94.2369C107.484 94.4833 107.53 94.7532 107.507 95.0218C107.484 95.2903 107.394 95.5488 107.245 95.7734C107.096 95.998 106.893 96.1815 106.655 96.3069C106.416 96.4324 106.15 96.4957 105.88 96.491C105.778 96.4947 105.68 96.5346 105.604 96.6037C105.529 96.6727 105.48 96.7664 105.467 96.868C105.454 96.9697 105.477 97.0727 105.532 97.1588C105.588 97.2449 105.672 97.3084 105.771 97.3381C105.886 97.3999 105.985 97.4881 106.06 97.5954C106.135 97.7027 106.183 97.8262 106.201 97.9557C106.22 98.0853 106.207 98.2173 106.165 98.3411C106.122 98.4649 106.051 98.5769 105.958 98.6681C105.42 99.1864 104.468 98.86 103.978 98.4484C103.745 98.2524 103.331 98.5025 103.516 98.7887C103.679 99.0429 103.896 99.2579 104.151 99.4183C104.407 99.5787 104.695 99.6804 104.995 99.7161C105.294 99.7519 105.598 99.7208 105.884 99.6251C106.17 99.5294 106.432 99.3714 106.65 99.1626C106.883 98.8882 107.024 98.5468 107.052 98.1873C107.08 97.8278 106.993 97.4688 106.804 97.1618C107.31 96.9644 107.737 96.6049 108.018 96.1394C108.298 95.6739 108.417 95.1286 108.354 94.5886C108.786 94.5911 109.211 94.4808 109.587 94.2687C109.963 94.0566 110.277 93.7499 110.499 93.3791C110.833 92.7729 111.011 92.0928 111.015 91.4005C111.064 90.9612 111.052 90.5174 110.982 90.0811C111.527 89.8085 112.01 89.4268 112.402 88.9596C112.793 88.4924 113.085 87.9497 113.258 87.3653C113.787 85.954 113.165 84.8921 112.278 84.5969Z" fill="#191919"/>
<path d="M93.6628 91.1167C93.6272 91.0577 93.5779 91.0079 93.5192 90.9717C93.4605 90.9354 93.394 90.9137 93.3252 90.9084C93.2564 90.903 93.1873 90.9141 93.1236 90.9408C93.06 90.9675 93.0036 91.009 92.9593 91.0618C92.8218 91.1982 92.7253 91.3703 92.6805 91.5587C92.6357 91.747 92.6445 91.9442 92.7059 92.1278C92.7223 92.1889 92.7527 92.2454 92.7946 92.2928C92.8365 92.3402 92.8888 92.3772 92.9474 92.401C93.006 92.4249 93.0693 92.4348 93.1324 92.4301C93.1955 92.4254 93.2566 92.4061 93.311 92.3738C93.514 92.2442 93.6621 92.0444 93.727 91.8125C93.7919 91.5806 93.769 91.3329 93.6628 91.1167Z" fill="#191919"/>
<path d="M96.6861 91.512C96.6506 91.4528 96.6014 91.4029 96.5427 91.3665C96.484 91.3302 96.4174 91.3084 96.3485 91.303C96.2797 91.2976 96.2105 91.3088 96.1468 91.3356C96.0832 91.3624 96.0269 91.404 95.9826 91.457C95.8449 91.5933 95.7483 91.7654 95.7037 91.9539C95.659 92.1423 95.6681 92.3395 95.73 92.5231C95.7465 92.584 95.7768 92.6404 95.8187 92.6877C95.8605 92.735 95.9127 92.772 95.9712 92.7958C96.0297 92.8196 96.0929 92.8296 96.1559 92.8249C96.2189 92.8203 96.28 92.8012 96.3343 92.7691C96.5365 92.6387 96.6839 92.4389 96.7487 92.2072C96.8135 91.9756 96.7912 91.7283 96.6861 91.512Z" fill="#191919"/>
<path d="M94.3562 91.8203C93.9349 92.3197 93.5903 92.8791 93.3337 93.48C93.0212 94.0837 92.7812 94.7223 92.6187 95.3824C92.3472 96.8231 94.2029 96.5607 95.027 96.218C95.3681 96.0761 95.1697 95.5693 94.8507 95.5693C94.3316 95.5693 93.724 95.7645 93.5313 95.6677C93.4214 95.7448 93.4001 95.7014 93.4542 95.5579C93.4879 95.4701 93.51 95.3602 93.542 95.2725C94.2947 93.1963 94.4948 92.9667 94.7408 92.0507C94.7999 91.8326 94.5112 91.6465 94.3562 91.8203Z" fill="#191919"/>
<path d="M103.184 87.2029C102.068 84.2279 99.0023 83.0414 95.9601 83.5523C94.3697 83.7428 92.8938 84.4768 91.7822 85.6301C91.7051 85.608 91.7141 85.7171 91.7822 85.6301L91.7715 85.6629C91.7379 85.6523 91.7273 85.6629 91.7051 85.6966C91.4739 86.1139 91.209 86.6986 91.5624 87.1258C91.9454 87.5891 92.6629 87.4038 93.1565 87.28C94.6686 86.8987 96.1512 85.968 98.2692 86.5649C100.367 87.1594 101.467 88.906 102.018 91.0069C102.174 91.6014 102.198 92.4074 102.833 92.6231C102.894 92.6419 102.958 92.6478 103.022 92.6406C103.086 92.6334 103.148 92.6132 103.203 92.5812C103.259 92.5493 103.307 92.5062 103.346 92.4547C103.384 92.4033 103.412 92.3445 103.426 92.282C103.725 90.5921 103.642 88.8568 103.184 87.2029Z" fill="#71B6F6"/>
<path d="M95.2238 106.939C95.5165 107.739 96.5554 108.156 97.3131 108.379C98.239 108.622 99.1924 108.744 100.15 108.742C101.211 108.815 102.276 108.676 103.283 108.332C104.009 108.047 105.068 107.486 105.174 106.628C105.188 106.564 105.184 106.498 105.162 106.437C105.139 106.376 105.1 106.323 105.048 106.284C104.996 106.244 104.934 106.221 104.87 106.215C104.805 106.21 104.74 106.223 104.682 106.254C103.9 106.718 103.616 107.941 100.054 107.805C96.6219 107.673 96.3144 106.863 95.4796 106.657C95.4415 106.646 95.4011 106.646 95.363 106.657C95.325 106.668 95.2907 106.689 95.2641 106.718C95.2374 106.747 95.2196 106.784 95.2124 106.823C95.2053 106.862 95.2092 106.902 95.2238 106.939Z" fill="#191919"/>
<path d="M94.8744 106.994C92.0464 107.32 89.258 107.928 86.5506 108.808C84.6746 109.368 82.9216 110.278 81.3846 111.49C81.1723 111.678 80.9905 111.897 80.8459 112.14C80.6885 112.405 80.6158 112.712 80.6376 113.019C80.6397 113.078 80.6585 113.135 80.6919 113.183C80.7253 113.232 80.7718 113.27 80.826 113.293C80.8802 113.316 80.9399 113.323 80.998 113.314C81.0561 113.304 81.1103 113.278 81.1542 113.239C81.5084 112.857 81.8676 112.414 82.2538 112.074C83.7715 110.962 85.4718 110.125 87.2779 109.6C89.7961 108.798 92.457 108.39 94.931 107.477C95.1696 107.368 95.1589 106.973 94.8744 106.994Z" fill="#191919"/>
<path d="M105.659 106.971C106.628 107.511 107.673 107.9 108.759 108.126C109.222 108.277 109.692 108.404 110.144 108.589C110.55 108.844 110.996 109.03 111.464 109.138C111.509 109.138 111.553 109.127 111.594 109.107C111.634 109.086 111.669 109.057 111.696 109.02C111.723 108.984 111.74 108.942 111.748 108.897C111.756 108.853 111.752 108.807 111.739 108.764C111.533 107.866 110.017 107.529 109.265 107.313C107.133 106.697 106.521 106.449 105.791 106.477C105.733 106.479 105.678 106.499 105.633 106.535C105.588 106.571 105.556 106.62 105.541 106.675C105.526 106.731 105.53 106.789 105.551 106.843C105.572 106.896 105.61 106.941 105.659 106.971Z" fill="#191919"/>
<path d="M53.9701 86.7412C52.981 85.9485 52.2124 84.9147 51.7381 83.7392C51.6509 83.3578 51.5372 82.983 51.3977 82.6174C51.3762 82.5849 51.3461 82.5589 51.3106 82.5425C51.2752 82.526 51.2359 82.5198 51.1971 82.5244C51.1584 82.5289 51.1216 82.5442 51.091 82.5685C51.0604 82.5927 51.0372 82.625 51.0238 82.6617C50.8997 83.3599 51.0119 84.0796 51.3428 84.7068C51.6128 85.335 51.9843 85.9146 52.4424 86.4222C52.9962 87.0106 53.6159 87.5334 54.2891 87.9802C54.3776 88.0352 54.3776 88.0787 54.2563 88.1336C54.1685 88.2976 53.8627 88.4772 53.7175 88.5961C53.4141 88.8421 52.9885 89.0462 52.9147 89.4644C52.8979 89.5327 52.9079 89.6048 52.9427 89.6658C52.9775 89.7269 53.0344 89.7722 53.1017 89.7924C53.5199 89.8589 53.7839 89.6063 54.1136 89.3529C54.5201 89.1123 54.8691 88.7857 55.1361 88.396C55.5141 87.5891 54.4637 87.1389 53.9701 86.7412Z" fill="#191919"/>
<path d="M51.1557 92.4583C51.0991 92.5673 51.0007 92.7969 50.881 92.8429C50.6924 92.9158 50.5178 92.6789 50.43 92.5575C50.184 92.1836 50.1955 91.6949 49.9462 91.3365C49.8642 91.2143 49.6248 91.1725 49.5502 91.3365C49.4251 91.7299 49.4446 92.155 49.6051 92.5354C49.6984 92.9281 49.9283 93.2748 50.2537 93.5136C50.4134 93.6194 50.5981 93.6812 50.7893 93.6929C50.9805 93.7046 51.1713 93.6656 51.3427 93.58C51.499 93.4814 51.6288 93.346 51.7207 93.1856C51.8127 93.0252 51.8639 92.8448 51.8699 92.66C51.92 92.2705 51.3271 92.1262 51.1557 92.4583Z" fill="#191919"/>
<path d="M48.615 84.1902C48.4884 84.2226 48.3755 84.2944 48.2925 84.3952C48.2095 84.4961 48.1607 84.6207 48.1533 84.7511C48.2224 85.0782 48.3695 85.3837 48.5822 85.6416C48.9102 85.9565 49.4399 85.8319 49.4399 85.0914C49.4399 84.6519 49.1439 84.0721 48.615 84.1902Z" fill="#191919"/>
<path d="M41.5572 90.0508C41.5244 89.9967 41.472 89.9573 41.4109 89.9408C41.3498 89.9243 41.2847 89.932 41.2292 89.9622C40.8421 90.1787 40.7683 90.601 40.5035 90.9192C40.2144 91.2735 39.8019 91.5053 39.3489 91.5678C38.8426 91.553 38.3486 91.4076 37.9151 91.1455C37.4816 90.8834 37.1233 90.5136 36.875 90.0721C35.7565 88.132 37.6277 85.2866 39.0742 86.4223C39.132 86.4811 39.2094 86.5166 39.2916 86.5221C39.3739 86.5276 39.4553 86.5027 39.5204 86.4521C39.5855 86.4015 39.6297 86.3287 39.6447 86.2476C39.6596 86.1665 39.6442 86.0828 39.6015 86.0123C39.4433 85.7619 39.2156 85.5631 38.9461 85.4402C38.6767 85.3172 38.3772 85.2756 38.0845 85.3202C36.4953 85.4908 34.9619 88.0262 35.9295 90.2238C36.2264 90.872 36.6967 91.4256 37.2884 91.8234C37.8801 92.2211 38.5702 92.4477 39.2825 92.478C39.9297 92.4409 40.5409 92.1678 41.0004 91.7105C41.4055 91.3062 41.945 90.61 41.5572 90.0508Z" fill="#191919"/>
<path d="M39.7315 92.733C40.3484 94.6065 40.5169 96.5987 40.2236 98.5492C40.0391 99.5037 39.7512 99.5332 39.7611 100.089C39.7619 100.133 39.7726 100.176 39.7925 100.215C39.8124 100.254 39.8409 100.288 39.8759 100.315C39.9109 100.341 39.9514 100.36 39.9945 100.368C40.0375 100.376 40.0819 100.375 40.1243 100.364C40.7738 100.282 40.9706 99.4947 41.0919 98.9453C41.5761 96.7676 41.2599 94.4884 40.2014 92.5247C40.1663 92.4756 40.1153 92.4401 40.057 92.4242C39.9988 92.4083 39.9368 92.413 39.8816 92.4375C39.8265 92.4619 39.7814 92.5047 39.754 92.5585C39.7267 92.6123 39.7188 92.674 39.7315 92.733Z" fill="#191919"/>
<path d="M38.1152 77.8344C38.2867 77.5919 38.3575 77.2924 38.3129 76.9988C38.2931 76.9312 38.2479 76.8739 38.1867 76.839C38.1255 76.8041 38.0531 76.7944 37.9849 76.8119C37.4018 76.898 37.1427 77.9016 36.9951 78.3953C36.4255 80.6764 36.7154 83.0873 37.8094 85.1685C37.9389 85.4145 38.2686 85.2349 38.2268 84.993C37.8184 82.6207 36.9467 80.4092 38.1152 77.8344Z" fill="#191919"/>
<path d="M44.2173 72.1944C43.4969 72.5311 42.8896 73.0695 42.469 73.7442C40.9356 75.6302 39.5925 78.0993 39.6982 80.5289C39.7105 80.8036 40.1369 80.8914 40.1902 80.5945C40.5937 78.2756 41.6124 76.1075 43.1398 74.3166C43.7058 73.7987 44.1686 73.1783 44.5034 72.488C44.5149 72.448 44.5155 72.4057 44.5054 72.3653C44.4952 72.325 44.4745 72.288 44.4455 72.2582C44.4164 72.2284 44.38 72.2068 44.34 72.1956C44.2999 72.1844 44.2575 72.184 44.2173 72.1944Z" fill="#191919"/>
<path d="M49.8917 70.356C49.8904 70.3164 49.8803 70.2777 49.8623 70.2424C49.8443 70.2072 49.8187 70.1764 49.7873 70.1522C49.756 70.128 49.7197 70.111 49.681 70.1024C49.6424 70.0938 49.6023 70.0939 49.5637 70.1026C49.0537 70.2666 49.1184 70.5823 48.0877 71.6533C46.5576 73.2465 44.6568 74.5626 44.1402 76.7988C44.0869 77.03 44.4387 77.2088 44.5502 76.9628C45.8876 73.964 50.0614 71.7262 49.8917 70.356Z" fill="#191919"/>
<path d="M52.1119 72.7004C52.494 72.3504 52.7364 71.8738 52.7941 71.3589C52.7851 71.1949 52.617 71.0161 52.4424 71.0842C51.8036 71.3302 51.7954 71.8115 50.353 73.3597C49.6209 74.1653 48.8227 74.9084 47.9668 75.581C47.7487 75.745 48.0217 76.064 48.2423 75.9435C49.7393 75.1368 51.056 74.0333 52.1119 72.7004Z" fill="#191919"/>
<path d="M54.1907 74.456C54.4515 74.1018 54.8254 73.654 54.7073 73.1916C54.6995 73.1608 54.6854 73.1319 54.6659 73.1068C54.6465 73.0817 54.6222 73.0608 54.5943 73.0454C54.5665 73.0301 54.5359 73.0206 54.5043 73.0175C54.4727 73.0144 54.4407 73.0178 54.4105 73.0275C54.0144 73.1153 53.8029 73.531 53.5856 73.841C52.7164 75.0365 51.7169 76.1316 50.6057 77.1062C50.3991 77.285 50.659 77.6089 50.8812 77.4695C52.1791 76.7022 53.3056 75.6765 54.1907 74.456Z" fill="#191919"/>
<path d="M55.8416 76.515C56.1196 76.1772 56.4591 75.7344 56.2926 75.285C56.2786 75.2399 56.2484 75.2015 56.2079 75.1772C56.1674 75.1528 56.1193 75.1442 56.0729 75.153C55.453 75.3006 55.4562 75.996 54.1155 77.0546C53.2379 77.7025 52.3198 78.2939 51.3669 78.825C51.1594 78.9496 51.2906 79.2997 51.5309 79.221C53.2054 78.7688 54.7065 77.8264 55.8416 76.515Z" fill="#191919"/>
<path d="M56.7632 76.3838C56.7371 76.3366 56.6955 76.2998 56.6455 76.2796C56.5955 76.2595 56.54 76.2572 56.4885 76.2731C56.049 76.4273 55.8538 76.9898 55.6422 77.3621C55.3603 77.8359 55.0285 78.2782 54.6525 78.6815C53.8984 79.4797 53.018 80.1482 52.0465 80.6601C51.9979 80.6899 51.9617 80.7362 51.9445 80.7906C51.9274 80.845 51.9305 80.9037 51.9533 80.956C51.9761 81.0082 52.017 81.0505 52.0685 81.0749C52.12 81.0994 52.1786 81.1044 52.2335 81.089C53.9537 80.5402 55.4204 79.3935 56.3679 77.8565C56.6082 77.4556 56.9903 76.8627 56.7632 76.3838Z" fill="#191919"/>
<path d="M37.4994 119.99C37.834 121.204 38.3334 122.377 38.7532 123.575C39.5265 125.784 39.606 126.445 40.0726 126.928C40.1016 126.957 40.1376 126.978 40.1772 126.989C40.2168 127 40.2586 127.001 40.2985 126.991C40.3384 126.981 40.3751 126.961 40.4049 126.933C40.4347 126.904 40.4567 126.869 40.4687 126.829C40.5196 126.248 40.429 125.663 40.2046 125.125C39.6508 123.277 38.9026 121.493 37.9726 119.803C37.9432 119.747 37.8943 119.704 37.8351 119.682C37.7759 119.66 37.7108 119.661 37.6521 119.684C37.5934 119.707 37.5453 119.751 37.5171 119.808C37.489 119.864 37.4827 119.929 37.4994 119.99Z" fill="#191919"/>
<path d="M48.9457 101.914C48.8685 101.932 48.7944 101.962 48.7259 102.002C48.8392 101.653 48.8429 101.277 48.7366 100.925C48.3988 98.6435 48.6612 97.2151 48.4398 96.5788C48.4294 96.5438 48.4092 96.5126 48.3814 96.489C48.3536 96.4653 48.3196 96.4503 48.2834 96.4457C48.2472 96.441 48.2105 96.4471 48.1777 96.463C48.1449 96.4789 48.1174 96.504 48.0986 96.5353C47.9214 96.9257 47.8278 97.3489 47.8239 97.7776C47.7469 98.8054 47.7763 99.8383 47.9117 100.86C47.9683 101.289 47.956 101.795 48.3217 102.09C48.3573 102.12 48.3986 102.143 48.443 102.156C48.2233 102.277 48.024 102.402 47.7944 102.519C46.4312 103.058 44.9286 103.136 43.5173 102.739C40.9532 102.134 39.9815 100.48 38.9433 99.352C38.9075 99.3195 38.8622 99.2992 38.814 99.2942C38.7658 99.2892 38.7173 99.2998 38.6755 99.3243C38.6338 99.3489 38.6009 99.3861 38.5819 99.4306C38.5628 99.4752 38.5584 99.5246 38.5694 99.5718C38.9884 101.163 40.8949 103.098 43.4296 103.662C44.5164 103.924 45.6433 103.976 46.7497 103.816C47.6632 103.666 48.9785 103.277 49.3008 102.299C49.3169 102.248 49.3193 102.194 49.3077 102.142C49.2962 102.09 49.2711 102.042 49.2351 102.003C49.199 101.964 49.1533 101.935 49.1025 101.92C49.0516 101.904 48.9976 101.902 48.9457 101.914Z" fill="#191919"/>
<path d="M37.621 99.5833C36.3067 99.6693 35.0165 99.9779 33.8055 100.496C25.954 103.265 22.0262 108.557 21.3259 113.657C20.501 119.669 23.1767 127.269 25.8556 130.194C26.1082 130.469 26.5026 130.118 26.3476 129.808C25.0371 127.555 23.9753 125.167 23.1808 122.684C22.432 120.183 22.0977 117.575 22.191 114.966C22.4214 110.006 25.667 105.886 29.7998 103.387C33.293 101.276 36.7165 100.625 37.7382 100.034C37.7845 100.008 37.8209 99.9674 37.8416 99.9185C37.8624 99.8695 37.8664 99.8151 37.853 99.7637C37.8396 99.7122 37.8096 99.6666 37.7677 99.634C37.7257 99.6014 37.6741 99.5835 37.621 99.5833Z" fill="#191919"/>
<path d="M55.2014 102.53C55.0866 102.091 54.5741 101.85 54.1904 101.672C52.7745 100.996 51.1946 100.74 49.6377 100.934C49.5901 100.949 49.5485 100.979 49.519 101.02C49.4895 101.06 49.4736 101.109 49.4736 101.159C49.4736 101.209 49.4895 101.258 49.519 101.299C49.5485 101.339 49.5901 101.369 49.6377 101.385C51.0546 101.581 52.4404 101.958 53.7615 102.507C54.1355 102.671 54.5996 102.956 55.026 102.825C55.0873 102.807 55.1395 102.767 55.1721 102.712C55.2047 102.657 55.2152 102.592 55.2014 102.53Z" fill="#191919"/>
<path d="M82.0955 70.192C81.5444 68.5118 79.6789 68.3954 79.0057 69.9837C78.4252 71.3523 79.2361 72.6315 80.8532 76.8225C80.8588 76.8449 80.8697 76.8657 80.8849 76.8831C80.9001 76.9005 80.9192 76.914 80.9406 76.9226C80.9621 76.9311 80.9853 76.9345 81.0083 76.9323C81.0313 76.9302 81.0534 76.9226 81.0729 76.9103C82.1769 76.1555 83.1688 75.2487 84.0192 74.2166C84.7367 73.3146 85.6592 72.1272 85.6797 70.9177C85.7174 68.9464 83.1853 68.5085 82.0955 70.192Z" fill="#71B6F6"/>
<path d="M101.327 58.3184C101.609 58.378 101.897 58.4003 102.184 58.3848C102.31 58.3848 102.43 58.335 102.519 58.2462C102.608 58.1575 102.658 58.0372 102.658 57.9117C102.658 57.7862 102.608 57.6658 102.519 57.5771C102.43 57.4884 102.31 57.4385 102.184 57.4385C101.897 57.4144 101.607 57.4369 101.327 57.505C101.241 57.5326 101.166 57.5869 101.112 57.66C101.059 57.7331 101.03 57.8212 101.03 57.9117C101.03 58.0021 101.059 58.0902 101.112 58.1633C101.166 58.2364 101.241 58.2907 101.327 58.3184Z" fill="#191919"/>
<path d="M102.206 62.1667C101.918 62.1459 101.629 62.1683 101.348 62.2331C101.26 62.2589 101.183 62.3125 101.128 62.3858C101.074 62.4591 101.044 62.5482 101.044 62.6398C101.044 62.7314 101.074 62.8205 101.128 62.8938C101.183 62.9671 101.26 63.0207 101.348 63.0465C101.63 63.1074 101.918 63.1295 102.206 63.1121C102.331 63.1111 102.451 63.061 102.539 62.9726C102.628 62.8843 102.678 62.7648 102.679 62.6398C102.68 62.5775 102.668 62.5158 102.644 62.4582C102.62 62.4006 102.586 62.3483 102.542 62.3043C102.498 62.2602 102.445 62.2254 102.388 62.2018C102.33 62.1782 102.268 62.1662 102.206 62.1667Z" fill="#191919"/>
<path d="M104.416 55.4049C104.372 55.3815 104.321 55.3729 104.271 55.3804C104.221 55.388 104.175 55.4113 104.139 55.4469C104.104 55.4826 104.081 55.5287 104.073 55.5785C104.065 55.6284 104.074 55.6793 104.097 55.7239C104.613 56.4222 105.044 57.1784 105.383 57.9773C105.966 59.8083 105.885 61.7863 105.153 63.5631C104.584 65.126 104.031 65.541 104.295 66.0699C104.311 66.0969 104.333 66.1193 104.36 66.1348C104.387 66.1502 104.418 66.1581 104.449 66.1576C104.911 66.1248 105.12 65.6082 105.307 65.2343C106.081 63.7648 106.524 62.1437 106.604 60.4848C106.641 58.7473 106.043 56.334 104.416 55.4049Z" fill="#191919"/>
<path d="M83.0662 38.5605C77.3951 28.0104 62.7179 27.5725 55.0066 32.7434C49.3289 36.5523 46.9017 43.4313 47.0239 50.0389C47.1666 57.7067 52.6721 63.9075 59.196 64.9924C60.1087 65.1441 61.032 65.2121 61.9553 65.2786C62.0676 66.4011 63.5707 68.698 65.9471 69.9181C66.485 70.1945 67.2878 70.6766 67.9036 70.3798C68.4472 70.3798 68.0897 69.2162 68.0676 68.9399C67.9405 67.2785 68.2816 65.9747 68.2217 64.7177C72.1198 64.6524 75.859 63.1621 78.7333 60.5283C81.6714 57.9043 83.4434 54.0642 84.4069 50.3144C85.4565 46.3674 84.9777 42.1697 83.0662 38.5605ZM83.8993 46.74C83.5532 50.6436 82.1917 54.3888 79.9502 57.6034C77.1573 61.4328 72.544 63.5311 67.8224 63.8821C67.7399 63.8857 67.6603 63.9135 67.5934 63.9619C67.5265 64.0103 67.4753 64.0773 67.4461 64.1545C67.4168 64.2317 67.4109 64.3158 67.4289 64.3964C67.447 64.4769 67.4883 64.5504 67.5477 64.6078C67.1687 66.157 67.028 67.755 67.1303 69.3466C66.89 69.2662 66.655 69.1706 66.4268 69.0604C64.8109 68.1543 63.4931 66.7983 62.6334 65.1572C62.6571 65.1209 62.6717 65.0795 62.676 65.0364C62.6802 64.9933 62.6741 64.9498 62.658 64.9096C62.6419 64.8694 62.6164 64.8336 62.5835 64.8054C62.5507 64.7771 62.5116 64.7571 62.4694 64.7472C60.5107 64.5667 58.5851 64.124 56.7442 63.4311C54.5182 62.4444 52.5684 60.9266 51.0655 59.0109C49.5627 57.0951 48.5528 54.84 48.1244 52.4431C47.6452 48.9147 47.9953 45.3231 49.1469 41.9537C51.219 36.0644 55.7577 31.9866 62.7917 30.8377C66.207 30.2704 69.7073 30.5036 73.0171 31.5192C76.2392 32.5281 79.0446 34.5598 81.0083 37.3064C82.972 40.053 83.9869 43.3648 83.8993 46.74Z" fill="#191919"/>
<path d="M57.3688 47.15C57.1442 47.3058 56.9612 47.5144 56.8359 47.7575C56.7107 48.0005 56.647 48.2706 56.6505 48.544C56.6623 48.9247 56.8161 49.2873 57.0817 49.5604C57.3472 49.8335 57.7053 49.9975 58.0855 50.02C58.4043 50.0052 58.7073 49.8773 58.9403 49.6593C59.1732 49.4412 59.3208 49.1473 59.3565 48.8302C59.5829 47.3878 58.2823 46.576 57.3688 47.15Z" fill="#71B6F6"/>
<path d="M64.7036 47.1566C64.4739 47.3101 64.2865 47.519 64.1588 47.7641C64.0311 48.0092 63.9672 48.2825 63.973 48.5588C63.9847 48.9397 64.1385 49.3025 64.4043 49.5756C64.67 49.8488 65.0284 50.0126 65.4088 50.0348C65.7275 50.0201 66.0306 49.8923 66.2634 49.6742C66.4963 49.456 66.6436 49.162 66.679 48.8449C66.9029 47.4165 65.6425 46.6088 64.7036 47.1566Z" fill="#71B6F6"/>
<path d="M73.0363 47.3189C72.8421 47.0666 72.5619 46.8945 72.249 46.8355C71.9361 46.7766 71.6124 46.8348 71.3397 46.9991C71.1153 47.1552 70.9326 47.3638 70.8075 47.6069C70.6824 47.8499 70.6188 48.1198 70.6222 48.3931C70.6336 48.774 70.7873 49.1367 71.0529 49.4099C71.3185 49.6831 71.6768 49.847 72.0572 49.8691C73.3126 49.874 73.7177 48.1594 73.0363 47.3189Z" fill="#71B6F6"/>
<path d="M26.7465 33.9423C26.576 33.4937 26.4456 32.777 25.9437 32.6007C25.8935 32.5864 25.8404 32.586 25.79 32.5996C25.7396 32.6132 25.6938 32.6402 25.6576 32.6778C25.2648 33.1313 25.6207 33.889 25.8117 34.3711C26.3267 35.6692 28.0208 38.7425 29.0917 38.8237C29.1644 38.8231 29.2339 38.7939 29.2853 38.7426C29.3366 38.6912 29.3658 38.6217 29.3664 38.549C29.3426 37.556 28.1643 37.6839 26.7465 33.9423Z" fill="#191919"/>
<path d="M35.8943 28.6426C35.6109 29.1849 35.4433 29.7803 35.4023 30.3908C35.1842 31.9169 35.0817 34.5663 35.6483 36.0201C35.6678 36.0876 35.7108 36.1458 35.7696 36.1842C35.8284 36.2226 35.899 36.2385 35.9686 36.2292C36.0381 36.2199 36.102 36.1858 36.1486 36.1333C36.1952 36.0808 36.2213 36.0133 36.2223 35.9431C36.3945 34.0513 35.9968 33.7963 36.3658 30.4786C36.4714 29.8947 36.5009 29.2996 36.4536 28.7082C36.3888 28.445 36.0165 28.4458 35.8943 28.6426Z" fill="#191919"/>
<path d="M47.3619 25.3331C47.3422 25.1346 47.152 24.9009 46.9216 24.992C46.4132 25.1945 46.2131 25.6881 45.9655 26.1359C45.1211 27.5754 44.4424 29.106 43.9425 30.6983C43.9281 30.7605 43.9361 30.8258 43.9651 30.8826C43.994 30.9395 44.0421 30.9843 44.1008 31.0093C44.1595 31.0343 44.2252 31.0377 44.2862 31.0191C44.3472 31.0005 44.3997 30.9609 44.4345 30.9074C45.4579 29.1854 45.7785 28.4794 46.7879 26.7074C47.0216 26.3007 47.4119 25.8382 47.3619 25.3331Z" fill="#191919"/>
<path d="M129.507 74.2281C128.871 74.0946 128.221 74.0357 127.572 74.0526C126.268 73.987 123.938 73.7959 122.437 73.6237C123.317 72.3216 124.999 69.4655 125.175 68.2027C125.212 67.9395 124.867 67.6205 124.648 67.9058C124.034 68.8493 123.486 69.834 123.008 70.8529C122.43 71.8587 121.802 72.8349 121.127 73.7779C120.885 74.1182 121.215 74.479 121.545 74.5159C122.648 74.6348 128.393 75.2727 129.483 75.0218C129.569 74.999 129.646 74.9489 129.702 74.879C129.757 74.8091 129.789 74.7231 129.791 74.6338C129.794 74.5445 129.768 74.4568 129.716 74.3837C129.665 74.3105 129.592 74.256 129.507 74.2281Z" fill="#191919"/>
<path d="M160.217 61.518C160.114 54.9867 156.884 48.1389 150.869 45.1353C143.949 41.6781 132.455 42.5736 127.285 49.2697C123.471 54.2077 122.907 63.7952 124.679 67.0817C124.868 67.4319 125.391 67.181 125.305 66.8177C124.604 63.684 124.551 60.4399 125.151 57.2852C125.769 53.7994 127.033 50.4702 129.769 48.1012C134.48 44.0283 142.484 43.2632 148.208 45.1221C154.474 47.1574 158.113 52.703 159.049 59.163C159.577 62.8071 158.98 65.7591 157.763 69.2342C156.583 72.6028 154.993 75.03 151.595 77.0078C146.899 79.6461 141.356 80.3368 136.157 78.9316C133.908 78.4013 131.857 77.2421 130.242 75.5892C130.009 75.3728 129.552 75.6712 129.769 75.9525C135.25 82.9619 152.191 82.0205 157.378 72.5438C159.159 69.1356 160.131 65.3627 160.217 61.518Z" fill="#191919"/>
<path d="M151.398 56.7243C150.709 56.5058 149.989 56.3982 149.266 56.4053C148.518 56.366 135.225 55.9437 134.851 55.9437C134.446 55.9628 134.042 56.0069 133.642 56.0757C133.324 56.1126 133.179 56.6046 133.554 56.6915C134.836 56.9867 133.452 56.9236 149.178 57.505C149.922 57.5686 150.672 57.5132 151.399 57.341C151.462 57.3179 151.517 57.2759 151.555 57.2207C151.594 57.1655 151.615 57.0997 151.615 57.0324C151.615 56.965 151.594 56.8993 151.555 56.8442C151.516 56.7891 151.461 56.7472 151.398 56.7243Z" fill="#191919"/>
<path d="M150.606 62.0346C149.938 61.8623 149.25 61.7848 148.561 61.8042C147.71 61.7575 138.623 61.2655 136.097 61.2655C135.39 61.221 134.68 61.269 133.985 61.4082C133.925 61.4267 133.873 61.4639 133.836 61.5144C133.798 61.5648 133.778 61.6259 133.778 61.6886C133.778 61.7513 133.798 61.8124 133.836 61.8628C133.873 61.9133 133.925 61.9505 133.985 61.969C134.644 62.1271 135.32 62.2009 135.997 62.1888C150.487 62.8792 149.806 63.0014 150.61 62.8374C151.035 62.7497 150.971 62.1626 150.606 62.0346Z" fill="#191919"/>
<path d="M149.87 66.5208C148.552 66.2908 147.216 66.184 145.879 66.2019C144.556 66.1427 143.233 66.0987 141.909 66.0698C139.265 65.9403 136.614 66.0138 133.981 66.2896C133.641 66.3347 133.762 66.8316 134.058 66.8636C137.29 67.1859 139.628 66.9013 145.78 67.2154C147.097 67.3602 148.424 67.4114 149.749 67.3687C150.211 67.322 150.376 66.6422 149.87 66.5208Z" fill="#191919"/>
<path d="M112.012 35.9324C110.8 35.5915 109.538 35.4723 108.284 35.5806C107.244 33.2313 107.348 31.3986 107.956 28.9501C108.163 28.3336 108.267 27.6873 108.264 27.037C108.229 26.7657 108.132 26.5063 107.979 26.2791C107.827 26.052 107.623 25.8634 107.386 25.7282C107.148 25.593 106.882 25.515 106.609 25.5002C106.336 25.4854 106.063 25.5343 105.812 25.643C104.674 26.1709 103.782 27.1147 103.32 28.2802C102.817 29.4479 102.519 30.6937 102.44 31.9628C101.312 31.7619 100.163 31.703 99.0204 31.7873C97.8355 31.7967 96.6704 32.0908 95.6231 32.645C94.1422 33.5847 93.7002 35.5404 95.2049 36.6253C94.8657 36.8234 94.6019 37.1284 94.4546 37.4926C94.3074 37.8567 94.2852 38.2594 94.3915 38.6376C94.5022 38.9389 94.6808 39.2106 94.9134 39.4317C95.146 39.6528 95.4265 39.8174 95.733 39.9127C95.5284 40.0262 95.3733 40.2115 95.2975 40.4328C95.2218 40.6541 95.2309 40.8957 95.323 41.1107C95.5821 41.8167 96.225 41.9799 96.8949 42.0783C96.782 42.2198 96.7143 42.3919 96.7006 42.5724C96.6868 42.7528 96.7277 42.9332 96.8178 43.0902C97.3574 44.0529 98.9728 44.2333 99.9519 44.3653C101.184 44.5517 102.439 44.5109 103.657 44.2447C104.108 44.1787 104.526 43.9703 104.851 43.6499C105.175 43.3296 105.389 42.914 105.461 42.4637C106.799 42.2177 107.055 42.2111 107.154 42.0127C107.374 42.5408 108.056 42.6498 108.617 42.7712C109.03 42.8551 109.449 42.9099 109.87 42.9352C110.244 43.0071 110.631 42.9651 110.981 42.8147C111.583 42.4588 111.59 41.5068 111.695 40.9123C111.859 40.0012 111.994 39.073 112.168 38.1521C112.286 37.524 112.763 36.3129 112.012 35.9324ZM95.4476 38.681C94.9236 38.107 95.3902 37.0738 96.503 37.1862C98.1503 37.3502 99.4115 37.6782 101.275 37.2411C101.374 37.2075 101.495 37.1862 101.594 37.1526C101.892 37.2439 102.172 37.3892 102.418 37.5814C102.47 37.6196 102.514 37.6679 102.546 37.7233C102.579 37.7787 102.6 37.8401 102.608 37.9038C102.616 37.9676 102.611 38.0323 102.594 38.0941C102.576 38.156 102.547 38.2136 102.506 38.2637C102.298 38.5826 101.782 38.6737 101.429 38.7909C100.569 39.0656 99.6858 39.2578 98.7899 39.3649C98.3083 39.4581 97.8152 39.4766 97.3279 39.4199C96.6402 39.3722 95.9838 39.1142 95.4476 38.681ZM96.4259 41.0344C95.6461 40.5711 96.9859 40.3145 97.3172 40.2423C98.4672 40.1909 99.611 40.0439 100.737 39.8028C101.257 39.706 101.765 39.5548 102.254 39.3518C102.628 39.5158 103.074 39.747 102.969 40.2095C102.751 41.1378 99.1753 41.7544 98.2512 41.4084C97.6286 41.3575 97.0144 41.232 96.4218 41.0344H96.4259ZM100.772 43.5764C99.963 43.523 99.164 43.3679 98.3939 43.1148C98.1954 43.0492 97.6272 42.8942 97.5911 42.6531C97.5608 42.4547 98.0011 42.2792 98.1298 42.2792C99.9502 42.2792 101.246 42.2915 102.857 41.4108C103.161 41.5994 104.082 41.3756 104.617 41.993C104.595 42.0646 104.595 42.1412 104.617 42.2128C104.955 43.7609 101.598 43.6297 100.765 43.574L100.772 43.5764ZM107.094 41.4764C107.042 41.422 106.977 41.3815 106.906 41.3584C106.834 41.3354 106.758 41.3305 106.684 41.3444C106.145 41.4436 105.595 41.542 105.044 41.6412C104.94 41.3869 104.754 41.1744 104.516 41.0369C104.224 40.8759 103.902 40.775 103.571 40.7401C103.912 40.2095 103.831 39.4814 103.032 38.8483C103.198 38.6907 103.317 38.4905 103.378 38.2695C103.438 38.0486 103.436 37.8154 103.373 37.5954C103.304 37.3926 103.194 37.2061 103.05 37.0472C102.907 36.8883 102.732 36.7603 102.537 36.6712C102.57 36.6384 102.592 36.6278 102.625 36.595C103.527 35.7012 102.579 34.6409 101.712 34.2416C100.669 33.6954 99.451 33.5848 98.3258 33.9341C97.9519 34.0981 98.1717 34.6491 98.5234 34.6598C99.3647 34.527 100.226 34.6025 101.031 34.8795C101.382 35.0115 101.917 35.2223 102.086 35.5937C102.312 36.0915 101.559 36.2678 101.239 36.3637C99.7031 36.6785 98.1173 36.6598 96.5891 36.3088C95.8224 36.0628 95.0056 35.5831 95.1705 34.6598C95.2821 34.2554 95.5017 33.8891 95.8058 33.6001C96.1099 33.3112 96.487 33.1106 96.8966 33.0198C98.7896 32.4918 100.784 32.4389 102.702 32.8656C102.765 32.8812 102.831 32.8824 102.895 32.8693C102.958 32.8561 103.018 32.8289 103.07 32.7895C103.121 32.7502 103.164 32.6998 103.193 32.642C103.223 32.5842 103.239 32.5205 103.241 32.4556C103.249 30.9939 103.591 29.5533 104.241 28.2441C105.485 25.9981 107.117 25.944 107.485 26.8591C107.876 27.8316 106.954 28.7599 106.825 31.5429C106.719 33.089 107.079 34.6313 107.858 35.9709C107.798 36.1054 107.75 36.2451 107.716 36.3883C107.232 38.0382 107.021 39.7561 107.092 41.474L107.094 41.4764ZM111.459 37.7487C111.382 38.1776 110.963 40.6294 110.821 41.4215C110.755 41.7954 110.778 42.0963 110.349 42.1472C109.907 42.1655 109.466 42.1211 109.037 42.0152C108.751 41.9602 108.023 41.9061 107.894 41.6191C107.875 39.9957 108.068 38.3768 108.468 36.8032C108.498 36.704 108.523 36.3932 108.622 36.3522C108.699 36.323 108.782 36.3117 108.864 36.3194C109.11 36.3194 111.561 36.6237 111.579 36.6384C111.735 36.7713 111.497 37.556 111.452 37.7462L111.459 37.7487Z" fill="#191919"/>
<path d="M52.5851 90.9741C52.7677 91.6806 52.8889 92.4016 52.9475 93.129C53.063 93.7535 52.9581 94.3987 52.6507 94.9544C51.3387 96.7584 47.3264 94.9019 45.4166 93.7555C44.8489 93.462 44.3509 93.05 43.9562 92.5473C43.5615 92.0447 43.2794 91.4632 43.1288 90.8421C43.0313 90.314 42.2268 90.5346 42.3154 91.0618C42.4924 91.7904 42.8235 92.4725 43.2863 93.0623C43.7491 93.6522 44.3329 94.136 44.9984 94.4812C46.4398 95.3283 47.9896 95.9758 49.6052 96.4058C50.9041 96.6641 52.5572 96.5894 53.3879 95.3717C53.748 94.7585 53.8986 94.0446 53.8167 93.3381C53.7585 92.4589 53.6213 91.5868 53.4067 90.7322C53.3651 90.6352 53.2894 90.5569 53.1939 90.512C53.0984 90.4671 52.9898 90.4588 52.8886 90.4886C52.7874 90.5184 52.7006 90.5843 52.6447 90.6737C52.5887 90.7632 52.5675 90.87 52.5851 90.9741Z" fill="#191919"/>
<path d="M144.878 129.402C142.008 125.614 138.217 124.873 135.29 124.036C135.136 124.004 135.005 123.948 134.851 123.904C135.795 123.696 136.689 123.302 137.48 122.746C138.271 122.189 138.943 121.48 139.457 120.661C139.505 120.573 139.523 120.472 139.509 120.373C139.496 120.274 139.45 120.182 139.38 120.111C135.063 116.287 135.332 109.963 135.147 104.663C134.969 99.5718 134.114 93.7326 129.441 90.765C128.331 90.0152 127.039 89.5796 125.701 89.5041C124.363 89.4286 123.03 89.7161 121.843 90.3361C119.465 88.2361 111.902 94.2721 113.421 100.606C113.471 100.829 113.569 101.039 113.707 101.222C113.212 102.775 112.899 104.38 112.772 106.005C112.544 107.824 112.637 109.67 113.047 111.458C113.219 112.198 113.539 112.895 113.987 113.509C114.434 114.123 115.001 114.641 115.653 115.031C116.433 115.43 117.307 115.612 118.182 115.559C118.212 116.686 118.102 117.813 117.854 118.912C117.713 119.539 117.51 120.151 117.248 120.738C117.107 121.046 116.816 121.663 117.326 121.793C117.921 121.946 118.238 120.756 118.437 120.177C118.951 118.672 119.094 117.065 118.854 115.493C120.986 115.159 123.574 113.848 124.528 111.967C124.567 111.894 124.579 111.809 124.561 111.728C124.543 111.646 124.497 111.574 124.431 111.524C124.365 111.473 124.283 111.448 124.2 111.453C124.117 111.458 124.038 111.492 123.978 111.55C123.091 112.607 121.984 113.459 120.734 114.045C119.411 114.619 117.666 115.003 116.306 114.364C113.412 113.005 113.497 109.043 113.657 106.348C113.814 104.567 114.082 102.797 114.46 101.049C118.05 97.0716 119.769 96.66 120.408 95.7383C121.432 98.6625 123.308 101.213 125.795 103.061C126.424 103.496 127.113 103.836 127.84 104.073C127.873 104.073 127.906 104.083 127.928 104.073C127.999 104.125 128.066 104.184 128.127 104.248C128.198 104.318 128.29 104.364 128.389 104.378C128.487 104.391 128.588 104.373 128.676 104.325C129.011 104.145 129.399 104.089 129.772 104.168C130.144 104.246 130.476 104.454 130.71 104.754C130.948 105.071 131.106 105.44 131.169 105.831C131.232 106.221 131.199 106.622 131.073 106.997C130.953 107.37 130.754 107.714 130.491 108.005C130.227 108.296 129.904 108.527 129.544 108.683C129.184 108.839 128.795 108.917 128.403 108.911C128.01 108.904 127.624 108.814 127.269 108.647C127.181 108.599 127.08 108.58 126.981 108.594C126.882 108.608 126.79 108.653 126.719 108.724C126.453 109.111 126.27 109.549 126.18 110.01C124.895 114.451 125.044 119.318 125.179 123.633C125.186 123.713 125.213 123.791 125.257 123.859C125.301 123.926 125.361 123.982 125.432 124.021C125.502 124.06 125.581 124.081 125.662 124.083C125.743 124.084 125.823 124.065 125.895 124.028C126.922 124.451 128.027 124.653 129.138 124.622C130.563 124.6 131.985 124.476 133.393 124.249C135.23 125.167 138.231 125.58 140.562 126.898C142.092 127.763 143.405 128.965 144.402 130.413C145.398 131.861 146.052 133.517 146.313 135.255C146.423 135.919 146.515 137.261 146.675 137.707C146.686 137.745 146.709 137.779 146.74 137.805C146.77 137.831 146.808 137.847 146.848 137.851C146.887 137.856 146.928 137.849 146.963 137.831C146.999 137.813 147.029 137.785 147.049 137.75C147.604 136.432 147.28 132.569 144.878 129.402ZM125.878 100.649C125.815 100.687 125.743 100.708 125.669 100.708C125.596 100.708 125.524 100.687 125.461 100.649C123.937 99.6928 122.773 98.2585 122.151 96.5706C121.895 96.0536 121.799 95.4714 121.877 94.8994C121.887 94.8627 121.906 94.8293 121.933 94.8027C121.961 94.7761 121.995 94.7573 122.032 94.7483C122.069 94.7393 122.107 94.7403 122.144 94.7513C122.18 94.7623 122.213 94.7829 122.239 94.8109C122.58 95.3391 122.853 95.908 123.052 96.5042C123.617 97.672 124.429 98.7037 125.43 99.5283C125.734 99.7833 126.43 100.279 125.878 100.649ZM128.374 91.612C127.897 91.6998 127.708 91.2996 126.659 90.9847C126.003 90.7871 125.325 90.8257 124.658 90.6772C124.628 90.6688 124.602 90.6517 124.582 90.6282C124.562 90.6047 124.549 90.5758 124.546 90.5451C124.542 90.5145 124.548 90.4835 124.562 90.456C124.576 90.4286 124.598 90.406 124.625 90.3911C125.311 90.1425 126.058 90.1195 126.757 90.3255C127.285 90.4444 128.397 90.7207 128.528 91.348C128.539 91.4685 128.484 91.6006 128.374 91.612Z" fill="#191919"/>
<path d="M81.0621 94.9429C81.4409 92.8314 81.5147 90.4567 80.4135 88.5329C79.9819 87.7202 79.325 87.0492 78.5215 86.6006C77.718 86.152 76.8021 85.9449 75.8838 86.0041C73.9051 86.2501 72.6038 87.8556 71.0351 88.9175C67.0926 91.594 62.4694 90.6485 59.6552 93.9868C56.5392 97.6768 57.1369 102.925 59.0615 107.025C58.3096 107.362 57.6906 107.938 57.3018 108.665C57.0282 109.201 56.893 109.797 56.9084 110.398C56.9239 111 57.0895 111.588 57.3903 112.109C57.7382 112.677 58.2181 113.152 58.7891 113.495C59.3602 113.837 60.0055 114.037 60.6703 114.077C61.3667 114.188 62.08 114.112 62.7375 113.857C63.642 116.205 63.9775 118.734 63.7166 121.237C63.6867 121.434 63.6793 121.633 63.6945 121.831C63.6174 121.754 63.542 121.687 63.4632 121.611C63.4236 121.574 63.3733 121.552 63.3197 121.546C63.2661 121.54 63.2121 121.551 63.1654 121.578C63.1188 121.605 63.082 121.646 63.0605 121.696C63.039 121.745 63.0339 121.8 63.0459 121.853C63.4173 123.206 64.8171 124.06 66.0471 124.547C68.6929 125.536 71.6002 125.575 74.2717 124.657C75.5164 124.224 77.0851 123.567 77.8559 122.458C78.1084 122.095 77.6361 121.764 77.3065 121.908C76.9524 122.076 76.6138 122.274 76.2946 122.501C76.2725 121.907 75.696 121.709 75.591 119.412C75.5763 119.094 75.6238 118.764 75.591 118.456C76.2905 118.367 76.9663 118.144 77.5812 117.8C78.2808 117.34 78.8644 116.725 79.286 116.002C79.7076 115.279 79.9557 114.468 80.0108 113.632C80.1012 111.523 79.7941 109.416 79.1056 107.42C78.5315 105.246 77.7317 103.138 76.7194 101.131C79.1302 99.5841 80.5307 97.908 81.0621 94.9429ZM79.1056 111.93C79.227 112.737 79.1739 113.561 78.95 114.347C78.7261 115.132 78.3365 115.86 77.8075 116.482C76.6423 117.659 74.7514 117.725 73.1901 117.592C71.5184 117.471 69.9353 116.794 68.6932 115.668C68.6458 115.624 68.5845 115.599 68.5199 115.595C68.4553 115.592 68.3918 115.612 68.3404 115.652C68.2891 115.691 68.2533 115.747 68.2394 115.81C68.2255 115.873 68.2343 115.939 68.2643 115.996C68.6405 116.707 69.2282 117.283 69.9462 117.645C71.4811 118.372 73.1786 118.686 74.8719 118.558C74.5964 119.729 74.6848 120.957 75.1253 122.077C75.2516 122.393 75.3557 122.758 75.6525 122.923C74.2829 123.685 72.7667 124.147 71.2046 124.278C69.6426 124.409 68.0706 124.206 66.5932 123.682C65.7237 123.352 64.9168 122.876 64.207 122.274C64.781 121.89 64.7515 120.889 64.8113 120.273C65.0663 117.654 64.2422 114.488 63.4919 113.445C63.6572 113.339 63.7944 113.195 63.8921 113.025C63.9897 112.855 64.0448 112.663 64.0528 112.467C64.0523 112.395 64.033 112.325 63.9967 112.263C63.9605 112.201 63.9085 112.15 63.8462 112.114C63.7838 112.078 63.7132 112.06 63.6414 112.06C63.5696 112.06 63.4991 112.079 63.437 112.115C62.7695 112.433 62.6031 113.333 60.6662 113.028C60.1773 112.989 59.7046 112.835 59.2877 112.576C58.8707 112.318 58.5216 111.964 58.2694 111.543C58.0695 111.178 57.9583 110.772 57.9447 110.356C57.9312 109.941 58.0156 109.528 58.1913 109.151C58.3669 108.774 58.6289 108.444 58.9558 108.188C59.2828 107.931 59.6657 107.755 60.0734 107.673C60.7903 107.47 61.5549 107.514 62.2434 107.8C62.9318 108.085 63.5038 108.594 63.8667 109.245C64.1184 109.708 64.9556 109.52 64.9007 108.971C64.6856 106.897 64.9958 104.802 65.8027 102.879C70.3422 103.849 73.3565 103.168 76.1601 101.516C76.4996 102.512 78.7948 108.018 79.1056 111.93ZM77.3458 96.5698C78.2776 95.2308 78.7975 93.6486 78.8415 92.0179C78.8628 91.512 78.7759 91.0061 78.7972 90.5001C78.7988 90.4422 78.8171 90.386 78.85 90.3383C78.8829 90.2907 78.9289 90.2535 78.9825 90.2315C79.036 90.2094 79.0949 90.2034 79.1518 90.2141C79.2087 90.2248 79.2613 90.2518 79.3032 90.2918C80.1404 91.0815 79.8772 92.6887 79.732 93.7219C79.5724 94.9676 79.0996 96.1525 78.3577 97.1659C77.9116 97.7506 76.8957 97.1643 77.3458 96.5706V96.5698Z" fill="#191919"/>
<path d="M18.7197 64.8497C19.0768 64.9047 19.4402 64.9047 19.7972 64.8497C20.188 64.8029 20.5616 64.6623 20.8862 64.4397C21.179 64.2231 21.4071 63.9306 21.5457 63.5938C21.6844 63.257 21.7284 62.8887 21.6729 62.5287C21.6174 62.1688 21.4646 61.8308 21.231 61.5513C20.9974 61.2719 20.6919 61.0616 20.3474 60.9432C19.8705 60.8038 19.3801 60.7155 18.8845 60.68C18.9168 62.072 18.8618 63.4646 18.7197 64.8497Z" fill="#71B6F6"/>
<path d="M33.4206 73.1292C32.6136 72.7709 31.9018 72.2286 31.3419 71.5458C31.0959 71.2998 30.4399 70.6159 30.2316 70.3363C31.8835 67.9557 32.7442 65.1155 32.6916 62.2183C32.8286 56.3561 28.558 49.3107 21.8611 47.9684C18.8579 47.4517 15.7684 47.8789 13.0181 49.191C10.2678 50.5032 7.99202 52.6357 6.50411 55.2951C4.13677 59.532 3.53735 65.5303 6.03179 70.2371C7.44001 72.82 9.51249 74.98 12.035 76.4937C15.2838 78.1485 19.9693 78.1944 22.7442 77.4064C24.5785 76.8848 25.7323 75.8959 27.3182 74.3724C27.3258 74.3825 27.3357 74.3908 27.3471 74.3965C27.3585 74.4022 27.371 74.4052 27.3838 74.4052C28.4215 74.7956 29.5412 74.9166 30.6383 74.7569C31.3977 74.6512 33.0475 74.1829 33.5083 73.6139C33.552 73.5849 33.5862 73.5438 33.6067 73.4956C33.6273 73.4474 33.6332 73.3942 33.6239 73.3427C33.6146 73.2911 33.5904 73.2435 33.5542 73.2055C33.5181 73.1676 33.4716 73.1411 33.4206 73.1292ZM14.2326 60.4848C14.2569 60.307 14.3435 60.1435 14.477 60.0234C14.6105 59.9034 14.7822 59.8346 14.9617 59.8293C15.1412 59.8239 15.3167 59.8825 15.457 59.9944C15.5974 60.1063 15.6935 60.2644 15.7283 60.4406C15.9571 61.778 14.0087 61.4557 14.2334 60.4848H14.2326ZM14.6426 64.4758C14.722 64.348 14.8384 64.2473 14.9763 64.187C15.1142 64.1268 15.2672 64.1099 15.415 64.1385C15.5627 64.1671 15.6983 64.24 15.8037 64.3473C15.9092 64.4547 15.9795 64.5916 16.0054 64.7398C16.2539 66.1806 13.8923 65.6705 14.641 64.4758H14.6426ZM19.5347 66.0699C18.8426 66.1059 17.6487 66.1027 17.5561 65.2121C17.5251 64.3136 17.5914 63.4143 17.7537 62.5299C17.8677 61.6173 17.9907 60.6948 18.1637 59.7698C18.1733 59.7304 18.1922 59.6938 18.2189 59.6631C18.2455 59.6325 18.279 59.6086 18.3167 59.5935C18.3544 59.5785 18.3952 59.5726 18.4356 59.5764C18.476 59.5803 18.5149 59.5937 18.5491 59.6156C18.6048 59.5492 18.9312 59.2917 20.044 59.5279C23.9348 60.3561 23.9275 65.8394 19.5331 66.0699H19.5347Z" fill="#71B6F6"/>
</svg>
