<svg width="164" height="164" viewBox="0 0 164 164" fill="none" xmlns="http://www.w3.org/2000/svg">
<path fill-rule="evenodd" clip-rule="evenodd" d="M66.289 123.731C66.4194 123.613 66.5253 123.471 66.6007 123.312C66.6761 123.154 66.7194 122.983 66.7283 122.807C66.7372 122.632 66.7113 122.456 66.6522 122.292C66.5932 122.126 66.5021 121.974 66.3841 121.845C62.9795 118.105 59.793 114.191 56.4179 110.426C56.1837 110.165 55.8685 109.991 55.5232 109.932C55.1779 109.872 54.8225 109.931 54.5146 110.098C39.0986 118.496 23.7909 127.216 7.85661 134.688C7.669 134.776 7.50427 134.906 7.37521 135.069C7.24615 135.231 7.15624 135.421 7.11245 135.624C7.06866 135.826 7.07219 136.036 7.12275 136.237C7.1733 136.439 7.26954 136.625 7.40397 136.783L23.7614 155.908C23.9924 156.178 24.3063 156.365 24.6543 156.438C25.0024 156.511 25.3648 156.467 25.6851 156.312C31.1791 153.675 35.9302 149.446 40.582 145.73C49.4462 138.641 57.8766 131.282 66.289 123.731Z" fill="#191919"/>
<path fill-rule="evenodd" clip-rule="evenodd" d="M68.4363 92.7617C68.3363 92.6247 68.1862 92.5329 68.0186 92.5058C67.8512 92.4796 67.6799 92.5206 67.5425 92.6198C66.7721 93.339 65.9591 94.0114 65.1079 94.6329C64.6831 93.4849 62.9849 91.5169 61.2744 91.4882C59.9976 91.4653 58.6504 92.4206 57.6885 94.8396C57.0063 96.3926 56.6652 98.0745 56.6881 99.771C56.6488 100.416 56.3913 106.097 56.3814 106.741C56.3716 107.315 56.4126 107.889 56.3905 108.452C56.3796 108.624 56.4375 108.793 56.5516 108.922C56.6656 109.052 56.8264 109.131 56.9985 109.141C57.1706 109.153 57.34 109.094 57.4694 108.98C57.5988 108.866 57.6777 108.706 57.6885 108.534C57.7344 107.99 57.8091 107.443 57.8312 106.887C57.9042 104.872 57.65 103.675 57.9181 100.414C57.9845 99.5357 58.1312 98.6665 58.356 97.8154C58.4952 96.9617 58.6869 96.1179 58.93 95.2889C59.5294 93.4693 60.3322 92.5575 61.2727 92.5378C62.5454 92.5124 63.4334 94.054 64.0402 95.4078C63.2439 95.9515 62.4832 96.546 61.7631 97.1872C61.6342 97.2963 61.5527 97.4513 61.5358 97.6185C61.5189 97.7866 61.5678 97.9548 61.6724 98.0876C61.777 98.2196 61.929 98.3065 62.0963 98.3295C62.2635 98.3516 62.4331 98.309 62.5692 98.2089C63.6598 97.5628 66.9258 94.678 68.2919 93.6506C68.4278 93.5505 68.5191 93.4021 68.5461 93.2357C68.573 93.0692 68.5337 92.8986 68.4363 92.7617Z" fill="#191919"/>
<path fill-rule="evenodd" clip-rule="evenodd" d="M65.9032 92.965C66.7739 92.1131 67.7693 91.3988 68.8552 90.8462C69.2023 90.692 69.5623 90.569 69.931 90.4788C71.3119 90.1139 72.0573 91.2734 72.3172 92.6772C72.5662 94.2598 72.4982 95.8769 72.1171 97.4332C72.1086 97.5169 72.1167 97.6013 72.141 97.6825C72.1653 97.7629 72.2052 97.8383 72.2585 97.9031C72.3118 97.9687 72.3775 98.0228 72.4517 98.0622C72.5259 98.1023 72.6073 98.1269 72.6911 98.1351C72.7745 98.1442 72.859 98.1376 72.9395 98.1138C73.0201 98.09 73.0952 98.0507 73.1604 97.9982C73.2257 97.9457 73.2797 97.8801 73.3196 97.8063C73.3594 97.7325 73.384 97.6513 73.3922 97.5677C73.644 94.3845 73.612 92.801 73.3742 91.6309C72.4796 87.2316 67.3775 89.7621 65.9212 91.0282C65.5712 91.3529 65.2478 91.7055 64.9544 92.0827C64.8437 92.2098 64.7868 92.3755 64.7959 92.5444C64.8048 92.7125 64.8789 92.8716 65.0025 92.9864C65.1261 93.1012 65.2896 93.1635 65.4583 93.1602C65.6272 93.1577 65.7881 93.0889 65.9073 92.9691L65.9032 92.965Z" fill="#191919"/>
<path fill-rule="evenodd" clip-rule="evenodd" d="M73.7805 103.688C73.7459 103.764 73.7268 103.846 73.724 103.93C73.7213 104.015 73.7351 104.097 73.7646 104.176C73.7942 104.255 73.8389 104.326 73.8962 104.388C73.9535 104.448 74.0223 104.498 74.0986 104.533C74.175 104.567 74.2574 104.586 74.3412 104.589C74.4249 104.592 74.5084 104.578 74.5869 104.548C74.6652 104.519 74.7371 104.475 74.7983 104.417C74.8594 104.36 74.9087 104.291 74.9432 104.215C76.5357 100.803 77.4524 96.3689 75.3631 93.4185C75.3212 93.3439 75.2649 93.2783 75.1976 93.2258C75.1303 93.1733 75.0533 93.134 74.9709 93.111C74.8886 93.088 74.8025 93.0823 74.7177 93.0921C74.6329 93.1028 74.551 93.1299 74.4766 93.1725C73.0375 93.99 77.2146 96.0564 73.7805 103.688Z" fill="#191919"/>
<path fill-rule="evenodd" clip-rule="evenodd" d="M77.644 98.9215C77.6079 100.917 77.5358 104.7 76.4222 107.138C76.3846 107.213 76.3627 107.296 76.3576 107.381C76.3525 107.466 76.3644 107.55 76.3925 107.631C76.4207 107.711 76.4646 107.784 76.5216 107.847C76.5787 107.91 76.6476 107.96 76.7245 107.996C76.8015 108.033 76.8848 108.052 76.9696 108.055C77.0543 108.059 77.1388 108.045 77.2182 108.015C77.2975 107.984 77.37 107.939 77.4315 107.88C77.4929 107.822 77.542 107.751 77.5759 107.674C78.7986 104.317 79.5792 102.302 78.9355 98.787C78.9287 98.7001 78.9046 98.6165 78.8647 98.5394C78.825 98.4623 78.7701 98.3943 78.7035 98.3385C78.6369 98.2836 78.5599 98.2417 78.477 98.2163C78.3941 98.1917 78.307 98.1835 78.2209 98.1917C78.1347 98.2007 78.0511 98.227 77.9752 98.2688C77.8994 98.3106 77.8325 98.3672 77.7787 98.4353C77.725 98.5033 77.6854 98.5812 77.6623 98.6649C77.6391 98.7477 77.6329 98.8354 77.644 98.9215Z" fill="#191919"/>
<path fill-rule="evenodd" clip-rule="evenodd" d="M80.6154 104.04C80.4235 104.568 80.189 105.076 80.0004 105.603C79.5666 106.814 79.2288 108.049 78.6884 109.211C77.9699 110.731 76.9804 112.109 75.7684 113.275C73.9173 115.353 71.7519 117.13 69.351 118.538C68.5565 119.03 67.711 119.455 66.896 119.955C66.7534 120.047 66.6531 120.191 66.6171 120.357C66.5812 120.523 66.6124 120.696 66.7041 120.838C66.7958 120.981 66.9403 121.081 67.1059 121.117C67.2715 121.153 67.4446 121.122 67.5872 121.03C68.4187 120.47 69.2108 119.874 70.0292 119.335C72.0342 118.112 73.9601 116.765 75.7954 115.299C76.7405 114.543 77.5391 113.619 78.1521 112.575C78.7917 111.687 79.346 110.742 79.8077 109.75C80.7034 108.078 81.3884 106.302 81.847 104.463C81.8752 104.383 81.8873 104.297 81.8824 104.212C81.8775 104.127 81.8559 104.043 81.8187 103.966C81.7815 103.89 81.7295 103.821 81.6657 103.764C81.6019 103.708 81.5275 103.664 81.4469 103.637C81.2831 103.581 81.1038 103.591 80.948 103.667C80.7922 103.742 80.6727 103.877 80.6154 104.04Z" fill="#191919"/>
<path fill-rule="evenodd" clip-rule="evenodd" d="M88.0041 66.7551C86.0812 65.4661 82.3568 65.7933 78.2617 64.0557C73.0186 61.836 70.7521 58.0221 68.4955 52.7741C68.1396 51.9492 67.7575 51.0841 67.4 50.1501C67.3424 49.987 67.2225 49.8535 67.0665 49.7788C66.9104 49.7041 66.7312 49.6945 66.5681 49.752C66.4049 49.8096 66.2713 49.9295 66.1967 50.0855C66.122 50.2416 66.1124 50.4208 66.17 50.5839C66.4857 51.5622 66.794 52.4896 67.154 53.344C68.6603 57.0121 70.956 60.3033 73.878 62.984C77.158 65.7843 79.5663 66.2795 83.7434 66.7937C85.0152 66.8376 86.2649 67.1337 87.4211 67.6645C89.057 68.7018 89.7442 69.7276 89.5277 70.6551C89.1423 72.3041 86.5216 72.5919 86.2411 72.7575C85.877 71.8363 85.4236 70.953 84.8873 70.1204C84.8127 69.9649 84.679 69.8455 84.5167 69.7883C84.3535 69.7312 84.1747 69.7411 84.0189 69.8158C83.8639 69.8905 83.7442 70.0239 83.6868 70.1867C83.6302 70.3494 83.6401 70.5283 83.7147 70.6838C84.6257 73.5021 85.8869 75.0535 86.9127 77.2634C86.984 77.413 87.1103 77.529 87.2661 77.5871C87.4211 77.6451 87.5925 77.6407 87.745 77.5747C87.8967 77.5087 88.0172 77.3863 88.0804 77.2333C88.1443 77.0802 88.146 76.9085 88.0853 76.7542C87.4711 75.8509 86.9685 74.8772 86.5863 73.8539C91.453 72.5698 91.8942 69.252 88.0041 66.7551Z" fill="#191919"/>
<path fill-rule="evenodd" clip-rule="evenodd" d="M88.1099 75.079C88.9906 76.4175 89.5228 77.9548 89.6581 79.5512C89.713 80.9797 88.4191 81.4536 86.9915 81.4003C85.3949 81.2961 83.8345 80.8782 82.3995 80.1703C82.2387 80.1165 82.0633 80.1286 81.9111 80.2041C81.7593 80.2796 81.6435 80.4122 81.5893 80.573C81.562 80.6522 81.5506 80.7361 81.556 80.8198C81.5613 80.9035 81.5832 80.9853 81.6205 81.0605C81.6577 81.1356 81.7095 81.2026 81.7728 81.2576C81.8362 81.3125 81.9098 81.3543 81.9895 81.3807C82.365 81.4963 85.5368 82.3469 86.3109 82.4879C89.8516 83.1365 91.0669 81.7726 90.9422 79.4897C90.9176 79.056 90.5322 77.0158 90.5101 76.9272C90.3108 75.9614 89.8524 75.0679 89.1841 74.3426C89.0866 74.2002 88.9357 74.1026 88.7659 74.0712C88.5962 74.0397 88.4207 74.077 88.2789 74.1749C88.1362 74.2727 88.0386 74.4231 88.0074 74.593C87.9754 74.7629 88.0132 74.9382 88.1108 75.0806L88.1099 75.079Z" fill="#191919"/>
<path fill-rule="evenodd" clip-rule="evenodd" d="M84.7993 83.4391C83.1257 83.5916 81.4397 83.3309 79.8901 82.6798C78.3406 82.0287 76.9746 81.0067 75.9121 79.7042C75.8523 79.6455 75.7816 79.5992 75.7038 79.5679C75.6261 79.5366 75.543 79.5208 75.4592 79.5216C75.3753 79.5224 75.2925 79.5397 75.2155 79.5726C75.1383 79.6054 75.0684 79.653 75.0097 79.7129C74.9511 79.7726 74.9047 79.8434 74.8734 79.9211C74.842 79.9989 74.8264 80.082 74.8272 80.1658C74.8279 80.2496 74.8452 80.3325 74.878 80.4095C74.9108 80.4866 74.9585 80.5566 75.0183 80.6152C77.7571 82.911 81.4307 85.6941 85.0133 84.715C85.0978 84.7011 85.1781 84.6707 85.2503 84.6256C85.3224 84.5805 85.3856 84.5215 85.4348 84.4518C85.4848 84.3821 85.5201 84.3042 85.5389 84.2206C85.5586 84.1377 85.5611 84.0516 85.5471 83.9672C85.5332 83.8835 85.5028 83.8024 85.4577 83.7302C85.4118 83.658 85.3536 83.5949 85.2839 83.5457C85.2142 83.4957 85.1355 83.4604 85.0527 83.4416C84.9698 83.4219 84.8837 83.4194 84.7993 83.4334V83.4391Z" fill="#191919"/>
<path fill-rule="evenodd" clip-rule="evenodd" d="M79.2946 85.8212C76.3754 84.5158 74.364 84.3108 72.2172 81.4755C72.162 81.4108 72.0945 81.358 72.0186 81.3198C71.9428 81.2817 71.8599 81.2591 71.7752 81.2535C71.6904 81.2478 71.6054 81.2592 71.5251 81.287C71.4448 81.3147 71.3709 81.3583 71.3077 81.4151C71.2445 81.4719 71.1934 81.5407 71.1572 81.6176C71.121 81.6945 71.1006 81.7778 71.0972 81.8627C71.0938 81.9476 71.1074 82.032 71.1372 82.1115C71.167 82.1911 71.2125 82.2641 71.2709 82.3256C73.8761 84.761 75.4349 86.2739 78.9117 87.066C79.0747 87.1111 79.249 87.0914 79.3975 87.0102C79.5459 86.929 79.6568 86.7929 79.7067 86.6314C79.7565 86.4698 79.7414 86.2944 79.6645 86.1443C79.5875 85.9934 79.4548 85.8786 79.2946 85.8237V85.8212Z" fill="#191919"/>
<path fill-rule="evenodd" clip-rule="evenodd" d="M74.0898 87.0201C68.4105 83.4366 67.5298 82.5256 66.1243 80.1186C64.993 78.1279 63.9929 76.0653 63.1305 73.944C61.9923 71.4389 55.9637 59.3332 53.6283 56.1123C53.5784 56.045 53.5157 55.9882 53.4437 55.9452C53.3718 55.9021 53.2921 55.8737 53.2092 55.8614C53.1263 55.8491 53.0417 55.8533 52.9605 55.8737C52.8791 55.8941 52.8027 55.9303 52.7354 55.9803C52.668 56.0303 52.6112 56.093 52.5682 56.1649C52.5251 56.2368 52.4967 56.3165 52.4844 56.3994C52.4721 56.4823 52.4763 56.5669 52.4967 56.6481C52.5172 56.7295 52.5534 56.806 52.6033 56.8732C57.1133 62.8346 59.3806 69.5595 61.6479 74.3253C62.2695 75.6299 64.5999 80.0907 65.6922 81.7971C66.622 83.2858 67.8506 84.565 69.3002 85.5539C70.6122 86.5026 71.9867 87.362 73.4141 88.1262C73.4868 88.1721 73.5678 88.2025 73.6525 88.2173C73.7373 88.2312 73.824 88.2287 73.9077 88.2099C73.9914 88.1902 74.0704 88.1541 74.1402 88.1041C74.21 88.0541 74.2691 87.9901 74.3142 87.9171C74.3592 87.8442 74.3892 87.763 74.4025 87.6777C74.4159 87.5932 74.4122 87.5063 74.3919 87.4227C74.3715 87.339 74.3347 87.2603 74.2836 87.1914C74.2326 87.1225 74.1684 87.0635 74.0947 87.0201H74.0898Z" fill="#191919"/>
<path fill-rule="evenodd" clip-rule="evenodd" d="M69.1339 46.0174C63.5308 26.4694 64.9051 27.9815 60.3058 7.45611C60.2666 7.28923 60.1636 7.1443 60.019 7.05234C59.8743 6.9604 59.6994 6.92873 59.5317 6.96411C59.4483 6.98201 59.3693 7.01619 59.2991 7.06469C59.229 7.11319 59.1692 7.17506 59.123 7.24674C59.0768 7.31843 59.0452 7.39853 59.0302 7.48244C59.015 7.56635 59.0165 7.65243 59.0347 7.73573C59.4333 9.65534 59.7826 11.4011 60.1008 13.0091C54.6888 15.5298 48.8717 16.7196 39.0268 24.5474C38.314 25.0979 37.6691 25.7309 37.1055 26.4334C36.4038 24.5567 35.842 22.6308 35.4245 20.6712C35.3885 20.5092 35.2909 20.3676 35.1523 20.2763C35.0137 20.185 34.845 20.1512 34.682 20.1821C34.5189 20.213 34.3742 20.3062 34.2787 20.4419C34.1831 20.5776 34.1441 20.7451 34.1699 20.909C35.5639 28.0119 45.9254 49.5467 49.6433 56.3158C49.6863 56.3907 49.7437 56.4563 49.8122 56.5089C49.8808 56.5615 49.9589 56.6001 50.0424 56.6224C50.1258 56.6447 50.2128 56.6504 50.2984 56.639C50.384 56.6276 50.4665 56.5994 50.5412 56.5561C55.9975 53.4081 61.8646 50.8735 68.8272 46.7644C68.9543 46.692 69.0535 46.5791 69.1091 46.4437C69.1647 46.3084 69.1734 46.1583 69.1339 46.0174ZM37.6295 27.8708C41.9935 23.1566 52.0689 17.2928 57.5825 15.2305C58.4977 14.8861 59.4234 14.5745 60.3435 14.2318C60.5386 15.2207 62.0704 22.7991 62.6042 25.2878C52.1796 29.7609 53.0988 28.8417 48.1345 31.9962C43.7262 34.7842 42.7537 35.6239 41.3744 36.9753C40.0764 34.061 38.7357 30.8499 37.6295 27.8708ZM41.9419 38.2438C42.4257 37.8264 42.9357 37.441 43.4228 37.0351C44.6528 36.0216 45.8483 34.9909 47.1571 34.1102C51.0434 31.758 55.0805 29.6644 59.2422 27.8429C60.6198 27.2689 61.234 27.0557 62.8674 26.5072C63.1913 27.9938 64.7534 34.7145 65.3028 36.8695C64.3352 37.2606 63.3873 37.6895 62.4328 38.1077C54.7872 41.482 55.6678 41.195 51.0184 44.2757C49.3787 45.2425 47.8659 46.4099 46.515 47.7509C44.9422 44.6554 43.3974 41.4566 41.9419 38.2438ZM50.4502 55.0981C49.4137 53.2744 48.2969 51.2154 47.1628 49.0203C49.7541 46.4945 52.73 44.3962 55.9794 42.8038C59.8425 40.562 61.4857 39.3443 65.6095 38.0601C66.1999 40.334 66.892 42.8891 67.7374 45.8772C64.6862 47.5361 56.0245 51.814 50.4502 55.0981Z" fill="#71B6F6"/>
<path fill-rule="evenodd" clip-rule="evenodd" d="M75.0307 60.9311C76.5354 56.5507 71.8688 55.82 67.6679 57.6577C65.6178 58.5961 63.6624 59.7291 61.8287 61.041C59.4476 62.9629 57.4266 65.2923 55.8599 67.9208C53.8329 71.3648 56.4265 74.6562 60.6315 73.5517C60.7122 73.5293 60.7878 73.4913 60.8539 73.4398C60.9199 73.3882 60.9751 73.3242 61.0165 73.2513C61.0578 73.1784 61.0844 73.098 61.0946 73.0149C61.1049 72.9317 61.0986 72.8473 61.0763 72.7666C61.0539 72.6858 61.0159 72.6102 60.9644 72.5442C60.9128 72.4781 60.8488 72.4228 60.7759 72.3815C60.7029 72.3402 60.6226 72.3137 60.5395 72.3034C60.4562 72.2931 60.3719 72.2993 60.2912 72.3217C56.7242 73.3623 55.2752 70.9064 56.7988 68.4899C58.1916 66.3843 59.9035 64.5081 61.873 62.9286C64.1837 61.0156 65.5088 59.9249 68.164 58.8024C69.7007 58.1529 71.772 57.8536 73.0619 58.3342C73.8368 58.622 74.1984 59.2993 73.8056 60.5219C73.7511 60.685 73.7639 60.863 73.8408 61.0168C73.9176 61.1706 74.0524 61.2875 74.2156 61.3419C74.3787 61.3963 74.5567 61.3836 74.7105 61.3067C74.8642 61.2298 74.9811 61.095 75.0356 60.9319L75.0307 60.9311Z" fill="#71B6F6"/>
<path fill-rule="evenodd" clip-rule="evenodd" d="M74.0404 60.0892C74.4152 59.4543 74.5607 58.7099 74.4525 57.9807C74.3442 57.2514 73.9889 56.5814 73.446 56.0827C72.462 55.2077 70.6399 54.7543 67.8699 55.2151C65.395 55.7132 62.9834 56.4864 60.6802 57.5201C58.4082 58.6428 56.3399 60.1372 54.5606 61.9416C52.9673 63.5816 52.3981 65.7431 53.337 67.1609C54.034 68.2137 55.6224 69.005 58.5178 68.6697C58.6009 68.6589 58.6811 68.6319 58.7539 68.5901C58.8265 68.5484 58.8902 68.4927 58.9415 68.4263C58.9927 68.3599 59.0302 68.284 59.0521 68.2032C59.0739 68.1222 59.0797 68.0378 59.0689 67.9546C59.0581 67.8715 59.031 67.7913 58.9893 67.7186C58.9476 67.646 58.8919 67.5822 58.8255 67.531C58.7591 67.4798 58.6833 67.4423 58.6023 67.4204C58.5214 67.3985 58.4369 67.3928 58.3539 67.4036C56.0858 67.7217 54.7524 67.4036 54.1907 66.5836C53.4715 65.534 54.1243 63.9309 55.3576 62.7468C57.0895 61.2398 59.021 59.9787 61.0976 58.9994C61.5625 58.7616 62.9934 57.9851 64.2135 57.5054C66.4538 56.6247 69.7732 55.7456 71.9282 56.7911C72.1808 56.8966 72.4082 57.0544 72.5953 57.2543C72.7824 57.4541 72.925 57.6913 73.0137 57.9503C73.1023 58.2093 73.135 58.4842 73.1096 58.7568C73.0842 59.0293 73.0012 59.2935 72.8662 59.5316C72.7918 59.6873 72.7824 59.8662 72.8398 60.0289C72.8974 60.1916 73.0172 60.3248 73.1729 60.3991C73.3286 60.4735 73.5075 60.483 73.6702 60.4255C73.8329 60.368 73.966 60.2482 74.0404 60.0925V60.0892Z" fill="#71B6F6"/>
<path fill-rule="evenodd" clip-rule="evenodd" d="M115.596 79.8486C122.828 77.9216 125.976 76.8146 131.008 75.5633C132.484 75.1959 133.981 74.8843 135.471 74.503C143.881 72.3505 147.099 71.1123 155.851 70.6178C155.935 70.612 156.017 70.5898 156.091 70.5525C156.167 70.5151 156.233 70.4633 156.288 70.4C156.343 70.3368 156.386 70.2634 156.412 70.1839C156.439 70.1044 156.45 70.0205 156.443 69.9368C156.437 69.8533 156.415 69.7716 156.378 69.6966C156.341 69.6215 156.289 69.5546 156.226 69.4996C156.163 69.4446 156.089 69.4025 156.009 69.3759C155.93 69.3493 155.846 69.3386 155.762 69.3444C152.467 69.6002 146.272 70.6736 143.093 71.3124C133.499 73.2377 133.787 73.4493 130.679 74.3292C120.567 77.1918 123.145 76.2586 115.241 78.5932C115.079 78.6444 114.945 78.7564 114.864 78.9053C114.785 79.0543 114.766 79.2286 114.812 79.3913C114.858 79.554 114.965 79.6923 115.112 79.7771C115.258 79.8618 115.432 79.8863 115.596 79.8453V79.8486Z" fill="#191919"/>
<path fill-rule="evenodd" clip-rule="evenodd" d="M107.943 97.6899C110.146 96.1704 112.58 95.0192 115.152 94.2812C121.423 92.3952 126.589 92.4583 133.237 91.7178C136.018 91.4087 154.733 89.3751 157.117 89.0414C157.2 89.0291 157.279 89.0004 157.352 88.9569C157.423 88.9134 157.486 88.8569 157.535 88.7896C157.585 88.7224 157.621 88.6453 157.642 88.5641C157.662 88.4829 157.666 88.3985 157.654 88.3157C157.641 88.2328 157.613 88.1533 157.57 88.0811C157.526 88.0098 157.47 87.9467 157.402 87.8975C157.335 87.8474 157.258 87.8114 157.177 87.7909C157.096 87.7704 157.011 87.7671 156.928 87.7794C154.86 88.1074 152.797 88.4583 150.718 88.7257C142.862 89.7343 132.571 89.831 119.706 91.9343C114.704 92.7543 110.846 93.7121 107.141 96.669C107.012 96.7772 106.93 96.9314 106.913 97.0995C106.895 97.2668 106.944 97.4349 107.048 97.5677C107.152 97.7006 107.304 97.7867 107.471 97.8096C107.638 97.8326 107.807 97.7891 107.943 97.6899Z" fill="#191919"/>
<path fill-rule="evenodd" clip-rule="evenodd" d="M100.308 110.037C99.1854 111.591 98.5441 111.548 97.6421 111.281C96.4367 110.924 95.9464 108.336 95.7988 107.085C95.7873 107.003 95.7594 106.923 95.7168 106.85C95.6741 106.778 95.6184 106.715 95.5511 106.665C95.4847 106.614 95.4085 106.577 95.3273 106.556C95.2461 106.535 95.1616 106.53 95.0788 106.542C94.9952 106.553 94.9156 106.581 94.8435 106.624C94.7713 106.666 94.7074 106.722 94.6573 106.789C94.6065 106.856 94.5696 106.932 94.5491 107.013C94.5278 107.094 94.5229 107.179 94.5343 107.262C94.7943 108.91 95.5766 112.018 97.1288 112.544C101.993 114.192 104.427 104.324 106.149 99.571C106.21 99.4111 106.205 99.2331 106.137 99.0765C106.068 98.9199 105.941 98.7961 105.781 98.7313C104.045 98.0531 104.87 103.725 100.308 110.037Z" fill="#191919"/>
<path fill-rule="evenodd" clip-rule="evenodd" d="M97.4374 105.268C96.2074 105.544 92.5174 107.208 90.5994 107.87C90.5199 107.896 90.4461 107.938 90.3829 107.993C90.319 108.048 90.2673 108.115 90.2296 108.19C90.1919 108.265 90.1697 108.347 90.164 108.43C90.1574 108.515 90.1681 108.598 90.1943 108.678C90.2214 108.757 90.2632 108.831 90.3182 108.894C90.3731 108.958 90.4395 109.01 90.515 109.048C90.5904 109.085 90.6716 109.108 90.7552 109.114C90.8389 109.12 90.9233 109.109 91.0029 109.083C92.9709 108.435 95.8089 107.317 97.895 106.487C98.0549 106.425 98.1844 106.302 98.2549 106.144C98.3255 105.987 98.332 105.809 98.2722 105.648C98.2426 105.568 98.1967 105.495 98.1393 105.432C98.0811 105.37 98.0114 105.32 97.9335 105.285C97.8556 105.249 97.772 105.23 97.6867 105.227C97.6022 105.224 97.5169 105.238 97.4374 105.268Z" fill="#191919"/>
<path fill-rule="evenodd" clip-rule="evenodd" d="M93.0903 109.756C92.0104 110.325 90.841 110.704 89.6332 110.877C87.6176 111.135 86.5016 110.534 87.3495 108.221C88.0596 106.282 88.6475 104.85 88.9846 103.755C89.0485 103.601 89.0502 103.428 88.9878 103.273C88.9255 103.118 88.8058 102.994 88.6525 102.926C88.4999 102.858 88.3269 102.853 88.1703 102.912C88.0137 102.971 87.8866 103.089 87.8161 103.24C87.7103 103.497 86.5598 106.611 86.3286 107.445C85.7013 109.707 85.3749 111.723 87.6922 112.094C89.7841 112.469 91.9398 112.039 93.7283 110.891C93.875 110.805 93.9825 110.665 94.0267 110.5C94.071 110.335 94.0489 110.16 93.9652 110.011C93.8816 109.863 93.7438 109.753 93.5798 109.705C93.4167 109.658 93.2404 109.676 93.0903 109.756Z" fill="#191919"/>
<path fill-rule="evenodd" clip-rule="evenodd" d="M85.7803 104.64C85.7344 101.051 87.7942 97.9539 90.018 95.9826C90.0804 95.9269 90.1304 95.8588 90.1665 95.7826C90.2017 95.7071 90.2222 95.6251 90.2263 95.5415C90.2304 95.4578 90.2181 95.3742 90.1894 95.2947C90.1615 95.2159 90.1181 95.1438 90.0615 95.0815C90.0049 95.02 89.9369 94.9691 89.8614 94.9339C89.786 94.8978 89.7032 94.8773 89.6195 94.8732C89.5359 94.8691 89.4522 94.8814 89.3735 94.9101C89.2948 94.938 89.2226 94.9822 89.1603 95.038C86.237 97.6226 83.7147 101.106 84.4863 104.78C84.4929 104.867 84.5175 104.952 84.5568 105.03C84.597 105.107 84.652 105.175 84.7192 105.231C84.7864 105.286 84.8635 105.328 84.9472 105.353C85.0308 105.378 85.1185 105.386 85.2046 105.377C85.2916 105.368 85.3752 105.34 85.4515 105.299C85.5269 105.256 85.5941 105.199 85.6474 105.13C85.7007 105.062 85.7401 104.983 85.7631 104.898C85.7852 104.814 85.7909 104.726 85.7786 104.64H85.7803Z" fill="#191919"/>
<path fill-rule="evenodd" clip-rule="evenodd" d="M83.7566 99.4316C84.4815 96.6854 86.0731 94.2459 88.2953 92.4755C88.3593 92.4214 88.4109 92.3558 88.4495 92.2812C88.4872 92.2065 88.5101 92.1254 88.5175 92.0425C88.5241 91.9589 88.5143 91.8753 88.4888 91.7957C88.4626 91.7162 88.4216 91.6424 88.3675 91.5784C88.3134 91.5153 88.2469 91.4628 88.1731 91.4243C88.0985 91.3865 88.0173 91.3636 87.9337 91.357C87.8509 91.3505 87.7664 91.3595 87.6877 91.3857C87.6081 91.4111 87.5343 91.4521 87.4704 91.5063C84.8898 94.1204 83.34 95.8424 82.5258 99.015C82.4963 99.0962 82.484 99.1831 82.4881 99.2692C82.4922 99.3553 82.5143 99.4398 82.5512 99.5177C82.5889 99.5956 82.6414 99.6653 82.7062 99.7218C82.771 99.7792 82.8464 99.8235 82.9284 99.8506C83.0104 99.8785 83.0965 99.8899 83.1826 99.8834C83.2687 99.8776 83.3532 99.8539 83.4303 99.8153C83.5073 99.776 83.5754 99.7218 83.632 99.6562C83.6877 99.5906 83.7304 99.5144 83.7566 99.4316Z" fill="#191919"/>
<path fill-rule="evenodd" clip-rule="evenodd" d="M82.3064 95.1208C86.0054 90.4755 88.6598 87.2078 94.2481 85.3218C97.1492 84.4781 100.1 83.8122 103.082 83.3276C103.164 83.3096 103.242 83.2759 103.311 83.2284C103.38 83.1808 103.439 83.1201 103.484 83.0496C103.53 82.9791 103.56 82.9004 103.576 82.8176C103.59 82.7356 103.59 82.6511 103.571 82.5691C103.553 82.4871 103.52 82.4092 103.472 82.3403C103.425 82.2714 103.364 82.2124 103.294 82.1665C103.223 82.1214 103.144 82.0902 103.062 82.0755C102.979 82.0599 102.895 82.0615 102.813 82.0796C97.8061 83.0545 92.6884 83.945 88.5171 86.7986C86.2924 88.3911 84.3064 90.2927 82.6197 92.4476C82.1514 93.0577 81.739 93.7088 81.2781 94.3336C81.1732 94.4698 81.1268 94.642 81.149 94.8125C81.1712 94.9831 81.2603 95.1381 81.3966 95.243C81.533 95.348 81.7054 95.3947 81.8761 95.3726C82.0465 95.3504 82.2015 95.261 82.3064 95.1249V95.1208Z" fill="#191919"/>
<path fill-rule="evenodd" clip-rule="evenodd" d="M114.206 89.7318C117.186 88.4337 115.389 84.3862 114.327 81.0715C113.9 79.6685 113.31 78.4311 111.889 78.0703C109.998 77.7557 108.056 77.9681 106.279 78.6845C105.04 79.2347 104.402 80.117 104.626 81.0428C104.646 81.1248 105.873 87.7105 106.749 89.0151C107.16 89.6342 107.791 90.0737 108.514 90.2451C108.774 91.9925 109.415 93.662 110.392 95.1356C110.442 95.2045 110.505 95.2635 110.577 95.3078C110.65 95.3529 110.731 95.3824 110.816 95.3947C110.9 95.4078 110.986 95.4037 111.068 95.3824C111.151 95.3611 111.229 95.3242 111.297 95.2725C111.365 95.2209 111.422 95.1561 111.464 95.0823C111.507 95.0085 111.535 94.9265 111.545 94.842C111.555 94.7567 111.549 94.6715 111.526 94.5886C111.502 94.5066 111.463 94.4304 111.409 94.364C110.403 92.4534 110.005 91.4415 109.921 90.4075C110.927 90.3656 111.929 90.2533 112.92 90.0721C113.305 91.2742 113.837 92.4247 114.505 93.4964C114.556 93.5628 114.619 93.6194 114.691 93.6612C114.763 93.7039 114.843 93.7309 114.926 93.7424C115.01 93.7539 115.094 93.749 115.175 93.7276C115.256 93.7063 115.332 93.6694 115.399 93.6186C115.466 93.5677 115.522 93.5046 115.564 93.4324C115.607 93.3603 115.634 93.2799 115.645 93.1971C115.657 93.1143 115.652 93.0298 115.631 92.9486C115.609 92.8675 115.572 92.7912 115.522 92.7248C114.98 91.7752 114.539 90.7724 114.206 89.7318ZM109.338 85.9262C109.313 86.0205 109.251 86.1008 109.166 86.15C109.081 86.1984 108.981 86.2115 108.886 86.1861C108.792 86.1607 108.711 86.0992 108.663 86.0147C108.614 85.9303 108.601 85.8294 108.626 85.7351C109.012 83.8114 109.603 81.9344 110.391 80.1375C110.408 80.0903 110.434 80.0468 110.468 80.01C110.502 79.9731 110.543 79.9434 110.589 79.9229C110.635 79.9023 110.684 79.8911 110.735 79.8901C110.785 79.889 110.835 79.8981 110.882 79.9168C110.929 79.9355 110.971 79.9634 111.007 79.9989C111.042 80.0343 111.071 80.0765 111.089 80.1231C111.108 80.1697 111.117 80.2195 111.117 80.2698C111.116 80.3201 111.105 80.3696 111.085 80.4155C110.383 82.2124 109.8 84.0533 109.338 85.9262ZM112.689 82.3419C111.988 84.1386 111.404 85.9786 110.943 87.8515C110.93 87.8983 110.908 87.9417 110.88 87.9803C110.85 88.0188 110.813 88.0508 110.771 88.0754C110.729 88.0992 110.683 88.1147 110.635 88.1213C110.587 88.1279 110.538 88.1246 110.492 88.1123C110.445 88.1 110.401 88.0778 110.363 88.0483C110.324 88.0188 110.292 87.9827 110.268 87.9409C110.244 87.8991 110.228 87.8523 110.222 87.8048C110.215 87.7564 110.219 87.708 110.231 87.6613C110.616 85.7376 111.208 83.8606 111.996 82.064C112.013 82.0164 112.039 81.973 112.073 81.9362C112.107 81.8993 112.148 81.8696 112.194 81.849C112.24 81.8285 112.289 81.8173 112.34 81.8162C112.39 81.8152 112.44 81.8243 112.487 81.843C112.533 81.8617 112.575 81.8895 112.611 81.9251C112.647 81.9605 112.675 82.0025 112.694 82.0492C112.713 82.0959 112.722 82.146 112.721 82.196C112.72 82.246 112.71 82.296 112.689 82.3419Z" fill="#191919"/>
<path fill-rule="evenodd" clip-rule="evenodd" d="M104.702 57.1275C103.594 57.7614 102.652 58.3296 102.652 58.3296C102.542 58.3986 102.454 58.498 102.4 58.6158C102.345 58.7336 102.326 58.8647 102.345 58.9932C102.363 59.1216 102.419 59.2419 102.504 59.3395C102.591 59.437 102.703 59.5075 102.828 59.5424L104.571 60.0582C104.511 61.8343 104.495 63.3972 104.495 63.3972C104.493 63.5344 104.535 63.6687 104.613 63.781C104.692 63.8933 104.805 63.978 104.934 64.0233C105.064 64.0686 105.204 64.0721 105.336 64.0333C105.467 63.9945 105.584 63.9155 105.668 63.8072C105.668 63.8072 107.05 61.8663 107.823 60.788C109.705 61.1029 111.662 61.3128 111.662 61.3128C111.795 61.3327 111.931 61.3104 112.051 61.2491C112.171 61.1877 112.269 61.0903 112.33 60.9707C112.392 60.851 112.415 60.715 112.395 60.5818C112.376 60.4486 112.315 60.3249 112.221 60.2279C112.221 60.2279 111.047 59.0422 109.726 57.6859C110.428 56.4363 111.114 55.1759 111.114 55.1759C111.164 55.0805 111.183 54.9722 111.171 54.8653C111.158 54.7584 111.114 54.6578 111.042 54.5768C110.971 54.4959 110.877 54.4383 110.773 54.4118C110.668 54.3852 110.558 54.3909 110.458 54.4281C108.474 55.1882 108.268 55.3301 107.683 55.558C106.74 54.5585 106.043 53.7819 106.043 53.7819C105.953 53.6888 105.837 53.6237 105.711 53.5948C105.584 53.5658 105.452 53.5741 105.33 53.6187C105.208 53.6633 105.101 53.7423 105.023 53.846C104.946 53.9498 104.9 54.0739 104.891 54.2034C104.891 54.2034 104.763 56.0656 104.702 57.1275Z" fill="#71B6F6"/>
<path fill-rule="evenodd" clip-rule="evenodd" d="M38.274 71.9958C36.6709 72.1032 35.2638 72.2262 35.2638 72.2262C35.1333 72.2416 35.0101 72.2949 34.9094 72.3794C34.8088 72.464 34.7351 72.5762 34.6974 72.7021C34.6596 72.828 34.6595 72.9622 34.697 73.0882C34.7347 73.2141 34.8082 73.3264 34.9088 73.4111L36.7185 74.9633C35.7345 76.8772 34.8981 78.5984 34.8981 78.5984C34.8356 78.7208 34.8137 78.86 34.8355 78.9956C34.8574 79.1313 34.9217 79.2566 35.0195 79.3533C35.1171 79.45 35.243 79.513 35.379 79.5334C35.5148 79.5539 35.6537 79.5305 35.7755 79.4668L39.8525 77.3077C41.8353 78.6525 43.9845 79.9465 43.9845 79.9465C44.097 80.019 44.2295 80.0546 44.3631 80.0482C44.4969 80.0418 44.6253 79.9939 44.7304 79.9109C44.8354 79.828 44.912 79.7143 44.9493 79.5856C44.9865 79.457 44.9826 79.32 44.9382 79.1937C44.9382 79.1937 44.2002 77.2634 43.3859 75.0798C44.8217 74.0843 46.274 73.0544 46.274 73.0544C46.3626 72.9916 46.4298 72.9031 46.4665 72.8009C46.5032 72.6987 46.5076 72.5876 46.479 72.4828C46.4505 72.378 46.3904 72.2845 46.3069 72.2149C46.2235 72.1454 46.1206 72.1033 46.0124 72.0942C45.9304 72.0868 43.8861 71.9113 42.2027 71.8564C41.6164 70.2352 41.1891 68.9814 41.1891 68.9814C41.1447 68.8607 41.0664 68.7552 40.9636 68.6778C40.8608 68.6003 40.7379 68.5541 40.6095 68.5447C40.4812 68.5353 40.3527 68.563 40.2397 68.6246C40.1268 68.6862 40.0339 68.7791 39.9723 68.8921C39.9723 68.8921 38.8841 70.8642 38.274 71.9958Z" fill="#71B6F6"/>
<path fill-rule="evenodd" clip-rule="evenodd" d="M87.6145 125.614C85.4005 125.696 83.6785 125.733 83.6785 125.733C83.5506 125.739 83.4276 125.781 83.3218 125.853C83.2168 125.925 83.134 126.026 83.0824 126.142C83.0315 126.26 83.0143 126.388 83.0323 126.515C83.0504 126.642 83.1045 126.76 83.1865 126.857C83.1865 126.857 84.9372 128.899 85.9532 130.063C85.2611 132.059 84.6937 133.835 84.6937 133.835C84.6551 133.966 84.6568 134.104 84.6986 134.233C84.7404 134.362 84.8199 134.476 84.9265 134.559C85.034 134.642 85.1635 134.691 85.2988 134.698C85.4341 134.706 85.5686 134.674 85.685 134.604L88.5034 132.959C90.2369 134.881 91.8195 136.583 91.8195 136.583C91.9097 136.683 92.0286 136.751 92.1598 136.78C92.291 136.809 92.4271 136.796 92.5509 136.745C92.6747 136.693 92.7797 136.605 92.851 136.491C92.9224 136.378 92.9568 136.245 92.9502 136.111C92.9502 136.111 92.6468 132.165 92.5066 130.268C95.065 128.41 97.6857 126.32 97.6857 126.32C97.7956 126.239 97.876 126.125 97.9153 125.994C97.9555 125.863 97.9522 125.723 97.9063 125.594C97.8604 125.466 97.7743 125.356 97.6603 125.28C97.5472 125.203 97.4119 125.166 97.2757 125.172C97.2757 125.172 94.6747 125.31 91.7432 125.444C91.3078 123.336 90.8363 121.165 90.8363 121.165C90.8117 121.059 90.7551 120.964 90.6747 120.891C90.5944 120.818 90.4935 120.772 90.3853 120.758C90.2779 120.744 90.1688 120.764 90.072 120.815C89.9761 120.865 89.8974 120.943 89.8474 121.039C88.6772 123.296 87.6522 125.531 87.6145 125.614Z" fill="#71B6F6"/>
<path d="M100.153 39.877C100.049 39.877 99.9465 39.8505 99.8547 39.7999C99.7637 39.7493 99.6866 39.6764 99.6317 39.5879C99.5767 39.4994 99.5447 39.3983 99.539 39.2941C99.5333 39.1899 99.5546 39.086 99.6005 38.9922L107.288 23.2778C107.323 23.2052 107.373 23.1403 107.433 23.0869C107.494 23.0334 107.564 22.9923 107.641 22.9661C107.718 22.9399 107.798 22.9289 107.879 22.9339C107.96 22.9389 108.038 22.9598 108.111 22.9953C108.183 23.0308 108.248 23.0802 108.302 23.1407C108.356 23.2013 108.397 23.2718 108.423 23.3482C108.449 23.4246 108.46 23.5055 108.455 23.5861C108.45 23.6667 108.429 23.7456 108.393 23.8181L100.706 39.5326C100.655 39.6361 100.576 39.7232 100.479 39.7841C100.381 39.845 100.268 39.8772 100.153 39.877Z" fill="#191919"/>
<path d="M94.2739 39.0863C94.1181 39.086 93.968 39.0266 93.8548 38.92C93.7409 38.8135 93.672 38.6678 93.6613 38.5123L92.7593 25.1717C92.7536 25.0909 92.7642 25.0099 92.7905 24.9332C92.8167 24.8565 92.8569 24.7857 92.9102 24.7248C92.9635 24.6639 93.0283 24.6141 93.1013 24.5782C93.1734 24.5423 93.253 24.521 93.3333 24.5157C93.4145 24.5103 93.4949 24.5209 93.5719 24.5468C93.6482 24.5728 93.7195 24.6135 93.7802 24.6668C93.8409 24.7201 93.8909 24.7849 93.927 24.8575C93.9631 24.93 93.9836 25.0089 93.9893 25.0897L94.8913 38.4303C94.8971 38.5146 94.8848 38.5991 94.8561 38.6787C94.8282 38.7582 94.7831 38.831 94.7257 38.8925C94.6675 38.9541 94.5978 39.0031 94.5199 39.0363C94.442 39.0696 94.3583 39.0867 94.2739 39.0863Z" fill="#191919"/>
<path d="M123.433 136.858C123.332 136.858 123.232 136.833 123.142 136.786C123.053 136.738 122.978 136.669 122.921 136.585L111.733 119.871C111.687 119.804 111.655 119.728 111.638 119.649C111.621 119.569 111.621 119.487 111.636 119.407C111.652 119.327 111.682 119.251 111.727 119.184C111.772 119.116 111.831 119.057 111.898 119.012C111.965 118.967 112.041 118.935 112.121 118.92C112.2 118.904 112.283 118.904 112.363 118.92C112.442 118.937 112.518 118.968 112.585 119.014C112.652 119.06 112.71 119.118 112.755 119.186L123.943 135.897C124.005 135.99 124.042 136.098 124.048 136.209C124.053 136.321 124.029 136.432 123.976 136.531C123.925 136.629 123.846 136.712 123.75 136.77C123.654 136.828 123.544 136.858 123.433 136.858Z" fill="#191919"/>
<path d="M129.734 126.304C129.458 126.304 129.671 126.378 118.5 119.341C118.432 119.298 118.372 119.242 118.326 119.176C118.28 119.11 118.246 119.035 118.228 118.957C118.21 118.878 118.208 118.796 118.221 118.716C118.235 118.637 118.265 118.561 118.308 118.492C118.351 118.424 118.407 118.365 118.473 118.318C118.539 118.271 118.613 118.238 118.692 118.22C118.771 118.202 118.853 118.2 118.932 118.214C119.012 118.228 119.088 118.256 119.156 118.3L130.062 125.168C130.175 125.239 130.261 125.345 130.308 125.47C130.355 125.594 130.361 125.731 130.324 125.859C130.287 125.986 130.21 126.099 130.103 126.179C129.997 126.26 129.868 126.303 129.734 126.304Z" fill="#191919"/>
</svg>
