<svg xmlns="http://www.w3.org/2000/svg" fill="none" viewBox="0 0 328 328"><path fill="#71b6f6" d="M304.859 173.402c-1.489-14.56-6.471-35.639-26.784-43.132-7.605 9.653-22.78 3.078-26.732-3.473-7.951 12.431-21.461 24.093-30.396 39.196-4.311 7.294-9.512 15.881-4.236 23.891a267.7 267.7 0 0 1 47.724-.105c4.907-8.518 5.481-11.667 5.412-19.188 0-.798 1.148-1.148 1.25-.174a30.77 30.77 0 0 1-4.399 19.574c1.95.123 3.886.409 5.788.856 1.64.397 1.158 1.517-.291 1.377a285.6 285.6 0 0 0-53.718-.091c5.683 7.199 5.383 11.575 3.971 19.024 9.364 6.423 43.624 14.924 59.04 10.232 14.173-4.314 25.123-30.855 23.371-47.987m-144.665-30.176c-8.774-5.312-27.27-6.712-37.467-1.273-2.199 8.717-9.55 19.123-13.184 22.421-5.394-1.312-14.781-5.706-18.29-12.443-15.58 4.978-30.812 28.671-35.313 44.564-6.25-6.575-18.313-23.683-20.828-29.494a41.2 41.2 0 0 1-17.768 6.795c4.943 34.44 27.455 66.11 43.429 64.924 12.732-.946 20.973-14.422 25.835-23.393a56.3 56.3 0 0 1-7.651-10.881c-.428-.804.164-2.326 1.158-1.042 19.516 25.256 46.773 40.744 82.984 42.827-18.114-24.688-24.261-78.685-2.905-103.005"/><path fill="#191919" d="M110.121 122.369c5.024-.671 5.347-8.45 1.076-10.765.662-4.42.906-8.891.73-13.357-.241-6.343-3.752-9.14-9.561-9.815a23.7 23.7 0 0 1-13.635-6.412c-6.457-6.172-5.973 3.552 0 7.79A47.9 47.9 0 0 1 73 85.237c-3.391-2.037-5.043-1.338-4.317 1.61a10.58 10.58 0 0 0 5.576 7.07c-5.554.734-11.2.36-16.61-1.098-4.66-1.312-6.943-.88-4.501 3.183a25.2 25.2 0 0 0 17.535 10.695c8.044.877 16.713-1.378 26.089-5.001a23 23 0 0 0 8.298 13.358c.504.399 1.225.463 1.476-.267 1.493-4.428 7.226 0 5.058 4.144-.756 1.445-1.84 1.343-2.893 1.355-1.053.011-.707.648-.556 1.597.615 3.889 7.285 18.757 10.152 21.274.684.6 1.321-.187.902-.867a86.5 86.5 0 0 1-9.088-19.921"/><path fill="#191919" d="M81.903 111.095A4.64 4.64 0 0 0 78.295 114c-.538 1.407.197 2.014 1.156.775a7.5 7.5 0 0 1 3.069-1.955c.956-.382 1.038-1.992-.617-1.725m-1.956 7.882c-.252.718.328 1.064.95.533a3.23 3.23 0 0 1 2.522-.753c.892 0 .956-.754.243-1.158a2.6 2.6 0 0 0-1.07-.334 2.59 2.59 0 0 0-2.051.761c-.266.27-.468.594-.594.951m13.713-3.923a2.9 2.9 0 0 0-2.38-.311 2.9 2.9 0 0 0-1.796 1.595c-.256.696.203 1.053.656.73a5.2 5.2 0 0 1 3.124-1.007c.57-.07 1.138-.605.397-1.007m-1.237 13.427c-.587.339-.656 1.238.475.972 3.797-.902 5.865-3.163 4.363-6.007-.432-.82-1.608-.139-1.239.682 1.183 2.628-2.18 3.531-3.6 4.353m.074-19.157a5.8 5.8 0 0 0-5.59.29.869.869 0 0 0 .75 1.527 9.44 9.44 0 0 1 4.446-.613c.994.172 1.396-.632.394-1.204m-6.763 8.854c-.423 1.66-1.087 7.033.913 7.582 1.043.287 4.153-.936 3.543-2.002-.477-.832-2.704.751-2.987.278a13.7 13.7 0 0 1-.44-5.904c.024-.913-.583-1.708-1.029.046m100.042 30.824c-.172-3.842-4.629-8.843-8.288-8.866-.856 0-1.516 1.25-.656 1.476a10.92 10.92 0 0 1 7.755 7.813c.284.997 1.258 1.14 1.189-.423"/><path fill="#191919" d="M188.928 143.215c-1.2-5.142-6.943-7.323-11.77-6.667-5.474.745-10.037 4.525-13.543 8.692-3.728 4.428-.476 11.434-7.639 14.329-1.64.656-.996 1.794.671 1.285 8.67-2.65 5.359-11.46 8.554-14.55 3.194-3.089 6.575-6.469 11.17-7.581s9.397.606 11.273 5.057c.351.848 1.491.338 1.284-.565"/><path fill="#191919" d="M180.102 151.689c.692 1.476 1.712.938 1.332-.492-.919-3.471-4.066-8.391-8.323-7.894-.856.1-.707 1.427 0 1.621 4.925 1.338 5.899 4.418 6.991 6.765m-11.631-5.035c-.914.149-1.158 1.577 0 1.62a6.936 6.936 0 0 1 6.794 5.161c.44.892 1.148.892 1.158-.312.018-3.542-4.179-7.088-7.952-6.469m-152.047 4.213c-2.01-7.815-2.43-10.168-2.314-15.164.026-1.157-1.007-.88-1.401.637a25 25 0 0 0 2.314 15.209c.418.833 1.622.174 1.4-.682m-6.876-9.388c0-1.331-1.295-.741-1.331.104a33.4 33.4 0 0 0 5.105 18.52 44.5 44.5 0 0 1 4.538 10.846c.3 1.064 1.615 1.238 1.446-.856a30.9 30.9 0 0 0-4.382-11.205 37.6 37.6 0 0 1-5.376-17.409m22.873 2.513c-.79-1.365-1.734-.389-1.157.656 3.733 6.711-4.349 15.216 1.156 21.413a.82.82 0 0 0 1.022.067.82.82 0 0 0 .29-.982c-3.594-6.886 2.615-14.366-1.312-21.154m-8.275-8.364c-.017-.764-.997-1.46-1.296 0-.572 2.788-.242 11.114 1.562 13.427a.75.75 0 0 0 .884.214.75.75 0 0 0 .447-.793 72 72 0 0 1-1.597-12.848m-4.746-2.055c0-.856-.984-.959-1.296 0-1.236 3.893-.78 12.126 1.516 15.744.492.786 1.86.464 1.64-.567a49.4 49.4 0 0 1-1.86-15.177m192.237 59.455c.856.349 1.084-1.002.579-1.476-2.929-2.777-11.575-3.149-15.928.116a.721.721 0 0 0 .625 1.296c7.419-2.906 11.262-1.338 14.724.064m-6.413 12.726c7.59-1.251 8.244.83 10.637.996a.84.84 0 0 0 .905-.756c.182-2.016-7.634-3.661-12.018-1.512-.864.423-.357 1.41.476 1.272m-4.389-3.657c7.77-2.409 10.409-.887 14.747.3.866.238 1.089-1.043.508-1.515-3.052-2.495-11.48-2.47-15.706-.071-.753.428-.487 1.576.451 1.286m-2.315-4.052c6.947-2.111 10.026-1.093 14.667-.328a.848.848 0 0 0 .955-1.015.84.84 0 0 0-.273-.461c-2.972-2.587-12.451-2.252-15.974.544-.765.614-.254 1.527.625 1.26M312.6 92.934a22.8 22.8 0 0 1-11.702 2.316c-4.364 8.495-10.783 23.301-22.427 21.846-3.808-.474-5.964-3.4-8.241-6.135-.626-.751-1.326-.066-.984.672a17.6 17.6 0 0 0 5.452 6.667c-1.158 2.46-2.316 8.971-1.783 11.378a.66.66 0 0 0 .642.522.66.66 0 0 0 .642-.522c.077-1.136.251-2.263.522-3.369 7.813 1.621 17.999 7.052 23.544 16.1 16.296-3.472 17.731-21.598 8.483-28.45 11.328-2.887 10.888-17.135 5.852-21.025m-27.778 8.067c1.312.343 2.624-2.662 1.539-3.344-1.443-.897-3.324 2.875-1.539 3.344"/><path fill="#191919" d="M292.647 104.632c.973.061 2.052-1.911 1.795-2.686-.745-2.234-4.097 2.545-1.795 2.686m2.592-7.45a4.5 4.5 0 0 1 1.829 2.095c.219.788 1.284 1.042 1.272-.359a3.96 3.96 0 0 0-2.499-3.322c-1.242-.466-2.27.606-.602 1.585m-6.355-2.753c1.493.492 1.968-.789.788-1.656a5.49 5.49 0 0 0-5.962.127c-.556.59-.254 1.158.492 1.042a7.4 7.4 0 0 1 4.682.487m-11.47 12.008a4.48 4.48 0 0 0 .727 3.418c.345.491.785.908 1.294 1.226a4.5 4.5 0 0 0 1.671.622.637.637 0 1 0 .394-1.158 3 3 0 0 1-1.888-1.444 3 3 0 0 1-.244-2.364c.5-2.863-1.627-2.284-1.954-.3m10.88 2.414c1.366-.648 2.583-5.951 1.898-6.657-1.061-1.09-1.148 3.544-2.662 4.863-.656.567-1.476-1.066-2.314-.579-1.028.597 1.215 3.254 3.078 2.373m-84.497 148.714c-1.446 1.274.942 2.97 2.314 2.082 16.4-10.591 34.286.428 30.165 19.249a1.62 1.62 0 0 0 3.055 1.078c8.402-21.165-18.661-37.296-35.534-22.409"/><path fill="#191919" d="M240.409 251.486c-13.887-12.3-42.492-13.161-56.908-.971-30.34 25.659-2.493 68.739 36.021 61.206 29.171-5.697 42.779-40.852 20.887-60.235m-17.015 55.896c-32.205 10.407-65.764-23.35-41.149-51.23 12.487-14.147 40.788-14.746 55.155-3.01 19.952 16.298 9.94 46.501-14.006 54.24m47.618-212.59c.514 1.561.492 2.086 2.674.718 3.404-2.132 6.666-4.016 8.714-10.903a26.78 26.78 0 0 0 27.395 7.297c9.896-3.057 18.995-25.79-6.724-27.41.856-13.577-22.109-13.669-24.654-2.755-8.266-5.972-18.521-1.148-19.875 4.18 8.103 22.108 1.158 43.867-4.63 55.651-1.62 3.3.492 2.788.984 1.817 3.716-7.431 6.619-14.726 11.808-21.391.905-1.162.105-1.608-.879-2.07a3.094 3.094 0 0 1-1.066-4.342c1.343-3.067 5.256-3.811 6.253-.792M102.9 132.172a11.71 11.71 0 0 1-8.554 5.788c-13.219 1.609-16.326-17.569-18.358-26.714-.337-1.517-1.284-.695-1.158.164.96 10.152 4.989 29.574 18.52 28.626.607 3.65.712 7.365.312 11.042-.09.891.846 1.783 1.54-.116.846-2.314.753-8.2.254-11.273a13.4 13.4 0 0 0 4.978-2.499 13.4 13.4 0 0 0 3.53-4.307c.479-.922-.583-1.519-1.064-.711m75.064 109.475c8.103-1.64 29.743-8.836 36.055-14.305 1.029-.892-.139-2.778-1.389-2.177-15.908 7.649-23.15 9.26-39.227 14.063-17.64-24.157-25.317-53.211-4.016-82.713 1.102-1.527-1.137-2.936-2.316-1.435-18.614 23.706-18.532 53.835 1.446 83.338 3.146 4.645 3.356 4.466 9.447 3.229"/><path fill="#191919" d="M94.078 38.104c35.001-22.36 77.364-26.49 115.17-8.42 42.385 20.262 57.86 54.243 32.55 96.547-10.09 16.861-33.089 37.464-36.01 54.876-.328 1.943 2.329 2.711 2.673.739 2.841-16.263 23.995-35.314 33.637-50.184 26.625-41.078 17.738-77.562-24.928-101.29-38.093-21.18-89.146-20.532-124.347 6.123-1.312.997-.283 2.593 1.255 1.609"/><path fill="#191919" d="M195.07 92.1c11.995 12.88 5.031 30.693-7.674 40.189-1.377 1.03.266 3.044 1.804 1.909 12.836-9.456 20.828-26.619 10.834-41.182-14.022-20.428-45.5-16.344-64.819-.328-11.874-12.833-29.599-34.343-40.105-48.623-1.089-1.476-2.581-.37-1.355 1.312 10.424 14.371 25.993 34.949 37.978 48.613 2.211 2.522 2.832 3.205 5.532 1.066 15.694-12.428 42.215-19.695 57.805-2.955m36.298-34.019c-20.251-28.844-68.812-38-99.544-21.887a1.75 1.75 0 0 0-.865 2.313 1.75 1.75 0 0 0 2.312.87c37.677-14.41 68.716-3.84 95.991 20.684 1.633 1.47 3.454-.058 2.106-1.98m-15.591 163.587c1.791 3.127 4.468 1.476 2.58-1.527s-3.896-6.311-5.914-9.422c-.751-1.159-2.801 0-2.119 1.25a562 562 0 0 0 5.453 9.699"/></svg>