<svg xmlns="http://www.w3.org/2000/svg" fill="none" viewBox="0 0 1377 209"><path fill="#cb8b3e" fill-opacity=".15" d="M50.932 48.95q30.4 0 44.365 13.105 13.965 12.998 13.965 35.879 0 10.312-3.116 19.765-3.114 9.346-10.205 16.651-6.981 7.304-18.691 11.601-11.709 4.19-28.897 4.19H34.067V206H.766V48.95zm-1.72 27.284H34.067v46.621h10.957q9.346 0 16.221-2.47t10.635-7.735q3.76-5.263 3.76-13.535 0-11.601-6.446-17.187-6.445-5.694-19.98-5.694m135.3-27.285q21.377 0 35.234 5.157 13.965 5.155 20.733 15.576 6.767 10.42 6.767 26.318 0 10.742-4.082 18.799t-10.742 13.642q-6.66 5.586-14.395 9.131L264.219 206h-36.953l-37.49-60.264h-17.725V206H138.75V48.95zm-2.363 27.285h-10.098v42.432h10.742q16.543 0 23.633-5.478 7.197-5.586 7.197-16.329 0-11.171-7.734-15.898-7.627-4.727-23.74-4.727m244.224 51.026q0 18.154-4.511 33.086-4.512 14.825-13.75 25.566-9.132 10.743-23.203 16.543-14.073 5.694-33.301 5.693-19.229 0-33.301-5.693-14.073-5.8-23.311-16.543-9.13-10.742-13.642-25.674t-4.512-33.193q0-24.385 7.949-42.432 8.057-18.154 24.707-28.144 16.651-9.99 42.325-9.99 25.565 0 42.002 9.99 16.542 9.99 24.492 28.144 8.056 18.155 8.056 42.647m-114.619 0q0 16.436 4.082 28.359 4.19 11.817 12.998 18.262 8.81 6.338 22.774 6.338 14.18 0 22.988-6.338 8.808-6.445 12.783-18.262 4.082-11.924 4.082-28.359 0-24.708-9.238-38.887t-30.4-14.18q-14.073 0-22.989 6.446-8.808 6.338-12.998 18.261-4.082 11.817-4.082 28.36M519.348 206h-33.301V76.664h-42.646V48.95h118.594v27.715h-42.647zm157.106 0h-90.449V48.95h90.449v27.284h-57.149v34.483h53.174v27.285h-53.174V178.5h57.149zm99.42-131.592q-9.56 0-16.973 3.76-7.304 3.653-12.353 10.635-4.942 6.982-7.52 16.865-2.578 9.884-2.578 22.236 0 16.65 4.082 28.467 4.19 11.709 12.891 17.94 8.7 6.123 22.451 6.123 9.56 0 19.121-2.149 9.668-2.148 20.947-6.123v27.93q-10.42 4.296-20.517 6.123-10.098 1.933-22.666 1.933-24.278 0-39.961-9.99-15.576-10.098-23.096-28.144-7.52-18.154-7.52-42.325 0-17.832 4.834-32.656 4.835-14.824 14.18-25.674 9.346-10.85 23.096-16.757 13.75-5.91 31.582-5.909 11.709 0 23.418 3.008 11.816 2.901 22.558 8.057l-10.742 27.07a178 178 0 0 0-17.724-7.305q-8.916-3.114-17.51-3.115m140.133 0q-9.56 0-16.973 3.76-7.305 3.653-12.353 10.635-4.942 6.982-7.52 16.865-2.578 9.884-2.578 22.236 0 16.65 4.082 28.467 4.19 11.709 12.891 17.94 8.7 6.123 22.451 6.123 9.56 0 19.121-2.149 9.668-2.148 20.947-6.123v27.93q-10.42 4.296-20.517 6.123-10.098 1.933-22.666 1.933-24.278 0-39.961-9.99-15.577-10.098-23.096-28.144-7.52-18.154-7.52-42.325 0-17.832 4.834-32.656 4.835-14.824 14.18-25.674 9.346-10.85 23.096-16.757 13.75-5.91 31.582-5.909 11.709 0 23.418 3.008 11.816 2.901 22.558 8.057l-10.742 27.07a178 178 0 0 0-17.724-7.305q-8.916-3.114-17.51-3.115M989.431 206V48.95h33.299V206zm215.219-78.74c0 12.103-1.5 23.131-4.51 33.086-3.01 9.883-7.59 18.405-13.75 25.566-6.09 7.162-13.82 12.676-23.2 16.543-9.38 3.796-20.49 5.693-33.3 5.693q-19.23 0-33.3-5.693c-9.39-3.867-17.16-9.381-23.32-16.543-6.08-7.161-10.63-15.719-13.64-25.674s-4.51-21.019-4.51-33.193q0-24.385 7.95-42.432c5.37-12.103 13.61-21.484 24.71-28.144s25.2-9.99 42.32-9.99q25.575 0 42 9.99c11.03 6.66 19.2 16.041 24.49 28.144 5.38 12.103 8.06 26.319 8.06 42.647m-114.62 0q0 16.436 4.08 28.359c2.8 7.878 7.13 13.965 13 18.262 5.87 4.225 13.47 6.338 22.78 6.338q14.175 0 22.98-6.338c5.88-4.297 10.14-10.384 12.79-18.262q4.08-11.924 4.08-28.359 0-24.708-9.24-38.887c-6.16-9.453-16.29-14.18-30.4-14.18-9.38 0-17.04 2.149-22.99 6.446-5.87 4.225-10.2 10.312-13 18.261q-4.08 11.817-4.08 28.36M1172.1.502v2.256c-2.07 2.005-4.8 4.476-8.16 7.412a638 638 0 0 1-10.85 9.238 888 888 0 0 1-11.39 9.131c-3.72 2.865-6.98 5.264-9.77 7.197h-21.81v-2.9q3.54-4.082 8.16-9.668a381 381 0 0 0 9.35-11.709c3.08-4.01 5.66-7.663 7.73-10.957zM1376.37 206h-42.33l-68.32-118.809h-.96q.42 7.413.75 14.932c.21 5.013.43 10.026.64 15.039.22 4.942.43 9.919.65 14.932V206h-29.76V48.95h42l68.22 117.626h.75c-.15-4.87-.32-9.704-.54-14.502-.21-4.798-.43-9.596-.64-14.394-.15-4.798-.29-9.597-.43-14.395V48.949h29.97z"/></svg>