<svg xmlns="http://www.w3.org/2000/svg" fill="none" viewBox="0 0 160 160"><path fill="#191919" d="M112.58 104.395a.42.42 0 0 0 .283-.163.43.43 0 0 0 .081-.317c-.377-2.42 1.151-5.226 3.746-5.262.518-.008.868-.032.861-.664-.156-13.937-.24-29.44-.358-43.84-.004-.452 0-1.637-.685-1.557-3.254.38-5.694-1.93-5.93-5.094-.074-.992.156-1.102-.8-1.1-19.031.027-41.232-.077-59.667.783-.892.041-1.364-.057-1.457.95-.183 1.98-1.754 4.727-3.92 4.985-1.002.12-.786.08-.774 1.12.166 13.937.511 30.09.68 43.847.01.763 2.392.15 3.85 2.678 1.457 2.527-.337 4.263 1.131 4.24 13.878-.184 29.288-.312 43.28-.39a.522.522 0 0 0 .368-.888.52.52 0 0 0-.368-.152c-13.044.073-30.918.27-42.767.519.425-2.843-1.6-6.268-4.53-6.56-.208-13.308-.425-29.542-.659-43.556a6.63 6.63 0 0 0 4.72-5.748c20.08-.52 39.754-1.173 59.894-.847-.113 3.544 3.223 6.419 6.652 6.227.28 14.693.488 29.31.255 44.008a5.15 5.15 0 0 0-4.366 3.703 5.2 5.2 0 0 0-.165 2.004c.035.299.204.059-1.535.269-.8.156-.659.618-.073.758.747.104 1.503.12 2.253.047"/><path fill="#191919" d="M93.36 108.302c-17.174.147-35.23.109-52.33.519-.327-21.75-1.035-43.431-1.142-66.048 0-.493-.783-.566-.783-.047 0 21.792.736 43.985.903 65.654.008 1.142.45 1.392 1.395 1.38 16.811-.206 34.99-.382 52.045-.462.65-.003.557-1.001-.088-.996m27.68-66.168c-.029-.99-.43-1.18-1.385-1.162-25.6.5-52.098.446-77.577.72-.462.005-.493.83 0 .83 25.745-.013 52.345-.7 78.049-.519.726 21.875.684 44.693 1.04 66.127-3.404.088-7.621.152-10.756.394-.415.032-.518.745-.052.773 2.102.125 8.24-.133 10.725-.208 1.069-.032 1.191-.415 1.178-1.255-.338-21.93-.588-43.852-1.222-65.7"/><path fill="#191919" d="M65.879 56.029c.7-.068.753-2.047.042-2.2-2.442-.527-8.597-.215-11.27 0-.767.062-.82 2.48-.046 2.418 3.747-.284 7.834.119 11.274-.218m40.257-2.48c-2.07-.346-10.465-.19-12.062.254-.52.144-.32 1.888.046 2.05.26.113 11.63-.084 11.934-.208.478-.195.712-1.99.082-2.096m-26.45 32.282c-7.6.355-16.822.371-25.149.908-.622.04-.726 1.068-.051 1.095 7.876.312 17.313-.538 25.314-.815.804-.028.685-1.225-.114-1.188m.503-7.523c-5.858-.52-20.382-.174-26.357.52-.596.068-.472 1.062.125 1.04 8.568-.365 17.702-.448 26.211-.4a.577.577 0 1 0 .02-1.158zm-.269 3.777c-.36-.053-22.647.41-25.563.753a.48.48 0 0 0 .052.954c4.67.104 21.914.022 25.568-.648.552-.104.454-.984-.057-1.06M58.59 99.02c.146.566.654.706.929.181a19 19 0 0 1 2.262-3.382c.036.731.08 1.463.15 2.189a.52.52 0 0 0 .567.467c.526-.05.354-.581 1.76-2.075q.067.713.286 1.396a.52.52 0 0 0 .918 0 4.87 4.87 0 0 1 1.478-2.118c.063.442.48 2.344 1.313 2.03a30 30 0 0 1 7.607-1.76.322.322 0 1 0-.063-.64 21.6 21.6 0 0 0-7.513 1.312 3.14 3.14 0 0 1-.368-1.795.518.518 0 0 0-.695-.52 5.7 5.7 0 0 0-2.076 1.884q-.055-.374-.052-.752c0-.358-.41-.692-.73-.41a14.6 14.6 0 0 0-1.464 1.495q-.118-1.05-.12-2.107c0-.52-.69-.551-.98-.254-.9.928-1.705 1.945-2.4 3.035.08-1.463 1.697-7.008-.695-5.93-1.686.758-3.663 6.122-3.788 7.953-.03.462.44.597.597.109.64-1.987 1.976-5.292 3.414-6.818-.015 2.027-.926 4.215-.337 6.51"/><path fill="#71b6f6" d="M92.377 81.4c-.69.665.374 4.623-.08 5.049-.454.425-3.943 1.37-3.97 2.594-.026 1.225 3.144 2.531 3.467 3.383.322.85-2.03 4.581-1.557 5.644.472 1.064 4.98.027 5.645.52.664.492.944 3.673 1.878 3.901s3.741-2.49 4.67-2.465 3.019 2.662 3.875 2.449.784-4.337 1.402-4.71 4.041-.11 4.601-.774-1.649-3.86-1.173-4.741c.477-.882 2.906-2.64 2.745-3.674s-2.874-1.494-3.33-2.185c-.456-.69.518-4.954-.24-5.54-.759-.587-4.499.64-5.484.16s-2.076-3.17-3.305-3.067c-.96.08-2.356 3.263-3.689 3.56-1.333.295-4.76-.773-5.455-.104m8.72 1.505c4.383-.195 7.44 2.314 7.906 6.631 1.08 9.988-14.778 11.619-15.3 1.157-.237-4.68 2.71-7.58 7.391-7.788zM59 68.196c0 .326-4.27 3.44-4.151 3.969.12.528 8.763.08 8.909-.41a48.4 48.4 0 0 0-.369-7.529c-.178-.48-9.858-.04-9.826.328.03.367 5.437 3.315 5.437 3.642m50.047 3.601c.16-.57-4.281-3.067-4.281-3.52 0-.454 4.047-2.076 3.83-2.595-.218-.518-8.093-1.6-8.302-.736a41 41 0 0 0 .187 6.744c.223.402 8.407.683 8.566.107"/><path fill="#71b6f6" d="M108.64 98.932c-.52-.222-.48 4.488-1.806 4.965s-3.969-2.179-4.669-2.112c-.7.068-3.6 2.73-5.189 2.19-1.04-.353-1.82-4.187-2.05-4.12-.228.067.178 11.727.442 16.39a.466.466 0 0 0 .7.384c.59-.336 6.376-3.692 6.444-3.632 1.074.948 5.224 2.46 6.538 2.9a.47.47 0 0 0 .593-.289c.04-.115.085.53-.536-7.155-.19-2.309-.04-9.338-.467-9.521M98.09 70.038c.69-.815.519-8.457 0-9.002-.52-.545-31.706-.768-32.4 0-.52.518-.343 7.694.394 8.566.737.87 31.311 1.256 32.006.436M71.546 63.78c5.708-.299 14.818.041 20.987.08.586.004.997 2.78-.43 2.771-6.113-.043-14.911.423-20.552-.39-.617-.082-.617-2.43-.005-2.461m-46.624 1.604a11.5 11.5 0 0 0-5.28 7.02c-.6 2.36-.21 3.635 2.195 1.826 2.285-1.72 5.2-4.818 6.008-7.528 1.01-3.375-1.205-2.341-2.923-1.318m-1.141 9.63c-1.867 1.925-3.76 6.381-3.694 9.017.066 2.714 1.2 3.225 2.999.747a17.3 17.3 0 0 0 3.191-8.24c.316-2.843.11-4.212-2.496-1.524m7.648-19.908c-1.557-.042-3.749 1.09-5.189 2.36-2.283 2.013-3.948 4.772-3.113 5.386 1.019.749 4.303-1.078 6.127-2.548 2.036-1.638 3.42-5.166 2.175-5.198M7.048 62.395c-.01 4.058 1.785 9.12 4.924 11.824 4.1 3.533 3.59-.21 2.77-3.237-1.025-3.796-2.233-7.703-4.57-10.896-2.652-3.624-3.119.125-3.124 2.31m13.246-4.53a19.9 19.9 0 0 0-.872-7.01c-.706-2.263-1.883-4.36-3.113-.85a19.1 19.1 0 0 0-1.152 7.175c.355 7.699 4.636 9.962 5.137.685M148.48 70.484a12.38 12.38 0 0 0 2.516-9.448c-.603-4.107-1.665-4.32-4.177-1.146a14.14 14.14 0 0 0-2.92 7.88c-.265 3.99.588 7.764 4.581 2.714m-5.033-12.354a13.13 13.13 0 0 0-.519-8.71c-.663-1.773-2.08-3.718-3.082-.88-1.234 3.503-.949 8.452 1.286 11.512.893 1.228 2.144-1.398 2.315-1.922m-16.998-21.033c2.386.04 3.928.96 4.48 4.02.151.841.944.904 1.04-.129.214-2.375.97-4.103 3.87-4.302.908-.061 1.557-1.004-.192-1.006-3.741-.006-3.84-3.684-4.192-6.044-.08-.52-.815-.794-.835.202-.059 2.864-.695 6.335-4.052 6.335-.929 0-1.059.908-.119.924m4.72-3.881c.409 1.675 1.271 2.309 2.78 2.942a4.2 4.2 0 0 0-2.594 3.19 4.75 4.75 0 0 0-2.91-2.72 5.56 5.56 0 0 0 2.703-3.409zM27.496 95.76a26.5 26.5 0 0 0-.462-9.588c-.769-3.26-2.258.365-2.594 1.422a13.93 13.93 0 0 0-.457 8.062c1.187 4.276 2.888 4.749 3.512.104m2.45.334c-.096 4.094-.155 6.594 2 10.169 2.87 4.757 4.288 3.788 4.15-.897a19.24 19.24 0 0 0-3.04-9.895c-1.775-2.744-3.025-3.066-3.11.623m97.266-40.911c1.208 2.419 3.63 3.87 6.118 4.67 2.072.666 4.995 1.773 2.56-1.728-3.236-4.643-11.124-7.841-8.678-2.942m3.145 62.438c-2.32-1.064-6.227-.993-8.795-.711-8.094.888-4.302 3.189-.519 4.918a14.43 14.43 0 0 0 8.784 1.12c5.147-1.02 5.1-3.231.53-5.327m-4.987-16.053c.031 8.353 4.288 7.813 5.215-.696a16.1 16.1 0 0 0-.623-6.522c-1.101-3.53-2.573-.92-3.346.872a15.8 15.8 0 0 0-1.246 6.346m8.65-38.192c-1.68-.911-3.724-1.323-2.853 1.4a9.66 9.66 0 0 0 5.188 5.594c3.393 1.644 4.456 1.143 2.465-2.32a12.3 12.3 0 0 0-4.8-4.674m-2.028 24.022c-.25 2.4.056 6.91 1.172 9.04.955 1.822 2.905 3.233 3.476.332.572-2.9 0-6.745-.913-9.556-1.39-4.278-3.286-4.148-3.735.184m8.191-4.524a16.54 16.54 0 0 0-4.006-8.493c-4.611-5.116-3.51 7.146 2.216 10.438 2.241 1.289 2.051-.313 1.79-1.945m12.085-8.052a18.53 18.53 0 0 0-7.69 9.536c-1.077 3.336-.167 3.396 2.8 2.075 3.68-1.64 7.486-5.421 8.348-9.448.945-4.425-.589-4.025-3.458-2.163m-8.92 30.17c-3.372.23-7.12 1.802-9.805 3.388-5.76 3.398-1.671 4.476 2.656 4.187a17.33 17.33 0 0 0 8.898-3.17c3.939-2.805 3.367-4.757-1.749-4.405m6.108-14.865a23.1 23.1 0 0 0-7.726 5.448c-4.374 4.696-2.858 5.751 3.082 4.104 3.533-.98 7.527-3.63 8.909-7.129 1.972-4.994-1.096-3.799-4.265-2.423M19.48 97.064a20.36 20.36 0 0 0-8.92-6.382C7.764 89.67 5.544 89.12 7.44 93.28a13.49 13.49 0 0 0 8.981 7.486c5.121 1.277 6.379.428 3.059-3.702m7.383 16.282c5.09-.336 5.648-1.317 1.188-4.058A22.45 22.45 0 0 0 17.12 106c-2.693-.098-5.12.208-2.35 3.45s8.098 4.158 12.093 3.896M8.257 53.45c.08.493.88 1.04.976 0 .18-2.044.632-3.993 3.486-4.25.747-.066 1.246-.664.094-.762-2.677-.226-3.024-2.548-3.52-5.385-.11-.623-.884-.327-.914.145-.154 2.47-.695 4.748-3.42 4.986-1.431.125-1.126.81 0 .955 2.72.347 2.974 2.376 3.298 4.311m.543-7.658a3.84 3.84 0 0 0 2.32 3.02 4.36 4.36 0 0 0-2.444 2.35A3.14 3.14 0 0 0 6.73 48.61a4.5 4.5 0 0 0 2.07-2.818"/><path fill="#71b6f6" d="M143.182 73.737c-.869-7.832-3.829-16.172-8.649-22.466.14-.934-1.784-4.115-2.744-5.08-1.711-1.714-4.966-3.865-6.507-3.382-1.541.482 1.071 4.978 3.217 6.859a10.4 10.4 0 0 0 5.188 2.169 48.8 48.8 0 0 1 7.986 19.555 42.2 42.2 0 0 1-1.672 20.826c-4.043 11.563-14.028 21.781-26.913 25.06-8.901 2.265-18.265.947-27.244 3.238-.736.187-.337 1.293.39 1.11 13.789-3.472 27.687 1.57 42.726-11.378a41.33 41.33 0 0 0 14.222-36.511M12.865 87.274c3.78 1.787 4.16.444 2.527-3.113-1.428-3.115-3.943-7.105-6.969-8.873C4.71 73.12 4.456 74.448 5.342 78a13.96 13.96 0 0 0 7.523 9.274m28.214 29.838c-4.3-1.562-9.309-1.04-13.666.259-4.48 1.336-4.5 2.706-.24 4.768 4.05 1.964 10.552 1.624 14.672-.103 4.555-1.911 4.565-2.986-.766-4.924m16.032 8.265c-3.507.011-3.321-.664-3.76-3.554-.145-.954-.78-.924-.892 0-.201 1.654-.602 3.474-2.713 3.471-.945 0-1.227.588-.26.83 2.139.535 2.461 1.946 2.776 4.218.072.519.778.72.887.135.327-1.743.441-4.384 3.891-4.327.866.015.922-.776.071-.773m-4.337 3.035c-.099-.519-.405-2.107-1.76-2.56.762-.047 1.633-1.355 1.794-1.883a2.08 2.08 0 0 0 1.755 1.914 3.41 3.41 0 0 0-1.79 2.529"/><path fill="#71b6f6" d="M72.884 119.44c-9.34-1.37-19.087-.653-28.142-3.746-24.288-8.296-34.582-37.552-19.156-61.087 4.612-1.765 8.583-9.936 7.3-11.435-1.282-1.5-4.943 2.592-6.19 4.514a13.06 13.06 0 0 0-2.075 6.366C15.776 66.583 14 85.412 23.36 100.177a40.7 40.7 0 0 0 17.054 15.046c8.618 4.052 18.232 3.985 27.524 4.815 8.997.8 18.86 2.831 24.905 10.128.48.582.993-.116.518-.69-5.117-6.196-12.161-8.815-20.477-10.036"/><path fill="#71b6f6" d="M77.455 122.679a13.85 13.85 0 0 0-5.656 2.506c-1.331.984-3.48 3.115-3.92 4.727-.107.39.27.75.52.347a13.7 13.7 0 0 1 4.026-4.15 13.2 13.2 0 0 1 5.265-2.32.568.568 0 0 0-.235-1.11"/></svg>