<svg xmlns="http://www.w3.org/2000/svg" fill="none" viewBox="0 0 164 164"><path fill="#71b6f6" fill-rule="evenodd" d="M138.657 18.884c-6.815 8.163-7.717 9.485-9.454 10.858a2.042 2.042 0 0 1-1.508 3.796 205 205 0 0 1-2.279-1.108c-3.315 2.179-6.601 3.903-10.153 5.478 1.371.123 2.356.025 4.334-.05a2.047 2.047 0 0 1 1.924 2.157 2.046 2.046 0 0 1-2.158 1.923c-2.729-.445-2.423-.694-7.991-1.038-1.088-.067-2.178-.06-3.266-.097-18.428 6.935-20.699 6.795-26.725 10.739-13.055 8.544-22.994 23.36-27.347 37.196-1.282 4.074-1.554 10.07-2.203 14.52-.47 3.225 1.554 11.812 1.554 11.812l6.27-1.78s-.743-3.859-1.156-7.124c-1.436-.274-1.771-.584-2.79-.951a2.082 2.082 0 0 1 .934-4.057c.561.074 1.124.128 1.679.223.215-2.99.355-5.87.951-8.66-.763-.348-1.487-.773-2.266-1.107a2.082 2.082 0 1 1 1.28-3.962c.786.187 1.566.372 2.327.614a56 56 0 0 1 3.257-7.276 16 16 0 0 0-.68-.43 2.08 2.08 0 1 1 1.784-3.76c.37.136.742.266 1.11.404 1.501-2.36 3.267-4.763 5.101-6.875-1.213-.741-2.075-1.459-3.096-2.066a2.083 2.083 0 0 1 1.874-3.719c1.898.748 2.75 1.083 4.443 2.399a56.3 56.3 0 0 1 8.749-6.862c-1.178-.948-1.345-1.403-1.957-2.206a2.08 2.08 0 0 1-.016-2.943 2.08 2.08 0 0 1 2.941-.02c1.474 1.196 1.62 1.056 3.032 2.831 10.977-5.904 8.546-5.047 27.006-11.876 7.042-2.606 12.638-4.528 19.401-9.372a19.5 19.5 0 0 0 3.685-3.423c2.069-2.491 5.385-7.706 5.385-7.706l-3.972-6.482z" clip-rule="evenodd"/><path fill="#71b6f6" fill-rule="evenodd" d="m99.118 53.34-6.643 2.484c1.246 4.498 2.097 7.605 2.71 10.043 2.6 3.424 4.18 4.449 5.339 5.497a2.042 2.042 0 1 1-3.098 2.664c-.347-.52-.607-.919-.813-1.235.269 1.797.487 3.754.8 6.521.157 1.39.208 2.788.158 4.18a42 42 0 0 1 1.712 1.195 2.042 2.042 0 0 1-2.247 3.372 28.6 28.6 0 0 1-1.823 5.823c.41.193.858.406 1.375.664a2.043 2.043 0 0 1-2.098 3.508 93 93 0 0 1-1.05-.764A26.5 26.5 0 0 1 89 102.77c.364.135.771.289 1.24.471a2.045 2.045 0 0 1 .94 2.734 2.05 2.05 0 0 1-2.735.938c-1.153-.661-1.986-1.153-2.684-1.558-2.296 1.541-4.746 2.65-7.407 3.399l.562.094a2.044 2.044 0 0 1-1.158 3.919c-2.716-1.172-1.677-1.03-5.39-2.163-12.63 4.302-11.945 2.659-24.413 7.541-9.258 3.625-15.772 8.411-19.764 12.963-2.29 2.612-6.82 9.849-6.82 9.849l4.931 4.832c.987-1.202 1.985-2.425 2.992-3.639-.742-.404-1.467-.838-2.212-1.24a2.083 2.083 0 0 1-1.023-2.762 2.084 2.084 0 0 1 2.762-1.02c1.412.498 1.96.569 3.557 1.387 1.598-1.825 3.208-3.55 4.813-5.056-.771-.423-1.254-.857-1.95-1.345a2.083 2.083 0 0 1 1.986-3.662c1.491.663 2.235.837 3.721 1.813 1.843-1.436 3.588-2.608 5.323-3.596-.154-.121-.297-.258-.466-.374a2.085 2.085 0 0 1-1.219-2.679 2.08 2.08 0 0 1 2.679-1.219c.38.043.744.032 1.102.159.953.338 1.358 1.034 2.892 1.723 3.251-1.297 6.735-2.247 10.963-3.343 1.823-.472 3.64-.987 5.478-1.384 3.566-.771 7.173-1.186 10.613-2.11 16.978-4.56 26.775-21.303 24.818-38.774-1.289-11.498.022-6.514-4.01-25.327zm-2.139-9.922c-.073-.758-.406-4.2-.543-4.951-2.035-.275-2.498-.594-4.311-1.249a2.082 2.082 0 0 1 1.096-4.016c.714.104 1.427.128 2.138.297a9 9 0 0 1-.029-.656c-.004-1.32-.456-3.268-.106-4.58.14-.528.865-2.923 1.583-5.273-1.204-.385-1.813-.74-2.887-1.195a2.08 2.08 0 0 1-1.353-2.614 2.083 2.083 0 0 1 2.612-1.353c.996.25 2.004.452 2.996.729.493-1.474 1.343-3.36 1.914-4.197.785-1.151 2.938-4.989 2.938-4.989L99.709 4.1s-4.115 6.33-5.026 8.15c-2.66 5.316-4.988 8.54-5.782 11.769-.543 2.209-.245 4.33-.46 9.42-.226 5.384-.862 3.77 1.828 12.675z" clip-rule="evenodd"/><path fill="#71b6f6" fill-rule="evenodd" d="M65.267 133.485c-.28-1.54-.159-3.083-.524-4.522-.27-1.068-3.141-7.18-3.141-7.18l-6.914 1.904s.477 1.438.973 2.969c.443.323 1.624.989 1.827 1.062.581.21 1.168.226 1.778.33a2.042 2.042 0 1 1-1.515 3.794c-.229-.154-.444-.316-.658-.476.48 1.326 1.193 2.621 1.575 4.061.895 3.374.55 4.417.428 5.452.964.457 1.734.727 2.96 1.27a2.04 2.04 0 0 1 .772 2.785 2.043 2.043 0 0 1-2.767.778c.158.587.284 1.18.327 1.787.154 2.158.043 3.382-.384 4.47l.844.289a2.045 2.045 0 0 1 1.057 2.689 2.045 2.045 0 0 1-2.69 1.056c-.443-.237-.816-.44-1.138-.618a3.54 3.54 0 0 0 1.83 4.146 3.537 3.537 0 0 0 4.736-1.6c.553-1.718.794-3.427 1.106-5.204 1.177-6.688 1.841-9.032 1.578-11.614-.197-1.929-1.469-4.381-2.059-7.629z" clip-rule="evenodd"/><path fill="#191919" fill-rule="evenodd" d="M94.292 20.613c.888.3 1.753.662 2.645.956 2.132.704 4.312 1.263 6.455 1.96 5.22 1.693 5.678 2.086 7.527 2.737 3.282 1.156 6.812 2 12.241 4.081 1.677.643 3.309 1.387 4.97 2.056a.82.82 0 0 0 1.067-.473.82.82 0 0 0-.473-1.067c-1.573-.578-3.179-1.068-4.761-1.638-3.986-1.438-9.555-3.782-12.071-4.666-1.697-.596-3.432-1.074-5.143-1.623-5.56-1.783-5.931-2.087-8.327-2.863-1.199-.387-2.42-.699-3.621-1.064a.845.845 0 0 0-1.056.546.85.85 0 0 0 .546 1.056zM92.45 36.022c.914.265 1.82.583 2.759.821 1.29.328 2.622.53 3.947.817 7.483 1.616 3.858 1.29 12.359 2.185.822.086 6.65.777 7.916.878a.82.82 0 0 0 .87-.776.82.82 0 0 0-.776-.872c-2.976-.115-3.648.031-8.084-.708-1.864-.31-3.703-.805-5.578-1.137-.874-.155-1.76-.214-2.635-.362-3.968-.673-5.867-1.434-8.256-2.026-.695-.172-1.397-.275-2.082-.443a.85.85 0 0 0-1.032.591.847.847 0 0 0 .592 1.032m-10.381 20.97c.398.44.777.897 1.2 1.316 1.007 1 2.134 1.872 3.18 2.842 3.092 2.871 2.272 2.387 3.522 3.614 1.876 1.844 2.45 1.967 5.408 4.984 1.759 1.794 1.548 1.755 2.966 3.487a.82.82 0 0 0 1.163.087.817.817 0 0 0 .087-1.163c-1.005-1.111-1.112-1.047-3.231-3.35-3.572-3.88-3.606-4.037-4.715-5.12-.933-.912-2.57-2.198-4.254-3.844-.809-.79-1.543-1.651-2.355-2.434-.58-.56-1.21-1.065-1.793-1.618a.85.85 0 0 0-1.188.007.84.84 0 0 0 .007 1.19zM68.648 67.155c.881.462 5.075 3.153 5.952 3.748 2.877 1.954 7.122 5.137 8.245 5.867 1.935 1.26 3.994 2.354 5.966 3.594 4.969 3.126 6.222 4.347 8.58 6.484a.82.82 0 0 0 1.163-.076.823.823 0 0 0-.076-1.165c-1.996-1.692-12.807-9.35-14.925-10.697-1.474-.937-2.094-1.02-6.24-4.087-4.63-3.425-4.327-3.452-7.91-5.169a.847.847 0 0 0-1.129.373.846.846 0 0 0 .374 1.128M63.72 79.44c.823.409 1.6.901 2.404 1.347 1.896 1.05 3.822 2.058 5.697 3.154 2.702 1.58 5.95 3.56 7.624 4.415 2.598 1.328 7.806 3.842 11.644 6.117 1.368.811 2.68 1.705 4.024 2.54a.82.82 0 0 0 1.132-.285.82.82 0 0 0-.285-1.132c-1.47-.848-2.994-1.605-4.484-2.435-3.757-2.095-9.162-5.437-11.316-6.604-1.334-.724-2.717-1.344-4.062-2.037-3.42-1.761-5.43-3.264-8.011-4.787-1.482-.874-1.63-.9-3.647-1.811a.847.847 0 0 0-1.12.4.85.85 0 0 0 .401 1.12zm-6.334 10.993c.843.287 5.482 2.257 7.203 3.131 4.122 2.095 6.183 3.456 6.984 3.914 2.48 1.421 4.853 2.335 7.85 3.683 6.64 2.988 5.143 2.426 9.558 4.658a.82.82 0 0 0 1.104-.378.82.82 0 0 0-.38-1.103c-3.222-1.511-2.419-.879-8.755-4.052-2.946-1.475-5.937-3.255-8.503-4.463-5.045-2.376-8.788-4.882-11.737-6.066-.912-.366-1.859-.636-2.807-.923a.85.85 0 0 0-1.058.542.845.845 0 0 0 .54 1.058zm-1.4 13.573c.67.172 1.318.421 1.985.608 1.25.351 2.525.6 3.757 1.009.03.009 2.61.954 2.752 1.012.607.25 1.176.576 1.786.819 1.305.52 5.824 1.923 8.73 2.977 1.042.378 2.053.831 3.109 1.169.433.14.895-.122 1.024-.559a.82.82 0 0 0-.558-1.024c-2.766-.752-3.166-.743-6.365-2.075-1.567-.653-4.418-1.988-4.947-2.182-.85-.31-1.129-.238-5.028-1.65-.432-.157-2.427-.984-3.99-1.382-.617-.157-1.249-.253-1.88-.36a.84.84 0 0 0-1.005.631.846.846 0 0 0 .63 1.007m-9.746 21.129c.352.168.683.369 1.04.522.672.287 1.386.449 2.049.753.166.077.321.175.484.259.327.169.668.306.986.49.323.187.596.441.926.617.92.495 1.927.787 2.886 1.2 3.147 1.356 1.91.887 3.59 1.734a.825.825 0 0 0 .612-1.531c-1.418-.429-1.453-.413-2.437-.913-2.154-1.096-2.447-1.569-3.632-2.146-.389-.189-.81-.274-1.209-.439-1.783-.743-2.769-1.477-3.698-1.836-.326-.127-.667-.196-1.008-.285a.84.84 0 1 0-.59 1.574zm-10.408 5.89c.632.36 1.229.774 1.864 1.125 1.525.843 3.123 1.541 4.66 2.355 4.084 2.164 3.862 2.295 5.352 3.125 2.437 1.358 5.634 2.647 9.562 4.929 1.142.665 2.232 1.41 3.37 2.086a.82.82 0 0 0 1.127-.31.82.82 0 0 0-.31-1.124c-1.167-.632-2.372-1.181-3.537-1.81-3.452-1.864-6.716-4.055-8.783-5.2-1.24-.687-2.535-1.268-3.794-1.921-4.52-2.345-3.635-2.094-6.05-3.401-.872-.471-1.779-.873-2.66-1.331a.847.847 0 0 0-1.14.339.846.846 0 0 0 .34 1.138m-8.234 8.76c1.12.533 2.207 1.125 3.33 1.654 1.57.739 3.184 1.38 4.756 2.118 3.893 1.827 5.512 2.847 7.85 3.965 2.294 1.096 7.43 3.183 11.686 5.191 1.502.708 2.967 1.488 4.477 2.176a.82.82 0 0 0 1.087-.427.82.82 0 0 0-.426-1.086c-1.525-.635-3.075-1.206-4.586-1.873-5.207-2.297-8.777-4.489-12.033-6.036-1.027-.488-2.094-.876-3.13-1.345-5.15-2.327-6.942-3.5-9.788-4.808-.829-.381-1.684-.692-2.52-1.058a.846.846 0 0 0-1.113.413.845.845 0 0 0 .412 1.115z" clip-rule="evenodd"/><path fill="#71b6f6" fill-rule="evenodd" d="M65.4 40.826c-.203-.527-.384-1.061-.63-1.57-.342-.71-.798-1.355-1.175-2.048-.839-1.542-1.26-2.723-1.735-3.566-.713-1.264-1.125-1.552-2.579-4.018-.761-1.29-.535-.916-1.393-2.842a.846.846 0 1 0-1.49.802c.92 1.44.87 1.209 1.665 2.72 1.515 2.879 1.469 3.281 2.21 4.579.464.812.72.777 1.8 2.95.431.868.726 1.793 1.155 2.66.18.362.404.694.602 1.046a.863.863 0 0 0 1.57-.712zm-5.308 3.287c-1.2-1.836-1.263-1.667-2.76-3.064-1.481-1.382-2.165-2.169-2.922-2.76-1.003-.782-1.426-.886-4.037-2.618-1.418-.94-1.07-.751-2.53-1.92a.847.847 0 0 0-.957 1.395c1.319.76 1.344.705 2.433 1.486C51.88 38.47 51.817 38.795 53.37 40c.57.443 1.106.561 2.591 2.017.71.696 1.272 1.507 1.908 2.238.269.31.568.58.836.884a.864.864 0 0 0 1.387-1.027m-3.638 3.476c-.407-.17-.801-.361-1.222-.49-.588-.18-1.202-.233-1.798-.383-1.166-.29-2.318-.786-2.936-.932-1.103-.26-1.465-.128-3.663-.588-1.17-.244-.715-.146-2.347-.728a.847.847 0 0 0-.415 1.64c1.392.213 1.159.095 2.435.445 2.513.689 2.549.948 3.748 1.222.733.167.778-.065 2.633.492.717.215 1.386.567 2.106.775.3.087.61.12.916.183a.863.863 0 0 0 .542-1.637z" clip-rule="evenodd"/></svg>