<svg xmlns="http://www.w3.org/2000/svg" fill="none" viewBox="0 0 160 160"><path fill="#191919" d="M151.004 127.478c-48.744.248-99.52.536-146.532.48-.575 0-.656.902-.068.905 48.702.279 97.788-.16 146.505-.4.652-.001.729-.989.095-.985M124.24 85.723a3.5 3.5 0 0 1-.502 1.658c-.32.452.09.88.539.489a2.3 2.3 0 0 0 .525-2.196.31.31 0 0 0-.298-.165.3.3 0 0 0-.264.214m.125-2.617a4.12 4.12 0 0 0 1.481-2.263c.181-.711-.254-1.177-.666-.285a6.4 6.4 0 0 1-1.191 2c-.403.452-.177.824.376.548m-7.086-6.89c.148 2.682-.62 5.671.145 7.982.11.33.666.272.625-.1a23.3 23.3 0 0 1 0-5.51c.405-6.205-1.36-5.491-1.254-4.952.272.836.435 1.703.484 2.58m6.136 5.637a6.16 6.16 0 0 0 1.131-3.327c-.061-.906-.739-.974-.778-.141a7.3 7.3 0 0 1-.992 3.029c-.276.615.096 1.163.639.439m1.168 2.421c-.303.386-.023.693.416.494a4.07 4.07 0 0 0 1.454-1.715c.32-1.001-.496-1.12-.616-.453-.107.589-.991 1.34-1.254 1.674m-4.051-5.047c.234-.498 1.69-2.4 1.747-2.15a7.1 7.1 0 0 1-1.453 3.93c-.208.271.094.782.634.343.868-.707 1.656-3.254 1.561-4.364a.7.7 0 0 0-.271-.505.7.7 0 0 0-.557-.135c-.831.14-1.877 1.717-2.177 2.64-.096.3.375.54.516.241m-21.818-3.011a.73.73 0 0 0-1.046.155c-.217.348-.065.57.259.407.222-.113.473-.154.72-.118.248.009.266-.322.067-.444m-5.134 4.392c-.135-.308-.678-.08-.624.263.232 1.452 2.177 2.12 2.993 1.942.275-.06.473-.253.266-.49-.323-.368-1.815.146-2.634-1.715m.316-6.035a1.61 1.61 0 0 0-1.236 1.191c-.072.452.267.72.652.131a1.25 1.25 0 0 1 .765-.584c.629-.163.421-.806-.18-.738m1.353 2.367a.87.87 0 0 0-1.1.417c-.16.313-.022.571.34.358a1.36 1.36 0 0 1 .746-.222c.283-.002.317-.398.014-.552m3.739-2.889a1.56 1.56 0 0 0-1.561-.294c-.426.181-.353.675.16.675a2.25 2.25 0 0 1 1.095.109c.41.152.533-.286.306-.49M96.4 79.52c-.4.358.118.647.986.24a.724.724 0 0 0 .516-.747 5.4 5.4 0 0 0-.824-1.811c-.32-.326-.48.105-.339.453q.286.71.453 1.458c.02.046-.695.32-.792.407M48.653 48.777c-.206 2.96.414 10.98-2.408 13.74-2.344 2.292-6.382.3-8.018-1.928-.332-.452-.71.108-.385.552 1.945 2.651 6.347 4.568 9.023 1.946s2.33-10.349 2.386-14.193c.004-.325-.572-.494-.598-.117"/><path fill="#191919" d="M34.09 55.44a4.2 4.2 0 0 0 1.715 1.689 42 42 0 0 0-.226 6.646c.046 1.155.75 1.12.72 0a46 46 0 0 1 .257-6.556c.16-1.408-.277-.175-1.62-2.123-1.052-1.525-.48-3.167.452-3.28 1.132-.134 1.753 1.31 2.264.693a11.34 11.34 0 0 0 1.81-4.786c2.749.64 12.353 1.812 12.913-3.52.678-6.473-11.291-6.596-14.854-2.09-1.893-2.206-6.265.212-2.934 9.054-1.24.753-1.474 2.792-.498 4.273"/><path fill="#191919" d="M48.068 50.493a2.22 2.22 0 0 0-1.44-.575c-.548.037-.689.661-.037.8.36.011.71.128 1.006.335.507.45.934-.144.471-.56M44.24 56.7c-.615-.04-.996.651.122.729.715.05 1.082-.146 1.259-.48.266-.503.172-2.488 0-3.369a.292.292 0 0 0-.584 0c.075 2.63.365 3.197-.797 3.12m-3.316.634c-.235 2.377 2.8 3.381 3.663 2.585a.352.352 0 0 0-.2-.576 2.307 2.307 0 0 1-2.868-1.964.3.3 0 0 0-.595-.045m6.176-2.816c.624-.048.575-1.353 0-1.318-.43.027-.612 1.365 0 1.318m-4.323-1.39c-.581.108-.453 1.286 0 1.263s.583-1.372 0-1.263m.393-2.938c-.359-.4-1.863-.122-2.08.869-.055.25.221.747.697.15.475-.599 1.033-.295 1.222-.359a.405.405 0 0 0 .16-.66m-5.952 33.945c.19-4.358.72-8.695 1.583-12.97.11-.549-.584-.702-.698-.16-.58 2.775-1.946 10.366-1.503 13.128a.314.314 0 0 0 .618.002m25.407 31.523c.232-.732.375-11.215.203-12.432a.328.328 0 0 0-.515-.171.33.33 0 0 0-.119.171c-.212 1.149-.005 6.623-.339 12.432-.023.398.643.397.77 0M23.74 103.524c-.048 2.32 1.308 10.867 1.81 13.967.147.906.118 1.04 1.02 1.304 9.862 2.9 24.166 1.07 34.768.144a.45.45 0 0 0 .355-.667.45.45 0 0 0-.446-.237c-11.14.976-23.854 2.616-34.705-.068-.662-4.32-1.576-8.928-2.142-14.488-.008-.38-.652-.353-.66.045m.783-19.032c-.706.748-1.514 3.859-1.639 4.776a.306.306 0 0 0 .594.118c.733-3.06 1.501-3.915 1.557-4.635.019-.25-.323-.459-.512-.259m46.046 18.81c.539-.034.57-.688 0-.728a88 88 0 0 1-13.02-1.87 34.8 34.8 0 0 1-.453-10.549c.069-.547-.62-.525-.688 0-.447 3.406-.57 7.072.453 10.372-1.331-.371-5.275-1.36-6.339-2.209a52.4 52.4 0 0 1-.48-10 56.4 56.4 0 0 1 17.92 2.568c.327.102.353-.358.063-.535-2-1.22-6.056-1.956-8.433-2.264-.145-.969-.87-3.965-1.331-4.463a.327.327 0 0 0-.46.027c-.32.357.447 1.2.99 4.337a63 63 0 0 0-8.25-.534c-1.045 0-1.285 0-1.39.96a45 45 0 0 0 .363 9.335c.155 1.158.352 1.36 1.494 1.938 3.26 1.651 15.487 3.879 19.56 3.615"/><path fill="#191919" d="M36.343 94.62c-.488 5.849.364 16.896 1.318 22.911.08.525.9.454.829-.08a180 180 0 0 1-1.495-22.808.33.33 0 0 0-.652-.024"/><path fill="#191919" d="M17.909 105.834a16.1 16.1 0 0 0 6.736-4.216c.538-.56.728-.846.181-1.561a10.42 10.42 0 0 1-2.264-8.996c.15-.824 0-1.294-.855-1.064-2.517.677-6.834 2.26-8.602 3.88-.281.258.05.734.372.543a28.7 28.7 0 0 1 8.24-3.52c-.72 4.21.39 6.591 2.621 9.882a15.8 15.8 0 0 1-3.246 2.667c-3.767-3.079-4.743-7.022-4.527-8.864.044-.371-.725-.96-.716.113a11.64 11.64 0 0 0 4.572 9.142q-1.108.616-2.304 1.04c-4.757 1.68-7.234.602-8.212-4.301-1.556-7.796 4.827-19.617 9.815-25.397 4.009-4.647 5.378-4.78 11.617-6.931a12.5 12.5 0 0 0 2.56 4.227c1.066 1.162 1.504-.35 4.621-2.77a23.6 23.6 0 0 1 2.889 3.28c.369.459.8.42 1.36.195a27.9 27.9 0 0 0 8.693-6.293c.611.584 8.24 3.142 12.893 7.736 4.305 4.252 10.152 14.677 10.947 20.867.069.534.707.389.64-.15-.8-6.235-6.34-16.69-11.04-21.28-3.54-3.46-8.42-5.937-13.006-7.698a.54.54 0 0 0-.1-.774 19 19 0 0 0-2.503-1.933c-.814-.515-.843-.536-1.594.118-3.107 2.709-4.753 3.653-9.108 4.84a15.9 15.9 0 0 1-3.717-3.455c-.45-.577-.489-.657-1.172-.303-.951.492-2.867 1.896-2.622 2.603-6.617 2.3-7.814 2.269-12.01 7.207-5.006 5.892-11.468 17.624-10.02 25.75.925 5.182 3.574 7.102 8.86 5.416m30.667-41.68a19 19 0 0 1 2.517 1.901 24.8 24.8 0 0 1-8.982 6.487 19.6 19.6 0 0 0-3.006-3.3 18.74 18.74 0 0 0 9.47-5.086zm-14.32 1.33a12.7 12.7 0 0 0 3.649 3.623 16 16 0 0 0-3.142 2.942 13.6 13.6 0 0 1-2.96-4.645 7.6 7.6 0 0 1 2.449-1.917z"/><path fill="#191919" d="M43.315 95.253c0-.135-.05-.316-.2-.358-.738-.202-.452.64-2.856.576a.33.33 0 0 0-.176.633c1.166.468 3.22-.19 3.232-.851m-1.445-9.131c-.39-.064-.416.521-.08.652 2.43.946 3.41.33 5.687 2.232.276.23.806.032.683-.4-.38-1.348-3.718-2.067-6.29-2.484m1.843 11.671c.48-.348.177-.973-.412-.71a2.88 2.88 0 0 1-2.074.226c-.37-.068-.456.353-.14.625.599.512 2.02.299 2.626-.141m-4.495-4.265c-.32.076-.263.683.08.662 3.811-.24 4.942-4.311 4.151-5.012a.29.29 0 0 0-.385 0c-.713.63.098 3.421-3.846 4.35m3.472 6.232c2.72.698 5.746-1.285 5.68-2.385 0-.272-.339-.544-.601-.35-.263.195-1.155 2.31-4.98 2.102a.326.326 0 0 0-.099.633m-18.489-9.251c1.142-1.478 3.877-4.32 5.967-3.142.475.268.81-.45.33-.72-2.449-1.373-5.893 1.3-6.79 3.287-.348.768.28.851.493.575m7.539 5.482a8.2 8.2 0 0 1-2.572-.715c-.32-.055-1.12.793 1.005 1.28 2.408.555 1.987-.537 1.566-.565m-3.056 1.259c-.865-.421-.854.762.63 1.14.453.117 1.816.099 1.688-.452-.117-.498-.575.159-2.318-.688m.911 2.51c.371-.192.184-.763-.21-.64-1.36.416-2.304.375-4.214-.335a.32.32 0 0 0-.325.525 5.06 5.06 0 0 0 4.749.45m3.472-5.575c-2.49-1.29-3.07-2.06-3.74-3.422-.14-.286-.8-.179-.57.592.462 1.542 2.63 2.825 3.984 3.52a.385.385 0 1 0 .326-.692zm88.439 14.256c-1.355 1.691-2.119 5.001-.145 6.338 2.182 1.478 4.907-.049 6.24-1.974 1.52-2.186 1.73-5.344 0-6.451-1.903-1.22-4.548.157-6.095 2.087m6.138 2.409c-.88 2.263-3.736 4.529-5.717 3.223-1.545-1.018-.8-3.929.257-5.17.939-1.104 2.612-2.374 4.183-2.092 1.884.339 1.798 2.703 1.277 4.039"/><path fill="#191919" d="M101.947 123.055c-.046 0-13.813.215-16.23.312-1.84.075-2.264.213-2.264 1.884a1.66 1.66 0 0 0 1.1 1.811c.312.069.453-.327.245-.553a1.32 1.32 0 0 1-.453-1.173c.055-.96.028-1.062 1.308-1.104 5.193-.171 10.115.01 15.511-.236 1.149-.052 1.471.051 1.634-1.086 1.025-7.162 2.023-16.379 3.246-24.247.574-3.695 3.807-4.538 7.149-4.645 7.274-.235 17.38-.414 24.74-.526 6.284-.096 5.488 2.454 5.144 6.339-.8 9.054-1.692 16.981-2.848 24.772a2.74 2.74 0 0 1-.616 1.36.4.4 0 0 0-.188.255.39.39 0 0 0 .185.419q.072.04.154.05a.38.38 0 0 0 .301-.099 3.64 3.64 0 0 0 1.056-2.173c.977-7.903 2.025-15.577 2.752-23.564.577-6.337.593-8.28-5.292-8.307-6.922-.032-19.467.575-24.872.584-4.568.007-7.76 1.067-8.462 5.767a959 959 0 0 0-3.3 24.16m-39.599-3.178c-10.8 1.417-30.188 2.743-36.534-.344-.1 1.52-.087 5.147-.128 7.162 3.305-.041 34.52-.172 36.67-.258.028-1.028.124-4.949-.008-6.56m37.951-42.374a40 40 0 0 0-.366-4.252c-.06-.28-.577-.325-.544 0 .284 2.8.911 10.16-.679 12.133-.862 1.07-2.861 1.408-6.275.335-.452-.142-.569.32-.153.525a9 9 0 0 0 4.02.906c.128 1.292.412 2.564.846 3.789.122.34.662.196.56-.16q-.345-1.202-.52-2.44c5.111-.453 10.254-4.36 9-4.836s-3.956-2.23-5.889-6"/><path fill="#191919" d="M88.224 89.595v1.543a.321.321 0 0 0 .64.054 40.5 40.5 0 0 0-.118-7.542c-.1-.907.05-1.135-.72-1.267-1.096-.19-1.496-1.36-1.67-2.495-.16-1.054.204-2.16 1.105-2.21.828-.043 1.087.988 1.475-.212.22-1.099.2-2.232-.058-3.323 2.232 0 10.532-.261 15.338-4.75.67-.624-2.508-.502-4.043-2.8-2.996-4.486-11.658-7.188-14.673.603-3.84-1.53-5.948 2.034-4.744 11.939.532 4.377-3.002 8.148-3.04 8.601s4.732 2.27 10.508 1.859"/><path fill="#71b6f6" d="M46.32 79.209q-1.145-.27-2.24-.702c.733-.99 1.503-1.96 2.174-2.993a.337.337 0 1 0-.53-.415 38 38 0 0 0-2.684 3.345.453.453 0 0 0 .103.631c.605.29 1.236.52 1.884.69-1.073.775-2.671 1.672-3.685 2.265-.64.374-.453.953.236.705a43 43 0 0 0 4.84-2.716c.433-.217.462-.678-.098-.81m-13.463 3.418c-.53-1.45-1.166-2.87-1.81-4.274-.17-.368-.56-.589-.829-.026q-.317.689-.77 1.299A24 24 0 0 1 27.706 76a.337.337 0 0 0-.63.24 30.4 30.4 0 0 0 1.911 4.468.454.454 0 0 0 .77.131q.48-.639.829-1.36a36 36 0 0 1 1.593 3.413.37.37 0 0 0 .626.176.37.37 0 0 0 .053-.44M19.2 105.847c-3.95 5.398-3.621 12.72-10.865 18.344-.81.629-.903 1.914.742.625 6.44-5.047 7.129-11.846 10.752-18.56.22-.412-.389-.736-.629-.409m47.399 13.223c-11.976-5.152-12.734-15.558-18.56-19.733-.35-.25-.7.273-.453.57 6.694 8.059 7.456 15.479 18.72 20.119.604.248.869-.708.293-.956m70.131-44.83c-.368 5.272-.353 11.703-4.645 16.086-.448.457.213 1.208.656.746 4.45-4.631 4.912-10.457 4.84-16.778a.426.426 0 0 0-.707-.347.43.43 0 0 0-.144.293m-.916-38.044c-.112-1.313-.115-3.873-.367-4.96-.08-.34-.621-.425-.715-.045a21.8 21.8 0 0 0 .127 5.193c.076.595 1.012.487.955-.188m-19.975 17.023c.671.05 3.477-.495 4.5-.594.521-.05.454-.944-.09-.905-.81.057-3.821.362-4.568.81a.38.38 0 0 0 .158.688m5.109-14.079c1.04.903 1.578 1.315 2.264 1.942.489.447 1.207-.026.788-.539a18.3 18.3 0 0 0-2.844-2.463c-.836-.746-1.31.106-.208 1.06m27.212-4.301c-.833.593-2.16 2.83-2.648 3.685a.49.49 0 0 0 .015.56.488.488 0 0 0 .827-.08c.749-1.267 1.576-2.492 2.345-3.748.145-.239-.289-.598-.539-.417M125.393 51.34c.32 4.373 3.479 8.112 6.894 10.62.452.332.8-.226.412-.588-2.58-2.43-5.266-4.98-6.088-8.602-2.901-12.77 19.721-14.582 19.852-2.85.047 4.287-2.72 7.825-5.256 11.024-.395.498.177.911.597.453 2.619-2.862 5.258-6.338 5.6-10.413 1.161-13.602-22.986-12.864-22.011.355m30.119-3.852c-1.575.183-3.168.392-4.72.675-.452.08-.267.783.145.751a68 68 0 0 0 4.745-.534c.536-.08.333-.95-.17-.892"/><path fill="#71b6f6" d="M140.174 52.463c3.7-3.254-.667-6.393-2.236-2.636a17 17 0 0 0-.906 2.862 10.4 10.4 0 0 1-2.594.131c-.335-1.245-.792-3.28-2.08-3.84-2.635-1.145-4.016 3.867 1.299 4.735a74 74 0 0 1 1.399 7.638.331.331 0 0 0 .657 0 32.4 32.4 0 0 0-1.019-7.52c.715.029 1.432-.005 2.141-.1a19.8 19.8 0 0 0 .407 7.47c.136.62.82.452.707-.145a20.5 20.5 0 0 1-.032-7.52 4.8 4.8 0 0 0 2.257-1.075m.027-3.233c1.262.83-.711 2.88-2.047 3.2.739-2.965 1.58-3.508 2.047-3.2m-9.055 1.983c-.52-1.014.38-1.915 1.209-1.06a6.2 6.2 0 0 1 1.015 2.5 3.4 3.4 0 0 1-2.232-1.44zm23.366 9.058a24 24 0 0 0-4.264-1.928c-.381-.104-.62.48-.304.697 1.275.862 2.805 1.3 4.134 2.08.841.498 1.471-.142.434-.849m-29.422 1.612c-.589.111-2.586 2.49-2.88 3.04-.591 1.12.246 1.237.431.906.838-1.505 2.325-2.532 2.761-3.17.205-.297.159-.864-.312-.776m7.443.992c-.227 6.093 1.081 9.833 4.404 9.84 4.233.006 4.691-5.075 4.405-10.15a48.5 48.5 0 0 1-8.809.31m6.768 5.55a8.6 8.6 0 0 1-3.84 1.4c-.508.008-.605-.555-.123-.675a10.6 10.6 0 0 0 3.482-1.535.474.474 0 0 1 .654.524.48.48 0 0 1-.173.286m.136-3.02c-.99.79-4.342 1.63-4.827 1.6-.357 0-.576-.386-.221-.62.628-.414 2.64-.762 4.527-1.76.637-.335 1.13.294.524.78zM35.12 85.425c-3.36.16-4.682 1.58-4.487 4.16s1.693 3.17 4.495 3.238a7.55 7.55 0 0 1-.009-7.398"/><path fill="#71b6f6" d="M41.065 89.295c.05-2.91-2.72-3.748-4.83-3.87a6.88 6.88 0 0 0 0 7.388c2.263-.095 4.155-.58 4.667-2.449.507.217.736.72 1.127.375.6-.532-.548-1.226-.964-1.444m54.358 9.308c-1.114-1.588-5.406-4.63-8.968-7.134-3.002.905-8.575 3.531-11.581 6.596s-7.952 17.366-6.682 24.446c.88 4.908 4.668 4.265 14.487 4.175-.218-.684-.43-3.129.81-3.858s13.382-.64 17.656-.601c.177-.965.521-3.622.906-6.832-7.434-.453-16.86.739-24.24 1.336-.453.036-.484-.385-.06-.453a38 38 0 0 1 3.034-.512c.123-1.811.755-7.76 1.43-9.507.143-.366.54-.232.476.127a80 80 0 0 0-1.032 9.289 159 159 0 0 1 20.499-1.086c2.284-18.315 1.962-20.017 6.134-21.536-1.2-.606-6.949-2.354-9.737-2.354-.216 1.041-1.847 6.188-3.132 7.904m19.757-6.363c2.426-.085 6.858-.199 8.424-.285.109-.63.295-1.6.657-3.074-.905-.64-5.768-3.133-7.2-3.76-.111.485-1.424 5.32-1.881 7.12"/></svg>