<svg xmlns="http://www.w3.org/2000/svg" fill="none" viewBox="0 0 164 164"><path fill="#191919" d="M65.146 60.668q-.797.42-1.514.832c.951 4.87 1.668 8.641 4.673 20.47l.892 3.525c.092-1.387.336-2.68.71-3.879-2.245-8.953-3.378-13.576-4.506-19.61q-.127-.683-.255-1.338m49.775-9.122a48 48 0 0 0-1.736-.246c.146.652.281 1.261.4 1.802.915 4.17.935 4.807 2.568 10.933q.882.019 1.731.126c-1.77-6.604-1.754-7.12-2.698-11.411l-.265-1.206zm9.285 41.895c3.712 14.083 6.873 27.967 5.284 30.791-.873 1.554-2.063 2.661-3.636 3.383-12.363 5.674-18.408 7.924-37.68 10.877-4.06.622-4.355-.1-10.57-25.746a3294 3294 0 0 0-3.55-14.503 15.5 15.5 0 0 1-2.376-2.818c10.597 42.806 10.058 45.714 16.743 44.688 19.481-2.984 25.599-5.262 38.116-11.007 1.899-.872 3.332-2.203 4.381-4.069 1.842-3.278-.782-15.606-5.279-32.572q-.692.528-1.435.977z"/><path fill="#191919" d="M138.814 131.331c-.094-.438-.269-1.253-.975-1.348-.871-.117-1.195.691-1.301.957-.019.049-.037.099-.06.139-3.366 5.82-6.133 7.437-11.643 9.739-8.151 3.405-26.632 7.843-35.955 8.634-11.483.975-11.38-.752-15.687-14.453-1.66-5.284-11.132-38.41-16.72-68.084-.544.547-.987 1.027-1.375 1.422 4.623 24.195 12.035 52.772 17.206 69.306 3.658 11.697 4.519 14.477 16.715 13.444 9.447-.801 28.182-5.302 36.449-8.755 5.439-2.273 8.505-4.019 11.881-9.508.183 2.573-.232 7.664-4.671 10.427-11.957 7.44-40.801 14.136-52.014 14.012-4.398-.035-5.796-1.333-7.267-4.23-4.16-8.191-16.8-58.344-21.506-83.692q-.872-.248-1.735-.525c4.92 27.184 17.846 77.217 21.779 84.959 1.8 3.547 3.822 5.129 8.94 5.129 11.314 0 40.346-6.592 52.669-14.261 5.881-3.659 5.799-10.849 5.271-13.311z"/><path fill="#191919" d="M120.435 124.589c-1.325-5.433-1.294-5.568-2.518-5.288 0 0-19.472 4.422-20.44 4.607-4.904.935-3.173.669-1.925 7.368.068.362.317.557.7.557.518 0 1.44-.438 16.701-4.005 7.687-1.796 7.833-1.801 7.482-3.239m-17.187-.318 14.562-3.395c.314 0 .345.67 1.083 3.761-.896.432-21.924 5.499-22.006 5.449-.195-.112-.3-1.042-1.118-3.672-.26-.832.486-.286 7.48-2.144zm19.839-58.507q1.053.537 2.002 1.214a4813 4813 0 0 0-3.63-13.944c-.445-.097-1-.25-1.676-.428.587 2.346 2.466 9.93 3.304 13.157z"/><path fill="#191919" d="M137.789 122.779c-.03-4.086-3.896-20.671-7.627-35.759a15.5 15.5 0 0 1-1.183 1.982c3.577 14.51 7.142 29.911 7.17 33.789.085 11.656-17.736 16.042-29.525 18.957-6.401 1.583-15.707 3.71-22.345 3.384-3.05-.148-4.005-1.103-4.888-3.057-5.193-11.501-16.438-62.28-19.387-77.76l-.077-.4c-.533.395-1.013.778-1.45 1.147C61.558 81.087 72.7 131.24 77.896 142.75c1.586 3.51 3.805 4.055 7.837 4.055 6.628 0 14.85-1.881 21.282-3.465 12.293-3.027 30.87-7.61 30.773-20.561z"/><path fill="#71b6f6" d="M70.15 6.43c-5.835 7.783-39.762 48.365-44.021 53.87-.512.662-.488.709.366.866 3.131.577 6.217 1.36 9.331 2.018.932.196 1.669.159 2.713 10.497.54 5.334-.606 11.228-.54 13.836.016.663-.15.894-.708 1.182-2.424 1.252-2.736 3.985-1.138 5.623 1.636 1.677-.934 2.21-1.33 10.834-.062 1.338-.181 13.104 1.443 13.177.282.012.296-.255.374-.444 1.123-2.718-1.95-8.778 1.215-21.188.324-1.274.29-1.25 1.5-1.495.443-.09.557.06.7.412 1.151 2.835 2.037 7.38 1.764 11.738-.44 7.035-1.039 6.64-.406 7.068 1.575 1.069 3.263-11.421-.44-19.43-.18-.388-.194-.65.096-1.008 1.546-1.909.889-4.47-1.392-5.421-1.719-.716 2.775-7.116-1.011-23.974-.236-1.048-.37-.86 5.071.417 5.795 1.361 5.701 1.422 5.91 1.198.237-.253-1.844-4.405-3.655-10.89-1.4-5.01-.84-5.196 1.158-8.186 8.195-12.264 34.234-23.407 56.281-20.382 5.213.715 14.422 2.856 15.903 7.905.955 3.256 2.198 6.427 2.918 9.757.514 2.386-1.075 3 13.576-15.177C70.424 5.663 70.978 5.326 70.15 6.43M40.338 91.737c-.02 2.469-3.594 2.916-3.564.168.028-2.558 3.587-2.726 3.564-.168"/><path fill="#71b6f6" d="M115.854 33.15c-4.232-2.898-11.595-4.64-19.707-4.66-27.797.04-49.04 17.543-48.457 22.716.402 3.565 3.879 12.264 5.022 15.123.417 1.046.38-.444 4.972-3.936 15.6-11.863 47.372-17.596 63.049-12.08.227.08.358.03.378.013-.339-3.116-4.13-16.012-5.257-17.177m-41.907 5.656c-3.389 1.623-13.941 7.727-18.003 10.804-3.885 2.941-4.169 3.734-4.868 3.417-.325-.148-.416-.427-.421-.884.538-5.69 23.04-15.314 23.662-13.748.114.287-.205.332-.37.41m-2.971 47.91c-.015-7.93 6.322-14.176 14.314-14.047 7.678.123 13.796 6.209 13.84 13.961.045 8.067-6.343 14.294-14.264 14.182-7.717-.108-13.876-6.3-13.89-14.096m26.526.038c-.036-6.963-5.602-12.485-12.547-12.45-6.96.037-12.477 5.65-12.444 12.658.03 6.793 5.7 12.357 12.556 12.322 6.883-.034 12.47-5.664 12.435-12.53m4.378-6.9c.011-7.729 6.256-13.383 12.54-13.939 9.559-.845 15.665 6.995 15.595 13.99-.08 7.976-6.535 14.136-14.185 14.088-7.889-.05-13.962-6.586-13.95-14.14m1.519.155c.019 6.715 5.48 12.384 12.199 12.44 7.203.06 12.767-5.457 12.774-12.553.008-6.812-5.541-12.667-13.081-12.415-6.444.218-11.911 5.84-11.892 12.53z"/><path fill="#191919" d="M82.7 64.782c-3.031-.449-6.762 1.076-8.193 3.45-.623 1.036-1.812.409-1.329-.7 1.979-4.528 10.956-5.245 10.08-3.118-.114.277-.366.345-.558.368m18.836 35.497c-2.798-.093-3.798-2.473-3.602-3.29.124-.516.736-1.02 1.508.47.75 1.448 3.451 1.687 4.345.092.577-1.029 1.89-.513 1.361.784-.441 1.083-1.982 1.998-3.611 1.944zm6.002-42.833c1.475-.026 4.652.45 4.072 1.8-.637 1.484-3.016-1.662-7.531.634-1.637.833-1.834-2.339 3.459-2.435M83.851 85.357c-.064-2.515 1.992-2.419 2.758-1.116.936 1.59 1.636 5.139-.079 5.501-1.875.396-2.64-2.874-2.679-4.385m29.086-6.157c-.145-2.635 1.814-2.487 2.493-1.536 1.308 1.832 1.894 5.596.136 5.772-.534.053-1.03.081-1.426-.485-.814-1.164-1.131-2.458-1.203-3.75"/></svg>