<svg xmlns="http://www.w3.org/2000/svg" fill="none" viewBox="0 0 164 164"><path fill="#191919" d="M95.213 98.539a.42.42 0 0 0-.143-.297 1.067 1.067 0 0 0-1.451-.968c-.656-.82-2.028.415-1.558.913-.01.01-.01.022-.022.033-.328.835.56 1.717 1.33 1.858a1.53 1.53 0 0 0 1.712-.867c.094-.21.14-.441.132-.672m-23.947 8.334a.83.83 0 0 0-.88-.385.48.48 0 0 0-.341.341c-.267.79.53 1.64 1.078 1.286.366-.166.333-.941.143-1.242m4.706-1.605a.82.82 0 0 0-.88-.385.49.49 0 0 0-.34.341c-.268.79.528 1.635 1.077 1.286.364-.165.335-.933.143-1.242m.341 4.815a21 21 0 0 0-2.046-3.419 2.5 2.5 0 0 0-.824-.88.2.2 0 0 0-.115-.024.2.2 0 0 0-.109.043.21.21 0 0 0-.073.212c.052.341.155.389 1.012 1.771a27.5 27.5 0 0 1 1.77 3.397v.033c-.528-.011-1.957-.01-2.111.022-.374.082-.297.574 0 .681.451.119.92.16 1.385.122.412.051.83.021 1.23-.088.79-.351.112-1.386-.12-1.87m-2.342 3.728a1.63 1.63 0 0 0 1.408 1.55 1.66 1.66 0 0 0 1.64-1.44c.068-.285.145-.744-.22-.868-.339-.117-.514.22-.594.483-.117.386-.23.967-.747.967-.55 0-.722-.574-1.078-.868a.24.24 0 0 0-.124-.058.24.24 0 0 0-.136.017.25.25 0 0 0-.148.217M62.59 121.77c-.885.134-1.752.37-2.583.704-5.971 2.091-12.192 4.52-17.515 8.323a24 24 0 0 0-2.32 1.836 4.76 4.76 0 0 0-1.584 2.364c-.065.296.328.606.561.328a24 24 0 0 1 1.616-1.88 37.5 37.5 0 0 1 6.542-4.51 86.6 86.6 0 0 1 12.612-5.442c.973-.292 1.91-.695 2.792-1.199.254-.138.187-.556-.12-.524m15.525.628c7.653 3.643 14.97 3.936 21.156 11.512 1.949 2.386 2.359 3.811 3.309 4.991.255.318.681-.032.616-.362a8.1 8.1 0 0 0-1.155-2.507 25 25 0 0 0-5.398-6.212c-3.699-3.04-6.616-3.906-10.654-5.388-5.973-2.191-6.162-2.219-7.63-2.562-.332-.077-.551.382-.245.528m37.846-20.759c-.199.328-.387 1.001-.055 1.319a.6.6 0 0 0 .44.154.6.6 0 0 0 .417-.209c.169-.217.265-.483.275-.758.095-.906-.737-1.065-1.077-.506m5.101.396a.59.59 0 0 0-.666.058.6.6 0 0 0-.147.184c-.198.328-.387 1.001-.055 1.319a.6.6 0 0 0 .205.121.6.6 0 0 0 .465-.03.6.6 0 0 0 .187-.146c.17-.217.266-.483.275-.758a.73.73 0 0 0-.264-.748m-4.277 4.237c.521-.35.957-.812 1.276-1.352a6.1 6.1 0 0 0 .792-2.496c.02-.253-.341-.318-.462-.121-.574.932-.837 2.199-1.858 3.046-.222.184-.606.307-.77.561-.354.547.451 1.121.825 1.418.484.385 1.176.923 1.825.769a.315.315 0 0 0 .187-.461c-.331-.544-1.104-.626-1.815-1.364m3.181 2.558a4.7 4.7 0 0 1-3.255.264 3.1 3.1 0 0 0-1-.231.23.23 0 0 0-.192.116.23.23 0 0 0-.006.225c.385.682 1.558.848 2.265.901a5 5 0 0 0 1.759-.197c-.878 2.633-2.686 2.87-2.969 2.045-.199-.582-.123-1.209-.307-1.793a.344.344 0 0 0-.656 0 3.5 3.5 0 0 0 .231 2.378 1.644 1.644 0 0 0 1.946.649c1.468-.321 2.519-2.378 2.804-3.859a.423.423 0 0 0-.62-.498m4.879 14.252a1.52 1.52 0 0 0-1.035.099 7.74 7.74 0 0 1-5.706-.616c-.713-.364-1.32-.896-2.011-1.286a.252.252 0 0 0-.374.164c-.373-.107-.401.01-2.155.154-3.218.265-10.168-.622-14.426 3.639a6.2 6.2 0 0 0-2.001 3.629.41.41 0 0 0 .758.209 11.8 11.8 0 0 1 1.848-2.947c3.965-4.176 10.461-3.181 13.897-3.585.671-.082 1.738-.12 2.214-.67.011-.011.011-.011.011-.022 1.193 1.896 4.41 2.827 6.828 2.551.671-.077 2.028-.157 2.342-.891a.3.3 0 0 0 .03-.128.31.31 0 0 0-.22-.3"/><path fill="#191919" d="M104.273 93.7c-.429-.582-1.783-1.177-2.232-.285a.2.2 0 0 0-.028.088.196.196 0 0 0 .15.209c.264.042.527-.032.78.021a1 1 0 0 1 .693.583c.746 1.537-.591 3.587-1.804 3.167-.262-.09-.417-.328-.648-.461-.34-.194-.738.175-.462.78a.44.44 0 0 0-.176.143 9.4 9.4 0 0 1-2.748 3.013c-2.877 1.759-5.986.476-6.532-2.145-.41-1.986-.012-5.381.34-7.355.157-.868.404-1.76.474-2.639a.26.26 0 0 0-.484-.132c-1.066 2.144-1.692 8.322-1.11 10.6a4.764 4.764 0 0 0 5.871 3.279c-.03.337.052.583-.022 1.847-.092 1.564-.328 1.761-.066 2.144a.3.3 0 0 0 .184.136.3.3 0 0 0 .226-.036c.349-.236.361-.595.418-1.002.112-.787.134-1.585.066-2.378a3.7 3.7 0 0 0-.143-.912c.23-.088.465-.171.693-.275a7.05 7.05 0 0 0 3.507-3.815c2.438 1.162 4.524-2.574 3.053-4.574"/><path fill="#191919" d="M102.91 98.88a7.58 7.58 0 0 0 .396 6.41c.22.362.888.122.715-.308-1.007-2.507-.966-3.354-.671-5.982a.236.236 0 0 0-.44-.12m9.368-14.283a4.14 4.14 0 0 0 .363-3.354 2.28 2.28 0 0 0-2.046-1.418c.287-1.353.198-2.968-.769-3.97a2.08 2.08 0 0 0-2.353-.428 2.95 2.95 0 0 0-1.88-2.265 2.405 2.405 0 0 0-2.595.78 5.83 5.83 0 0 0-3.1-1.297 1.72 1.72 0 0 0-1.87.857 3.22 3.22 0 0 0-3.354-.087 2.75 2.75 0 0 0-1.21 2.845 3.39 3.39 0 0 0-2.88 1.352 2.94 2.94 0 0 0-.12 3.116 2.24 2.24 0 0 0-1.628 2.11 2.03 2.03 0 0 0 2.562 1.826.457.457 0 0 0-.246-.879A1.12 1.12 0 0 1 89.8 82.73a1.465 1.465 0 0 1 1.529-1.187.48.48 0 0 0 .341-.814 2.01 2.01 0 0 1-.275-2.639 2.54 2.54 0 0 1 2.706-.792c.363.101.774-.343.528-.692a1.72 1.72 0 0 1 .605-2.452 2.455 2.455 0 0 1 2.903.627c.34.373 1.003-.105.715-.55-.227-.348.22-.613.527-.656a4.82 4.82 0 0 1 3.444 1.429.46.46 0 0 0 .758-.198 1.41 1.41 0 0 1 1.339-.846c.187.007.372.052.542.131a2.48 2.48 0 0 1 1.221 2.378.45.45 0 0 0 .394.436.45.45 0 0 0 .496-.314.84.84 0 0 1 .902-.43 1.37 1.37 0 0 1 1.001.836 4.43 4.43 0 0 1 .022 3.32c-.151.431.342.674.682.529.837-.358 1.593.461 1.715 1.22a4.75 4.75 0 0 1-.715 2.716.471.471 0 0 0 .528.682c.462-.088.793.395.836.791a2.77 2.77 0 0 1-.418 1.506 2.64 2.64 0 0 1-1.881 1.62c-.341.044-.41.527-.198.738s.094 1.012.088 1.297c.005.49-.107.972-.328 1.408a1.53 1.53 0 0 1-1.836.82.438.438 0 0 0-.595.594 1.603 1.603 0 0 1-1.495 2.254.434.434 0 0 0-.348.668c.056.086.14.15.239.18a.835.835 0 0 1 .394 1.002.85.85 0 0 1-.207.327c-.538.518-1.49.192-1.98-.22-.233-.196-.647.055-.462.34a2.05 2.05 0 0 0 1.479.928 2.04 2.04 0 0 0 1.655-.553 1.71 1.71 0 0 0 .154-2.001 2.46 2.46 0 0 0 1.55-2.573 2.48 2.48 0 0 0 2.145-1.21 4.15 4.15 0 0 0 .516-1.979 5 5 0 0 0-.033-1.319 4.46 4.46 0 0 0 2.276-2.716c.529-1.411-.093-2.473-.98-2.768m-18.616 6.519a.434.434 0 0 0-.704-.055 1.04 1.04 0 0 0-.253 1.066.41.41 0 0 0 .605.246.98.98 0 0 0 .352-1.257"/><path fill="#191919" d="M96.686 91.512a.434.434 0 0 0-.703-.055 1.03 1.03 0 0 0-.253 1.066.41.41 0 0 0 .604.246.984.984 0 0 0 .352-1.257m-2.33.308a6.6 6.6 0 0 0-1.022 1.66 8.6 8.6 0 0 0-.715 1.902c-.272 1.441 1.584 1.179 2.408.836.341-.142.143-.649-.176-.649-.52 0-1.127.195-1.32.099-.11.077-.13.033-.077-.11.034-.088.056-.198.088-.286.753-2.076.953-2.305 1.199-3.221.059-.218-.23-.404-.385-.23"/><path fill="#71b6f6" d="M103.184 87.203c-1.116-2.975-4.182-4.162-7.224-3.65a6.95 6.95 0 0 0-4.178 2.077c-.077-.022-.068.087 0 0l-.01.033c-.034-.01-.045 0-.067.034-.231.417-.496 1.002-.143 1.429.383.463 1.1.278 1.594.154 1.513-.381 2.995-1.312 5.113-.715 2.098.594 3.198 2.341 3.749 4.442.156.594.18 1.4.815 1.616a.46.46 0 0 0 .37-.042.47.47 0 0 0 .223-.299 11.5 11.5 0 0 0-.242-5.08"/><path fill="#191919" d="M95.224 106.939c.292.8 1.331 1.217 2.09 1.44.925.243 1.878.365 2.836.363a8 8 0 0 0 3.133-.41c.726-.285 1.785-.846 1.891-1.704a.34.34 0 0 0-.304-.413.34.34 0 0 0-.188.039c-.782.464-1.066 1.687-4.628 1.551-3.432-.132-3.74-.942-4.574-1.148a.21.21 0 0 0-.216.061.21.21 0 0 0-.04.221m-.35.055a43 43 0 0 0-8.323 1.814 15.5 15.5 0 0 0-5.166 2.682 2.7 2.7 0 0 0-.54.65c-.156.265-.23.572-.207.879a.31.31 0 0 0 .188.274c.054.023.114.03.172.021a.3.3 0 0 0 .156-.075c.354-.382.714-.825 1.1-1.165a16.1 16.1 0 0 1 5.024-2.474c2.518-.802 5.179-1.21 7.653-2.123.239-.109.228-.504-.057-.483m10.785-.023c.969.54 2.014.929 3.1 1.155.463.151.933.278 1.385.463a4.3 4.3 0 0 0 1.32.549.3.3 0 0 0 .13-.031.3.3 0 0 0 .154-.21.3.3 0 0 0-.009-.133c-.206-.898-1.722-1.235-2.474-1.451-2.132-.616-2.744-.864-3.474-.836a.266.266 0 0 0-.132.494M53.97 86.741a7.4 7.4 0 0 1-2.232-3.002 8.4 8.4 0 0 0-.34-1.122.21.21 0 0 0-.374.045 3.2 3.2 0 0 0 .319 2.045c.27.628.641 1.208 1.1 1.715a10.5 10.5 0 0 0 1.846 1.558c.089.055.089.099-.033.154-.087.164-.393.343-.538.462-.304.246-.73.45-.803.868a.274.274 0 0 0 .187.328c.418.067.682-.186 1.012-.44a3.2 3.2 0 0 0 1.022-.956c.378-.807-.672-1.257-1.166-1.655m-2.814 5.717c-.057.11-.155.339-.275.385-.189.073-.363-.164-.451-.285-.246-.374-.234-.863-.484-1.222-.082-.122-.321-.163-.396 0a1.74 1.74 0 0 0 .055 1.2 1.7 1.7 0 0 0 .649.978 1.09 1.09 0 0 0 1.089.066 1.13 1.13 0 0 0 .527-.92c.05-.39-.543-.534-.714-.202m-2.541-8.268a.615.615 0 0 0-.462.561c.07.327.217.633.43.89.327.316.857.19.857-.55 0-.44-.296-1.019-.825-.9m-7.058 5.859a.246.246 0 0 0-.328-.088c-.387.217-.46.639-.725.957a1.8 1.8 0 0 1-1.155.649 2.94 2.94 0 0 1-2.474-1.496c-1.118-1.94.753-4.785 2.2-3.65a.336.336 0 0 0 .526-.41 1.52 1.52 0 0 0-1.517-.692c-1.589.17-3.122 2.706-2.155 4.904a3.87 3.87 0 0 0 3.353 2.254A2.65 2.65 0 0 0 41 91.711c.406-.405.945-1.101.557-1.66"/><path fill="#191919" d="M39.732 92.733a12.6 12.6 0 0 1 .492 5.816c-.185.955-.473.984-.463 1.54a.288.288 0 0 0 .363.275c.65-.082.847-.87.968-1.419a9.3 9.3 0 0 0-.89-6.42.262.262 0 0 0-.47.208m-1.617-14.899c.172-.242.242-.542.198-.835a.27.27 0 0 0-.328-.187c-.583.086-.842 1.09-.99 1.583a9.57 9.57 0 0 0 .814 6.773c.13.246.46.067.418-.175-.409-2.372-1.28-4.584-.112-7.159m6.102-5.64a4.1 4.1 0 0 0-1.748 1.55c-1.533 1.886-2.876 4.355-2.77 6.785.012.275.438.362.491.066a13.15 13.15 0 0 1 2.95-6.278 6.1 6.1 0 0 0 1.363-1.829.236.236 0 0 0-.286-.294m5.675-1.838a.27.27 0 0 0-.328-.253c-.51.164-.446.48-1.476 1.55-1.53 1.593-3.431 2.91-3.948 5.146-.053.231.299.41.41.164 1.338-2.999 5.511-5.237 5.342-6.607m2.22 2.344c.382-.35.624-.826.682-1.341-.009-.164-.177-.343-.352-.275-.638.246-.647.727-2.089 2.276a19.5 19.5 0 0 1-2.386 2.221c-.218.164.055.483.275.362a12.5 12.5 0 0 0 3.87-3.243m2.078 1.756c.262-.354.635-.802.517-1.264a.23.23 0 0 0-.203-.174.2.2 0 0 0-.093.01c-.397.087-.608.503-.825.813a20 20 0 0 1-2.98 3.265c-.207.179.053.503.275.364a11 11 0 0 0 3.31-3.014m1.651 2.059c.278-.338.617-.78.45-1.23a.19.19 0 0 0-.22-.132c-.619.148-.616.843-1.957 1.902a26 26 0 0 1-2.748 1.77c-.208.125-.076.475.164.396a8.7 8.7 0 0 0 4.31-2.706m.922-.131a.235.235 0 0 0-.274-.11c-.44.153-.635.716-.847 1.088a7.7 7.7 0 0 1-.99 1.32 10 10 0 0 1-2.605 1.978.237.237 0 0 0 .187.429 7.55 7.55 0 0 0 4.134-3.233c.24-.4.622-.993.395-1.472M37.5 119.99c.334 1.214.833 2.387 1.253 3.585.773 2.209.853 2.87 1.32 3.353a.238.238 0 0 0 .396-.099 3.6 3.6 0 0 0-.264-1.704 27.3 27.3 0 0 0-2.232-5.322.256.256 0 0 0-.474.187"/><path fill="#191919" d="M48.946 101.914a.8.8 0 0 0-.22.088c.113-.349.117-.725.01-1.077-.337-2.281-.075-3.71-.296-4.346a.188.188 0 0 0-.341-.044c-.178.39-.271.814-.275 1.243a15 15 0 0 0 .088 3.082c.056.429.044.935.41 1.23q.054.046.121.066c-.22.121-.419.246-.649.363a6.7 6.7 0 0 1-4.277.22c-2.564-.605-3.536-2.259-4.574-3.387a.227.227 0 0 0-.374.22c.42 1.591 2.326 3.526 4.86 4.09a8.8 8.8 0 0 0 3.32.154c.914-.15 2.23-.539 2.552-1.517a.302.302 0 0 0-.355-.385m-11.325-2.331a11.6 11.6 0 0 0-3.815.913c-7.852 2.769-11.78 8.061-12.48 13.161-.825 6.012 1.85 13.612 4.53 16.537.252.275.647-.076.492-.386a36 36 0 0 1-3.167-7.124 24 24 0 0 1-.99-7.718c.23-4.96 3.476-9.08 7.609-11.579 3.493-2.111 6.917-2.762 7.938-3.353a.24.24 0 0 0 .115-.27.24.24 0 0 0-.232-.18m17.58 2.946c-.114-.439-.627-.68-1.01-.858a8.2 8.2 0 0 0-4.553-.738.235.235 0 0 0-.119.365q.046.061.119.086c1.417.196 2.802.573 4.124 1.122.373.164.838.449 1.264.318a.25.25 0 0 0 .175-.295"/><path fill="#71b6f6" d="M82.096 70.192c-.552-1.68-2.417-1.797-3.09-.208-.58 1.368.23 2.648 1.847 6.839a.146.146 0 0 0 .22.087 14.2 14.2 0 0 0 2.946-2.693c.718-.902 1.64-2.09 1.66-3.3.038-1.97-2.494-2.409-3.584-.725"/><path fill="#191919" d="M101.327 58.318q.425.09.857.067a.473.473 0 1 0 0-.947 2.7 2.7 0 0 0-.857.067.43.43 0 0 0-.297.407.43.43 0 0 0 .297.406m.879 3.849a2.9 2.9 0 0 0-.858.066.424.424 0 0 0 0 .814q.424.091.858.065a.476.476 0 0 0 .336-.808.48.48 0 0 0-.336-.137m2.21-6.762a.235.235 0 0 0-.343.173q-.011.077.024.146a11 11 0 0 1 1.286 2.253 8.16 8.16 0 0 1-.23 5.586c-.569 1.563-1.122 1.978-.858 2.507a.18.18 0 0 0 .154.088c.462-.033.671-.55.858-.924a11.4 11.4 0 0 0 1.297-4.75c.037-1.737-.561-4.15-2.188-5.08M83.066 38.56c-5.67-10.55-20.348-10.987-28.06-5.817-5.677 3.81-8.104 10.688-7.982 17.296.143 7.668 5.648 13.868 12.172 14.953.913.152 1.836.22 2.76.287.112 1.122 1.615 3.419 3.991 4.64.538.276 1.34.758 1.957.46.543 0 .186-1.163.164-1.44-.127-1.66.214-2.964.154-4.221a15.96 15.96 0 0 0 10.511-4.19c2.938-2.624 4.71-6.464 5.674-10.214 1.05-3.947.57-8.144-1.34-11.754m.833 8.18a22.46 22.46 0 0 1-3.949 10.863c-2.793 3.83-7.406 5.928-12.128 6.28a.422.422 0 0 0-.274.725 15.7 15.7 0 0 0-.418 4.739 6 6 0 0 1-.703-.287 9.56 9.56 0 0 1-3.794-3.903.27.27 0 0 0-.164-.41 22 22 0 0 1-5.725-1.316 14.88 14.88 0 0 1-8.62-10.988 22.9 22.9 0 0 1 1.023-10.49c2.072-5.889 6.61-9.966 13.645-11.115a22.4 22.4 0 0 1 10.225.681A15.53 15.53 0 0 1 83.9 46.74"/><path fill="#71b6f6" d="M57.369 47.15a1.67 1.67 0 0 0-.718 1.394 1.526 1.526 0 0 0 1.435 1.476 1.34 1.34 0 0 0 1.27-1.19c.227-1.442-1.074-2.254-1.987-1.68m7.335.007a1.65 1.65 0 0 0-.731 1.402 1.525 1.525 0 0 0 1.436 1.476 1.34 1.34 0 0 0 1.27-1.19c.224-1.428-1.037-2.236-1.975-1.688m8.332.162a1.297 1.297 0 0 0-1.696-.32 1.67 1.67 0 0 0-.718 1.394 1.524 1.524 0 0 0 1.435 1.476c1.256.005 1.66-1.71.98-2.55"/><path fill="#191919" d="M26.747 33.942c-.171-.448-.301-1.165-.803-1.341a.29.29 0 0 0-.286.077c-.393.453-.037 1.211.154 1.693.515 1.298 2.209 4.371 3.28 4.453a.277.277 0 0 0 .274-.275c-.023-.993-1.202-.865-2.62-4.607m9.148-5.299a4.4 4.4 0 0 0-.492 1.748c-.218 1.526-.32 4.175.246 5.63a.293.293 0 0 0 .574-.078c.172-1.892-.225-2.147.144-5.464a7 7 0 0 0 .088-1.77c-.065-.264-.437-.263-.56-.066m11.468-3.31c-.02-.198-.21-.432-.44-.341-.509.203-.709.696-.956 1.144a22 22 0 0 0-2.023 4.562.271.271 0 0 0 .492.21c1.023-1.723 1.343-2.429 2.353-4.2.234-.407.624-.87.574-1.375m82.145 48.895a8.4 8.4 0 0 0-1.935-.175 99 99 0 0 1-5.135-.43c.88-1.301 2.562-4.157 2.738-5.42.037-.264-.308-.582-.527-.297a24 24 0 0 0-1.64 2.947 35 35 0 0 1-1.881 2.925c-.242.34.088.701.418.738 1.103.119 6.848.757 7.938.506a.412.412 0 0 0 .233-.638.4.4 0 0 0-.209-.156"/><path fill="#191919" d="M160.217 61.518c-.103-6.531-3.333-13.38-9.348-16.383-6.92-3.457-18.414-2.561-23.584 4.135-3.814 4.938-4.378 14.525-2.606 17.812.189.35.712.099.626-.264a23.5 23.5 0 0 1-.154-9.533c.618-3.486 1.882-6.815 4.618-9.184 4.711-4.073 12.715-4.838 18.439-2.979 6.266 2.035 9.905 7.581 10.841 14.041.528 3.644-.069 6.596-1.286 10.071-1.18 3.369-2.77 5.796-6.168 7.774a20.56 20.56 0 0 1-15.438 1.924c-2.249-.53-4.3-1.69-5.915-3.343-.233-.216-.69.082-.473.364 5.481 7.009 22.422 6.067 27.609-3.41a25 25 0 0 0 2.839-11.025"/><path fill="#191919" d="M151.398 56.724a6.8 6.8 0 0 0-2.132-.319 2565 2565 0 0 0-14.415-.461 10 10 0 0 0-1.209.132c-.318.037-.463.529-.088.615 1.282.296-.102.233 15.624.814a7 7 0 0 0 2.221-.164.326.326 0 0 0-.001-.617m-.792 5.311a7.4 7.4 0 0 0-2.045-.23c-.851-.047-9.938-.54-12.464-.54a8.2 8.2 0 0 0-2.112.143.3.3 0 0 0-.149.106.29.29 0 0 0 0 .349.3.3 0 0 0 .149.106 8 8 0 0 0 2.012.22c14.49.69 13.809.812 14.613.648.425-.087.361-.674-.004-.802m-.736 4.485a21.5 21.5 0 0 0-3.991-.318 174 174 0 0 0-3.97-.132 52 52 0 0 0-7.928.22c-.34.045-.219.542.077.574 3.232.322 5.57.037 11.722.351 1.317.145 2.644.196 3.969.154.462-.047.627-.727.121-.848m-37.858-30.589a10.4 10.4 0 0 0-3.728-.351c-1.04-2.35-.936-4.182-.328-6.63a5.9 5.9 0 0 0 .308-1.914 1.76 1.76 0 0 0-.878-1.309 1.77 1.77 0 0 0-1.574-.085 4.9 4.9 0 0 0-2.492 2.637 11 11 0 0 0-.88 3.683 13.8 13.8 0 0 0-3.42-.176 7.4 7.4 0 0 0-3.397.858c-1.48.94-1.923 2.895-.418 3.98a1.775 1.775 0 0 0-.814 2.013 2.09 2.09 0 0 0 1.342 1.275.945.945 0 0 0-.41 1.198c.26.706.902.869 1.572.967a.9.9 0 0 0-.077 1.012c.54.963 2.155 1.143 3.134 1.275 1.232.187 2.487.146 3.705-.12a2.14 2.14 0 0 0 1.804-1.781c1.338-.246 1.594-.253 1.693-.451.22.528.902.637 1.463.758q.62.126 1.253.164c.374.072.761.03 1.111-.12.602-.356.609-1.308.714-1.903.164-.91.299-1.839.473-2.76.118-.628.595-1.84-.156-2.22m-16.564 2.749c-.524-.574-.058-1.607 1.055-1.495 1.647.164 2.909.492 4.772.055.099-.033.22-.055.319-.088.298.09.578.236.824.428a.47.47 0 0 1 .19.323.5.5 0 0 1-.102.36c-.208.319-.724.41-1.077.527-.86.275-1.743.467-2.64.574a4.8 4.8 0 0 1-1.461.055 3.36 3.36 0 0 1-1.88-.739m.978 2.353c-.78-.463.56-.72.891-.792a21 21 0 0 0 3.42-.44 7.6 7.6 0 0 0 1.517-.45c.374.164.82.395.715.858-.218.928-3.794 1.544-4.718 1.198a7.8 7.8 0 0 1-1.83-.374zm4.346 2.542a9.7 9.7 0 0 1-2.378-.461c-.199-.066-.767-.22-.803-.462-.03-.198.41-.374.539-.374 1.82 0 3.116.012 4.727-.868.304.188 1.225-.035 1.76.582a.37.37 0 0 0 0 .22c.338 1.548-3.019 1.417-3.852 1.361zm6.322-2.1a.46.46 0 0 0-.41-.132c-.539.1-1.089.198-1.64.297a1.24 1.24 0 0 0-.528-.604 2.5 2.5 0 0 0-.945-.297c.341-.53.26-1.259-.539-1.892a1.25 1.25 0 0 0 .341-1.253 1.57 1.57 0 0 0-.836-.924c.033-.033.055-.043.088-.076.902-.894-.046-1.954-.913-2.353a4.45 4.45 0 0 0-3.386-.308c-.374.164-.154.715.197.726a5.2 5.2 0 0 1 2.508.22c.351.131.886.342 1.055.714.226.498-.527.674-.847.77a10.95 10.95 0 0 1-4.65-.055c-.767-.246-1.583-.726-1.418-1.65a2.31 2.31 0 0 1 1.726-1.64 11.95 11.95 0 0 1 5.805-.153.44.44 0 0 0 .491-.224.4.4 0 0 0 .048-.186 9.6 9.6 0 0 1 1-4.212c1.244-2.246 2.876-2.3 3.244-1.385.391.973-.531 1.9-.66 4.684a7.75 7.75 0 0 0 1.033 4.428q-.09.202-.142.417a15.8 15.8 0 0 0-.624 5.086zm4.365-3.727c-.077.429-.496 2.88-.638 3.672-.066.374-.043.675-.472.726a4.7 4.7 0 0 1-1.312-.132c-.286-.055-1.014-.109-1.143-.396a18.7 18.7 0 0 1 .574-4.816c.03-.099.055-.41.154-.45a.54.54 0 0 1 .242-.034c.246 0 2.697.305 2.715.32.156.132-.082.917-.127 1.107zM52.585 90.974q.275 1.063.362 2.155c.116.624.011 1.27-.296 1.825-1.312 1.804-5.325-.052-7.234-1.198a4.46 4.46 0 0 1-2.288-2.914c-.098-.528-.902-.307-.814.22a5.25 5.25 0 0 0 2.683 3.42 18.5 18.5 0 0 0 4.607 1.924c1.3.258 2.952.183 3.783-1.034a3.28 3.28 0 0 0 .429-2.034 14.7 14.7 0 0 0-.41-2.606.431.431 0 0 0-.822.242m92.293 38.428c-2.87-3.788-6.661-4.529-9.588-5.366-.154-.032-.285-.088-.439-.132a7.3 7.3 0 0 0 4.606-3.243.465.465 0 0 0-.077-.55c-4.317-3.824-4.048-10.148-4.233-15.448-.178-5.091-1.033-10.93-5.706-13.898a7.43 7.43 0 0 0-7.598-.429c-2.378-2.1-9.941 3.936-8.422 10.27.05.223.148.433.286.616a21.2 21.2 0 0 0-.935 4.783 15.7 15.7 0 0 0 .275 5.453 5.65 5.65 0 0 0 .94 2.051 5.65 5.65 0 0 0 1.666 1.522c.78.399 1.654.581 2.529.528.03 1.127-.08 2.254-.328 3.353a9.7 9.7 0 0 1-.606 1.826c-.141.308-.432.925.078 1.055.595.153.912-1.037 1.111-1.616a9.9 9.9 0 0 0 .417-4.684c2.132-.334 4.72-1.645 5.674-3.526a.35.35 0 0 0-.097-.443.35.35 0 0 0-.453.026 9.5 9.5 0 0 1-3.244 2.495c-1.323.574-3.068.958-4.428.319-2.894-1.359-2.809-5.321-2.649-8.016.157-1.781.425-3.551.803-5.299 3.59-3.977 5.309-4.389 5.948-5.31a15.5 15.5 0 0 0 5.387 7.322 7.9 7.9 0 0 0 2.045 1.012c.033 0 .066.01.088 0q.107.079.199.175a.47.47 0 0 0 .549.077 1.61 1.61 0 0 1 2.034.429 2.44 2.44 0 0 1 .363 2.243 2.76 2.76 0 0 1-3.804 1.65.47.47 0 0 0-.55.077 3.4 3.4 0 0 0-.539 1.286c-1.285 4.441-1.136 9.308-1.001 13.623a.5.5 0 0 0 .253.388.5.5 0 0 0 .463.007 7.9 7.9 0 0 0 3.243.594 29.6 29.6 0 0 0 4.255-.373c1.837.918 4.838 1.331 7.169 2.649a11.58 11.58 0 0 1 5.751 8.357c.11.664.202 2.006.362 2.452a.2.2 0 0 0 .173.144.2.2 0 0 0 .201-.101c.555-1.318.231-5.181-2.171-8.348m-19-28.753a.4.4 0 0 1-.417 0 8.14 8.14 0 0 1-3.31-4.078 2.9 2.9 0 0 1-.274-1.672.2.2 0 0 1 .056-.096.22.22 0 0 1 .211-.052.2.2 0 0 1 .095.06 7.5 7.5 0 0 1 .813 1.693 9 9 0 0 0 2.378 3.024c.304.255 1 .751.448 1.121m2.496-9.037c-.477.088-.666-.312-1.715-.627-.656-.198-1.334-.16-2.001-.308a.15.15 0 0 1-.112-.132.15.15 0 0 1 .079-.154 3.42 3.42 0 0 1 2.132-.066c.528.12 1.64.396 1.771 1.023.011.12-.044.253-.154.264m-47.312 3.331c.379-2.112.453-4.486-.648-6.41a4.78 4.78 0 0 0-4.53-2.529c-1.979.246-3.28 1.852-4.849 2.913-3.942 2.677-8.566 1.731-11.38 5.07-3.116 3.69-2.518 8.938-.593 13.038a3.72 3.72 0 0 0-1.76 1.64 3.61 3.61 0 0 0 .088 3.444 4.14 4.14 0 0 0 3.28 1.968c.697.111 1.41.035 2.067-.22a15.9 15.9 0 0 1 .98 7.38 2.6 2.6 0 0 0-.023.594c-.077-.077-.152-.144-.23-.22a.252.252 0 0 0-.417.242c.37 1.353 1.77 2.207 3 2.694a12.18 12.18 0 0 0 8.225.11c1.244-.433 2.813-1.09 3.584-2.199.252-.363-.22-.694-.55-.55a6.7 6.7 0 0 0-1.011.593c-.023-.594-.599-.792-.704-3.089-.015-.318.033-.648 0-.956a5.5 5.5 0 0 0 1.99-.656 5.42 5.42 0 0 0 2.43-4.168 16.8 16.8 0 0 0-.905-6.212 32.3 32.3 0 0 0-2.387-6.289c2.411-1.547 3.812-3.223 4.343-6.188m-1.956 16.987a5.72 5.72 0 0 1-1.298 4.552c-1.166 1.177-3.057 1.243-4.618 1.11a7.5 7.5 0 0 1-4.497-1.924.27.27 0 0 0-.353-.016.27.27 0 0 0-.076.344 3.9 3.9 0 0 0 1.682 1.649 9.8 9.8 0 0 0 4.926.913 5.9 5.9 0 0 0 .253 3.519c.127.316.23.681.528.846a11.05 11.05 0 0 1-9.06.759 8.2 8.2 0 0 1-2.386-1.408c.574-.384.544-1.385.604-2.001.255-2.619-.569-5.785-1.32-6.828a1.22 1.22 0 0 0 .562-.978.41.41 0 0 0-.412-.407.4.4 0 0 0-.204.055c-.667.318-.834 1.218-2.77.913a3.07 3.07 0 0 1-2.398-1.485 2.65 2.65 0 0 1 1.804-3.87 3.31 3.31 0 0 1 3.794 1.572c.251.463 1.089.275 1.034-.274a12.4 12.4 0 0 1 .902-6.092c4.54.97 7.554.289 10.357-1.363.34.996 2.635 6.502 2.946 10.414m-1.76-15.36a8.36 8.36 0 0 0 1.495-4.552c.022-.506-.065-1.012-.044-1.518a.3.3 0 0 1 .506-.208c.837.79.574 2.397.429 3.43a7.4 7.4 0 0 1-1.374 3.444c-.446.585-1.462-.002-1.012-.595z"/><path fill="#71b6f6" d="M18.72 64.85c.357.055.72.055 1.077 0a2.45 2.45 0 0 0 1.09-.41 1.998 1.998 0 0 0-.54-3.497 7 7 0 0 0-1.463-.263 33 33 0 0 1-.164 4.17"/><path fill="#71b6f6" d="M33.42 73.13a5.66 5.66 0 0 1-2.078-1.584c-.246-.246-.902-.93-1.11-1.21a13.8 13.8 0 0 0 2.46-8.118c.137-5.862-4.134-12.907-10.83-14.25a14.735 14.735 0 0 0-15.358 7.327c-2.367 4.237-2.967 10.235-.472 14.942a16.5 16.5 0 0 0 6.003 6.257c3.249 1.654 7.934 1.7 10.71.912 1.833-.521 2.987-1.51 4.573-3.034a.08.08 0 0 0 .066.033 6.56 6.56 0 0 0 3.254.352c.76-.106 2.41-.574 2.87-1.143a.268.268 0 0 0-.087-.485M14.234 60.484a.759.759 0 0 1 1.495-.044c.23 1.337-1.72 1.015-1.495.044m.41 3.99a.744.744 0 0 1 1.362.265c.249 1.44-2.113.93-1.364-.264zm4.892 1.595c-.692.036-1.886.033-1.979-.858-.03-.898.035-1.798.198-2.682.114-.913.237-1.835.41-2.76a.254.254 0 0 1 .385-.154c.056-.067.382-.324 1.495-.088 3.89.828 3.883 6.311-.51 6.542"/></svg>