<svg xmlns="http://www.w3.org/2000/svg" fill="none" viewBox="0 0 164 164"><path fill="#191919" fill-rule="evenodd" d="M66.289 123.731a1.34 1.34 0 0 0 .363-1.439 1.3 1.3 0 0 0-.268-.447c-3.404-3.74-6.591-7.654-9.966-11.419a1.56 1.56 0 0 0-1.903-.328c-15.416 8.398-30.724 17.118-46.658 24.59a1.34 1.34 0 0 0-.745.936 1.35 1.35 0 0 0 .292 1.159l16.357 19.125a1.61 1.61 0 0 0 1.924.404c5.494-2.637 10.245-6.866 14.897-10.582 8.864-7.089 17.295-14.448 25.707-21.999m2.147-30.969a.644.644 0 0 0-.894-.142q-1.156 1.08-2.434 2.013c-.425-1.148-2.123-3.116-3.834-3.145-1.276-.023-2.624.933-3.586 3.352a11.9 11.9 0 0 0-1 4.931c-.04.645-.297 6.326-.307 6.97-.01.574.032 1.148.01 1.711a.647.647 0 0 0 .608.689.65.65 0 0 0 .69-.607c.045-.544.12-1.091.142-1.647.073-2.015-.181-3.212.087-6.473.066-.878.213-1.748.438-2.599q.209-1.281.574-2.526c.6-1.82 1.402-2.731 2.343-2.751 1.272-.026 2.16 1.516 2.767 2.87a23 23 0 0 0-2.277 1.78.652.652 0 0 0 .806 1.02c1.09-.645 4.357-3.53 5.723-4.557a.643.643 0 0 0 .144-.89" clip-rule="evenodd"/><path fill="#191919" fill-rule="evenodd" d="M65.903 92.965a12 12 0 0 1 2.952-2.119 6.4 6.4 0 0 1 1.076-.367c1.38-.365 2.126.794 2.386 2.198.25 1.583.181 3.2-.2 4.756a.642.642 0 0 0 1.275.135c.252-3.183.22-4.767-.018-5.937-.894-4.4-5.996-1.869-7.453-.603q-.525.488-.967 1.055a.65.65 0 0 0 .504 1.077.65.65 0 0 0 .45-.19zm7.877 10.723a.63.63 0 0 0 .116.7q.087.091.203.145a.65.65 0 0 0 .488.015.64.64 0 0 0 .356-.333c1.593-3.412 2.51-7.846.42-10.797a.645.645 0 0 0-.645-.326.7.7 0 0 0-.241.08c-1.44.818 2.738 2.884-.697 10.516m3.864-4.766c-.036 1.995-.108 5.778-1.222 8.216a.63.63 0 0 0-.03.493.637.637 0 0 0 1.184.043c1.223-3.357 2.003-5.372 1.36-8.887a.65.65 0 0 0-.459-.57q-.126-.038-.256-.025a.65.65 0 0 0-.577.73" clip-rule="evenodd"/><path fill="#191919" fill-rule="evenodd" d="M80.615 104.04c-.191.528-.426 1.036-.615 1.563-.433 1.211-.771 2.446-1.312 3.608a13.9 13.9 0 0 1-2.92 4.064 26.7 26.7 0 0 1-6.417 5.263c-.794.492-1.64.917-2.455 1.417a.64.64 0 0 0 .691 1.075c.832-.56 1.624-1.156 2.442-1.695a56 56 0 0 0 5.766-4.036 9.9 9.9 0 0 0 2.357-2.724 17.4 17.4 0 0 0 1.656-2.825 23 23 0 0 0 2.039-5.287.646.646 0 0 0-.4-.826.654.654 0 0 0-.832.403m7.389-37.285c-1.923-1.289-5.647-.962-9.742-2.7-5.243-2.219-7.51-6.033-9.766-11.28-.356-.826-.739-1.69-1.096-2.625a.652.652 0 0 0-1.23.434c.316.978.624 1.906.984 2.76a27 27 0 0 0 6.724 9.64c3.28 2.8 5.688 3.295 9.865 3.81a9.6 9.6 0 0 1 3.678.87c1.636 1.038 2.323 2.064 2.107 2.991-.386 1.65-3.006 1.937-3.287 2.102a15 15 0 0 0-1.354-2.637.651.651 0 0 0-1.172.564c.91 2.818 2.172 4.37 3.198 6.58a.638.638 0 0 0 1.167-.03.64.64 0 0 0 .005-.48 13.7 13.7 0 0 1-1.499-2.9c4.867-1.284 5.308-4.602 1.418-7.099" clip-rule="evenodd"/><path fill="#191919" fill-rule="evenodd" d="M88.11 75.079a9.6 9.6 0 0 1 1.548 4.472c.055 1.429-1.239 1.903-2.666 1.85a12.2 12.2 0 0 1-4.593-1.23.64.64 0 0 0-.626 1.087.6.6 0 0 0 .217.123c.375.115 3.547.966 4.32 1.107 3.542.648 4.757-.715 4.632-2.998-.024-.434-.41-2.474-.432-2.563a5.44 5.44 0 0 0-1.326-2.584.65.65 0 1 0-1.073.738zM84.8 83.44a10.27 10.27 0 0 1-8.888-3.736.636.636 0 0 0-1.039.217.64.64 0 0 0 .145.694c2.74 2.296 6.413 5.08 9.995 4.1a.64.64 0 0 0 .526-.494.64.64 0 0 0-.081-.49.65.65 0 0 0-.659-.298zm-5.505 2.381c-2.92-1.305-4.931-1.51-7.078-4.346a.638.638 0 0 0-1.08.637q.046.12.134.214c2.605 2.435 4.164 3.948 7.64 4.74a.65.65 0 0 0 .384-1.242zM74.09 87.02c-5.68-3.583-6.56-4.494-7.966-6.901a53 53 0 0 1-2.993-6.175c-1.139-2.505-7.167-14.61-9.503-17.832a.635.635 0 0 0-.893-.132.637.637 0 0 0-.132.893c4.51 5.962 6.778 12.687 9.045 17.452.621 1.305 2.952 5.766 4.044 7.472a12.7 12.7 0 0 0 3.608 3.757 36 36 0 0 0 4.114 2.572.66.66 0 0 0 .494.084.66.66 0 0 0 .406-.293.64.64 0 0 0-.03-.726.6.6 0 0 0-.19-.17z" clip-rule="evenodd"/><path fill="#71b6f6" fill-rule="evenodd" d="M69.134 46.017c-5.603-19.548-4.229-18.036-8.828-38.56a.657.657 0 0 0-1.007-.392.65.65 0 0 0-.264.67c.398 1.92.748 3.666 1.066 5.274-5.412 2.52-11.23 3.71-21.074 11.538a11.4 11.4 0 0 0-1.922 1.886 40.6 40.6 0 0 1-1.68-5.762.639.639 0 0 0-1.255.238c1.394 7.103 11.755 28.638 15.473 35.407a.654.654 0 0 0 .898.24c5.457-3.148 11.324-5.682 18.286-9.792a.656.656 0 0 0 .307-.747M37.63 27.871c4.363-4.714 14.439-10.578 19.953-12.64.915-.345 1.84-.656 2.76-1 .196.99 1.727 8.568 2.261 11.057-10.424 4.473-9.505 3.554-14.47 6.708-4.408 2.788-5.38 3.628-6.76 4.98-1.298-2.915-2.638-6.126-3.745-9.105m4.312 10.373c.484-.418.994-.803 1.48-1.209 1.23-1.013 2.426-2.044 3.735-2.925a103 103 0 0 1 12.085-6.267c1.378-.574 1.992-.787 3.625-1.336.324 1.487 1.886 8.208 2.436 10.363-.968.39-1.916.82-2.87 1.238-7.646 3.374-6.765 3.087-11.415 6.168a23 23 0 0 0-4.503 3.475 237 237 0 0 1-4.573-9.507m8.508 16.854a175 175 0 0 1-3.287-6.078 34.2 34.2 0 0 1 8.816-6.216c3.864-2.242 5.507-3.46 9.63-4.744.59 2.274 1.283 4.83 2.128 7.817-3.05 1.66-11.712 5.937-17.287 9.221m24.581 5.833c1.505-4.38-3.161-5.111-7.362-3.273a35.3 35.3 0 0 0-5.84 3.383 25.9 25.9 0 0 0-5.968 6.88c-2.027 3.444.566 6.735 4.772 5.63a.64.64 0 0 0 .444-.784.64.64 0 0 0-.785-.445c-3.567 1.04-5.016-1.416-3.492-3.832a24.4 24.4 0 0 1 5.074-5.561c2.31-1.913 3.636-3.004 6.291-4.127 1.537-.65 3.608-.948 4.898-.468.775.288 1.136.965.744 2.188a.648.648 0 1 0 1.23.41z" clip-rule="evenodd"/><path fill="#71b6f6" fill-rule="evenodd" d="M74.04 60.09a3.22 3.22 0 0 0-.594-4.007c-.984-.875-2.806-1.329-5.576-.868a34 34 0 0 0-7.19 2.305 22.8 22.8 0 0 0-6.12 4.422c-1.593 1.64-2.162 3.801-1.223 5.219.697 1.053 2.285 1.844 5.18 1.509a.64.64 0 0 0 .085-1.25.6.6 0 0 0-.248-.016c-2.268.318-3.602 0-4.163-.82-.72-1.05-.067-2.653 1.167-3.837a25 25 0 0 1 5.74-3.748c.465-.237 1.895-1.014 3.115-1.494 2.24-.88 5.56-1.76 7.715-.714a1.935 1.935 0 0 1 .938 2.74.651.651 0 0 0 1.174.562z" clip-rule="evenodd"/><path fill="#191919" fill-rule="evenodd" d="M115.596 79.849c7.232-1.927 10.38-3.034 15.412-4.286 1.476-.367 2.973-.679 4.463-1.06 8.41-2.153 11.628-3.39 20.38-3.885a.63.63 0 0 0 .437-.218.63.63 0 0 0 .155-.463.65.65 0 0 0-.217-.437.64.64 0 0 0-.464-.156c-3.295.256-9.49 1.33-12.669 1.968-9.594 1.926-9.306 2.137-12.414 3.017-10.112 2.863-7.534 1.93-15.438 4.264a.653.653 0 0 0-.429.798.65.65 0 0 0 .784.454zm-7.653 17.841a24.7 24.7 0 0 1 7.209-3.409c6.271-1.886 11.437-1.823 18.085-2.563 2.781-.31 21.496-2.343 23.88-2.677a.64.64 0 0 0 .537-.725.64.64 0 0 0-.726-.536c-2.068.327-4.131.678-6.21.946-7.856 1.008-18.147 1.105-31.012 3.208-5.002.82-8.86 1.778-12.565 4.735a.647.647 0 0 0-.093.899.65.65 0 0 0 .895.122m-7.635 12.347c-1.123 1.554-1.764 1.511-2.666 1.244-1.205-.357-1.696-2.945-1.843-4.196a.65.65 0 0 0-.248-.42.62.62 0 0 0-.472-.123.6.6 0 0 0-.235.082.63.63 0 0 0-.295.389.6.6 0 0 0-.015.249c.26 1.648 1.043 4.756 2.595 5.282 4.864 1.648 7.298-8.22 9.02-12.973a.656.656 0 0 0-.368-.84c-1.736-.678-.911 4.994-5.473 11.306" clip-rule="evenodd"/><path fill="#191919" fill-rule="evenodd" d="M97.437 105.268c-1.23.276-4.92 1.94-6.838 2.602a.63.63 0 0 0-.37.32.63.63 0 0 0-.035.488.65.65 0 0 0 .561.436.7.7 0 0 0 .248-.031c1.968-.648 4.806-1.766 6.892-2.596a.654.654 0 0 0 .244-1.055.64.64 0 0 0-.452-.205.6.6 0 0 0-.25.041" clip-rule="evenodd"/><path fill="#191919" fill-rule="evenodd" d="M93.09 109.756c-1.08.569-2.249.948-3.457 1.121-2.015.258-3.131-.343-2.283-2.656.71-1.939 1.297-3.371 1.635-4.466a.637.637 0 0 0-.332-.829.634.634 0 0 0-.837.314c-.106.257-1.256 3.371-1.487 4.205-.628 2.262-.954 4.278 1.363 4.649a8.42 8.42 0 0 0 6.036-1.203.647.647 0 0 0 .237-.88.653.653 0 0 0-.875-.255m-7.31-5.116c-.046-3.589 2.014-6.686 4.238-8.657a.63.63 0 0 0 .208-.442.63.63 0 0 0-.365-.607.63.63 0 0 0-.7.104c-2.924 2.585-5.446 6.068-4.675 9.742a.657.657 0 0 0 .718.597.7.7 0 0 0 .248-.078.66.66 0 0 0 .311-.401.7.7 0 0 0 .016-.258zm-2.023-5.208a13.2 13.2 0 0 1 4.538-6.957.635.635 0 0 0-.361-1.118.63.63 0 0 0-.464.15c-2.58 2.613-4.13 4.335-4.944 7.508a.655.655 0 0 0 .18.707.64.64 0 0 0 .477.161.65.65 0 0 0 .574-.451" clip-rule="evenodd"/><path fill="#191919" fill-rule="evenodd" d="M82.306 95.12c3.7-4.645 6.354-7.912 11.942-9.798a74 74 0 0 1 8.834-1.994.65.65 0 0 0 .402-.278.65.65 0 0 0 .087-.48.64.64 0 0 0-.758-.49c-5.007.975-10.125 1.865-14.296 4.719a28.7 28.7 0 0 0-5.897 5.649c-.469.61-.881 1.26-1.342 1.886a.648.648 0 1 0 1.028.79zm31.9-5.388c2.98-1.298 1.183-5.346.121-8.66-.427-1.404-1.017-2.64-2.438-3.002a10.43 10.43 0 0 0-5.61.615c-1.239.55-1.877 1.432-1.653 2.358.02.082 1.247 6.667 2.123 7.972a2.93 2.93 0 0 0 1.765 1.23c.26 1.748.901 3.417 1.878 4.89a.65.65 0 0 0 .424.26q.128.02.252-.013a.64.64 0 0 0 .458-.793.6.6 0 0 0-.117-.225c-1.006-1.91-1.404-2.922-1.488-3.957a22 22 0 0 0 2.999-.335 15.3 15.3 0 0 0 1.585 3.424.64.64 0 0 0 .67.232.64.64 0 0 0 .347-1.003 15.7 15.7 0 0 1-1.316-2.993m-4.868-3.806a.368.368 0 1 1-.712-.19 27.3 27.3 0 0 1 1.765-5.599.375.375 0 0 1 .616-.138.4.4 0 0 1 .11.27.4.4 0 0 1-.032.146 44 44 0 0 0-1.747 5.511m3.351-3.584a44 44 0 0 0-1.746 5.51.4.4 0 0 1-.063.128.38.38 0 0 1-.388.132.4.4 0 0 1-.129-.064.36.36 0 0 1-.141-.243.4.4 0 0 1 .009-.144 27.3 27.3 0 0 1 1.765-5.597.372.372 0 0 1 .725.132.4.4 0 0 1-.032.146" clip-rule="evenodd"/><path fill="#71b6f6" fill-rule="evenodd" d="M104.702 57.128c-1.108.633-2.05 1.202-2.05 1.202a.67.67 0 0 0-.252.286.67.67 0 0 0 .428.927l1.743.515c-.06 1.776-.076 3.34-.076 3.34a.66.66 0 0 0 .439.625.66.66 0 0 0 .734-.216s1.382-1.94 2.155-3.019c1.882.315 3.839.525 3.839.525a.645.645 0 0 0 .559-1.085s-1.174-1.186-2.495-2.542c.702-1.25 1.388-2.51 1.388-2.51a.54.54 0 0 0-.072-.6.53.53 0 0 0-.584-.148c-1.984.76-2.19.902-2.775 1.13a108 108 0 0 1-1.64-1.776.672.672 0 0 0-1.152.421s-.128 1.863-.189 2.924M38.274 71.996c-1.603.107-3.01.23-3.01.23a.674.674 0 0 0-.355 1.185l1.81 1.552c-.985 1.914-1.82 3.635-1.82 3.635a.648.648 0 0 0 .877.869l4.076-2.16a105 105 0 0 0 4.133 2.64.643.643 0 0 0 .953-.753s-.738-1.93-1.552-4.114c1.436-.996 2.888-2.026 2.888-2.026a.53.53 0 0 0-.262-.96 84 84 0 0 0-3.81-.238c-.586-1.62-1.013-2.875-1.013-2.875a.67.67 0 0 0-1.217-.089s-1.088 1.972-1.698 3.104m49.341 53.618a283 283 0 0 1-3.936.119.69.69 0 0 0-.597.409.68.68 0 0 0 .104.715s1.751 2.042 2.767 3.206c-.692 1.996-1.26 3.772-1.26 3.772a.672.672 0 0 0 .992.769l2.818-1.645a366 366 0 0 0 3.317 3.624.64.64 0 0 0 .73.162.65.65 0 0 0 .4-.634s-.303-3.946-.443-5.843c2.558-1.858 5.179-3.948 5.179-3.948a.636.636 0 0 0-.41-1.148s-2.601.138-5.533.272c-.435-2.108-.907-4.279-.907-4.279a.532.532 0 0 0-.989-.126 117 117 0 0 0-2.232 4.575" clip-rule="evenodd"/><path fill="#191919" d="M100.153 39.877a.62.62 0 0 1-.614-.583.6.6 0 0 1 .061-.302l7.688-15.714a.614.614 0 0 1 1.135.07.62.62 0 0 1-.03.47l-7.687 15.715a.62.62 0 0 1-.553.344m-5.879-.791a.613.613 0 0 1-.613-.574l-.902-13.34a.6.6 0 0 1 .151-.447.61.61 0 0 1 .662-.178.62.62 0 0 1 .417.543l.902 13.34a.6.6 0 0 1-.165.462.6.6 0 0 1-.452.194m29.159 97.772a.6.6 0 0 1-.291-.072.6.6 0 0 1-.221-.201l-11.188-16.714a.63.63 0 0 1-.097-.464.615.615 0 0 1 1.119-.221l11.188 16.711a.6.6 0 0 1 .105.312.62.62 0 0 1-.298.561.6.6 0 0 1-.317.088m6.301-10.554c-.276 0-.063.074-11.234-6.963a.6.6 0 0 1-.272-.384.6.6 0 0 1-.007-.241.63.63 0 0 1 .252-.398.61.61 0 0 1 .683-.018l10.906 6.868a.617.617 0 0 1-.328 1.136"/></svg>